<svg width="25" height="25" viewBox="0 0 25 25" fill="none" xmlns="http://www.w3.org/2000/svg">
<path d="M16.6668 11.4583C18.396 11.4583 19.7814 10.0624 19.7814 8.33325C19.7814 6.60409 18.396 5.20825 16.6668 5.20825C14.9377 5.20825 13.5418 6.60409 13.5418 8.33325C13.5418 10.0624 14.9377 11.4583 16.6668 11.4583ZM8.33345 11.4583C10.0626 11.4583 11.4481 10.0624 11.4481 8.33325C11.4481 6.60409 10.0626 5.20825 8.33345 5.20825C6.60428 5.20825 5.20844 6.60409 5.20844 8.33325C5.20844 10.0624 6.60428 11.4583 8.33345 11.4583ZM8.33345 13.5416C5.90636 13.5416 1.04175 14.7603 1.04175 17.1874V19.7916H15.6252V17.1874C15.6252 14.7603 10.7605 13.5416 8.33345 13.5416ZM16.6668 13.5416C16.3647 13.5416 16.021 13.5624 15.6564 13.5937C16.8647 14.4687 17.7085 15.6458 17.7085 17.1874V19.7916H23.9585V17.1874C23.9585 14.7603 19.0939 13.5416 16.6668 13.5416Z" fill="#30333E"/>
</svg>
