<svg width="25" height="25" viewBox="0 0 25 25" fill="none" xmlns="http://www.w3.org/2000/svg">
<path d="M18.75 13.5417V20.8333H4.16671V6.25001H9.39587C9.44796 5.51043 9.62504 4.81251 9.89587 4.16668H4.16671C3.02087 4.16668 2.08337 5.10418 2.08337 6.25001V20.8333C2.08337 21.9792 3.02087 22.9167 4.16671 22.9167H18.75C19.8959 22.9167 20.8334 21.9792 20.8334 20.8333V15.625L18.75 13.5417ZM17.1875 18.75H5.72921L8.59379 15.0729L10.6355 17.5313L13.5 13.8438L17.1875 18.75ZM20.1042 9.26043C20.5625 8.53126 20.8334 7.68751 20.8334 6.77084C20.8334 4.17709 18.7396 2.08334 16.1459 2.08334C13.5521 2.08334 11.4584 4.17709 11.4584 6.77084C11.4584 9.36459 13.5521 11.4583 16.1355 11.4583C17.0521 11.4583 17.9063 11.1875 18.625 10.7292L21.875 13.9792L23.3542 12.5L20.1042 9.26043ZM16.1459 9.37501C14.7084 9.37501 13.5417 8.20834 13.5417 6.77084C13.5417 5.33334 14.7084 4.16668 16.1459 4.16668C17.5834 4.16668 18.75 5.33334 18.75 6.77084C18.75 8.20834 17.5834 9.37501 16.1459 9.37501Z" fill="#8993A1"/>
</svg>
