<svg width="25" height="25" viewBox="0 0 25 25" fill="none" xmlns="http://www.w3.org/2000/svg">
<path d="M11.4584 7.29166H13.5417V9.375H11.4584V7.29166ZM11.4584 11.4583H13.5417V17.7083H11.4584V11.4583ZM12.5 2.08333C6.75004 2.08333 2.08337 6.75 2.08337 12.5C2.08337 18.25 6.75004 22.9167 12.5 22.9167C18.25 22.9167 22.9167 18.25 22.9167 12.5C22.9167 6.75 18.25 2.08333 12.5 2.08333ZM12.5 20.8333C7.90629 20.8333 4.16671 17.0937 4.16671 12.5C4.16671 7.90625 7.90629 4.16666 12.5 4.16666C17.0938 4.16666 20.8334 7.90625 20.8334 12.5C20.8334 17.0937 17.0938 20.8333 12.5 20.8333Z" fill="#8993A1"/>
</svg>
