<svg width="25" height="25" viewBox="0 0 25 25" fill="none" xmlns="http://www.w3.org/2000/svg">
<path d="M6.24996 10.4167C5.10413 10.4167 4.16663 11.3542 4.16663 12.5C4.16663 13.6458 5.10413 14.5833 6.24996 14.5833C7.39579 14.5833 8.33329 13.6458 8.33329 12.5C8.33329 11.3542 7.39579 10.4167 6.24996 10.4167ZM18.75 10.4167C17.6041 10.4167 16.6666 11.3542 16.6666 12.5C16.6666 13.6458 17.6041 14.5833 18.75 14.5833C19.8958 14.5833 20.8333 13.6458 20.8333 12.5C20.8333 11.3542 19.8958 10.4167 18.75 10.4167ZM12.5 10.4167C11.3541 10.4167 10.4166 11.3542 10.4166 12.5C10.4166 13.6458 11.3541 14.5833 12.5 14.5833C13.6458 14.5833 14.5833 13.6458 14.5833 12.5C14.5833 11.3542 13.6458 10.4167 12.5 10.4167Z" fill="#8993A1"/>
</svg>
