<svg width="25" height="25" viewBox="0 0 25 25" fill="none" xmlns="http://www.w3.org/2000/svg">
<path d="M13.5417 7.29168H11.4584V11.4583H7.29171V13.5417H11.4584V17.7083H13.5417V13.5417H17.7084V11.4583H13.5417V7.29168ZM12.5 2.08334C6.75004 2.08334 2.08337 6.75001 2.08337 12.5C2.08337 18.25 6.75004 22.9167 12.5 22.9167C18.25 22.9167 22.9167 18.25 22.9167 12.5C22.9167 6.75001 18.25 2.08334 12.5 2.08334ZM12.5 20.8333C7.90629 20.8333 4.16671 17.0938 4.16671 12.5C4.16671 7.90626 7.90629 4.16668 12.5 4.16668C17.0938 4.16668 20.8334 7.90626 20.8334 12.5C20.8334 17.0938 17.0938 20.8333 12.5 20.8333Z" fill="#8993A1"/>
</svg>
