<svg width="25" height="25" viewBox="0 0 25 25" fill="none" xmlns="http://www.w3.org/2000/svg">
<path d="M12.5 7.29167V3.125H2.08337V21.875H22.9167V7.29167H12.5ZM6.25004 19.7917H4.16671V17.7083H6.25004V19.7917ZM6.25004 15.625H4.16671V13.5417H6.25004V15.625ZM6.25004 11.4583H4.16671V9.375H6.25004V11.4583ZM6.25004 7.29167H4.16671V5.20833H6.25004V7.29167ZM10.4167 19.7917H8.33337V17.7083H10.4167V19.7917ZM10.4167 15.625H8.33337V13.5417H10.4167V15.625ZM10.4167 11.4583H8.33337V9.375H10.4167V11.4583ZM10.4167 7.29167H8.33337V5.20833H10.4167V7.29167ZM20.8334 19.7917H12.5V17.7083H14.5834V15.625H12.5V13.5417H14.5834V11.4583H12.5V9.375H20.8334V19.7917ZM18.75 11.4583H16.6667V13.5417H18.75V11.4583ZM18.75 15.625H16.6667V17.7083H18.75V15.625Z" fill="#8993A1"/>
</svg>
