<svg width="25" height="25" viewBox="0 0 25 25" fill="none" xmlns="http://www.w3.org/2000/svg">
<path d="M16.6667 11.4583C18.3959 11.4583 19.7813 10.0625 19.7813 8.33334C19.7813 6.60418 18.3959 5.20834 16.6667 5.20834C14.9375 5.20834 13.5417 6.60418 13.5417 8.33334C13.5417 10.0625 14.9375 11.4583 16.6667 11.4583ZM8.33333 11.4583C10.0625 11.4583 11.4479 10.0625 11.4479 8.33334C11.4479 6.60418 10.0625 5.20834 8.33333 5.20834C6.60416 5.20834 5.20831 6.60418 5.20831 8.33334C5.20831 10.0625 6.60416 11.4583 8.33333 11.4583ZM8.33333 13.5417C5.90624 13.5417 1.04163 14.7604 1.04163 17.1875V19.7917H15.625V17.1875C15.625 14.7604 10.7604 13.5417 8.33333 13.5417ZM16.6667 13.5417C16.3646 13.5417 16.0209 13.5625 15.6563 13.5938C16.8646 14.4688 17.7084 15.6458 17.7084 17.1875V19.7917H23.9584V17.1875C23.9584 14.7604 19.0938 13.5417 16.6667 13.5417Z" fill="#8993A1"/>
</svg>
