<svg width="25" height="25" viewBox="0 0 25 25" fill="none" xmlns="http://www.w3.org/2000/svg">
<path d="M21.875 10.5417H14.8125L17.6666 7.60417C14.8229 4.79167 10.2187 4.6875 7.37495 7.5C4.5312 10.3229 4.5312 14.875 7.37495 17.6979C10.2187 20.5208 14.8229 20.5208 17.6666 17.6979C19.0833 16.3021 19.7916 14.6667 19.7916 12.6042H21.875C21.875 14.6667 20.9583 17.3437 19.125 19.1562C15.4687 22.7812 9.5312 22.7812 5.87495 19.1562C2.22912 15.5417 2.19787 9.66667 5.85412 6.05208C9.51037 2.4375 15.375 2.4375 19.0312 6.05208L21.875 3.125V10.5417V10.5417ZM13.0208 8.33333V12.7604L16.6666 14.9271L15.9166 16.1875L11.4583 13.5417V8.33333H13.0208Z" fill="#8993A1"/>
</svg>
