<svg width="500" height="500" viewBox="0 0 500 500" fill="none" xmlns="http://www.w3.org/2000/svg">
<path fill-rule="evenodd" clip-rule="evenodd" d="M250 496.429C386.099 496.429 496.429 386.099 496.429 250C496.429 113.901 386.099 3.57144 250 3.57144C113.901 3.57144 3.57144 113.901 3.57144 250C3.57144 386.099 113.901 496.429 250 496.429Z" fill="#E7EEFF"/>
<mask id="mask0_0_291" style="mask-type:alpha" maskUnits="userSpaceOnUse" x="3" y="3" width="494" height="494">
<path fill-rule="evenodd" clip-rule="evenodd" d="M250 496.429C386.099 496.429 496.429 386.099 496.429 250C496.429 113.901 386.099 3.57144 250 3.57144C113.901 3.57144 3.57144 113.901 3.57144 250C3.57144 386.099 113.901 496.429 250 496.429Z" fill="white"/>
</mask>
<g mask="url(#mask0_0_291)">
<path fill-rule="evenodd" clip-rule="evenodd" d="M336.74 210.585C337.919 197.482 339.687 159.822 324.533 135.107C306.015 105.089 275.623 96.321 249.926 96.7317C224.212 96.321 193.819 105.089 175.301 135.107C160.033 159.892 161.855 197.696 163.033 210.696C163.025 210.845 163.025 210.994 163.033 211.142C163.283 213.732 163.498 215.232 163.498 215.232C163.512 215.432 163.538 215.632 163.563 215.832C163.602 216.132 163.641 216.432 163.641 216.732C163.783 218.089 163.944 219.428 164.105 220.732C165.039 228.433 166.592 236.047 168.748 243.5L169.98 247.41C170.748 249.839 171.569 252.214 172.39 254.553C172.98 256.125 173.587 257.714 174.176 259.25C174.465 260.043 174.765 260.766 175.067 261.494L175.07 261.501C175.109 261.596 175.148 261.691 175.188 261.786C175.22 261.863 175.251 261.94 175.283 262.017C180.269 274.629 187.251 286.356 195.962 296.75L196.051 296.853V358.821C197.462 367.91 221.051 375.053 249.998 375.053C278.944 375.053 302.533 367.875 303.944 358.821V296.623L304.033 296.517C312.675 286.19 319.603 274.542 324.551 262.017C324.734 261.539 324.916 261.095 325.097 260.656C325.287 260.193 325.475 259.735 325.658 259.25C326.174 257.946 326.677 256.603 327.177 255.265L327.179 255.261L327.444 254.553L327.464 254.493C336.162 256.464 347.548 254.592 354.301 244.285C363.158 230.785 359.158 215.91 349.694 211.41C345.646 209.46 340.999 209.165 336.74 210.585ZM300.158 300.839L300.316 300.674C300.394 300.593 300.471 300.512 300.547 300.431C300.435 300.562 300.323 300.692 300.212 300.821C295.684 305.617 290.614 309.872 285.105 313.5C280.354 316.719 275.207 319.25 269.817 321.044C275.188 319.251 280.316 316.726 285.051 313.517C290.56 309.89 295.63 305.635 300.158 300.839Z" fill="#DD9488"/>
<path d="M145.426 244.357C152.194 254.714 163.658 256.553 172.373 254.535C171.087 250.964 169.837 247.279 168.623 243.482C166.636 236.637 165.168 229.653 164.23 222.589C163.962 220.678 163.73 218.732 163.516 216.75C163.442 216.252 163.394 215.752 163.373 215.25C163.373 215.25 163.194 214.125 162.998 212.142C162.908 211.839 162.908 211.5 162.908 211.16C162.9 211.006 162.9 210.851 162.908 210.696C159.436 209.548 155.693 209.504 152.194 210.571C151.413 210.823 150.649 211.128 149.908 211.482C140.551 215.91 136.498 230.785 145.426 244.357Z" fill="#DD9488"/>
<path d="M47.8727 424.411C82.0513 393.911 136.891 375.482 171.087 365.589L172.426 365.196C182.551 362.268 190.766 360.125 195.926 358.661C197.337 367.714 220.926 374.893 249.855 374.893C278.783 374.893 302.391 367.75 303.819 358.661H304.105C309.212 360.125 317.355 362.232 327.408 365.143L328.623 365.5C362.748 375.375 417.676 393.821 451.944 424.429C469.763 440.386 488.571 473.662 504.788 508.036H-5.00754C11.2115 473.626 30.0329 440.311 47.8727 424.411Z" fill="#C2EB93"/>
<g style="mix-blend-mode:soft-light" opacity="0.4">
<path d="M282.694 393.25C271.915 395.66 260.9 396.858 249.855 396.821C213.319 396.821 182.301 384.696 171.069 365.786L172.408 365.393C182.533 362.464 190.748 360.321 195.908 358.857C197.319 367.911 220.908 375.089 249.837 375.089C278.766 375.089 302.373 367.946 303.801 358.857H304.087C309.194 360.321 317.337 362.428 327.391 365.339L328.605 365.696C323.087 375.053 312.748 382.75 299.283 388.143" fill="white"/>
</g>
<g style="mix-blend-mode:soft-light" opacity="0.4">
<path d="M282.694 393.25C271.915 395.66 260.9 396.858 249.855 396.821C213.319 396.821 182.301 384.696 171.069 365.786L172.408 365.393C182.533 362.464 190.748 360.321 195.908 358.857C197.319 367.911 220.908 375.089 249.837 375.089C278.766 375.089 302.373 367.946 303.801 358.857H304.087C309.194 360.321 317.337 362.428 327.391 365.339L328.605 365.696C323.087 375.053 312.748 382.75 299.283 388.143" fill="white"/>
</g>
<g style="mix-blend-mode:multiply" opacity="0.15">
<path fill-rule="evenodd" clip-rule="evenodd" d="M300.426 300.464V350.089C252.212 350.911 216.283 327.643 199.444 313.928V300.643L199.641 300.857C204.169 305.648 209.239 309.897 214.748 313.518C224.613 320.205 236.19 323.924 248.105 324.232H251.587C263.508 323.927 275.091 320.209 284.962 313.518C290.474 309.886 295.549 305.632 300.087 300.839L300.426 300.464Z" fill="#7C3830"/>
</g>
<path fill-rule="evenodd" clip-rule="evenodd" d="M251.152 93.1641L249.962 93.1781C230.373 92.821 194.194 97.6424 172.23 133.25C158.439 155.629 157.983 187.506 159.001 204.934L159.087 206.315C156.403 206.103 153.687 206.402 151.087 207.214C150.176 207.524 149.282 207.882 148.409 208.285C143.178 210.957 139.352 215.753 137.909 221.446C135.765 230.012 137.425 239.087 142.462 246.339C147.607 254.317 156.526 259.05 166.016 258.839L167.028 258.822C168.04 258.79 169.049 258.71 170.053 258.583L170.784 260.5C171.159 261.464 171.534 262.41 171.927 263.357C176.861 275.85 183.709 287.497 192.223 297.879L192.354 298.037V356.098L188.069 357.285C184.085 358.363 179.226 359.688 173.755 361.258L171.373 361.946L170.069 362.321C112.48 379.053 71.7302 398.464 45.4623 421.91C27.0201 438.376 7.7464 472.482 -8.92859 508.036H508.88C483.311 453.62 464.734 431.125 454.427 421.91C428.683 398.928 389.049 379.743 333.434 363.317L330.247 362.382C330.132 362.332 330.013 362.288 329.891 362.25L328.605 361.875C325.415 360.96 322.417 360.117 319.645 359.348L312.909 357.5L307.515 356.003L307.516 297.952C316.05 287.568 322.913 275.914 327.855 263.41C328.248 262.464 328.641 261.517 328.998 260.553L329.739 258.58C331.062 258.749 332.395 258.836 333.73 258.839C343.241 259.023 352.163 254.248 357.284 246.232L357.707 245.605C362.405 238.451 363.911 229.648 361.837 221.321C360.389 215.644 356.571 210.864 351.355 208.196C350.249 207.67 349.103 207.234 347.927 206.892C345.562 206.254 343.118 206.029 340.7 206.217C341.81 189.108 341.672 156.189 327.552 133.25C306.027 98.3545 270.902 93.0433 251.152 93.1641ZM269.785 377.57C290.132 375.225 302.072 369.286 306.105 363.035L311.034 364.392C313.25 364.995 315.69 365.662 318.34 366.399L323.087 367.732C317.694 374.535 309.194 380.375 298.177 384.803L297.9 384.917C296.821 385.417 296.055 386.427 295.873 387.616C295.675 388.904 296.194 390.197 297.228 390.99C298.261 391.784 299.644 391.951 300.837 391.428C314.192 386.063 324.337 378.648 330.398 369.848C384.808 385.824 424.936 405.127 449.677 427.214C465.576 441.411 482.459 470.211 497.431 500.893H2.49725C17.4298 470.292 34.3358 441.409 50.2659 427.214C74.4284 405.681 113.294 386.761 165.955 370.963L169.567 369.891C182.446 388.485 213.532 400.357 249.944 400.357C261.28 400.389 272.582 399.15 283.641 396.66C285.564 396.221 286.767 394.307 286.328 392.383C285.89 390.46 283.975 389.257 282.052 389.696C271.53 392.045 260.778 393.201 249.998 393.142C217.212 393.142 189.319 383.303 176.962 367.75L193.989 363.121C199.241 371.156 217.533 378.642 249.944 378.642C257.276 378.642 263.886 378.258 269.785 377.57ZM287.016 316.535C276.567 323.572 264.324 327.476 251.73 327.785H247.962C235.4 327.452 223.195 323.536 212.784 316.5C208.036 313.372 203.599 309.801 199.532 305.836L199.502 357.824C199.552 357.974 199.592 358.128 199.623 358.285C200.471 363.724 219.636 371.311 249.021 371.479L249.909 371.482C277.046 371.482 295.707 365.162 299.621 359.87C300.017 359.328 300.258 358.797 300.337 358.285L300.339 305.787C296.253 309.785 291.792 313.384 287.016 316.535ZM248.302 100.303L251.078 100.276C269.308 100.221 301.704 105.044 321.409 136.964C335.694 160.156 334.322 196.162 333.288 208.864L333.159 210.357V210.553L336.519 210.837H336.135L333.159 210.75C332.989 212.542 332.828 213.769 332.755 214.332L332.754 214.335C332.745 214.403 332.738 214.461 332.732 214.509C332.719 214.605 332.712 214.662 332.712 214.678V214.928C332.699 215.09 332.679 215.249 332.659 215.411C332.624 215.694 332.587 215.984 332.587 216.303C331.713 225.137 330.046 233.875 327.605 242.41C326.48 246.089 325.284 249.767 324.034 253.232L323.587 254.428C323.373 255.053 323.127 255.723 322.893 256.348L322.266 258C321.927 258.892 321.569 259.785 321.194 260.678C316.39 272.852 309.661 284.174 301.266 294.214L301.541 293.875C301.492 293.92 301.444 293.966 301.397 294.014C301.339 294.073 301.284 294.133 301.23 294.196C299.909 295.75 298.694 297.125 297.48 298.375L296.471 299.426C292.398 303.594 287.887 307.313 283.016 310.517L282.167 311.082L281.308 311.633C276.362 314.645 271.646 316.663 267.436 318.012C262.324 319.601 256.993 320.493 251.587 320.642H248.105C239.347 320.394 230.786 318.201 223.029 314.26C220.856 313.154 218.746 311.911 216.712 310.535C211.443 307.054 206.589 302.98 202.248 298.392C201.159 297.232 199.98 295.946 198.677 294.428C190.21 284.318 183.426 272.91 178.587 260.642C178.23 259.768 177.873 258.892 177.516 257.982C176.891 256.464 176.284 254.892 175.73 253.375L175.58 252.944L175.579 252.941L175.578 252.938L175.576 252.932C175.575 252.929 175.574 252.926 175.572 252.923C175.106 251.586 174.635 250.237 174.178 248.878L173.355 246.357C172.944 245.071 172.534 243.785 172.141 242.5C170.036 235.233 168.513 227.811 167.587 220.303C167.427 219.017 167.266 217.696 167.123 216.357C166.998 215.892 166.998 215.446 166.998 214.982C167.006 214.899 167.006 214.815 166.998 214.732L166.587 211.214L166.587 210.732C166.587 210.456 166.555 210.187 166.494 209.929C165.464 198.282 163.584 160.847 178.284 137C197.802 105.339 229.802 100.303 248.302 100.303ZM340.643 213.53L340.123 213.616L339.933 215.214L339.873 215.625C339.82 215.945 339.796 216.314 339.773 216.682L339.762 216.851C339.758 216.919 339.753 216.986 339.748 217.053C339.023 224.437 337.766 231.757 335.988 238.955C338.388 238.847 340.629 237.623 342.016 235.607C343.735 233.252 344.017 230.142 342.748 227.517C342.211 226.689 342.446 225.582 343.275 225.044C344.103 224.507 345.211 224.743 345.748 225.571C347.598 229.133 347.473 233.398 345.418 236.845C343.363 240.293 339.671 242.432 335.659 242.5C335.46 242.513 335.261 242.52 335.062 242.52L334.498 244.535C333.762 246.947 332.998 249.344 332.204 251.703C339.594 252.363 346.754 249.003 350.973 242.933L351.302 242.446C355.205 236.917 356.538 229.975 354.962 223.392C354.069 219.691 351.631 216.55 348.266 214.767C347.525 214.409 346.754 214.116 345.962 213.892C344.423 213.462 342.821 213.318 341.236 213.462L340.643 213.53ZM153.302 213.982C154.594 213.567 155.944 213.357 157.288 213.355L157.858 213.363C158.449 213.382 159.039 213.44 159.623 213.535L159.766 214.778C159.798 215.043 159.83 215.258 159.862 215.424L159.903 215.884C159.908 215.928 159.914 215.972 159.919 216.015C159.931 216.109 159.944 216.202 159.957 216.294C159.996 216.583 160.034 216.854 160.034 217.089C160.248 219.071 160.48 221.017 160.748 222.928C160.739 222.975 160.739 223.024 160.748 223.071C161.447 228.403 162.446 233.691 163.741 238.91C161.181 238.928 158.757 237.683 157.284 235.553C155.583 233.192 155.303 230.092 156.552 227.464C157.086 226.64 156.855 225.539 156.034 225C155.636 224.737 155.151 224.644 154.685 224.741C154.219 224.839 153.811 225.118 153.552 225.517C151.68 229.098 151.806 233.395 153.883 236.86C155.96 240.326 159.69 242.462 163.73 242.5C164.045 242.505 164.359 242.495 164.672 242.469L164.672 242.466L164.909 242.446C164.83 242.455 164.751 242.462 164.672 242.469C164.859 243.147 165.051 243.824 165.248 244.5C165.98 246.928 166.73 249.303 167.516 251.642C159.912 252.349 152.541 248.797 148.355 242.41L147.977 241.851C144.401 236.397 143.237 229.695 144.784 223.339C145.676 219.622 148.13 216.471 151.516 214.696C152.095 214.42 152.692 214.181 153.302 213.982Z" fill="#372168"/>
<path fill-rule="evenodd" clip-rule="evenodd" d="M430.837 432.821C424.296 427.042 417.324 421.77 409.98 417.053C409.444 416.705 408.764 416.67 408.194 416.96C407.625 417.251 407.254 417.822 407.221 418.46C407.188 419.098 407.498 419.705 408.034 420.053C415.224 424.672 422.053 429.83 428.462 435.482C428.785 435.775 429.204 435.94 429.641 435.946C430.154 435.945 430.642 435.724 430.98 435.339C431.635 434.604 431.571 433.477 430.837 432.821ZM164.909 242.446C164.83 242.455 164.751 242.462 164.672 242.469L164.672 242.466L164.909 242.446Z" fill="#372168"/>
<path d="M260.391 295.617C259.89 295.62 259.411 295.39 259.07 294.982C256.579 292.661 253.388 291.477 250.141 291.668C246.915 291.473 243.737 292.603 241.213 294.843C240.78 295.412 240.096 295.664 239.443 295.495C238.79 295.325 238.277 294.764 238.116 294.04C237.954 293.317 238.171 292.554 238.677 292.065C245.457 286.174 254.998 286.256 261.695 292.263C262.189 292.84 262.326 293.688 262.042 294.419C261.758 295.15 261.108 295.621 260.391 295.617Z" fill="#372168"/>
<g style="mix-blend-mode:multiply" opacity="0.15">
<path fill-rule="evenodd" clip-rule="evenodd" d="M220.497 245.119C220.497 256.019 212.502 264.856 202.64 264.856C192.778 264.856 184.783 256.019 184.783 245.119C184.783 234.219 192.778 225.382 202.64 225.382C212.502 225.382 220.497 234.219 220.497 245.119ZM316.926 245.119C316.926 256.019 308.931 264.856 299.069 264.856C289.207 264.856 281.212 256.019 281.212 245.119C281.212 234.219 289.207 225.382 299.069 225.382C308.931 225.382 316.926 234.219 316.926 245.119Z" fill="#FF1300"/>
</g>
<path fill-rule="evenodd" clip-rule="evenodd" d="M382.283 207.5C382.283 207.5 392.837 218.571 379.051 229.678C379.051 229.678 387.89 247.286 370.122 252.893C370.122 252.893 374.979 269.143 358.765 271.982C358.765 271.982 359.569 292.696 341.694 289.5C341.694 289.5 345.354 309.643 325.854 306.803C325.854 306.803 322.587 323.143 303.587 316.053V299.268C312.205 288.953 319.114 277.323 324.051 264.821C324.426 263.911 324.801 263.036 325.158 262.053C325.747 260.518 326.337 258.928 326.944 257.357C335.658 259.375 347.104 257.536 353.89 247.178C362.819 233.607 358.765 218.732 349.408 214.303C345.414 212.388 340.836 212.082 336.622 213.446H336.337C336.747 200.678 337.015 172.768 327.551 155.321C327.093 154.107 326.013 153.237 324.73 153.047C323.446 152.858 322.161 153.38 321.372 154.411C313.444 164.643 296.64 157.786 296.64 157.786C285.64 179.625 265.033 162.928 265.033 162.928C247.319 179.625 234.533 162.928 234.533 162.928C211.837 175.732 201.533 158.321 201.533 158.321C188.265 163.089 181.265 158.982 177.64 154.161C175.854 151.875 173.176 152.786 171.444 155.036C160.104 169.928 161.944 200.75 162.515 213.446H162.301C158.067 212.057 153.461 212.357 149.444 214.286C140.087 218.714 136.087 233.589 144.962 247.161C151.747 257.518 163.194 259.357 171.908 257.339C172.479 258.911 173.087 260.5 173.694 262.036C174.051 262.982 174.426 263.821 174.801 264.803C179.783 277.427 186.765 289.167 195.479 299.571V317.428C188.872 318.393 175.14 318.553 173.551 303.643C173.551 303.643 155.283 309.946 155.283 287.911C155.283 287.911 136.194 290.678 139.462 269.553C139.462 269.553 122.408 269.161 128.087 250.482C128.087 250.482 110.229 245.303 121.587 229.625C121.587 229.625 107.533 223.696 117.801 207.053C117.801 207.053 102.908 195.678 117.122 184.714C117.122 184.714 106.587 170.428 120.694 161.178C120.694 161.178 111.354 144.696 128.426 140.143C128.426 140.143 121.104 122.286 139.765 119.375C139.765 119.375 135.301 100.303 155.194 101.518C155.194 101.518 154.801 84.0534 173.872 87.232C173.872 87.232 173.872 69.7855 192.14 75.4641C192.14 75.4641 196.39 57.607 213.444 65.7141C213.444 65.7141 220.587 51.9105 238.837 62.1427C238.837 62.1427 248.587 47.5355 263.587 62.5534C263.587 62.5534 278.622 50.0534 287.712 64.5891C287.712 64.5891 304.104 60.482 308.158 74.2855C308.158 74.2855 328.551 68.232 328.551 87.732C328.551 87.732 343.176 84.9105 344.39 101.536C344.39 101.536 361.408 101.536 358.676 119.393C358.676 119.393 374.89 122.375 370.854 140.161C370.854 140.161 386.283 147.786 376.122 161.589C376.122 161.589 391.551 166.946 382.194 184.303C382.283 184.357 394.89 195.732 382.283 207.5Z" fill="#FF7D7D"/>
<path fill-rule="evenodd" clip-rule="evenodd" d="M264.372 57.6782L265.045 57.2688C268.335 55.3212 273.706 52.9401 279.372 53.8567C283.567 54.5694 287.314 56.9043 289.801 60.3567L290.578 60.2634C297.17 59.5691 306.598 61.0325 310.89 69.8924C314.783 69.3032 321.408 69.0532 326.39 72.7853C329.816 75.4444 331.977 79.4116 332.354 83.7317C335.779 83.8324 339.092 84.9721 341.854 86.9996C345.258 89.7433 347.481 93.6857 348.069 98.0174C352.315 98.6548 356.213 100.736 359.104 103.91C361.992 107.466 363.37 112.011 362.944 116.571C366.813 118.02 370.147 120.619 372.497 124.017C375.144 128.218 376.113 133.26 375.212 138.142C379.062 140.643 381.882 144.447 383.158 148.857C384.03 152.651 383.464 156.634 381.569 160.035C384.497 161.923 386.772 164.666 388.087 167.892C389.872 172.482 389.479 177.714 386.89 183.5C389.848 186.968 391.57 191.321 391.783 195.875C391.754 200.192 390.14 204.348 387.247 207.553C389.221 210.668 390.181 214.317 389.997 218C389.568 222.834 387.284 227.314 383.622 230.5C385.539 235.465 385.602 240.955 383.801 245.964C381.993 250.079 378.657 253.332 374.497 255.035C375.158 259.396 374.341 263.853 372.176 267.696C369.965 271.163 366.528 273.669 362.551 274.714C362.212 278.589 360.908 285.428 356.051 289.589C353.215 292.02 349.59 293.334 345.855 293.285C346.008 297.98 344.396 302.561 341.337 306.125C337.967 309.389 333.324 310.991 328.658 310.5C327.183 314.151 324.531 317.205 321.122 319.178C318.458 320.73 315.42 321.527 312.337 321.484C308.909 321.414 305.522 320.731 302.337 319.464C300.943 318.943 300.018 317.613 300.015 316.125V299.339C300.015 298.488 300.319 297.664 300.872 297.017C308.945 287.37 315.476 276.536 320.238 264.9L321.523 261.709C321.642 261.408 321.759 261.107 321.872 260.803C321.972 260.539 322.072 260.274 322.171 260.008C322.537 259.036 322.904 258.057 323.283 257.089L323.64 256.125C324.266 254.447 326.038 253.493 327.783 253.892C334.978 255.556 344.663 254.267 350.643 245.751L350.997 245.232C354.892 239.699 356.225 232.76 354.658 226.178C353.769 222.474 351.33 219.332 347.962 217.553C344.773 216.015 341.112 215.772 337.747 216.875H337.408C336.307 217.191 335.121 216.959 334.219 216.252C333.318 215.545 332.81 214.448 332.854 213.303C333.676 187.696 330.872 168.66 324.497 157C324.425 156.869 324.328 156.754 324.212 156.66C316.854 165.982 304.194 163.803 298.408 162.017C295.59 167.083 290.777 170.736 285.14 172.089C277.069 173.875 269.247 169.839 265.372 167.375C259.622 172.107 253.712 174.267 247.729 173.767C242.515 173.226 237.637 170.935 233.89 167.267C215.444 176.375 204.408 167.107 200.337 162.41C186.587 166.517 179.033 161.607 175.051 156.446C174.79 156.634 174.56 156.863 174.372 157.125C164.104 170.607 165.551 199.767 166.176 212.214V213.178C166.217 214.315 165.714 215.403 164.822 216.108C163.929 216.814 162.755 217.052 161.658 216.75H161.337C157.96 215.629 154.28 215.859 151.069 217.392C147.703 219.182 145.265 222.329 144.372 226.035C142.858 232.398 144.053 239.094 147.652 244.531L148.033 245.089C153.926 254.017 163.854 255.446 171.247 253.75C173.008 253.344 174.795 254.318 175.408 256.017C175.979 257.571 176.569 259.125 177.194 260.642L177.543 261.552L178.265 263.339C183.102 275.602 189.885 287.005 198.354 297.107C198.908 297.754 199.212 298.577 199.212 299.428V317.285C199.23 319.072 197.926 320.598 196.158 320.857C190.604 321.66 182.747 321.678 176.926 317.16C173.916 314.793 171.784 311.487 170.872 307.767C166.682 308.416 162.399 307.487 158.854 305.16C154.944 302.375 152.658 297.767 152.033 291.446C147.644 291.356 143.442 289.652 140.229 286.66C136.908 283.285 135.39 278.517 135.712 272.375C131.96 271.546 128.618 269.43 126.265 266.392C123.64 262.821 122.89 258.071 124.033 252.428C119.975 250.639 116.773 247.341 115.104 243.232C113.83 238.941 114.481 234.308 116.89 230.535C114.383 228.556 112.519 225.877 111.533 222.839C110.069 218.267 110.765 213.142 113.622 207.571L113.088 207C110.719 204.388 107.746 200.035 107.729 194.928C107.812 190.668 109.67 186.635 112.854 183.803C110.598 179.706 109.728 174.989 110.372 170.357C111.145 166.213 113.382 162.486 116.676 159.857C115.39 156.517 113.926 150.928 116.122 145.571C117.728 141.918 120.732 139.061 124.462 137.642C123.258 133.022 123.779 128.121 125.926 123.857C128.194 120.053 131.915 117.338 136.229 116.339C135.771 111.633 137.103 106.927 139.962 103.16C143.142 99.6144 147.699 97.6157 152.462 97.6782C153.075 93.563 155.079 89.7819 158.14 86.9639C161.825 83.9737 166.543 82.5616 171.265 83.0353C171.979 79.1524 174.072 75.6582 177.158 73.196C180.604 70.6603 185.033 69.9103 190.354 70.946C192.039 66.7806 195.137 63.3414 199.104 61.2317C203.414 59.3134 208.323 59.2552 212.676 61.071C214.976 58.3621 217.998 56.362 221.39 55.3032C226.515 53.7674 232.247 54.446 238.444 57.3389C241.325 54.3677 245.139 52.4764 249.247 51.9817C254.301 51.4817 259.372 53.4103 264.372 57.6782ZM249.694 59.3746C246.617 59.895 243.867 61.6003 242.033 64.1246C241.002 65.6679 238.961 66.1646 237.337 65.2674C231.872 62.2317 227.122 61.3032 223.212 62.4817C220.556 63.3014 218.293 65.068 216.854 67.446C215.965 69.1564 213.878 69.8519 212.14 69.0174C208.051 67.071 204.622 66.7317 201.944 68.0174C198.09 69.8604 196.38 74.6004 195.961 75.9879L195.854 76.3746C195.627 77.3382 195.009 78.1641 194.149 78.655C193.289 79.1459 192.264 79.2577 191.319 78.9639C186.801 77.5532 183.39 77.6603 181.176 79.2674C177.765 81.7496 177.604 87.2853 177.604 87.3389C177.596 88.3886 177.125 89.3813 176.319 90.0532C175.516 90.7267 174.459 91.0139 173.426 90.8389C168.569 90.0174 164.89 90.6424 162.497 92.7139C158.926 95.821 158.926 101.392 158.926 101.446C158.952 102.446 158.556 103.412 157.837 104.107C157.118 104.803 156.139 105.166 155.14 105.107C150.39 104.821 147.051 105.803 145.158 108.035C142.356 111.367 143.082 116.87 143.315 118.262L143.372 118.589C143.602 119.56 143.414 120.584 142.854 121.41C142.287 122.23 141.41 122.785 140.426 122.946C136.158 123.589 133.283 125.16 131.872 127.625C129.435 131.853 131.524 137.836 131.835 138.727C131.849 138.766 131.859 138.795 131.865 138.814C131.87 138.828 131.872 138.839 131.872 138.839C132.257 139.785 132.218 140.852 131.765 141.767C131.294 142.655 130.471 143.304 129.497 143.553C125.801 144.535 123.426 146.214 122.444 148.517C120.837 152.321 122.979 157.66 123.944 159.392C124.863 161.025 124.364 163.091 122.801 164.125C119.91 165.739 117.849 168.515 117.14 171.75C116.176 177.107 119.997 182.464 120.051 182.464C121.202 184.028 120.893 186.225 119.354 187.41C116.212 189.839 114.604 192.375 114.604 194.928C114.604 198.859 118.25 202.657 119.803 203.959L119.962 204.089C121.415 205.207 121.786 207.245 120.819 208.803C117.926 213.5 116.979 217.517 117.997 220.732C118.881 223.132 120.66 225.097 122.962 226.214C123.955 226.64 124.702 227.493 124.994 228.533C125.285 229.574 125.09 230.691 124.462 231.571C121.765 235.303 120.89 238.446 121.658 240.928C122.819 244.357 127.408 246.41 129.069 246.91C129.983 247.179 130.752 247.802 131.205 248.64C131.657 249.478 131.756 250.463 131.479 251.375C130.015 256.196 130.158 259.857 131.872 262.232C133.952 265.094 137.938 265.669 139.165 265.779L139.533 265.803C140.558 265.833 141.52 266.301 142.176 267.089C142.841 267.875 143.133 268.91 142.979 269.928C142.14 275.285 142.854 279.232 145.104 281.535C147.962 284.438 152.775 284.344 154.293 284.238L154.765 284.196C155.788 284.052 156.824 284.358 157.604 285.035C158.386 285.713 158.836 286.697 158.837 287.732C158.837 293.5 160.158 297.375 162.783 299.25C166.253 301.754 171.374 300.387 172.258 300.128L172.39 300.089C173.418 299.741 174.548 299.879 175.462 300.464C176.373 301.047 176.971 302.013 177.087 303.089C177.198 306.318 178.663 309.351 181.122 311.446C184.3 313.491 188.077 314.397 191.837 314.017V300.642C183.278 290.204 176.392 278.499 171.426 265.946L170.962 264.849C170.733 264.3 170.508 263.739 170.283 263.107L169.551 261.178C158.939 262.846 148.335 258.264 142.271 249.442L141.926 248.928C136.866 241.645 135.2 232.531 137.354 223.928C138.798 218.235 142.624 213.439 147.854 210.767C151.219 209.151 154.959 208.479 158.676 208.821L158.577 206.487C157.977 191.222 158.102 167.141 167.969 153.358L168.497 152.642C169.93 150.616 172.176 149.326 174.633 149.1L175.069 149.071C177.165 149.084 179.127 150.108 180.337 151.821C184.283 157.071 190.962 158.071 200.158 154.767C201.77 154.185 203.569 154.829 204.444 156.303C206.174 158.81 208.516 160.832 211.247 162.178C217.247 165.089 224.444 164.232 232.676 159.625C234.224 158.748 236.18 159.144 237.265 160.553C240.015 163.854 243.914 165.992 248.176 166.535C252.783 166.892 257.587 164.75 262.462 160.125C263.69 158.975 265.539 158.847 266.907 159.777L267.615 160.304C269.478 161.649 276.729 166.445 283.462 164.982C287.273 164.158 290.491 161.319 293.019 156.625L293.319 156.053C294.087 154.434 295.925 153.647 297.608 154.173L298.679 154.543C301.737 155.56 312.716 158.73 318.136 152.357L318.426 152C319.841 150.122 322.118 149.099 324.462 149.285C327.057 149.532 329.35 151.078 330.551 153.392C337.158 165.553 340.283 184.178 339.89 208.857C349.809 207.789 358.981 214.247 361.319 223.946C363.394 232.27 361.881 241.07 357.171 248.213L356.747 248.839C350.751 258.003 339.942 262.803 329.122 261.107L328.39 263.053L327.825 264.473L327.247 265.892C322.317 278.352 315.486 289.972 306.997 300.339L307.158 313.535C310.448 314.756 314.087 314.628 317.283 313.178C319.827 311.585 321.647 309.06 322.354 306.142C322.741 304.292 324.502 303.063 326.372 303.339C330.783 303.982 333.997 303.339 335.872 301.357C338.855 298.285 338.533 292.125 338.176 290.214C337.966 289.063 338.333 287.882 339.158 287.053C339.984 286.221 341.165 285.848 342.319 286.053C346.122 286.732 348.962 286.196 351.015 284.41C354.587 281.25 355.265 274.517 355.194 272.178C355.168 270.42 356.426 268.905 358.158 268.607C361.228 268.34 364.021 266.724 365.783 264.196C368.022 260.567 367.083 255.668 366.776 254.376L366.694 254.053C366.134 252.186 367.175 250.215 369.033 249.625C373.051 248.339 375.694 246.285 376.872 243.482C378.786 238.997 376.807 233.56 376.091 231.867L375.854 231.339C375.108 229.835 375.509 228.014 376.819 226.964C380.39 224.053 382.354 221 382.551 217.857C382.595 214.987 381.578 212.201 379.694 210.035C379.038 209.344 378.687 208.419 378.717 207.466C378.747 206.514 379.157 205.613 379.854 204.964C382.493 202.832 384.114 199.689 384.319 196.303C384.319 192.125 381.378 188.627 380.279 187.474L379.872 187.071C378.66 185.965 378.358 184.175 379.14 182.732C381.676 178 382.354 174.017 381.14 170.875C379.934 168.225 377.743 166.15 375.033 165.089C373.963 164.713 373.134 163.852 372.801 162.767C372.464 161.683 372.663 160.503 373.337 159.589C375.676 156.428 376.533 153.482 375.89 150.875C374.809 146.43 369.819 143.717 369.384 143.48C369.367 143.471 369.354 143.464 369.354 143.464C367.882 142.731 367.1 141.087 367.462 139.482C368.497 134.91 368.087 131.16 366.212 128.321C364.251 125.616 361.378 123.713 358.122 122.964C356.212 122.619 354.927 120.81 355.23 118.892C355.926 114.535 355.23 111.16 353.444 108.892C350.355 105.321 344.658 105.142 344.605 105.142C342.726 105.147 341.165 103.695 341.033 101.821C340.73 97.6603 339.444 94.6782 337.229 92.9996C334.942 91.4519 332.159 90.8149 329.426 91.2139C328.381 91.4153 327.301 91.1403 326.479 90.4639C325.657 89.7875 325.179 88.7791 325.176 87.7139C325.176 83.446 324.051 80.4282 321.837 78.7853C317.981 75.9014 311.542 77.1597 309.788 77.5795L309.337 77.696C308.425 77.9667 307.443 77.8625 306.608 77.4067C305.774 76.9508 305.155 76.1808 304.89 75.2674C301.837 64.8746 289.265 67.8924 288.819 68.1246C287.312 68.5077 285.731 67.8723 284.908 66.5532C283.538 63.8178 281.004 61.8486 278.015 61.196C272.265 60.2496 266.158 65.2496 266.104 65.3032C264.683 66.477 262.602 66.3764 261.301 65.071C257.176 60.946 253.265 59.0174 249.694 59.3746ZM166.729 276.66C166.959 275.763 166.465 274.839 165.591 274.532C164.717 274.225 163.754 274.638 163.372 275.482C162.524 278.058 162.782 280.871 164.087 283.25C165.64 285.821 168.515 287.446 172.658 288.035H172.926V288.071C173.912 288.14 174.768 287.397 174.837 286.41C174.906 285.424 174.162 284.569 173.176 284.5C170.812 284.424 168.606 283.298 167.158 281.428C166.386 279.959 166.232 278.243 166.729 276.66ZM339.926 270.321C340.764 272.899 340.506 275.707 339.212 278.089C337.658 280.678 334.765 282.285 330.622 282.892L330.354 282.928C329.368 282.997 328.513 282.254 328.444 281.267C328.375 280.281 329.118 279.426 330.104 279.357C333.122 278.91 335.158 277.875 336.14 276.267C336.837 274.917 337.019 273.365 336.662 271.897L336.551 271.5C336.225 270.568 336.717 269.548 337.649 269.223C338.581 268.897 339.6 269.389 339.926 270.321ZM365.122 203.75C365.158 199.553 363.997 196.464 361.694 194.535C359.537 192.891 356.799 192.207 354.122 192.642C353.484 192.76 352.958 193.21 352.741 193.821C352.524 194.433 352.65 195.114 353.071 195.607C353.493 196.101 354.145 196.332 354.783 196.214L355.191 196.169C356.686 196.051 358.18 196.462 359.408 197.339C361.047 199.061 361.832 201.425 361.551 203.785C361.551 204.772 362.35 205.571 363.337 205.571L363.574 205.555C363.966 205.503 364.332 205.321 364.612 205.035C364.948 204.693 365.132 204.229 365.122 203.75ZM144.872 190.339C145.51 190.457 146.037 190.906 146.254 191.518C146.47 192.129 146.344 192.81 145.923 193.304C145.549 193.742 144.992 193.974 144.424 193.937L144.212 193.91C142.579 193.654 140.912 194.066 139.587 195.053C137.958 196.767 137.173 199.115 137.444 201.464C137.444 202.45 136.644 203.25 135.658 203.25V203.232C134.672 203.232 133.872 202.432 133.872 201.446C133.872 197.267 134.997 194.16 137.319 192.232C139.469 190.589 142.201 189.904 144.872 190.339ZM343.694 143.392C343.479 139.267 342.14 136.25 339.712 134.464C337.466 132.948 334.692 132.43 332.051 133.035C331.095 133.273 330.511 134.24 330.747 135.196C330.861 135.659 331.155 136.058 331.565 136.302C331.974 136.547 332.464 136.618 332.926 136.5L333.328 136.426C334.807 136.204 336.321 136.525 337.587 137.339C339.122 138.464 339.979 140.571 340.122 143.642C340.17 144.594 340.956 145.34 341.908 145.339L341.997 145.178C342.949 145.131 343.695 144.345 343.694 143.392ZM164.229 132.517C165.216 132.517 166.015 133.317 166.015 134.303C166.015 135.289 165.216 136.089 164.229 136.089H164.14C161.803 135.834 159.473 136.633 157.783 138.267C156.908 139.49 156.502 140.98 156.628 142.469L156.676 142.875C156.848 143.772 156.317 144.641 155.467 144.912L155.265 144.964C155.189 144.984 155.111 144.996 155.033 145C154.165 145.015 153.412 144.405 153.247 143.553C152.771 140.891 153.417 138.15 155.033 135.982C156.853 133.788 159.709 132.631 163.556 132.525L164.229 132.517ZM264.533 137.696C262.158 134.25 259.426 132.392 256.426 132.142C253.718 132.053 251.09 133.065 249.14 134.946C248.45 135.651 248.462 136.782 249.167 137.473C249.872 138.163 251.003 138.151 251.694 137.446L251.976 137.186C253.131 136.183 254.619 135.636 256.158 135.66C258.449 136.156 260.407 137.631 261.515 139.696C261.852 140.181 262.407 140.469 262.997 140.464C263.376 140.485 263.751 140.385 264.069 140.178C264.882 139.621 265.09 138.51 264.533 137.696ZM217.337 104.232C218.029 104.928 218.029 106.053 217.337 106.75C217.013 107.071 216.578 107.256 216.122 107.267C215.648 107.27 215.191 107.084 214.854 106.75C213.369 104.9 211.137 103.807 208.765 103.767C207.266 104.012 205.914 104.797 204.96 105.967L204.729 106.267C204.182 107.091 203.071 107.315 202.247 106.767C201.424 106.22 201.2 105.109 201.747 104.285C203.313 102.069 205.722 100.597 208.408 100.214C211.39 99.9103 214.426 101.267 217.337 104.232ZM292.043 92.2496C292.043 91.7734 291.853 91.317 291.515 90.9817C288.604 88.0353 285.569 86.696 282.587 86.9817C279.901 87.3644 277.491 88.8372 275.926 91.0532C275.379 91.8767 275.602 92.9879 276.426 93.5353C277.249 94.0826 278.361 93.8588 278.908 93.0353L279.138 92.7342C280.09 91.5616 281.444 90.776 282.944 90.5353C285.316 90.575 287.547 91.6679 289.033 93.5174C289.37 93.8517 289.826 94.038 290.301 94.0353C290.757 94.0241 291.191 93.8388 291.515 93.5174C291.853 93.1821 292.043 92.7257 292.043 92.2496Z" fill="#372168"/>
<path d="M248.358 267.599C246.632 267.599 245.233 266.2 245.233 264.474C245.233 262.748 246.632 261.349 248.358 261.349C253.876 261.349 259.072 259.563 261.787 256.599C262.97 255.342 264.949 255.282 266.206 256.465C267.464 257.649 267.524 259.627 266.34 260.885C262.376 265.099 255.68 267.599 248.358 267.599Z" fill="#372168"/>
<path d="M250.806 241.583C246.906 241.635 243.239 239.731 241.038 236.512C240.101 235.062 240.517 233.127 241.967 232.19C243.417 231.253 245.351 231.669 246.288 233.119C247.375 234.533 249.063 235.354 250.846 235.336C252.629 235.319 254.301 234.464 255.36 233.03C256.257 231.55 258.184 231.078 259.663 231.976C261.143 232.873 261.614 234.8 260.717 236.28C258.556 239.646 254.806 241.653 250.806 241.583Z" fill="#372168"/>
<path d="M288.008 220.089C295.919 220.089 295.937 207.768 288.008 207.768C280.079 207.768 280.062 220.089 288.008 220.089Z" fill="#372168"/>
<path d="M214.847 220.089C222.776 220.089 222.793 207.768 214.847 207.768C206.901 207.768 206.901 220.089 214.847 220.089Z" fill="#372168"/>
<path d="M229.765 204.5C228.842 204.506 227.952 204.154 227.283 203.518C214.265 191.018 201.694 202.196 200.301 203.518C198.862 204.777 196.687 204.68 195.366 203.297C194.046 201.914 194.048 199.737 195.372 198.357C201.747 192.232 217.658 184.357 232.23 198.357C232.915 199.013 233.311 199.914 233.331 200.862C233.351 201.81 232.993 202.727 232.337 203.411C231.663 204.108 230.735 204.501 229.765 204.5Z" fill="#372168"/>
<path d="M303.997 196.268C303.072 196.269 302.182 195.91 301.515 195.268C288.515 182.768 275.926 193.964 274.551 195.268C273.126 196.634 270.863 196.586 269.497 195.161C268.132 193.736 268.179 191.473 269.605 190.107C275.98 184 291.89 176.125 306.462 190.107C307.522 191.114 307.861 192.665 307.318 194.023C306.775 195.38 305.459 196.27 303.997 196.268Z" fill="#372168"/>
</g>
<path fill-rule="evenodd" clip-rule="evenodd" d="M0 250C0 111.929 111.929 0 250 0C388.071 0 500 111.929 500 250C500 388.071 388.071 500 250 500C111.929 500 0 388.071 0 250ZM492.857 250C492.857 115.874 384.126 7.14286 250 7.14286C115.874 7.14286 7.14286 115.874 7.14286 250C7.14286 384.126 115.874 492.857 250 492.857C384.126 492.857 492.857 384.126 492.857 250Z" fill="#372168"/>
</svg>
