<svg width="500" height="500" viewBox="0 0 500 500" fill="none" xmlns="http://www.w3.org/2000/svg">
<path fill-rule="evenodd" clip-rule="evenodd" d="M250 496.429C386.099 496.429 496.429 386.099 496.429 250C496.429 113.901 386.099 3.57144 250 3.57144C113.901 3.57144 3.57153 113.901 3.57153 250C3.57153 386.099 113.901 496.429 250 496.429Z" fill="#E7EEFF"/>
<mask id="mask0_0_285" style="mask-type:alpha" maskUnits="userSpaceOnUse" x="3" y="3" width="494" height="494">
<path fill-rule="evenodd" clip-rule="evenodd" d="M250 496.429C386.099 496.429 496.429 386.099 496.429 250C496.429 113.901 386.099 3.57144 250 3.57144C113.901 3.57144 3.57153 113.901 3.57153 250C3.57153 386.099 113.901 496.429 250 496.429Z" fill="white"/>
</mask>
<g mask="url(#mask0_0_285)">
<path fill-rule="evenodd" clip-rule="evenodd" d="M336.74 210.585C337.919 197.482 339.687 159.822 324.533 135.107C306.015 105.089 275.623 96.321 249.926 96.7317C224.212 96.321 193.819 105.089 175.301 135.107C160.033 159.892 161.855 197.696 163.033 210.696C163.025 210.845 163.025 210.994 163.033 211.142C163.283 213.732 163.498 215.232 163.498 215.232C163.512 215.432 163.538 215.632 163.563 215.832C163.602 216.132 163.641 216.432 163.641 216.732C163.783 218.089 163.944 219.428 164.105 220.732C165.039 228.433 166.592 236.047 168.748 243.5L169.98 247.41C170.748 249.839 171.569 252.214 172.39 254.553C172.98 256.125 173.587 257.714 174.176 259.25C174.465 260.043 174.765 260.766 175.067 261.494L175.07 261.501C175.109 261.596 175.148 261.691 175.188 261.786C175.22 261.863 175.251 261.94 175.283 262.017C180.269 274.629 187.251 286.356 195.962 296.75L196.051 296.853V358.821C197.462 367.91 221.051 375.053 249.998 375.053C278.944 375.053 302.533 367.875 303.944 358.821V296.623L304.033 296.517C312.675 286.19 319.603 274.542 324.551 262.017C324.734 261.539 324.916 261.095 325.097 260.656C325.287 260.193 325.475 259.735 325.658 259.25C326.174 257.946 326.677 256.603 327.177 255.265L327.179 255.261L327.444 254.553L327.464 254.493C336.162 256.464 347.548 254.592 354.301 244.285C363.158 230.785 359.158 215.91 349.694 211.41C345.646 209.46 340.999 209.165 336.74 210.585ZM300.158 300.839L300.316 300.674C300.394 300.593 300.471 300.512 300.547 300.431C300.435 300.562 300.323 300.692 300.212 300.821C295.684 305.617 290.614 309.872 285.105 313.5C280.354 316.719 275.207 319.25 269.817 321.044C275.188 319.251 280.316 316.726 285.051 313.517C290.56 309.89 295.63 305.635 300.158 300.839Z" fill="#FFC7BB"/>
<path d="M145.426 244.357C152.194 254.714 163.658 256.553 172.373 254.535C171.087 250.964 169.837 247.279 168.623 243.482C166.636 236.637 165.168 229.653 164.23 222.589C163.962 220.678 163.73 218.732 163.516 216.75C163.442 216.252 163.394 215.752 163.373 215.25C163.373 215.25 163.194 214.125 162.998 212.142C162.908 211.839 162.908 211.5 162.908 211.16C162.9 211.006 162.9 210.851 162.908 210.696C159.436 209.548 155.693 209.504 152.194 210.571C151.413 210.823 150.649 211.128 149.908 211.482C140.551 215.91 136.498 230.785 145.426 244.357Z" fill="#FFC7BB"/>
<path d="M47.8729 424.411C82.0515 393.911 136.891 375.482 171.087 365.589L172.426 365.196C182.551 362.268 190.766 360.125 195.926 358.661C197.337 367.714 220.926 374.893 249.855 374.893C278.784 374.893 302.391 367.75 303.819 358.661H304.105C309.212 360.125 317.355 362.232 327.409 365.143L328.623 365.5C362.748 375.375 417.677 393.821 451.944 424.429C469.763 440.386 488.571 473.662 504.789 508.036H-5.00732C11.2117 473.626 30.0332 440.311 47.8729 424.411Z" fill="#FFC28F"/>
<g style="mix-blend-mode:soft-light" opacity="0.4">
<path d="M282.694 393.25C271.915 395.66 260.9 396.858 249.855 396.821C213.319 396.821 182.301 384.696 171.069 365.786L172.409 365.393C182.534 362.464 190.748 360.321 195.909 358.857C197.319 367.911 220.909 375.089 249.837 375.089C278.766 375.089 302.373 367.946 303.801 358.857H304.087C309.194 360.321 317.337 362.428 327.391 365.339L328.605 365.696C323.087 375.053 312.748 382.75 299.284 388.143" fill="white"/>
</g>
<g style="mix-blend-mode:soft-light" opacity="0.4">
<path d="M282.694 393.25C271.915 395.66 260.9 396.858 249.855 396.821C213.319 396.821 182.301 384.696 171.069 365.786L172.409 365.393C182.534 362.464 190.748 360.321 195.909 358.857C197.319 367.911 220.909 375.089 249.837 375.089C278.766 375.089 302.373 367.946 303.801 358.857H304.087C309.194 360.321 317.337 362.428 327.391 365.339L328.605 365.696C323.087 375.053 312.748 382.75 299.284 388.143" fill="white"/>
</g>
<g style="mix-blend-mode:multiply" opacity="0.15">
<path fill-rule="evenodd" clip-rule="evenodd" d="M300.426 300.464V350.089C252.212 350.911 216.284 327.643 199.444 313.928V300.643L199.641 300.857C204.169 305.648 209.239 309.897 214.748 313.518C224.614 320.205 236.19 323.924 248.105 324.232H251.587C263.508 323.927 275.091 320.209 284.962 313.518C290.474 309.886 295.549 305.632 300.087 300.839L300.426 300.464Z" fill="#7C3830"/>
</g>
<path fill-rule="evenodd" clip-rule="evenodd" d="M251.152 93.1641L249.962 93.1781C230.373 92.821 194.195 97.6424 172.23 133.25C158.439 155.629 157.983 187.506 159.001 204.934L159.087 206.315C156.403 206.103 153.687 206.402 151.087 207.214C150.176 207.524 149.282 207.882 148.409 208.285C143.178 210.957 139.352 215.753 137.909 221.446C135.765 230.012 137.425 239.087 142.462 246.339C147.607 254.317 156.526 259.05 166.016 258.839L167.028 258.822C168.04 258.79 169.049 258.71 170.053 258.583L170.784 260.5C171.159 261.464 171.534 262.41 171.927 263.357C176.861 275.85 183.709 287.497 192.223 297.879L192.355 298.037V356.098L188.07 357.285C184.085 358.363 179.226 359.688 173.755 361.258L171.373 361.946L170.07 362.321C112.48 379.053 71.7303 398.464 45.4624 421.91C27.0202 438.376 7.74652 472.482 -8.92847 508.036H508.881C483.311 453.62 464.735 431.125 454.427 421.91C428.683 398.928 389.049 379.743 333.434 363.317L330.247 362.382C330.132 362.332 330.013 362.288 329.891 362.25L328.605 361.875C325.415 360.96 322.417 360.117 319.645 359.348L312.909 357.5L307.515 356.003L307.516 297.952C316.05 287.568 322.913 275.914 327.855 263.41C328.248 262.464 328.641 261.517 328.998 260.553L329.739 258.58C331.062 258.749 332.395 258.836 333.73 258.839C343.241 259.023 352.163 254.248 357.284 246.232L357.707 245.605C362.405 238.451 363.912 229.648 361.837 221.321C360.389 215.644 356.571 210.864 351.355 208.196C350.249 207.67 349.103 207.234 347.927 206.892C345.562 206.254 343.118 206.029 340.701 206.217C341.81 189.108 341.672 156.189 327.552 133.25C306.027 98.3545 270.902 93.0433 251.152 93.1641ZM269.785 377.57C290.132 375.225 302.072 369.286 306.105 363.035L311.034 364.392C313.25 364.995 315.69 365.662 318.34 366.399L323.087 367.732C317.695 374.535 309.195 380.375 298.177 384.803L297.901 384.917C296.821 385.417 296.055 386.427 295.873 387.616C295.675 388.904 296.195 390.197 297.228 390.99C298.261 391.784 299.644 391.951 300.837 391.428C314.193 386.063 324.337 378.648 330.398 369.848C384.808 385.824 424.936 405.127 449.677 427.214C465.577 441.411 482.459 470.211 497.431 500.893H2.49737C17.4299 470.292 34.336 441.409 50.266 427.214C74.4285 405.681 113.294 386.761 165.956 370.963L169.568 369.891C182.446 388.485 213.533 400.357 249.945 400.357C261.28 400.389 272.583 399.15 283.641 396.66C285.564 396.221 286.767 394.307 286.328 392.383C285.89 390.46 283.975 389.257 282.052 389.696C271.53 392.045 260.778 393.201 249.998 393.142C217.212 393.142 189.32 383.303 176.962 367.75L193.989 363.121C199.242 371.156 217.533 378.642 249.945 378.642C257.277 378.642 263.886 378.258 269.785 377.57ZM287.016 316.535C276.567 323.572 264.324 327.476 251.73 327.785H247.962C235.4 327.452 223.195 323.536 212.784 316.5C208.036 313.372 203.599 309.801 199.532 305.836L199.502 357.824C199.552 357.974 199.592 358.128 199.623 358.285C200.471 363.724 219.636 371.311 249.021 371.479L249.909 371.482C277.046 371.482 295.707 365.162 299.621 359.87C300.017 359.328 300.258 358.797 300.337 358.285L300.339 305.787C296.253 309.785 291.792 313.384 287.016 316.535ZM248.302 100.303L251.078 100.276C269.308 100.221 301.704 105.044 321.409 136.964C335.694 160.156 334.322 196.162 333.288 208.864L333.159 210.357V210.553L336.519 210.837H336.135L333.159 210.75C332.989 212.542 332.828 213.769 332.755 214.332L332.754 214.335C332.745 214.403 332.738 214.461 332.732 214.509C332.719 214.605 332.712 214.662 332.712 214.678V214.928C332.699 215.09 332.68 215.249 332.659 215.411C332.624 215.694 332.587 215.984 332.587 216.303C331.714 225.137 330.046 233.875 327.605 242.41C326.48 246.089 325.284 249.767 324.034 253.232L323.587 254.428C323.373 255.053 323.128 255.723 322.893 256.348L322.266 258C321.927 258.892 321.57 259.785 321.195 260.678C316.39 272.852 309.662 284.174 301.266 294.214L301.541 293.875C301.492 293.92 301.444 293.966 301.397 294.014C301.34 294.073 301.284 294.133 301.23 294.196C299.909 295.75 298.695 297.125 297.48 298.375L296.471 299.426C292.398 303.594 287.887 307.313 283.016 310.517L282.167 311.082L281.308 311.633C276.362 314.645 271.646 316.663 267.437 318.012C262.324 319.601 256.993 320.493 251.587 320.642H248.105C239.347 320.394 230.786 318.201 223.029 314.26C220.856 313.154 218.746 311.911 216.712 310.535C211.443 307.054 206.59 302.98 202.248 298.392C201.159 297.232 199.98 295.946 198.677 294.428C190.21 284.318 183.426 272.91 178.587 260.642C178.23 259.768 177.873 258.892 177.516 257.982C176.891 256.464 176.284 254.892 175.73 253.375L175.58 252.944L175.579 252.941L175.578 252.938L175.576 252.932C175.575 252.929 175.574 252.926 175.573 252.923C175.106 251.586 174.635 250.237 174.178 248.878L173.355 246.357C172.945 245.071 172.534 243.785 172.141 242.5C170.036 235.233 168.513 227.811 167.587 220.303C167.427 219.017 167.266 217.696 167.123 216.357C166.998 215.892 166.998 215.446 166.998 214.982C167.006 214.899 167.006 214.815 166.998 214.732L166.587 211.214L166.587 210.732C166.587 210.456 166.556 210.187 166.494 209.929C165.464 198.282 163.584 160.847 178.284 137C197.802 105.339 229.802 100.303 248.302 100.303ZM340.643 213.53L340.123 213.616L339.933 215.214L339.873 215.625C339.82 215.945 339.796 216.314 339.773 216.682L339.762 216.851C339.758 216.919 339.753 216.986 339.748 217.053C339.023 224.437 337.766 231.757 335.988 238.955C338.388 238.847 340.629 237.623 342.016 235.607C343.735 233.252 344.017 230.142 342.748 227.517C342.211 226.689 342.447 225.582 343.275 225.044C344.103 224.507 345.211 224.743 345.748 225.571C347.598 229.133 347.473 233.398 345.418 236.845C343.364 240.293 339.672 242.432 335.659 242.5C335.46 242.513 335.261 242.52 335.062 242.52L334.498 244.535C333.762 246.947 332.998 249.344 332.204 251.703C339.594 252.363 346.755 249.003 350.974 242.933L351.302 242.446C355.205 236.917 356.539 229.975 354.962 223.392C354.07 219.691 351.631 216.55 348.266 214.767C347.525 214.409 346.754 214.116 345.962 213.892C344.423 213.462 342.821 213.318 341.236 213.462L340.643 213.53ZM153.302 213.982C154.595 213.567 155.944 213.357 157.289 213.355L157.858 213.363C158.449 213.382 159.039 213.44 159.623 213.535L159.766 214.778C159.798 215.043 159.83 215.258 159.862 215.424L159.904 215.884C159.909 215.928 159.914 215.972 159.919 216.015C159.931 216.109 159.944 216.202 159.957 216.294C159.996 216.583 160.034 216.854 160.034 217.089C160.248 219.071 160.48 221.017 160.748 222.928C160.739 222.975 160.739 223.024 160.748 223.071C161.447 228.403 162.446 233.691 163.741 238.91C161.181 238.928 158.757 237.683 157.284 235.553C155.584 233.192 155.303 230.092 156.552 227.464C157.086 226.64 156.855 225.539 156.034 225C155.637 224.737 155.151 224.644 154.685 224.741C154.219 224.839 153.811 225.118 153.552 225.517C151.681 229.098 151.806 233.395 153.883 236.86C155.96 240.326 159.69 242.462 163.73 242.5C164.045 242.505 164.359 242.495 164.672 242.469L164.672 242.466L164.909 242.446C164.83 242.455 164.751 242.462 164.672 242.469C164.859 243.147 165.051 243.824 165.248 244.5C165.98 246.928 166.73 249.303 167.516 251.642C159.913 252.349 152.541 248.797 148.355 242.41L147.977 241.851C144.401 236.397 143.237 229.695 144.784 223.339C145.676 219.622 148.13 216.471 151.516 214.696C152.095 214.42 152.692 214.181 153.302 213.982Z" fill="#372168"/>
<path fill-rule="evenodd" clip-rule="evenodd" d="M430.837 432.821C424.297 427.042 417.324 421.77 409.98 417.053C409.444 416.705 408.764 416.67 408.195 416.96C407.626 417.251 407.255 417.822 407.221 418.46C407.188 419.098 407.498 419.705 408.034 420.053C415.224 424.672 422.053 429.83 428.462 435.482C428.785 435.775 429.205 435.94 429.641 435.946C430.154 435.945 430.642 435.724 430.98 435.339C431.635 434.604 431.571 433.477 430.837 432.821ZM164.909 242.446C164.83 242.455 164.751 242.462 164.672 242.469L164.672 242.466L164.909 242.446Z" fill="#372168"/>
<path d="M260.391 295.617C259.89 295.62 259.411 295.39 259.07 294.982C256.579 292.661 253.388 291.477 250.141 291.668C246.915 291.473 243.738 292.603 241.213 294.843C240.78 295.412 240.097 295.664 239.443 295.495C238.79 295.325 238.277 294.764 238.116 294.04C237.954 293.317 238.171 292.554 238.677 292.065C245.457 286.174 254.998 286.256 261.695 292.263C262.189 292.84 262.326 293.688 262.042 294.419C261.758 295.15 261.108 295.621 260.391 295.617Z" fill="#372168"/>
<g style="mix-blend-mode:multiply" opacity="0.15">
<path fill-rule="evenodd" clip-rule="evenodd" d="M220.497 245.119C220.497 256.019 212.503 264.856 202.64 264.856C192.778 264.856 184.783 256.019 184.783 245.119C184.783 234.219 192.778 225.382 202.64 225.382C212.503 225.382 220.497 234.219 220.497 245.119ZM316.926 245.119C316.926 256.019 308.931 264.856 299.069 264.856C289.207 264.856 281.212 256.019 281.212 245.119C281.212 234.219 289.207 225.382 299.069 225.382C308.931 225.382 316.926 234.219 316.926 245.119Z" fill="#FF1300"/>
</g>
<path fill-rule="evenodd" clip-rule="evenodd" d="M122.408 178.643C120.158 193.5 124.105 218.911 145.194 216.143C146.462 214.71 148.005 213.544 149.73 212.714C153.822 210.774 158.506 210.493 162.801 211.929C162.791 212.083 162.791 212.238 162.801 212.393C162.801 213.482 162.997 214.357 163.069 215.036L163.89 199.411C164.73 183.25 171.997 171.072 187.694 160.5C194.694 155.786 203.497 150.143 211.64 140.464C211.64 140.464 232.819 180.018 286.64 167.75C314.069 161.5 334.372 181.322 335.14 196.322L336.122 215.107C336.122 214.429 336.301 213.554 336.39 212.464C336.4 212.31 336.4 212.155 336.39 212C340.685 210.564 345.37 210.846 349.462 212.786C351.187 213.615 352.729 214.781 353.997 216.214C353.997 216.214 407.98 221.786 366.658 140.536C314.033 37.0894 203.265 83.6072 203.265 83.6072C203.265 83.6072 136.408 86.2501 122.408 178.643Z" fill="#D5DCEF"/>
<path fill-rule="evenodd" clip-rule="evenodd" d="M206.4 67.5859C207.019 67.7858 207.481 68.3074 207.605 68.9469C208.38 72.3057 207.99 75.6276 207.286 78.3355C225.96 72 245.635 69.0696 265.372 69.6969C297.515 70.9111 341.872 83.9826 369.837 138.911C386.39 171.447 390.087 194.804 380.819 208.322C371.89 221.465 354.372 219.822 353.64 219.75C352.752 219.659 351.93 219.239 351.337 218.572C350.383 217.491 349.223 216.611 347.926 215.983C345.542 214.842 342.883 214.418 340.271 214.756L339.712 214.84V215.375C339.519 217.2 337.975 218.582 336.14 218.572C334.277 218.518 332.768 217.041 332.676 215.179L331.694 196.411C331.355 190.179 326.765 182.822 319.98 177.697C310.689 170.768 298.776 168.381 287.533 171.197C281.276 172.664 274.884 173.471 268.462 173.606L266.98 173.625C245.128 173.982 224.443 163.792 211.408 146.25C205.32 152.459 198.523 157.931 191.158 162.554L189.855 163.429C175.283 173.25 168.426 184.393 167.64 199.572L166.819 215.179C166.726 217.041 165.218 218.518 163.355 218.572C161.52 218.582 159.976 217.2 159.783 215.375V214.84C156.987 214.361 154.111 214.76 151.551 215.983C150.259 216.611 149.106 217.492 148.158 218.572C147.584 219.213 146.798 219.625 145.944 219.733C145.016 219.859 144.083 219.935 143.147 219.958L142.212 219.965C136.572 220.082 131.135 217.859 127.194 213.822C119.138 205.59 117.162 190.437 118.774 178.789L118.872 178.108L119.133 176.441C123.413 149.863 134.9 114.76 165.161 94.1638L166.122 93.5183C176.24 86.6261 187.788 82.1395 199.881 80.3858C196.408 75.6403 189.079 73.6756 188.466 73.5114C188.443 73.5052 188.426 73.5004 188.426 73.5004C187.762 73.3974 187.213 72.9307 187.003 72.2926C186.794 71.6544 186.96 70.9528 187.434 70.4766C187.855 70.0533 188.455 69.8718 189.032 69.9813L189.86 70.1957C192.096 70.8218 199.685 73.3265 203.319 79.0719C204.42 76.0874 204.698 72.8613 204.122 69.7326C203.959 69.1021 204.152 68.4327 204.626 67.986C205.1 67.5392 205.78 67.3859 206.4 67.5859ZM199.755 87.538C189.317 89.1895 179.347 93.0654 170.526 98.9139L169.551 99.5719C146.444 115.018 131.301 142.429 125.747 179.054L125.926 179.108C124.48 188.75 125.926 202.143 132.301 208.75C134.764 211.275 138.101 212.709 141.576 212.793C133.061 202.043 134.704 183.748 134.783 182.875C134.844 182.237 135.24 181.68 135.823 181.414C136.406 181.147 137.086 181.212 137.609 181.583C138.073 181.914 138.349 182.442 138.362 183.003L138.267 184.795C138.079 189.501 138.126 203.568 145.076 211.369C146.034 210.631 147.067 209.994 148.158 209.465C151.361 207.949 154.891 207.285 158.41 207.524C147.156 183.703 154.531 160.783 156.817 154.838L157.408 153.393C157.627 152.754 158.188 152.293 158.858 152.202C159.528 152.112 160.192 152.407 160.573 152.965C160.911 153.461 160.975 154.09 160.754 154.638L160.622 154.924C159.968 156.477 150.897 178.837 160.153 202.505L160.319 199.286C161.23 181.893 169.247 168.643 185.694 157.59L186.997 156.715C194.591 152.009 201.5 146.285 207.533 139.706C205.409 133.919 203.861 127.197 202.733 120.456C194.517 121.342 188.013 125.242 182.033 129.197C181.74 129.402 181.391 129.514 181.033 129.518C180.25 129.512 179.562 128.997 179.337 128.247C179.111 127.497 179.401 126.687 180.051 126.25L181.371 125.38C187.349 121.477 193.896 117.838 202.177 116.919C201.514 112.399 201.027 107.942 200.671 103.829L199.81 103.95C189.932 105.436 161.041 113.305 141.747 154.858C141.457 155.485 140.831 155.888 140.14 155.893C139.882 155.895 139.626 155.84 139.39 155.733C138.959 155.534 138.624 155.173 138.459 154.727C138.295 154.281 138.315 153.788 138.515 153.358C159.452 108.277 190.745 101.305 200.386 100.231L200.259 98.4134C200.042 95.1452 199.908 92.2393 199.826 89.8824L199.755 87.538ZM206.87 85.9314L207.635 85.6591L209.267 85.0963C227.248 79.004 246.19 76.1786 265.194 76.7683C309.247 78.5183 342.265 100.483 363.408 142.072C382.426 179.447 380.247 196.465 374.89 204.161L374.504 204.705C370.167 210.552 363.089 212.101 358.564 212.496C369.223 193.393 360.999 170.436 356.308 160.159L355.98 159.447C355.56 158.554 354.497 158.171 353.605 158.59C352.712 159.009 352.328 160.072 352.747 160.965C357.217 170.444 365.844 193.575 354.752 211.924C353.594 210.945 352.315 210.118 350.944 209.465C347.298 207.736 343.225 207.116 339.23 207.679L338.605 196.125C338.481 193.81 337.966 191.431 337.104 189.063C336.79 179.977 335.46 172.124 333.125 165.54L333.283 165.429C334.049 164.816 334.177 163.699 333.569 162.929C332.649 161.755 331.624 160.594 330.499 159.465C328.716 156.044 326.578 153.077 324.087 150.572C317.283 143.75 308.105 140.5 296.819 140.947L295.671 140.988C259.176 142.17 244.92 131.883 236.03 121.297L235.212 120.304C234.593 119.544 233.477 119.424 232.712 120.036C231.946 120.649 231.818 121.766 232.426 122.536C241.301 133.59 256.64 146.072 296.944 144.518C306.603 144.201 314.432 146.667 320.357 151.975C312.133 147.615 301.561 145.454 289.319 148.25C270.39 152.554 254.926 150.733 241.819 142.679C241.004 142.368 240.084 142.69 239.642 143.442C239.2 144.193 239.365 145.154 240.033 145.715C253.962 154.286 270.372 156.268 290.176 151.733C306.508 148.005 319.572 153.815 327.522 161.471C330.26 166.837 332.077 173.441 332.967 181.247C330.607 177.892 327.59 174.754 324.069 172.09C313.099 163.885 299.028 161.034 285.73 164.322C239.899 174.783 219.341 146.275 215.44 139.988L215.038 139.323L214.98 139.161C208.66 123.769 207.244 98.4356 206.928 88.145L206.87 85.9314ZM286.14 92.2504C315.551 98.9469 337.497 117.875 351.408 148.5C351.81 149.398 351.411 150.452 350.515 150.858C350.285 150.962 350.036 151.017 349.783 151.018C349.086 151.02 348.451 150.616 348.158 149.983C325.944 101.036 283.48 83.554 221.98 98.0361C221.34 98.2421 220.64 98.0719 220.166 97.5957C219.692 97.1195 219.526 96.4178 219.735 95.7797C219.921 95.2125 220.376 94.7807 220.941 94.6194L221.158 94.5719C246.015 88.7147 267.265 87.9469 286.14 92.2504ZM263.329 113.15L262.837 112.679C262.381 112.232 261.721 112.063 261.106 112.235C260.491 112.407 260.015 112.893 259.856 113.512C259.697 114.13 259.881 114.786 260.337 115.233C265.122 119.893 272.337 124.768 286.712 124.768C291.199 124.753 295.678 124.377 300.105 123.643C300.743 123.541 301.278 123.107 301.508 122.503C301.739 121.899 301.63 121.219 301.222 120.717C300.815 120.216 300.171 119.97 299.533 120.072C278.179 123.561 269.163 118.628 263.329 113.15Z" fill="#372168"/>
<path d="M255.533 284.321H245.979C244.993 284.321 244.194 283.522 244.194 282.536C244.194 281.549 244.993 280.75 245.979 280.75H255.533C256.519 280.75 257.319 281.549 257.319 282.536C257.319 283.522 256.519 284.321 255.533 284.321Z" fill="#372168"/>
<path fill-rule="evenodd" clip-rule="evenodd" d="M275.212 249.339C274.709 262.487 263.905 272.886 250.747 272.886C237.59 272.886 226.785 262.487 226.283 249.339L275.212 249.339Z" fill="#FF6666"/>
<path fill-rule="evenodd" clip-rule="evenodd" d="M223.158 249.339C223.432 264.312 235.773 276.239 250.747 276C265.721 276.239 278.063 264.312 278.337 249.339C278.337 247.613 276.937 246.214 275.212 246.214H226.283C224.557 246.214 223.158 247.613 223.158 249.339ZM250.747 270.095C240.378 270.095 231.496 262.67 229.658 252.464H271.836C269.998 262.67 261.117 270.095 250.747 270.095Z" fill="#372168"/>
<path fill-rule="evenodd" clip-rule="evenodd" d="M267.694 266.036C263.153 270.527 256.99 272.993 250.604 272.875C244.857 272.983 239.279 270.924 234.979 267.107L235.122 265.804C235.122 265.804 241.015 255.25 250.444 261.964L250.89 261.804C252.061 261.336 253.205 260.805 254.319 260.214C261.747 256.429 266.712 264.679 266.712 264.679L267.694 266.036Z" fill="#FF7D7D"/>
<path fill-rule="evenodd" clip-rule="evenodd" d="M232.854 269.393C237.735 273.739 244.069 276.097 250.604 276C257.843 276.113 264.819 273.292 269.944 268.179C270.964 267.087 271.069 265.425 270.194 264.214L269.283 262.946C266.979 259.214 260.711 253.429 252.854 257.429C252.176 257.786 251.461 258.143 250.729 258.464C248.067 256.81 244.871 256.241 241.801 256.875C237.82 258.019 234.444 260.672 232.39 264.268C232.186 264.637 232.058 265.044 232.015 265.464L231.872 266.768C231.773 267.748 232.136 268.719 232.854 269.393ZM250.604 269.697C246.366 269.768 242.21 268.52 238.711 266.125C239.814 264.624 241.375 263.521 243.158 262.982C245.117 262.664 247.116 263.226 248.622 264.518C249.478 265.116 250.572 265.256 251.551 264.893L251.997 264.714C253.287 264.205 254.539 263.609 255.747 262.929C259.515 261.018 262.426 264.054 263.551 265.536C259.801 268.292 255.257 269.752 250.604 269.697Z" fill="#372168"/>
<path d="M248.765 263.786C249.717 262.789 250.827 261.956 252.051 261.321L248.765 263.786Z" fill="#F9F9F9"/>
<path d="M248.765 266.911C247.914 266.913 247.1 266.564 246.515 265.947C245.3 264.727 245.3 262.755 246.515 261.536C247.747 260.241 249.206 259.182 250.819 258.411C251.855 257.993 253.036 258.16 253.916 258.849C254.797 259.538 255.242 260.644 255.086 261.751C254.93 262.857 254.195 263.796 253.158 264.214C252.306 264.692 251.529 265.294 250.854 266C250.296 266.554 249.551 266.879 248.765 266.911Z" fill="#372168"/>
<path d="M250.806 241.583C246.906 241.635 243.239 239.731 241.038 236.512C240.101 235.062 240.517 233.127 241.967 232.19C243.417 231.253 245.351 231.669 246.288 233.119C247.375 234.533 249.063 235.354 250.846 235.336C252.629 235.319 254.301 234.464 255.36 233.03C256.257 231.55 258.184 231.078 259.663 231.976C261.143 232.873 261.614 234.8 260.717 236.28C258.556 239.646 254.806 241.653 250.806 241.583Z" fill="#372168"/>
<path d="M295.253 218.732C294.156 218.732 293.139 218.155 292.575 217.214C291.516 215.779 289.845 214.925 288.061 214.908C286.278 214.89 284.59 215.711 283.503 217.125C282.931 218.129 281.85 218.735 280.695 218.7C279.54 218.665 278.498 217.996 277.986 216.959C277.475 215.922 277.578 214.688 278.253 213.75C280.508 210.531 284.207 208.633 288.136 208.679C292.066 208.726 295.719 210.71 297.896 213.982C298.471 214.947 298.487 216.146 297.938 217.125C297.389 218.105 296.359 218.718 295.236 218.732H295.253Z" fill="#372168"/>
<path d="M222.027 218.643C220.937 218.647 219.926 218.077 219.366 217.143C218.307 215.708 216.636 214.853 214.852 214.836C213.069 214.818 211.381 215.64 210.294 217.053C209.688 217.991 208.628 218.534 207.513 218.479C206.398 218.423 205.397 217.776 204.888 216.782C204.379 215.788 204.438 214.598 205.044 213.661C207.304 210.449 211.001 208.557 214.927 208.604C218.853 208.65 222.505 210.629 224.687 213.893C225.12 214.6 225.251 215.45 225.054 216.255C224.856 217.06 224.345 217.752 223.634 218.178C223.153 218.482 222.595 218.643 222.027 218.643Z" fill="#372168"/>
<path d="M303.729 200.893C302.962 200.897 302.214 200.646 301.604 200.179C301.39 200.036 288.354 190.643 273.337 195.429C272.107 195.868 270.735 195.6 269.76 194.731C268.785 193.862 268.362 192.531 268.657 191.258C268.952 189.986 269.918 188.976 271.176 188.625C289.801 182.679 305.212 193.982 305.872 194.464C307.102 195.387 307.604 196.993 307.118 198.451C306.631 199.909 305.267 200.893 303.729 200.893Z" fill="#372168"/>
<path d="M198.069 200.875C196.945 200.875 195.886 200.346 195.212 199.447C194.04 197.872 194.359 195.647 195.926 194.464C196.587 193.964 211.997 182.679 230.622 188.625C232.434 189.272 233.408 191.237 232.826 193.07C232.244 194.903 230.314 195.946 228.462 195.429C213.39 190.625 200.337 200.089 200.194 200.179C199.578 200.632 198.833 200.877 198.069 200.875Z" fill="#372168"/>
<g opacity="0.7">
<path fill-rule="evenodd" clip-rule="evenodd" d="M243.623 206.607C242.837 215.786 238.587 236.25 214.015 236.25C210.54 236.289 207.074 235.899 203.694 235.089C203.146 234.958 202.611 234.815 202.087 234.661C201.078 234.358 200.088 233.994 199.123 233.571C198.135 233.156 197.175 232.679 196.248 232.143C195.091 231.469 193.997 230.692 192.98 229.821C191.283 228.396 189.819 226.715 188.64 224.839C185.206 219.087 183.874 212.321 184.873 205.696C185.173 203.721 186.874 202.263 188.873 202.268H239.587C240.712 202.265 241.787 202.731 242.553 203.555C243.32 204.379 243.707 205.485 243.623 206.607Z" fill="#FFD87A"/>
<path fill-rule="evenodd" clip-rule="evenodd" d="M288.372 236.232C285.135 236.264 281.908 235.85 278.783 235C278.23 234.857 277.694 234.679 277.194 234.5C276.204 234.166 275.237 233.767 274.301 233.304C273.33 232.853 272.398 232.321 271.515 231.714C270.398 230.985 269.347 230.161 268.372 229.25C266.74 227.717 265.317 225.976 264.14 224.071C261.019 218.74 259.185 212.754 258.783 206.589C258.693 205.464 259.078 204.353 259.845 203.525C260.612 202.698 261.69 202.229 262.819 202.232H313.533C315.531 202.227 317.232 203.685 317.533 205.661C318.855 214.268 316.926 236.232 288.372 236.232Z" fill="#FFD87A"/>
</g>
<g opacity="0.49">
<g style="mix-blend-mode:soft-light" opacity="0.8">
<path d="M286.319 202.232L268.462 229.25C266.83 227.717 265.407 225.976 264.23 224.071L278.748 202.232H286.319Z" fill="white"/>
</g>
<g style="mix-blend-mode:soft-light" opacity="0.8">
<path d="M294.944 202.232L274.301 233.304C273.33 232.853 272.398 232.321 271.516 231.714L291.158 202.232L294.944 202.232Z" fill="white"/>
</g>
<g style="mix-blend-mode:soft-light" opacity="0.8">
<path d="M300.551 202.232L278.783 235C278.23 234.857 277.694 234.679 277.194 234.5L298.623 202.232H300.551Z" fill="white"/>
</g>
</g>
<g opacity="0.49">
<g style="mix-blend-mode:soft-light" opacity="0.8">
<path d="M211.319 202.232L192.98 229.821C191.283 228.396 189.819 226.715 188.64 224.839L203.64 202.268L211.319 202.232Z" fill="white"/>
</g>
<g style="mix-blend-mode:soft-light" opacity="0.8">
<path d="M219.944 202.232L199.123 233.554C198.135 233.139 197.175 232.661 196.248 232.125L216.105 202.232L219.944 202.232Z" fill="white"/>
</g>
<g style="mix-blend-mode:soft-light" opacity="0.8">
<path d="M225.551 202.232L203.694 235.071C203.146 234.941 202.611 234.798 202.087 234.643L223.64 202.232H225.551Z" fill="white"/>
</g>
</g>
<path fill-rule="evenodd" clip-rule="evenodd" d="M255.212 206.893C256.051 216.786 260.962 239.804 288.39 239.804C300.033 239.804 308.872 236.393 314.604 229.661C321.051 222.179 322.14 212.071 321.051 205.089C320.477 201.383 317.283 198.652 313.533 198.661H262.801C260.672 198.653 258.637 199.54 257.194 201.106C255.75 202.671 255.031 204.771 255.212 206.893ZM262.444 206.036C262.532 205.93 262.664 205.871 262.801 205.875H313.533C313.764 205.872 313.962 206.04 313.997 206.268C314.801 211.429 314.015 219.447 309.176 225.089C304.837 230.161 297.837 232.732 288.39 232.732C277.515 232.732 264.105 228.161 262.319 206.357C262.314 206.237 262.359 206.121 262.444 206.036Z" fill="#372168"/>
<path d="M317.355 218.911C315.587 218.917 314.081 217.629 313.812 215.881C313.544 214.134 314.595 212.453 316.283 211.929L336.64 205.536C338.524 204.944 340.531 205.992 341.123 207.875C341.714 209.759 340.667 211.766 338.783 212.357L318.426 218.732C318.082 218.852 317.719 218.913 317.355 218.911Z" fill="#372168"/>
<path fill-rule="evenodd" clip-rule="evenodd" d="M187.783 229.661C193.551 236.393 202.373 239.804 214.015 239.804C241.426 239.804 246.373 216.786 247.194 206.893C247.363 204.774 246.64 202.68 245.199 201.117C243.758 199.554 241.73 198.664 239.605 198.661H188.873C185.111 198.638 181.906 201.386 181.355 205.107C180.265 212.071 181.373 222.179 187.783 229.661ZM188.408 206.268C188.444 206.04 188.642 205.872 188.872 205.875H239.605C239.74 205.88 239.868 205.938 239.962 206.036C240.042 206.123 240.081 206.24 240.069 206.357C238.212 228.161 224.872 232.732 214.015 232.732C204.551 232.732 197.551 230.161 193.212 225.089C188.408 219.446 187.605 211.429 188.408 206.268Z" fill="#372168"/>
<path d="M261.748 223C261.168 223.004 260.597 222.863 260.087 222.589C254.522 219.755 247.937 219.755 242.373 222.589C241.259 223.227 239.89 223.223 238.781 222.578C237.672 221.933 236.991 220.745 236.995 219.462C237 218.179 237.688 216.995 238.801 216.357C246.504 212.385 255.652 212.385 263.355 216.357C264.791 217.132 265.519 218.783 265.123 220.366C264.727 221.95 263.308 223.063 261.676 223.071L261.748 223Z" fill="#372168"/>
<path d="M185.158 218.911C184.783 218.902 184.41 218.842 184.051 218.732L162.872 211.875C160.994 211.269 159.962 209.254 160.569 207.375C161.175 205.496 163.19 204.465 165.069 205.071L186.247 211.929C187.939 212.454 188.99 214.14 188.717 215.89C188.444 217.64 186.93 218.926 185.158 218.911Z" fill="#372168"/>
<path d="M258.747 208.804H243.497C241.525 208.804 239.926 207.205 239.926 205.232C239.926 203.26 241.525 201.661 243.497 201.661H258.747C260.72 201.661 262.319 203.26 262.319 205.232C262.319 207.205 260.72 208.804 258.747 208.804Z" fill="#372168"/>
</g>
<path fill-rule="evenodd" clip-rule="evenodd" d="M0 250C0 111.929 111.929 0 250 0C388.071 0 500 111.929 500 250C500 388.071 388.071 500 250 500C111.929 500 0 388.071 0 250ZM492.857 250C492.857 115.874 384.126 7.14286 250 7.14286C115.874 7.14286 7.14286 115.874 7.14286 250C7.14286 384.126 115.874 492.857 250 492.857C384.126 492.857 492.857 384.126 492.857 250Z" fill="#372168"/>
</svg>
