<svg width="500" height="500" viewBox="0 0 500 500" fill="none" xmlns="http://www.w3.org/2000/svg">
<path fill-rule="evenodd" clip-rule="evenodd" d="M250 496.429C386.099 496.429 496.429 386.099 496.429 250C496.429 113.901 386.099 3.57141 250 3.57141C113.901 3.57141 3.57144 113.901 3.57144 250C3.57144 386.099 113.901 496.429 250 496.429Z" fill="#E7EEFF"/>
<mask id="mask0_0_283" style="mask-type:alpha" maskUnits="userSpaceOnUse" x="3" y="3" width="494" height="494">
<path fill-rule="evenodd" clip-rule="evenodd" d="M250 496.429C386.099 496.429 496.429 386.099 496.429 250C496.429 113.901 386.099 3.57141 250 3.57141C113.901 3.57141 3.57144 113.901 3.57144 250C3.57144 386.099 113.901 496.429 250 496.429Z" fill="white"/>
</mask>
<g mask="url(#mask0_0_283)">
<path fill-rule="evenodd" clip-rule="evenodd" d="M336.74 210.585C337.919 197.482 339.687 159.822 324.533 135.107C306.015 105.089 275.623 96.321 249.926 96.7317C224.212 96.321 193.819 105.089 175.301 135.107C160.033 159.892 161.855 197.696 163.033 210.696C163.025 210.845 163.025 210.994 163.033 211.142C163.283 213.732 163.498 215.232 163.498 215.232C163.512 215.432 163.538 215.632 163.563 215.832C163.602 216.132 163.641 216.432 163.641 216.732C163.783 218.089 163.944 219.428 164.105 220.732C165.039 228.433 166.592 236.047 168.748 243.5L169.98 247.41C170.748 249.839 171.569 252.214 172.39 254.553C172.98 256.125 173.587 257.714 174.176 259.25C174.465 260.043 174.765 260.766 175.067 261.494L175.07 261.501C175.109 261.596 175.148 261.69 175.188 261.785C175.22 261.863 175.251 261.94 175.283 262.017C180.269 274.629 187.251 286.356 195.962 296.75L196.051 296.853V358.821C197.462 367.91 221.051 375.053 249.998 375.053C278.944 375.053 302.533 367.875 303.944 358.821V296.623L304.033 296.517C312.675 286.19 319.603 274.542 324.551 262.017C324.734 261.539 324.916 261.095 325.097 260.656C325.287 260.193 325.475 259.735 325.658 259.25C326.174 257.945 326.677 256.603 327.177 255.265L327.179 255.261L327.444 254.553L327.464 254.493C336.162 256.464 347.548 254.592 354.301 244.285C363.158 230.785 359.158 215.91 349.694 211.41C345.646 209.46 340.999 209.165 336.74 210.585ZM300.158 300.839L300.316 300.674C300.394 300.593 300.471 300.512 300.547 300.431C300.435 300.561 300.323 300.692 300.212 300.821C295.684 305.617 290.614 309.872 285.105 313.5C280.354 316.719 275.207 319.25 269.817 321.044C275.188 319.251 280.316 316.726 285.051 313.517C290.56 309.89 295.63 305.635 300.158 300.839Z" fill="#FFC7BB"/>
<path d="M145.426 244.357C152.194 254.714 163.658 256.553 172.373 254.535C171.087 250.964 169.837 247.279 168.623 243.482C166.636 236.637 165.168 229.653 164.23 222.589C163.962 220.678 163.73 218.732 163.516 216.75C163.442 216.252 163.394 215.752 163.373 215.25C163.373 215.25 163.194 214.125 162.998 212.142C162.908 211.839 162.908 211.5 162.908 211.16C162.9 211.006 162.9 210.851 162.908 210.696C159.436 209.548 155.693 209.504 152.194 210.571C151.413 210.823 150.649 211.128 149.908 211.482C140.551 215.91 136.498 230.785 145.426 244.357Z" fill="#FFC7BB"/>
<path d="M47.8727 424.411C82.0513 393.911 136.891 375.482 171.087 365.589L172.426 365.196C182.551 362.268 190.766 360.125 195.926 358.661C197.337 367.714 220.926 374.893 249.855 374.893C278.783 374.893 302.391 367.75 303.819 358.661H304.105C309.212 360.125 317.355 362.232 327.408 365.143L328.623 365.5C362.748 375.375 417.676 393.821 451.944 424.428C469.763 440.386 488.571 473.662 504.788 508.035H-5.00754C11.2115 473.626 30.0329 440.311 47.8727 424.411Z" fill="#8BCBC9"/>
<g style="mix-blend-mode:soft-light" opacity="0.4">
<path d="M282.694 393.25C271.915 395.66 260.9 396.858 249.855 396.821C213.319 396.821 182.301 384.696 171.069 365.786L172.408 365.393C182.533 362.464 190.748 360.321 195.908 358.857C197.319 367.911 220.908 375.089 249.837 375.089C278.766 375.089 302.373 367.946 303.801 358.857H304.087C309.194 360.321 317.337 362.428 327.391 365.339L328.605 365.696C323.087 375.053 312.748 382.75 299.283 388.143" fill="white"/>
</g>
<g style="mix-blend-mode:soft-light" opacity="0.4">
<path d="M282.694 393.25C271.915 395.66 260.9 396.858 249.855 396.821C213.319 396.821 182.301 384.696 171.069 365.786L172.408 365.393C182.533 362.464 190.748 360.321 195.908 358.857C197.319 367.911 220.908 375.089 249.837 375.089C278.766 375.089 302.373 367.946 303.801 358.857H304.087C309.194 360.321 317.337 362.428 327.391 365.339L328.605 365.696C323.087 375.053 312.748 382.75 299.283 388.143" fill="white"/>
</g>
<g style="mix-blend-mode:multiply" opacity="0.15">
<path fill-rule="evenodd" clip-rule="evenodd" d="M300.426 300.464V350.089C252.212 350.91 216.283 327.643 199.444 313.928V300.643L199.641 300.857C204.169 305.648 209.239 309.897 214.748 313.518C224.613 320.205 236.19 323.924 248.105 324.232H251.587C263.508 323.927 275.091 320.208 284.962 313.518C290.474 309.886 295.549 305.632 300.087 300.839L300.426 300.464Z" fill="#7C3830"/>
</g>
<path fill-rule="evenodd" clip-rule="evenodd" d="M251.152 93.1641L249.962 93.1781C230.373 92.8209 194.194 97.6423 172.23 133.249C158.439 155.629 157.983 187.506 159.001 204.934L159.087 206.315C156.403 206.103 153.687 206.402 151.087 207.214C150.176 207.524 149.282 207.882 148.409 208.285C143.178 210.957 139.352 215.753 137.909 221.446C135.765 230.012 137.425 239.087 142.462 246.339C147.607 254.317 156.526 259.05 166.016 258.839L167.028 258.822C168.04 258.79 169.049 258.71 170.053 258.582L170.784 260.499C171.159 261.464 171.534 262.41 171.927 263.357C176.861 275.85 183.709 287.497 192.223 297.879L192.354 298.037V356.098L188.069 357.285C184.085 358.363 179.226 359.688 173.755 361.258L171.373 361.946L170.069 362.321C112.48 379.053 71.7302 398.464 45.4623 421.91C27.0201 438.376 7.7464 472.482 -8.92859 508.036H508.88C483.311 453.62 464.734 431.125 454.427 421.91C428.683 398.928 389.049 379.743 333.434 363.317L330.247 362.382C330.132 362.332 330.013 362.288 329.891 362.249L328.605 361.875C325.415 360.96 322.417 360.117 319.645 359.348L312.909 357.499L307.515 356.003L307.516 297.952C316.05 287.568 322.913 275.914 327.855 263.41C328.248 262.464 328.641 261.517 328.998 260.553L329.739 258.58C331.062 258.749 332.395 258.836 333.73 258.839C343.241 259.023 352.163 254.248 357.284 246.232L357.707 245.605C362.405 238.451 363.911 229.648 361.837 221.321C360.389 215.644 356.571 210.864 351.355 208.196C350.249 207.67 349.103 207.234 347.927 206.892C345.562 206.254 343.118 206.029 340.7 206.217C341.81 189.108 341.672 156.189 327.552 133.249C306.027 98.3545 270.902 93.0432 251.152 93.1641ZM269.785 377.57C290.132 375.225 302.072 369.286 306.105 363.035L311.034 364.392C313.25 364.995 315.69 365.662 318.34 366.399L323.087 367.732C317.694 374.535 309.194 380.375 298.177 384.803L297.9 384.917C296.821 385.417 296.055 386.427 295.873 387.616C295.675 388.904 296.194 390.197 297.228 390.99C298.261 391.783 299.644 391.951 300.837 391.428C314.192 386.063 324.337 378.648 330.398 369.848C384.808 385.823 424.936 405.127 449.677 427.214C465.576 441.411 482.459 470.211 497.431 500.893H2.49725C17.4298 470.292 34.3358 441.409 50.2659 427.214C74.4284 405.681 113.294 386.761 165.955 370.963L169.567 369.89C182.446 388.485 213.532 400.357 249.944 400.357C261.28 400.389 272.582 399.149 283.641 396.66C285.564 396.221 286.767 394.307 286.328 392.383C285.89 390.46 283.975 389.257 282.052 389.696C271.53 392.045 260.778 393.201 249.998 393.142C217.212 393.142 189.319 383.303 176.962 367.749L193.989 363.12C199.241 371.156 217.533 378.642 249.944 378.642C257.276 378.642 263.886 378.258 269.785 377.57ZM287.016 316.535C276.567 323.572 264.324 327.476 251.73 327.785H247.962C235.4 327.452 223.195 323.536 212.784 316.499C208.036 313.372 203.599 309.801 199.532 305.836L199.502 357.824C199.552 357.974 199.592 358.128 199.623 358.285C200.471 363.724 219.636 371.311 249.021 371.479L249.909 371.482C277.046 371.482 295.707 365.162 299.621 359.87C300.017 359.328 300.258 358.797 300.337 358.285L300.339 305.787C296.253 309.785 291.792 313.384 287.016 316.535ZM248.302 100.303L251.078 100.276C269.308 100.221 301.704 105.044 321.409 136.964C335.694 160.155 334.322 196.162 333.288 208.864L333.159 210.357V210.553L336.519 210.837H336.135L333.159 210.749C332.989 212.542 332.828 213.769 332.755 214.332L332.754 214.335C332.745 214.403 332.738 214.46 332.732 214.509C332.719 214.605 332.712 214.662 332.712 214.678V214.928C332.699 215.09 332.679 215.249 332.659 215.41C332.624 215.694 332.587 215.984 332.587 216.303C331.713 225.137 330.046 233.875 327.605 242.41C326.48 246.089 325.284 249.767 324.034 253.232L323.587 254.428C323.373 255.053 323.127 255.723 322.893 256.348L322.266 257.999C321.927 258.892 321.569 259.785 321.194 260.678C316.39 272.852 309.661 284.174 301.266 294.214L301.541 293.875C301.492 293.92 301.444 293.966 301.397 294.014C301.339 294.072 301.284 294.133 301.23 294.196C299.909 295.749 298.694 297.124 297.48 298.374L296.471 299.426C292.398 303.594 287.887 307.313 283.016 310.517L282.167 311.082L281.308 311.633C276.362 314.645 271.646 316.663 267.436 318.012C262.324 319.601 256.993 320.493 251.587 320.642H248.105C239.347 320.394 230.786 318.201 223.029 314.26C220.856 313.154 218.746 311.911 216.712 310.535C211.443 307.054 206.589 302.979 202.248 298.392C201.159 297.232 199.98 295.946 198.677 294.428C190.21 284.318 183.426 272.91 178.587 260.642C178.23 259.768 177.873 258.892 177.516 257.982C176.891 256.464 176.284 254.892 175.73 253.374L175.58 252.944L175.579 252.941L175.578 252.938L175.576 252.932C175.575 252.929 175.574 252.926 175.572 252.923C175.106 251.586 174.635 250.237 174.178 248.878L173.355 246.357C172.944 245.071 172.534 243.785 172.141 242.499C170.036 235.233 168.513 227.811 167.587 220.303C167.427 219.017 167.266 217.696 167.123 216.357C166.998 215.892 166.998 215.446 166.998 214.982C167.006 214.898 167.006 214.815 166.998 214.732L166.587 211.214L166.587 210.732C166.587 210.456 166.555 210.186 166.494 209.929C165.464 198.282 163.584 160.847 178.284 136.999C197.802 105.339 229.802 100.303 248.302 100.303ZM340.643 213.53L340.123 213.616L339.933 215.214L339.873 215.624C339.82 215.944 339.796 216.314 339.773 216.682L339.762 216.851C339.758 216.919 339.753 216.986 339.748 217.053C339.023 224.437 337.766 231.757 335.988 238.955C338.388 238.847 340.629 237.623 342.016 235.607C343.735 233.252 344.017 230.142 342.748 227.517C342.211 226.689 342.446 225.582 343.275 225.044C344.103 224.507 345.211 224.742 345.748 225.571C347.598 229.133 347.473 233.398 345.418 236.845C343.363 240.293 339.671 242.432 335.659 242.499C335.46 242.513 335.261 242.52 335.062 242.52L334.498 244.535C333.762 246.947 332.998 249.343 332.204 251.703C339.594 252.363 346.754 249.003 350.973 242.933L351.302 242.446C355.205 236.917 356.538 229.974 354.962 223.392C354.069 219.691 351.631 216.55 348.266 214.767C347.525 214.409 346.754 214.116 345.962 213.892C344.423 213.462 342.821 213.318 341.236 213.462L340.643 213.53ZM153.302 213.982C154.594 213.567 155.944 213.357 157.288 213.355L157.858 213.363C158.449 213.382 159.039 213.44 159.623 213.535L159.766 214.778C159.798 215.043 159.83 215.258 159.862 215.424L159.903 215.884C159.908 215.928 159.914 215.972 159.919 216.015C159.931 216.109 159.944 216.202 159.957 216.294C159.996 216.583 160.034 216.854 160.034 217.089C160.248 219.071 160.48 221.017 160.748 222.928C160.739 222.975 160.739 223.024 160.748 223.071C161.447 228.403 162.446 233.69 163.741 238.91C161.181 238.928 158.757 237.683 157.284 235.553C155.583 233.192 155.303 230.092 156.552 227.464C157.086 226.64 156.855 225.539 156.034 224.999C155.636 224.737 155.151 224.644 154.685 224.741C154.219 224.839 153.811 225.118 153.552 225.517C151.68 229.098 151.806 233.395 153.883 236.86C155.96 240.326 159.69 242.462 163.73 242.499C164.045 242.505 164.359 242.495 164.672 242.469L164.672 242.466L164.909 242.446C164.83 242.454 164.751 242.462 164.672 242.469C164.859 243.147 165.051 243.824 165.248 244.499C165.98 246.928 166.73 249.303 167.516 251.642C159.912 252.349 152.541 248.797 148.355 242.41L147.977 241.851C144.401 236.397 143.237 229.695 144.784 223.339C145.676 219.622 148.13 216.471 151.516 214.696C152.095 214.419 152.692 214.181 153.302 213.982Z" fill="#372168"/>
<path fill-rule="evenodd" clip-rule="evenodd" d="M430.837 432.821C424.296 427.042 417.324 421.77 409.98 417.053C409.444 416.705 408.764 416.67 408.194 416.96C407.625 417.25 407.254 417.822 407.221 418.46C407.188 419.098 407.498 419.705 408.034 420.053C415.224 424.672 422.053 429.83 428.462 435.482C428.785 435.775 429.204 435.94 429.641 435.946C430.154 435.945 430.642 435.724 430.98 435.339C431.635 434.604 431.571 433.477 430.837 432.821ZM164.909 242.446C164.83 242.454 164.751 242.462 164.672 242.469L164.672 242.466L164.909 242.446Z" fill="#372168"/>
<path d="M260.391 295.617C259.89 295.62 259.411 295.39 259.07 294.982C256.579 292.661 253.388 291.477 250.141 291.668C246.915 291.473 243.737 292.603 241.213 294.843C240.78 295.412 240.096 295.664 239.443 295.495C238.79 295.325 238.277 294.764 238.116 294.04C237.954 293.317 238.171 292.554 238.677 292.065C245.457 286.174 254.998 286.256 261.695 292.263C262.189 292.84 262.326 293.688 262.042 294.419C261.758 295.15 261.108 295.622 260.391 295.617Z" fill="#372168"/>
<g style="mix-blend-mode:multiply" opacity="0.15">
<path fill-rule="evenodd" clip-rule="evenodd" d="M220.497 245.119C220.497 256.019 212.502 264.856 202.64 264.856C192.778 264.856 184.783 256.019 184.783 245.119C184.783 234.219 192.778 225.382 202.64 225.382C212.502 225.382 220.497 234.219 220.497 245.119ZM316.926 245.119C316.926 256.019 308.931 264.856 299.069 264.856C289.207 264.856 281.212 256.019 281.212 245.119C281.212 234.219 289.207 225.382 299.069 225.382C308.931 225.382 316.926 234.219 316.926 245.119Z" fill="#FF1300"/>
</g>
<path fill-rule="evenodd" clip-rule="evenodd" d="M248.801 84.6068C243.184 84.6051 237.578 85.1071 232.051 86.1068C222.312 87.8507 212.921 91.1679 204.247 95.9282C201.825 97.3186 199.223 98.3701 196.515 99.0532C182.337 102.321 174.658 94.8925 174.658 94.8925C174.658 94.8925 172.051 106.553 179.247 111.553C179.921 112.048 180.359 112.801 180.453 113.631C180.548 114.462 180.292 115.294 179.747 115.928C165.643 132.577 158.375 153.954 159.408 175.75L160.605 205.16V205.321L161.944 238.25V240.285L163.337 271.071C163.462 271.732 163.48 272.392 163.551 273.053C163.622 273.714 163.676 274.625 163.765 275.428C163.775 275.511 163.775 275.595 163.765 275.678C163.765 275.982 163.765 276.285 163.89 276.571C164.015 276.857 164.015 277.357 164.069 277.732C167.747 300.946 184.712 319.821 207.283 327.267H207.569C214.341 329.458 221.415 330.573 228.533 330.571H277.372L278.569 330.464L280.158 330.285C281.658 330.107 283.14 329.857 284.587 329.589L285.801 329.339C287.265 329 288.73 328.643 290.176 328.214L290.533 328.107L291.694 327.75L294.122 326.928C294.872 326.642 295.622 326.375 296.355 326.035C297.515 325.571 298.64 325.089 299.765 324.553C300.497 324.196 301.212 323.821 301.944 323.428C302.319 323.25 302.676 323.053 303.033 322.857L304.051 322.285C304.426 322.071 304.801 321.857 305.158 321.625C305.855 321.214 306.551 320.767 307.23 320.321C307.497 320.16 307.747 319.982 308.015 319.785C308.283 319.589 308.855 319.214 309.265 318.946L310.212 318.232C311.212 317.5 312.158 316.732 313.087 315.964C313.64 315.517 314.158 315.053 314.765 314.589L316.694 312.803C316.997 312.535 317.283 312.232 317.551 311.946C318.39 311.089 319.212 310.16 320.015 309.339C320.819 308.518 321.605 307.446 322.355 306.482C322.958 305.655 323.62 304.873 324.337 304.143C324.779 303.232 325.286 302.355 325.855 301.518C326.158 301.089 326.426 300.625 326.694 300.178L327.122 299.446C327.408 298.964 327.676 298.5 327.926 298.018C328.176 297.535 328.337 297.268 328.533 296.893L329.015 295.964C329.14 295.678 329.265 295.41 329.408 295.143C329.944 294.018 330.444 292.91 330.89 291.785L331.247 290.928C331.89 289.303 332.462 287.643 332.944 285.964C333.033 285.643 333.14 285.303 333.23 284.964L333.337 284.607C333.426 284.267 333.497 283.91 333.587 283.571C333.908 282.375 334.176 281.143 334.39 279.91C334.469 279.599 334.528 279.283 334.569 278.964C334.569 278.589 334.694 278.214 334.765 277.857C334.837 277.5 334.89 276.928 334.944 276.446C334.997 275.964 335.087 275.428 335.122 274.91C335.158 274.393 335.212 274.071 335.247 273.643C335.283 273.214 335.247 273.125 335.247 272.857C335.247 272.589 335.247 272.107 335.247 271.696C335.247 271.285 335.247 270.66 335.247 270.143C335.247 269.607 335.247 269.089 335.247 268.553L338.087 175.107C339.819 124.053 299.301 84.6068 248.801 84.6068ZM321.569 247.464C321.692 262.841 309.493 275.491 294.122 275.928H293.176C291.249 275.939 289.562 274.635 289.087 272.768C289.091 265.809 286.329 259.134 281.409 254.213C276.488 249.293 269.813 246.531 262.855 246.535H236.069C221.65 246.495 209.903 258.1 209.765 272.518V272.768C209.29 274.635 207.603 275.939 205.676 275.928H203.98C188.828 275.191 176.955 262.633 177.069 247.464V176.66C177.002 167.694 180.732 159.118 187.337 153.053C194.319 146.714 205.569 140.393 223.051 139.178C225.408 145.357 238.926 170.91 271.087 161.178C265.402 155.121 262.323 147.073 262.515 138.768C264.301 142.125 282.158 161.571 300.694 156.785C300.694 156.785 296.605 150.393 297.587 144.16C304.877 147.392 311.378 152.169 316.64 158.16C319.849 161.873 321.595 166.628 321.551 171.535L321.569 247.464Z" fill="#D9D0FF"/>
<path fill-rule="evenodd" clip-rule="evenodd" d="M316.89 109.232C333.645 126.518 342.733 149.803 342.139 173.837L339.247 269.911L339.242 270.709C339.233 271.08 339.212 271.408 339.158 271.697V272.768L339.165 272.92L339.158 273.072C339.149 273.256 339.149 273.441 339.158 273.625C339.158 274 339.158 274.345 339.105 274.675L339.033 275C338.956 275.265 338.933 275.605 338.91 275.948C338.896 276.16 338.882 276.374 338.855 276.572C338.83 276.751 338.807 276.932 338.785 277.115C338.742 277.458 338.699 277.805 338.64 278.143L338.462 279.215C338.462 279.488 338.392 279.762 338.326 280.023C338.31 280.088 338.294 280.152 338.279 280.215C338.267 280.263 338.257 280.311 338.247 280.358C337.997 281.697 337.712 283 337.39 284.233L337.301 284.625L337.14 285.25C337.148 285.328 337.148 285.405 337.14 285.483V285.625L336.837 286.661C336.337 288.447 335.73 290.233 335.051 292.018L334.64 292.983L334.287 293.854C334.031 294.465 333.73 295.137 333.378 295.878L332.765 297.161C332.734 297.249 332.692 297.333 332.64 297.411L332.212 298.268L331.497 299.572C331.301 299.983 330.997 300.5 330.676 301.036L330.105 301.983C329.855 302.411 329.604 302.84 329.319 303.25L328.944 303.84C328.607 304.33 328.314 304.85 328.069 305.393C327.871 305.819 327.592 306.201 327.247 306.518C326.981 306.786 326.728 307.066 326.489 307.358L325.605 308.5C324.855 309.465 324.033 310.465 323.194 311.447C322.652 312.081 322.066 312.677 321.493 313.26L321.491 313.262L321.488 313.265C321.175 313.584 320.865 313.899 320.569 314.215C320.272 314.554 319.956 314.876 319.622 315.179L318.676 316.108C318.355 316.393 318.051 316.679 317.765 316.983L317.408 317.286L315.801 318.608C314.855 319.393 313.855 320.197 312.801 320.983L312.372 321.286L312.11 321.499L311.694 321.804L311.23 322.108C310.997 322.286 310.747 322.447 310.497 322.608C310.187 322.838 309.865 323.053 309.533 323.25L308.759 323.756C308.344 324.02 307.894 324.297 307.444 324.554L307.04 324.812C306.888 324.904 306.722 325.002 306.548 325.101L305.301 325.804L304.4 326.297L303.546 326.729L303.406 326.802L303.184 326.919L303.182 326.92C302.754 327.146 302.254 327.409 301.801 327.625C300.676 328.161 299.515 328.661 298.23 329.179C297.569 329.483 296.926 329.733 296.265 329.983L294.658 330.536L293.265 331L292.105 331.358H291.801C290.015 331.893 288.426 332.286 287.069 332.59H286.872L285.926 332.786H285.694L284.674 332.968C283.591 333.157 282.332 333.358 281.033 333.518L279.372 333.697H274.265L272.069 334.25H228.497C221.004 334.255 213.557 333.087 206.426 330.786L206.051 330.661C181.801 322.625 164.355 302.59 160.497 278.322V277.822C160.497 277.666 160.463 277.509 160.428 277.353C160.407 277.259 160.386 277.166 160.372 277.072C160.359 276.981 160.356 276.886 160.352 276.791C160.346 276.624 160.34 276.458 160.283 276.322C160.266 276.162 160.266 276 160.283 275.84L160.259 275.608C160.178 274.834 160.1 274.085 160.051 273.322V272.697C160.032 272.38 159.996 272.064 159.944 271.75C159.925 271.578 159.925 271.405 159.944 271.233L157.265 205.465V205.161L156.069 175.893C155.059 153.414 162.478 131.367 176.872 114.072C168.497 107.607 171.265 94.6789 171.39 94.1253C171.67 92.8592 172.614 91.844 173.856 91.4731C175.003 91.1308 176.238 91.387 177.151 92.1409L177.521 92.4727C178.564 93.3657 184.866 98.1396 195.944 95.5896C198.328 94.9838 200.617 94.0524 202.747 92.8218C211.763 87.877 221.52 84.4274 231.64 82.6075C237.381 81.5802 243.201 81.0603 249.033 81.0539C274.549 80.7977 299.062 90.9769 316.89 109.232ZM248.855 88.1075C243.465 88.1088 238.086 88.5929 232.783 89.5539C223.402 91.2232 214.355 94.4077 205.997 98.9825C203.297 100.536 200.394 101.708 197.372 102.465C192.492 103.721 187.402 103.736 182.558 102.546C187.176 106.432 194.896 110.127 207.408 109.625C208.046 109.6 208.649 109.917 208.99 110.456C209.331 110.996 209.359 111.677 209.062 112.242C208.765 112.807 208.189 113.171 207.551 113.197L205.105 113.25C190.895 113.25 182.648 108.032 178.072 103.247C178.536 105.304 179.666 107.177 181.319 108.554C182.809 109.585 183.789 111.202 184.015 113C184.264 114.858 183.712 116.734 182.497 118.161C169.025 134.16 162.064 154.641 162.997 175.536L164.212 204.947V205.25L166.908 270.715C166.908 270.987 166.951 271.264 166.994 271.541C167.024 271.737 167.054 271.933 167.069 272.125V272.697C167.069 273.361 167.147 273.935 167.224 274.5C167.244 274.649 167.264 274.798 167.283 274.947C167.291 275.084 167.291 275.221 167.283 275.358C167.283 275.608 167.283 275.84 167.372 276.054L167.569 277.25C170.631 296.534 183.425 312.869 201.609 321.241C199.644 316.802 198.497 312.02 198.247 307.125C198.218 306.652 198.379 306.186 198.694 305.83C199.009 305.475 199.452 305.26 199.926 305.233C200.4 305.203 200.866 305.364 201.221 305.679C201.576 305.994 201.791 306.437 201.819 306.911C202.104 312.704 203.773 318.325 206.666 323.312C207.226 323.513 207.788 323.707 208.355 323.893L208.426 323.929H208.622C213.683 325.562 218.921 326.563 224.216 326.913C222.875 321.62 222.819 314.654 222.819 313.608C222.819 312.692 223.508 311.937 224.396 311.834L224.605 311.822C225.591 311.822 226.39 312.621 226.39 313.608C226.39 317.415 226.817 323.46 227.908 327.051L246.962 327.053L246.962 309.858C246.962 308.942 247.651 308.187 248.539 308.084L248.747 308.072C249.734 308.072 250.533 308.871 250.533 309.858L250.533 327.053L269.555 327.057C270.643 323.464 271.065 317.428 271.051 313.625C271.051 312.71 271.74 311.955 272.628 311.852L272.837 311.84C273.823 311.84 274.622 312.639 274.622 313.625L274.603 315.343C274.542 318.007 274.289 323.044 273.247 327.055L277.176 327.054C277.378 327.071 277.581 327.071 277.783 327.054H278.194C278.694 327.054 279.158 327.054 279.622 326.893L280.807 326.737C281.965 326.574 283.033 326.393 283.89 326.233L285.051 325.983C286.283 325.697 287.712 325.358 289.122 324.947L289.338 324.946L289.507 324.69C292.917 319.364 294.886 313.237 295.212 306.911C295.25 306.273 295.626 305.704 296.197 305.418C296.769 305.132 297.45 305.173 297.983 305.525C298.516 305.877 298.821 306.487 298.783 307.125C298.498 312.724 297.037 318.181 294.517 323.147L294.819 323.018H294.98C296.069 322.572 297.14 322.125 298.194 321.625C298.83 321.316 299.467 320.973 300.135 320.613L300.212 320.572L301.265 320.018L302.212 319.483L303.176 318.929C303.726 318.596 304.212 318.282 304.68 317.98C304.865 317.86 305.047 317.742 305.23 317.625C305.47 317.484 305.621 317.376 305.762 317.276C305.799 317.249 305.835 317.223 305.872 317.197C305.937 317.139 306.009 317.091 306.087 317.054L306.658 316.661L307.176 316.322L307.497 316.072L308.087 315.625C308.997 314.947 309.872 314.233 310.765 313.5L311.39 312.983L312.355 312.197L313.212 311.375L314.283 310.322C314.445 310.187 314.606 310.022 314.76 309.865L314.837 309.787L314.908 309.715C315.31 309.296 315.696 308.878 316.072 308.47C316.498 308.009 316.911 307.56 317.319 307.143C317.817 306.634 318.285 306.034 318.747 305.442C318.997 305.121 319.246 304.802 319.497 304.5L319.98 303.875C320.403 303.31 320.856 302.767 321.337 302.25C321.73 301.483 322.105 300.893 322.408 300.465L322.89 299.715C323.046 299.507 323.183 299.281 323.314 299.063C323.364 298.981 323.413 298.9 323.462 298.822L323.98 297.929C324.17 297.619 324.337 297.334 324.49 297.051L324.712 296.625C324.826 296.396 324.941 296.192 325.048 296.003L325.049 296L325.094 295.921C325.12 295.874 325.146 295.827 325.171 295.782L325.765 294.661C325.908 294.34 326.051 294.018 326.212 293.715C326.73 292.643 327.158 291.643 327.533 290.715L327.944 289.75C328.387 288.608 328.818 287.385 329.192 286.155L329.73 284.304V284.09L329.872 283.536C329.872 283.392 329.921 283.238 329.968 283.088C329.984 283.034 330.001 282.981 330.015 282.929C330.301 281.834 330.551 280.709 330.765 279.554C330.757 279.483 330.757 279.411 330.765 279.34C330.811 279.169 330.847 278.996 330.872 278.822C330.864 278.733 330.864 278.643 330.872 278.554L330.962 278.108C330.962 277.875 330.962 277.643 331.087 277.411C331.149 277.295 331.149 277.125 331.149 276.931C331.149 276.737 331.149 276.518 331.212 276.304V276.108C331.212 275.899 331.247 275.69 331.283 275.478C331.314 275.292 331.346 275.103 331.355 274.911V274.715C331.409 274.348 331.445 273.978 331.462 273.608V268.768L334.765 174.643C335.608 152.148 327.221 130.286 311.551 114.125C295.08 97.2583 272.429 87.8585 248.855 88.1075ZM244.101 132.064L243.962 131.268C243.804 130.282 242.876 129.61 241.89 129.768C240.904 129.926 240.232 130.853 240.39 131.84C241.435 138.45 245.472 152.517 260.525 159.663C237.584 161.623 228.155 142.265 226.556 138.512L226.319 137.929C225.758 136.466 224.31 135.54 222.747 135.643C204.15 136.935 192.395 143.905 185.654 149.781L184.926 150.429C183.832 151.432 182.808 152.497 181.859 153.617C185.884 144.989 191.73 139.26 196.015 135.929L196.189 135.795C196.627 135.412 196.854 134.836 196.787 134.249C196.712 133.589 196.277 133.025 195.657 132.785C195.038 132.546 194.336 132.67 193.837 133.107L193.492 133.376C186.195 139.122 175.069 151.133 173.786 171.408L173.746 172.115C173.56 173.62 173.47 175.144 173.48 176.679L173.479 248.073C173.613 264.973 187.005 278.851 203.962 279.518H205.14L205.694 279.5C209.263 279.506 212.374 277.073 213.23 273.608C213.301 273.334 213.337 273.051 213.337 272.768V272.554C213.502 260.139 223.599 250.154 236.015 250.125H262.801C275.312 250.135 285.452 260.275 285.462 272.786L285.467 273.068C285.479 273.256 285.507 273.442 285.551 273.625C286.415 277.1 289.542 279.534 293.122 279.518H294.122C311.432 279.024 325.181 264.799 325.087 247.483V171.554C325.133 165.778 323.069 160.184 319.283 155.822C313.645 149.405 306.673 144.298 298.855 140.857C297.843 140.461 296.706 140.546 295.765 141.09C294.815 141.619 294.158 142.552 293.98 143.625C293.544 147.135 294.005 150.699 295.319 153.983C280.176 154.554 266.497 138.857 265.569 137.072C264.794 135.667 263.178 134.951 261.617 135.321C260.055 135.692 258.933 137.058 258.872 138.661C258.688 145.133 260.318 151.51 263.554 157.084C249.903 151.362 245.503 139.64 244.101 132.064ZM220.837 142.965H220.765C208.051 144.25 197.551 148.536 189.712 155.697C183.861 161.09 180.56 168.704 180.622 176.661V247.465C180.445 260.735 190.829 271.752 204.087 272.358H205.533C205.77 272.373 206.003 272.289 206.176 272.125C206.591 255.945 219.794 243.027 235.98 242.965H262.765C278.974 242.961 292.211 255.92 292.551 272.125C292.694 272.278 292.895 272.363 293.105 272.358H294.033C307.239 271.919 317.723 261.175 317.908 248.029L317.909 171.536C317.956 167.502 316.527 163.59 313.89 160.536C310.333 156.527 306.191 153.078 301.605 150.304C302.016 151.63 302.555 152.912 303.213 154.133L303.622 154.857C304.229 155.819 304.341 157.012 303.925 158.069C303.509 159.127 302.614 159.924 301.515 160.215C288.533 163.572 275.997 156.536 267.944 149.75C269.251 153.053 271.164 156.081 273.587 158.679C274.445 159.575 274.776 160.853 274.462 162.054C274.15 163.255 273.237 164.208 272.051 164.572C267.176 166.095 262.104 166.895 256.997 166.947C234.765 167 224.051 149.643 220.837 142.965ZM303.372 116.286C298.971 110.552 292.977 106.241 286.14 103.893C285.525 103.615 284.806 103.708 284.281 104.133C283.757 104.558 283.516 105.242 283.66 105.901C283.804 106.561 284.308 107.083 284.962 107.25C291.127 109.378 296.534 113.264 300.515 118.429C300.852 118.879 301.382 119.143 301.944 119.143C302.33 119.143 302.706 119.018 303.015 118.786C303.394 118.502 303.645 118.079 303.712 117.61C303.779 117.141 303.657 116.665 303.372 116.286Z" fill="#372168"/>
<path d="M262.908 274.054C261.182 274.054 259.783 272.655 259.783 270.929C259.783 269.203 261.182 267.804 262.908 267.804C265.344 267.804 267.319 265.829 267.319 263.393C267.319 260.957 265.344 258.982 262.908 258.982C261.182 258.982 259.783 257.583 259.783 255.857C259.783 254.131 261.182 252.732 262.908 252.732C266.972 252.324 270.914 254.262 273.073 257.73C275.232 261.197 275.232 265.59 273.073 269.057C270.914 272.524 266.972 274.462 262.908 274.054Z" fill="#372168"/>
<path d="M250.806 241.583C246.906 241.635 243.239 239.731 241.038 236.512C240.101 235.062 240.517 233.127 241.967 232.19C243.417 231.253 245.351 231.669 246.288 233.119C247.375 234.533 249.063 235.354 250.846 235.336C252.629 235.319 254.301 234.464 255.36 233.029C256.257 231.55 258.184 231.078 259.663 231.976C261.143 232.873 261.614 234.8 260.717 236.279C258.556 239.646 254.806 241.653 250.806 241.583Z" fill="#372168"/>
<path d="M288.008 220.089C295.919 220.089 295.937 207.768 288.008 207.768C280.079 207.768 280.062 220.089 288.008 220.089Z" fill="#372168"/>
<path d="M214.847 220.089C222.776 220.089 222.793 207.768 214.847 207.768C206.901 207.768 206.901 220.089 214.847 220.089Z" fill="#372168"/>
<path d="M272.604 198.75C270.632 198.839 268.961 197.312 268.872 195.339C268.784 193.367 270.311 191.696 272.283 191.607L302.64 188.875C303.916 188.76 305.156 189.335 305.894 190.382C306.631 191.43 306.754 192.791 306.215 193.954C305.677 195.116 304.559 195.903 303.283 196.018L272.926 198.75H272.604Z" fill="#372168"/>
<path d="M198.426 198.75C196.453 198.839 194.782 197.312 194.694 195.339C194.605 193.367 196.132 191.696 198.104 191.607L228.462 188.875C230.434 188.697 232.177 190.152 232.354 192.125C232.532 194.097 231.077 195.84 229.104 196.018L198.747 198.75H198.426Z" fill="#372168"/>
</g>
<path fill-rule="evenodd" clip-rule="evenodd" d="M0 250C0 111.929 111.929 0 250 0C388.071 0 500 111.929 500 250C500 388.071 388.071 500 250 500C111.929 500 0 388.071 0 250ZM492.857 250C492.857 115.874 384.126 7.14286 250 7.14286C115.874 7.14286 7.14286 115.874 7.14286 250C7.14286 384.126 115.874 492.857 250 492.857C384.126 492.857 492.857 384.126 492.857 250Z" fill="#372168"/>
</svg>
