<svg width="500" height="500" viewBox="0 0 500 500" fill="none" xmlns="http://www.w3.org/2000/svg">
<path fill-rule="evenodd" clip-rule="evenodd" d="M250 496.429C386.099 496.429 496.429 386.099 496.429 250C496.429 113.901 386.099 3.57144 250 3.57144C113.901 3.57144 3.57141 113.901 3.57141 250C3.57141 386.099 113.901 496.429 250 496.429Z" fill="#E7EEFF"/>
<mask id="mask0_0_277" style="mask-type:alpha" maskUnits="userSpaceOnUse" x="3" y="3" width="494" height="494">
<path fill-rule="evenodd" clip-rule="evenodd" d="M250 496.429C386.099 496.429 496.429 386.099 496.429 250C496.429 113.901 386.099 3.57144 250 3.57144C113.901 3.57144 3.57141 113.901 3.57141 250C3.57141 386.099 113.901 496.429 250 496.429Z" fill="white"/>
</mask>
<g mask="url(#mask0_0_277)">
<path fill-rule="evenodd" clip-rule="evenodd" d="M336.74 210.585C337.919 197.482 339.687 159.822 324.533 135.107C306.015 105.089 275.623 96.321 249.926 96.7317C224.212 96.321 193.819 105.089 175.301 135.107C160.033 159.892 161.855 197.696 163.033 210.696C163.025 210.845 163.025 210.994 163.033 211.142C163.283 213.732 163.498 215.232 163.498 215.232C163.512 215.432 163.538 215.632 163.563 215.832C163.602 216.132 163.641 216.432 163.641 216.732C163.783 218.089 163.944 219.428 164.105 220.732C165.039 228.433 166.592 236.047 168.748 243.5L169.98 247.41C170.748 249.839 171.569 252.214 172.39 254.553C172.98 256.125 173.587 257.714 174.176 259.25C174.465 260.043 174.765 260.766 175.067 261.494L175.07 261.501C175.109 261.596 175.148 261.691 175.188 261.786C175.22 261.863 175.251 261.94 175.283 262.017C180.269 274.629 187.251 286.356 195.962 296.75L196.051 296.853V358.821C197.462 367.91 221.051 375.053 249.998 375.053C278.944 375.053 302.533 367.875 303.944 358.821V296.623L304.033 296.517C312.675 286.19 319.603 274.542 324.551 262.017C324.734 261.539 324.916 261.095 325.097 260.656C325.287 260.193 325.475 259.735 325.658 259.25C326.174 257.946 326.677 256.603 327.177 255.265L327.179 255.261L327.444 254.553L327.464 254.493C336.162 256.464 347.548 254.592 354.301 244.285C363.158 230.785 359.158 215.91 349.694 211.41C345.646 209.46 340.999 209.165 336.74 210.585ZM300.158 300.839L300.316 300.674C300.394 300.593 300.471 300.512 300.547 300.431C300.435 300.562 300.323 300.692 300.212 300.821C295.684 305.617 290.614 309.872 285.105 313.5C280.354 316.719 275.207 319.25 269.817 321.044C275.188 319.251 280.316 316.726 285.051 313.517C290.56 309.89 295.63 305.635 300.158 300.839Z" fill="#B86961"/>
<path d="M145.426 244.357C152.194 254.714 163.658 256.553 172.373 254.535C171.087 250.964 169.837 247.279 168.623 243.482C166.636 236.637 165.168 229.653 164.23 222.589C163.962 220.678 163.73 218.732 163.516 216.75C163.442 216.252 163.394 215.752 163.373 215.25C163.373 215.25 163.194 214.125 162.998 212.142C162.908 211.839 162.908 211.5 162.908 211.16C162.9 211.006 162.9 210.851 162.908 210.696C159.436 209.548 155.693 209.504 152.194 210.571C151.413 210.823 150.649 211.128 149.908 211.482C140.551 215.91 136.498 230.785 145.426 244.357Z" fill="#B86961"/>
<path d="M47.8727 424.411C82.0512 393.911 136.891 375.482 171.087 365.589L172.426 365.196C182.551 362.268 190.766 360.125 195.926 358.661C197.337 367.714 220.926 374.893 249.855 374.893C278.783 374.893 302.391 367.75 303.819 358.661H304.105C309.212 360.125 317.355 362.232 327.408 365.143L328.623 365.5C362.748 375.375 417.676 393.821 451.944 424.429C469.763 440.386 488.57 473.662 504.788 508.036H-5.00757C11.2115 473.626 30.0329 440.311 47.8727 424.411Z" fill="#FF8EC1"/>
<g style="mix-blend-mode:soft-light" opacity="0.4">
<path d="M282.694 393.25C271.915 395.66 260.9 396.858 249.855 396.821C213.319 396.821 182.301 384.696 171.069 365.786L172.408 365.393C182.533 362.464 190.748 360.321 195.908 358.857C197.319 367.911 220.908 375.089 249.837 375.089C278.766 375.089 302.373 367.946 303.801 358.857H304.087C309.194 360.321 317.337 362.428 327.391 365.339L328.605 365.696C323.087 375.053 312.748 382.75 299.283 388.143" fill="white"/>
</g>
<g style="mix-blend-mode:soft-light" opacity="0.4">
<path d="M282.694 393.25C271.915 395.66 260.9 396.858 249.855 396.821C213.319 396.821 182.301 384.696 171.069 365.786L172.408 365.393C182.533 362.464 190.748 360.321 195.908 358.857C197.319 367.911 220.908 375.089 249.837 375.089C278.766 375.089 302.373 367.946 303.801 358.857H304.087C309.194 360.321 317.337 362.428 327.391 365.339L328.605 365.696C323.087 375.053 312.748 382.75 299.283 388.143" fill="white"/>
</g>
<g style="mix-blend-mode:multiply" opacity="0.15">
<path fill-rule="evenodd" clip-rule="evenodd" d="M300.426 300.464V350.089C252.212 350.911 216.283 327.643 199.444 313.928V300.643L199.641 300.857C204.169 305.648 209.239 309.897 214.748 313.518C224.613 320.205 236.19 323.924 248.105 324.232H251.587C263.508 323.927 275.091 320.209 284.962 313.518C290.474 309.886 295.549 305.632 300.087 300.839L300.426 300.464Z" fill="#7C3830"/>
</g>
<path fill-rule="evenodd" clip-rule="evenodd" d="M251.152 93.1641L249.962 93.1781C230.373 92.821 194.194 97.6424 172.23 133.25C158.439 155.629 157.983 187.506 159.001 204.934L159.087 206.315C156.403 206.103 153.687 206.402 151.087 207.214C150.176 207.524 149.282 207.882 148.409 208.285C143.178 210.957 139.352 215.753 137.909 221.446C135.765 230.012 137.425 239.087 142.462 246.339C147.607 254.317 156.526 259.05 166.016 258.839L167.028 258.822C168.04 258.79 169.049 258.71 170.053 258.583L170.784 260.5C171.159 261.464 171.534 262.41 171.927 263.357C176.861 275.85 183.709 287.497 192.223 297.879L192.354 298.037V356.098L188.069 357.285C184.085 358.363 179.226 359.688 173.755 361.258L171.373 361.946L170.069 362.321C112.48 379.053 71.7302 398.464 45.4623 421.91C27.0201 438.376 7.7464 472.482 -8.92859 508.036H508.88C483.311 453.62 464.734 431.125 454.427 421.91C428.683 398.928 389.049 379.743 333.434 363.317L330.247 362.382C330.132 362.332 330.013 362.288 329.891 362.25L328.605 361.875C325.415 360.96 322.417 360.117 319.645 359.348L312.909 357.5L307.515 356.003L307.516 297.952C316.05 287.568 322.913 275.914 327.855 263.41C328.248 262.464 328.641 261.517 328.998 260.553L329.739 258.58C331.062 258.749 332.395 258.836 333.73 258.839C343.241 259.023 352.163 254.248 357.284 246.232L357.707 245.605C362.405 238.451 363.911 229.648 361.837 221.321C360.389 215.644 356.571 210.864 351.355 208.196C350.249 207.67 349.103 207.234 347.927 206.892C345.562 206.254 343.118 206.029 340.7 206.217C341.81 189.108 341.672 156.189 327.552 133.25C306.027 98.3545 270.902 93.0433 251.152 93.1641ZM269.785 377.57C290.132 375.225 302.072 369.286 306.105 363.035L311.034 364.392C313.25 364.995 315.69 365.662 318.34 366.399L323.087 367.732C317.694 374.535 309.194 380.375 298.177 384.803L297.9 384.917C296.821 385.417 296.055 386.427 295.873 387.616C295.675 388.904 296.194 390.197 297.228 390.99C298.261 391.784 299.644 391.951 300.837 391.428C314.192 386.063 324.337 378.648 330.398 369.848C384.808 385.824 424.936 405.127 449.677 427.214C465.576 441.411 482.459 470.211 497.431 500.893H2.49725C17.4298 470.292 34.3358 441.409 50.2659 427.214C74.4284 405.681 113.294 386.761 165.955 370.963L169.567 369.891C182.446 388.485 213.532 400.357 249.944 400.357C261.28 400.389 272.582 399.15 283.641 396.66C285.564 396.221 286.767 394.307 286.328 392.383C285.89 390.46 283.975 389.257 282.052 389.696C271.53 392.045 260.778 393.201 249.998 393.142C217.212 393.142 189.319 383.303 176.962 367.75L193.989 363.121C199.241 371.156 217.533 378.642 249.944 378.642C257.276 378.642 263.886 378.258 269.785 377.57ZM287.016 316.535C276.567 323.572 264.324 327.476 251.73 327.785H247.962C235.4 327.452 223.195 323.536 212.784 316.5C208.036 313.372 203.599 309.801 199.532 305.836L199.502 357.824C199.552 357.974 199.592 358.128 199.623 358.285C200.471 363.724 219.636 371.311 249.021 371.479L249.909 371.482C277.046 371.482 295.707 365.162 299.621 359.87C300.017 359.328 300.258 358.797 300.337 358.285L300.339 305.787C296.253 309.785 291.792 313.384 287.016 316.535ZM248.302 100.303L251.078 100.276C269.308 100.221 301.704 105.044 321.409 136.964C335.694 160.156 334.322 196.162 333.288 208.864L333.159 210.357V210.553L336.519 210.837H336.135L333.159 210.75C332.989 212.542 332.828 213.769 332.755 214.332L332.754 214.335C332.745 214.403 332.738 214.461 332.732 214.509C332.719 214.605 332.712 214.662 332.712 214.678V214.928C332.699 215.09 332.679 215.249 332.659 215.411C332.624 215.694 332.587 215.984 332.587 216.303C331.713 225.137 330.046 233.875 327.605 242.41C326.48 246.089 325.284 249.767 324.034 253.232L323.587 254.428C323.373 255.053 323.127 255.723 322.893 256.348L322.266 258C321.927 258.892 321.569 259.785 321.194 260.678C316.39 272.852 309.661 284.174 301.266 294.214L301.541 293.875C301.492 293.92 301.444 293.966 301.397 294.014C301.339 294.073 301.284 294.133 301.23 294.196C299.909 295.75 298.694 297.125 297.48 298.375L296.471 299.426C292.398 303.594 287.887 307.313 283.016 310.517L282.167 311.082L281.308 311.633C276.362 314.645 271.646 316.663 267.436 318.012C262.324 319.601 256.993 320.493 251.587 320.642H248.105C239.347 320.394 230.786 318.201 223.029 314.26C220.856 313.154 218.746 311.911 216.712 310.535C211.443 307.054 206.589 302.98 202.248 298.392C201.159 297.232 199.98 295.946 198.677 294.428C190.21 284.318 183.426 272.91 178.587 260.642C178.23 259.768 177.873 258.892 177.516 257.982C176.891 256.464 176.284 254.892 175.73 253.375L175.58 252.944L175.579 252.941L175.578 252.938L175.576 252.932C175.575 252.929 175.574 252.926 175.572 252.923C175.106 251.586 174.635 250.237 174.178 248.878L173.355 246.357C172.944 245.071 172.534 243.785 172.141 242.5C170.036 235.233 168.513 227.811 167.587 220.303C167.427 219.017 167.266 217.696 167.123 216.357C166.998 215.892 166.998 215.446 166.998 214.982C167.006 214.899 167.006 214.815 166.998 214.732L166.587 211.214L166.587 210.732C166.587 210.456 166.555 210.187 166.494 209.929C165.464 198.282 163.584 160.847 178.284 137C197.802 105.339 229.802 100.303 248.302 100.303ZM340.643 213.53L340.123 213.616L339.933 215.214L339.873 215.625C339.82 215.945 339.796 216.314 339.773 216.682L339.762 216.851C339.758 216.919 339.753 216.986 339.748 217.053C339.023 224.437 337.766 231.757 335.988 238.955C338.388 238.847 340.629 237.623 342.016 235.607C343.735 233.252 344.017 230.142 342.748 227.517C342.211 226.689 342.446 225.582 343.275 225.044C344.103 224.507 345.211 224.743 345.748 225.571C347.598 229.133 347.473 233.398 345.418 236.845C343.363 240.293 339.671 242.432 335.659 242.5C335.46 242.513 335.261 242.52 335.062 242.52L334.498 244.535C333.762 246.947 332.998 249.344 332.204 251.703C339.594 252.363 346.754 249.003 350.973 242.933L351.302 242.446C355.205 236.917 356.538 229.975 354.962 223.392C354.069 219.691 351.631 216.55 348.266 214.767C347.525 214.409 346.754 214.116 345.962 213.892C344.423 213.462 342.821 213.318 341.236 213.462L340.643 213.53ZM153.302 213.982C154.594 213.567 155.944 213.357 157.288 213.355L157.858 213.363C158.449 213.382 159.039 213.44 159.623 213.535L159.766 214.778C159.798 215.043 159.83 215.258 159.862 215.424L159.903 215.884C159.908 215.928 159.914 215.972 159.919 216.015C159.931 216.109 159.944 216.202 159.957 216.294C159.996 216.583 160.034 216.854 160.034 217.089C160.248 219.071 160.48 221.017 160.748 222.928C160.739 222.975 160.739 223.024 160.748 223.071C161.447 228.403 162.446 233.691 163.741 238.91C161.181 238.928 158.757 237.683 157.284 235.553C155.583 233.192 155.303 230.092 156.552 227.464C157.086 226.64 156.855 225.539 156.034 225C155.636 224.737 155.151 224.644 154.685 224.741C154.219 224.839 153.811 225.118 153.552 225.517C151.68 229.098 151.806 233.395 153.883 236.86C155.96 240.326 159.69 242.462 163.73 242.5C164.045 242.505 164.359 242.495 164.672 242.469L164.672 242.466L164.909 242.446C164.83 242.455 164.751 242.462 164.672 242.469C164.859 243.147 165.051 243.824 165.248 244.5C165.98 246.928 166.73 249.303 167.516 251.642C159.912 252.349 152.541 248.797 148.355 242.41L147.977 241.851C144.401 236.397 143.237 229.695 144.784 223.339C145.676 219.622 148.13 216.471 151.516 214.696C152.095 214.42 152.692 214.181 153.302 213.982Z" fill="#372168"/>
<path fill-rule="evenodd" clip-rule="evenodd" d="M430.837 432.821C424.296 427.042 417.324 421.77 409.98 417.053C409.444 416.705 408.764 416.67 408.194 416.96C407.625 417.251 407.254 417.822 407.221 418.46C407.188 419.098 407.498 419.705 408.034 420.053C415.224 424.672 422.053 429.83 428.462 435.482C428.785 435.775 429.204 435.94 429.641 435.946C430.154 435.945 430.642 435.724 430.98 435.339C431.635 434.604 431.571 433.477 430.837 432.821ZM164.909 242.446C164.83 242.455 164.751 242.462 164.672 242.469L164.672 242.466L164.909 242.446Z" fill="#372168"/>
<path d="M260.391 295.617C259.89 295.62 259.411 295.39 259.07 294.982C256.579 292.661 253.388 291.477 250.141 291.668C246.915 291.473 243.737 292.603 241.213 294.843C240.78 295.412 240.096 295.664 239.443 295.495C238.79 295.325 238.277 294.764 238.116 294.04C237.954 293.317 238.171 292.554 238.677 292.065C245.457 286.174 254.998 286.256 261.695 292.263C262.189 292.84 262.326 293.688 262.042 294.419C261.758 295.15 261.108 295.621 260.391 295.617Z" fill="#372168"/>
<g style="mix-blend-mode:multiply" opacity="0.15">
<path fill-rule="evenodd" clip-rule="evenodd" d="M220.497 245.119C220.497 256.019 212.502 264.856 202.64 264.856C192.778 264.856 184.783 256.019 184.783 245.119C184.783 234.219 192.778 225.382 202.64 225.382C212.502 225.382 220.497 234.219 220.497 245.119ZM316.926 245.119C316.926 256.019 308.931 264.856 299.069 264.856C289.207 264.856 281.212 256.019 281.212 245.119C281.212 234.219 289.207 225.382 299.069 225.382C308.931 225.382 316.926 234.219 316.926 245.119Z" fill="#FF1300"/>
</g>
<path fill-rule="evenodd" clip-rule="evenodd" d="M337.876 148.278C357.258 164.834 370.721 191.3 377.233 206.232C379.08 210.513 383.682 212.906 388.247 211.958C392.812 211.01 396.082 206.984 396.073 202.322C396.08 201.176 395.88 200.039 395.483 198.965C388.747 180.909 368.29 134.857 332.202 127.559C352.432 130.956 368.466 141.674 377.465 149.036C379.548 150.739 382.272 151.442 384.918 150.961C387.564 150.48 389.866 148.863 391.215 146.536C393.413 142.766 392.676 137.972 389.448 135.036C360.662 108.97 328.716 106.241 312.853 106.801C334.379 99.0606 356.101 105.758 368.43 111.25C371.068 112.407 374.078 112.363 376.681 111.13C379.284 109.897 381.225 107.596 382.001 104.822C383.286 100.268 381.178 95.4401 376.965 93.286C350.099 80.0236 326.623 81.4166 309.67 86.2833C318.367 79.113 328.905 76.5627 336.144 75.6967C341.033 75.1522 344.736 71.0267 344.751 66.1074C344.767 63.4983 343.722 60.9947 341.857 59.1701C339.992 57.3455 337.466 56.3562 334.858 56.4289C328.652 56.6615 323.038 57.7211 317.974 59.3633C325.524 55.0174 332.723 51.9876 338.073 50.036C343.094 48.1932 345.838 42.7833 344.358 37.6431C342.801 32.4019 337.437 29.2744 332.108 30.5003C306.054 35.9665 287.727 52.002 275.839 66.859C283.05 51.3771 292.624 37.3973 298.787 29.1074C300.359 27.0066 301.016 24.3601 300.609 21.768C300.202 19.1759 298.766 16.8579 296.626 15.3396C292.78 12.5871 287.514 12.9858 284.126 16.286C273.526 26.433 265.325 40.8256 259.265 54.6045C259.046 39.6943 258.306 26.5072 257.662 17.9824C257.321 12.3175 252.623 7.90077 246.948 7.911C244.007 7.90707 241.195 9.11156 239.169 11.2423C237.143 13.373 236.081 16.2426 236.233 19.1789C236.734 30.3921 237.477 48.3135 237.91 65.1738C230.961 46.6933 220.974 29.1771 214.894 19.2681C211.987 14.5259 205.886 12.8734 200.983 15.5003C198.466 16.8496 196.609 19.1674 195.84 21.9178C195.072 24.6683 195.459 27.6132 196.912 30.0717C204.841 43.5633 218.796 68.8177 223.156 86.3835C209.288 59.7546 184.702 38.2091 171.912 28.161C167.364 24.5697 160.813 25.1078 156.912 29.3931C154.812 31.7005 153.785 34.7878 154.085 37.8932C154.384 40.9986 155.982 43.8328 158.483 45.6967C167.673 52.5803 181.51 63.991 192.845 77.6976C166.552 62.6994 143.804 56.9795 131.555 54.8217C126.145 53.89 120.92 57.2465 119.519 62.5539C118.791 65.3045 119.2 68.2325 120.654 70.6781C122.109 73.1237 124.486 74.8809 127.251 75.5539C140.563 78.7756 163.803 85.2283 181.101 94.5211C151.775 88.8106 122.934 92.6218 107.394 95.7324C104.414 96.3209 101.834 98.1689 100.318 100.801C98.8019 103.433 98.4975 106.592 99.4833 109.465C101.118 114.319 106.012 117.29 111.073 116.5C121.246 114.904 139.069 112.564 157.599 112.263C129.827 118.352 104.875 142.165 94.4833 153.25C91.4176 156.539 90.9763 161.489 93.4119 165.268C94.9979 167.736 97.6042 169.366 100.517 169.712C103.431 170.057 106.346 169.082 108.465 167.054C121.472 154.601 147.828 132.362 174.981 126.659C150.535 137.706 131.922 159.851 123.769 170.84C121.038 174.507 121.3 179.598 124.394 182.965C126.249 185.013 128.901 186.158 131.664 186.103C134.428 186.048 137.032 184.799 138.805 182.679C145.602 174.441 153.312 167 161.787 160.5C161.898 159.808 162.015 159.117 162.137 158.427C162.033 159.14 161.94 159.855 161.858 160.572C159.84 192.482 164.323 210.715 164.323 210.715C164.323 210.715 175.144 137.09 251.215 138.697C328.626 140.25 338.073 210.625 338.073 210.625C338.073 210.625 344.805 183.518 337.876 148.304C337.876 148.295 337.876 148.286 337.876 148.278ZM245.571 96.0833L245.519 96.087L245.519 96.0896C243.317 96.2516 241.119 96.4645 238.927 96.7279L238.861 96.7358C235.384 97.1554 231.922 97.7022 228.483 98.3753C227.073 98.6431 225.626 98.9289 224.144 99.2681C219.204 100.377 214.338 101.79 209.573 103.5L208.787 103.786L208.786 103.783C205.399 105.019 202.085 106.445 198.858 108.054C195.265 109.872 191.792 111.929 188.465 114.215L188.426 114.208C183.398 117.693 178.895 121.88 175.055 126.643L175.038 126.647C170.172 132.758 166.621 139.809 164.608 147.357C164.405 148.11 164.209 148.864 164.019 149.62C164.227 148.886 164.447 148.156 164.68 147.429C166.695 139.872 170.252 132.813 175.126 126.697C178.99 121.905 183.525 117.695 188.59 114.197C191.882 111.924 195.331 109.889 198.912 108.107L199.305 107.929C202.402 106.384 205.586 105.018 208.84 103.84L209.626 103.554C214.391 101.844 219.258 100.43 224.198 99.3217C225.68 98.9824 227.126 98.6967 228.537 98.4288C232.055 97.7324 235.394 97.2324 238.251 96.8753C241.102 96.519 243.561 96.2871 245.558 96.1442L245.571 96.0833ZM266.432 97.1766C266.437 97.1774 266.442 97.1781 266.448 97.1789C269.787 97.661 273.501 98.286 277.448 99.1788C278.769 99.4646 280.126 99.7681 281.483 100.125C281.49 100.127 281.496 100.129 281.503 100.13L281.549 100.093L281.394 100.054C280.037 99.6967 278.68 99.3931 277.358 99.1074L277.369 99.0777C273.755 98.2738 270.109 97.6143 266.441 97.1011L266.432 97.1766ZM306.312 109.621L307.965 110.536L309.291 111.318L309.269 111.304L307.876 110.482L306.316 109.619L306.312 109.621ZM327.363 126.899C327.652 127.263 327.936 127.631 328.216 128.002C327.938 127.631 327.654 127.263 327.367 126.9L327.363 126.899Z" fill="#E57F4C"/>
<path fill-rule="evenodd" clip-rule="evenodd" d="M246.983 4.33888C254.523 4.37745 260.755 10.2277 261.269 17.7496L261.547 22.1604C261.847 27.1805 262.151 33.1743 262.386 39.8066C267.633 30.1659 273.988 20.9267 281.555 13.6782C286.169 9.25579 293.265 8.70994 298.501 12.3746C301.437 14.4402 303.413 17.6043 303.981 21.1486C304.521 24.5155 303.747 27.9541 301.831 30.7586L301.519 31.196L300.366 32.7632C297.222 37.0718 293.533 42.4005 289.82 48.3782C299.985 39.1347 313.209 31.1134 330.186 27.3282L331.376 27.071C338.468 25.4127 345.626 29.5564 347.719 36.5317C349.813 43.507 346.119 50.9074 339.287 53.4282L339.205 53.4559C341.08 54.0624 342.811 55.0958 344.251 56.4996C346.718 58.8823 348.167 62.1181 348.311 65.5308L348.323 66.071C348.295 72.7698 343.287 78.3964 336.644 79.2053C349.223 79.5294 363.331 82.487 378.412 89.946C384.101 92.7768 387.027 99.1773 385.496 105.302L385.376 105.75C383.723 111.557 378.414 115.56 372.376 115.553L372.448 115.607C370.54 115.607 368.654 115.205 366.912 114.428C364.269 113.258 361.107 111.996 357.551 110.841C368.712 115.254 380.515 122.037 391.894 132.339C395.513 135.607 396.957 140.65 395.618 145.338C394.279 150.027 390.389 153.546 385.59 154.41C384.826 154.565 384.049 154.654 383.269 154.678C380.328 154.677 377.477 153.661 375.198 151.803C373.99 150.813 372.601 149.722 371.043 148.572C385.346 165.204 394.412 185.94 398.823 197.75C400.96 203.492 398.921 209.952 393.876 213.428C391.646 214.969 388.998 215.791 386.287 215.785C385.042 215.79 383.803 215.616 382.608 215.267C378.75 214.174 375.585 211.408 373.983 207.732L373.342 206.269C367.808 193.765 357.436 173.535 342.965 158.143C347.003 188.508 341.669 210.596 341.412 211.625C340.992 213.281 339.456 214.408 337.75 214.312C336.138 214.222 334.801 213.065 334.461 211.51L334.233 210.095C332.65 200.954 319.99 143.764 251.001 142.303C179.001 140.767 168.144 208.375 167.715 211.285C167.47 212.975 166.063 214.254 164.358 214.339L164.251 214.214C162.706 214.213 161.35 213.221 160.867 211.776L160.787 211.5L160.778 211.462C160.522 210.372 156.932 195.065 157.824 168.342C151.945 173.417 146.498 178.977 141.537 184.964C139.107 187.873 135.54 189.591 131.751 189.678H131.465C126.5 189.673 121.96 186.874 119.725 182.439C117.491 178.004 117.943 172.69 120.894 168.696L121.823 167.449C126.472 161.269 133.428 152.922 142.244 144.772C129.308 152.999 118.197 162.724 110.948 169.607C108.453 171.996 105.134 173.333 101.68 173.339C101.144 173.339 100.608 173.339 100.073 173.25C95.0673 172.647 90.8244 169.285 89.094 164.55C87.3636 159.815 88.4388 154.509 91.8762 150.821C103.231 138.565 116.258 127.973 130.573 119.357C131.902 118.589 133.225 117.858 134.541 117.163L132.521 117.358C123.864 118.216 116.515 119.252 111.698 120C110.972 120.12 110.237 120.179 109.501 120.178C102.211 120.215 96.0932 114.691 95.3889 107.434C94.6992 100.329 99.4221 93.855 106.342 92.306L106.787 92.2139C118.954 89.8092 137.18 87.2915 157.309 88.1682L155.068 87.3811C143.887 83.5143 133.156 80.6827 126.34 79.0353C119.009 77.146 114.456 69.8303 115.997 62.4182C117.539 55.0061 124.632 50.1128 132.108 51.3032L133.4 51.5366C143.518 53.4109 158.543 57.2643 176.121 65.1758C168.925 58.3781 161.817 52.6754 156.323 48.5532C152.176 45.3633 150.046 40.2034 150.735 35.0172C151.424 29.831 154.827 25.4064 159.663 23.4101C164.499 21.4138 170.033 22.149 174.18 25.3389C183.185 32.4221 196.05 43.5566 207.799 57.4696C203.93 49.6566 199.263 41.0614 193.876 31.8746C191.941 28.5732 191.431 24.6263 192.465 20.9415C193.499 17.2568 195.988 14.1512 199.358 12.3389C205.926 8.83031 214.09 11.0455 217.983 17.3925L218.97 19.0116C223.327 26.2101 228.742 35.7457 233.788 46.3111L233.42 36.4857C233.17 30.1346 232.918 24.2609 232.698 19.3389C232.502 15.4279 233.92 11.608 236.621 8.77238C239.321 5.93674 243.067 4.33399 246.983 4.33888ZM335.126 132.053C337.677 136.541 339.645 141.335 340.983 146.321H341.001C360.644 163.5 374.18 190.303 380.537 204.875C381.285 206.586 382.758 207.875 384.554 208.39C386.35 208.904 388.281 208.591 389.823 207.535C391.509 206.366 392.516 204.445 392.519 202.392C392.522 201.654 392.389 200.922 392.126 200.232C373.948 151.482 349.912 136.517 335.126 132.053ZM250.985 99.4466L251.674 99.4565C252.663 99.4804 254.862 99.5576 257.912 99.8032L258.817 99.8818C260.96 100.077 263.329 100.352 265.876 100.696C265.94 100.703 266.005 100.707 266.069 100.705C270.247 101.287 274.394 102.067 278.494 103.041L280.501 103.535L280.58 103.551C285.71 104.842 290.744 106.489 295.644 108.482L295.849 108.565L296.062 108.63L296.52 108.821L297.612 109.294C298.915 109.864 300.112 110.418 301.251 110.982L301.483 111.089L301.983 111.332C302.834 111.758 303.674 112.195 304.501 112.642L305.151 112.984L305.715 113.303L306.287 113.642L307.43 114.285L308.805 115.16C314.778 118.837 320.08 123.505 324.483 128.964L324.157 128.571C324.265 128.772 324.392 128.963 324.537 129.142L325.258 130.07C325.731 130.698 326.192 131.345 326.644 132C330.047 136.956 332.577 142.458 334.126 148.267L334.376 149.232C334.414 149.371 334.461 149.507 334.52 149.637C337.268 164.055 338.079 178.776 336.93 193.41C328.537 171.625 306.573 136.196 251.215 135.017H248.787C196.707 135.017 174.674 169.781 166.099 191.911L165.59 193.25C164.768 182.392 164.727 171.489 165.465 160.625C165.527 160.06 165.596 159.496 165.676 158.935C166.118 156.419 166.641 153.919 167.244 151.438C167.388 150.926 167.539 150.417 167.698 149.91L168.441 147.223C170.368 140.521 173.597 134.262 177.948 128.803C181.606 124.285 185.893 120.316 190.68 117.017L190.194 117.364C190.33 117.293 190.463 117.213 190.59 117.125C196.839 112.848 203.623 109.414 210.769 106.91L210.858 106.877L210.876 106.875C215.514 105.219 220.249 103.847 225.055 102.767C226.483 102.446 227.894 102.16 229.269 101.892C232.376 101.285 235.555 100.785 238.733 100.375C241.015 100.093 243.2 99.8805 245.087 99.7359L245.578 99.6996L245.733 99.696C248.653 99.4786 250.532 99.4503 250.985 99.4466ZM164.93 136.107C147.215 147.321 133.733 163.339 126.644 172.91C124.949 175.217 125.114 178.398 127.037 180.517C128.21 181.785 129.864 182.498 131.59 182.482C133.326 182.458 134.964 181.675 136.073 180.339C142.722 172.292 150.213 164.981 158.419 158.529C158.871 155.026 159.628 151.568 160.677 148.194C160.834 147.581 160.996 146.968 161.162 146.357C162.094 142.886 163.331 139.503 164.858 136.25L164.93 136.107ZM158.273 115.827L160.463 115.806C166.904 115.77 173.388 115.996 179.589 116.608C177.267 118.695 175.095 120.944 173.09 123.339C146.344 129.435 120.78 150.481 107.143 163.343L105.736 164.682C104.186 166.076 102.034 166.612 99.9981 166.089C97.8353 165.533 96.1335 163.865 95.5338 161.714C94.934 159.563 95.5275 157.255 97.0905 155.66L97.7343 154.977C107.009 145.191 131.462 121.814 158.273 115.827ZM314.448 110.375C319.938 114.011 324.874 118.422 329.103 123.469C330.04 123.588 330.967 123.732 331.884 123.898C353.81 127.356 371.104 139.217 379.715 146.267C380.992 147.311 382.662 147.742 384.285 147.447C385.791 147.172 387.115 146.297 387.958 145.031L388.144 144.732C389.481 142.419 389.02 139.486 387.037 137.696C367.22 119.649 341.246 109.873 314.448 110.375ZM148.68 95.1782L148.662 95.0353C159.18 94.917 169.661 95.911 179.934 97.9909C185.07 100.788 189.609 103.837 193.057 107.113C191.194 108.178 189.37 109.31 187.589 110.507C162.361 106.585 131.234 109.96 113.207 112.645L110.644 113.035C107.979 113.475 105.3 112.335 103.77 110.109C102.24 107.883 102.135 104.973 103.501 102.642C104.487 100.897 106.192 99.6753 108.162 99.3032C121.501 96.6125 135.072 95.2309 148.68 95.1782ZM187.589 110.507L186.555 111.214C186.898 110.976 187.243 110.74 187.589 110.507ZM289.59 98.7317C292.614 99.696 295.537 100.761 298.358 101.928C299.985 102.596 301.598 103.303 303.183 104.033L304.352 103.858C306.061 103.621 308.684 103.328 312.041 103.173C318.92 100.779 326.172 99.5804 333.483 99.6424C346.027 99.8802 358.389 102.688 369.805 107.892C371.506 108.67 373.461 108.67 375.162 107.892C376.716 107.171 377.905 105.851 378.463 104.242L378.573 103.892C379.438 100.941 378.061 97.794 375.305 96.4282C334.59 76.2853 302.376 90.8567 289.59 98.7317ZM129.68 58.2316H129.733C130.11 58.2292 130.487 58.2591 130.858 58.321C143.626 60.59 165.439 66.2608 190.53 80.511C195.972 87.1601 200.769 94.3284 204.063 101.745C202.563 102.362 201.104 102.999 199.698 103.66C185.369 88.4108 151.896 78.0495 130.888 72.7942L128.019 72.0889C126.185 71.6437 124.609 70.4769 123.647 68.853C122.686 67.2292 122.421 65.2859 122.912 63.4639C123.759 60.4124 126.513 58.2827 129.68 58.2316ZM165.073 29.3745C162.967 29.365 160.956 30.2474 159.537 31.8032C158.1 33.3473 157.403 35.4381 157.626 37.5353C157.796 39.6692 158.884 41.6242 160.608 42.8925L161.97 43.9225C176.57 55.0456 200.506 75.7831 210.787 99.3389C214.034 98.2468 217.448 97.2734 220.921 96.3703C221.018 94.1342 220.668 91.342 219.896 88.0546L219.404 87.119C205.406 60.9542 180.679 39.7017 169.608 30.9996C168.32 29.9666 166.724 29.3946 165.073 29.3745ZM332.894 34.0353L333.243 33.9601C336.619 33.324 339.967 35.3222 340.983 38.6425C341.925 41.9776 340.145 45.4764 336.894 46.6782C328.993 49.5609 322.113 52.7951 316.12 56.2296C292.243 64.392 280.08 84.8914 275.813 93.7317L275.216 95.0031C273.606 94.6824 271.988 94.3885 270.365 94.1204L270.5 93.3561C271.946 85.491 274.794 77.415 278.317 69.6478C289.839 55.1324 307.657 39.3268 332.894 34.0353ZM205.93 17.821C203.453 17.8329 201.171 19.1659 199.944 21.3175C198.717 23.4692 198.732 26.112 199.983 28.2496L201.395 30.6658C211.552 48.1473 222.383 69.0562 226.417 84.748C228.036 87.8671 229.516 91.0576 230.824 94.3103C232.162 94.0772 233.452 93.8717 234.686 93.6901L234.708 91.567C234.764 84.3152 234.629 75.3582 234.393 65.9807C227.345 47.4208 217.24 29.9155 211.84 21.1246C210.582 19.0675 208.341 17.8154 205.93 17.821ZM247.105 11.4817L247.362 11.4846C251.074 11.6059 254.119 14.5385 254.34 18.2853C256.07 42.9753 256.279 67.7483 254.965 92.4639C253.589 92.3799 252.553 92.3453 251.915 92.331L251.041 92.3224C250.567 92.3288 248.913 92.3626 246.371 92.5227L244.556 92.6461C243.721 92.7072 242.84 92.7808 241.93 92.8746C242.115 75.3401 241.121 47.3436 240.294 27.554L239.93 19.071C239.817 17.0874 240.535 15.1462 241.912 13.7139C243.267 12.2821 245.155 11.4742 247.126 11.4817L247.105 11.4817ZM334.983 60.0353C329.151 60.2505 323.876 61.2312 319.119 62.7537C303.84 71.6247 294.977 81.7968 289.846 90.3894C294.567 87.8763 300.709 85.1261 308.022 82.9779C317.282 75.6473 328.263 73.0678 335.733 72.1782C338.673 71.7991 340.907 69.3806 341.08 66.452L341.09 66.1246C341.123 64.4669 340.478 62.8675 339.305 61.696C338.149 60.5797 336.589 59.9803 334.983 60.0353ZM262.76 55.4511C268.64 42.171 276.507 28.4255 286.555 18.8032C288.698 16.7357 292.005 16.4738 294.448 18.1782C295.807 19.1387 296.721 20.6071 296.983 22.2508C297.246 23.8946 296.834 25.5745 295.84 26.9103L295.357 27.5627C287.07 38.7934 274.667 57.4765 267.67 76.9839C265.557 80.8646 263.919 84.3777 262.695 87.2487L262.159 88.5272C262.761 77.3572 262.889 66.0064 262.76 55.4511Z" fill="#372168"/>
<path fill-rule="evenodd" clip-rule="evenodd" d="M302.948 107.875L302.769 107.786C300.858 106.839 298.93 106 297.001 105.178C291.924 103.114 286.709 101.408 281.394 100.071C280.037 99.7141 278.68 99.4105 277.358 99.1248C273.412 98.232 269.698 97.607 266.358 97.1248C263.019 96.6427 260.501 96.3927 258.198 96.2141C253.769 95.8391 251.055 95.8391 251.055 95.8391C251.055 95.8391 249.001 95.8391 245.483 96.0891C243.483 96.232 241.019 96.4641 238.162 96.8212C235.305 97.1784 231.965 97.6784 228.448 98.3748C227.037 98.6427 225.59 98.9284 224.108 99.2677C219.169 100.376 214.302 101.79 209.537 103.5L208.751 103.786C205.497 104.964 202.313 106.33 199.215 107.875C204.09 91.3927 225.448 78.9998 251.001 78.9998C276.555 78.9998 298.073 91.3927 302.948 107.875Z" fill="#FF8F8F"/>
<path fill-rule="evenodd" clip-rule="evenodd" d="M251.747 33.3371C251.456 32.9617 251.027 32.7181 250.555 32.6602C248.564 32.2989 246.517 32.4028 244.573 32.9637C243.778 33.2779 243.317 34.1115 243.473 34.9519C243.63 35.7923 244.361 36.4037 245.216 36.4102C245.41 36.414 245.603 36.3838 245.787 36.3209C247.205 35.9919 248.676 35.9555 250.108 36.2137C250.58 36.2743 251.056 36.1444 251.431 35.8528C251.807 35.5612 252.05 35.132 252.108 34.6602C252.169 34.1887 252.039 33.7125 251.747 33.3371ZM317.305 43.8744C318.839 45.203 320.059 46.8559 320.876 48.7137C321.084 49.142 321.113 49.6357 320.955 50.085C320.797 50.5343 320.467 50.9021 320.037 51.1066C319.783 51.2368 319.501 51.3042 319.216 51.303C318.529 51.3011 317.904 50.9053 317.608 50.2851C317.035 48.9415 316.197 47.7269 315.144 46.7137C314.41 46.102 314.287 45.0208 314.866 44.2604C315.445 43.5 316.52 43.3299 317.305 43.8744ZM267.716 52.5351C265.992 51.4799 264.049 50.8325 262.037 50.6423C261.051 50.6423 260.251 51.4418 260.251 52.428C260.251 53.4142 261.051 54.2137 262.037 54.2137C263.48 54.4199 264.865 54.9181 266.108 55.678C266.306 55.7846 266.521 55.8527 266.742 55.8794L266.917 55.8885L267.061 55.8819C267.794 55.8024 268.412 55.2762 268.598 54.5484C268.8 53.7544 268.437 52.9243 267.716 52.5351ZM234.628 56.8744C235.096 57.3299 235.277 58.004 235.102 58.6326C234.927 59.2613 234.423 59.7442 233.787 59.8923C232.535 60.168 231.345 60.668 230.274 61.3665L229.823 61.678C229.508 61.9301 229.118 62.0685 228.716 62.0709C228.203 62.0702 227.715 61.8491 227.376 61.4637C226.741 60.7383 226.796 59.6395 227.501 58.9816C228.919 57.8731 230.543 57.0607 232.277 56.59L232.858 56.4459C233.482 56.2546 234.161 56.4189 234.628 56.8744ZM197.134 61.4064C197.291 60.9571 197.263 60.4634 197.055 60.0351C196.629 59.1496 195.568 58.7745 194.68 59.1959C192.813 60.0055 191.152 61.2263 189.823 62.7673C189.427 63.3083 189.368 64.025 189.669 64.6235C189.97 65.222 190.581 65.6016 191.251 65.6066C191.804 65.5913 192.318 65.3209 192.644 64.8744C193.651 63.8189 194.868 62.9856 196.216 62.428C196.646 62.2235 196.976 61.8557 197.134 61.4064ZM161.144 61.2316C161.854 61.9219 161.87 63.0572 161.18 63.7673C159.389 65.5143 158.101 67.7097 157.448 70.1244C157.278 70.956 156.546 71.5532 155.698 71.553H155.358C154.402 71.3721 153.767 70.4589 153.93 69.4994C154.702 66.3773 156.321 63.5287 158.608 61.2673C159.299 60.5572 160.434 60.5412 161.144 61.2316ZM310.626 73.8923C309.726 72.082 308.433 70.4957 306.841 69.2494C306.025 68.7671 304.974 69.0062 304.447 69.794C303.921 70.5819 304.101 71.644 304.858 72.2137C305.958 73.1672 306.862 74.3256 307.519 75.6244C307.83 76.1929 308.425 76.5483 309.073 76.553C309.374 76.554 309.67 76.4738 309.93 76.3209C310.344 76.0913 310.651 75.7064 310.781 75.2509C310.912 74.7954 310.856 74.3066 310.626 73.8923ZM306.519 106.857C301.037 88.6423 277.948 75.428 251.162 75.428C224.376 75.428 201.162 88.6423 195.805 106.857C195.404 108.223 195.853 109.696 196.948 110.607C197.588 111.145 198.397 111.442 199.233 111.446C199.835 111.463 200.43 111.328 200.966 111.053C203.946 109.561 207.011 108.243 210.144 107.107L210.716 106.91H210.894C215.532 105.254 220.267 103.883 225.073 102.803C226.501 102.482 227.912 102.196 229.287 101.928C232.394 101.321 235.573 100.821 238.751 100.41C241.358 100.089 243.841 99.8566 245.894 99.7137L246.374 99.679C248.253 99.5471 249.654 99.496 250.462 99.4762L251.359 99.4649C251.816 99.4711 253.711 99.5082 256.62 99.7116L258.073 99.8209C260.448 100.017 263.126 100.321 266.037 100.714C269.608 101.232 273.287 101.892 276.751 102.66C278.019 102.946 279.323 103.249 280.662 103.589C285.808 104.879 290.856 106.532 295.769 108.535C297.841 109.392 299.662 110.214 301.323 111.053H301.466C302.672 111.672 304.124 111.554 305.216 110.749C306.427 109.856 306.948 108.299 306.519 106.857ZM165.341 110.249C166.32 110.316 167.062 111.162 167.001 112.142C166.857 113.59 166.996 115.052 167.412 116.446C167.796 117.353 167.372 118.4 166.466 118.785C166.244 118.875 166.008 118.924 165.769 118.928C165.067 118.927 164.432 118.514 164.144 117.874C163.469 115.97 163.231 113.937 163.448 111.928C163.475 111.454 163.69 111.011 164.046 110.696C164.401 110.381 164.867 110.22 165.341 110.249ZM250.18 118.857C251.166 118.857 251.966 119.656 251.966 120.642L251.959 122.096C251.917 126.259 251.594 136.165 249.144 139.499C248.803 139.966 248.258 140.239 247.68 140.232C247.308 140.229 246.946 140.111 246.644 139.892C245.91 139.362 245.697 138.377 246.116 137.6L246.233 137.41C247.858 135.142 248.43 125.928 248.394 120.642C248.394 119.727 249.083 118.972 249.972 118.869L250.18 118.857ZM234.555 129.232C234.87 132.423 235.961 135.488 237.733 138.16C238.159 138.699 238.238 139.433 237.937 140.05C237.637 140.667 237.009 141.057 236.323 141.053L236.287 141.178C235.744 141.175 235.231 140.926 234.894 140.499C232.847 137.513 231.537 134.087 231.066 130.504L230.983 129.785C230.831 128.799 231.506 127.876 232.492 127.723C233.479 127.57 234.402 128.245 234.555 129.232ZM111.68 138.982C111.396 138.407 110.827 138.028 110.188 137.987C109.549 137.946 108.936 138.249 108.581 138.782C108.226 139.315 108.182 139.997 108.466 140.571C109.278 142.426 110.499 144.075 112.037 145.392C112.338 145.611 112.7 145.729 113.073 145.732V145.767C113.845 145.775 114.534 145.286 114.782 144.555C115.03 143.824 114.78 143.016 114.162 142.553C113.089 141.554 112.242 140.336 111.68 138.982ZM151.698 153.482C152.268 154.832 153.113 156.048 154.18 157.053C154.797 157.516 155.048 158.324 154.8 159.055C154.552 159.786 153.862 160.275 153.091 160.267V160.232C152.718 160.229 152.356 160.111 152.055 159.892C150.517 158.574 149.297 156.926 148.483 155.071C148.045 154.183 148.408 153.108 149.296 152.669C150.183 152.23 151.259 152.594 151.698 153.482ZM375.078 171.552C375.949 171.973 376.326 173.01 375.93 173.892C374.923 175.646 373.531 177.148 371.858 178.285C371.544 178.521 371.162 178.646 370.769 178.642C370.01 178.632 369.34 178.144 369.099 177.424C368.858 176.705 369.098 175.911 369.698 175.446C370.892 174.611 371.916 173.557 372.716 172.339C373.16 171.48 374.208 171.132 375.078 171.552ZM268.305 131.303C268.391 130.665 268.13 130.03 267.621 129.636C267.111 129.242 266.431 129.151 265.835 129.395C265.239 129.639 264.82 130.183 264.733 130.821C264.47 133.6 263.382 136.236 261.608 138.392C261.051 139.206 261.259 140.317 262.073 140.874C262.368 141.073 262.717 141.179 263.073 141.178C263.679 141.191 264.251 140.895 264.591 140.392L264.997 139.863C266.842 137.36 267.986 134.405 268.305 131.303ZM368.662 127.107C368.662 126.12 367.862 125.321 366.876 125.321C365.89 125.321 365.091 126.12 365.091 127.107C364.884 128.549 364.386 129.935 363.626 131.178C363.398 131.595 363.345 132.085 363.479 132.541C363.613 132.997 363.923 133.38 364.341 133.607C364.604 133.749 364.899 133.822 365.198 133.821C365.872 133.805 366.479 133.412 366.769 132.803C367.828 131.074 368.476 129.125 368.662 127.107ZM125.709 99.6673C126.299 99.9199 126.71 100.469 126.787 101.107C126.895 102.553 127.296 103.963 127.966 105.249C128.503 106.069 128.28 107.169 127.466 107.714C127.167 107.922 126.812 108.034 126.448 108.035C125.87 108.028 125.331 107.742 125.001 107.267C123.977 105.518 123.366 103.557 123.216 101.535C123.139 100.897 123.409 100.267 123.923 99.8815C124.437 99.4962 125.118 99.4146 125.709 99.6673ZM206.823 100.66C214.983 89.8209 231.948 82.5709 251.019 82.5709C270.091 82.5709 287.055 89.8209 295.233 100.678C290.975 99.0788 286.629 97.7254 282.216 96.6244L281.161 96.353C280.112 96.091 279.077 95.8566 278.073 95.6423L276.247 95.2434C273.183 94.5981 270.016 94.05 266.787 93.5887C263.769 93.178 260.93 92.8566 258.412 92.6601C255.438 92.4016 253.222 92.3132 252.025 92.283L250.949 92.2688C250.458 92.2762 248.742 92.317 246.162 92.5257L245.216 92.6066C243.568 92.7137 241.73 92.8811 239.724 93.1013L237.662 93.3387C234.341 93.7673 230.983 94.303 227.751 94.928C226.305 95.2137 224.805 95.5173 223.287 95.8566C218.259 96.9875 213.304 98.4186 208.448 100.142H208.233L207.466 100.428L206.823 100.66ZM346.537 91.0887C346.886 93.0823 346.77 95.1295 346.198 97.0709C346.013 97.8556 345.325 98.419 344.519 98.4459C343.965 98.4608 343.435 98.2174 343.086 97.7873C342.736 97.3571 342.606 96.7889 342.733 96.2494C343.133 94.846 343.249 93.3767 343.073 91.928C342.861 90.9723 343.459 90.0246 344.412 89.803C345.351 89.5881 346.291 90.1571 346.537 91.0887Z" fill="#372168"/>
<path d="M255.533 284.321H245.98C244.993 284.321 244.194 283.522 244.194 282.536C244.194 281.549 244.993 280.75 245.98 280.75H255.533C256.519 280.75 257.319 281.549 257.319 282.536C257.319 283.522 256.519 284.321 255.533 284.321Z" fill="#372168"/>
<path fill-rule="evenodd" clip-rule="evenodd" d="M275.212 249.339C274.709 262.487 263.905 272.886 250.747 272.886C237.59 272.886 226.786 262.487 226.283 249.339L275.212 249.339Z" fill="#FF6666"/>
<path fill-rule="evenodd" clip-rule="evenodd" d="M223.158 249.339C223.432 264.312 235.774 276.239 250.747 276C265.721 276.239 278.063 264.312 278.337 249.339C278.337 247.613 276.938 246.214 275.212 246.214H226.283C224.557 246.214 223.158 247.613 223.158 249.339ZM250.747 270.095C240.378 270.095 231.496 262.67 229.658 252.464H271.837C269.999 262.67 261.117 270.095 250.747 270.095Z" fill="#372168"/>
<path fill-rule="evenodd" clip-rule="evenodd" d="M267.694 266.036C263.153 270.527 256.99 272.993 250.605 272.875C244.857 272.983 239.279 270.924 234.98 267.107L235.122 265.804C235.122 265.804 241.015 255.25 250.444 261.964L250.89 261.804C252.061 261.336 253.205 260.805 254.319 260.214C261.747 256.429 266.712 264.679 266.712 264.679L267.694 266.036Z" fill="#FF7D7D"/>
<path fill-rule="evenodd" clip-rule="evenodd" d="M232.854 269.393C237.735 273.739 244.069 276.097 250.604 276C257.843 276.113 264.819 273.292 269.944 268.178C270.964 267.087 271.069 265.425 270.194 264.214L269.283 262.946C266.979 259.214 260.712 253.428 252.854 257.428C252.176 257.786 251.462 258.143 250.729 258.464C248.067 256.81 244.871 256.241 241.801 256.875C237.821 258.019 234.444 260.671 232.39 264.268C232.186 264.637 232.058 265.044 232.015 265.464L231.872 266.768C231.773 267.748 232.136 268.719 232.854 269.393ZM250.604 269.696C246.366 269.768 242.21 268.52 238.712 266.125C239.815 264.624 241.375 263.521 243.158 262.982C245.117 262.664 247.116 263.226 248.622 264.518C249.478 265.116 250.572 265.256 251.551 264.893L251.997 264.714C253.287 264.205 254.54 263.609 255.747 262.929C259.515 261.018 262.426 264.054 263.551 265.536C259.802 268.291 255.257 269.752 250.604 269.696Z" fill="#372168"/>
<path d="M248.765 263.786C249.717 262.789 250.827 261.956 252.051 261.321L248.765 263.786Z" fill="#F9F9F9"/>
<path d="M248.765 266.911C247.914 266.913 247.1 266.564 246.515 265.947C245.301 264.727 245.301 262.755 246.515 261.536C247.747 260.241 249.206 259.182 250.819 258.411C251.855 257.993 253.036 258.16 253.917 258.849C254.797 259.538 255.243 260.644 255.086 261.751C254.93 262.857 254.195 263.796 253.158 264.214C252.306 264.692 251.529 265.294 250.854 266C250.297 266.554 249.551 266.879 248.765 266.911Z" fill="#372168"/>
<path d="M250.806 241.583C246.906 241.635 243.239 239.732 241.038 236.512C240.101 235.062 240.517 233.127 241.967 232.19C243.417 231.253 245.351 231.669 246.288 233.119C247.375 234.533 249.063 235.354 250.846 235.336C252.629 235.319 254.301 234.465 255.36 233.03C256.257 231.55 258.184 231.079 259.663 231.976C261.143 232.873 261.614 234.8 260.717 236.28C258.556 239.646 254.806 241.653 250.806 241.583Z" fill="#372168"/>
<path d="M295.254 218.732C294.156 218.732 293.139 218.155 292.575 217.214C291.516 215.779 289.845 214.925 288.062 214.908C286.278 214.89 284.59 215.711 283.504 217.125C282.931 218.129 281.851 218.735 280.695 218.7C279.54 218.665 278.498 217.996 277.987 216.959C277.475 215.922 277.578 214.688 278.254 213.75C280.508 210.531 284.207 208.633 288.136 208.679C292.066 208.726 295.719 210.71 297.896 213.982C298.471 214.947 298.487 216.146 297.938 217.125C297.389 218.105 296.359 218.718 295.236 218.732H295.254Z" fill="#372168"/>
<path d="M222.027 218.643C220.937 218.647 219.926 218.077 219.366 217.143C218.307 215.708 216.636 214.854 214.852 214.836C213.069 214.818 211.381 215.64 210.294 217.053C209.688 217.991 208.628 218.534 207.513 218.479C206.398 218.423 205.397 217.776 204.888 216.782C204.379 215.788 204.438 214.598 205.044 213.661C207.304 210.449 211.001 208.557 214.927 208.604C218.853 208.65 222.505 210.629 224.687 213.893C225.12 214.6 225.251 215.45 225.054 216.255C224.856 217.06 224.345 217.752 223.634 218.178C223.153 218.482 222.596 218.643 222.027 218.643Z" fill="#372168"/>
<path d="M303.729 200.893C302.961 200.897 302.214 200.646 301.604 200.179C301.39 200.036 288.354 190.643 273.337 195.429C272.107 195.868 270.735 195.6 269.76 194.731C268.785 193.862 268.362 192.531 268.657 191.258C268.952 189.986 269.918 188.976 271.176 188.625C289.801 182.679 305.212 193.982 305.872 194.464C307.102 195.387 307.604 196.993 307.118 198.451C306.631 199.909 305.267 200.893 303.729 200.893Z" fill="#372168"/>
<path d="M198.069 200.875C196.945 200.875 195.886 200.346 195.212 199.447C194.04 197.872 194.359 195.647 195.926 194.464C196.587 193.964 211.997 182.679 230.622 188.625C232.434 189.272 233.408 191.237 232.826 193.07C232.244 194.903 230.314 195.946 228.462 195.429C213.39 190.625 200.337 200.089 200.194 200.179C199.578 200.632 198.833 200.876 198.069 200.875Z" fill="#372168"/>
</g>
<path fill-rule="evenodd" clip-rule="evenodd" d="M0 250C0 111.929 111.929 0 250 0C388.071 0 500 111.929 500 250C500 388.071 388.071 500 250 500C111.929 500 0 388.071 0 250ZM492.857 250C492.857 115.874 384.126 7.14286 250 7.14286C115.874 7.14286 7.14286 115.874 7.14286 250C7.14286 384.126 115.874 492.857 250 492.857C384.126 492.857 492.857 384.126 492.857 250Z" fill="#372168"/>
</svg>
