<svg width="500" height="500" viewBox="0 0 500 500" fill="none" xmlns="http://www.w3.org/2000/svg">
<path fill-rule="evenodd" clip-rule="evenodd" d="M250 496.429C386.099 496.429 496.429 386.099 496.429 250C496.429 113.901 386.099 3.57144 250 3.57144C113.901 3.57144 3.57144 113.901 3.57144 250C3.57144 386.099 113.901 496.429 250 496.429Z" fill="#E7EEFF"/>
<mask id="mask0_0_279" style="mask-type:alpha" maskUnits="userSpaceOnUse" x="3" y="3" width="494" height="494">
<path fill-rule="evenodd" clip-rule="evenodd" d="M250 496.429C386.099 496.429 496.429 386.099 496.429 250C496.429 113.901 386.099 3.57144 250 3.57144C113.901 3.57144 3.57144 113.901 3.57144 250C3.57144 386.099 113.901 496.429 250 496.429Z" fill="white"/>
</mask>
<g mask="url(#mask0_0_279)">
<path fill-rule="evenodd" clip-rule="evenodd" d="M336.74 210.585C337.919 197.482 339.687 159.822 324.533 135.107C306.015 105.089 275.623 96.321 249.926 96.7317C224.212 96.321 193.819 105.089 175.301 135.107C160.033 159.892 161.855 197.696 163.033 210.696C163.025 210.845 163.025 210.994 163.033 211.142C163.283 213.732 163.498 215.232 163.498 215.232C163.512 215.432 163.538 215.632 163.563 215.832C163.602 216.132 163.641 216.432 163.641 216.732C163.783 218.089 163.944 219.428 164.105 220.732C165.039 228.433 166.592 236.047 168.748 243.5L169.98 247.41C170.748 249.839 171.569 252.214 172.39 254.553C172.98 256.125 173.587 257.714 174.176 259.25C174.465 260.043 174.765 260.766 175.067 261.494L175.07 261.501C175.109 261.596 175.148 261.691 175.188 261.786C175.22 261.863 175.251 261.94 175.283 262.017C180.269 274.629 187.251 286.356 195.962 296.75L196.051 296.853V358.821C197.462 367.91 221.051 375.053 249.998 375.053C278.944 375.053 302.533 367.875 303.944 358.821V296.623L304.033 296.517C312.675 286.19 319.603 274.542 324.551 262.017C324.734 261.539 324.916 261.095 325.097 260.656C325.287 260.193 325.475 259.735 325.658 259.25C326.174 257.946 326.677 256.603 327.177 255.265L327.179 255.261L327.444 254.553L327.464 254.493C336.162 256.464 347.548 254.592 354.301 244.285C363.158 230.785 359.158 215.91 349.694 211.41C345.646 209.46 340.999 209.165 336.74 210.585ZM300.158 300.839L300.316 300.674C300.394 300.593 300.471 300.512 300.547 300.431C300.435 300.562 300.323 300.692 300.212 300.821C295.684 305.617 290.614 309.872 285.105 313.5C280.354 316.719 275.207 319.25 269.817 321.044C275.188 319.251 280.316 316.726 285.051 313.517C290.56 309.89 295.63 305.635 300.158 300.839Z" fill="#DD9488"/>
<path d="M145.426 244.357C152.194 254.714 163.658 256.553 172.373 254.535C171.087 250.964 169.837 247.279 168.623 243.482C166.636 236.637 165.168 229.653 164.23 222.589C163.962 220.678 163.73 218.732 163.516 216.75C163.442 216.252 163.394 215.752 163.373 215.25C163.373 215.25 163.194 214.125 162.998 212.142C162.908 211.839 162.908 211.5 162.908 211.16C162.9 211.006 162.9 210.851 162.908 210.696C159.436 209.548 155.693 209.504 152.194 210.571C151.413 210.823 150.649 211.128 149.908 211.482C140.551 215.91 136.498 230.785 145.426 244.357Z" fill="#DD9488"/>
<path d="M47.8727 424.411C82.0513 393.911 136.891 375.482 171.087 365.589L172.426 365.196C182.551 362.268 190.766 360.125 195.926 358.661C197.337 367.714 220.926 374.893 249.855 374.893C278.783 374.893 302.391 367.75 303.819 358.661H304.105C309.212 360.125 317.355 362.232 327.408 365.143L328.623 365.5C362.748 375.375 417.676 393.821 451.944 424.429C469.763 440.386 488.571 473.662 504.788 508.036H-5.00754C11.2115 473.626 30.0329 440.311 47.8727 424.411Z" fill="#7795F0"/>
<g style="mix-blend-mode:soft-light" opacity="0.4">
<path d="M282.694 393.25C271.915 395.66 260.9 396.858 249.855 396.821C213.319 396.821 182.301 384.696 171.069 365.786L172.408 365.393C182.533 362.464 190.748 360.321 195.908 358.857C197.319 367.911 220.908 375.089 249.837 375.089C278.766 375.089 302.373 367.946 303.801 358.857H304.087C309.194 360.321 317.337 362.428 327.391 365.339L328.605 365.696C323.087 375.053 312.748 382.75 299.283 388.143" fill="white"/>
</g>
<g style="mix-blend-mode:soft-light" opacity="0.4">
<path d="M282.694 393.25C271.915 395.66 260.9 396.858 249.855 396.821C213.319 396.821 182.301 384.696 171.069 365.786L172.408 365.393C182.533 362.464 190.748 360.321 195.908 358.857C197.319 367.911 220.908 375.089 249.837 375.089C278.766 375.089 302.373 367.946 303.801 358.857H304.087C309.194 360.321 317.337 362.428 327.391 365.339L328.605 365.696C323.087 375.053 312.748 382.75 299.283 388.143" fill="white"/>
</g>
<g style="mix-blend-mode:multiply" opacity="0.15">
<path fill-rule="evenodd" clip-rule="evenodd" d="M300.426 300.464V350.089C252.212 350.911 216.283 327.643 199.444 313.928V300.643L199.641 300.857C204.169 305.648 209.239 309.897 214.748 313.518C224.613 320.205 236.19 323.924 248.105 324.232H251.587C263.508 323.927 275.091 320.209 284.962 313.518C290.474 309.886 295.549 305.632 300.087 300.839L300.426 300.464Z" fill="#7C3830"/>
</g>
<path fill-rule="evenodd" clip-rule="evenodd" d="M251.152 93.1641L249.962 93.1781C230.373 92.821 194.194 97.6424 172.23 133.25C158.439 155.629 157.983 187.506 159.001 204.934L159.087 206.315C156.403 206.103 153.687 206.402 151.087 207.214C150.176 207.524 149.282 207.882 148.409 208.285C143.178 210.957 139.352 215.753 137.909 221.446C135.765 230.012 137.425 239.087 142.462 246.339C147.607 254.317 156.526 259.05 166.016 258.839L167.028 258.822C168.04 258.79 169.049 258.71 170.053 258.583L170.784 260.5C171.159 261.464 171.534 262.41 171.927 263.357C176.861 275.85 183.709 287.497 192.223 297.879L192.354 298.037V356.098L188.069 357.285C184.085 358.363 179.226 359.688 173.755 361.258L171.373 361.946L170.069 362.321C112.48 379.053 71.7302 398.464 45.4623 421.91C27.0201 438.376 7.7464 472.482 -8.92859 508.036H508.88C483.311 453.62 464.734 431.125 454.427 421.91C428.683 398.928 389.049 379.743 333.434 363.317L330.247 362.382C330.132 362.332 330.013 362.288 329.891 362.25L328.605 361.875C325.415 360.96 322.417 360.117 319.645 359.348L312.909 357.5L307.515 356.003L307.516 297.952C316.05 287.568 322.913 275.914 327.855 263.41C328.248 262.464 328.641 261.517 328.998 260.553L329.739 258.58C331.062 258.749 332.395 258.836 333.73 258.839C343.241 259.023 352.163 254.248 357.284 246.232L357.707 245.605C362.405 238.451 363.911 229.648 361.837 221.321C360.389 215.644 356.571 210.864 351.355 208.196C350.249 207.67 349.103 207.234 347.927 206.892C345.562 206.254 343.118 206.029 340.7 206.217C341.81 189.108 341.672 156.189 327.552 133.25C306.027 98.3545 270.902 93.0433 251.152 93.1641ZM269.785 377.57C290.132 375.225 302.072 369.286 306.105 363.035L311.034 364.392C313.25 364.995 315.69 365.662 318.34 366.399L323.087 367.732C317.694 374.535 309.194 380.375 298.177 384.803L297.9 384.917C296.821 385.417 296.055 386.427 295.873 387.616C295.675 388.904 296.194 390.197 297.228 390.99C298.261 391.784 299.644 391.951 300.837 391.428C314.192 386.063 324.337 378.648 330.398 369.848C384.808 385.824 424.936 405.127 449.677 427.214C465.576 441.411 482.459 470.211 497.431 500.893H2.49725C17.4298 470.292 34.3358 441.409 50.2659 427.214C74.4284 405.681 113.294 386.761 165.955 370.963L169.567 369.891C182.446 388.485 213.532 400.357 249.944 400.357C261.28 400.389 272.582 399.15 283.641 396.66C285.564 396.221 286.767 394.307 286.328 392.383C285.89 390.46 283.975 389.257 282.052 389.696C271.53 392.045 260.778 393.201 249.998 393.142C217.212 393.142 189.319 383.303 176.962 367.75L193.989 363.121C199.241 371.156 217.533 378.642 249.944 378.642C257.276 378.642 263.886 378.258 269.785 377.57ZM287.016 316.535C276.567 323.572 264.324 327.476 251.73 327.785H247.962C235.4 327.452 223.195 323.536 212.784 316.5C208.036 313.372 203.599 309.801 199.532 305.836L199.502 357.824C199.552 357.974 199.592 358.128 199.623 358.285C200.471 363.724 219.636 371.311 249.021 371.479L249.909 371.482C277.046 371.482 295.707 365.162 299.621 359.87C300.017 359.328 300.258 358.797 300.337 358.285L300.339 305.787C296.253 309.785 291.792 313.384 287.016 316.535ZM248.302 100.303L251.078 100.276C269.308 100.221 301.704 105.044 321.409 136.964C335.694 160.156 334.322 196.162 333.288 208.864L333.159 210.357V210.553L336.519 210.837H336.135L333.159 210.75C332.989 212.542 332.828 213.769 332.755 214.332L332.754 214.335C332.745 214.403 332.738 214.461 332.732 214.509C332.719 214.605 332.712 214.662 332.712 214.678V214.928C332.699 215.09 332.679 215.249 332.659 215.411C332.624 215.694 332.587 215.984 332.587 216.303C331.713 225.137 330.046 233.875 327.605 242.41C326.48 246.089 325.284 249.767 324.034 253.232L323.587 254.428C323.373 255.053 323.127 255.723 322.893 256.348L322.266 258C321.927 258.892 321.569 259.785 321.194 260.678C316.39 272.852 309.661 284.174 301.266 294.214L301.541 293.875C301.492 293.92 301.444 293.966 301.397 294.014C301.339 294.073 301.284 294.133 301.23 294.196C299.909 295.75 298.694 297.125 297.48 298.375L296.471 299.426C292.398 303.594 287.887 307.313 283.016 310.517L282.167 311.082L281.308 311.633C276.362 314.645 271.646 316.663 267.436 318.012C262.324 319.601 256.993 320.493 251.587 320.642H248.105C239.347 320.394 230.786 318.201 223.029 314.26C220.856 313.154 218.746 311.911 216.712 310.535C211.443 307.054 206.589 302.98 202.248 298.392C201.159 297.232 199.98 295.946 198.677 294.428C190.21 284.318 183.426 272.91 178.587 260.642C178.23 259.768 177.873 258.892 177.516 257.982C176.891 256.464 176.284 254.892 175.73 253.375L175.58 252.944L175.579 252.941L175.578 252.938L175.576 252.932C175.575 252.929 175.574 252.926 175.572 252.923C175.106 251.586 174.635 250.237 174.178 248.878L173.355 246.357C172.944 245.071 172.534 243.785 172.141 242.5C170.036 235.233 168.513 227.811 167.587 220.303C167.427 219.017 167.266 217.696 167.123 216.357C166.998 215.892 166.998 215.446 166.998 214.982C167.006 214.899 167.006 214.815 166.998 214.732L166.587 211.214L166.587 210.732C166.587 210.456 166.555 210.187 166.494 209.929C165.464 198.282 163.584 160.847 178.284 137C197.802 105.339 229.802 100.303 248.302 100.303ZM340.643 213.53L340.123 213.616L339.933 215.214L339.873 215.625C339.82 215.945 339.796 216.314 339.773 216.682L339.762 216.851C339.758 216.919 339.753 216.986 339.748 217.053C339.023 224.437 337.766 231.757 335.988 238.955C338.388 238.847 340.629 237.623 342.016 235.607C343.735 233.252 344.017 230.142 342.748 227.517C342.211 226.689 342.446 225.582 343.275 225.044C344.103 224.507 345.211 224.743 345.748 225.571C347.598 229.133 347.473 233.398 345.418 236.845C343.363 240.293 339.671 242.432 335.659 242.5C335.46 242.513 335.261 242.52 335.062 242.52L334.498 244.535C333.762 246.947 332.998 249.344 332.204 251.703C339.594 252.363 346.754 249.003 350.973 242.933L351.302 242.446C355.205 236.917 356.538 229.975 354.962 223.392C354.069 219.691 351.631 216.55 348.266 214.767C347.525 214.409 346.754 214.116 345.962 213.892C344.423 213.462 342.821 213.318 341.236 213.462L340.643 213.53ZM153.302 213.982C154.594 213.567 155.944 213.357 157.288 213.355L157.858 213.363C158.449 213.382 159.039 213.44 159.623 213.535L159.766 214.778C159.798 215.043 159.83 215.258 159.862 215.424L159.903 215.884C159.908 215.928 159.914 215.972 159.919 216.015C159.931 216.109 159.944 216.202 159.957 216.294C159.996 216.583 160.034 216.854 160.034 217.089C160.248 219.071 160.48 221.017 160.748 222.928C160.739 222.975 160.739 223.024 160.748 223.071C161.447 228.403 162.446 233.691 163.741 238.91C161.181 238.928 158.757 237.683 157.284 235.553C155.583 233.192 155.303 230.092 156.552 227.464C157.086 226.64 156.855 225.539 156.034 225C155.636 224.737 155.151 224.644 154.685 224.741C154.219 224.839 153.811 225.118 153.552 225.517C151.68 229.098 151.806 233.395 153.883 236.86C155.96 240.326 159.69 242.462 163.73 242.5C164.045 242.505 164.359 242.495 164.672 242.469L164.672 242.466L164.909 242.446C164.83 242.455 164.751 242.462 164.672 242.469C164.859 243.147 165.051 243.824 165.248 244.5C165.98 246.928 166.73 249.303 167.516 251.642C159.912 252.349 152.541 248.797 148.355 242.41L147.977 241.851C144.401 236.397 143.237 229.695 144.784 223.339C145.676 219.622 148.13 216.471 151.516 214.696C152.095 214.42 152.692 214.181 153.302 213.982Z" fill="#372168"/>
<path fill-rule="evenodd" clip-rule="evenodd" d="M430.837 432.821C424.296 427.042 417.324 421.77 409.98 417.053C409.444 416.705 408.764 416.67 408.194 416.96C407.625 417.251 407.254 417.822 407.221 418.46C407.188 419.098 407.498 419.705 408.034 420.053C415.224 424.672 422.053 429.83 428.462 435.482C428.785 435.775 429.204 435.94 429.641 435.946C430.154 435.945 430.642 435.724 430.98 435.339C431.635 434.604 431.571 433.477 430.837 432.821ZM164.909 242.446C164.83 242.455 164.751 242.462 164.672 242.469L164.672 242.466L164.909 242.446Z" fill="#372168"/>
<path d="M260.391 295.617C259.89 295.62 259.411 295.39 259.07 294.982C256.579 292.661 253.388 291.477 250.141 291.668C246.915 291.473 243.737 292.603 241.213 294.843C240.78 295.412 240.096 295.664 239.443 295.495C238.79 295.325 238.277 294.764 238.116 294.04C237.954 293.317 238.171 292.554 238.677 292.065C245.457 286.174 254.998 286.256 261.695 292.263C262.189 292.84 262.326 293.688 262.042 294.419C261.758 295.15 261.108 295.621 260.391 295.617Z" fill="#372168"/>
<g style="mix-blend-mode:multiply" opacity="0.15">
<path fill-rule="evenodd" clip-rule="evenodd" d="M220.497 245.119C220.497 256.019 212.502 264.856 202.64 264.856C192.778 264.856 184.783 256.019 184.783 245.119C184.783 234.219 192.778 225.382 202.64 225.382C212.502 225.382 220.497 234.219 220.497 245.119ZM316.926 245.119C316.926 256.019 308.931 264.856 299.069 264.856C289.207 264.856 281.212 256.019 281.212 245.119C281.212 234.219 289.207 225.382 299.069 225.382C308.931 225.382 316.926 234.219 316.926 245.119Z" fill="#FF1300"/>
</g>
<path fill-rule="evenodd" clip-rule="evenodd" d="M339.251 311.482C339.751 313.553 340.412 317.143 340.894 318.714C343.358 326.518 353.858 323.678 358.93 322.286C361.337 321.512 362.801 319.078 362.358 316.589L361.126 292.571C364.325 292.528 367.51 292.138 370.626 291.411C372.724 290.903 374.232 289.067 374.323 286.911L374.983 269.428C377.448 269.24 379.891 268.84 382.287 268.232C383.904 267.782 385.045 266.338 385.108 264.661C387.626 139.161 340.787 114.661 340.787 114.661C328.84 77.1606 295.68 77.1606 295.68 77.1606C285.867 71.4623 273.921 70.7986 263.537 75.3748C235.323 63.2498 216.912 81.9463 216.912 81.9463C213.081 80.9905 209.146 80.5166 205.198 80.5356C178.055 79.4106 167.376 99.0891 167.376 99.0891C131.376 121.053 133.126 156.643 133.126 156.643C109.608 188.786 101.43 245.571 100.519 252.428C100.466 252.866 100.61 253.304 100.912 253.625C106.55 259.606 114.814 262.357 122.912 260.946C121.733 267.875 120.501 279.803 120.073 284.071C119.972 285.181 120.341 286.282 121.09 287.107C128.001 294.821 138.751 293.428 138.751 293.428L136.394 317.857C136.304 319.169 136.649 320.475 137.376 321.571C140.948 325.357 152.358 326.339 155.698 325.5C157.597 324.839 159.03 323.258 159.501 321.303C160.537 318.607 161.483 315.571 162.376 312.286C162.376 312.036 162.519 311.786 162.573 311.536C168.232 315.591 175.125 317.554 182.073 317.089L181.715 324.678C181.601 325.644 182.053 326.59 182.876 327.107C186.784 329.62 191.498 330.564 196.073 329.75V298.75C196.073 298.75 189.144 289.089 185.84 284.678C182.842 280.014 180.22 275.117 178.001 270.036L172.519 256.553L170.733 257.196C162.287 258.589 151.858 256.357 145.537 246.678C136.608 233.107 140.662 218.232 150.019 213.803C150.76 213.449 151.523 213.145 152.305 212.893C155.803 211.826 159.546 211.87 163.019 213.018C163.644 185.875 177.305 181.857 181.876 176.928C193.733 163.857 193.144 154.875 194.144 146.268C194.626 142.08 197.542 138.575 201.573 137.339C218.001 132.321 261.233 122.411 306.233 139.643C310.174 141.147 312.865 144.824 313.108 149.036C313.676 158.941 315.476 168.736 318.465 178.196C320.031 182.84 321.997 187.339 324.34 191.643C327.805 198.214 336.394 218.982 328.126 252.053C326.583 258.095 324.553 264.001 322.055 269.714L321.751 270.357C320.948 271.964 319.001 276.321 317.162 279.446C316.198 281.071 312.787 286.714 311.233 289.036C309.68 291.357 304.09 298.482 304.09 298.482V326.196C310.948 329.428 318.198 326.714 321.59 325.018C322.8 324.433 323.559 323.2 323.537 321.857V313.964C328.864 313.864 334.152 313.029 339.251 311.482Z" fill="#784A42"/>
<path fill-rule="evenodd" clip-rule="evenodd" d="M296.68 73.6969C286.481 68.1416 274.348 67.3833 263.537 71.6254C239.369 61.9619 222.197 73.1006 216.476 77.7583L215.948 78.1969C212.476 77.4777 208.94 77.1128 205.394 77.1076C180.263 76.0382 168.211 91.4459 165.101 96.1828L164.805 96.6433C132.97 116.426 129.804 146.199 129.602 154.631L129.59 155.572C107.13 186.939 98.7221 239.901 97.2026 250.661L97.0189 252C96.8394 253.515 97.3509 255.03 98.4118 256.125C103.705 261.712 111.055 264.887 118.751 264.911C118.001 270.33 117.277 276.85 116.793 281.549L116.572 283.733C116.383 285.837 117.075 287.926 118.483 289.5C122.749 294.052 128.626 296.757 134.858 297.036L132.894 317.5C132.692 319.836 133.374 322.162 134.805 324.018C139.537 329.108 152.59 329.983 156.608 328.983C159.642 328.039 162.002 325.639 162.894 322.59C163.537 320.911 164.162 319.072 164.787 317.036C169.01 319.181 173.644 320.399 178.376 320.608L178.198 324.411C177.986 326.7 179.085 328.912 181.037 330.125C184.595 332.377 188.702 333.612 192.912 333.697C194.245 333.739 195.579 333.649 196.894 333.429C198.584 333.084 199.786 331.582 199.751 329.858V298.804C199.75 298.054 199.513 297.323 199.073 296.715C199.033 296.661 198.874 296.44 198.621 296.087C197.554 294.604 194.817 290.798 192.269 287.3L188.805 282.59C185.977 278.174 183.505 273.54 181.412 268.733L175.93 255.25C175.202 253.463 173.185 252.577 171.376 253.25L169.983 253.768C166.287 254.393 155.323 255.018 148.68 244.84C144.787 239.306 143.455 232.369 145.019 225.786C145.911 222.064 148.364 218.908 151.751 217.125C152.334 216.857 152.93 216.618 153.537 216.411C156.361 215.548 159.385 215.598 162.18 216.554C163.25 216.884 164.414 216.692 165.323 216.036C166.239 215.384 166.795 214.339 166.823 213.215C167.253 194.548 173.998 188.11 179.519 183.827L180.787 182.858C182.206 181.853 183.533 180.723 184.751 179.483C194.997 168.196 196.622 159.591 197.411 152.034L197.626 149.84C197.715 148.822 197.805 147.822 197.93 146.84C198.244 144.072 200.174 141.756 202.84 140.947C218.983 136.018 261.287 126.358 305.198 143.161C307.822 144.169 309.611 146.622 309.769 149.429C310.343 159.643 312.19 169.745 315.269 179.5C316.89 184.343 318.933 189.034 321.376 193.518L321.672 194.075C324.855 200.214 332.764 220.109 324.948 251.375C323.467 257.189 321.521 262.875 319.126 268.375L318.858 268.947C318.759 269.108 318.646 269.318 318.52 269.565L317.948 270.733C317.037 272.679 315.644 275.608 314.376 277.75C313.364 279.438 310.615 283.975 309.034 286.428L308.555 287.161C307.488 288.651 304.425 292.568 302.496 295.009L301.412 296.375C300.91 297.011 300.639 297.798 300.644 298.608V326.322C300.644 327.706 301.444 328.966 302.698 329.554C310.436 333.202 318.337 330.699 322.705 328.647L323.305 328.358C325.745 327.162 327.275 324.664 327.233 321.947V317.483C330.41 317.236 333.562 316.74 336.662 316C336.983 317.518 337.287 318.911 337.59 319.875C340.719 329.844 352.16 327.807 358.251 326.304L359.93 325.875C363.998 324.721 366.59 320.742 366.001 316.554L364.965 296.072C367.186 295.89 369.389 295.538 371.555 295.018C375.202 294.137 377.825 290.946 377.983 287.197L378.519 272.768C380.138 272.549 381.742 272.233 383.323 271.822C386.439 270.9 388.604 268.071 388.68 264.822C390.955 151.159 353.27 118.839 344.283 112.752L343.769 112.411C332.523 79.2397 304.804 74.4569 297.486 73.7639L296.68 73.6969ZM187.147 293.019L187.2 292.546C187.576 293.062 187.953 293.579 188.323 294.09L192.501 299.893V326.554C189.986 326.433 187.536 325.711 185.358 324.447L185.56 318.268C185.671 318.036 185.733 317.775 185.733 317.5C185.79 309.32 186.262 301.149 187.147 293.019ZM319.956 313.438L318.95 283.595L317.93 285.272C316.64 287.374 315.181 289.695 314.287 291.036C313.031 292.912 309.373 297.574 307.725 299.675L307.723 299.677L307.68 299.733V323.75C311.891 324.582 316.261 323.919 320.037 321.875L319.912 314.054C319.909 313.846 319.923 313.64 319.956 313.438ZM145.949 257.155L146.443 253.317C151.406 258.166 158.028 260.995 164.978 261.214C164.542 269.63 162.959 295.086 159.486 309.63C159.249 309.994 159.076 310.403 158.983 310.84C158.97 310.906 158.947 310.973 158.923 311.042C158.882 311.157 158.84 311.277 158.84 311.411C158.058 314.361 157.129 317.269 156.055 320.125C155.472 321.733 155.028 322.047 154.809 322.098L154.733 322.108C152.09 322.768 142.537 321.643 140.055 319.358C139.933 319.007 139.867 318.639 139.858 318.268L141.737 298.809C141.989 298.514 142.14 298.143 142.162 297.75L142.169 297.634C142.266 296.008 143.356 277.803 145.949 257.155ZM317.193 153.922L317.373 155.597C318.205 162.892 319.735 170.095 321.948 177.108C323.452 181.56 325.34 185.874 327.59 190L327.909 190.616C330.957 196.62 336.004 209.709 335.182 229.343L335.65 236.527C337.169 259.257 339.693 291.783 342.678 310.811L342.644 310.661L342.681 310.83L342.678 310.811L342.764 311.189L343.734 315.713C343.911 316.514 344.079 317.223 344.215 317.661C345.215 320.84 349.144 321.233 357.787 318.929L357.879 318.914C358.139 318.842 358.745 318.495 358.73 317.308L357.465 292.822C357.449 292.499 357.477 292.179 357.546 291.869L355.555 243.643C354.546 173.021 327.945 157.421 317.505 154.021L317.193 153.922ZM168.588 261.098C169.196 261.038 169.804 260.958 170.412 260.858L174.733 271.483C177.066 276.809 179.825 281.939 182.983 286.822L184.112 288.34C183.425 293.722 182.919 299.125 182.593 304.539C179.86 303.704 177.003 303.334 174.144 303.447C173.158 303.501 172.402 304.345 172.456 305.331C172.511 306.317 173.354 307.073 174.34 307.018L175.134 307.01C177.515 307.026 179.88 307.414 182.144 308.161L182.271 308.202L182.4 308.231C182.32 310.018 182.259 311.806 182.219 313.594L181.912 313.59C176.028 314.014 170.173 312.448 165.287 309.143L164.773 308.8C164.617 308.697 164.474 308.608 164.34 308.536C164.085 308.38 163.815 308.259 163.536 308.173C166.507 294.346 167.933 273.778 168.446 264.018L168.588 261.098ZM332.851 247.785L332.654 248.725C332.358 250.104 332.034 251.506 331.68 252.929C330.096 259.161 328.006 265.252 325.43 271.143L325.073 271.911L324.754 272.547C324.669 272.721 324.581 272.905 324.487 273.098C324.395 273.289 324.299 273.489 324.198 273.697L323.2 275.794C322.923 276.366 322.628 276.965 322.323 277.57L323.314 307.787C323.347 308.733 323.378 309.626 323.408 310.451L323.483 310.447C328.443 310.33 333.363 309.537 338.108 308.09C338.272 308.039 338.437 308 338.604 307.973C337.853 302.662 337.132 296.534 336.452 289.996C334.291 290.023 332.143 290.362 330.072 291C329.882 291.063 329.683 291.093 329.483 291.09C328.603 291.097 327.85 290.462 327.707 289.593C327.565 288.725 328.076 287.882 328.912 287.608C331.238 286.871 333.655 286.47 336.087 286.413C334.835 273.842 333.734 260.069 332.851 247.785ZM143.519 186.697C157 156.817 173.437 141.318 192.437 140.557C191.534 142.163 190.937 143.957 190.715 145.858C190.674 146.203 190.636 146.55 190.6 146.899L190.207 150.96C189.974 153.237 189.663 155.563 189.01 158.02C185.697 158.993 182.525 160.317 179.543 161.954C176.714 160.057 173.52 158.765 170.162 158.161C169.191 158.011 168.282 158.673 168.126 159.643C168.049 160.112 168.162 160.593 168.44 160.978C168.718 161.364 169.139 161.622 169.608 161.697C171.891 162.117 174.084 162.91 176.098 164.04C169.378 168.507 163.825 174.665 160.072 182.018L159.733 182.664C156.462 189.005 153.382 198.11 150.559 209.732C149.872 209.979 149.197 210.26 148.537 210.572C143.307 213.236 139.48 218.026 138.037 223.715C135.892 232.286 137.552 241.367 142.59 248.625C142.819 248.976 143.056 249.321 143.3 249.658C141.435 262.964 140.193 275.923 139.449 284.997L139.061 289.947C138.783 289.913 138.499 289.913 138.215 289.947C138.126 289.965 129.18 290.965 123.662 284.804C123.58 284.725 123.534 284.615 123.537 284.5C123.973 280.193 124.702 273.205 125.495 267.29L125.747 265.462C125.965 265.185 126.103 264.841 126.126 264.465L126.13 264.432C126.169 264.053 126.512 260.787 127.185 255.677L127.801 251.166C130.293 251.485 132.714 252.22 134.965 253.34L135.164 253.432C135.368 253.511 135.585 253.553 135.805 253.554V253.536C136.634 253.548 137.363 252.987 137.563 252.182C137.763 251.376 137.382 250.539 136.644 250.161C134.031 248.845 131.215 247.986 128.316 247.619C130.881 230.404 135.789 203.836 143.519 186.697ZM128.316 247.619L128.316 247.621L127.572 247.536C127.821 247.56 128.069 247.588 128.316 247.619ZM306.59 130.822C302.74 130.848 298.916 131.315 295.192 132.209C299.309 133.376 303.46 134.744 307.626 136.34C312.878 138.339 316.47 143.231 316.805 148.84L316.88 150.064C327.281 152.574 358.02 166.507 359.126 243.536L361.008 289.072L361.037 289.072C363.978 289.031 366.905 288.672 369.769 288C370.315 287.886 370.712 287.415 370.733 286.858L371.394 269.358C371.402 269.125 371.433 268.898 371.483 268.679L371.451 265.226C371.346 257.047 370.997 246.186 370.06 234.269C368.621 234.382 367.195 234.625 365.799 234.995L364.965 235.233C364.753 235.304 364.529 235.334 364.305 235.322C363.445 235.304 362.72 234.676 362.58 233.827C362.44 232.978 362.924 232.151 363.733 231.858C365.697 231.252 367.72 230.867 369.765 230.708L369.548 228.306C366.922 200.155 360.869 167.814 347.144 151.161C345.67 149.374 344.155 147.704 342.601 146.151L341.809 146.274C339.994 146.596 338.223 147.14 336.539 147.896L335.823 148.233C335.575 148.366 335.3 148.44 335.019 148.447C334.35 148.448 333.737 148.076 333.43 147.483C332.971 146.61 333.307 145.531 334.18 145.072C335.844 144.245 337.589 143.602 339.384 143.151C329.791 134.835 318.8 130.696 306.59 130.822ZM160.204 286.827C160.354 285.973 159.869 285.135 159.055 284.84C156.092 283.831 152.968 283.377 149.84 283.5C148.861 283.558 148.111 284.395 148.162 285.375C148.189 285.849 148.405 286.293 148.76 286.608C149.115 286.923 149.581 287.083 150.055 287.054L150.845 287.043C153.216 287.054 155.571 287.443 157.822 288.197C158.023 288.267 158.235 288.303 158.448 288.304C159.314 288.303 160.055 287.68 160.204 286.827ZM300.537 107.233C282.732 107.863 270.012 119.774 264.017 126.809C271.886 127.367 280.109 128.523 288.52 130.488L289.087 130.293C298.641 127.069 322.747 122.016 344.337 142.859L344.414 142.921C344.495 142.989 344.568 143.064 344.634 143.144C346.406 144.88 348.164 146.791 349.894 148.893C361.751 163.286 369.537 189.822 373.108 227.804C373.224 229.073 373.334 230.342 373.438 231.612C373.558 231.852 373.626 232.124 373.626 232.411C373.626 232.596 373.598 232.775 373.546 232.943C374.42 243.908 374.904 254.9 374.998 265.899L374.626 265.929C376.558 265.797 378.477 265.515 380.364 265.085L381.305 264.858C381.429 264.84 381.52 264.733 381.519 264.608C383.933 144.348 340.724 118.847 339.149 117.918C339.128 117.905 339.114 117.897 339.108 117.893C338.553 117.612 338.087 117.195 337.748 116.686C326.465 110.282 313.618 106.99 300.537 107.233ZM136.607 157.218C144.746 145.923 164.964 121.43 188.912 118.679C207.878 116.558 217.729 123.308 222.228 128.137L222.835 128.812C214.096 130.254 206.903 132.089 201.822 133.593L200.644 133.947C198.618 134.568 196.803 135.617 195.293 136.984C173.552 136.205 155.052 152.525 140.269 185.304C130.915 206.137 125.697 239.508 123.627 255.342L123.353 257.481C122.909 257.414 122.451 257.43 122.001 257.536C115.496 258.613 108.866 256.531 104.144 251.929C104.968 246.275 107.992 226.65 114.533 205.224L115.128 203.301C117.024 203.958 118.822 204.884 120.465 206.054L120.66 206.186C120.931 206.343 121.239 206.428 121.555 206.429C122.107 206.428 122.628 206.171 122.965 205.733C123.569 204.958 123.433 203.841 122.662 203.233C120.687 201.804 118.516 200.681 116.222 199.894C121.021 185.325 127.463 170.395 135.947 158.822C136.299 158.347 136.525 157.795 136.607 157.218ZM187.525 162.347L186.865 162.595C176.727 166.506 168.287 173.998 163.215 183.75C160.148 189.554 157.22 197.949 154.503 208.751C156.248 208.495 158.024 208.464 159.787 208.661C161.375 188.367 170.653 181.328 176.351 177.006L176.358 177C177.427 176.26 178.431 175.43 179.358 174.518C183.481 169.976 185.972 165.991 187.525 162.347ZM344.856 192.402C345.133 191.826 345.082 191.145 344.722 190.617C344.361 190.088 343.746 189.792 343.108 189.84C340.001 190.151 336.976 191.022 334.18 192.411C333.307 192.87 332.971 193.949 333.43 194.822C333.737 195.415 334.35 195.788 335.019 195.786C335.298 195.784 335.574 195.717 335.823 195.59C338.192 194.424 340.75 193.687 343.376 193.411L343.586 193.383C344.136 193.275 344.609 192.915 344.856 192.402ZM168.882 102.38L169.18 102.197C167.051 103.495 165.062 104.845 163.202 106.233C165.172 107.005 167.041 108.019 168.769 109.25C169.148 109.535 169.398 109.958 169.465 110.426C169.532 110.895 169.41 111.372 169.126 111.75C168.793 112.195 168.271 112.459 167.715 112.465C167.329 112.465 166.953 112.339 166.644 112.108C164.588 110.649 162.299 109.555 159.875 108.87C142.474 123.527 138.076 141.527 136.985 150.644C139.975 146.782 143.169 143.08 146.555 139.554C156.197 129.483 171.287 117.072 188.519 115.125C212.224 112.47 223.018 122.895 226.896 128.188C229.694 127.791 232.627 127.439 235.68 127.155C212.862 87.128 177.496 98.7657 168.882 102.38ZM173.572 97.0828L173.12 97.2107C177.493 92.0932 187.515 83.4764 205.001 84.1612C208.726 84.1417 212.439 84.5856 216.055 85.4826C216.428 85.5688 216.806 85.5933 217.177 85.5573C221.044 87.3882 226.181 90.7531 231.009 96.8539C229.151 96.9372 227.304 97.2251 225.501 97.7147C224.863 97.804 224.321 98.2269 224.08 98.8241C223.838 99.4213 223.933 100.102 224.33 100.61C224.726 101.118 225.363 101.375 226.001 101.286L226.171 101.268C226.284 101.25 226.394 101.22 226.501 101.179C228.545 100.642 230.652 100.395 232.76 100.444L233.613 100.479C237.294 106.116 240.603 113.595 242.765 123.51C242.852 124.527 242.959 125.563 243.089 126.619C241.908 126.68 240.741 126.752 239.59 126.829C219.312 89.7847 188.226 92.98 173.572 97.0828ZM270.715 90.0897C261.301 97.7984 255.622 110.011 253.971 126.397C255.789 126.416 257.631 126.465 259.496 126.547L260.127 125.741C263.237 121.834 268.677 115.941 276.244 111.217C274.525 110.109 272.658 109.243 270.698 108.643C270.041 108.51 269.514 108.021 269.333 107.377C269.152 106.732 269.346 106.04 269.837 105.584C270.328 105.129 271.032 104.986 271.662 105.215C274.535 106.088 277.23 107.46 279.625 109.267C285.486 106.166 292.429 103.897 300.376 103.625C312.722 103.318 324.878 106.064 335.799 111.527C330.934 99.2089 322.997 90.3252 312.144 85.1076C307.778 82.9468 303.081 81.5491 298.257 80.9684L297.535 80.9679C291.534 81.0109 280.254 82.2592 270.715 90.0897ZM264.187 78.937C264.51 78.8723 264.827 78.7624 265.126 78.6076C272.825 75.2358 281.476 75.0856 289.196 78.0471C282.96 79.1122 275.378 81.6286 268.483 87.2683C258.225 95.6731 252.152 108.876 250.39 126.394C249.239 126.405 248.099 126.428 246.973 126.462C246.764 125.292 246.54 124.152 246.298 123.041C244.118 97.4101 255.318 84.9524 263.6 79.3273L264.187 78.937ZM221.278 82.8902L220.722 83.3375C227.591 87.1175 236.766 94.9124 242.753 110.794C244.357 93.4432 252.686 83.3737 259.864 77.8243C240.124 70.3793 226.159 79.0485 221.278 82.8902ZM311.894 91.054C309.219 89.4282 306.273 88.2971 303.198 87.7147C302.211 87.552 301.28 88.2196 301.117 89.2058C300.954 90.192 301.622 91.1234 302.608 91.2862L303.384 91.451C305.702 91.9859 307.923 92.8819 309.965 94.1076C310.245 94.2957 310.575 94.3952 310.912 94.3933V94.3397C311.706 94.3457 312.409 93.8264 312.636 93.0655C312.863 92.3046 312.561 91.4849 311.894 91.054Z" fill="#372168"/>
<path d="M245.794 267.673C242.149 267.67 238.529 267.067 235.08 265.887C233.452 265.31 232.601 263.523 233.178 261.896C233.755 260.269 235.542 259.417 237.169 259.994C238.008 260.298 257.115 266.691 265.401 249.119C266.136 247.556 267.999 246.885 269.562 247.619C271.125 248.354 271.797 250.217 271.062 251.78C266.696 261.758 256.679 268.059 245.794 267.673Z" fill="#372168"/>
<path d="M250.806 241.583C246.906 241.635 243.239 239.732 241.038 236.512C240.101 235.062 240.517 233.127 241.967 232.19C243.417 231.253 245.351 231.669 246.288 233.119C247.375 234.533 249.063 235.354 250.846 235.336C252.629 235.319 254.301 234.465 255.36 233.03C256.257 231.55 258.184 231.079 259.663 231.976C261.143 232.873 261.614 234.8 260.717 236.28C258.556 239.646 254.806 241.653 250.806 241.583Z" fill="#372168"/>
<path d="M288.008 220.089C295.919 220.089 295.937 207.768 288.008 207.768C280.079 207.768 280.062 220.089 288.008 220.089Z" fill="#372168"/>
<path d="M214.847 220.089C222.776 220.089 222.793 207.768 214.847 207.768C206.901 207.768 206.901 220.089 214.847 220.089Z" fill="#372168"/>
<path d="M304.122 201.268C303.557 201.268 303 201.133 302.497 200.875C288.337 193.59 273.926 200.786 273.926 200.875C272.17 201.778 270.016 201.086 269.113 199.331C268.211 197.575 268.903 195.42 270.658 194.518C271.39 194.143 288.515 185.59 305.854 194.518C307.325 195.272 308.087 196.936 307.696 198.541C307.305 200.147 305.864 201.275 304.212 201.268H304.122Z" fill="#372168"/>
<path d="M198.426 201.268C196.925 201.269 195.583 200.332 195.068 198.922C194.553 197.513 194.974 195.931 196.122 194.964C196.747 194.429 211.497 182.304 230.426 187.161C231.704 187.44 232.728 188.395 233.093 189.651C233.459 190.908 233.109 192.263 232.18 193.185C231.252 194.107 229.894 194.447 228.64 194.071C213.212 190.107 200.819 200.321 200.694 200.429C200.058 200.964 199.256 201.26 198.426 201.268Z" fill="#372168"/>
</g>
<path fill-rule="evenodd" clip-rule="evenodd" d="M0 250C0 111.929 111.929 0 250 0C388.071 0 500 111.929 500 250C500 388.071 388.071 500 250 500C111.929 500 0 388.071 0 250ZM492.857 250C492.857 115.874 384.126 7.14286 250 7.14286C115.874 7.14286 7.14286 115.874 7.14286 250C7.14286 384.126 115.874 492.857 250 492.857C384.126 492.857 492.857 384.126 492.857 250Z" fill="#372168"/>
</svg>
