<svg width="500" height="500" viewBox="0 0 500 500" fill="none" xmlns="http://www.w3.org/2000/svg">
<path fill-rule="evenodd" clip-rule="evenodd" d="M250 496.429C386.099 496.429 496.429 386.099 496.429 250C496.429 113.901 386.099 3.57144 250 3.57144C113.901 3.57144 3.57143 113.901 3.57143 250C3.57143 386.099 113.901 496.429 250 496.429Z" fill="#E7EEFF"/>
<mask id="mask0_0_271" style="mask-type:alpha" maskUnits="userSpaceOnUse" x="3" y="3" width="494" height="494">
<path fill-rule="evenodd" clip-rule="evenodd" d="M250 496.429C386.099 496.429 496.429 386.099 496.429 250C496.429 113.901 386.099 3.57144 250 3.57144C113.901 3.57144 3.57143 113.901 3.57143 250C3.57143 386.099 113.901 496.429 250 496.429Z" fill="white"/>
</mask>
<g mask="url(#mask0_0_271)">
<path fill-rule="evenodd" clip-rule="evenodd" d="M336.74 210.585C337.919 197.482 339.687 159.822 324.533 135.107C306.015 105.089 275.623 96.321 249.926 96.7317C224.212 96.321 193.819 105.089 175.301 135.107C160.033 159.892 161.855 197.696 163.033 210.696C163.025 210.845 163.025 210.994 163.033 211.142C163.283 213.732 163.498 215.232 163.498 215.232C163.512 215.432 163.538 215.632 163.563 215.832C163.602 216.132 163.641 216.432 163.641 216.732C163.783 218.089 163.944 219.428 164.105 220.732C165.039 228.433 166.592 236.047 168.748 243.5L169.98 247.41C170.748 249.839 171.569 252.214 172.39 254.553C172.98 256.125 173.587 257.714 174.176 259.25C174.465 260.043 174.765 260.766 175.067 261.494L175.07 261.501C175.109 261.596 175.148 261.691 175.188 261.786C175.22 261.863 175.251 261.94 175.283 262.017C180.269 274.629 187.251 286.356 195.962 296.75L196.051 296.853V358.821C197.462 367.91 221.051 375.053 249.998 375.053C278.944 375.053 302.533 367.875 303.944 358.821V296.623L304.033 296.517C312.675 286.19 319.603 274.542 324.551 262.017C324.734 261.539 324.916 261.095 325.097 260.656C325.287 260.193 325.475 259.735 325.658 259.25C326.174 257.946 326.677 256.603 327.177 255.265L327.179 255.261L327.444 254.553L327.464 254.493C336.162 256.464 347.548 254.592 354.301 244.285C363.158 230.785 359.158 215.91 349.694 211.41C345.646 209.46 340.999 209.165 336.74 210.585ZM300.158 300.839L300.316 300.674C300.394 300.593 300.471 300.512 300.547 300.431C300.435 300.562 300.323 300.692 300.212 300.821C295.684 305.617 290.614 309.872 285.105 313.5C280.354 316.719 275.207 319.25 269.817 321.044C275.188 319.251 280.316 316.726 285.051 313.517C290.56 309.89 295.63 305.635 300.158 300.839Z" fill="#DD9488"/>
<path d="M145.426 244.357C152.194 254.714 163.658 256.553 172.373 254.535C171.087 250.964 169.837 247.279 168.623 243.482C166.636 236.637 165.168 229.653 164.23 222.589C163.962 220.678 163.73 218.732 163.516 216.75C163.442 216.252 163.394 215.752 163.373 215.25C163.373 215.25 163.194 214.125 162.998 212.142C162.908 211.839 162.908 211.5 162.908 211.16C162.9 211.006 162.9 210.851 162.908 210.696C159.436 209.548 155.693 209.504 152.194 210.571C151.413 210.823 150.649 211.128 149.908 211.482C140.551 215.91 136.498 230.785 145.426 244.357Z" fill="#DD9488"/>
<path d="M47.8727 424.411C82.0513 393.911 136.891 375.482 171.087 365.589L172.426 365.196C182.551 362.268 190.766 360.125 195.926 358.661C197.337 367.714 220.926 374.893 249.855 374.893C278.783 374.893 302.391 367.75 303.819 358.661H304.105C309.212 360.125 317.355 362.232 327.408 365.143L328.623 365.5C362.748 375.375 417.676 393.821 451.944 424.429C469.763 440.386 488.571 473.662 504.788 508.036H-5.00752C11.2115 473.626 30.033 440.311 47.8727 424.411Z" fill="#E54C7F"/>
<g style="mix-blend-mode:soft-light" opacity="0.4">
<path d="M282.694 393.25C271.915 395.66 260.9 396.858 249.855 396.821C213.319 396.821 182.301 384.696 171.069 365.786L172.408 365.393C182.533 362.464 190.748 360.321 195.908 358.857C197.319 367.911 220.908 375.089 249.837 375.089C278.766 375.089 302.373 367.946 303.801 358.857H304.087C309.194 360.321 317.337 362.428 327.391 365.339L328.605 365.696C323.087 375.053 312.748 382.75 299.283 388.143" fill="white"/>
</g>
<g style="mix-blend-mode:soft-light" opacity="0.4">
<path d="M282.694 393.25C271.915 395.66 260.9 396.858 249.855 396.821C213.319 396.821 182.301 384.696 171.069 365.786L172.408 365.393C182.533 362.464 190.748 360.321 195.908 358.857C197.319 367.911 220.908 375.089 249.837 375.089C278.766 375.089 302.373 367.946 303.801 358.857H304.087C309.194 360.321 317.337 362.428 327.391 365.339L328.605 365.696C323.087 375.053 312.748 382.75 299.283 388.143" fill="white"/>
</g>
<g style="mix-blend-mode:multiply" opacity="0.15">
<path fill-rule="evenodd" clip-rule="evenodd" d="M300.426 300.464V350.089C252.212 350.911 216.283 327.643 199.444 313.928V300.643L199.641 300.857C204.169 305.648 209.239 309.897 214.748 313.518C224.613 320.205 236.19 323.924 248.105 324.232H251.587C263.508 323.927 275.091 320.209 284.962 313.518C290.474 309.886 295.549 305.632 300.087 300.839L300.426 300.464Z" fill="#7C3830"/>
</g>
<path fill-rule="evenodd" clip-rule="evenodd" d="M251.152 93.1641L249.962 93.1781C230.373 92.821 194.194 97.6424 172.23 133.25C158.439 155.629 157.983 187.506 159.001 204.934L159.087 206.315C156.403 206.103 153.687 206.402 151.087 207.214C150.176 207.524 149.282 207.882 148.409 208.285C143.178 210.957 139.352 215.753 137.909 221.446C135.765 230.012 137.425 239.087 142.462 246.339C147.607 254.317 156.526 259.05 166.016 258.839L167.028 258.822C168.04 258.79 169.049 258.71 170.053 258.583L170.784 260.5C171.159 261.464 171.534 262.41 171.927 263.357C176.861 275.85 183.709 287.497 192.223 297.879L192.354 298.037V356.098L188.069 357.285C184.085 358.363 179.226 359.688 173.755 361.258L171.373 361.946L170.069 362.321C112.48 379.053 71.7302 398.464 45.4623 421.91C27.0201 438.376 7.74641 472.482 -8.92857 508.036H508.881C483.311 453.62 464.734 431.125 454.427 421.91C428.683 398.928 389.049 379.743 333.434 363.317L330.247 362.382C330.132 362.332 330.013 362.288 329.891 362.25L328.605 361.875C325.415 360.96 322.417 360.117 319.645 359.348L312.909 357.5L307.515 356.003L307.516 297.952C316.05 287.568 322.913 275.914 327.855 263.41C328.248 262.464 328.641 261.517 328.998 260.553L329.739 258.58C331.062 258.749 332.395 258.836 333.73 258.839C343.241 259.023 352.163 254.248 357.284 246.232L357.707 245.605C362.405 238.451 363.911 229.648 361.837 221.321C360.389 215.644 356.571 210.864 351.355 208.196C350.249 207.67 349.103 207.234 347.927 206.892C345.562 206.254 343.118 206.029 340.7 206.217C341.81 189.108 341.672 156.189 327.552 133.25C306.027 98.3545 270.902 93.0433 251.152 93.1641ZM269.785 377.57C290.132 375.225 302.072 369.286 306.105 363.035L311.034 364.392C313.25 364.995 315.69 365.662 318.34 366.399L323.087 367.732C317.694 374.535 309.194 380.375 298.177 384.803L297.9 384.917C296.821 385.417 296.055 386.427 295.873 387.616C295.675 388.904 296.194 390.197 297.228 390.99C298.261 391.784 299.644 391.951 300.837 391.428C314.192 386.063 324.337 378.648 330.398 369.848C384.808 385.824 424.936 405.127 449.677 427.214C465.576 441.411 482.459 470.211 497.431 500.893H2.49726C17.4298 470.292 34.3359 441.409 50.2659 427.214C74.4284 405.681 113.294 386.761 165.955 370.963L169.567 369.891C182.446 388.485 213.532 400.357 249.944 400.357C261.28 400.389 272.582 399.15 283.641 396.66C285.564 396.221 286.767 394.307 286.328 392.383C285.89 390.46 283.975 389.257 282.052 389.696C271.53 392.045 260.778 393.201 249.998 393.142C217.212 393.142 189.319 383.303 176.962 367.75L193.989 363.121C199.241 371.156 217.533 378.642 249.944 378.642C257.276 378.642 263.886 378.258 269.785 377.57ZM287.016 316.535C276.567 323.572 264.324 327.476 251.73 327.785H247.962C235.4 327.452 223.195 323.536 212.784 316.5C208.036 313.372 203.599 309.801 199.532 305.836L199.502 357.824C199.552 357.974 199.592 358.128 199.623 358.285C200.471 363.724 219.636 371.311 249.021 371.479L249.909 371.482C277.046 371.482 295.707 365.162 299.621 359.87C300.017 359.328 300.258 358.797 300.337 358.285L300.339 305.787C296.253 309.785 291.792 313.384 287.016 316.535ZM248.302 100.303L251.078 100.276C269.308 100.221 301.704 105.044 321.409 136.964C335.694 160.156 334.322 196.162 333.288 208.864L333.159 210.357V210.553L336.519 210.837H336.135L333.159 210.75C332.989 212.542 332.828 213.769 332.755 214.332L332.754 214.335C332.745 214.403 332.738 214.461 332.732 214.509C332.719 214.605 332.712 214.662 332.712 214.678V214.928C332.699 215.09 332.679 215.249 332.659 215.411C332.624 215.694 332.587 215.984 332.587 216.303C331.713 225.137 330.046 233.875 327.605 242.41C326.48 246.089 325.284 249.767 324.034 253.232L323.587 254.428C323.373 255.053 323.127 255.723 322.893 256.348L322.266 258C321.927 258.892 321.569 259.785 321.194 260.678C316.39 272.852 309.661 284.174 301.266 294.214L301.541 293.875C301.492 293.92 301.444 293.966 301.397 294.014C301.339 294.073 301.284 294.133 301.23 294.196C299.909 295.75 298.694 297.125 297.48 298.375L296.471 299.426C292.398 303.594 287.887 307.313 283.016 310.517L282.167 311.082L281.308 311.633C276.362 314.645 271.646 316.663 267.436 318.012C262.324 319.601 256.993 320.493 251.587 320.642H248.105C239.347 320.394 230.786 318.201 223.029 314.26C220.856 313.154 218.746 311.911 216.712 310.535C211.443 307.054 206.59 302.98 202.248 298.392C201.159 297.232 199.98 295.946 198.677 294.428C190.21 284.318 183.426 272.91 178.587 260.642C178.23 259.768 177.873 258.892 177.516 257.982C176.891 256.464 176.284 254.892 175.73 253.375L175.58 252.944L175.579 252.941L175.578 252.938L175.576 252.932C175.575 252.929 175.574 252.926 175.573 252.923C175.106 251.586 174.635 250.237 174.178 248.878L173.355 246.357C172.944 245.071 172.534 243.785 172.141 242.5C170.036 235.233 168.513 227.811 167.587 220.303C167.427 219.017 167.266 217.696 167.123 216.357C166.998 215.892 166.998 215.446 166.998 214.982C167.006 214.899 167.006 214.815 166.998 214.732L166.587 211.214L166.587 210.732C166.587 210.456 166.555 210.187 166.494 209.929C165.464 198.282 163.584 160.847 178.284 137C197.802 105.339 229.802 100.303 248.302 100.303ZM340.643 213.53L340.123 213.616L339.933 215.214L339.873 215.625C339.82 215.945 339.796 216.314 339.773 216.682L339.762 216.851C339.758 216.919 339.753 216.986 339.748 217.053C339.023 224.437 337.766 231.757 335.988 238.955C338.388 238.847 340.629 237.623 342.016 235.607C343.735 233.252 344.017 230.142 342.748 227.517C342.211 226.689 342.446 225.582 343.275 225.044C344.103 224.507 345.211 224.743 345.748 225.571C347.598 229.133 347.473 233.398 345.418 236.845C343.363 240.293 339.671 242.432 335.659 242.5C335.46 242.513 335.261 242.52 335.062 242.52L334.498 244.535C333.762 246.947 332.998 249.344 332.204 251.703C339.594 252.363 346.754 249.003 350.973 242.933L351.302 242.446C355.205 236.917 356.538 229.975 354.962 223.392C354.069 219.691 351.631 216.55 348.266 214.767C347.525 214.409 346.754 214.116 345.962 213.892C344.423 213.462 342.821 213.318 341.236 213.462L340.643 213.53ZM153.302 213.982C154.595 213.567 155.944 213.357 157.288 213.355L157.858 213.363C158.449 213.382 159.039 213.44 159.623 213.535L159.766 214.778C159.798 215.043 159.83 215.258 159.862 215.424L159.903 215.884C159.908 215.928 159.914 215.972 159.919 216.015C159.931 216.109 159.944 216.202 159.957 216.294C159.996 216.583 160.034 216.854 160.034 217.089C160.248 219.071 160.48 221.017 160.748 222.928C160.739 222.975 160.739 223.024 160.748 223.071C161.447 228.403 162.446 233.691 163.741 238.91C161.181 238.928 158.757 237.683 157.284 235.553C155.583 233.192 155.303 230.092 156.552 227.464C157.086 226.64 156.855 225.539 156.034 225C155.636 224.737 155.151 224.644 154.685 224.741C154.219 224.839 153.811 225.118 153.552 225.517C151.68 229.098 151.806 233.395 153.883 236.86C155.96 240.326 159.69 242.462 163.73 242.5C164.045 242.505 164.359 242.495 164.672 242.469L164.672 242.466L164.909 242.446C164.83 242.455 164.751 242.462 164.672 242.469C164.859 243.147 165.051 243.824 165.248 244.5C165.98 246.928 166.73 249.303 167.516 251.642C159.912 252.349 152.541 248.797 148.355 242.41L147.977 241.851C144.401 236.397 143.237 229.695 144.784 223.339C145.676 219.622 148.13 216.471 151.516 214.696C152.095 214.42 152.692 214.181 153.302 213.982Z" fill="#372168"/>
<path fill-rule="evenodd" clip-rule="evenodd" d="M430.837 432.821C424.296 427.042 417.324 421.77 409.98 417.053C409.444 416.705 408.764 416.67 408.195 416.96C407.625 417.251 407.254 417.822 407.221 418.46C407.188 419.098 407.498 419.705 408.034 420.053C415.224 424.672 422.053 429.83 428.462 435.482C428.785 435.775 429.205 435.94 429.641 435.946C430.154 435.945 430.642 435.724 430.98 435.339C431.635 434.604 431.571 433.477 430.837 432.821ZM164.909 242.446C164.83 242.455 164.751 242.462 164.672 242.469L164.672 242.466L164.909 242.446Z" fill="#372168"/>
<path d="M260.391 295.617C259.89 295.62 259.411 295.39 259.07 294.982C256.579 292.661 253.388 291.477 250.141 291.668C246.915 291.473 243.737 292.603 241.213 294.843C240.78 295.412 240.096 295.664 239.443 295.495C238.79 295.325 238.277 294.764 238.116 294.04C237.954 293.317 238.171 292.554 238.677 292.065C245.457 286.174 254.998 286.256 261.695 292.263C262.189 292.84 262.326 293.688 262.042 294.419C261.758 295.15 261.108 295.621 260.391 295.617Z" fill="#372168"/>
<g style="mix-blend-mode:multiply" opacity="0.15">
<path fill-rule="evenodd" clip-rule="evenodd" d="M220.497 245.119C220.497 256.019 212.502 264.856 202.64 264.856C192.778 264.856 184.783 256.019 184.783 245.119C184.783 234.219 192.778 225.382 202.64 225.382C212.502 225.382 220.497 234.219 220.497 245.119ZM316.926 245.119C316.926 256.019 308.931 264.856 299.069 264.856C289.207 264.856 281.212 256.019 281.212 245.119C281.212 234.219 289.207 225.382 299.069 225.382C308.931 225.382 316.926 234.219 316.926 245.119Z" fill="#FF1300"/>
</g>
<path fill-rule="evenodd" clip-rule="evenodd" d="M220.837 83.0179C241.005 79.0127 261.771 79.0916 281.908 83.25C286.016 76.6971 287.97 69.0231 287.497 61.3036C285.747 25.5715 249.533 28.875 249.533 28.875C249.212 28.875 214.122 28.9465 214.122 61.3036C214.06 69.062 216.406 76.6487 220.837 83.0179ZM328.247 323.215C361.578 266.37 337.654 225.506 336.388 223.357C336.973 222.003 353.69 182.878 347.408 149.857C340.98 115.946 321.194 92.0179 281.908 83.2679C261.771 79.1095 241.005 79.0306 220.837 83.0358C180.855 91.5536 160.587 117.714 154.265 149.857C146.73 187.897 163.968 221.204 165.084 223.306C164.339 224.672 143.841 263.184 172.444 309.411C182.272 325.381 182.977 332.319 183.411 336.585C183.58 338.248 183.708 339.505 184.319 340.732C184.319 340.732 196.015 336.768 194.426 325.572C194.914 326.294 195.178 327.443 195.513 328.907C196.712 334.134 198.829 343.368 215.39 351.447C232.747 359.947 230.533 363.947 230.533 363.947C236.014 361.317 239.867 356.178 240.855 350.179C240.855 350.179 247.14 353.875 250.551 364.465C250.551 364.465 275.069 364.197 278.64 344.554C284.072 347.715 287.32 353.613 287.087 359.893C300.017 352.798 309.582 340.836 313.658 326.661C313.658 326.661 313.801 337.161 321.105 341.072C321.105 341.072 322.033 333.786 328.247 323.215ZM336.337 223.268C336.337 223.271 336.351 223.293 336.375 223.335C336.455 221.528 338.149 178.155 317.676 157C311.386 150.54 302.607 147.12 293.605 147.625C288.355 147.911 282.533 149.571 278.98 154.768C274.375 161.63 267.278 166.428 259.194 168.143C253.692 169.437 247.964 169.437 242.462 168.143C234.384 166.437 227.291 161.644 222.694 154.786C219.122 149.679 213.319 148.018 208.069 147.643C199.067 147.138 190.287 150.558 183.997 157.018C163.551 178.145 165.06 221.432 165.138 223.345C165.953 225.241 181.835 261.525 206.319 269.072C206.319 269.072 210.355 243.464 232.551 244.679C238.478 244.956 244.258 246.62 249.426 249.536C250.595 250.197 252.045 250.106 253.122 249.304L253.265 249.197C259.804 244.577 267.973 242.893 275.806 244.55C283.639 246.208 290.426 251.056 294.533 257.929C296.63 261.354 298.235 265.057 299.301 268.929C299.301 268.929 321.855 263.572 336.337 223.268Z" fill="#784A42"/>
<path fill-rule="evenodd" clip-rule="evenodd" d="M290.98 61.2147C290.408 49.7683 286.462 40.804 279.319 34.5718C268.574 25.2458 254.063 25.1791 250.126 25.3468L249.301 25.3933C235.783 25.4468 210.462 33.0183 210.462 61.3933C210.425 66.4524 211.323 71.4443 213.081 76.1262C205.778 73.9508 198.388 75.5445 197.944 75.6433L197.736 75.702C197.195 75.89 196.769 76.3229 196.594 76.8764C196.396 77.499 196.546 78.1798 196.987 78.6621C197.427 79.1444 198.092 79.3551 198.73 79.2147C198.831 79.1857 207.83 77.2737 214.968 80.7878L214.49 80.9104C170.909 92.4719 155.702 124.135 150.765 149.215L150.561 150.275C144.287 183.807 156.259 213.168 160.576 222.295L161.078 223.339C157.067 231.732 142.665 268.113 169.39 311.34L169.841 312.071C177.823 325.109 179.231 331.584 179.705 335.543L179.855 336.965C179.92 338.815 180.345 340.634 181.105 342.322C181.902 343.917 183.754 344.679 185.444 344.108C189.049 342.83 192.228 340.573 194.622 337.59C197.212 342.858 202.39 349.09 213.819 354.661L214.416 354.959C223.431 359.492 226.092 362.337 226.814 363.363L226.962 363.59C226.848 364.603 227.173 365.617 227.855 366.375C228.876 367.508 230.505 367.867 231.908 367.268C236.581 365.079 240.362 361.354 242.622 356.715C244.67 359.393 246.218 362.417 247.194 365.643C247.666 367.119 249.037 368.122 250.587 368.125L250.426 368.286C255.184 368.079 259.879 367.121 264.337 365.447C272.176 362.465 277.622 357.518 280.408 350.983C282.494 353.477 283.571 356.663 283.426 359.911C283.376 361.158 283.98 362.341 285.021 363.031C286.061 363.721 287.386 363.818 288.515 363.286C299.11 357.612 307.668 348.772 312.997 338C314.445 340.691 316.64 342.905 319.319 344.375C320.359 344.922 321.6 344.922 322.64 344.375C323.684 343.84 324.399 342.825 324.551 341.661C325.746 335.782 327.997 330.167 331.194 325.09L332.221 323.308C361.493 271.815 345.629 233.6 340.588 223.88L340.293 223.321C343.502 215.454 356.786 180.157 350.926 149.215C344.185 113.702 323.265 90.8801 288.726 81.3111C293.595 79.2909 301.437 77.7006 311.497 81.304C312.429 81.6344 313.453 81.1467 313.783 80.2147C314.114 79.2827 313.626 78.2594 312.694 77.929C302.372 74.2391 294.15 75.4518 288.627 77.4751C290.503 72.3006 291.315 66.7689 290.98 61.2147ZM163.868 281.468C157.795 259.321 161.966 241.356 165.283 232.054C171.462 243.875 185.64 266.608 205.283 272.679C206.272 272.981 207.343 272.84 208.22 272.292C209.097 271.744 209.693 270.843 209.855 269.822C209.997 268.858 213.676 247.34 232.372 248.393C237.732 248.634 242.961 250.126 247.64 252.75L248 252.947C250.304 254.118 253.085 253.909 255.194 252.375L255.372 252.233C260.94 248.188 267.96 246.689 274.694 248.108C281.694 249.542 287.782 253.825 291.497 259.929C293.421 263.062 294.888 266.453 295.855 270C296.361 271.866 298.261 272.99 300.14 272.536C301.069 272.322 321.747 266.983 336.658 232.393C340.698 242.725 346.071 263.776 338.244 291.31C337.993 279.313 333.859 271.788 332.693 269.904L332.286 269.28C331.934 268.811 331.369 268.54 330.774 268.569C330.104 268.6 329.509 269.005 329.232 269.615C328.955 270.226 329.044 270.94 329.462 271.465C331.809 275.479 333.35 279.913 333.997 284.518L334.084 285.062C334.871 290.21 335.05 297.36 332.961 306.07C330.817 311.035 328.233 316.161 325.14 321.429L324.429 322.655C322.333 326.355 320.586 330.243 319.212 334.268C318.038 331.915 317.369 329.342 317.247 326.715L317.231 326.423C317.074 324.786 315.809 323.451 314.155 323.228C312.403 322.991 310.742 324.071 310.247 325.768C307.571 334.872 302.505 343.042 295.634 349.459C297.61 343.847 298.261 337.496 297.444 330.75L297.361 330.018C296.091 317.935 300.316 311.632 301.444 310.195L301.865 309.694C302.191 309.252 302.298 308.678 302.144 308.141C301.968 307.528 301.477 307.055 300.858 306.9C300.238 306.746 299.584 306.934 299.14 307.393L299.12 307.413C298.616 307.935 291.958 315.279 293.89 331.179L293.987 332.045C294.813 340.108 293.374 347.494 289.872 353.467C288.319 348.424 284.909 344.149 280.319 341.518C279.308 341.009 278.115 341.009 277.105 341.518C276.084 342.017 275.361 342.972 275.158 344.09C273.499 352.869 266.833 357.113 260.852 359.162C273.774 344.676 265.771 321.982 265.336 320.796L265.232 320.558C264.974 320.062 264.495 319.712 263.935 319.621C263.305 319.519 262.669 319.761 262.265 320.255C261.862 320.75 261.753 321.422 261.98 322.018L261.986 322.036C262.286 322.864 271.609 348.597 253.505 360.835L253.015 360.893C249.322 351.712 243.689 347.91 242.789 347.354L242.4 347.136C241.931 346.907 241.415 346.786 240.89 346.786L240.908 346.822C239.127 346.802 237.604 348.097 237.337 349.858L237.237 350.428C236.793 352.697 235.811 354.814 234.389 356.605C235.507 347.298 231.254 340.623 223.52 333.009L222.444 331.965C220.149 329.76 218.263 327.166 216.872 324.304C216.606 323.711 216.039 323.31 215.391 323.256C214.743 323.203 214.118 323.505 213.758 324.046C213.397 324.587 213.359 325.281 213.658 325.858C215.224 329.104 217.359 332.043 219.962 334.536L221.091 335.641C229.13 343.642 231.926 349.495 230.674 357.071C227.852 354.367 223.307 351.519 216.98 348.429L216.273 348.079C203.046 341.421 200.459 334.271 199.295 329.488L199.015 328.286C198.756 326.696 198.212 325.165 197.408 323.768C196.479 322.385 194.717 321.828 193.161 322.426C191.605 323.024 190.671 324.619 190.908 326.268C191.408 329.556 190.151 332.842 187.641 334.958C188.707 326.601 189.375 311.751 182.997 301.072C182.494 300.224 181.399 299.944 180.551 300.447C179.703 300.95 179.423 302.045 179.926 302.893C184.004 309.661 184.892 318.538 184.714 325.969C183.138 321.517 180.396 315.652 175.497 307.733L174.685 306.399C172.023 301.964 169.824 297.613 168.023 293.372C165.698 277.193 169.938 271.473 170.665 270.629L170.919 270.358C171.486 269.69 171.488 268.69 170.89 268.018C170.239 267.28 169.112 267.208 168.372 267.858L168.353 267.875C167.991 268.209 164.485 271.679 163.868 281.468ZM212.194 306.911C213.11 307.012 213.789 307.784 213.794 308.684L213.783 308.893C213.614 311.548 213.794 314.214 214.319 316.822C214.408 317.288 214.307 317.771 214.039 318.163C213.771 318.555 213.357 318.824 212.89 318.911C212.776 318.917 212.662 318.905 212.551 318.875C211.683 318.891 210.93 318.281 210.765 317.429C210.17 314.493 209.983 311.488 210.212 308.5C210.32 307.514 211.208 306.803 212.194 306.911ZM281.908 156.768C284.247 153.411 288.247 151.554 293.801 151.25C301.774 150.788 309.554 153.811 315.122 159.536C331.688 176.661 332.876 210.147 332.85 220.301L332.825 222.394L332.546 223.162C322.507 250.413 308.65 260.562 302.102 264.004L301.444 264.34C300.387 261.513 299.066 258.793 297.497 256.215C292.76 248.424 284.998 242.952 276.069 241.108C267.381 239.296 258.333 241.242 251.158 246.465H251.069C245.456 243.276 239.176 241.441 232.73 241.108C215.194 240.215 206.676 254.125 203.73 264.322C185.223 256.026 172.238 230.241 169.103 223.538L168.694 222.653C168.568 217.158 168.254 178.452 186.569 159.554C192.129 153.817 199.915 150.791 207.89 151.268C213.426 151.572 217.426 153.429 219.765 156.786C224.86 164.372 232.704 169.68 241.64 171.59C247.679 172.992 253.959 172.992 259.997 171.59C268.949 169.683 276.807 164.367 281.908 156.768ZM250.765 83.7326C240.931 83.6659 231.116 84.6234 221.48 86.5897C221.261 86.6359 221.042 86.6611 220.824 86.6663L221.569 86.5004C177.408 95.9111 162.497 126.518 157.765 150.518C154.423 167.391 156.187 183.41 159.14 195.964C156.374 154.892 172.539 139.384 173.372 138.625C173.833 138.145 174.522 137.96 175.161 138.145C175.8 138.331 176.283 138.857 176.413 139.509C176.53 140.089 176.351 140.684 175.945 141.102L175.575 141.462C173.675 143.465 159.62 159.757 162.994 198.857C165.091 184.223 170.022 166.3 181.426 154.518C188.419 147.318 198.189 143.501 208.212 144.054C210.221 144.165 212.112 144.447 213.875 144.893C206.639 138.778 200.545 137.411 200.39 137.411C199.404 137.204 198.772 136.237 198.98 135.25C199.173 134.33 200.028 133.718 200.943 133.809L201.14 133.84C201.802 133.985 215.694 137.205 227.049 154.662C229.881 158.193 233.517 160.97 237.631 162.775C231.636 151.946 234.46 134.804 234.622 133.858C234.701 133.388 234.964 132.969 235.353 132.694C235.742 132.419 236.225 132.311 236.694 132.393C237.16 132.476 237.575 132.741 237.846 133.129C238.072 133.453 238.184 133.841 238.166 134.231L237.936 136.036C237.321 141.183 235.971 157.589 243.513 164.621L243.212 164.554C248.129 165.692 253.239 165.706 258.16 164.594L258.444 164.186C260.443 161.194 262.626 155.342 261.605 144.59C261.511 143.609 262.231 142.737 263.212 142.643C264.193 142.55 265.064 143.269 265.158 144.25C266.004 153.196 264.778 159.183 263.052 163.129C268.296 161.026 272.824 157.375 275.997 152.608C276.414 152.002 276.863 151.427 277.345 150.882L278.083 149.954C283.731 142.946 291.935 135.108 300.39 135.108C301.376 135.108 302.176 135.907 302.176 136.893C302.176 137.88 301.376 138.679 300.39 138.679C296.066 138.679 291.665 141.324 287.719 144.85C289.475 144.407 291.358 144.129 293.355 144.018C303.377 143.466 313.147 147.282 320.14 154.483C330.218 164.897 335.202 180.074 337.64 193.556C338.833 151.866 324.439 135.789 321.68 133.097L321.23 132.679C320.469 132.06 320.35 130.945 320.962 130.179C321.575 129.413 322.691 129.285 323.462 129.893L323.658 130.058C325.887 131.974 343.343 148.565 341.144 196.455C344.384 182.938 346.731 165.904 343.801 150.554C337.169 115.648 316.691 94.7842 281.193 86.8258L281.122 86.8218C271.147 84.6806 260.967 83.6446 250.765 83.7326ZM217.694 61.2147C217.694 58.9361 217.889 56.8375 218.248 54.8995C224.296 56.232 237.703 60.8442 249.614 76.4269C240.525 76.4486 231.455 77.2918 222.515 78.9468C219.319 73.5875 217.651 67.4549 217.694 61.2147ZM229.829 37.8894L229.425 38.1469C225.065 40.9651 221.157 45.1547 219.139 51.3823L219.758 51.5206C226.989 53.1978 241.473 58.7024 254.065 76.4464C262.329 76.5712 270.57 77.3844 278.703 78.8759C267.877 46.2076 239.559 39.3073 229.829 37.8894ZM249.053 32.3659L249.871 32.356C250.443 32.3046 264.881 31.2393 274.712 39.804C280.355 44.7147 283.462 51.9826 283.926 61.4111C284.234 66.4594 283.402 71.4978 281.508 76.1566C271.466 48.1931 248.576 38.6877 235.791 35.5137L234.954 35.3113C241.255 32.7849 247.28 32.4177 249.053 32.3659Z" fill="#372168"/>
<path fill-rule="evenodd" clip-rule="evenodd" d="M272.876 258.628C272.568 259.469 272.217 260.293 271.823 261.097C271.593 261.476 271.395 261.871 271.148 262.249C271.011 262.52 270.851 262.779 270.671 263.023C270.473 263.319 270.292 263.599 270.078 263.895C269.999 264.036 269.905 264.168 269.799 264.29L269.288 264.965C264.351 271.351 256.121 277.013 246.937 275.367C246.566 275.304 246.198 275.221 245.835 275.12C244.914 274.904 244.012 274.618 243.135 274.264L242.263 273.885C241.819 273.688 241.341 273.425 240.864 273.178L240.189 272.783L239.202 272.19C237.594 271.153 236.099 269.951 234.741 268.602C233.668 267.554 232.708 266.395 231.878 265.146C229.356 261.553 228.031 257.257 228.092 252.868C228.351 250.855 229.652 249.128 231.515 248.325C232.198 248.061 232.924 247.927 233.655 247.93C234.526 247.933 235.393 248.038 236.239 248.243C239.152 248.901 253.06 253.098 266.326 247.124L266.655 246.975C267.116 246.758 267.603 246.597 268.103 246.498C272.975 245.428 275.362 251.666 272.876 258.628Z" fill="#FF6666"/>
<path fill-rule="evenodd" clip-rule="evenodd" d="M246.46 278.033C247.687 278.255 248.932 278.365 250.18 278.362C259.166 278.362 266.951 272.569 271.494 266.677C271.559 266.59 271.633 266.503 271.703 266.421C271.845 266.254 271.971 266.107 271.971 266.018C272.137 265.835 272.286 265.637 272.416 265.426L272.959 264.603C273.179 264.305 273.378 263.992 273.551 263.665C273.716 263.401 273.864 263.138 274.012 262.875L274.21 262.496C274.215 262.447 274.215 262.397 274.21 262.348C274.662 261.457 275.057 260.539 275.395 259.599C277.271 254.267 276.794 249.016 274.193 246.037C272.506 244.12 269.891 243.302 267.412 243.914C266.7 244.072 266.009 244.316 265.355 244.638H265.157C253.735 249.79 241.655 246.795 237.671 245.807L237.671 245.807L236.848 245.609C235.771 245.343 234.666 245.21 233.556 245.214C232.516 245.216 231.485 245.406 230.512 245.774C227.809 246.902 225.885 249.35 225.426 252.242C225.417 252.379 225.417 252.517 225.426 252.654C225.322 257.644 226.797 262.54 229.639 266.644C230.603 268.046 231.706 269.347 232.931 270.528C234.435 272.028 236.089 273.368 237.869 274.527L239.514 275.548C240.074 275.844 240.634 276.124 241.16 276.371L242.131 276.782C243.117 277.176 244.129 277.5 245.16 277.753C245.588 277.871 246.022 277.965 246.46 278.033ZM234.034 263.615C231.941 260.563 230.796 256.962 230.742 253.263C231.318 251.287 232.157 250.975 232.388 250.892C232.751 250.757 233.136 250.69 233.524 250.695C234.195 250.697 234.864 250.78 235.515 250.942L236.289 251.123C240.7 252.226 254.097 255.567 267.264 249.675L267.741 249.444C268.002 249.338 268.272 249.255 268.548 249.197C269.079 249.012 269.669 249.176 270.029 249.609C271.115 250.843 271.51 254.036 270.194 257.756C269.929 258.479 269.627 259.187 269.288 259.879L269.091 260.208L268.712 260.866L268.614 261.031C268.538 261.186 268.45 261.335 268.35 261.475L268.251 261.607C268.135 261.794 268.01 261.972 267.883 262.154C267.83 262.228 267.778 262.304 267.725 262.381L267.527 262.66L267.429 262.792C267.338 262.934 267.228 263.075 267.106 263.233C267.072 263.277 267.036 263.322 267.001 263.368C262.869 268.865 255.479 274.198 247.25 272.717C247.132 272.703 247.014 272.668 246.893 272.633C246.728 272.585 246.559 272.536 246.378 272.536C245.593 272.344 244.823 272.097 244.074 271.795L243.3 271.466L242.148 270.873L240.617 269.968C239.156 269.016 237.798 267.913 236.568 266.676C235.62 265.746 234.771 264.72 234.034 263.615Z" fill="#372168"/>
<path fill-rule="evenodd" clip-rule="evenodd" d="M269.799 264.29L269.288 264.965C264.351 271.351 256.121 277.013 246.937 275.367C246.566 275.304 246.198 275.221 245.835 275.12C244.914 274.905 244.012 274.618 243.135 274.264L242.263 273.886C241.819 273.688 241.341 273.425 240.864 273.178L240.189 272.783L239.202 272.19C237.594 271.153 236.099 269.951 234.741 268.602C233.668 267.554 232.708 266.395 231.878 265.146C238.742 261.602 246.435 259.976 254.146 260.439C259.533 260.895 264.815 262.195 269.799 264.29Z" fill="#FF7D7D"/>
<path fill-rule="evenodd" clip-rule="evenodd" d="M246.46 278.033C247.687 278.255 248.932 278.365 250.18 278.362C259.166 278.362 266.951 272.569 271.411 266.627L271.988 265.854C272.456 265.187 272.6 264.345 272.38 263.56C272.159 262.775 271.599 262.131 270.852 261.805C265.61 259.601 260.057 258.224 254.393 257.723C246.137 257.235 237.903 258.987 230.561 262.792C229.907 263.164 229.436 263.789 229.261 264.521C229.094 265.25 229.231 266.016 229.639 266.644C230.603 268.046 231.706 269.347 232.931 270.528C234.435 272.028 236.089 273.368 237.869 274.528L239.514 275.548C240.074 275.844 240.634 276.124 241.16 276.371L242.131 276.782C243.117 277.176 244.129 277.5 245.16 277.753C245.587 277.871 246.022 277.965 246.46 278.033ZM236.091 266.101L236.091 266.101C241.751 263.847 247.833 262.853 253.916 263.187C257.791 263.528 261.613 264.318 265.305 265.541C260.96 270.166 254.475 274.001 247.332 272.717C247.214 272.703 247.096 272.669 246.975 272.634C246.81 272.585 246.641 272.536 246.46 272.536C245.675 272.344 244.905 272.097 244.156 271.795L243.382 271.466L242.23 270.874L240.699 269.968C239.238 269.017 237.881 267.913 236.651 266.677C236.453 266.496 236.272 266.298 236.091 266.101Z" fill="#372168"/>
<path d="M249.011 267.878C248.766 267.877 248.524 267.82 248.303 267.713C247.907 267.525 247.602 267.186 247.457 266.772C247.312 266.358 247.338 265.903 247.53 265.508C248.846 262.877 250.833 260.641 253.29 259.023C254.05 258.71 254.924 259.005 255.338 259.714C255.753 260.423 255.581 261.329 254.936 261.838C253.024 263.123 251.476 264.88 250.443 266.94C250.179 267.496 249.626 267.858 249.011 267.878Z" fill="#372168"/>
<path d="M250.806 241.583C246.906 241.635 243.239 239.731 241.038 236.512C240.101 235.062 240.517 233.127 241.967 232.19C243.417 231.253 245.351 231.669 246.288 233.119C247.375 234.533 249.063 235.354 250.846 235.336C252.629 235.319 254.301 234.464 255.36 233.03C256.257 231.55 258.184 231.078 259.663 231.976C261.143 232.873 261.614 234.8 260.717 236.28C258.556 239.646 254.806 241.653 250.806 241.583Z" fill="#372168"/>
<path d="M295.254 218.732C294.156 218.732 293.139 218.155 292.575 217.214C291.516 215.779 289.845 214.925 288.062 214.908C286.278 214.89 284.59 215.711 283.504 217.125C282.931 218.129 281.851 218.735 280.695 218.7C279.54 218.665 278.498 217.996 277.987 216.959C277.475 215.922 277.578 214.688 278.254 213.75C280.508 210.531 284.207 208.633 288.136 208.679C292.066 208.726 295.719 210.71 297.896 213.982C298.471 214.947 298.487 216.146 297.938 217.125C297.389 218.105 296.359 218.718 295.236 218.732H295.254Z" fill="#372168"/>
<path d="M222.027 218.643C220.937 218.647 219.926 218.077 219.366 217.143C218.307 215.708 216.636 214.853 214.852 214.836C213.069 214.818 211.381 215.64 210.294 217.053C209.688 217.991 208.628 218.534 207.513 218.479C206.398 218.423 205.397 217.776 204.888 216.782C204.379 215.788 204.438 214.598 205.044 213.661C207.304 210.449 211.001 208.557 214.927 208.604C218.853 208.65 222.505 210.629 224.687 213.893C225.12 214.6 225.251 215.45 225.054 216.255C224.856 217.06 224.345 217.752 223.634 218.178C223.153 218.482 222.596 218.643 222.027 218.643Z" fill="#372168"/>
<path d="M200.033 204.982C199.101 204.988 198.204 204.629 197.533 203.982C196.862 203.312 196.486 202.403 196.486 201.455C196.486 200.507 196.862 199.598 197.533 198.929C205.791 191.299 217.481 188.633 228.23 191.929C229.458 192.276 230.407 193.253 230.72 194.49C231.033 195.728 230.662 197.038 229.747 197.928C228.832 198.817 227.511 199.151 226.283 198.804C218.064 196.168 209.063 198.107 202.658 203.893C201.971 204.603 201.021 204.998 200.033 204.982Z" fill="#372168"/>
<path d="M301.372 204.982C300.409 204.978 299.488 204.585 298.819 203.893C292.408 198.104 283.401 196.165 275.176 198.804C273.299 199.277 271.386 198.169 270.864 196.305C270.341 194.441 271.398 192.5 273.247 191.929C283.99 188.629 295.678 191.295 303.926 198.929C304.597 199.598 304.973 200.507 304.973 201.455C304.973 202.403 304.597 203.312 303.926 203.982C303.242 204.642 302.323 205.002 301.372 204.982Z" fill="#372168"/>
<g opacity="0.45">
<path fill-rule="evenodd" clip-rule="evenodd" d="M319.265 216.482V220.339C319.265 225.467 317.227 230.384 313.6 234.008C309.972 237.632 305.053 239.666 299.926 239.661H279.497C277.591 239.666 275.694 239.384 273.872 238.822C273.029 238.573 272.206 238.263 271.408 237.893C264.555 234.737 260.163 227.884 260.158 220.339V216.482C260.168 205.808 268.824 197.161 279.497 197.161H299.926C310.6 197.161 319.255 205.808 319.265 216.482Z" fill="#8DABFF"/>
<path fill-rule="evenodd" clip-rule="evenodd" d="M240.569 216.482V220.34C240.574 225.465 238.539 230.383 234.915 234.007C231.29 237.632 226.373 239.666 221.247 239.661H200.837C198.862 239.668 196.897 239.367 195.015 238.768C194.172 238.506 193.348 238.183 192.551 237.804C191.525 237.304 190.55 236.706 189.64 236.018C184.533 232.409 181.502 226.54 181.515 220.286V216.429C181.515 205.758 190.166 197.107 200.837 197.107H221.283C226.411 197.117 231.324 199.164 234.941 202.798C238.559 206.432 240.583 211.355 240.569 216.482Z" fill="#8DABFF"/>
</g>
<g opacity="0.68">
<g style="mix-blend-mode:soft-light" opacity="0.8">
<path d="M291.033 197.161L268.48 236.214C266.841 235.084 265.389 233.704 264.176 232.125L284.354 197.161L291.033 197.161Z" fill="white"/>
</g>
<g style="mix-blend-mode:soft-light" opacity="0.8">
<path d="M297.89 197.161L273.872 238.822C273.029 238.573 272.206 238.263 271.408 237.893L294.926 197.161L297.89 197.161Z" fill="white"/>
</g>
</g>
<g opacity="0.68">
<g style="mix-blend-mode:soft-light" opacity="0.8">
<path d="M212.069 197.161L189.604 236.072C187.975 234.921 186.535 233.523 185.337 231.929L205.408 197.161H212.069Z" fill="white"/>
</g>
<g style="mix-blend-mode:soft-light" opacity="0.8">
<path d="M218.944 197.161L194.98 238.768C194.136 238.506 193.313 238.183 192.515 237.804L215.98 197.161H218.944Z" fill="white"/>
</g>
</g>
<path fill-rule="evenodd" clip-rule="evenodd" d="M279.497 243.25H299.944C312.586 243.23 322.827 232.982 322.837 220.339V216.5C322.827 203.858 312.586 193.609 299.944 193.589H279.497C266.855 193.609 256.614 203.858 256.604 216.5V220.339C256.614 232.982 266.855 243.23 279.497 243.25ZM263.747 216.5C263.757 207.803 270.8 200.752 279.497 200.732H299.944C308.641 200.752 315.684 207.803 315.694 216.5V220.339C315.684 229.037 308.641 236.088 299.944 236.107H279.497C270.8 236.088 263.757 229.037 263.747 220.339V216.5Z" fill="#372168"/>
<path fill-rule="evenodd" clip-rule="evenodd" d="M200.837 243.25H221.247C233.899 243.24 244.156 232.991 244.176 220.339V216.5C244.166 203.851 233.914 193.599 221.265 193.589H200.837C188.187 193.599 177.936 203.851 177.926 216.5V220.339C177.936 232.989 188.187 243.24 200.837 243.25ZM185.069 216.5C185.079 207.796 192.132 200.742 200.837 200.732H221.265C229.969 200.742 237.023 207.796 237.033 216.5V220.339C237.023 229.044 229.969 236.097 221.265 236.107H200.837C192.132 236.097 185.079 229.044 185.069 220.339V216.5Z" fill="#372168"/>
<path d="M260.176 220.072C259.551 220.072 258.936 219.912 258.39 219.607C249.212 214.482 242.783 219.268 242.712 219.322C241.707 220.181 240.311 220.416 239.081 219.931C237.851 219.447 236.989 218.323 236.841 217.009C236.692 215.696 237.282 214.408 238.372 213.661C238.783 213.34 248.64 205.982 261.872 213.375C263.307 214.169 264.017 215.837 263.595 217.421C263.173 219.005 261.726 220.098 260.087 220.072H260.176Z" fill="#372168"/>
<path d="M319.265 218.661C317.989 218.776 316.749 218.201 316.012 217.154C315.274 216.106 315.152 214.745 315.69 213.582C316.229 212.42 317.346 211.633 318.622 211.518L336.569 208.214C338.469 207.934 340.25 209.207 340.601 211.095C340.952 212.984 339.746 214.811 337.872 215.232L320.015 218.536C319.772 218.611 319.52 218.653 319.265 218.661Z" fill="#372168"/>
<path d="M181.48 218.661C181.236 218.678 180.991 218.678 180.747 218.661L162.747 214.893C161.497 214.632 160.481 213.723 160.082 212.509C159.684 211.295 159.963 209.961 160.814 209.009C161.666 208.057 162.961 207.632 164.212 207.893L182.212 211.661C184.184 211.863 185.619 213.626 185.417 215.599C185.215 217.571 183.452 219.006 181.48 218.804V218.661Z" fill="#372168"/>
</g>
<path fill-rule="evenodd" clip-rule="evenodd" d="M0 250C0 111.929 111.929 0 250 0C388.071 0 500 111.929 500 250C500 388.071 388.071 500 250 500C111.929 500 0 388.071 0 250ZM492.857 250C492.857 115.874 384.126 7.14286 250 7.14286C115.874 7.14286 7.14286 115.874 7.14286 250C7.14286 384.126 115.874 492.857 250 492.857C384.126 492.857 492.857 384.126 492.857 250Z" fill="#372168"/>
</svg>
