<svg width="500" height="500" viewBox="0 0 500 500" fill="none" xmlns="http://www.w3.org/2000/svg">
<path fill-rule="evenodd" clip-rule="evenodd" d="M250 496.429C386.099 496.429 496.429 386.099 496.429 250C496.429 113.901 386.099 3.57141 250 3.57141C113.901 3.57141 3.57141 113.901 3.57141 250C3.57141 386.099 113.901 496.429 250 496.429Z" fill="#E7EEFF"/>
<mask id="mask0_0_293" style="mask-type:alpha" maskUnits="userSpaceOnUse" x="3" y="3" width="494" height="494">
<path fill-rule="evenodd" clip-rule="evenodd" d="M250 496.429C386.099 496.429 496.429 386.099 496.429 250C496.429 113.901 386.099 3.57141 250 3.57141C113.901 3.57141 3.57141 113.901 3.57141 250C3.57141 386.099 113.901 496.429 250 496.429Z" fill="white"/>
</mask>
<g mask="url(#mask0_0_293)">
<path fill-rule="evenodd" clip-rule="evenodd" d="M336.74 210.585C337.919 197.482 339.687 159.822 324.533 135.107C306.015 105.089 275.623 96.321 249.926 96.7317C224.212 96.321 193.819 105.089 175.301 135.107C160.033 159.892 161.855 197.696 163.033 210.696C163.025 210.845 163.025 210.994 163.033 211.142C163.283 213.732 163.498 215.232 163.498 215.232C163.512 215.432 163.538 215.632 163.563 215.832C163.602 216.132 163.641 216.432 163.641 216.732C163.783 218.089 163.944 219.428 164.105 220.732C165.039 228.433 166.592 236.047 168.748 243.5L169.98 247.41C170.748 249.839 171.569 252.214 172.39 254.553C172.98 256.125 173.587 257.714 174.176 259.25C174.465 260.043 174.765 260.766 175.067 261.494L175.07 261.501C175.109 261.596 175.148 261.69 175.188 261.785C175.22 261.863 175.251 261.94 175.283 262.017C180.269 274.629 187.251 286.356 195.962 296.75L196.051 296.853V358.821C197.462 367.91 221.051 375.053 249.998 375.053C278.944 375.053 302.533 367.875 303.944 358.821V296.623L304.033 296.517C312.675 286.19 319.603 274.542 324.551 262.017C324.734 261.539 324.916 261.095 325.097 260.656C325.287 260.193 325.475 259.735 325.658 259.25C326.174 257.945 326.677 256.603 327.177 255.265L327.179 255.261L327.444 254.553L327.464 254.493C336.162 256.464 347.548 254.592 354.301 244.285C363.158 230.785 359.158 215.91 349.694 211.41C345.646 209.46 340.999 209.165 336.74 210.585ZM300.158 300.839L300.316 300.674C300.394 300.593 300.471 300.512 300.547 300.431C300.435 300.561 300.323 300.692 300.212 300.821C295.684 305.617 290.614 309.872 285.105 313.5C280.354 316.719 275.207 319.25 269.817 321.044C275.188 319.251 280.316 316.726 285.051 313.517C290.56 309.89 295.63 305.635 300.158 300.839Z" fill="#FFC7BB"/>
<path d="M145.426 244.357C152.194 254.714 163.658 256.553 172.373 254.535C171.087 250.964 169.837 247.279 168.623 243.482C166.636 236.637 165.168 229.653 164.23 222.589C163.962 220.678 163.73 218.732 163.516 216.75C163.442 216.252 163.394 215.752 163.373 215.25C163.373 215.25 163.194 214.125 162.998 212.142C162.908 211.839 162.908 211.5 162.908 211.16C162.9 211.006 162.9 210.851 162.908 210.696C159.436 209.548 155.693 209.504 152.194 210.571C151.413 210.823 150.649 211.128 149.908 211.482C140.551 215.91 136.498 230.785 145.426 244.357Z" fill="#FFC7BB"/>
<path d="M47.8727 424.411C82.0512 393.911 136.891 375.482 171.087 365.589L172.426 365.196C182.551 362.268 190.766 360.125 195.926 358.661C197.337 367.714 220.926 374.893 249.855 374.893C278.783 374.893 302.391 367.75 303.819 358.661H304.105C309.212 360.125 317.355 362.232 327.408 365.143L328.623 365.5C362.748 375.375 417.676 393.821 451.944 424.429C469.763 440.386 488.57 473.662 504.788 508.036H-5.00757C11.2115 473.626 30.0329 440.311 47.8727 424.411Z" fill="#F3B9AA"/>
<g style="mix-blend-mode:soft-light" opacity="0.4">
<path d="M282.694 393.25C271.915 395.66 260.9 396.858 249.855 396.821C213.319 396.821 182.301 384.696 171.069 365.786L172.408 365.393C182.533 362.464 190.748 360.321 195.908 358.857C197.319 367.911 220.908 375.089 249.837 375.089C278.766 375.089 302.373 367.946 303.801 358.857H304.087C309.194 360.321 317.337 362.428 327.391 365.339L328.605 365.696C323.087 375.053 312.748 382.75 299.283 388.143" fill="white"/>
</g>
<g style="mix-blend-mode:soft-light" opacity="0.4">
<path d="M282.694 393.25C271.915 395.66 260.9 396.858 249.855 396.821C213.319 396.821 182.301 384.696 171.069 365.786L172.408 365.393C182.533 362.464 190.748 360.321 195.908 358.857C197.319 367.911 220.908 375.089 249.837 375.089C278.766 375.089 302.373 367.946 303.801 358.857H304.087C309.194 360.321 317.337 362.428 327.391 365.339L328.605 365.696C323.087 375.053 312.748 382.75 299.283 388.143" fill="white"/>
</g>
<g style="mix-blend-mode:multiply" opacity="0.15">
<path fill-rule="evenodd" clip-rule="evenodd" d="M300.426 300.464V350.089C252.212 350.911 216.283 327.643 199.444 313.928V300.643L199.641 300.857C204.169 305.648 209.239 309.897 214.748 313.518C224.613 320.205 236.19 323.924 248.105 324.232H251.587C263.508 323.927 275.091 320.209 284.962 313.518C290.474 309.886 295.549 305.632 300.087 300.839L300.426 300.464Z" fill="#7C3830"/>
</g>
<path fill-rule="evenodd" clip-rule="evenodd" d="M251.152 93.1641L249.962 93.1781C230.373 92.821 194.194 97.6424 172.23 133.25C158.439 155.629 157.983 187.506 159.001 204.934L159.087 206.315C156.403 206.103 153.687 206.402 151.087 207.214C150.176 207.524 149.282 207.882 148.409 208.285C143.178 210.957 139.352 215.753 137.909 221.446C135.765 230.012 137.425 239.087 142.462 246.339C147.607 254.317 156.526 259.05 166.016 258.839L167.028 258.822C168.04 258.79 169.049 258.71 170.053 258.583L170.784 260.5C171.159 261.464 171.534 262.41 171.927 263.357C176.861 275.85 183.709 287.497 192.223 297.879L192.354 298.037V356.098L188.069 357.285C184.085 358.363 179.226 359.688 173.755 361.258L171.373 361.946L170.069 362.321C112.48 379.053 71.7302 398.464 45.4623 421.91C27.0201 438.376 7.7464 472.482 -8.92859 508.036H508.88C483.311 453.62 464.734 431.125 454.427 421.91C428.683 398.928 389.049 379.743 333.434 363.317L330.247 362.382C330.132 362.332 330.013 362.288 329.891 362.25L328.605 361.875C325.415 360.96 322.417 360.117 319.645 359.348L312.909 357.5L307.515 356.003L307.516 297.952C316.05 287.568 322.913 275.914 327.855 263.41C328.248 262.464 328.641 261.517 328.998 260.553L329.739 258.58C331.062 258.749 332.395 258.836 333.73 258.839C343.241 259.023 352.163 254.248 357.284 246.232L357.707 245.605C362.405 238.451 363.911 229.648 361.837 221.321C360.389 215.644 356.571 210.864 351.355 208.196C350.249 207.67 349.103 207.234 347.927 206.892C345.562 206.254 343.118 206.029 340.7 206.217C341.81 189.108 341.672 156.189 327.552 133.25C306.027 98.3545 270.902 93.0433 251.152 93.1641ZM269.785 377.57C290.132 375.225 302.072 369.286 306.105 363.035L311.034 364.392C313.25 364.995 315.69 365.662 318.34 366.399L323.087 367.732C317.694 374.535 309.194 380.375 298.177 384.803L297.9 384.917C296.821 385.417 296.055 386.427 295.873 387.616C295.675 388.904 296.194 390.197 297.228 390.99C298.261 391.784 299.644 391.951 300.837 391.428C314.192 386.063 324.337 378.648 330.398 369.848C384.808 385.824 424.936 405.127 449.677 427.214C465.576 441.411 482.459 470.211 497.431 500.893H2.49725C17.4298 470.292 34.3358 441.409 50.2659 427.214C74.4284 405.681 113.294 386.761 165.955 370.963L169.567 369.891C182.446 388.485 213.532 400.357 249.944 400.357C261.28 400.389 272.582 399.15 283.641 396.66C285.564 396.221 286.767 394.307 286.328 392.383C285.89 390.46 283.975 389.257 282.052 389.696C271.53 392.045 260.778 393.201 249.998 393.142C217.212 393.142 189.319 383.303 176.962 367.75L193.989 363.121C199.241 371.156 217.533 378.642 249.944 378.642C257.276 378.642 263.886 378.258 269.785 377.57ZM287.016 316.535C276.567 323.572 264.324 327.476 251.73 327.785H247.962C235.4 327.452 223.195 323.536 212.784 316.5C208.036 313.372 203.599 309.801 199.532 305.836L199.502 357.824C199.552 357.974 199.592 358.128 199.623 358.285C200.471 363.724 219.636 371.311 249.021 371.479L249.909 371.482C277.046 371.482 295.707 365.162 299.621 359.87C300.017 359.328 300.258 358.797 300.337 358.285L300.339 305.787C296.253 309.785 291.792 313.384 287.016 316.535ZM248.302 100.303L251.078 100.276C269.308 100.221 301.704 105.044 321.409 136.964C335.694 160.156 334.322 196.162 333.288 208.864L333.159 210.357V210.553L336.519 210.837H336.135L333.159 210.75C332.989 212.542 332.828 213.769 332.755 214.332L332.754 214.335C332.745 214.403 332.738 214.461 332.732 214.509C332.719 214.605 332.712 214.662 332.712 214.678V214.928C332.699 215.09 332.679 215.249 332.659 215.411C332.624 215.694 332.587 215.984 332.587 216.303C331.713 225.137 330.046 233.875 327.605 242.41C326.48 246.089 325.284 249.767 324.034 253.232L323.587 254.428C323.373 255.053 323.127 255.723 322.893 256.348L322.266 258C321.927 258.892 321.569 259.785 321.194 260.678C316.39 272.852 309.661 284.174 301.266 294.214L301.541 293.875C301.492 293.92 301.444 293.966 301.397 294.014C301.339 294.073 301.284 294.133 301.23 294.196C299.909 295.75 298.694 297.125 297.48 298.375L296.471 299.426C292.398 303.594 287.887 307.313 283.016 310.517L282.167 311.082L281.308 311.633C276.362 314.645 271.646 316.663 267.436 318.012C262.324 319.601 256.993 320.493 251.587 320.642H248.105C239.347 320.394 230.786 318.201 223.029 314.26C220.856 313.154 218.746 311.911 216.712 310.535C211.443 307.054 206.589 302.98 202.248 298.392C201.159 297.232 199.98 295.946 198.677 294.428C190.21 284.318 183.426 272.91 178.587 260.642C178.23 259.768 177.873 258.892 177.516 257.982C176.891 256.464 176.284 254.892 175.73 253.375L175.58 252.944L175.579 252.941L175.578 252.938L175.576 252.932C175.575 252.929 175.574 252.926 175.572 252.923C175.106 251.586 174.635 250.237 174.178 248.878L173.355 246.357C172.944 245.071 172.534 243.785 172.141 242.5C170.036 235.233 168.513 227.811 167.587 220.303C167.427 219.017 167.266 217.696 167.123 216.357C166.998 215.892 166.998 215.446 166.998 214.982C167.006 214.899 167.006 214.815 166.998 214.732L166.587 211.214L166.587 210.732C166.587 210.456 166.555 210.187 166.494 209.929C165.464 198.282 163.584 160.847 178.284 137C197.802 105.339 229.802 100.303 248.302 100.303ZM340.643 213.53L340.123 213.616L339.933 215.214L339.873 215.625C339.82 215.945 339.796 216.314 339.773 216.682L339.762 216.851C339.758 216.919 339.753 216.986 339.748 217.053C339.023 224.437 337.766 231.757 335.988 238.955C338.388 238.847 340.629 237.623 342.016 235.607C343.735 233.252 344.017 230.142 342.748 227.517C342.211 226.689 342.446 225.582 343.275 225.044C344.103 224.507 345.211 224.743 345.748 225.571C347.598 229.133 347.473 233.398 345.418 236.845C343.363 240.293 339.671 242.432 335.659 242.5C335.46 242.513 335.261 242.52 335.062 242.52L334.498 244.535C333.762 246.947 332.998 249.344 332.204 251.703C339.594 252.363 346.754 249.003 350.973 242.933L351.302 242.446C355.205 236.917 356.538 229.975 354.962 223.392C354.069 219.691 351.631 216.55 348.266 214.767C347.525 214.409 346.754 214.116 345.962 213.892C344.423 213.462 342.821 213.318 341.236 213.462L340.643 213.53ZM153.302 213.982C154.594 213.567 155.944 213.357 157.288 213.355L157.858 213.363C158.449 213.382 159.039 213.44 159.623 213.535L159.766 214.778C159.798 215.043 159.83 215.258 159.862 215.424L159.903 215.884C159.908 215.928 159.914 215.972 159.919 216.015C159.931 216.109 159.944 216.202 159.957 216.294C159.996 216.583 160.034 216.854 160.034 217.089C160.248 219.071 160.48 221.017 160.748 222.928C160.739 222.975 160.739 223.024 160.748 223.071C161.447 228.403 162.446 233.691 163.741 238.91C161.181 238.928 158.757 237.683 157.284 235.553C155.583 233.192 155.303 230.092 156.552 227.464C157.086 226.64 156.855 225.539 156.034 225C155.636 224.737 155.151 224.644 154.685 224.741C154.219 224.839 153.811 225.118 153.552 225.517C151.68 229.098 151.806 233.395 153.883 236.86C155.96 240.326 159.69 242.462 163.73 242.5C164.045 242.505 164.359 242.495 164.672 242.469L164.672 242.466L164.909 242.446C164.83 242.455 164.751 242.462 164.672 242.469C164.859 243.147 165.051 243.824 165.248 244.5C165.98 246.928 166.73 249.303 167.516 251.642C159.912 252.349 152.541 248.797 148.355 242.41L147.977 241.851C144.401 236.397 143.237 229.695 144.784 223.339C145.676 219.622 148.13 216.471 151.516 214.696C152.095 214.42 152.692 214.181 153.302 213.982Z" fill="#372168"/>
<path fill-rule="evenodd" clip-rule="evenodd" d="M430.837 432.821C424.296 427.042 417.324 421.77 409.98 417.053C409.444 416.705 408.764 416.67 408.194 416.96C407.625 417.251 407.254 417.822 407.221 418.46C407.188 419.098 407.498 419.705 408.034 420.053C415.224 424.672 422.053 429.83 428.462 435.482C428.785 435.775 429.204 435.94 429.641 435.946C430.154 435.945 430.642 435.724 430.98 435.339C431.635 434.604 431.571 433.477 430.837 432.821ZM164.909 242.446C164.83 242.455 164.751 242.462 164.672 242.469L164.672 242.466L164.909 242.446Z" fill="#372168"/>
<path d="M260.391 295.616C259.89 295.62 259.411 295.39 259.07 294.982C256.579 292.661 253.388 291.477 250.141 291.668C246.915 291.473 243.738 292.603 241.213 294.843C240.78 295.412 240.097 295.664 239.443 295.495C238.79 295.325 238.277 294.764 238.116 294.04C237.954 293.317 238.171 292.554 238.677 292.065C245.457 286.174 254.998 286.256 261.695 292.263C262.189 292.84 262.326 293.688 262.042 294.419C261.758 295.15 261.108 295.621 260.391 295.616Z" fill="#372168"/>
<g style="mix-blend-mode:multiply" opacity="0.15">
<path fill-rule="evenodd" clip-rule="evenodd" d="M220.497 245.119C220.497 256.019 212.502 264.856 202.64 264.856C192.778 264.856 184.783 256.019 184.783 245.119C184.783 234.219 192.778 225.382 202.64 225.382C212.502 225.382 220.497 234.219 220.497 245.119ZM316.926 245.119C316.926 256.019 308.931 264.856 299.069 264.856C289.207 264.856 281.212 256.019 281.212 245.119C281.212 234.219 289.207 225.382 299.069 225.382C308.931 225.382 316.926 234.219 316.926 245.119Z" fill="#FF1300"/>
</g>
<path fill-rule="evenodd" clip-rule="evenodd" d="M313.656 106.958C313.662 106.941 313.667 106.924 313.673 106.907C317.512 95.5502 310.869 82.0145 300.958 71.9967C285.673 56.711 266.494 67.6931 266.494 67.6931C249.941 60.1574 239.423 70.7467 239.423 70.7467C213.084 65.8538 207.816 80.8895 207.816 80.8895C184.137 83.5145 179.244 99.711 179.244 99.711C162.289 99.5177 158.343 116.485 156.422 124.746C156.212 125.647 156.027 126.444 155.851 127.104C154.387 132.318 163.119 130.747 166.691 127.318C163.798 131.443 156.459 144.497 154.334 172.711C152.137 201.836 166.084 233.979 166.084 233.979C166.084 233.979 163.244 202.015 170.387 191.479C172.07 188.996 173.66 187.118 175.156 185.349C180.011 179.613 183.882 175.038 186.762 154.782C186.762 154.782 190.905 138.068 204.441 143.336C214.058 147.079 217.599 144.935 222.623 141.894C224.669 140.655 226.962 139.267 230.012 138.068C235.794 135.955 242.179 136.224 247.762 138.818C250.409 139.984 253.159 140.899 255.976 141.55C272.693 145.498 282.113 142.858 288.751 137.792C289.498 138.887 299.984 153.888 314.78 154.782C321.769 155.206 323.864 163.206 325.949 171.174C327.12 175.644 328.288 180.105 330.316 183.211C335.959 191.854 336.244 212.247 332.816 232.818C343.912 212.496 348.751 189.347 346.726 166.282C342.628 121.498 315.586 107.875 313.656 106.958Z" fill="#FFD87A"/>
<path fill-rule="evenodd" clip-rule="evenodd" d="M303.298 69.4076L304.224 70.352C312.828 79.3214 320.322 92.5848 317.78 105.065L318.755 105.665C327.056 110.918 346.892 127.362 350.423 165.961C352.525 189.81 347.457 213.743 335.869 234.693C335.216 235.752 334.059 236.395 332.816 236.39C332.388 236.39 331.964 236.312 331.566 236.158C329.968 235.558 329.018 233.912 329.298 232.229C332.869 211.247 332.012 192.318 327.334 185.158C325.066 181.073 323.44 176.665 322.512 172.086L321.895 169.785C320.015 162.95 318.272 158.58 314.566 158.354C301.637 157.563 291.927 147.565 287.845 142.534C279.5 147.499 268.943 148.266 254.994 144.961C251.933 144.26 248.943 143.273 246.066 142.015C241.36 139.81 235.973 139.56 231.084 141.318C229.037 142.162 227.059 143.161 225.166 144.305L223.599 145.274C218.489 148.386 213.714 150.827 202.905 146.675C200.768 145.665 198.291 145.665 196.155 146.675C192.584 148.461 190.584 153.568 190.03 155.604L189.756 157.452C186.89 176.115 182.894 181.521 178.307 186.956L177.637 187.747C176.018 189.601 174.503 191.545 173.101 193.568C167.834 201.336 168.637 225.211 169.405 233.747C169.564 235.496 168.429 237.101 166.726 237.533C166.557 237.554 166.386 237.563 166.215 237.562L165.959 237.55C164.635 237.548 163.43 236.816 162.813 235.661L162.691 235.408C162.101 234.05 148.405 202.086 150.655 172.443L150.84 170.163C152.349 152.929 155.808 141.358 158.923 134.05C157.458 134.121 156.002 133.774 154.726 133.05C152.382 131.613 151.368 128.728 152.298 126.14C152.494 125.461 152.691 124.622 152.905 123.675L153.494 121.275C155.711 112.566 160.736 97.445 176.726 96.2112L176.963 95.7365C179.603 90.5832 187.107 80.2516 205.298 77.5862L205.613 77.0677C208.56 72.4051 217.091 63.5531 238.191 66.8719L238.777 66.4312C242.854 63.4623 252.64 58.2252 266.155 63.6755C274.334 59.7469 290.584 56.6933 303.298 69.4076ZM179.801 103.165L179.554 103.218C179.365 103.249 179.172 103.265 178.976 103.265H178.709C166.048 103.265 162.262 114.64 159.726 125.3C159.584 125.854 159.459 126.354 159.351 126.836C161.047 126.557 162.638 125.83 163.959 124.729C164.663 124.058 165.611 123.703 166.584 123.747C167.914 123.751 169.133 124.495 169.744 125.677C170.309 126.768 170.27 128.065 169.659 129.115L169.046 130.037C166.419 134.073 159.762 146.679 157.78 172.979C156.798 186.033 159.209 199.765 162.084 210.89C162.601 202.675 164.03 194.318 167.316 189.461C168.6 187.597 169.974 185.795 171.431 184.063L172.955 182.274C177.304 177.095 180.492 172.609 183.03 154.265V153.908L183.236 153.191C183.929 150.937 186.432 144.036 192.132 140.638L191.538 138.644C189.931 133.429 187.953 129.542 177.994 126.443C177.385 126.252 176.924 125.75 176.785 125.127C176.646 124.503 176.851 123.853 177.321 123.421C177.791 122.989 178.456 122.841 179.066 123.033C191.842 127.013 193.62 132.974 195.449 139.261C198.75 138.355 202.292 138.597 205.476 139.997C213.459 143.104 215.816 141.675 220.512 138.818C223.027 137.22 225.68 135.851 228.441 134.729C230.247 134.061 232.105 133.595 233.983 133.33C222.101 110.44 195.093 104.678 180.779 103.258L179.801 103.165ZM315.146 112.298L315.369 111.908C322.601 116.675 340.155 131.711 343.334 166.533C344.593 181.172 342.991 195.916 338.619 209.943C338.744 198.336 337.369 187.497 333.262 181.193C331.448 177.731 330.137 174.027 329.369 170.193L329.364 170.175C327.204 161.946 324.523 151.729 314.959 151.14L314.3 151.089C305.336 150.252 298.075 143.355 294.302 139.071L293.53 138.175L293.601 138.247C296.11 135.755 298.428 133.081 300.534 130.244C304.147 134.398 311.883 140.697 326.441 142.425H326.655L326.637 142.461C327.623 142.52 328.471 141.769 328.53 140.783C328.589 139.796 327.838 138.949 326.851 138.89L326.047 138.788C313.043 137.046 306.281 131.455 303.212 127.913L302.689 127.287C305.008 124.1 307.589 121.113 310.405 118.354C312.188 116.7 313.712 114.785 314.923 112.675L315.146 112.298ZM271.58 69.2252L270.721 69.5445C277.341 72.7685 285.343 78.2713 290.28 87.2826C290.508 87.6992 290.562 88.1896 290.427 88.6453C290.293 89.1011 289.983 89.4847 289.566 89.7112C289.302 89.8533 289.008 89.927 288.709 89.9255C288.054 89.9273 287.451 89.571 287.137 88.9969C281.73 79.1155 271.942 73.7634 265.383 71.1406C265.171 71.09 264.964 71.0177 264.762 70.9255L264.29 70.7167L263.493 70.4244C261.559 69.7314 260.066 69.3191 259.293 69.1217L258.709 68.979C258.637 68.9637 258.567 68.9442 258.499 68.9209C251.084 67.5626 245.757 70.2826 243.268 71.9966L244.302 72.3843C255.297 76.6091 270.352 85.7503 276.637 104.961C276.942 105.898 276.431 106.905 275.494 107.211C275.344 107.265 275.188 107.301 275.03 107.318C274.225 107.358 273.493 106.853 273.244 106.086C266.533 85.569 248.982 77.3827 238.776 74.2843L238.645 74.2684L238.512 74.2469C217.622 70.3665 211.987 79.808 211.068 81.7212L212.15 81.9757C224.295 84.9171 244.442 92.6011 258.619 112.104C259.016 112.648 259.074 113.368 258.769 113.968C258.463 114.568 257.846 114.945 257.173 114.943V114.89C256.601 114.891 256.064 114.619 255.726 114.158C240.423 93.0837 217.211 86.5063 206.817 84.5642C189.716 86.8448 184.101 96.7623 182.743 99.8467C187.939 100.421 193.087 101.415 198.137 102.818C217.126 108.055 230.855 118.517 237.871 133.068C241.664 133.086 245.447 133.912 248.959 135.533C251.394 136.617 253.93 137.46 256.53 138.05C274.173 142.229 282.03 138.247 286.405 134.89C289.998 131.858 293.153 128.342 295.78 124.443L296.476 123.497C299.089 119.848 302.017 116.437 305.226 113.3C306.584 112.08 307.73 110.644 308.619 109.05C309.123 108.217 309.554 107.341 309.906 106.433L310.155 105.747C313.726 95.0326 306.316 82.6398 298.173 74.5148C288.651 64.98 277.251 67.206 271.58 69.2252ZM263.066 118.961C262.833 118.545 262.444 118.239 261.984 118.111C261.525 117.984 261.033 118.046 260.619 118.283C259.769 118.773 259.474 119.858 259.959 120.711C261.792 123.957 263.379 127.336 264.709 130.818C264.976 131.511 265.644 131.966 266.387 131.961C266.6 131.963 266.812 131.927 267.012 131.854C267.459 131.686 267.821 131.346 268.015 130.91C268.21 130.474 268.222 129.978 268.048 129.533C266.652 125.89 264.987 122.356 263.066 118.961Z" fill="#372168"/>
<path d="M256.712 269.518H247.158C246.172 269.518 245.372 268.718 245.372 267.732C245.372 266.746 246.172 265.946 247.158 265.946H256.712C257.698 265.946 258.497 266.746 258.497 267.732C258.497 268.718 257.698 269.518 256.712 269.518Z" fill="#372168"/>
<path d="M247.783 263.018C242.695 263.025 237.721 261.514 233.497 258.678C232.569 258.04 232.052 256.956 232.14 255.833C232.228 254.71 232.909 253.719 233.926 253.235C234.942 252.75 236.14 252.844 237.069 253.482C240.234 255.618 243.964 256.762 247.783 256.768C253.997 256.768 260.962 255.464 265.497 245.857C265.928 244.779 266.922 244.028 268.077 243.909C269.233 243.789 270.359 244.32 271.002 245.288C271.644 246.255 271.698 247.499 271.14 248.518C266.533 258.268 258.89 263.018 247.783 263.018Z" fill="#372168"/>
<path d="M250.806 241.583C246.906 241.635 243.239 239.731 241.038 236.512C240.101 235.062 240.517 233.127 241.967 232.19C243.417 231.253 245.351 231.669 246.288 233.119C247.375 234.533 249.063 235.354 250.846 235.336C252.629 235.319 254.301 234.464 255.36 233.03C256.257 231.55 258.184 231.078 259.663 231.976C261.143 232.873 261.614 234.8 260.717 236.28C258.556 239.646 254.806 241.653 250.806 241.583Z" fill="#372168"/>
<path d="M214.794 218.393C210.89 218.444 207.221 216.533 205.027 213.304C204.424 212.363 204.369 211.171 204.882 210.179C205.396 209.186 206.4 208.543 207.516 208.491C208.632 208.44 209.692 208.988 210.294 209.929C211.378 211.342 213.063 212.164 214.844 212.146C216.624 212.128 218.293 211.274 219.348 209.839C219.925 208.882 220.969 208.306 222.087 208.328C223.204 208.349 224.225 208.965 224.765 209.944C225.305 210.922 225.282 212.114 224.705 213.071C222.556 216.453 218.8 218.47 214.794 218.393Z" fill="#372168"/>
<path d="M287.935 218.232C284.04 218.285 280.378 216.38 278.185 213.161C277.248 211.711 277.664 209.776 279.114 208.839C280.563 207.902 282.498 208.318 283.435 209.768C284.508 211.192 286.188 212.03 287.971 212.03C289.754 212.03 291.434 211.192 292.507 209.768C293.087 208.811 294.134 208.236 295.253 208.261C296.372 208.285 297.393 208.904 297.932 209.886C298.47 210.867 298.444 212.061 297.864 213.018C295.676 216.353 291.923 218.324 287.935 218.232Z" fill="#372168"/>
<path d="M197.783 202.053C196.446 202.056 195.219 201.312 194.604 200.125C194.167 199.282 194.083 198.3 194.371 197.395C194.659 196.491 195.296 195.738 196.14 195.303C196.854 194.946 213.997 186.375 231.319 195.303C232.454 195.887 233.192 197.032 233.254 198.308C233.317 199.583 232.694 200.795 231.621 201.486C230.547 202.178 229.186 202.244 228.051 201.661C213.89 194.375 199.479 201.661 199.479 201.661C198.955 201.93 198.372 202.064 197.783 202.053Z" fill="#372168"/>
<path d="M303.997 195.178C303.426 195.181 302.863 195.046 302.354 194.786C288.194 187.5 273.783 194.786 273.783 194.786C272.027 195.688 269.873 194.996 268.97 193.241C268.068 191.485 268.76 189.331 270.515 188.428C271.229 188.071 288.372 179.5 305.694 188.428C307.161 189.18 307.923 190.84 307.537 192.443C307.151 194.046 305.718 195.177 304.069 195.178H303.997Z" fill="#372168"/>
<g opacity="0.7">
<path fill-rule="evenodd" clip-rule="evenodd" d="M243.622 206.607C242.836 215.786 238.586 236.25 214.015 236.25C210.54 236.289 207.073 235.899 203.694 235.089C203.146 234.958 202.61 234.815 202.086 234.661C201.077 234.358 200.087 233.994 199.122 233.571C198.135 233.156 197.174 232.679 196.247 232.143C195.09 231.469 193.997 230.692 192.979 229.821C191.283 228.396 189.819 226.715 188.64 224.839C185.205 219.087 183.874 212.321 184.872 205.696C185.173 203.721 186.874 202.263 188.872 202.268H239.586C240.712 202.265 241.787 202.731 242.553 203.555C243.319 204.379 243.707 205.485 243.622 206.607Z" fill="#FFD87A"/>
<path fill-rule="evenodd" clip-rule="evenodd" d="M288.372 236.232C285.134 236.264 281.907 235.85 278.783 235C278.229 234.857 277.694 234.679 277.194 234.5C276.204 234.166 275.237 233.767 274.301 233.304C273.329 232.853 272.397 232.321 271.515 231.714C270.398 230.985 269.347 230.161 268.372 229.25C266.74 227.717 265.317 225.976 264.14 224.071C261.019 218.74 259.185 212.754 258.783 206.589C258.693 205.464 259.078 204.353 259.845 203.525C260.612 202.698 261.69 202.229 262.819 202.232H313.533C315.531 202.227 317.232 203.685 317.533 205.661C318.854 214.268 316.926 236.232 288.372 236.232Z" fill="#FFD87A"/>
</g>
<g opacity="0.49">
<g style="mix-blend-mode:soft-light" opacity="0.8">
<path d="M286.319 202.232L268.462 229.25C266.83 227.717 265.407 225.976 264.229 224.071L278.747 202.232H286.319Z" fill="white"/>
</g>
<g style="mix-blend-mode:soft-light" opacity="0.8">
<path d="M294.944 202.232L274.301 233.304C273.329 232.853 272.398 232.321 271.515 231.714L291.158 202.232L294.944 202.232Z" fill="white"/>
</g>
<g style="mix-blend-mode:soft-light" opacity="0.8">
<path d="M300.551 202.232L278.783 235C278.229 234.857 277.694 234.679 277.194 234.5L298.622 202.232H300.551Z" fill="white"/>
</g>
</g>
<g opacity="0.49">
<g style="mix-blend-mode:soft-light" opacity="0.8">
<path d="M211.319 202.232L192.979 229.821C191.283 228.396 189.819 226.715 188.64 224.839L203.64 202.268L211.319 202.232Z" fill="white"/>
</g>
<g style="mix-blend-mode:soft-light" opacity="0.8">
<path d="M219.944 202.232L199.122 233.554C198.135 233.139 197.174 232.661 196.247 232.125L216.104 202.232L219.944 202.232Z" fill="white"/>
</g>
<g style="mix-blend-mode:soft-light" opacity="0.8">
<path d="M225.551 202.232L203.694 235.071C203.146 234.941 202.61 234.798 202.086 234.643L223.64 202.232H225.551Z" fill="white"/>
</g>
</g>
<path fill-rule="evenodd" clip-rule="evenodd" d="M255.211 206.893C256.051 216.786 260.961 239.804 288.39 239.804C300.033 239.804 308.872 236.393 314.604 229.661C321.051 222.179 322.14 212.071 321.051 205.089C320.477 201.383 317.283 198.652 313.533 198.661H262.801C260.671 198.653 258.637 199.54 257.194 201.106C255.75 202.671 255.031 204.771 255.211 206.893ZM262.444 206.036C262.532 205.93 262.663 205.871 262.801 205.875H313.533C313.764 205.872 313.962 206.04 313.997 206.268C314.801 211.429 314.015 219.447 309.176 225.089C304.836 230.161 297.836 232.732 288.39 232.732C277.515 232.732 264.104 228.161 262.319 206.357C262.313 206.237 262.359 206.121 262.444 206.036Z" fill="#372168"/>
<path d="M317.354 218.911C315.586 218.917 314.08 217.629 313.812 215.881C313.544 214.134 314.595 212.453 316.283 211.929L336.64 205.536C338.524 204.944 340.53 205.992 341.122 207.875C341.714 209.759 340.667 211.766 338.783 212.357L318.426 218.732C318.081 218.852 317.719 218.913 317.354 218.911Z" fill="#372168"/>
<path fill-rule="evenodd" clip-rule="evenodd" d="M187.783 229.661C193.551 236.393 202.372 239.804 214.015 239.804C241.426 239.804 246.372 216.786 247.194 206.893C247.363 204.774 246.64 202.68 245.199 201.117C243.758 199.554 241.73 198.664 239.604 198.661H188.872C185.111 198.638 181.906 201.386 181.354 205.107C180.265 212.071 181.372 222.179 187.783 229.661ZM188.408 206.268C188.443 206.04 188.641 205.872 188.872 205.875H239.604C239.74 205.88 239.868 205.938 239.961 206.036C240.042 206.123 240.081 206.24 240.069 206.357C238.211 228.161 224.872 232.732 214.015 232.732C204.551 232.732 197.551 230.161 193.211 225.089C188.408 219.446 187.604 211.429 188.408 206.268Z" fill="#372168"/>
<path d="M261.747 223C261.168 223.004 260.597 222.863 260.087 222.589C254.522 219.755 247.937 219.755 242.372 222.589C241.259 223.227 239.89 223.223 238.781 222.578C237.672 221.933 236.991 220.745 236.995 219.462C236.999 218.179 237.688 216.995 238.801 216.357C246.503 212.385 255.652 212.385 263.354 216.357C264.791 217.132 265.519 218.783 265.123 220.366C264.727 221.95 263.308 223.063 261.676 223.071L261.747 223Z" fill="#372168"/>
<path d="M185.158 218.911C184.782 218.902 184.41 218.842 184.051 218.732L162.872 211.875C160.993 211.269 159.962 209.254 160.569 207.375C161.175 205.496 163.19 204.465 165.069 205.071L186.247 211.929C187.939 212.454 188.99 214.14 188.717 215.89C188.444 217.64 186.929 218.926 185.158 218.911Z" fill="#372168"/>
<path d="M258.747 208.804H243.497C241.525 208.804 239.926 207.205 239.926 205.232C239.926 203.26 241.525 201.661 243.497 201.661H258.747C260.72 201.661 262.319 203.26 262.319 205.232C262.319 207.205 260.72 208.804 258.747 208.804Z" fill="#372168"/>
<path fill-rule="evenodd" clip-rule="evenodd" d="M387.283 210.304V238.768C387.283 240.654 387.043 242.532 386.569 244.357C384.043 253.949 375.398 260.654 365.479 260.714H343.408C342.683 260.738 342.001 260.369 341.622 259.75C341.437 259.436 341.338 259.079 341.337 258.714V188.375H365.283C371.1 188.37 376.681 190.679 380.794 194.793C384.907 198.906 387.216 204.486 387.212 210.304H387.283Z" fill="#FFB07D"/>
<path fill-rule="evenodd" clip-rule="evenodd" d="M161.319 188.375V258.714C161.319 259.819 160.423 260.714 159.319 260.714H139.301C138.575 260.714 137.842 260.679 137.104 260.607C128.001 259.685 120.427 253.208 118.104 244.357C117.615 242.535 117.369 240.655 117.372 238.768V210.304C117.367 204.486 119.676 198.906 123.79 194.793C127.903 190.679 133.484 188.37 139.301 188.375L161.319 188.375Z" fill="#FFB07D"/>
<path fill-rule="evenodd" clip-rule="evenodd" d="M338.658 261.625C339.671 263.278 341.47 264.286 343.408 264.286H365.497C379.53 264.188 390.855 252.784 390.854 238.75V210.304C390.854 196.221 379.438 184.804 365.354 184.804H341.408C339.436 184.804 337.837 186.403 337.837 188.375V258.697C337.842 259.729 338.125 260.741 338.658 261.625ZM365.479 257.143H344.979V191.947H365.354C373.693 191.941 380.985 197.561 383.104 205.625C383.501 207.153 383.705 208.725 383.712 210.304V238.75C383.707 240.335 383.503 241.913 383.104 243.447C380.993 251.466 373.772 257.078 365.479 257.143Z" fill="#372168"/>
<path fill-rule="evenodd" clip-rule="evenodd" d="M363.819 217.018V213.036C363.819 208.469 367.52 204.768 372.086 204.768H386.551C387.025 206.587 387.265 208.459 387.265 210.339V238.804C387.265 240.689 387.025 242.568 386.551 244.393H372.069C369.876 244.393 367.773 243.522 366.222 241.971C364.672 240.421 363.801 238.318 363.801 236.125V231.339" fill="#FF6666"/>
<path fill-rule="evenodd" clip-rule="evenodd" d="M139.301 264.286H159.319C162.399 264.276 164.89 261.776 164.89 258.696V188.375C164.89 186.402 163.291 184.803 161.319 184.803H139.301C132.532 184.784 126.035 187.465 121.249 192.251C116.462 197.037 113.782 203.535 113.801 210.303V238.75C113.797 240.944 114.079 243.129 114.64 245.25C117.361 255.537 126.163 263.066 136.747 264.161C137.515 264.286 138.444 264.286 139.301 264.286ZM121.444 205.625C123.578 197.525 130.925 191.898 139.301 191.946L157.587 191.857V257.054H139.14H137.354C129.734 256.256 123.404 250.822 121.462 243.411C121.051 241.891 120.847 240.324 120.854 238.75V210.304C120.855 208.725 121.053 207.154 121.444 205.625Z" fill="#372168"/>
<path fill-rule="evenodd" clip-rule="evenodd" d="M138.819 231V236.089C138.819 238.285 137.945 240.391 136.391 241.942C134.836 243.493 132.729 244.362 130.533 244.357H118.033C117.544 242.534 117.298 240.655 117.301 238.768V210.304C117.3 208.424 117.541 206.551 118.015 204.732H130.515C132.711 204.727 134.819 205.596 136.373 207.147C137.927 208.698 138.801 210.804 138.801 213V219.143" fill="#FF6666"/>
<path d="M386.551 247.911H372.069C365.53 247.911 360.229 242.61 360.229 236.071V231.303C360.229 229.331 361.828 227.732 363.801 227.732C365.773 227.732 367.372 229.331 367.372 231.303V236.071C367.372 238.665 369.475 240.768 372.069 240.768H383.586C383.658 240.098 383.694 239.424 383.694 238.75V210.303C383.694 209.635 383.658 208.968 383.586 208.303H372.069C369.475 208.303 367.372 210.406 367.372 213V217.018C367.372 218.99 365.773 220.589 363.801 220.589C361.828 220.589 360.229 218.99 360.229 217.018V213.036C360.229 206.497 365.53 201.196 372.069 201.196H386.551C388.17 201.199 389.584 202.291 389.997 203.857C390.551 205.973 390.833 208.152 390.836 210.339V238.786C390.835 240.979 390.553 243.164 389.997 245.286C389.571 246.837 388.16 247.912 386.551 247.911Z" fill="#372168"/>
<path d="M130.533 247.911H118.033C116.424 247.912 115.013 246.837 114.587 245.286C114.014 243.154 113.725 240.957 113.729 238.75V210.304C113.726 208.117 114.002 205.938 114.551 203.821C114.965 202.249 116.389 201.156 118.015 201.161H130.515C137.057 201.161 142.362 206.458 142.372 213V219.143C142.372 221.115 140.773 222.714 138.801 222.714C136.828 222.714 135.229 221.115 135.229 219.143V213.036C135.22 210.439 133.112 208.339 130.515 208.339H121.033C120.961 209.003 120.925 209.671 120.926 210.339V238.786C120.925 239.46 120.961 240.133 121.033 240.804H130.515C133.112 240.804 135.22 238.704 135.229 236.107V231.036C135.229 229.063 136.828 227.464 138.801 227.464C140.773 227.464 142.372 229.063 142.372 231.036V236.107C142.343 242.628 137.054 247.901 130.533 247.911Z" fill="#372168"/>
<path fill-rule="evenodd" clip-rule="evenodd" d="M360.712 188.375H341.39C340.375 178.26 337.971 168.334 334.247 158.875C333.89 157.929 333.515 157 333.122 156.071C332.194 153.839 331.176 151.643 330.104 149.5L329.854 149.018C322.807 134.987 312.373 122.933 299.497 113.946C297.569 112.607 295.604 111.357 293.569 110.196C291.908 109.232 290.212 108.321 288.479 107.5C282.033 104.312 275.194 101.988 268.14 100.589H267.694L267.104 100.482C256.645 98.5535 245.921 98.5535 235.462 100.482L234.872 100.589H234.426C227.372 101.988 220.533 104.312 214.087 107.5C212.301 108.321 210.658 109.286 208.997 110.196C206.962 111.357 204.997 112.607 203.069 113.946C190.193 122.933 179.759 134.987 172.712 149.018L172.462 149.5C171.39 151.643 170.372 153.839 169.444 156.071C169.051 157 168.676 157.857 168.319 158.875C164.595 168.334 162.191 178.26 161.176 188.375H141.908C146.997 140.946 170.158 108.911 202.122 93.375C203.706 92.506 205.366 91.6845 207.104 90.9107C208.89 90.0893 210.837 89.3215 212.801 88.625C213.89 88.2322 214.997 87.8572 216.122 87.5179L216.997 87.25C227.838 84.022 239.097 82.4153 250.408 82.4822H252.194C263.505 82.4153 274.764 84.022 285.604 87.25L286.479 87.5179C287.604 87.8572 288.712 88.2322 289.801 88.625C291.765 89.3215 293.658 90.0893 295.497 90.9107C297.337 91.7322 298.89 92.5 300.479 93.375C332.462 108.911 355.622 140.946 360.712 188.375Z" fill="#CFDDFF"/>
<path fill-rule="evenodd" clip-rule="evenodd" d="M341.39 191.946H360.712L360.729 192.054C361.749 192.06 362.722 191.63 363.404 190.873C364.087 190.115 364.413 189.103 364.301 188.089C359.319 142.089 337.319 107.411 302.176 90.3036C300.587 89.3929 299.015 88.6429 297.015 87.75C295.015 86.8572 293.015 86.0536 291.069 85.375C289.926 84.9464 288.747 84.5536 287.622 84.2143L286.712 83.9464C275.529 80.614 263.915 78.9532 252.247 79.0179H250.462C238.812 78.9537 227.217 80.6084 216.051 83.9286L215.158 84.1964C213.872 84.5536 212.712 84.9464 211.587 85.3572C209.965 85.8539 208.2 86.6256 206.633 87.3104C206.285 87.4625 205.947 87.6104 205.622 87.75C203.837 88.5179 202.087 89.4107 200.444 90.3036C165.319 107.411 143.265 142.143 138.337 188.089C138.224 189.103 138.551 190.115 139.233 190.873C139.915 191.63 140.889 192.06 141.908 192.054H161.158C163.005 192.062 164.554 190.66 164.729 188.821C165.736 179.023 168.085 169.409 171.712 160.25L172.801 157.554C173.658 155.5 174.64 153.357 175.64 151.357L175.837 150.964L172.64 149.375L175.962 150.75C182.724 137.261 192.732 125.663 205.087 117C207.015 115.679 209.087 114.429 210.783 113.429C212.479 112.429 214.051 111.589 215.658 110.839C219.327 109.018 223.137 107.495 227.051 106.286C229.744 105.445 232.48 104.747 235.247 104.196H235.587L236.122 104.089C246.157 102.239 256.445 102.239 266.479 104.089H266.979H267.444C270.17 104.626 272.864 105.312 275.515 106.143C279.446 107.359 283.274 108.888 286.962 110.714C287.059 110.764 287.156 110.814 287.253 110.864C288.679 111.592 290.028 112.282 291.801 113.286C293.694 114.357 295.551 115.518 297.479 116.857C309.828 125.527 319.835 137.123 326.604 150.607L326.712 150.821L326.872 151.143C327.979 153.286 328.926 155.411 329.765 157.446C329.812 157.561 329.859 157.674 329.905 157.787C330.23 158.573 330.542 159.331 330.854 160.143C334.482 169.3 336.826 178.915 337.819 188.714C337.994 190.553 339.543 191.955 341.39 191.946ZM356.747 184.804H344.64H344.586C343.423 175.478 341.114 166.332 337.711 157.571C337.354 156.589 336.961 155.607 336.551 154.661C335.64 152.464 334.586 150.179 333.426 147.857L333.301 147.607L333.176 147.357C325.872 132.807 315.066 120.301 301.729 110.964C299.64 109.518 297.497 108.107 295.569 107.071C295.113 106.827 294.667 106.585 294.23 106.348C292.817 105.581 291.493 104.864 290.212 104.25C286.181 102.271 282.002 100.611 277.712 99.2858C274.837 98.3929 271.872 97.6429 269.069 97.0715H268.658H268.39L267.836 96.9643C256.957 94.9657 245.805 94.9657 234.926 96.9643L234.319 97.0715H234.104H233.801C230.835 97.6678 227.902 98.4188 225.015 99.3215C220.767 100.643 216.629 102.297 212.64 104.268C210.854 105.089 209.354 105.911 207.283 107.089C205.212 108.268 203.176 109.554 201.104 111C187.804 120.317 177.019 132.784 169.712 147.286L169.515 147.661L172.712 149.25L169.408 147.893C168.247 150.196 167.194 152.482 166.283 154.679C165.872 155.643 165.479 156.625 165.122 157.571C161.635 166.322 159.236 175.468 157.979 184.804H146.176C151.64 143.321 172.051 112.071 203.926 96.5715H204.087C205.569 95.75 207.015 95.0536 208.801 94.2322C210.587 93.4108 212.372 92.6965 214.158 92.0536C215.194 91.6786 216.229 91.3215 217.354 90.9822L218.194 90.7322C228.694 87.6139 239.597 86.0615 250.551 86.125H252.336C263.309 86.061 274.231 87.6195 284.747 90.75L285.604 91C286.658 91.3215 287.711 91.6786 288.765 92.0536C290.551 92.6965 292.497 93.5 294.122 94.2322C295.747 94.9643 297.336 95.75 298.836 96.5715H298.997C330.872 112.071 351.283 143.304 356.747 184.804Z" fill="#372168"/>
</g>
<path fill-rule="evenodd" clip-rule="evenodd" d="M0 250C0 111.929 111.929 0 250 0C388.071 0 500 111.929 500 250C500 388.071 388.071 500 250 500C111.929 500 0 388.071 0 250ZM492.857 250C492.857 115.874 384.126 7.14286 250 7.14286C115.874 7.14286 7.14286 115.874 7.14286 250C7.14286 384.126 115.874 492.857 250 492.857C384.126 492.857 492.857 384.126 492.857 250Z" fill="#372168"/>
</svg>
