<svg width="500" height="500" viewBox="0 0 500 500" fill="none" xmlns="http://www.w3.org/2000/svg">
<path fill-rule="evenodd" clip-rule="evenodd" d="M250 496.429C386.099 496.429 496.429 386.099 496.429 250C496.429 113.901 386.099 3.57153 250 3.57153C113.901 3.57153 3.57144 113.901 3.57144 250C3.57144 386.099 113.901 496.429 250 496.429Z" fill="#E7EEFF"/>
<mask id="mask0_0_264" style="mask-type:alpha" maskUnits="userSpaceOnUse" x="3" y="3" width="494" height="494">
<path fill-rule="evenodd" clip-rule="evenodd" d="M250 496.429C386.099 496.429 496.429 386.099 496.429 250C496.429 113.901 386.099 3.57153 250 3.57153C113.901 3.57153 3.57144 113.901 3.57144 250C3.57144 386.099 113.901 496.429 250 496.429Z" fill="white"/>
</mask>
<g mask="url(#mask0_0_264)">
<path fill-rule="evenodd" clip-rule="evenodd" d="M336.74 210.585C337.919 197.482 339.687 159.822 324.533 135.107C306.015 105.089 275.623 96.3212 249.926 96.7319C224.212 96.3212 193.819 105.089 175.301 135.107C160.033 159.893 161.855 197.696 163.033 210.696C163.025 210.845 163.025 210.994 163.033 211.143C163.283 213.732 163.498 215.232 163.498 215.232C163.512 215.432 163.538 215.632 163.563 215.832C163.602 216.132 163.641 216.432 163.641 216.732C163.783 218.089 163.944 219.428 164.105 220.732C165.039 228.433 166.592 236.047 168.748 243.5L169.98 247.41C170.748 249.839 171.569 252.214 172.39 254.553C172.98 256.125 173.587 257.714 174.176 259.25C174.465 260.043 174.765 260.766 175.067 261.495L175.07 261.501C175.109 261.596 175.148 261.691 175.188 261.786C175.22 261.863 175.251 261.94 175.283 262.018C180.269 274.629 187.251 286.356 195.962 296.75L196.051 296.853V358.821C197.462 367.91 221.051 375.053 249.998 375.053C278.944 375.053 302.533 367.875 303.944 358.821V296.623L304.033 296.518C312.675 286.19 319.603 274.542 324.551 262.018C324.734 261.54 324.916 261.095 325.097 260.656C325.287 260.193 325.475 259.736 325.658 259.25C326.174 257.946 326.677 256.603 327.177 255.265L327.179 255.262L327.444 254.553L327.464 254.493C336.162 256.464 347.548 254.592 354.301 244.285C363.158 230.785 359.158 215.91 349.694 211.41C345.646 209.46 340.999 209.166 336.74 210.585ZM300.158 300.839L300.316 300.674C300.394 300.593 300.471 300.512 300.547 300.431C300.435 300.562 300.323 300.692 300.212 300.821C295.684 305.618 290.614 309.872 285.105 313.5C280.354 316.719 275.207 319.25 269.817 321.044C275.188 319.251 280.316 316.726 285.051 313.518C290.56 309.89 295.63 305.635 300.158 300.839Z" fill="#FFC7BB"/>
<path d="M145.426 244.357C152.194 254.714 163.658 256.553 172.373 254.535C171.087 250.964 169.837 247.28 168.623 243.482C166.636 236.638 165.168 229.654 164.23 222.589C163.962 220.678 163.73 218.732 163.516 216.75C163.442 216.253 163.394 215.752 163.373 215.25C163.373 215.25 163.194 214.125 162.998 212.143C162.908 211.839 162.908 211.5 162.908 211.16C162.9 211.006 162.9 210.851 162.908 210.696C159.436 209.548 155.693 209.505 152.194 210.571C151.413 210.824 150.649 211.128 149.908 211.482C140.551 215.91 136.498 230.785 145.426 244.357Z" fill="#FFC7BB"/>
<path d="M47.8727 424.411C82.0513 393.911 136.891 375.482 171.087 365.589L172.426 365.197C182.551 362.268 190.766 360.125 195.926 358.661C197.337 367.714 220.926 374.893 249.855 374.893C278.783 374.893 302.391 367.75 303.819 358.661H304.105C309.212 360.125 317.355 362.232 327.408 365.143L328.623 365.5C362.748 375.375 417.676 393.822 451.944 424.429C469.763 440.386 488.571 473.662 504.788 508.036H-5.00754C11.2115 473.626 30.0329 440.311 47.8727 424.411Z" fill="#8BCBC9"/>
<g style="mix-blend-mode:soft-light" opacity="0.4">
<path d="M282.694 393.25C271.915 395.66 260.9 396.858 249.855 396.821C213.319 396.821 182.301 384.696 171.069 365.786L172.408 365.393C182.533 362.464 190.748 360.321 195.908 358.857C197.319 367.911 220.908 375.089 249.837 375.089C278.766 375.089 302.373 367.946 303.801 358.857H304.087C309.194 360.321 317.337 362.429 327.391 365.339L328.605 365.696C323.087 375.054 312.748 382.75 299.283 388.143" fill="white"/>
</g>
<g style="mix-blend-mode:soft-light" opacity="0.4">
<path d="M282.694 393.25C271.915 395.66 260.9 396.858 249.855 396.821C213.319 396.821 182.301 384.696 171.069 365.786L172.408 365.393C182.533 362.464 190.748 360.321 195.908 358.857C197.319 367.911 220.908 375.089 249.837 375.089C278.766 375.089 302.373 367.946 303.801 358.857H304.087C309.194 360.321 317.337 362.429 327.391 365.339L328.605 365.696C323.087 375.054 312.748 382.75 299.283 388.143" fill="white"/>
</g>
<g style="mix-blend-mode:multiply" opacity="0.15">
<path fill-rule="evenodd" clip-rule="evenodd" d="M300.426 300.464V350.089C252.212 350.911 216.283 327.643 199.444 313.928V300.643L199.641 300.857C204.169 305.648 209.239 309.897 214.748 313.518C224.613 320.205 236.19 323.924 248.105 324.232H251.587C263.508 323.927 275.091 320.209 284.962 313.518C290.474 309.886 295.549 305.632 300.087 300.839L300.426 300.464Z" fill="#7C3830"/>
</g>
<path fill-rule="evenodd" clip-rule="evenodd" d="M251.152 93.1642L249.962 93.1782C230.373 92.821 194.194 97.6425 172.23 133.25C158.439 155.629 157.983 187.506 159.001 204.935L159.087 206.315C156.403 206.103 153.687 206.402 151.087 207.214C150.176 207.524 149.282 207.882 148.409 208.285C143.178 210.957 139.352 215.753 137.909 221.446C135.765 230.012 137.425 239.087 142.462 246.339C147.607 254.317 156.526 259.05 166.016 258.839L167.028 258.822C168.04 258.79 169.049 258.71 170.053 258.583L170.784 260.5C171.159 261.464 171.534 262.41 171.927 263.357C176.861 275.851 183.709 287.497 192.223 297.879L192.354 298.037V356.098L188.069 357.285C184.085 358.363 179.226 359.688 173.755 361.258L171.373 361.946L170.069 362.321C112.48 379.053 71.7302 398.464 45.4623 421.91C27.0201 438.376 7.7464 472.482 -8.92859 508.036H508.88C483.311 453.62 464.734 431.125 454.427 421.91C428.683 398.928 389.049 379.743 333.434 363.317L330.247 362.382C330.132 362.332 330.013 362.288 329.891 362.25L328.605 361.875C325.415 360.96 322.417 360.117 319.645 359.348L312.909 357.5L307.515 356.004L307.516 297.952C316.05 287.568 322.913 275.914 327.855 263.41C328.248 262.464 328.641 261.517 328.998 260.553L329.739 258.58C331.062 258.749 332.395 258.836 333.73 258.839C343.241 259.023 352.163 254.248 357.284 246.232L357.707 245.605C362.405 238.451 363.911 229.648 361.837 221.321C360.389 215.644 356.571 210.864 351.355 208.196C350.249 207.67 349.103 207.234 347.927 206.892C345.562 206.254 343.118 206.029 340.7 206.217C341.81 189.108 341.672 156.189 327.552 133.25C306.027 98.3546 270.902 93.0434 251.152 93.1642ZM269.785 377.57C290.132 375.225 302.072 369.286 306.105 363.035L311.034 364.392C313.25 364.995 315.69 365.662 318.34 366.399L323.087 367.732C317.694 374.535 309.194 380.375 298.177 384.803L297.9 384.917C296.821 385.418 296.055 386.428 295.873 387.616C295.675 388.904 296.194 390.197 297.228 390.99C298.261 391.784 299.644 391.951 300.837 391.428C314.192 386.063 324.337 378.648 330.398 369.848C384.808 385.824 424.936 405.127 449.677 427.214C465.576 441.411 482.459 470.211 497.431 500.893H2.49725C17.4298 470.292 34.3358 441.409 50.2659 427.214C74.4284 405.681 113.294 386.761 165.955 370.963L169.567 369.891C182.446 388.485 213.532 400.357 249.944 400.357C261.28 400.39 272.582 399.15 283.641 396.66C285.564 396.221 286.767 394.307 286.328 392.384C285.89 390.46 283.975 389.257 282.052 389.696C271.53 392.045 260.778 393.201 249.998 393.142C217.212 393.142 189.319 383.303 176.962 367.75L193.989 363.121C199.241 371.156 217.533 378.642 249.944 378.642C257.276 378.642 263.886 378.259 269.785 377.57ZM287.016 316.535C276.567 323.573 264.324 327.476 251.73 327.785H247.962C235.4 327.452 223.195 323.536 212.784 316.5C208.036 313.372 203.599 309.801 199.532 305.836L199.502 357.824C199.552 357.975 199.592 358.128 199.623 358.285C200.471 363.724 219.636 371.311 249.021 371.479L249.909 371.482C277.046 371.482 295.707 365.162 299.621 359.87C300.017 359.328 300.258 358.797 300.337 358.285L300.339 305.788C296.253 309.785 291.792 313.384 287.016 316.535ZM248.302 100.303L251.078 100.276C269.308 100.221 301.704 105.044 321.409 136.964C335.694 160.156 334.322 196.162 333.288 208.865L333.159 210.357V210.553L336.519 210.837H336.135L333.159 210.75C332.989 212.542 332.828 213.769 332.755 214.332L332.754 214.335C332.745 214.403 332.738 214.461 332.732 214.509C332.719 214.605 332.712 214.662 332.712 214.678V214.928C332.699 215.09 332.679 215.249 332.659 215.411C332.624 215.694 332.587 215.985 332.587 216.303C331.713 225.137 330.046 233.875 327.605 242.41C326.48 246.089 325.284 249.767 324.034 253.232L323.587 254.428C323.373 255.053 323.127 255.723 322.893 256.348L322.266 258C321.927 258.892 321.569 259.785 321.194 260.678C316.39 272.852 309.661 284.174 301.266 294.214L301.541 293.875C301.492 293.92 301.444 293.966 301.397 294.014C301.339 294.073 301.284 294.133 301.23 294.196C299.909 295.75 298.694 297.125 297.48 298.375L296.471 299.426C292.398 303.594 287.887 307.313 283.016 310.517L282.167 311.082L281.308 311.633C276.362 314.645 271.646 316.663 267.436 318.013C262.324 319.601 256.993 320.493 251.587 320.642H248.105C239.347 320.394 230.786 318.201 223.029 314.26C220.856 313.154 218.746 311.911 216.712 310.535C211.443 307.054 206.589 302.98 202.248 298.392C201.159 297.232 199.98 295.946 198.677 294.428C190.21 284.318 183.426 272.91 178.587 260.642C178.23 259.768 177.873 258.892 177.516 257.982C176.891 256.464 176.284 254.892 175.73 253.375L175.58 252.944L175.579 252.941L175.578 252.938L175.576 252.932C175.575 252.929 175.574 252.926 175.572 252.923C175.106 251.586 174.635 250.237 174.178 248.878L173.355 246.357C172.944 245.071 172.534 243.785 172.141 242.5C170.036 235.233 168.513 227.811 167.587 220.303C167.427 219.017 167.266 217.696 167.123 216.357C166.998 215.892 166.998 215.446 166.998 214.982C167.006 214.899 167.006 214.815 166.998 214.732L166.587 211.214L166.587 210.732C166.587 210.456 166.555 210.187 166.494 209.929C165.464 198.282 163.584 160.847 178.284 137C197.802 105.339 229.802 100.303 248.302 100.303ZM340.643 213.53L340.123 213.616L339.933 215.214L339.873 215.625C339.82 215.945 339.796 216.314 339.773 216.682L339.762 216.851C339.758 216.919 339.753 216.986 339.748 217.053C339.023 224.437 337.766 231.757 335.988 238.955C338.388 238.847 340.629 237.623 342.016 235.607C343.735 233.252 344.017 230.142 342.748 227.517C342.211 226.689 342.446 225.582 343.275 225.044C344.103 224.507 345.211 224.743 345.748 225.571C347.598 229.133 347.473 233.398 345.418 236.845C343.363 240.293 339.671 242.432 335.659 242.5C335.46 242.513 335.261 242.52 335.062 242.52L334.498 244.535C333.762 246.947 332.998 249.344 332.204 251.703C339.594 252.363 346.754 249.004 350.973 242.933L351.302 242.446C355.205 236.917 356.538 229.975 354.962 223.392C354.069 219.691 351.631 216.55 348.266 214.767C347.525 214.409 346.754 214.116 345.962 213.892C344.423 213.463 342.821 213.318 341.236 213.462L340.643 213.53ZM153.302 213.982C154.594 213.568 155.944 213.357 157.288 213.355L157.858 213.363C158.449 213.382 159.039 213.44 159.623 213.535L159.766 214.778C159.798 215.043 159.83 215.259 159.862 215.424L159.903 215.884C159.908 215.928 159.914 215.972 159.919 216.015C159.931 216.109 159.944 216.202 159.957 216.294C159.996 216.583 160.034 216.854 160.034 217.089C160.248 219.071 160.48 221.017 160.748 222.928C160.739 222.975 160.739 223.024 160.748 223.071C161.447 228.403 162.446 233.691 163.741 238.91C161.181 238.928 158.757 237.683 157.284 235.553C155.583 233.192 155.303 230.092 156.552 227.464C157.086 226.64 156.855 225.539 156.034 225C155.636 224.737 155.151 224.644 154.685 224.742C154.219 224.839 153.811 225.118 153.552 225.517C151.68 229.098 151.806 233.395 153.883 236.86C155.96 240.326 159.69 242.462 163.73 242.5C164.045 242.505 164.359 242.495 164.672 242.469L164.672 242.466L164.909 242.446C164.83 242.455 164.751 242.462 164.672 242.469C164.859 243.147 165.051 243.824 165.248 244.5C165.98 246.928 166.73 249.303 167.516 251.642C159.912 252.349 152.541 248.797 148.355 242.41L147.977 241.851C144.401 236.397 143.237 229.695 144.784 223.339C145.676 219.622 148.13 216.471 151.516 214.696C152.095 214.42 152.692 214.181 153.302 213.982Z" fill="#372168"/>
<path fill-rule="evenodd" clip-rule="evenodd" d="M430.837 432.821C424.296 427.042 417.324 421.77 409.98 417.053C409.444 416.705 408.764 416.67 408.194 416.96C407.625 417.251 407.254 417.822 407.221 418.46C407.188 419.098 407.498 419.705 408.034 420.053C415.224 424.672 422.053 429.83 428.462 435.482C428.785 435.775 429.204 435.94 429.641 435.946C430.154 435.945 430.642 435.724 430.98 435.339C431.635 434.604 431.571 433.478 430.837 432.821ZM164.909 242.446C164.83 242.455 164.751 242.462 164.672 242.469L164.672 242.466L164.909 242.446Z" fill="#372168"/>
<path d="M250.551 429.625C226.479 429.625 205.39 404.375 196.837 365.34C196.417 363.412 197.641 361.509 199.569 361.09C201.497 360.67 203.4 361.894 203.819 363.822C211.497 398.911 230.283 422.5 250.551 422.5C270.819 422.5 289.604 398.911 297.283 363.822C297.702 361.894 299.605 360.67 301.533 361.09C303.461 361.509 304.684 363.412 304.265 365.34C295.712 404.375 274.569 429.625 250.551 429.625Z" fill="#372168"/>
<path fill-rule="evenodd" clip-rule="evenodd" d="M260.604 450.822H240.497C239.228 450.818 238.065 450.117 237.467 448.997C236.87 447.877 236.937 446.52 237.64 445.464L250.551 426.036L263.462 445.464C264.178 446.518 264.252 447.882 263.652 449.007C263.052 450.131 261.879 450.83 260.604 450.822Z" fill="#EBB759"/>
<path fill-rule="evenodd" clip-rule="evenodd" d="M234.324 450.691C235.544 452.967 237.915 454.389 240.497 454.393H260.605C263.187 454.389 265.558 452.967 266.778 450.691C267.998 448.415 267.87 445.653 266.444 443.5L253.533 424.072C252.872 423.069 251.752 422.465 250.551 422.465C249.35 422.465 248.23 423.069 247.569 424.072L234.658 443.5C233.232 445.653 233.104 448.415 234.324 450.691ZM260.39 447.25H240.747L250.587 432.5L260.39 447.25Z" fill="#372168"/>
<path d="M246.587 448.697L257.39 436.322L246.587 448.697Z" fill="#F9F9F9"/>
<path d="M246.587 450.482C246.153 450.482 245.734 450.323 245.408 450.036C244.664 449.39 244.584 448.263 245.23 447.518L255.944 435.143C256.595 434.399 257.726 434.323 258.471 434.974C259.215 435.624 259.291 436.756 258.64 437.5L247.837 449.875C247.519 450.238 247.068 450.457 246.587 450.482Z" fill="#372168"/>
<path d="M260.391 295.616C259.89 295.62 259.411 295.39 259.07 294.982C256.579 292.661 253.388 291.477 250.141 291.668C246.915 291.473 243.737 292.603 241.213 294.843C240.78 295.412 240.096 295.664 239.443 295.495C238.79 295.325 238.277 294.764 238.116 294.04C237.954 293.317 238.171 292.554 238.677 292.065C245.457 286.174 254.998 286.256 261.695 292.263C262.189 292.84 262.326 293.688 262.042 294.419C261.758 295.15 261.108 295.621 260.391 295.616Z" fill="#372168"/>
<g style="mix-blend-mode:multiply" opacity="0.15">
<path fill-rule="evenodd" clip-rule="evenodd" d="M220.497 245.119C220.497 256.02 212.502 264.856 202.64 264.856C192.778 264.856 184.783 256.02 184.783 245.119C184.783 234.219 192.778 225.382 202.64 225.382C212.502 225.382 220.497 234.219 220.497 245.119ZM316.926 245.119C316.926 256.02 308.931 264.856 299.069 264.856C289.207 264.856 281.212 256.02 281.212 245.119C281.212 234.219 289.207 225.382 299.069 225.382C308.931 225.382 316.926 234.219 316.926 245.119Z" fill="#FF1300"/>
</g>
<path fill-rule="evenodd" clip-rule="evenodd" d="M351.252 178.27C335.877 227.377 332.466 234.859 332.466 234.859H332.377C333.095 231.665 333.537 228.415 333.698 225.145C333.698 223.698 333.698 218.484 333.823 211.538C333.93 203.823 334.287 187.466 334.609 170.805C334.739 160.582 326.783 152.074 316.573 151.52C309.168 150.763 302.169 147.774 296.502 142.948C295.712 142.302 294.577 142.302 293.787 142.948C284.162 150.716 274.144 145.038 270.269 142.341C269.367 141.707 268.131 141.862 267.412 142.698C235.269 180.198 199.841 171.805 178.859 161.252C175.796 159.687 172.14 159.826 169.204 161.618C166.269 163.41 164.474 166.598 164.466 170.038V222.395C164.48 227.948 165.298 233.469 166.894 238.788C165.43 234.752 160.752 221.27 148.394 181.252C135.502 139.448 151.234 127.43 155.287 125.109C155.848 124.798 156.231 124.243 156.323 123.609C157.644 114.288 169.93 46.6447 246.341 72.5912C248.526 73.3318 250.925 73.0841 252.912 71.9126C264.18 65.1269 303.752 45.3769 319.68 90.8054C320.153 92.1721 321.468 93.0655 322.912 93.0019C328.269 92.7697 340.948 94.4662 340.644 115.502C340.635 116.514 341.148 117.459 342.002 118.002C347.198 121.395 364.412 136.216 351.252 178.27Z" fill="#FFB3C4"/>
<path fill-rule="evenodd" clip-rule="evenodd" d="M297.716 60.3769C309.091 64.484 317.591 74.2519 322.948 89.4304C328.274 89.1577 333.486 91.0365 337.412 94.6447C341.966 99.0911 344.252 106.002 344.18 115.216L344.767 115.619C351.395 120.32 367.561 136.636 355.028 178.04L354.627 179.341L351.188 190.278C338.835 229.329 335.847 236.063 335.716 236.359C335.133 237.638 333.854 238.456 332.448 238.448C331.349 238.451 330.306 237.959 329.609 237.109C328.911 236.27 328.635 235.159 328.859 234.091C329.518 231.155 329.93 228.168 330.091 225.163L330.114 219.374C330.131 217.233 330.162 214.604 330.216 211.538L330.219 210.509C330.239 207.225 330.343 202.682 330.466 197.372L330.466 197.37C330.524 194.86 330.586 192.178 330.645 189.377L331.002 170.788C331.119 162.449 324.632 155.505 316.305 155.055C308.542 154.306 301.167 151.302 295.091 146.413C284.555 154.145 273.662 148.823 269.252 145.966C236.574 183.115 200.546 175.231 180.17 165.837L180.05 165.797L179.622 165.624C179.039 165.375 177.708 164.79 176.002 163.947C174.318 163.489 172.498 163.74 170.984 164.68C169.106 165.807 167.97 167.848 168.002 170.038V222.395C168.016 227.603 168.786 232.782 170.287 237.77C170.839 239.621 169.818 241.575 167.984 242.18C167.627 242.304 167.254 242.37 166.877 242.377C165.484 242.372 164.231 241.559 163.651 240.311L163.537 240.038C162.088 236.078 157.435 222.702 145.335 183.519L144.966 182.323C131.966 140.18 146.948 126.127 152.877 122.395L153.003 121.618C154.437 113.124 160.767 85.4147 183.448 71.3947C200.073 61.1804 221.609 60.4483 247.466 69.2161C248.651 69.6253 249.956 69.4948 251.037 68.859L252.388 68.0657C261.087 63.0658 280.291 54.1005 297.716 60.3769ZM254.77 74.984C251.88 76.7051 248.381 77.0707 245.198 75.984C221.448 67.9126 201.948 68.4304 187.234 77.484C165.573 90.8054 160.645 118.663 159.877 124.127C159.66 125.747 158.74 127.181 157.373 128.055L156.772 128.419C153.212 130.68 139.975 141.78 151.823 180.216L157.334 197.935C158.644 202.12 159.833 205.891 160.912 209.288V170.002C160.906 165.423 163.226 161.164 167.054 158.684C166.073 157.976 165.135 157.233 164.287 156.466C162.808 155.145 162.68 152.874 164.002 151.395C165.323 149.915 167.594 149.787 169.073 151.109C171.71 153.496 175.626 155.704 178.581 157.193C179.086 157.358 179.583 157.554 180.071 157.782L181.887 158.676C203.834 169.293 235.58 174.291 264.787 140.323C266.711 138.097 270.011 137.695 272.412 139.395L272.883 139.722C277.019 142.53 284.513 145.901 291.645 140.145C292.652 139.384 293.882 138.976 295.145 138.984C296.447 138.99 297.708 139.444 298.716 140.27C303.81 144.625 310.105 147.333 316.77 148.038C328.898 148.697 338.35 158.803 338.198 170.948L337.528 205.132C337.496 206.92 337.469 208.537 337.448 209.948L339.286 204.313C341.24 198.285 343.551 191.052 346.275 182.393L347.877 177.288C359.863 139.007 345.908 125.14 340.545 121.409L340.073 121.091C338.177 119.88 337.048 117.769 337.091 115.52C337.198 108.198 335.645 102.913 332.484 99.8411C330.27 97.8435 327.428 96.7132 324.477 96.6264L324.551 96.6215L324.474 96.6263L324.477 96.6264C320.434 96.9008 316.485 97.975 312.859 99.7876C312.398 99.991 311.899 100.094 311.395 100.091C309.717 100.083 308.271 98.9094 307.919 97.2693C307.567 95.6292 308.404 93.9652 309.93 93.2697C312.141 92.277 314.159 91.5408 315.948 90.9955C311.319 78.446 304.401 70.4236 295.341 67.0911C279.841 61.5197 261.805 70.6626 254.77 74.984ZM224.377 153.591C225.11 152.965 225.214 151.869 224.611 151.117C224.007 150.364 222.916 150.226 222.145 150.805C218.28 154.148 212.686 154.576 208.359 151.859L208.168 151.74C207.387 151.32 206.396 151.537 205.868 152.279C205.296 153.082 205.484 154.198 206.287 154.77C208.725 156.393 211.591 157.251 214.52 157.234C218.13 157.208 221.617 155.919 224.377 153.591ZM325.573 135.18C326.194 135.95 326.074 137.077 325.305 137.698C323.137 139.531 320.394 140.542 317.555 140.555C315.238 140.563 312.971 139.886 311.037 138.609C310.457 138.265 310.119 137.623 310.166 136.95C310.212 136.276 310.635 135.687 311.257 135.426C311.88 135.165 312.596 135.277 313.109 135.716C316.246 137.639 320.267 137.314 323.055 134.913C323.824 134.291 324.952 134.411 325.573 135.18ZM248.698 108.073C245.002 111.073 241.091 109.127 239.091 107.698C237.882 106.856 236.232 107.064 235.27 108.18C231.252 112.77 227.537 114.966 219.198 113.18C218.212 112.978 217.248 113.614 217.046 114.6C216.844 115.586 217.48 116.55 218.466 116.752C220.419 117.182 222.412 117.41 224.412 117.43C229.571 117.5 234.453 115.105 237.555 110.984C239.841 112.448 245.591 115.234 250.948 110.859C251.446 110.457 251.691 109.82 251.592 109.188C251.493 108.556 251.064 108.025 250.467 107.795C249.87 107.565 249.196 107.671 248.698 108.073ZM198.573 90.1983C199.559 90.2723 200.299 91.1317 200.225 92.1179C200.151 93.1042 199.291 93.8437 198.305 93.7697C193.197 93.6806 188.627 96.9322 187.037 101.788C186.776 102.488 186.106 102.951 185.359 102.948C185.152 102.948 184.946 102.912 184.752 102.841C183.825 102.506 183.345 101.482 183.68 100.555C185.784 94.1713 191.856 89.9482 198.573 90.1983ZM300.877 87.1983C301.792 86.8411 302.247 85.8118 301.895 84.8947C299.214 78.7385 292.785 75.0977 286.127 75.9661C285.655 76.0156 285.223 76.2505 284.925 76.6189C284.627 76.9873 284.487 77.4592 284.537 77.9304C284.641 78.9043 285.509 79.6133 286.484 79.5197C291.544 78.8721 296.438 81.5833 298.573 86.2161C298.838 86.903 299.498 87.3568 300.234 87.359C300.457 87.3497 300.675 87.295 300.877 87.1983Z" fill="#372168"/>
<path d="M250.159 266.778C240.874 266.778 232.302 263.081 227.427 256.867C226.732 255.993 226.556 254.815 226.965 253.775C227.374 252.736 228.307 251.994 229.411 251.829C230.516 251.664 231.625 252.1 232.32 252.974C236.034 257.635 242.874 260.528 250.177 260.528C257.481 260.528 264.32 257.635 268.034 252.974C268.73 252.1 269.839 251.664 270.943 251.829C272.048 251.994 272.98 252.736 273.39 253.775C273.799 254.815 273.623 255.993 272.927 256.867C267.963 262.992 259.463 266.778 250.159 266.778Z" fill="#372168"/>
<path d="M250.806 241.583C246.906 241.636 243.239 239.732 241.038 236.512C240.101 235.062 240.517 233.127 241.967 232.19C243.417 231.253 245.351 231.669 246.288 233.119C247.375 234.533 249.063 235.354 250.846 235.336C252.629 235.319 254.301 234.465 255.36 233.03C256.257 231.55 258.184 231.079 259.663 231.976C261.143 232.874 261.614 234.8 260.717 236.28C258.556 239.646 254.806 241.653 250.806 241.583Z" fill="#372168"/>
<path d="M288.008 220.089C295.919 220.089 295.937 207.768 288.008 207.768C280.079 207.768 280.062 220.089 288.008 220.089Z" fill="#372168"/>
<path d="M214.847 220.089C222.776 220.089 222.793 207.768 214.847 207.768C206.901 207.768 206.901 220.089 214.847 220.089Z" fill="#372168"/>
<path d="M231.033 198.75C230.462 198.753 229.899 198.618 229.39 198.357C215.337 191.125 200.819 198.357 200.819 198.357C199.063 199.26 196.909 198.568 196.006 196.813C195.104 195.057 195.795 192.903 197.551 192C198.265 191.643 215.408 183.072 232.73 192C234.197 192.752 234.959 194.411 234.573 196.015C234.187 197.618 232.754 198.749 231.105 198.75H231.033Z" fill="#372168"/>
<path d="M303.515 198.75C302.95 198.75 302.393 198.615 301.89 198.357C287.819 191.125 273.319 198.357 273.319 198.357C272.178 198.984 270.788 198.94 269.688 198.244C268.589 197.547 267.956 196.308 268.035 195.01C268.114 193.711 268.893 192.558 270.069 192C270.783 191.625 287.926 183.072 305.247 192C306.735 192.76 307.497 194.45 307.081 196.068C306.666 197.686 305.185 198.8 303.515 198.75Z" fill="#372168"/>
<g opacity="0.7">
<path fill-rule="evenodd" clip-rule="evenodd" d="M243.622 206.607C242.837 215.786 238.587 236.25 214.015 236.25C210.54 236.289 207.073 235.899 203.694 235.09C203.146 234.959 202.61 234.816 202.087 234.661C201.077 234.358 200.088 233.994 199.122 233.572C198.135 233.157 197.174 232.68 196.247 232.143C195.09 231.469 193.997 230.692 192.979 229.822C191.283 228.396 189.819 226.716 188.64 224.84C185.205 219.087 183.874 212.321 184.872 205.697C185.173 203.721 186.874 202.263 188.872 202.268H239.587C240.712 202.265 241.787 202.731 242.553 203.555C243.319 204.379 243.707 205.485 243.622 206.607Z" fill="#FFD87A"/>
<path fill-rule="evenodd" clip-rule="evenodd" d="M288.372 236.232C285.134 236.265 281.907 235.85 278.783 235C278.229 234.857 277.694 234.679 277.194 234.5C276.204 234.167 275.237 233.767 274.301 233.304C273.329 232.853 272.398 232.321 271.515 231.715C270.398 230.985 269.347 230.161 268.372 229.25C266.74 227.717 265.317 225.976 264.14 224.072C261.019 218.74 259.185 212.754 258.783 206.59C258.693 205.465 259.078 204.354 259.845 203.526C260.612 202.698 261.69 202.229 262.819 202.232H313.533C315.531 202.227 317.232 203.685 317.533 205.661C318.854 214.268 316.926 236.232 288.372 236.232Z" fill="#FFD87A"/>
</g>
<g opacity="0.49">
<g style="mix-blend-mode:soft-light" opacity="0.8">
<path d="M286.319 202.232L268.462 229.25C266.83 227.717 265.407 225.976 264.229 224.072L278.747 202.232H286.319Z" fill="white"/>
</g>
<g style="mix-blend-mode:soft-light" opacity="0.8">
<path d="M294.944 202.232L274.301 233.304C273.33 232.853 272.398 232.321 271.515 231.715L291.158 202.232L294.944 202.232Z" fill="white"/>
</g>
<g style="mix-blend-mode:soft-light" opacity="0.8">
<path d="M300.551 202.232L278.783 235C278.229 234.857 277.694 234.679 277.194 234.5L298.622 202.232H300.551Z" fill="white"/>
</g>
</g>
<g opacity="0.49">
<g style="mix-blend-mode:soft-light" opacity="0.8">
<path d="M211.319 202.232L192.979 229.822C191.283 228.397 189.819 226.716 188.64 224.84L203.64 202.268L211.319 202.232Z" fill="white"/>
</g>
<g style="mix-blend-mode:soft-light" opacity="0.8">
<path d="M219.944 202.232L199.122 233.554C198.135 233.139 197.174 232.662 196.247 232.125L216.104 202.232L219.944 202.232Z" fill="white"/>
</g>
<g style="mix-blend-mode:soft-light" opacity="0.8">
<path d="M225.551 202.232L203.694 235.072C203.146 234.941 202.61 234.798 202.087 234.643L223.64 202.232H225.551Z" fill="white"/>
</g>
</g>
<path fill-rule="evenodd" clip-rule="evenodd" d="M255.212 206.893C256.051 216.786 260.962 239.804 288.39 239.804C300.033 239.804 308.872 236.393 314.604 229.661C321.051 222.179 322.14 212.072 321.051 205.09C320.477 201.384 317.283 198.652 313.533 198.661H262.801C260.671 198.653 258.637 199.54 257.194 201.106C255.75 202.672 255.031 204.771 255.212 206.893ZM262.444 206.036C262.532 205.93 262.663 205.871 262.801 205.875H313.533C313.764 205.873 313.962 206.04 313.997 206.268C314.801 211.429 314.015 219.447 309.176 225.09C304.837 230.161 297.837 232.732 288.39 232.732C277.515 232.732 264.104 228.161 262.319 206.357C262.313 206.238 262.359 206.121 262.444 206.036Z" fill="#372168"/>
<path d="M317.354 218.911C315.587 218.917 314.08 217.629 313.812 215.882C313.544 214.134 314.595 212.454 316.283 211.929L336.64 205.536C338.524 204.945 340.531 205.992 341.122 207.876C341.714 209.759 340.667 211.766 338.783 212.358L318.426 218.733C318.081 218.853 317.719 218.913 317.354 218.911Z" fill="#372168"/>
<path fill-rule="evenodd" clip-rule="evenodd" d="M187.783 229.661C193.551 236.393 202.372 239.804 214.015 239.804C241.426 239.804 246.372 216.786 247.194 206.893C247.363 204.774 246.64 202.681 245.199 201.118C243.758 199.555 241.73 198.664 239.604 198.661H188.872C185.111 198.638 181.906 201.387 181.354 205.107C180.265 212.072 181.372 222.179 187.783 229.661ZM188.408 206.268C188.443 206.04 188.641 205.873 188.872 205.875H239.604C239.74 205.88 239.868 205.938 239.961 206.036C240.042 206.123 240.081 206.24 240.069 206.357C238.211 228.161 224.872 232.732 214.015 232.732C204.551 232.732 197.551 230.161 193.211 225.09C188.408 219.447 187.604 211.429 188.408 206.268Z" fill="#372168"/>
<path d="M261.747 223C261.168 223.004 260.597 222.863 260.087 222.589C254.522 219.756 247.937 219.756 242.372 222.589C241.259 223.227 239.89 223.223 238.781 222.578C237.672 221.933 236.991 220.745 236.995 219.462C236.999 218.179 237.688 216.995 238.801 216.357C246.503 212.385 255.652 212.385 263.354 216.357C264.791 217.132 265.519 218.783 265.123 220.366C264.727 221.95 263.308 223.063 261.676 223.072L261.747 223Z" fill="#372168"/>
<path d="M185.158 218.911C184.782 218.903 184.41 218.843 184.051 218.732L162.872 211.875C160.993 211.269 159.962 209.254 160.569 207.375C161.175 205.497 163.19 204.465 165.069 205.072L186.247 211.929C187.939 212.454 188.99 214.14 188.717 215.89C188.444 217.641 186.929 218.926 185.158 218.911Z" fill="#372168"/>
<path d="M258.747 208.804H243.497C241.525 208.804 239.926 207.205 239.926 205.233C239.926 203.26 241.525 201.661 243.497 201.661H258.747C260.72 201.661 262.319 203.26 262.319 205.233C262.319 207.205 260.72 208.804 258.747 208.804Z" fill="#372168"/>
<path fill-rule="evenodd" clip-rule="evenodd" d="M357.587 158.464C357.475 159.227 356.99 159.883 356.294 160.213C355.598 160.543 354.783 160.503 354.122 160.107C347.39 156.107 321.194 143.732 307.14 140.268C274.462 132.214 246.694 132.214 212.783 136.339C185.015 139.696 152.801 150.768 144.426 155.464C143.745 155.839 142.922 155.849 142.233 155.49C141.544 155.131 141.08 154.451 140.997 153.679C139.66 143.14 139.792 132.467 141.39 121.964C142.608 113.377 148.035 105.966 155.855 102.214C157.32 101.478 158.85 100.88 160.426 100.429C178.658 95.625 210.426 88.6785 242.712 88.6428C288.48 88.6428 320.515 95.6428 337.105 100.482C341.21 101.672 345.015 103.724 348.265 106.5C354.018 111.346 357.72 118.193 358.622 125.661C359.625 136.596 359.277 147.614 357.587 158.464Z" fill="#A99BFF"/>
<g style="mix-blend-mode:soft-light" opacity="0.8">
<path d="M357.587 158.464C357.475 159.227 356.99 159.883 356.294 160.213C355.598 160.543 354.783 160.503 354.122 160.107C347.39 156.107 321.194 143.732 307.14 140.268C274.462 132.214 246.694 132.214 212.783 136.339C185.015 139.696 152.801 150.768 144.426 155.464C143.745 155.839 142.922 155.849 142.233 155.49C141.544 155.131 141.08 154.451 140.997 153.679C139.66 143.14 139.792 132.467 141.39 121.964C142.608 113.377 148.035 105.966 155.855 102.214C157.32 101.478 158.85 100.88 160.426 100.429C178.658 95.625 210.426 88.6785 242.712 88.6428C288.48 88.6428 320.515 95.6428 337.105 100.482C341.21 101.672 345.015 103.724 348.265 106.5C354.018 111.346 357.72 118.193 358.622 125.661C359.625 136.596 359.277 147.614 357.587 158.464Z" fill="white"/>
</g>
<path fill-rule="evenodd" clip-rule="evenodd" d="M352.301 163.179C353.207 163.724 354.243 164.014 355.301 164.018C356.177 164.045 357.048 163.88 357.854 163.536C359.623 162.686 360.854 161.013 361.14 159.072C362.876 147.968 363.23 136.691 362.194 125.5C361.184 117.152 357.049 109.495 350.622 104.072C346.981 100.97 342.719 98.6809 338.122 97.3574C322.747 92.8752 290.015 85.3752 243.158 85.3752H242.729C209.408 85.411 176.301 92.8574 159.533 97.286C157.799 97.731 156.108 98.3286 154.479 99.0717H154.319C145.412 103.335 139.231 111.775 137.854 121.554C136.18 132.385 136.047 143.399 137.462 154.268C137.735 156.189 138.936 157.852 140.673 158.716C142.411 159.579 144.462 159.532 146.158 158.59C154.64 153.822 186.515 143.125 213.212 139.875C244.337 136.09 272.087 135.304 306.283 143.732C319.926 147.107 345.569 159.197 352.301 163.179ZM307.979 136.822C289.955 132.299 271.438 130.038 252.854 130.089V130.072C239.307 130.143 225.776 131.037 212.337 132.75C185.176 136.054 154.765 146.304 144.301 151.464C143.246 141.836 143.456 132.11 144.926 122.536C145.961 115.172 150.585 108.802 157.265 105.536H157.408C158.679 104.925 160.007 104.44 161.372 104.089C177.801 99.7502 210.229 92.4109 242.729 92.4109H243.158C289.122 92.4109 321.122 99.7323 336.122 104.107C346.301 107.046 353.756 115.758 355.087 126.268C355.99 136.217 355.732 146.236 354.319 156.125C345.39 151.214 321.551 140.161 307.979 136.822Z" fill="#372168"/>
<path d="M197.694 138.125C196.912 138.12 196.224 137.606 195.997 136.858C195.141 134.076 194.49 131.235 194.051 128.358C193.898 127.371 194.573 126.448 195.56 126.295C196.546 126.142 197.469 126.818 197.622 127.804C198.019 130.511 198.616 133.185 199.408 135.804C199.698 136.746 199.171 137.745 198.229 138.036C198.056 138.093 197.876 138.123 197.694 138.125Z" fill="#372168"/>
<path d="M306.872 142.732C306.553 142.738 306.239 142.657 305.961 142.5C305.113 141.997 304.834 140.902 305.336 140.054C308.461 134.696 309.658 126.625 308.908 116C308.863 115.362 309.162 114.749 309.693 114.391C310.223 114.033 310.903 113.986 311.478 114.266C312.053 114.546 312.435 115.112 312.479 115.75C313.283 127.107 311.926 135.893 308.426 141.857C308.101 142.405 307.509 142.738 306.872 142.732Z" fill="#372168"/>
<path fill-rule="evenodd" clip-rule="evenodd" d="M348.283 106.679C345.033 103.902 341.228 101.851 337.122 100.661C320.533 95.8216 288.497 88.7859 242.73 88.8216C210.587 88.8216 178.676 95.8037 160.444 100.607C158.868 101.059 157.337 101.657 155.872 102.393C155.872 102.393 165.212 88.3216 162.515 76.1609C159.819 64.0002 150.015 43.7323 184.997 30.2323C219.98 16.7323 255.73 -5.48198 272.622 -4.21412C286.765 -3.08912 296.658 2.30374 305.051 18.7502C308.46 25.3379 312.592 31.5249 317.372 37.1966C320.896 41.2558 323.666 45.9124 325.551 50.9466C327.968 58.2078 331.67 64.9759 336.48 70.9287C341.551 77.0002 346.962 87.8573 348.283 106.679Z" fill="#A99BFF"/>
<path fill-rule="evenodd" clip-rule="evenodd" d="M345.979 109.393C346.622 109.942 347.438 110.246 348.283 110.25C348.833 110.305 349.387 110.238 349.908 110.054C351.192 109.402 351.96 108.043 351.854 106.607C350.694 90.1966 346.444 77.518 339.212 68.768C334.673 63.1385 331.183 56.7392 328.908 49.8752C326.892 44.4333 323.909 39.4002 320.104 35.018C315.483 29.5303 311.494 23.5403 308.212 17.1609C299.854 0.714455 289.622 -6.49983 272.89 -7.83912C261.194 -8.76769 242.497 0.0715985 220.854 10.3216C208.694 16.1252 196.194 21.9823 183.694 26.8395C149.391 40.1109 154.789 60.688 158.023 73.014L158.033 73.0538L158.054 73.132C158.403 74.4604 158.735 75.7196 158.997 76.893C161.337 87.3752 152.962 100.232 152.872 100.357C152.184 101.433 152.123 102.795 152.712 103.929C153.643 105.579 155.681 106.246 157.408 105.464C158.679 104.853 160.007 104.369 161.372 104.018C177.801 99.6788 210.229 92.3395 242.729 92.3395H243.158C289.122 92.3395 321.122 99.6609 336.122 104.036C339.755 105.092 343.117 106.919 345.979 109.393ZM338.122 97.2324C322.747 92.7502 290.015 85.2502 243.158 85.2502H242.729C211.587 85.2859 180.622 91.7859 163.015 96.2502C165.408 90.6074 167.622 82.7324 165.98 75.3038C165.757 74.3026 165.48 73.2473 165.192 72.1462C165.11 71.8333 165.027 71.5167 164.944 71.1967C161.801 59.2859 157.89 44.4467 186.283 33.4645C198.948 28.5648 211.455 22.6489 223.579 16.9143L223.926 16.7502C243.747 7.33951 262.515 -1.53549 272.319 -0.749773C284.408 0.214513 293.569 4.07166 301.854 20.2859C305.385 27.1111 309.667 33.52 314.622 39.3931C317.868 43.1178 320.42 47.3936 322.158 52.0181C324.718 59.6873 328.631 66.8359 333.712 73.1252C337.408 77.5895 341.908 85.6431 343.926 99.5181C342.069 98.5729 340.125 97.8075 338.122 97.2324Z" fill="#372168"/>
<path d="M340.122 140.304H339.765C339.301 140.209 338.894 139.934 338.632 139.539C338.371 139.144 338.278 138.661 338.372 138.197C340.744 125.89 339.763 113.173 335.533 101.375C335.35 100.937 335.348 100.444 335.529 100.005C335.71 99.5663 336.059 99.2175 336.497 99.0359C337.405 98.666 338.441 99.0963 338.819 100C343.393 112.443 344.449 125.906 341.872 138.911C341.688 139.728 340.96 140.308 340.122 140.304Z" fill="#372168"/>
<path d="M166.408 146.964C165.672 146.962 165.012 146.508 164.747 145.821C155.729 122.375 164.372 99.3928 164.747 98.3928C165.102 97.4707 166.138 97.011 167.06 97.3661C167.982 97.7211 168.442 98.7564 168.087 99.6786C168.087 99.8928 159.569 122.411 168.087 144.536C168.255 144.979 168.24 145.47 168.046 145.902C167.852 146.334 167.494 146.671 167.051 146.839C166.845 146.915 166.628 146.957 166.408 146.964Z" fill="#372168"/>
<path d="M310.033 111.25C309.131 111.258 308.365 110.592 308.247 109.697C307.545 104.404 306.507 99.1615 305.14 94.0005C304.927 93.075 305.476 92.1447 306.389 91.8831C307.302 91.6216 308.259 92.1204 308.569 93.0183C310.002 98.3389 311.076 103.75 311.783 109.215C311.849 109.686 311.724 110.165 311.436 110.544C311.147 110.922 310.719 111.171 310.247 111.233L310.033 111.25Z" fill="#372168"/>
<path d="M194.962 120.393C193.975 120.393 193.176 119.594 193.176 118.607C192.959 109.719 193.901 100.841 195.979 92.1967C196.276 91.3007 197.218 90.7902 198.131 91.0313C199.043 91.2724 199.611 92.1819 199.426 93.1074C197.457 101.423 196.557 109.956 196.747 118.5C196.747 119.486 195.948 120.286 194.962 120.286V120.393Z" fill="#372168"/>
<path d="M275.104 136.482C274.866 136.478 274.629 136.43 274.408 136.34C273.501 135.954 273.078 134.908 273.462 134C281.694 114.786 272.872 90.8396 272.783 90.6074C272.616 90.1624 272.633 89.6689 272.831 89.2365C273.028 88.8041 273.391 88.4684 273.837 88.3039C274.759 87.9672 275.779 88.4378 276.122 89.3574C276.515 90.3753 285.551 114.84 276.747 135.393C276.468 136.053 275.821 136.482 275.104 136.482Z" fill="#372168"/>
<path d="M233.694 129.875C233.534 129.901 233.371 129.901 233.212 129.875C232.754 129.747 232.366 129.44 232.135 129.025C231.903 128.609 231.847 128.118 231.979 127.661C234.944 117.25 231.979 89.5539 231.979 89.286C231.871 88.2998 232.582 87.4124 233.569 87.3039C234.555 87.1954 235.442 87.907 235.551 88.8932C235.676 90.0539 238.64 117.465 235.551 128.643C235.295 129.437 234.524 129.949 233.694 129.875Z" fill="#372168"/>
<path d="M162.462 87.768H162.247C161.272 87.6471 160.578 86.7614 160.694 85.7859C160.783 85.1073 162.926 69.2502 176.033 61.4109C176.584 61.01 177.316 60.9579 177.918 61.2765C178.521 61.5952 178.889 62.2291 178.868 62.9104C178.847 63.5917 178.44 64.2016 177.819 64.4823C166.229 71.4109 164.212 86.0894 164.176 86.2323C164.055 87.0933 163.331 87.7417 162.462 87.768Z" fill="#372168"/>
<path d="M339.265 76.5003C338.694 76.5018 338.156 76.2297 337.819 75.7682C334.072 71.2215 329.602 67.324 324.587 64.2325C312.231 56.5283 297.894 52.5997 283.337 52.9289C282.35 52.9289 281.551 52.1294 281.551 51.1432C281.551 50.157 282.35 49.3575 283.337 49.3575C322.319 49.0896 339.979 72.6611 340.712 73.6611C341.107 74.202 341.166 74.9188 340.865 75.5173C340.564 76.1158 339.953 76.4954 339.283 76.5003H339.265Z" fill="#372168"/>
<path d="M282.872 15.0182C282.415 15.0212 281.974 14.8487 281.64 14.5361C279.394 12.3306 276.467 10.952 273.337 10.6254C271.047 10.5089 268.761 10.8991 266.64 11.7682C265.708 12.0986 264.685 11.6109 264.354 10.679C264.024 9.74697 264.512 8.72362 265.444 8.39324C268.075 7.32742 270.915 6.8755 273.747 7.07181C277.652 7.47887 281.303 9.19738 284.104 11.9468C284.628 12.4513 284.793 13.2227 284.522 13.8974C284.252 14.5721 283.599 15.0154 282.872 15.0182Z" fill="#372168"/>
</g>
<path fill-rule="evenodd" clip-rule="evenodd" d="M0 250C0 111.929 111.929 0 250 0C388.071 0 500 111.929 500 250C500 388.071 388.071 500 250 500C111.929 500 0 388.071 0 250ZM492.857 250C492.857 115.874 384.126 7.14286 250 7.14286C115.874 7.14286 7.14286 115.874 7.14286 250C7.14286 384.126 115.874 492.857 250 492.857C384.126 492.857 492.857 384.126 492.857 250Z" fill="#372168"/>
</svg>
