<svg width="500" height="500" viewBox="0 0 500 500" fill="none" xmlns="http://www.w3.org/2000/svg">
<path fill-rule="evenodd" clip-rule="evenodd" d="M250 496.429C386.099 496.429 496.429 386.099 496.429 250C496.429 113.901 386.099 3.57144 250 3.57144C113.901 3.57144 3.57141 113.901 3.57141 250C3.57141 386.099 113.901 496.429 250 496.429Z" fill="#E7EEFF"/>
<mask id="mask0_0_287" style="mask-type:alpha" maskUnits="userSpaceOnUse" x="3" y="3" width="494" height="494">
<path fill-rule="evenodd" clip-rule="evenodd" d="M250 496.429C386.099 496.429 496.429 386.099 496.429 250C496.429 113.901 386.099 3.57144 250 3.57144C113.901 3.57144 3.57141 113.901 3.57141 250C3.57141 386.099 113.901 496.429 250 496.429Z" fill="white"/>
</mask>
<g mask="url(#mask0_0_287)">
<path fill-rule="evenodd" clip-rule="evenodd" d="M336.74 210.585C337.919 197.482 339.687 159.822 324.533 135.107C306.015 105.089 275.623 96.321 249.926 96.7317C224.212 96.321 193.819 105.089 175.301 135.107C160.033 159.892 161.855 197.696 163.033 210.696C163.025 210.845 163.025 210.994 163.033 211.142C163.283 213.732 163.498 215.232 163.498 215.232C163.512 215.432 163.538 215.632 163.563 215.832C163.602 216.132 163.641 216.432 163.641 216.732C163.783 218.089 163.944 219.428 164.105 220.732C165.039 228.433 166.592 236.047 168.748 243.5L169.98 247.41C170.748 249.839 171.569 252.214 172.39 254.553C172.98 256.125 173.587 257.714 174.176 259.25C174.465 260.043 174.765 260.766 175.067 261.494L175.07 261.501C175.109 261.596 175.148 261.691 175.188 261.786C175.22 261.863 175.251 261.94 175.283 262.017C180.269 274.629 187.251 286.356 195.962 296.75L196.051 296.853V358.821C197.462 367.91 221.051 375.053 249.998 375.053C278.944 375.053 302.533 367.875 303.944 358.821V296.623L304.033 296.517C312.675 286.19 319.603 274.542 324.551 262.017C324.734 261.539 324.916 261.095 325.097 260.656C325.287 260.193 325.475 259.735 325.658 259.25C326.174 257.946 326.677 256.603 327.177 255.265L327.179 255.261L327.444 254.553L327.464 254.493C336.162 256.464 347.548 254.592 354.301 244.285C363.158 230.785 359.158 215.91 349.694 211.41C345.646 209.46 340.999 209.165 336.74 210.585ZM300.158 300.839L300.316 300.674C300.394 300.593 300.471 300.512 300.547 300.431C300.435 300.562 300.323 300.692 300.212 300.821C295.684 305.617 290.614 309.872 285.105 313.5C280.354 316.719 275.207 319.25 269.817 321.044C275.188 319.251 280.316 316.726 285.051 313.517C290.56 309.89 295.63 305.635 300.158 300.839Z" fill="#FFC7BB"/>
<path d="M145.426 244.357C152.194 254.714 163.658 256.553 172.373 254.535C171.087 250.964 169.837 247.279 168.623 243.482C166.636 236.637 165.168 229.653 164.23 222.589C163.962 220.678 163.73 218.732 163.516 216.75C163.442 216.252 163.394 215.752 163.373 215.25C163.373 215.25 163.194 214.125 162.998 212.142C162.908 211.839 162.908 211.5 162.908 211.16C162.9 211.006 162.9 210.851 162.908 210.696C159.436 209.548 155.693 209.504 152.194 210.571C151.413 210.823 150.649 211.128 149.908 211.482C140.551 215.91 136.498 230.785 145.426 244.357Z" fill="#FFC7BB"/>
<path d="M47.8727 424.411C82.0512 393.911 136.891 375.482 171.087 365.589L172.426 365.196C182.551 362.268 190.766 360.125 195.926 358.661C197.337 367.714 220.926 374.893 249.855 374.893C278.783 374.893 302.391 367.75 303.819 358.661H304.105C309.212 360.125 317.355 362.232 327.408 365.143L328.623 365.5C362.748 375.375 417.676 393.821 451.944 424.429C469.763 440.386 488.57 473.662 504.788 508.036H-5.00757C11.2115 473.626 30.0329 440.311 47.8727 424.411Z" fill="#E7EEFF"/>
<g style="mix-blend-mode:soft-light" opacity="0.4">
<path d="M282.694 393.25C271.915 395.66 260.9 396.858 249.855 396.821C213.319 396.821 182.301 384.696 171.069 365.786L172.408 365.393C182.533 362.464 190.748 360.321 195.908 358.857C197.319 367.911 220.908 375.089 249.837 375.089C278.766 375.089 302.373 367.946 303.801 358.857H304.087C309.194 360.321 317.337 362.428 327.391 365.339L328.605 365.696C323.087 375.053 312.748 382.75 299.283 388.143" fill="white"/>
</g>
<g style="mix-blend-mode:soft-light" opacity="0.4">
<path d="M282.694 393.25C271.915 395.66 260.9 396.858 249.855 396.821C213.319 396.821 182.301 384.696 171.069 365.786L172.408 365.393C182.533 362.464 190.748 360.321 195.908 358.857C197.319 367.911 220.908 375.089 249.837 375.089C278.766 375.089 302.373 367.946 303.801 358.857H304.087C309.194 360.321 317.337 362.428 327.391 365.339L328.605 365.696C323.087 375.053 312.748 382.75 299.283 388.143" fill="white"/>
</g>
<g style="mix-blend-mode:multiply" opacity="0.15">
<path fill-rule="evenodd" clip-rule="evenodd" d="M300.426 300.464V350.089C252.212 350.911 216.283 327.643 199.444 313.928V300.643L199.641 300.857C204.169 305.648 209.239 309.897 214.748 313.518C224.613 320.205 236.19 323.924 248.105 324.232H251.587C263.508 323.927 275.091 320.209 284.962 313.518C290.474 309.886 295.549 305.632 300.087 300.839L300.426 300.464Z" fill="#7C3830"/>
</g>
<path fill-rule="evenodd" clip-rule="evenodd" d="M251.152 93.1641L249.962 93.1781C230.373 92.821 194.194 97.6424 172.23 133.25C158.439 155.629 157.983 187.506 159.001 204.934L159.087 206.315C156.403 206.103 153.687 206.402 151.087 207.214C150.176 207.524 149.282 207.882 148.409 208.285C143.178 210.957 139.352 215.753 137.909 221.446C135.765 230.012 137.425 239.087 142.462 246.339C147.607 254.317 156.526 259.05 166.016 258.839L167.028 258.822C168.04 258.79 169.049 258.71 170.053 258.583L170.784 260.5C171.159 261.464 171.534 262.41 171.927 263.357C176.861 275.85 183.709 287.497 192.223 297.879L192.354 298.037V356.098L188.069 357.285C184.085 358.363 179.226 359.688 173.755 361.258L171.373 361.946L170.069 362.321C112.48 379.053 71.7302 398.464 45.4623 421.91C27.0201 438.376 7.7464 472.482 -8.92859 508.036H508.88C483.311 453.62 464.734 431.125 454.427 421.91C428.683 398.928 389.049 379.743 333.434 363.317L330.247 362.382C330.132 362.332 330.013 362.288 329.891 362.25L328.605 361.875C325.415 360.96 322.417 360.117 319.645 359.348L312.909 357.5L307.515 356.003L307.516 297.952C316.05 287.568 322.913 275.914 327.855 263.41C328.248 262.464 328.641 261.517 328.998 260.553L329.739 258.58C331.062 258.749 332.395 258.836 333.73 258.839C343.241 259.023 352.163 254.248 357.284 246.232L357.707 245.605C362.405 238.451 363.911 229.648 361.837 221.321C360.389 215.644 356.571 210.864 351.355 208.196C350.249 207.67 349.103 207.234 347.927 206.892C345.562 206.254 343.118 206.029 340.7 206.217C341.81 189.108 341.672 156.189 327.552 133.25C306.027 98.3545 270.902 93.0433 251.152 93.1641ZM269.785 377.57C290.132 375.225 302.072 369.286 306.105 363.035L311.034 364.392C313.25 364.995 315.69 365.662 318.34 366.399L323.087 367.732C317.694 374.535 309.194 380.375 298.177 384.803L297.9 384.917C296.821 385.417 296.055 386.427 295.873 387.616C295.675 388.904 296.194 390.197 297.228 390.99C298.261 391.784 299.644 391.951 300.837 391.428C314.192 386.063 324.337 378.648 330.398 369.848C384.808 385.824 424.936 405.127 449.677 427.214C465.576 441.411 482.459 470.211 497.431 500.893H2.49725C17.4298 470.292 34.3358 441.409 50.2659 427.214C74.4284 405.681 113.294 386.761 165.955 370.963L169.567 369.891C182.446 388.485 213.532 400.357 249.944 400.357C261.28 400.389 272.582 399.15 283.641 396.66C285.564 396.221 286.767 394.307 286.328 392.383C285.89 390.46 283.975 389.257 282.052 389.696C271.53 392.045 260.778 393.201 249.998 393.142C217.212 393.142 189.319 383.303 176.962 367.75L193.989 363.121C199.241 371.156 217.533 378.642 249.944 378.642C257.276 378.642 263.886 378.258 269.785 377.57ZM287.016 316.535C276.567 323.572 264.324 327.476 251.73 327.785H247.962C235.4 327.452 223.195 323.536 212.784 316.5C208.036 313.372 203.599 309.801 199.532 305.836L199.502 357.824C199.552 357.974 199.592 358.128 199.623 358.285C200.471 363.724 219.636 371.311 249.021 371.479L249.909 371.482C277.046 371.482 295.707 365.162 299.621 359.87C300.017 359.328 300.258 358.797 300.337 358.285L300.339 305.787C296.253 309.785 291.792 313.384 287.016 316.535ZM248.302 100.303L251.078 100.276C269.308 100.221 301.704 105.044 321.409 136.964C335.694 160.156 334.322 196.162 333.288 208.864L333.159 210.357V210.553L336.519 210.837H336.135L333.159 210.75C332.989 212.542 332.828 213.769 332.755 214.332L332.754 214.335C332.745 214.403 332.738 214.461 332.732 214.509C332.719 214.605 332.712 214.662 332.712 214.678V214.928C332.699 215.09 332.679 215.249 332.659 215.411C332.624 215.694 332.587 215.984 332.587 216.303C331.713 225.137 330.046 233.875 327.605 242.41C326.48 246.089 325.284 249.767 324.034 253.232L323.587 254.428C323.373 255.053 323.127 255.723 322.893 256.348L322.266 258C321.927 258.892 321.569 259.785 321.194 260.678C316.39 272.852 309.661 284.174 301.266 294.214L301.541 293.875C301.492 293.92 301.444 293.966 301.397 294.014C301.339 294.073 301.284 294.133 301.23 294.196C299.909 295.75 298.694 297.125 297.48 298.375L296.471 299.426C292.398 303.594 287.887 307.313 283.016 310.517L282.167 311.082L281.308 311.633C276.362 314.645 271.646 316.663 267.436 318.012C262.324 319.601 256.993 320.493 251.587 320.642H248.105C239.347 320.394 230.786 318.201 223.029 314.26C220.856 313.154 218.746 311.911 216.712 310.535C211.443 307.054 206.589 302.98 202.248 298.392C201.159 297.232 199.98 295.946 198.677 294.428C190.21 284.318 183.426 272.91 178.587 260.642C178.23 259.768 177.873 258.892 177.516 257.982C176.891 256.464 176.284 254.892 175.73 253.375L175.58 252.944L175.579 252.941L175.578 252.938L175.576 252.932C175.575 252.929 175.574 252.926 175.572 252.923C175.106 251.586 174.635 250.237 174.178 248.878L173.355 246.357C172.944 245.071 172.534 243.785 172.141 242.5C170.036 235.233 168.513 227.811 167.587 220.303C167.427 219.017 167.266 217.696 167.123 216.357C166.998 215.892 166.998 215.446 166.998 214.982C167.006 214.899 167.006 214.815 166.998 214.732L166.587 211.214L166.587 210.732C166.587 210.456 166.555 210.187 166.494 209.929C165.464 198.282 163.584 160.847 178.284 137C197.802 105.339 229.802 100.303 248.302 100.303ZM340.643 213.53L340.123 213.616L339.933 215.214L339.873 215.625C339.82 215.945 339.796 216.314 339.773 216.682L339.762 216.851C339.758 216.919 339.753 216.986 339.748 217.053C339.023 224.437 337.766 231.757 335.988 238.955C338.388 238.847 340.629 237.623 342.016 235.607C343.735 233.252 344.017 230.142 342.748 227.517C342.211 226.689 342.446 225.582 343.275 225.044C344.103 224.507 345.211 224.743 345.748 225.571C347.598 229.133 347.473 233.398 345.418 236.845C343.363 240.293 339.671 242.432 335.659 242.5C335.46 242.513 335.261 242.52 335.062 242.52L334.498 244.535C333.762 246.947 332.998 249.344 332.204 251.703C339.594 252.363 346.754 249.003 350.973 242.933L351.302 242.446C355.205 236.917 356.538 229.975 354.962 223.392C354.069 219.691 351.631 216.55 348.266 214.767C347.525 214.409 346.754 214.116 345.962 213.892C344.423 213.462 342.821 213.318 341.236 213.462L340.643 213.53ZM153.302 213.982C154.594 213.567 155.944 213.357 157.288 213.355L157.858 213.363C158.449 213.382 159.039 213.44 159.623 213.535L159.766 214.778C159.798 215.043 159.83 215.258 159.862 215.424L159.903 215.884C159.908 215.928 159.914 215.972 159.919 216.015C159.931 216.109 159.944 216.202 159.957 216.294C159.996 216.583 160.034 216.854 160.034 217.089C160.248 219.071 160.48 221.017 160.748 222.928C160.739 222.975 160.739 223.024 160.748 223.071C161.447 228.403 162.446 233.691 163.741 238.91C161.181 238.928 158.757 237.683 157.284 235.553C155.583 233.192 155.303 230.092 156.552 227.464C157.086 226.64 156.855 225.539 156.034 225C155.636 224.737 155.151 224.644 154.685 224.741C154.219 224.839 153.811 225.118 153.552 225.517C151.68 229.098 151.806 233.395 153.883 236.86C155.96 240.326 159.69 242.462 163.73 242.5C164.045 242.505 164.359 242.495 164.672 242.469L164.672 242.466L164.909 242.446C164.83 242.455 164.751 242.462 164.672 242.469C164.859 243.147 165.051 243.824 165.248 244.5C165.98 246.928 166.73 249.303 167.516 251.642C159.912 252.349 152.541 248.797 148.355 242.41L147.977 241.851C144.401 236.397 143.237 229.695 144.784 223.339C145.676 219.622 148.13 216.471 151.516 214.696C152.095 214.42 152.692 214.181 153.302 213.982Z" fill="#372168"/>
<path fill-rule="evenodd" clip-rule="evenodd" d="M430.837 432.821C424.296 427.042 417.324 421.77 409.98 417.053C409.444 416.705 408.764 416.67 408.194 416.96C407.625 417.251 407.254 417.822 407.221 418.46C407.188 419.098 407.498 419.705 408.034 420.053C415.224 424.672 422.053 429.83 428.462 435.482C428.785 435.775 429.204 435.94 429.641 435.946C430.154 435.945 430.642 435.724 430.98 435.339C431.635 434.604 431.571 433.477 430.837 432.821ZM164.909 242.446C164.83 242.455 164.751 242.462 164.672 242.469L164.672 242.466L164.909 242.446Z" fill="#372168"/>
<path d="M260.391 295.617C259.89 295.62 259.411 295.39 259.07 294.982C256.579 292.661 253.388 291.477 250.141 291.668C246.915 291.473 243.738 292.603 241.213 294.843C240.78 295.412 240.097 295.664 239.443 295.495C238.79 295.325 238.277 294.764 238.116 294.04C237.954 293.317 238.171 292.554 238.677 292.065C245.457 286.174 254.998 286.256 261.695 292.263C262.189 292.84 262.326 293.688 262.042 294.419C261.758 295.15 261.108 295.621 260.391 295.617Z" fill="#372168"/>
<g style="mix-blend-mode:multiply" opacity="0.15">
<path fill-rule="evenodd" clip-rule="evenodd" d="M220.497 245.119C220.497 256.019 212.502 264.856 202.64 264.856C192.778 264.856 184.783 256.019 184.783 245.119C184.783 234.219 192.778 225.382 202.64 225.382C212.502 225.382 220.497 234.219 220.497 245.119ZM316.926 245.119C316.926 256.019 308.931 264.856 299.069 264.856C289.207 264.856 281.212 256.019 281.212 245.119C281.212 234.219 289.207 225.382 299.069 225.382C308.931 225.382 316.926 234.219 316.926 245.119Z" fill="#FF1300"/>
</g>
<path fill-rule="evenodd" clip-rule="evenodd" d="M309.042 131.917C304.185 136.435 298.133 139.463 291.605 140.643C250.533 148.107 204.694 139.857 204.694 139.857C203.449 139.602 202.221 139.275 201.015 138.875C197.551 144.54 194.889 150.658 193.105 157.054C193.097 157.137 193.097 157.22 193.105 157.304C190.337 166.768 188.176 181.375 188.265 203.911C188.265 229.393 168.622 237.089 153.605 234.268C153.605 234.268 163.533 226.214 147.105 196.179C124.194 154.375 149.622 123.911 149.622 123.911C152.333 119.213 152.867 117.234 153.922 113.319C154.195 112.309 154.502 111.17 154.89 109.821C160.247 91.0536 172.64 82.9286 180.962 79.4643C185.561 77.6377 189.727 74.8702 193.194 71.3393C200.105 64.0536 210.355 62.2858 217.444 62.0179C222.902 61.7635 228.304 60.8031 233.515 59.1608C245.158 55.5893 268.48 52.0179 296.48 67.4286C312.837 76.3572 318.622 89.3215 319.694 101.5V101.594C322.442 102.301 359.558 112.76 362.98 162.625C363.658 173.393 360.247 196.214 355.033 215.339C353.829 214.066 352.4 213.025 350.819 212.268C346.729 210.319 342.041 210.037 337.747 211.482C343.492 163.579 310.13 132.904 309.042 131.917Z" fill="#FFA1B2"/>
<path fill-rule="evenodd" clip-rule="evenodd" d="M322.815 98.7115C320.73 83.8092 312.393 72.2565 298.015 64.3572C269.381 48.6241 245.299 51.9551 233.056 55.5701L231.056 56.1734C226.542 57.4816 221.89 58.2627 217.194 58.5C209.158 58.8036 198.051 60.8572 190.408 68.9107C187.291 72.0942 183.536 74.5831 179.39 76.2143C169.64 80.3036 156.872 89.2322 151.247 108.875C151.182 109.104 151.119 109.327 151.058 109.545L150.265 112.446C149.523 115.799 148.239 119.008 146.462 121.946C141.665 128.395 138.155 135.707 136.122 143.482C132.765 155.839 131.355 175.304 143.765 197.946L144.18 198.71C156.703 221.967 152.206 230.101 151.295 231.378L151.158 231.554L150.932 231.718C149.918 232.523 149.454 233.851 149.765 235.125C150.111 236.551 151.294 237.621 152.747 237.821L153.834 238C155.649 238.272 157.483 238.409 159.319 238.411C167.006 238.543 174.497 235.985 180.497 231.179C185.64 226.875 191.712 218.679 191.712 203.946C191.622 184.607 193.212 169.268 196.408 158.357C196.4 158.31 196.4 158.262 196.408 158.214V158.107C197.893 152.895 199.953 147.864 202.551 143.107C202.672 143.139 202.787 143.171 202.896 143.202C203.272 143.307 203.58 143.393 203.801 143.393H204.015C205.908 143.732 250.872 151.661 292.194 144.179C298.277 143.086 303.985 140.532 308.833 136.755C316.159 144.463 338.891 171.888 334.194 211.054C334.048 212.256 334.522 213.451 335.453 214.227C336.384 215.002 337.644 215.253 338.801 214.893C342.232 213.716 345.988 213.927 349.265 215.482C350.453 216.047 351.525 216.828 352.426 217.786C353.102 218.505 354.046 218.912 355.033 218.911C355.369 218.886 355.7 218.814 356.015 218.696C357.27 218.388 358.261 217.425 358.605 216.179C363.926 196.625 367.372 173.446 366.587 162.25C363.505 117.408 333.749 102.727 323.69 99.0241L322.815 98.7115ZM247.401 59.9979L248.295 59.9159C260.195 58.9017 276.314 60.5676 294.533 70.5714C307.533 77.7143 314.73 88.2322 315.962 101.804V102.839L316.029 103.966C316.118 105.846 316.095 107.73 315.962 109.607L315.905 110.333C315.296 117.084 312.364 123.408 307.623 128.231C307.298 128.56 306.964 128.882 306.622 129.196L306.551 129.267C302.199 133.326 296.767 136.043 290.908 137.089C277.632 139.497 263.805 140.232 251.231 140.134C239.202 124.755 228.54 121.401 221.455 121.466L220.801 121.482C212.105 121.804 204.194 127.107 197.944 136.821L197.872 136.929C194.245 142.835 191.456 149.218 189.587 155.893C189.523 156.061 189.475 156.234 189.444 156.411C186.069 167.982 184.408 183.946 184.497 203.911C184.515 213.357 181.533 220.875 175.855 225.625C172.076 228.666 167.533 230.554 162.765 231.107C162.965 230.847 163.156 230.58 163.337 230.304C171.14 219.679 171.765 197.232 164.98 171.732C156.527 139.935 182.666 117.369 188.14 113.066L189.307 112.173C189.596 111.907 189.791 111.552 189.858 111.161C189.938 110.691 189.828 110.209 189.551 109.821C188.982 109.02 187.873 108.828 187.069 109.393C186.712 109.643 151.515 134.946 161.533 172.643C169.39 201.946 165.819 220.875 160.462 228.196C160.179 228.645 159.86 229.064 159.511 229.451C160.727 223.114 159.671 212.22 150.087 194.429L149.622 193.569C136.044 168.12 141.077 147.431 146.357 135.957L146.713 135.197C159.743 113.027 173.101 99.4718 185.551 95.8214C186.01 95.6891 186.396 95.3785 186.624 94.9591C186.853 94.5397 186.903 94.0463 186.765 93.5893C186.481 92.6497 185.492 92.1154 184.551 92.3929C174.678 95.2933 165.472 103.441 157.478 113.279C157.678 112.522 157.901 111.693 158.176 110.768L158.426 109.915C163.196 94.1441 173.302 86.6452 181.309 83.0974L182.158 82.7322C184.251 81.9083 186.262 80.9063 188.169 79.7402C205.5 76.5972 251.265 71.9442 279.176 102.964C279.514 103.338 279.993 103.552 280.497 103.554C281.195 103.546 281.824 103.132 282.108 102.495C282.392 101.858 282.279 101.113 281.819 100.589C256.371 72.2975 216.963 72.3933 195.495 75.0303L194.203 75.1947C194.693 74.744 195.173 74.2802 195.64 73.8036C201.307 67.749 209.793 66.0428 216.314 65.6613L217.444 65.6072C223.187 65.3314 228.871 64.3171 234.355 62.5893L234.53 62.5349C250.453 62.7194 276.498 67.2014 296.694 91.0357C297.03 91.4391 297.526 91.6742 298.051 91.6786C298.473 91.6694 298.878 91.5113 299.194 91.2322C299.556 90.9268 299.783 90.4899 299.823 90.0176C299.863 89.5454 299.714 89.0765 299.408 88.7143C283.156 69.5365 263.281 62.3621 247.401 59.9979ZM323.247 106.643C323.247 107.804 323.247 108.982 323.105 110.214C322.858 113.927 322.044 117.554 320.713 120.976L321.522 121.582C325.902 124.907 333.28 131.29 337.765 139.429C337.995 139.843 338.051 140.332 337.92 140.787C337.79 141.243 337.483 141.628 337.069 141.857C336.806 141.999 336.511 142.073 336.212 142.071C335.557 142.073 334.954 141.717 334.64 141.143C330.455 133.542 323.324 127.435 319.212 124.322C317.832 127.029 316.108 129.569 314.069 131.875L314.563 132.393C322.907 141.216 344.513 168.082 341.765 207.089L343.444 207C344.357 207 345.267 207.061 346.167 207.181C351.171 174.96 341.369 155.904 341.265 155.714C340.802 154.841 341.133 153.758 342.006 153.295C342.817 152.864 343.809 153.12 344.317 153.857L344.49 154.162C345.45 156.064 354.795 175.38 349.653 207.959C350.581 208.252 351.49 208.612 352.372 209.036L352.926 209.321C357.166 192.204 359.962 173.007 359.391 163.434L359.355 162.893C356.73 124.696 333.337 110.875 323.247 106.643ZM206.952 136.578C210.373 132.495 215.073 128.821 221.122 128.536C227.648 128.228 234.725 132.177 241.822 139.911C227.054 139.325 214.974 137.776 209.11 136.909L206.952 136.578ZM287.918 109.099C288.384 109.196 288.792 109.476 289.051 109.875C291.811 114.114 294.201 118.583 296.194 123.232C296.385 123.668 296.394 124.161 296.22 124.604C296.046 125.046 295.702 125.401 295.265 125.589C295.049 125.675 294.819 125.724 294.587 125.732C293.874 125.735 293.229 125.314 292.944 124.661C291.019 120.194 288.719 115.899 286.069 111.821C285.531 111.002 285.754 109.902 286.569 109.357C286.966 109.095 287.452 109.002 287.918 109.099ZM259.376 120.714C259.417 120.242 259.267 119.773 258.962 119.411C258.694 119.089 231.926 88.1072 197.747 103.857C197.167 104.125 196.773 104.682 196.715 105.319C196.657 105.956 196.943 106.575 197.465 106.944C197.987 107.313 198.667 107.375 199.247 107.107C230.926 92.4822 255.23 120.518 256.247 121.714L256.401 121.877C256.726 122.18 257.155 122.353 257.605 122.357C258.024 122.353 258.429 122.201 258.747 121.929C259.11 121.623 259.336 121.186 259.376 120.714Z" fill="#372168"/>
<path d="M262.908 274.054C261.182 274.054 259.783 272.655 259.783 270.929C259.783 269.203 261.182 267.804 262.908 267.804C265.344 267.804 267.319 265.829 267.319 263.393C267.319 260.957 265.344 258.982 262.908 258.982C261.182 258.982 259.783 257.583 259.783 255.857C259.783 254.131 261.182 252.732 262.908 252.732C266.972 252.324 270.914 254.262 273.073 257.73C275.232 261.197 275.232 265.59 273.073 269.057C270.914 272.524 266.972 274.462 262.908 274.054Z" fill="#372168"/>
<path d="M250.806 241.583C246.906 241.635 243.239 239.731 241.038 236.512C240.101 235.062 240.517 233.127 241.967 232.19C243.417 231.253 245.351 231.669 246.288 233.119C247.375 234.533 249.063 235.354 250.846 235.336C252.629 235.319 254.301 234.464 255.36 233.03C256.257 231.55 258.184 231.078 259.663 231.976C261.143 232.873 261.614 234.8 260.717 236.28C258.556 239.646 254.806 241.653 250.806 241.583Z" fill="#372168"/>
<path d="M288.008 220.089C295.919 220.089 295.937 207.768 288.008 207.768C280.079 207.768 280.062 220.089 288.008 220.089Z" fill="#372168"/>
<path d="M214.847 220.089C222.776 220.089 222.793 207.768 214.847 207.768C206.901 207.768 206.901 220.089 214.847 220.089Z" fill="#372168"/>
<path d="M272.604 198.75C270.632 198.839 268.961 197.312 268.872 195.339C268.784 193.367 270.311 191.696 272.283 191.607L302.64 188.875C303.916 188.76 305.156 189.335 305.894 190.382C306.631 191.43 306.754 192.791 306.215 193.954C305.677 195.116 304.559 195.903 303.283 196.018L272.926 198.75H272.604Z" fill="#372168"/>
<path d="M198.426 198.75C196.453 198.839 194.783 197.312 194.694 195.339C194.605 193.367 196.132 191.696 198.104 191.607L228.462 188.875C230.434 188.697 232.177 190.153 232.354 192.125C232.532 194.097 231.077 195.84 229.104 196.018L198.747 198.75H198.426Z" fill="#372168"/>
</g>
<path fill-rule="evenodd" clip-rule="evenodd" d="M0 250C0 111.929 111.929 0 250 0C388.071 0 500 111.929 500 250C500 388.071 388.071 500 250 500C111.929 500 0 388.071 0 250ZM492.857 250C492.857 115.874 384.126 7.14286 250 7.14286C115.874 7.14286 7.14286 115.874 7.14286 250C7.14286 384.126 115.874 492.857 250 492.857C384.126 492.857 492.857 384.126 492.857 250Z" fill="#372168"/>
</svg>
