<svg width="500" height="500" viewBox="0 0 500 500" fill="none" xmlns="http://www.w3.org/2000/svg">
<path fill-rule="evenodd" clip-rule="evenodd" d="M250 496.429C386.099 496.429 496.429 386.099 496.429 250C496.429 113.901 386.099 3.57141 250 3.57141C113.901 3.57141 3.57141 113.901 3.57141 250C3.57141 386.099 113.901 496.429 250 496.429Z" fill="#E7EEFF"/>
<mask id="mask0_0_269" style="mask-type:alpha" maskUnits="userSpaceOnUse" x="3" y="3" width="494" height="494">
<path fill-rule="evenodd" clip-rule="evenodd" d="M250 496.429C386.099 496.429 496.429 386.099 496.429 250C496.429 113.901 386.099 3.57141 250 3.57141C113.901 3.57141 3.57141 113.901 3.57141 250C3.57141 386.099 113.901 496.429 250 496.429Z" fill="white"/>
</mask>
<g mask="url(#mask0_0_269)">
<path fill-rule="evenodd" clip-rule="evenodd" d="M336.74 210.585C337.919 197.482 339.687 159.822 324.533 135.107C306.015 105.089 275.623 96.321 249.926 96.7317C224.212 96.321 193.819 105.089 175.301 135.107C160.033 159.892 161.855 197.696 163.033 210.696C163.025 210.845 163.025 210.994 163.033 211.142C163.283 213.732 163.498 215.232 163.498 215.232C163.512 215.432 163.538 215.632 163.563 215.832C163.602 216.132 163.641 216.432 163.641 216.732C163.783 218.089 163.944 219.428 164.105 220.732C165.039 228.433 166.592 236.047 168.748 243.5L169.98 247.41C170.748 249.839 171.569 252.214 172.39 254.553C172.98 256.125 173.587 257.714 174.176 259.25C174.465 260.043 174.765 260.766 175.067 261.494L175.07 261.501C175.109 261.596 175.148 261.69 175.188 261.785C175.22 261.863 175.251 261.94 175.283 262.017C180.269 274.629 187.251 286.356 195.962 296.75L196.051 296.853V358.821C197.462 367.91 221.051 375.053 249.998 375.053C278.944 375.053 302.533 367.875 303.944 358.821V296.623L304.033 296.517C312.675 286.19 319.603 274.542 324.551 262.017C324.734 261.539 324.916 261.095 325.097 260.656C325.287 260.193 325.475 259.735 325.658 259.25C326.174 257.945 326.677 256.603 327.177 255.265L327.179 255.261L327.444 254.553L327.464 254.493C336.162 256.464 347.548 254.592 354.301 244.285C363.158 230.785 359.158 215.91 349.694 211.41C345.646 209.46 340.999 209.165 336.74 210.585ZM300.158 300.839L300.316 300.674C300.394 300.593 300.471 300.512 300.547 300.431C300.435 300.561 300.323 300.692 300.212 300.821C295.684 305.617 290.614 309.872 285.105 313.5C280.354 316.719 275.207 319.25 269.817 321.044C275.188 319.251 280.316 316.726 285.051 313.517C290.56 309.89 295.63 305.635 300.158 300.839Z" fill="#FFC7BB"/>
<path d="M145.426 244.357C152.194 254.714 163.658 256.553 172.373 254.535C171.087 250.964 169.837 247.279 168.623 243.482C166.636 236.637 165.168 229.653 164.23 222.589C163.962 220.678 163.73 218.732 163.516 216.75C163.442 216.252 163.394 215.752 163.373 215.25C163.373 215.25 163.194 214.125 162.998 212.142C162.908 211.839 162.908 211.5 162.908 211.16C162.9 211.006 162.9 210.851 162.908 210.696C159.436 209.548 155.693 209.504 152.194 210.571C151.413 210.823 150.649 211.128 149.908 211.482C140.551 215.91 136.498 230.785 145.426 244.357Z" fill="#FFC7BB"/>
<path d="M47.8727 424.411C82.0512 393.911 136.891 375.482 171.087 365.589L172.426 365.196C182.551 362.268 190.766 360.125 195.926 358.661C197.337 367.714 220.926 374.893 249.855 374.893C278.783 374.893 302.391 367.75 303.819 358.661H304.105C309.212 360.125 317.355 362.232 327.408 365.143L328.623 365.5C362.748 375.375 417.676 393.821 451.944 424.428C469.763 440.386 488.57 473.662 504.788 508.035H-5.00757C11.2115 473.626 30.0329 440.311 47.8727 424.411Z" fill="#8BCBC9"/>
<g style="mix-blend-mode:soft-light" opacity="0.4">
<path d="M282.694 393.25C271.915 395.66 260.9 396.858 249.855 396.821C213.319 396.821 182.301 384.696 171.069 365.786L172.408 365.393C182.533 362.464 190.748 360.321 195.908 358.857C197.319 367.911 220.908 375.089 249.837 375.089C278.766 375.089 302.373 367.946 303.801 358.857H304.087C309.194 360.321 317.337 362.428 327.391 365.339L328.605 365.696C323.087 375.053 312.748 382.75 299.283 388.143" fill="white"/>
</g>
<g style="mix-blend-mode:soft-light" opacity="0.4">
<path d="M282.694 393.25C271.915 395.66 260.9 396.858 249.855 396.821C213.319 396.821 182.301 384.696 171.069 365.786L172.408 365.393C182.533 362.464 190.748 360.321 195.908 358.857C197.319 367.911 220.908 375.089 249.837 375.089C278.766 375.089 302.373 367.946 303.801 358.857H304.087C309.194 360.321 317.337 362.428 327.391 365.339L328.605 365.696C323.087 375.053 312.748 382.75 299.283 388.143" fill="white"/>
</g>
<g style="mix-blend-mode:multiply" opacity="0.15">
<path fill-rule="evenodd" clip-rule="evenodd" d="M300.426 300.464V350.089C252.212 350.91 216.283 327.643 199.444 313.928V300.643L199.641 300.857C204.169 305.648 209.239 309.897 214.748 313.518C224.613 320.205 236.19 323.924 248.105 324.232H251.587C263.508 323.927 275.091 320.208 284.962 313.518C290.474 309.886 295.549 305.632 300.087 300.839L300.426 300.464Z" fill="#7C3830"/>
</g>
<path fill-rule="evenodd" clip-rule="evenodd" d="M251.152 93.1641L249.962 93.1781C230.373 92.8209 194.194 97.6423 172.23 133.249C158.439 155.629 157.983 187.506 159.001 204.934L159.087 206.315C156.403 206.103 153.687 206.402 151.087 207.214C150.176 207.524 149.282 207.882 148.409 208.285C143.178 210.957 139.352 215.753 137.909 221.446C135.765 230.012 137.425 239.087 142.462 246.339C147.607 254.317 156.526 259.05 166.016 258.839L167.028 258.822C168.04 258.79 169.049 258.71 170.053 258.582L170.784 260.499C171.159 261.464 171.534 262.41 171.927 263.357C176.861 275.85 183.709 287.497 192.223 297.879L192.354 298.037V356.098L188.069 357.285C184.085 358.363 179.226 359.688 173.755 361.258L171.373 361.946L170.069 362.321C112.48 379.053 71.7302 398.464 45.4623 421.91C27.0201 438.376 7.7464 472.482 -8.92859 508.036H508.88C483.311 453.62 464.734 431.125 454.427 421.91C428.683 398.928 389.049 379.743 333.434 363.317L330.247 362.382C330.132 362.332 330.013 362.288 329.891 362.249L328.605 361.875C325.415 360.96 322.417 360.117 319.645 359.348L312.909 357.499L307.515 356.003L307.516 297.952C316.05 287.568 322.913 275.914 327.855 263.41C328.248 262.464 328.641 261.517 328.998 260.553L329.739 258.58C331.062 258.749 332.395 258.836 333.73 258.839C343.241 259.023 352.163 254.248 357.284 246.232L357.707 245.605C362.405 238.451 363.911 229.648 361.837 221.321C360.389 215.644 356.571 210.864 351.355 208.196C350.249 207.67 349.103 207.234 347.927 206.892C345.562 206.254 343.118 206.029 340.7 206.217C341.81 189.108 341.672 156.189 327.552 133.249C306.027 98.3545 270.902 93.0432 251.152 93.1641ZM269.785 377.57C290.132 375.225 302.072 369.286 306.105 363.035L311.034 364.392C313.25 364.995 315.69 365.662 318.34 366.399L323.087 367.732C317.694 374.535 309.194 380.375 298.177 384.803L297.9 384.917C296.821 385.417 296.055 386.427 295.873 387.616C295.675 388.904 296.194 390.197 297.228 390.99C298.261 391.783 299.644 391.951 300.837 391.428C314.192 386.063 324.337 378.648 330.398 369.848C384.808 385.823 424.936 405.127 449.677 427.214C465.576 441.411 482.459 470.211 497.431 500.893H2.49725C17.4298 470.292 34.3358 441.409 50.2659 427.214C74.4284 405.681 113.294 386.761 165.955 370.963L169.567 369.89C182.446 388.485 213.532 400.357 249.944 400.357C261.28 400.389 272.582 399.149 283.641 396.66C285.564 396.221 286.767 394.307 286.328 392.383C285.89 390.46 283.975 389.257 282.052 389.696C271.53 392.045 260.778 393.201 249.998 393.142C217.212 393.142 189.319 383.303 176.962 367.749L193.989 363.12C199.241 371.156 217.533 378.642 249.944 378.642C257.276 378.642 263.886 378.258 269.785 377.57ZM287.016 316.535C276.567 323.572 264.324 327.476 251.73 327.785H247.962C235.4 327.452 223.195 323.536 212.784 316.499C208.036 313.372 203.599 309.801 199.532 305.836L199.502 357.824C199.552 357.974 199.592 358.128 199.623 358.285C200.471 363.724 219.636 371.311 249.021 371.479L249.909 371.482C277.046 371.482 295.707 365.162 299.621 359.87C300.017 359.328 300.258 358.797 300.337 358.285L300.339 305.787C296.253 309.785 291.792 313.384 287.016 316.535ZM248.302 100.303L251.078 100.276C269.308 100.221 301.704 105.044 321.409 136.964C335.694 160.155 334.322 196.162 333.288 208.864L333.159 210.357V210.553L336.519 210.837H336.135L333.159 210.749C332.989 212.542 332.828 213.769 332.755 214.332L332.754 214.335C332.745 214.403 332.738 214.46 332.732 214.509C332.719 214.605 332.712 214.662 332.712 214.678V214.928C332.699 215.09 332.679 215.249 332.659 215.41C332.624 215.694 332.587 215.984 332.587 216.303C331.713 225.137 330.046 233.875 327.605 242.41C326.48 246.089 325.284 249.767 324.034 253.232L323.587 254.428C323.373 255.053 323.127 255.723 322.893 256.348L322.266 257.999C321.927 258.892 321.569 259.785 321.194 260.678C316.39 272.852 309.661 284.174 301.266 294.214L301.541 293.875C301.492 293.92 301.444 293.966 301.397 294.014C301.339 294.072 301.284 294.133 301.23 294.196C299.909 295.749 298.694 297.124 297.48 298.374L296.471 299.426C292.398 303.594 287.887 307.313 283.016 310.517L282.167 311.082L281.308 311.633C276.362 314.645 271.646 316.663 267.436 318.012C262.324 319.601 256.993 320.493 251.587 320.642H248.105C239.347 320.394 230.786 318.201 223.029 314.26C220.856 313.154 218.746 311.911 216.712 310.535C211.443 307.054 206.589 302.979 202.248 298.392C201.159 297.232 199.98 295.946 198.677 294.428C190.21 284.318 183.426 272.91 178.587 260.642C178.23 259.768 177.873 258.892 177.516 257.982C176.891 256.464 176.284 254.892 175.73 253.374L175.58 252.944L175.579 252.941L175.578 252.938L175.576 252.932C175.575 252.929 175.574 252.926 175.572 252.923C175.106 251.586 174.635 250.237 174.178 248.878L173.355 246.357C172.944 245.071 172.534 243.785 172.141 242.499C170.036 235.233 168.513 227.811 167.587 220.303C167.427 219.017 167.266 217.696 167.123 216.357C166.998 215.892 166.998 215.446 166.998 214.982C167.006 214.898 167.006 214.815 166.998 214.732L166.587 211.214L166.587 210.732C166.587 210.456 166.555 210.186 166.494 209.929C165.464 198.282 163.584 160.847 178.284 136.999C197.802 105.339 229.802 100.303 248.302 100.303ZM340.643 213.53L340.123 213.616L339.933 215.214L339.873 215.624C339.82 215.944 339.796 216.314 339.773 216.682L339.762 216.851C339.758 216.919 339.753 216.986 339.748 217.053C339.023 224.437 337.766 231.757 335.988 238.955C338.388 238.847 340.629 237.623 342.016 235.607C343.735 233.252 344.017 230.142 342.748 227.517C342.211 226.689 342.446 225.582 343.275 225.044C344.103 224.507 345.211 224.742 345.748 225.571C347.598 229.133 347.473 233.398 345.418 236.845C343.363 240.293 339.671 242.432 335.659 242.499C335.46 242.513 335.261 242.52 335.062 242.52L334.498 244.535C333.762 246.947 332.998 249.343 332.204 251.703C339.594 252.363 346.754 249.003 350.973 242.933L351.302 242.446C355.205 236.917 356.538 229.974 354.962 223.392C354.069 219.691 351.631 216.55 348.266 214.767C347.525 214.409 346.754 214.116 345.962 213.892C344.423 213.462 342.821 213.318 341.236 213.462L340.643 213.53ZM153.302 213.982C154.594 213.567 155.944 213.357 157.288 213.355L157.858 213.363C158.449 213.382 159.039 213.44 159.623 213.535L159.766 214.778C159.798 215.043 159.83 215.258 159.862 215.424L159.903 215.884C159.908 215.928 159.914 215.972 159.919 216.015C159.931 216.109 159.944 216.202 159.957 216.294C159.996 216.583 160.034 216.854 160.034 217.089C160.248 219.071 160.48 221.017 160.748 222.928C160.739 222.975 160.739 223.024 160.748 223.071C161.447 228.403 162.446 233.69 163.741 238.91C161.181 238.928 158.757 237.683 157.284 235.553C155.583 233.192 155.303 230.092 156.552 227.464C157.086 226.64 156.855 225.539 156.034 224.999C155.636 224.737 155.151 224.644 154.685 224.741C154.219 224.839 153.811 225.118 153.552 225.517C151.68 229.098 151.806 233.395 153.883 236.86C155.96 240.326 159.69 242.462 163.73 242.499C164.045 242.505 164.359 242.495 164.672 242.469L164.672 242.466L164.909 242.446C164.83 242.454 164.751 242.462 164.672 242.469C164.859 243.147 165.051 243.824 165.248 244.499C165.98 246.928 166.73 249.303 167.516 251.642C159.912 252.349 152.541 248.797 148.355 242.41L147.977 241.851C144.401 236.397 143.237 229.695 144.784 223.339C145.676 219.622 148.13 216.471 151.516 214.696C152.095 214.419 152.692 214.181 153.302 213.982Z" fill="#372168"/>
<path fill-rule="evenodd" clip-rule="evenodd" d="M430.837 432.821C424.296 427.042 417.324 421.77 409.98 417.053C409.444 416.705 408.764 416.67 408.194 416.96C407.625 417.25 407.254 417.822 407.221 418.46C407.188 419.098 407.498 419.705 408.034 420.053C415.224 424.672 422.053 429.83 428.462 435.482C428.785 435.775 429.204 435.94 429.641 435.946C430.154 435.945 430.642 435.724 430.98 435.339C431.635 434.604 431.571 433.477 430.837 432.821ZM164.909 242.446C164.83 242.454 164.751 242.462 164.672 242.469L164.672 242.466L164.909 242.446Z" fill="#372168"/>
<path d="M260.391 295.617C259.89 295.62 259.411 295.39 259.07 294.982C256.579 292.661 253.388 291.477 250.141 291.668C246.915 291.473 243.737 292.603 241.213 294.843C240.78 295.412 240.096 295.664 239.443 295.495C238.79 295.325 238.277 294.764 238.116 294.04C237.954 293.317 238.171 292.554 238.677 292.065C245.457 286.174 254.998 286.256 261.695 292.263C262.189 292.84 262.326 293.688 262.042 294.419C261.758 295.15 261.108 295.622 260.391 295.617Z" fill="#372168"/>
<g style="mix-blend-mode:multiply" opacity="0.15">
<path fill-rule="evenodd" clip-rule="evenodd" d="M220.497 245.119C220.497 256.019 212.502 264.856 202.64 264.856C192.778 264.856 184.783 256.019 184.783 245.119C184.783 234.219 192.778 225.382 202.64 225.382C212.502 225.382 220.497 234.219 220.497 245.119ZM316.926 245.119C316.926 256.019 308.931 264.856 299.069 264.856C289.207 264.856 281.212 256.019 281.212 245.119C281.212 234.219 289.207 225.382 299.069 225.382C308.931 225.382 316.926 234.219 316.926 245.119Z" fill="#FF1300"/>
</g>
<path fill-rule="evenodd" clip-rule="evenodd" d="M322.741 131.53C325.744 127.878 327.889 123.596 329.015 119C330.64 111.625 328.908 103.607 322.247 95.1251C282.855 44.5537 190.301 84.3215 159.087 108.072C130.033 130.179 123.855 171.071 152.194 179.375L152.285 179.402C152.86 189.687 156.511 199.563 162.765 207.75C175.154 200.051 175.264 179.864 175.265 179.505L175.283 179.5C196.39 173.429 195.801 149.804 195.801 149.804C195.801 149.804 227.372 162.804 250.783 163.214C261.94 163.411 280.003 159.021 296.07 151.24C296.205 151.319 296.396 151.877 296.734 152.864C298.739 158.73 305.927 179.749 337.444 205.375C337.624 203.401 338.045 200.961 338.532 198.142C341.228 182.527 345.928 155.303 322.741 131.53ZM320.673 133.95C315.659 139.47 308.899 144.396 301.421 148.5C309.149 144.362 315.656 139.846 320.673 133.95ZM249.765 251.706C250.519 251.09 259.167 244.272 272.305 244.277C277.699 244.274 283.854 245.422 290.533 248.625C300.333 253.312 308.467 254.952 314.678 254.957C320.678 254.955 324.875 253.424 327.033 251.643L327.533 251.179C328.099 250.642 328.486 249.944 328.64 249.179C328.64 249.179 328.657 249.214 328.689 249.285C328.697 249.25 328.704 249.214 328.712 249.179C328.719 249.226 328.726 249.273 328.733 249.32C328.738 249.354 328.743 249.389 328.748 249.423C329.634 251.502 335.461 266.697 327.676 290.018C324.162 300.465 317.76 309.702 309.212 316.661C291.194 331.87 274.578 336.788 262.781 340.281C258.829 341.45 255.418 342.46 252.676 343.643C250.41 344.573 247.839 344.388 245.73 343.143C242.067 341.057 237.518 339.697 232.21 338.11C221.16 334.806 206.826 330.521 190.372 316.661C182.138 309.933 175.885 301.094 172.283 291.089C163.694 267.125 170.587 249.161 170.587 249.161C170.613 249.357 170.667 249.557 170.748 249.76C170.763 249.53 170.781 249.301 170.801 249.072C171.361 253.29 184.843 259.534 207.713 249.181C208.109 249.001 208.507 248.815 208.908 248.625C209.195 248.489 209.481 248.357 209.766 248.228C232.368 237.904 248.717 250.846 249.765 251.706Z" fill="#FF6666"/>
<path fill-rule="evenodd" clip-rule="evenodd" d="M332.638 119.027C334.353 110.316 331.825 101.512 325.122 92.9107C307.176 69.875 276.676 62.0178 236.926 70.2142C204.765 76.8392 173.587 92.5714 156.98 105.214C138.265 119.446 127.551 142.125 130.926 160.357L131.032 160.982C132.796 170.738 139.635 178.756 148.869 182.085C149.901 192.268 153.76 201.979 160.033 210.107C160.714 210.882 161.697 211.325 162.73 211.321C163.374 211.31 164.003 211.125 164.551 210.786C175.446 204.064 178.033 189.639 178.648 182.979L178.733 181.943C192.476 176.766 197.739 164.017 199.023 154.807C200.543 155.416 202.076 155.993 203.622 156.536L207.087 157.768C207.438 157.885 207.801 157.945 208.164 157.946C219.702 161.754 236.511 166.367 250.694 166.625C262.188 166.857 279.181 162.607 294.046 155.948C300.67 173.706 314.514 191.324 335.194 208.143C335.832 208.655 336.626 208.932 337.444 208.929C337.938 208.912 338.423 208.796 338.872 208.589C340.084 208.075 340.914 206.936 341.033 205.625C341.158 204.337 341.397 202.787 341.688 201.03L342.658 195.314C345.245 179.71 347.96 153.998 327.379 131.224C329.767 127.734 331.505 123.829 332.497 119.696L332.638 119.027ZM292.14 245.375L291.4 245.025C271.716 235.908 256.381 243.113 250.307 246.952L249.869 247.233C244.815 243.962 232.213 237.609 215.601 242.336C212.956 243.072 210.209 244.09 207.372 245.446C203.644 247.23 200.206 248.532 197.069 249.457C183.364 253.428 175.469 250.169 174.355 248.446C174.017 246.75 172.513 245.538 170.783 245.571L170.507 245.581C170.086 245.612 169.684 245.716 169.316 245.881C168.402 246.239 167.651 246.967 167.283 247.929C166.98 248.714 159.997 267.429 168.926 292.321C172.744 302.933 179.373 312.308 188.105 319.446L188.997 320.192C204.147 332.715 217.722 337.483 228.202 340.686L231.194 341.589C235.619 342.702 239.912 344.288 243.997 346.321C245.771 347.316 247.768 347.844 249.801 347.857C251.215 347.861 252.617 347.588 253.926 347.054L255.516 346.44C258.176 345.441 260.881 344.568 263.622 343.821L263.654 343.812C275.243 340.384 292.764 335.2 311.337 319.518C320.41 312.135 327.218 302.344 330.979 291.268C338.085 269.951 334.431 254.984 332.651 249.774L332.503 249.352C332.471 249.073 332.433 248.795 332.39 248.518C332.061 246.814 330.554 245.593 328.819 245.625H328.729C328.303 245.636 327.893 245.722 327.514 245.871C326.3 246.27 325.371 247.299 325.122 248.589L324.979 248.75L324.872 248.857C322.283 251 311.337 254.554 292.14 245.375ZM328.116 266.442L328.166 266.367C328.208 272.42 327.313 280.083 324.319 289.036L323.988 289.98C322.371 294.472 320.185 298.716 317.498 302.612C317.926 300.315 318.236 297.995 318.426 295.661C318.426 294.674 317.626 293.875 316.64 293.875C315.654 293.875 314.854 294.674 314.854 295.661C314.465 300.209 313.605 304.702 312.29 309.066C310.631 310.832 308.852 312.493 306.962 314.036L305.85 314.962C304.001 316.482 302.169 317.892 300.358 319.202C302.136 314.622 303.035 308.676 300.658 301.982L300.329 301.033C299.696 299.128 299.209 297.177 298.872 295.196C298.719 294.21 297.796 293.535 296.81 293.687C295.824 293.84 295.148 294.764 295.301 295.75C295.673 298.269 296.271 300.749 297.087 303.161C300.231 312.22 296.508 319.713 293.817 323.572C287.855 327.239 282.179 329.897 276.924 331.957C277.473 330.962 277.962 329.933 278.39 328.875C281.503 321.223 281.419 312.643 278.158 305.054C277.788 304.136 276.745 303.693 275.828 304.062C274.911 304.432 274.467 305.476 274.837 306.393C280.35 320.104 274.46 329.944 271.528 333.671L271.245 334.023C268.707 334.883 266.294 335.625 264.023 336.304L261.801 336.964C259.239 337.669 256.709 338.482 254.219 339.404C256.819 335.434 258.784 331.069 260.033 326.464C261.963 318.515 260.291 310.12 255.462 303.518C252.866 300.088 251.69 295.791 252.176 291.518C252.259 290.88 251.995 290.246 251.484 289.855C250.973 289.464 250.292 289.376 249.698 289.623C249.104 289.87 248.687 290.416 248.604 291.054C248.015 296.214 249.413 301.405 252.515 305.571L252.915 306.132C256.828 311.785 258.152 318.85 256.533 325.554C255.011 331.083 252.38 336.239 248.803 340.711C248.36 340.61 247.931 340.438 247.533 340.196C242.986 337.883 238.194 336.087 233.247 334.839L233.178 334.819C231.669 334.365 230.109 333.897 228.5 333.391C233.03 326.249 234.363 317.421 231.962 309.125C231.7 308.173 230.717 307.614 229.765 307.875C228.814 308.136 228.254 309.12 228.515 310.071C230.742 317.682 229.388 325.815 224.984 332.246C215.642 329.077 204.807 324.277 192.694 314.071L191.69 313.231C189.04 310.96 186.621 308.451 184.46 305.744C185.764 302.302 187.492 296.497 186.283 292.304C185.303 289.197 184.704 285.983 184.497 282.732C184.497 281.746 183.698 280.946 182.712 280.946C181.725 280.946 180.926 281.746 180.926 282.732C181.123 286.273 181.759 289.776 182.819 293.161C183.537 295.583 182.801 299.165 181.836 302.174C179.295 298.409 177.216 294.328 175.658 290.018C172.857 282.444 171.49 274.447 171.596 266.431C173.93 269.746 177.492 273.212 182.926 276.125C185.265 277.393 187.247 278.411 189.247 279.304C197.04 282.829 205.464 284.743 214.015 284.929H215.247L215.408 284.857C218.043 284.838 220.662 284.648 223.25 284.29C222.683 288.412 222.898 294.783 227.122 301.786C227.445 302.316 228.02 302.64 228.64 302.643C228.967 302.646 229.288 302.56 229.569 302.393C229.978 302.148 230.272 301.75 230.386 301.287C230.5 300.824 230.425 300.335 230.176 299.929C225.996 293.074 226.277 287 226.953 283.666C235.171 282.012 242.997 278.667 249.915 273.799C259.896 280.8 271.827 284.548 284.069 284.482C287.848 284.468 291.613 284.135 295.318 283.488C295.052 284.996 294.885 286.521 294.819 288.054C294.818 289.006 295.564 289.792 296.515 289.839H296.604C297.501 289.848 298.265 289.191 298.39 288.304C298.464 286.422 298.706 284.551 299.113 282.716C301.573 282.14 304.003 281.424 306.39 280.571C309.906 279.337 313.331 277.857 316.64 276.143C322.096 273.357 325.721 269.92 328.116 266.442ZM249.915 273.799L250.658 273.268C250.411 273.447 250.164 273.624 249.915 273.799ZM204.781 294.043C205.378 294.284 205.801 294.826 205.89 295.464C206.168 297.335 206.599 299.179 207.178 300.979L207.48 301.875C209.022 306.216 209.116 310.94 207.747 315.339C207.514 316.081 206.828 316.586 206.051 316.589C205.879 316.616 205.705 316.616 205.533 316.589C204.593 316.305 204.059 315.316 204.337 314.375C205.478 310.692 205.396 306.74 204.104 303.107C203.267 300.793 202.668 298.4 202.319 295.964C202.229 295.326 202.487 294.689 202.995 294.293C203.503 293.896 204.184 293.801 204.781 294.043ZM210.497 252L211.208 251.667C227.981 243.984 240.822 250.251 245.53 253.257L246.247 253.731L246.247 257.29C239.932 255.035 227.956 252.329 217.515 258.946C211.254 263.241 203.581 264.961 196.087 263.75C195.615 263.695 195.141 263.829 194.769 264.124C194.397 264.419 194.158 264.85 194.105 265.321C193.989 266.297 194.683 267.183 195.658 267.304C197.435 267.533 199.224 267.652 201.015 267.661C207.582 267.633 213.991 265.65 219.426 261.964C228.654 256.127 239.692 258.804 245.314 260.816L246.248 261.162L246.247 267.607C237.198 274.088 226.377 277.635 215.247 277.768H214.247C206.62 277.613 199.104 275.906 192.158 272.75C190.355 271.946 188.497 271 186.301 269.821C180.227 266.557 177.209 262.616 175.717 259.344C178.269 261.712 181.271 263.599 184.587 264.875C184.799 264.951 185.022 264.993 185.247 265C186.109 265.011 186.856 264.405 187.022 263.559C187.188 262.714 186.727 261.87 185.926 261.554C183.772 260.711 181.767 259.578 179.961 258.198C187.429 259.212 197.901 257.895 210.497 252ZM253.532 253.581L253.532 267.727L254.484 268.395C260.705 272.625 278.9 282.588 303.944 273.821C307.146 272.692 310.266 271.343 313.283 269.786C318.489 267.091 321.533 263.695 323.257 260.475C320.901 261.969 318.437 263.287 315.883 264.419L314.783 264.893C310.017 267.015 304.874 268.162 299.658 268.268C295.136 268.293 290.683 267.195 286.696 265.08L285.997 264.696C275.444 258.732 268.247 260.161 264.89 261.554C263.983 261.923 262.947 261.493 262.569 260.589C262.385 260.151 262.384 259.658 262.565 259.219C262.746 258.78 263.094 258.432 263.533 258.25L263.99 258.068C268.107 256.49 276.329 255.124 287.747 261.589C299.329 268.14 312.377 262.735 319.886 258.32C312.363 259.443 301.972 258.029 289.885 252.418L288.997 252C271.415 243.569 257.845 250.729 253.532 253.581ZM156.395 183.963C157.211 184.089 158.032 184.191 158.855 184.268C160.194 184.5 161.426 184.5 162.587 184.5L164.614 184.5C166.887 184.493 169.157 184.326 171.408 184C170.676 189.161 168.89 197.571 163.533 202.679C159.925 196.981 157.497 190.617 156.395 183.963ZM300.587 152.982C308.319 149.054 316.551 144.071 322.837 136.911C340.292 156.989 338.053 179.156 335.612 194.004L335.015 197.518C334.995 197.644 334.966 197.77 334.936 197.895C334.886 198.107 334.837 198.316 334.837 198.518C317.658 183.643 306.14 168.339 300.551 152.982H300.587ZM176.379 101.053L176.138 101.193C170.37 104.521 165.344 107.832 161.301 110.911C145.157 123.235 135.382 143.057 137.831 158.467L137.944 159.125C139.159 167.08 144.883 173.58 152.57 175.815C152.803 175.833 153.036 175.878 153.265 175.946C155.295 176.535 157.375 176.93 159.48 177.125C160.64 177.232 161.676 177.304 162.694 177.321C166.593 177.512 170.497 177.09 174.265 176.071C174.45 176.017 174.638 175.979 174.826 175.956L175.621 175.695C189.478 170.883 191.704 156.751 192.057 151.736L191.338 151.389L190.622 151.036C189.761 150.614 188.852 150.128 187.881 149.608L187.712 149.518L185.128 148.176C180.75 145.933 175.426 143.442 172.426 143.679C169.452 143.846 166.855 145.749 165.801 148.536C165.359 150.873 166.449 153.232 168.515 154.411C170.093 155.594 170.413 157.833 169.23 159.411C168.57 160.29 167.543 160.817 166.444 160.839C165.671 160.839 164.919 160.589 164.301 160.125C159.551 156.554 157.587 151.5 158.944 146.554C160.827 140.917 165.926 136.975 171.855 136.571C177.551 136.107 185.033 140.036 191.033 143.196L192.491 143.969C192.962 144.214 193.417 144.446 193.855 144.661C197.306 146.388 200.852 147.92 204.475 149.247L208.82 150.8C208.933 150.84 209.034 150.875 209.123 150.906C209.205 150.935 209.277 150.961 209.337 150.982C209.513 151.04 209.684 151.112 209.847 151.196C217.044 153.584 226.45 156.344 235.816 158.057C236.927 148.637 234.868 141.219 229.676 135.964C214.729 120.893 178.676 127.518 178.301 127.589C177.663 127.707 177.01 127.476 176.589 126.982C176.168 126.489 176.042 125.808 176.259 125.197C176.476 124.585 177.002 124.136 177.64 124.018L179.106 123.761C186.336 122.58 217.555 118.527 232.212 133.393C238.263 139.508 240.622 147.982 239.326 158.648C243.24 159.249 247.096 159.633 250.729 159.696C255.945 159.81 262.433 158.891 269.345 157.176L269.68 156.625C272.284 152.157 277.15 139.385 260.908 123.143C242.794 105.029 189.557 101.625 176.379 101.053ZM238.164 77.3019C247.353 75.4104 256.613 74.3035 265.587 74.3035C286.837 74.3035 306.408 80.5357 319.479 97.4643C324.997 104.536 327.015 111.571 325.533 118.357C324.612 122.077 322.936 125.561 320.615 128.595C320.367 128.776 320.141 128.989 319.944 129.232L318.164 131.392C317.657 131.997 317.129 132.593 316.576 133.181C314.109 135.651 311.186 138.066 307.855 140.387C309.394 133.333 308.563 122.483 297.979 108.304C291.128 99.4827 282.286 92.4089 272.176 87.6607C271.599 87.3222 270.88 87.3349 270.315 87.6937C269.75 88.0525 269.434 88.6971 269.494 89.3637C269.555 90.0302 269.984 90.6067 270.605 90.8571L271.594 91.3321C280.788 95.8389 288.832 102.394 295.104 110.5C306.891 126.275 305.637 137.242 303.364 142.933L303.158 143.429C300.574 144.937 297.697 146.455 294.479 148.018C294.367 148.073 294.259 148.133 294.157 148.202C287.65 151.344 280.61 154.008 273.798 155.979C276.622 149.324 278.838 136.108 263.319 120.589C246.805 104.09 204.708 99.2522 184.49 97.888L182.361 97.7518C195.477 90.7998 211.494 84.1033 228.192 79.656C238.273 80.5426 248.222 82.5986 257.837 85.7857C258.02 85.8113 258.207 85.8113 258.39 85.7857L258.602 85.766C259.23 85.6697 259.765 85.245 259.997 84.6428C260.304 83.7111 259.802 82.7066 258.872 82.3928C252.11 80.1389 245.185 78.4371 238.164 77.3019Z" fill="#372168"/>
<path d="M250.806 241.583C246.906 241.635 243.239 239.731 241.038 236.512C240.101 235.062 240.517 233.127 241.967 232.19C243.417 231.253 245.351 231.669 246.288 233.119C247.375 234.533 249.063 235.354 250.846 235.336C252.629 235.319 254.301 234.464 255.36 233.029C256.257 231.55 258.184 231.078 259.663 231.976C261.143 232.873 261.614 234.8 260.717 236.279C258.556 239.646 254.806 241.653 250.806 241.583Z" fill="#372168"/>
<path d="M288.008 220.089C295.919 220.089 295.937 207.768 288.008 207.768C280.079 207.768 280.062 220.089 288.008 220.089Z" fill="#372168"/>
<path d="M214.847 220.089C222.776 220.089 222.793 207.768 214.847 207.768C206.901 207.768 206.901 220.089 214.847 220.089Z" fill="#372168"/>
<path d="M229.819 203.089H198.819C196.846 203.089 195.247 201.49 195.247 199.518C195.247 197.545 196.846 195.946 198.819 195.946H229.819C231.791 195.946 233.39 197.545 233.39 199.518C233.39 201.49 231.791 203.089 229.819 203.089Z" fill="#372168"/>
<path d="M303.73 194.768H272.73C270.757 194.768 269.158 193.169 269.158 191.196C269.158 189.224 270.757 187.625 272.73 187.625H303.73C305.702 187.625 307.301 189.224 307.301 191.196C307.301 193.169 305.702 194.768 303.73 194.768Z" fill="#372168"/>
</g>
<path fill-rule="evenodd" clip-rule="evenodd" d="M0 250C0 111.929 111.929 0 250 0C388.071 0 500 111.929 500 250C500 388.071 388.071 500 250 500C111.929 500 0 388.071 0 250ZM492.857 250C492.857 115.874 384.126 7.14286 250 7.14286C115.874 7.14286 7.14286 115.874 7.14286 250C7.14286 384.126 115.874 492.857 250 492.857C384.126 492.857 492.857 384.126 492.857 250Z" fill="#372168"/>
</svg>
