<svg width="500" height="500" viewBox="0 0 500 500" fill="none" xmlns="http://www.w3.org/2000/svg">
<path fill-rule="evenodd" clip-rule="evenodd" d="M250 496.429C386.099 496.429 496.429 386.099 496.429 250C496.429 113.901 386.099 3.57141 250 3.57141C113.901 3.57141 3.57141 113.901 3.57141 250C3.57141 386.099 113.901 496.429 250 496.429Z" fill="#E7EEFF"/>
<mask id="mask0_0_294" style="mask-type:alpha" maskUnits="userSpaceOnUse" x="3" y="3" width="494" height="494">
<path fill-rule="evenodd" clip-rule="evenodd" d="M250 496.429C386.099 496.429 496.429 386.099 496.429 250C496.429 113.901 386.099 3.57141 250 3.57141C113.901 3.57141 3.57141 113.901 3.57141 250C3.57141 386.099 113.901 496.429 250 496.429Z" fill="white"/>
</mask>
<g mask="url(#mask0_0_294)">
<path fill-rule="evenodd" clip-rule="evenodd" d="M336.74 210.585C337.919 197.482 339.687 159.822 324.533 135.107C306.015 105.089 275.623 96.321 249.926 96.7317C224.212 96.321 193.819 105.089 175.301 135.107C160.033 159.892 161.855 197.696 163.033 210.696C163.025 210.845 163.025 210.994 163.033 211.142C163.283 213.732 163.498 215.232 163.498 215.232C163.512 215.432 163.538 215.632 163.563 215.832C163.602 216.132 163.641 216.432 163.641 216.732C163.783 218.089 163.944 219.428 164.105 220.732C165.039 228.433 166.592 236.047 168.748 243.5L169.98 247.41C170.748 249.839 171.569 252.214 172.39 254.553C172.98 256.125 173.587 257.714 174.176 259.25C174.465 260.043 174.765 260.766 175.067 261.494L175.07 261.501C175.109 261.596 175.148 261.69 175.188 261.785C175.22 261.863 175.251 261.94 175.283 262.017C180.269 274.629 187.251 286.356 195.962 296.75L196.051 296.853V358.821C197.462 367.91 221.051 375.053 249.998 375.053C278.944 375.053 302.533 367.875 303.944 358.821V296.623L304.033 296.517C312.675 286.19 319.603 274.542 324.551 262.017C324.734 261.539 324.916 261.095 325.097 260.656C325.287 260.193 325.475 259.735 325.658 259.25C326.174 257.945 326.677 256.603 327.177 255.265L327.179 255.261L327.444 254.553L327.464 254.493C336.162 256.464 347.548 254.592 354.301 244.285C363.158 230.785 359.158 215.91 349.694 211.41C345.646 209.46 340.999 209.165 336.74 210.585ZM300.158 300.839L300.316 300.674C300.394 300.593 300.471 300.512 300.547 300.431C300.435 300.561 300.323 300.692 300.212 300.821C295.684 305.617 290.614 309.872 285.105 313.5C280.354 316.719 275.207 319.25 269.817 321.044C275.188 319.251 280.316 316.726 285.051 313.517C290.56 309.89 295.63 305.635 300.158 300.839Z" fill="#FFC7BB"/>
<path d="M145.426 244.357C152.194 254.714 163.658 256.553 172.373 254.535C171.087 250.964 169.837 247.279 168.623 243.482C166.636 236.637 165.168 229.653 164.23 222.589C163.962 220.678 163.73 218.732 163.516 216.75C163.442 216.252 163.394 215.752 163.373 215.25C163.373 215.25 163.194 214.125 162.998 212.142C162.908 211.839 162.908 211.5 162.908 211.16C162.9 211.006 162.9 210.851 162.908 210.696C159.436 209.548 155.693 209.504 152.194 210.571C151.413 210.823 150.649 211.128 149.908 211.482C140.551 215.91 136.498 230.785 145.426 244.357Z" fill="#FFC7BB"/>
<path d="M47.8727 424.411C82.0512 393.911 136.891 375.482 171.087 365.589L172.426 365.196C182.551 362.268 190.766 360.125 195.926 358.661C197.337 367.714 220.926 374.893 249.855 374.893C278.783 374.893 302.391 367.75 303.819 358.661H304.105C309.212 360.125 317.355 362.232 327.408 365.143L328.623 365.5C362.748 375.375 417.676 393.821 451.944 424.429C469.763 440.386 488.57 473.662 504.788 508.036H-5.00757C11.2115 473.626 30.0329 440.311 47.8727 424.411Z" fill="#E0AC4E"/>
<g style="mix-blend-mode:soft-light" opacity="0.4">
<path d="M282.694 393.25C271.915 395.66 260.9 396.858 249.855 396.821C213.319 396.821 182.301 384.696 171.069 365.786L172.408 365.393C182.533 362.464 190.748 360.321 195.908 358.857C197.319 367.911 220.908 375.089 249.837 375.089C278.766 375.089 302.373 367.946 303.801 358.857H304.087C309.194 360.321 317.337 362.428 327.391 365.339L328.605 365.696C323.087 375.053 312.748 382.75 299.283 388.143" fill="white"/>
</g>
<g style="mix-blend-mode:soft-light" opacity="0.4">
<path d="M282.694 393.25C271.915 395.66 260.9 396.858 249.855 396.821C213.319 396.821 182.301 384.696 171.069 365.786L172.408 365.393C182.533 362.464 190.748 360.321 195.908 358.857C197.319 367.911 220.908 375.089 249.837 375.089C278.766 375.089 302.373 367.946 303.801 358.857H304.087C309.194 360.321 317.337 362.428 327.391 365.339L328.605 365.696C323.087 375.053 312.748 382.75 299.283 388.143" fill="white"/>
</g>
<g style="mix-blend-mode:multiply" opacity="0.15">
<path fill-rule="evenodd" clip-rule="evenodd" d="M300.426 300.464V350.089C252.212 350.911 216.283 327.643 199.444 313.928V300.643L199.641 300.857C204.169 305.648 209.239 309.897 214.748 313.518C224.613 320.205 236.19 323.924 248.105 324.232H251.587C263.508 323.927 275.091 320.209 284.962 313.518C290.474 309.886 295.549 305.632 300.087 300.839L300.426 300.464Z" fill="#7C3830"/>
</g>
<path fill-rule="evenodd" clip-rule="evenodd" d="M251.152 93.1641L249.962 93.1781C230.373 92.821 194.194 97.6424 172.23 133.25C158.439 155.629 157.983 187.506 159.001 204.934L159.087 206.315C156.403 206.103 153.687 206.402 151.087 207.214C150.176 207.524 149.282 207.882 148.409 208.285C143.178 210.957 139.352 215.753 137.909 221.446C135.765 230.012 137.425 239.087 142.462 246.339C147.607 254.317 156.526 259.05 166.016 258.839L167.028 258.822C168.04 258.79 169.049 258.71 170.053 258.583L170.784 260.5C171.159 261.464 171.534 262.41 171.927 263.357C176.861 275.85 183.709 287.497 192.223 297.879L192.354 298.037V356.098L188.069 357.285C184.085 358.363 179.226 359.688 173.755 361.258L171.373 361.946L170.069 362.321C112.48 379.053 71.7302 398.464 45.4623 421.91C27.0201 438.376 7.7464 472.482 -8.92859 508.036H508.88C483.311 453.62 464.734 431.125 454.427 421.91C428.683 398.928 389.049 379.743 333.434 363.317L330.247 362.382C330.132 362.332 330.013 362.288 329.891 362.25L328.605 361.875C325.415 360.96 322.417 360.117 319.645 359.348L312.909 357.5L307.515 356.003L307.516 297.952C316.05 287.568 322.913 275.914 327.855 263.41C328.248 262.464 328.641 261.517 328.998 260.553L329.739 258.58C331.062 258.749 332.395 258.836 333.73 258.839C343.241 259.023 352.163 254.248 357.284 246.232L357.707 245.605C362.405 238.451 363.911 229.648 361.837 221.321C360.389 215.644 356.571 210.864 351.355 208.196C350.249 207.67 349.103 207.234 347.927 206.892C345.562 206.254 343.118 206.029 340.7 206.217C341.81 189.108 341.672 156.189 327.552 133.25C306.027 98.3545 270.902 93.0433 251.152 93.1641ZM269.785 377.57C290.132 375.225 302.072 369.286 306.105 363.035L311.034 364.392C313.25 364.995 315.69 365.662 318.34 366.399L323.087 367.732C317.694 374.535 309.194 380.375 298.177 384.803L297.9 384.917C296.821 385.417 296.055 386.427 295.873 387.616C295.675 388.904 296.194 390.197 297.228 390.99C298.261 391.784 299.644 391.951 300.837 391.428C314.192 386.063 324.337 378.648 330.398 369.848C384.808 385.824 424.936 405.127 449.677 427.214C465.576 441.411 482.459 470.211 497.431 500.893H2.49725C17.4298 470.292 34.3358 441.409 50.2659 427.214C74.4284 405.681 113.294 386.761 165.955 370.963L169.567 369.891C182.446 388.485 213.532 400.357 249.944 400.357C261.28 400.389 272.582 399.15 283.641 396.66C285.564 396.221 286.767 394.307 286.328 392.383C285.89 390.46 283.975 389.257 282.052 389.696C271.53 392.045 260.778 393.201 249.998 393.142C217.212 393.142 189.319 383.303 176.962 367.75L193.989 363.121C199.241 371.156 217.533 378.642 249.944 378.642C257.276 378.642 263.886 378.258 269.785 377.57ZM287.016 316.535C276.567 323.572 264.324 327.476 251.73 327.785H247.962C235.4 327.452 223.195 323.536 212.784 316.5C208.036 313.372 203.599 309.801 199.532 305.836L199.502 357.824C199.552 357.974 199.592 358.128 199.623 358.285C200.471 363.724 219.636 371.311 249.021 371.479L249.909 371.482C277.046 371.482 295.707 365.162 299.621 359.87C300.017 359.328 300.258 358.797 300.337 358.285L300.339 305.787C296.253 309.785 291.792 313.384 287.016 316.535ZM248.302 100.303L251.078 100.276C269.308 100.221 301.704 105.044 321.409 136.964C335.694 160.156 334.322 196.162 333.288 208.864L333.159 210.357V210.553L336.519 210.837H336.135L333.159 210.75C332.989 212.542 332.828 213.769 332.755 214.332L332.754 214.335C332.745 214.403 332.738 214.461 332.732 214.509C332.719 214.605 332.712 214.662 332.712 214.678V214.928C332.699 215.09 332.679 215.249 332.659 215.411C332.624 215.694 332.587 215.984 332.587 216.303C331.713 225.137 330.046 233.875 327.605 242.41C326.48 246.089 325.284 249.767 324.034 253.232L323.587 254.428C323.373 255.053 323.127 255.723 322.893 256.348L322.266 258C321.927 258.892 321.569 259.785 321.194 260.678C316.39 272.852 309.661 284.174 301.266 294.214L301.541 293.875C301.492 293.92 301.444 293.966 301.397 294.014C301.339 294.073 301.284 294.133 301.23 294.196C299.909 295.75 298.694 297.125 297.48 298.375L296.471 299.426C292.398 303.594 287.887 307.313 283.016 310.517L282.167 311.082L281.308 311.633C276.362 314.645 271.646 316.663 267.436 318.012C262.324 319.601 256.993 320.493 251.587 320.642H248.105C239.347 320.394 230.786 318.201 223.029 314.26C220.856 313.154 218.746 311.911 216.712 310.535C211.443 307.054 206.589 302.98 202.248 298.392C201.159 297.232 199.98 295.946 198.677 294.428C190.21 284.318 183.426 272.91 178.587 260.642C178.23 259.768 177.873 258.892 177.516 257.982C176.891 256.464 176.284 254.892 175.73 253.375L175.58 252.944L175.579 252.941L175.578 252.938L175.576 252.932C175.575 252.929 175.574 252.926 175.572 252.923C175.106 251.586 174.635 250.237 174.178 248.878L173.355 246.357C172.944 245.071 172.534 243.785 172.141 242.5C170.036 235.233 168.513 227.811 167.587 220.303C167.427 219.017 167.266 217.696 167.123 216.357C166.998 215.892 166.998 215.446 166.998 214.982C167.006 214.899 167.006 214.815 166.998 214.732L166.587 211.214L166.587 210.732C166.587 210.456 166.555 210.187 166.494 209.929C165.464 198.282 163.584 160.847 178.284 137C197.802 105.339 229.802 100.303 248.302 100.303ZM340.643 213.53L340.123 213.616L339.933 215.214L339.873 215.625C339.82 215.945 339.796 216.314 339.773 216.682L339.762 216.851C339.758 216.919 339.753 216.986 339.748 217.053C339.023 224.437 337.766 231.757 335.988 238.955C338.388 238.847 340.629 237.623 342.016 235.607C343.735 233.252 344.017 230.142 342.748 227.517C342.211 226.689 342.446 225.582 343.275 225.044C344.103 224.507 345.211 224.743 345.748 225.571C347.598 229.133 347.473 233.398 345.418 236.845C343.363 240.293 339.671 242.432 335.659 242.5C335.46 242.513 335.261 242.52 335.062 242.52L334.498 244.535C333.762 246.947 332.998 249.344 332.204 251.703C339.594 252.363 346.754 249.003 350.973 242.933L351.302 242.446C355.205 236.917 356.538 229.975 354.962 223.392C354.069 219.691 351.631 216.55 348.266 214.767C347.525 214.409 346.754 214.116 345.962 213.892C344.423 213.462 342.821 213.318 341.236 213.462L340.643 213.53ZM153.302 213.982C154.594 213.567 155.944 213.357 157.288 213.355L157.858 213.363C158.449 213.382 159.039 213.44 159.623 213.535L159.766 214.778C159.798 215.043 159.83 215.258 159.862 215.424L159.903 215.884C159.908 215.928 159.914 215.972 159.919 216.015C159.931 216.109 159.944 216.202 159.957 216.294C159.996 216.583 160.034 216.854 160.034 217.089C160.248 219.071 160.48 221.017 160.748 222.928C160.739 222.975 160.739 223.024 160.748 223.071C161.447 228.403 162.446 233.691 163.741 238.91C161.181 238.928 158.757 237.683 157.284 235.553C155.583 233.192 155.303 230.092 156.552 227.464C157.086 226.64 156.855 225.539 156.034 225C155.636 224.737 155.151 224.644 154.685 224.741C154.219 224.839 153.811 225.118 153.552 225.517C151.68 229.098 151.806 233.395 153.883 236.86C155.96 240.326 159.69 242.462 163.73 242.5C164.045 242.505 164.359 242.495 164.672 242.469L164.672 242.466L164.909 242.446C164.83 242.455 164.751 242.462 164.672 242.469C164.859 243.147 165.051 243.824 165.248 244.5C165.98 246.928 166.73 249.303 167.516 251.642C159.912 252.349 152.541 248.797 148.355 242.41L147.977 241.851C144.401 236.397 143.237 229.695 144.784 223.339C145.676 219.622 148.13 216.471 151.516 214.696C152.095 214.42 152.692 214.181 153.302 213.982Z" fill="#372168"/>
<path fill-rule="evenodd" clip-rule="evenodd" d="M430.837 432.821C424.296 427.042 417.324 421.77 409.98 417.053C409.444 416.705 408.764 416.67 408.194 416.96C407.625 417.251 407.254 417.822 407.221 418.46C407.188 419.098 407.498 419.705 408.034 420.053C415.224 424.672 422.053 429.83 428.462 435.482C428.785 435.775 429.204 435.94 429.641 435.946C430.154 435.945 430.642 435.724 430.98 435.339C431.635 434.604 431.571 433.477 430.837 432.821ZM164.909 242.446C164.83 242.455 164.751 242.462 164.672 242.469L164.672 242.466L164.909 242.446Z" fill="#372168"/>
<path d="M260.391 295.616C259.89 295.62 259.411 295.39 259.07 294.982C256.579 292.661 253.388 291.477 250.141 291.668C246.915 291.473 243.737 292.603 241.213 294.843C240.78 295.412 240.096 295.664 239.443 295.495C238.79 295.325 238.277 294.764 238.116 294.04C237.954 293.317 238.171 292.554 238.677 292.065C245.457 286.174 254.998 286.256 261.695 292.263C262.189 292.84 262.326 293.688 262.042 294.419C261.758 295.15 261.108 295.621 260.391 295.616Z" fill="#372168"/>
<g style="mix-blend-mode:multiply" opacity="0.15">
<path fill-rule="evenodd" clip-rule="evenodd" d="M220.497 245.119C220.497 256.019 212.502 264.856 202.64 264.856C192.778 264.856 184.783 256.019 184.783 245.119C184.783 234.219 192.778 225.382 202.64 225.382C212.502 225.382 220.497 234.219 220.497 245.119ZM316.926 245.119C316.926 256.019 308.931 264.856 299.069 264.856C289.207 264.856 281.212 256.019 281.212 245.119C281.212 234.219 289.207 225.382 299.069 225.382C308.931 225.382 316.926 234.219 316.926 245.119Z" fill="#FF1300"/>
</g>
<path fill-rule="evenodd" clip-rule="evenodd" d="M346.908 150.946C346.908 150.946 380.908 190.607 335.783 217.679L328.247 175.339C322.569 131.554 277.694 128.786 270.158 128.643C269.525 128.635 268.961 129.041 268.765 129.643C259.551 156.821 234.837 145.821 234.837 145.821C225.694 166.107 207.176 171.036 192.569 171.464C180.327 171.763 170.058 180.79 168.194 192.893L163.569 222.571C163.569 222.571 127.247 188.268 158.854 153.536C158.854 153.536 141.551 117.929 170.569 95.3929C180.779 87.8682 193.798 85.2526 206.122 88.25C206.122 88.25 217.283 59.4286 251.462 76.9286C251.462 76.9286 293.283 60.8571 304.908 101.929C304.908 101.929 327.729 97.9107 339.569 111.661C356.587 131.304 346.908 150.946 346.908 150.946ZM326.265 297.464C343.319 290.893 336.515 272.357 336.515 272.357C338.059 269.369 338.919 266.076 339.033 262.714C339.783 247.393 329.426 248.929 329.426 248.929L328.069 251.214C325.148 256.079 319.903 259.07 314.229 259.107C307.609 258.898 301.301 261.922 297.319 267.214C296.564 268.233 295.372 268.834 294.104 268.834C292.837 268.834 291.645 268.233 290.89 267.214C275.319 246.768 249.408 248.107 249.408 248.107C249.408 248.107 223.854 246.768 207.926 267.322C207.155 268.328 205.952 268.909 204.685 268.888C203.417 268.866 202.235 268.246 201.497 267.214C197.571 261.99 191.371 258.973 184.837 259.107C179.048 259.048 173.719 255.939 170.819 250.929L169.033 247.911C169.033 247.911 158.962 247.393 159.694 262.714C159.818 266.031 160.652 269.283 162.14 272.25C162.14 272.25 155.354 290.786 172.408 297.357C172.408 297.357 164.783 323.232 198.158 325.768C198.158 325.768 206.426 342.982 228.854 350.768C241.502 355.089 255.22 355.127 267.89 350.875C291.015 343.161 300.497 325.875 300.497 325.875C333.872 323.339 326.265 297.464 326.265 297.464Z" fill="#E57F4C"/>
<path fill-rule="evenodd" clip-rule="evenodd" d="M252.726 72.5978L251.658 72.929C239.944 67.2147 229.354 66.054 220.301 69.5004C213.372 72.307 207.639 77.4407 204.087 84.0182C191.532 81.8123 178.623 84.8525 168.372 92.429C155.751 101.923 148.909 117.247 150.265 132.983L150.361 134.251C150.899 140.585 152.352 146.811 154.676 152.733C124.453 188.293 159.281 223.235 161.056 224.955L161.35 225.217C161.978 225.719 162.759 225.997 163.569 226C163.94 225.998 164.309 225.932 164.658 225.804C165.912 225.377 166.826 224.291 167.033 222.983L171.64 193.304C173.291 182.935 182.108 175.222 192.604 174.965L193.18 174.946C207.623 174.426 226.33 169.545 236.587 150.161C243.157 152.196 250.226 151.925 256.622 149.393C263.337 146.483 268.337 140.661 271.497 132.197C282.354 132.715 319.604 137.304 324.604 175.911L332.194 218.304C332.403 219.464 333.171 220.447 334.247 220.929C335.314 221.408 336.548 221.335 337.551 220.733C351.854 212.161 360.158 201.393 362.194 188.768C364.921 171.944 355.689 156.927 351.49 151.123L350.926 150.358C353.104 144.358 357.39 126.893 342.212 109.286C332.314 97.8065 316.147 97.357 308.46 97.8802L307.372 97.9647C303.569 86.7325 297.069 78.7325 288.14 74.2325C274.365 67.3449 258.797 70.7899 252.726 72.5978ZM169.212 244.5C170.428 244.557 171.532 245.23 172.14 246.286L173.926 249.304C176.187 253.236 180.372 255.665 184.908 255.679C192.561 255.538 199.811 259.103 204.372 265.25C204.455 265.387 204.605 265.469 204.765 265.465C204.869 265.462 204.967 265.42 205.04 265.348L205.104 265.268C220.12 245.883 242.769 244.664 248.354 244.663L251.073 244.714C257.583 244.904 279.489 246.507 293.729 265.197C293.795 265.295 293.894 265.365 294.007 265.395L294.122 265.411C294.214 265.412 294.301 265.379 294.367 265.319L294.426 265.25C299.024 259.051 306.353 255.48 314.069 255.679C318.504 255.671 322.61 253.34 324.89 249.536L326.247 247.25C326.776 246.3 327.71 245.643 328.783 245.465C332.108 245.091 335.436 246.142 337.944 248.358C341.283 251.393 342.819 256.304 342.497 262.947C342.378 266.257 341.639 269.516 340.319 272.554L340.521 273.281C342.508 280.841 342.213 293.294 330.265 299.518C331.233 305.738 329.872 312.096 326.444 317.375C321.854 324.018 313.819 327.983 302.569 329.161C290.212 346.872 270.003 357.453 248.408 357.518L248.444 357.625C241.383 357.631 234.37 356.46 227.694 354.161C214.547 349.799 203.329 340.998 195.962 329.268C184.747 328.072 176.765 324.108 172.194 317.483C168.761 312.205 167.394 305.847 168.354 299.625C156.015 293.197 156.122 280.125 158.301 272.661C156.997 269.618 156.259 266.362 156.122 263.054C155.801 256.375 157.301 251.34 160.587 248.072C162.867 245.775 165.974 244.488 169.212 244.5ZM250.832 251.854L247.842 251.855C242.812 251.945 223.233 253.356 210.587 269.715C209.173 271.651 206.893 272.761 204.497 272.679C202.237 272.65 200.115 271.616 198.701 269.871L198.444 269.536C195.19 265.197 190.025 262.718 184.604 262.893C177.547 262.842 171.051 259.039 167.551 252.911L167.194 252C166.573 252.255 166.013 252.639 165.551 253.125C163.765 254.911 163.051 258.197 163.265 262.643C163.344 264.914 163.815 267.15 164.656 269.253C166.49 268.702 168.43 268.538 170.354 268.786C172.955 269.336 175.215 270.931 176.604 273.197C176.87 273.59 176.969 274.072 176.878 274.538C176.788 275.004 176.516 275.414 176.122 275.679C175.827 275.878 175.478 275.983 175.122 275.983C174.525 275.979 173.969 275.678 173.64 275.179C172.772 273.707 171.328 272.665 169.658 272.304C168.317 272.167 166.972 272.297 165.698 272.676C165.681 272.883 165.646 273.088 165.592 273.29L165.295 274.199C164.323 277.336 161.469 289.432 173.694 294.125C175.337 294.758 176.26 296.486 175.907 298.182L175.729 298.914C175.33 300.744 174.145 307.798 178.104 313.483C181.676 318.59 188.497 321.554 198.426 322.411C199.694 322.506 200.816 323.267 201.372 324.411L201.46 324.605C202.382 326.44 210.612 340.771 229.944 347.5C254.973 355.84 282.477 346.415 297.136 324.507C291.781 321.64 291.386 316.485 291.426 314.572C291.426 313.586 292.225 312.786 293.212 312.786C294.198 312.786 294.997 313.586 294.997 314.572L295.007 315.006C295.112 317.466 296.199 321.05 301.791 322.351C310.866 321.39 317.162 318.459 320.515 313.572C324.462 307.844 323.284 300.966 322.866 299.096L322.747 298.608C322.223 296.824 323.155 294.936 324.89 294.268C338.176 289.161 333.64 275.286 333.069 273.715C332.732 272.784 332.797 271.756 333.247 270.875C334.396 268.572 335.081 266.067 335.263 263.504L335.301 262.804C335.515 258.483 334.765 255.411 333.14 253.875C332.609 253.363 331.948 253.005 331.229 252.84L330.979 253.268C327.437 259.222 321.032 262.882 314.104 262.911C308.788 262.673 303.689 264.988 300.37 269.12L300.033 269.554C298.609 271.479 296.356 272.614 293.962 272.614C291.708 272.614 289.58 271.608 288.15 269.885L287.89 269.554C275.604 253.444 256.187 251.955 250.832 251.854ZM265.868 334.962C265.677 334.327 265.15 333.85 264.499 333.723C263.848 333.596 263.18 333.84 262.765 334.358L262.422 334.72C258.26 338.912 252.736 337.647 249.765 336.483C248.853 336.128 247.826 336.574 247.462 337.483C247.286 337.923 247.293 338.415 247.48 338.851C247.668 339.286 248.021 339.629 248.462 339.804C250.635 340.686 252.955 341.152 255.301 341.179C259.153 341.24 262.842 339.624 265.408 336.75L265.555 336.588C265.916 336.134 266.037 335.527 265.868 334.962ZM191.287 294.405C191.809 294.776 192.094 295.398 192.033 296.036L191.993 296.574C191.822 299.847 192.953 303.866 198.908 305.625C199.848 305.909 200.382 306.898 200.104 307.84C199.855 308.58 199.153 309.072 198.372 309.054C198.206 309.071 198.039 309.071 197.872 309.054C188.462 306.268 188.158 298.786 188.462 295.697C188.522 295.059 188.919 294.502 189.501 294.235C190.084 293.969 190.765 294.033 191.287 294.405ZM236.695 294.88C236.384 294.64 236.001 294.508 235.604 294.508C235.128 294.508 234.672 294.698 234.337 295.036C233.644 295.733 233.644 296.857 234.337 297.554C237.047 300.189 240.7 301.63 244.479 301.554C245.777 301.539 247.07 301.389 248.337 301.108C249.296 300.902 249.91 299.961 249.712 299C249.613 298.536 249.334 298.129 248.935 297.871C248.536 297.613 248.051 297.525 247.587 297.625C243.808 298.702 239.742 297.719 236.872 295.036L236.695 294.88ZM302.35 286.394C302.719 286.696 302.952 287.133 302.997 287.608C303.7 292.777 300.297 297.613 295.194 298.697C294.998 298.769 294.794 298.817 294.587 298.84C293.6 298.978 292.689 298.29 292.551 297.304C292.413 296.318 293.1 295.406 294.087 295.268C298.59 293.929 299.499 290.91 299.463 288.434L299.444 287.947C299.35 286.972 300.059 286.104 301.033 286C301.507 285.951 301.981 286.092 302.35 286.394ZM222.908 76.179C216.893 78.6959 212.073 83.426 209.444 89.3932C208.794 91.0823 206.983 92.0183 205.229 91.5718C202.292 90.8401 199.275 90.4743 196.247 90.4825C187.8 90.409 179.556 93.0714 172.747 98.0718C148.449 116.948 159.685 146.314 161.736 151.156L162.045 151.872C168.468 149.655 178.225 148.291 186.051 155.875C186.743 156.572 186.743 157.697 186.051 158.393C185.724 158.736 185.274 158.935 184.801 158.947C184.337 158.941 183.891 158.762 183.551 158.447C176.261 151.364 166.74 153.687 161.348 155.93L161.462 155.804C149.354 169.108 146.39 183.84 152.64 199.608C154.788 204.891 157.661 209.849 161.176 214.34L164.622 192.215C166.765 178.643 178.153 168.484 191.821 167.844L192.444 167.822C211.587 167.268 224.747 159.358 231.551 144.268C232.324 142.562 234.272 141.756 236.007 142.378L236.62 142.615C238.394 143.277 246.503 146.076 253.837 142.822C258.825 140.63 262.512 136.001 265.043 129.146L265.301 128.429C265.981 126.336 267.958 124.94 270.158 125C280.946 125.315 291.558 127.811 301.354 132.34C318.676 140.661 329.176 155.358 331.712 174.822L338.337 211.75C348.051 204.875 353.712 196.768 355.194 187.625C357.673 172.414 348.037 158.304 345.039 154.357L344.176 153.268C343.312 152.257 343.087 150.857 343.57 149.636L343.961 148.751C345.315 145.473 350.608 129.872 336.854 113.947C327.472 103.06 309.532 104.849 306.079 105.309L305.497 105.393C303.697 105.699 301.956 104.597 301.462 102.84C298.408 92.1254 292.872 84.5897 285.033 80.6432C271.832 74.0429 255.582 79.1527 253.063 80.0093L252.729 80.1254C251.781 80.4882 250.722 80.4298 249.819 79.9647C239.39 74.6075 230.337 73.3575 222.908 76.179ZM344.337 196.947C349.346 191.823 350.174 183.927 346.337 177.875C345.799 177.047 344.692 176.811 343.863 177.349C343.035 177.886 342.799 178.993 343.337 179.822C346.257 184.486 345.608 190.543 341.765 194.483C341.073 195.179 341.073 196.304 341.765 197C342.096 197.319 342.538 197.499 342.997 197.5C343.502 197.513 343.988 197.312 344.337 196.947ZM319.194 115.911C328.105 117.702 334.988 124.805 336.497 133.768C336.586 134.235 336.485 134.718 336.217 135.11C335.949 135.502 335.536 135.771 335.069 135.858L334.729 135.911C333.856 135.925 333.101 135.306 332.944 134.447C331.812 127.129 326.341 121.259 319.162 119.592L318.658 119.483C317.672 119.335 316.992 118.415 317.14 117.429C317.288 116.443 318.207 115.763 319.194 115.911ZM177.283 115.215C176.991 114.839 176.56 114.595 176.087 114.538C175.615 114.481 175.139 114.615 174.765 114.911C172.032 116.988 169.624 119.462 167.622 122.25C167.26 122.8 167.23 123.505 167.544 124.083C167.857 124.662 168.464 125.021 169.122 125.018C169.739 125.033 170.319 124.73 170.658 124.215L171.202 123.486C172.865 121.324 174.801 119.384 176.962 117.715C177.739 117.112 177.883 115.994 177.283 115.215ZM222.712 117.483C223.525 118.04 223.733 119.151 223.176 119.965C222.827 120.43 222.275 120.696 221.694 120.679C221.336 120.674 220.987 120.562 220.694 120.358C207.247 111.09 194.837 108.822 183.783 113.608C182.902 113.905 181.941 113.476 181.573 112.623C181.205 111.77 181.552 110.777 182.372 110.34L183.096 110.042C191.566 106.679 205.132 105.335 222.712 117.483ZM263.646 109.596C263.877 109.18 263.933 108.69 263.801 108.233C258.446 89.0351 239.47 86.6499 235.382 86.3608L234.604 86.3218L234.396 86.3338C233.508 86.437 232.819 87.1917 232.819 88.1075C232.819 89.0937 233.618 89.8932 234.604 89.8932L234.918 89.9037C237.594 90.0213 255.355 91.429 260.408 109.215C260.63 110.01 261.369 110.549 262.194 110.518C262.321 110.505 262.446 110.481 262.569 110.447C263.027 110.318 263.414 110.012 263.646 109.596Z" fill="#372168"/>
<path d="M255.776 263.491C254.634 263.501 253.579 262.885 253.027 261.886C252.476 260.887 252.516 259.666 253.133 258.705L257.097 252.384C257.69 251.427 258.749 250.859 259.874 250.894C261 250.93 262.021 251.563 262.553 252.555C263.085 253.547 263.047 254.748 262.454 255.705L258.49 262.044C257.906 262.975 256.873 263.525 255.776 263.491Z" fill="#372168"/>
<path d="M250.806 241.583C246.906 241.635 243.239 239.731 241.038 236.512C240.101 235.062 240.517 233.127 241.967 232.19C243.417 231.253 245.351 231.669 246.288 233.119C247.375 234.533 249.063 235.354 250.846 235.336C252.629 235.319 254.301 234.464 255.36 233.03C256.257 231.55 258.184 231.078 259.663 231.976C261.143 232.873 261.614 234.8 260.717 236.28C258.556 239.646 254.806 241.653 250.806 241.583Z" fill="#372168"/>
<path d="M288.008 220.089C295.919 220.089 295.937 207.768 288.008 207.768C280.079 207.768 280.062 220.089 288.008 220.089Z" fill="#372168"/>
<path d="M214.847 220.089C222.776 220.089 222.793 207.768 214.847 207.768C206.901 207.768 206.901 220.089 214.847 220.089Z" fill="#372168"/>
<path d="M229.819 203.089H198.819C196.846 203.089 195.247 201.49 195.247 199.518C195.247 197.545 196.846 195.946 198.819 195.946H229.819C231.791 195.946 233.39 197.545 233.39 199.518C233.39 201.49 231.791 203.089 229.819 203.089Z" fill="#372168"/>
<path d="M303.73 194.768H272.73C270.757 194.768 269.158 193.169 269.158 191.196C269.158 189.224 270.757 187.625 272.73 187.625H303.73C305.702 187.625 307.301 189.224 307.301 191.196C307.301 193.169 305.702 194.768 303.73 194.768Z" fill="#372168"/>
</g>
<path fill-rule="evenodd" clip-rule="evenodd" d="M0 250C0 111.929 111.929 0 250 0C388.071 0 500 111.929 500 250C500 388.071 388.071 500 250 500C111.929 500 0 388.071 0 250ZM492.857 250C492.857 115.874 384.126 7.14286 250 7.14286C115.874 7.14286 7.14286 115.874 7.14286 250C7.14286 384.126 115.874 492.857 250 492.857C384.126 492.857 492.857 384.126 492.857 250Z" fill="#372168"/>
</svg>
