<svg width="500" height="500" viewBox="0 0 500 500" fill="none" xmlns="http://www.w3.org/2000/svg">
<path fill-rule="evenodd" clip-rule="evenodd" d="M250 496.429C386.099 496.429 496.429 386.099 496.429 250C496.429 113.901 386.099 3.57141 250 3.57141C113.901 3.57141 3.57144 113.901 3.57144 250C3.57144 386.099 113.901 496.429 250 496.429Z" fill="#E7EEFF"/>
<mask id="mask0_0_267" style="mask-type:alpha" maskUnits="userSpaceOnUse" x="3" y="3" width="494" height="494">
<path fill-rule="evenodd" clip-rule="evenodd" d="M250 496.429C386.099 496.429 496.429 386.099 496.429 250C496.429 113.901 386.099 3.57141 250 3.57141C113.901 3.57141 3.57144 113.901 3.57144 250C3.57144 386.099 113.901 496.429 250 496.429Z" fill="white"/>
</mask>
<g mask="url(#mask0_0_267)">
<path fill-rule="evenodd" clip-rule="evenodd" d="M336.74 210.585C337.919 197.482 339.687 159.822 324.533 135.107C306.015 105.089 275.623 96.321 249.926 96.7317C224.212 96.321 193.819 105.089 175.301 135.107C160.033 159.892 161.855 197.696 163.033 210.696C163.025 210.845 163.025 210.994 163.033 211.142C163.283 213.732 163.498 215.232 163.498 215.232C163.512 215.432 163.538 215.632 163.563 215.832C163.602 216.132 163.641 216.432 163.641 216.732C163.783 218.089 163.944 219.428 164.105 220.732C165.039 228.433 166.592 236.047 168.748 243.5L169.98 247.41C170.748 249.839 171.569 252.214 172.39 254.553C172.98 256.125 173.587 257.714 174.176 259.25C174.465 260.043 174.765 260.766 175.067 261.494L175.07 261.501C175.109 261.596 175.148 261.69 175.188 261.785C175.22 261.863 175.251 261.94 175.283 262.017C180.269 274.629 187.251 286.356 195.962 296.75L196.051 296.853V358.821C197.462 367.91 221.051 375.053 249.998 375.053C278.944 375.053 302.533 367.875 303.944 358.821V296.623L304.033 296.517C312.675 286.19 319.603 274.542 324.551 262.017C324.734 261.539 324.916 261.095 325.097 260.656C325.287 260.193 325.475 259.735 325.658 259.25C326.174 257.945 326.677 256.603 327.177 255.265L327.179 255.261L327.444 254.553L327.464 254.493C336.162 256.464 347.548 254.592 354.301 244.285C363.158 230.785 359.158 215.91 349.694 211.41C345.646 209.46 340.999 209.165 336.74 210.585ZM300.158 300.839L300.316 300.674C300.394 300.593 300.471 300.512 300.547 300.431C300.435 300.561 300.323 300.692 300.212 300.821C295.684 305.617 290.614 309.872 285.105 313.5C280.354 316.719 275.207 319.25 269.817 321.044C275.188 319.251 280.316 316.726 285.051 313.517C290.56 309.89 295.63 305.635 300.158 300.839Z" fill="#FFC7BB"/>
<path d="M145.426 244.357C152.194 254.714 163.658 256.553 172.373 254.535C171.087 250.964 169.837 247.279 168.623 243.482C166.636 236.637 165.168 229.653 164.23 222.589C163.962 220.678 163.73 218.732 163.516 216.75C163.442 216.252 163.394 215.752 163.373 215.25C163.373 215.25 163.194 214.125 162.998 212.142C162.908 211.839 162.908 211.5 162.908 211.16C162.9 211.006 162.9 210.851 162.908 210.696C159.436 209.548 155.693 209.504 152.194 210.571C151.413 210.823 150.649 211.128 149.908 211.482C140.551 215.91 136.498 230.785 145.426 244.357Z" fill="#FFC7BB"/>
<path d="M47.8727 424.411C82.0513 393.911 136.891 375.482 171.087 365.589L172.426 365.196C182.551 362.268 190.766 360.125 195.926 358.661C197.337 367.714 220.926 374.893 249.855 374.893C278.783 374.893 302.391 367.75 303.819 358.661H304.105C309.212 360.125 317.355 362.232 327.408 365.143L328.623 365.5C362.748 375.375 417.676 393.821 451.944 424.428C469.763 440.386 488.571 473.662 504.788 508.035H-5.00754C11.2115 473.626 30.0329 440.311 47.8727 424.411Z" fill="#BA8C84"/>
<g style="mix-blend-mode:soft-light" opacity="0.4">
<path d="M282.694 393.25C271.915 395.66 260.9 396.858 249.855 396.821C213.319 396.821 182.301 384.696 171.069 365.786L172.408 365.393C182.533 362.464 190.748 360.321 195.908 358.857C197.319 367.911 220.908 375.089 249.837 375.089C278.766 375.089 302.373 367.946 303.801 358.857H304.087C309.194 360.321 317.337 362.428 327.391 365.339L328.605 365.696C323.087 375.053 312.748 382.75 299.283 388.143" fill="white"/>
</g>
<g style="mix-blend-mode:soft-light" opacity="0.4">
<path d="M282.694 393.25C271.915 395.66 260.9 396.858 249.855 396.821C213.319 396.821 182.301 384.696 171.069 365.786L172.408 365.393C182.533 362.464 190.748 360.321 195.908 358.857C197.319 367.911 220.908 375.089 249.837 375.089C278.766 375.089 302.373 367.946 303.801 358.857H304.087C309.194 360.321 317.337 362.428 327.391 365.339L328.605 365.696C323.087 375.053 312.748 382.75 299.283 388.143" fill="white"/>
</g>
<g style="mix-blend-mode:multiply" opacity="0.15">
<path fill-rule="evenodd" clip-rule="evenodd" d="M300.426 300.464V350.089C252.212 350.91 216.283 327.643 199.444 313.928V300.643L199.641 300.857C204.169 305.648 209.239 309.897 214.748 313.518C224.613 320.205 236.19 323.924 248.105 324.232H251.587C263.508 323.927 275.091 320.208 284.962 313.518C290.474 309.886 295.549 305.632 300.087 300.839L300.426 300.464Z" fill="#7C3830"/>
</g>
<path fill-rule="evenodd" clip-rule="evenodd" d="M251.152 93.1641L249.962 93.1781C230.373 92.8209 194.194 97.6423 172.23 133.249C158.439 155.629 157.983 187.506 159.001 204.934L159.087 206.315C156.403 206.103 153.687 206.402 151.087 207.214C150.176 207.524 149.282 207.882 148.409 208.285C143.178 210.957 139.352 215.753 137.909 221.446C135.765 230.012 137.425 239.087 142.462 246.339C147.607 254.317 156.526 259.05 166.016 258.839L167.028 258.822C168.04 258.79 169.049 258.71 170.053 258.582L170.784 260.499C171.159 261.464 171.534 262.41 171.927 263.357C176.861 275.85 183.709 287.497 192.223 297.879L192.354 298.037V356.098L188.069 357.285C184.085 358.363 179.226 359.688 173.755 361.258L171.373 361.946L170.069 362.321C112.48 379.053 71.7302 398.464 45.4623 421.91C27.0201 438.376 7.7464 472.482 -8.92859 508.036H508.88C483.311 453.62 464.734 431.125 454.427 421.91C428.683 398.928 389.049 379.743 333.434 363.317L330.247 362.382C330.132 362.332 330.013 362.288 329.891 362.249L328.605 361.875C325.415 360.96 322.417 360.117 319.645 359.348L312.909 357.499L307.515 356.003L307.516 297.952C316.05 287.568 322.913 275.914 327.855 263.41C328.248 262.464 328.641 261.517 328.998 260.553L329.739 258.58C331.062 258.749 332.395 258.836 333.73 258.839C343.241 259.023 352.163 254.248 357.284 246.232L357.707 245.605C362.405 238.451 363.911 229.648 361.837 221.321C360.389 215.644 356.571 210.864 351.355 208.196C350.249 207.67 349.103 207.234 347.927 206.892C345.562 206.254 343.118 206.029 340.7 206.217C341.81 189.108 341.672 156.189 327.552 133.249C306.027 98.3545 270.902 93.0432 251.152 93.1641ZM269.785 377.57C290.132 375.225 302.072 369.286 306.105 363.035L311.034 364.392C313.25 364.995 315.69 365.662 318.34 366.399L323.087 367.732C317.694 374.535 309.194 380.375 298.177 384.803L297.9 384.917C296.821 385.417 296.055 386.427 295.873 387.616C295.675 388.904 296.194 390.197 297.228 390.99C298.261 391.783 299.644 391.951 300.837 391.428C314.192 386.063 324.337 378.648 330.398 369.848C384.808 385.823 424.936 405.127 449.677 427.214C465.576 441.411 482.459 470.211 497.431 500.893H2.49725C17.4298 470.292 34.3358 441.409 50.2659 427.214C74.4284 405.681 113.294 386.761 165.955 370.963L169.567 369.89C182.446 388.485 213.532 400.357 249.944 400.357C261.28 400.389 272.582 399.149 283.641 396.66C285.564 396.221 286.767 394.307 286.328 392.383C285.89 390.46 283.975 389.257 282.052 389.696C271.53 392.045 260.778 393.201 249.998 393.142C217.212 393.142 189.319 383.303 176.962 367.749L193.989 363.12C199.241 371.156 217.533 378.642 249.944 378.642C257.276 378.642 263.886 378.258 269.785 377.57ZM287.016 316.535C276.567 323.572 264.324 327.476 251.73 327.785H247.962C235.4 327.452 223.195 323.536 212.784 316.499C208.036 313.372 203.599 309.801 199.532 305.836L199.502 357.824C199.552 357.974 199.592 358.128 199.623 358.285C200.471 363.724 219.636 371.311 249.021 371.479L249.909 371.482C277.046 371.482 295.707 365.162 299.621 359.87C300.017 359.328 300.258 358.797 300.337 358.285L300.339 305.787C296.253 309.785 291.792 313.384 287.016 316.535ZM248.302 100.303L251.078 100.276C269.308 100.221 301.704 105.044 321.409 136.964C335.694 160.155 334.322 196.162 333.288 208.864L333.159 210.357V210.553L336.519 210.837H336.135L333.159 210.749C332.989 212.542 332.828 213.769 332.755 214.332L332.754 214.335C332.745 214.403 332.738 214.46 332.732 214.509C332.719 214.605 332.712 214.662 332.712 214.678V214.928C332.699 215.09 332.679 215.249 332.659 215.41C332.624 215.694 332.587 215.984 332.587 216.303C331.713 225.137 330.046 233.875 327.605 242.41C326.48 246.089 325.284 249.767 324.034 253.232L323.587 254.428C323.373 255.053 323.127 255.723 322.893 256.348L322.266 257.999C321.927 258.892 321.569 259.785 321.194 260.678C316.39 272.852 309.661 284.174 301.266 294.214L301.541 293.875C301.492 293.92 301.444 293.966 301.397 294.014C301.339 294.072 301.284 294.133 301.23 294.196C299.909 295.749 298.694 297.124 297.48 298.374L296.471 299.426C292.398 303.594 287.887 307.313 283.016 310.517L282.167 311.082L281.308 311.633C276.362 314.645 271.646 316.663 267.436 318.012C262.324 319.601 256.993 320.493 251.587 320.642H248.105C239.347 320.394 230.786 318.201 223.029 314.26C220.856 313.154 218.746 311.911 216.712 310.535C211.443 307.054 206.589 302.979 202.248 298.392C201.159 297.232 199.98 295.946 198.677 294.428C190.21 284.318 183.426 272.91 178.587 260.642C178.23 259.768 177.873 258.892 177.516 257.982C176.891 256.464 176.284 254.892 175.73 253.374L175.58 252.944L175.579 252.941L175.578 252.938L175.576 252.932C175.575 252.929 175.574 252.926 175.572 252.923C175.106 251.586 174.635 250.237 174.178 248.878L173.355 246.357C172.944 245.071 172.534 243.785 172.141 242.499C170.036 235.233 168.513 227.811 167.587 220.303C167.427 219.017 167.266 217.696 167.123 216.357C166.998 215.892 166.998 215.446 166.998 214.982C167.006 214.898 167.006 214.815 166.998 214.732L166.587 211.214L166.587 210.732C166.587 210.456 166.555 210.186 166.494 209.929C165.464 198.282 163.584 160.847 178.284 136.999C197.802 105.339 229.802 100.303 248.302 100.303ZM340.643 213.53L340.123 213.616L339.933 215.214L339.873 215.624C339.82 215.944 339.796 216.314 339.773 216.682L339.762 216.851C339.758 216.919 339.753 216.986 339.748 217.053C339.023 224.437 337.766 231.757 335.988 238.955C338.388 238.847 340.629 237.623 342.016 235.607C343.735 233.252 344.017 230.142 342.748 227.517C342.211 226.689 342.446 225.582 343.275 225.044C344.103 224.507 345.211 224.742 345.748 225.571C347.598 229.133 347.473 233.398 345.418 236.845C343.363 240.293 339.671 242.432 335.659 242.499C335.46 242.513 335.261 242.52 335.062 242.52L334.498 244.535C333.762 246.947 332.998 249.343 332.204 251.703C339.594 252.363 346.754 249.003 350.973 242.933L351.302 242.446C355.205 236.917 356.538 229.974 354.962 223.392C354.069 219.691 351.631 216.55 348.266 214.767C347.525 214.409 346.754 214.116 345.962 213.892C344.423 213.462 342.821 213.318 341.236 213.462L340.643 213.53ZM153.302 213.982C154.594 213.567 155.944 213.357 157.288 213.355L157.858 213.363C158.449 213.382 159.039 213.44 159.623 213.535L159.766 214.778C159.798 215.043 159.83 215.258 159.862 215.424L159.903 215.884C159.908 215.928 159.914 215.972 159.919 216.015C159.931 216.109 159.944 216.202 159.957 216.294C159.996 216.583 160.034 216.854 160.034 217.089C160.248 219.071 160.48 221.017 160.748 222.928C160.739 222.975 160.739 223.024 160.748 223.071C161.447 228.403 162.446 233.69 163.741 238.91C161.181 238.928 158.757 237.683 157.284 235.553C155.583 233.192 155.303 230.092 156.552 227.464C157.086 226.64 156.855 225.539 156.034 224.999C155.636 224.737 155.151 224.644 154.685 224.741C154.219 224.839 153.811 225.118 153.552 225.517C151.68 229.098 151.806 233.395 153.883 236.86C155.96 240.326 159.69 242.462 163.73 242.499C164.045 242.505 164.359 242.495 164.672 242.469L164.672 242.466L164.909 242.446C164.83 242.454 164.751 242.462 164.672 242.469C164.859 243.147 165.051 243.824 165.248 244.499C165.98 246.928 166.73 249.303 167.516 251.642C159.912 252.349 152.541 248.797 148.355 242.41L147.977 241.851C144.401 236.397 143.237 229.695 144.784 223.339C145.676 219.622 148.13 216.471 151.516 214.696C152.095 214.419 152.692 214.181 153.302 213.982Z" fill="#372168"/>
<path fill-rule="evenodd" clip-rule="evenodd" d="M430.837 432.821C424.296 427.042 417.324 421.77 409.98 417.053C409.444 416.705 408.764 416.67 408.194 416.96C407.625 417.25 407.254 417.822 407.221 418.46C407.188 419.098 407.498 419.705 408.034 420.053C415.224 424.672 422.053 429.83 428.462 435.482C428.785 435.775 429.204 435.94 429.641 435.946C430.154 435.945 430.642 435.724 430.98 435.339C431.635 434.604 431.571 433.477 430.837 432.821ZM164.909 242.446C164.83 242.454 164.751 242.462 164.672 242.469L164.672 242.466L164.909 242.446Z" fill="#372168"/>
<path d="M260.391 295.617C259.89 295.62 259.411 295.39 259.07 294.982C256.579 292.661 253.388 291.477 250.141 291.668C246.915 291.473 243.737 292.603 241.213 294.843C240.78 295.412 240.096 295.664 239.443 295.495C238.79 295.325 238.277 294.764 238.116 294.04C237.954 293.317 238.171 292.554 238.677 292.065C245.457 286.174 254.998 286.256 261.695 292.263C262.189 292.84 262.326 293.688 262.042 294.419C261.758 295.15 261.108 295.622 260.391 295.617Z" fill="#372168"/>
<g style="mix-blend-mode:multiply" opacity="0.15">
<path fill-rule="evenodd" clip-rule="evenodd" d="M220.497 245.119C220.497 256.019 212.502 264.856 202.64 264.856C192.778 264.856 184.783 256.019 184.783 245.119C184.783 234.219 192.778 225.382 202.64 225.382C212.502 225.382 220.497 234.219 220.497 245.119ZM316.926 245.119C316.926 256.019 308.931 264.856 299.069 264.856C289.207 264.856 281.212 256.019 281.212 245.119C281.212 234.219 289.207 225.382 299.069 225.382C308.931 225.382 316.926 234.219 316.926 245.119Z" fill="#FF1300"/>
</g>
<path fill-rule="evenodd" clip-rule="evenodd" d="M330.3 129.056C330.301 129.054 330.301 129.054 330.301 129.054C330.301 129.054 332.39 124.839 330.283 114.696C328.176 104.554 323.962 96.5357 311.73 88.0893C300.14 80.1072 258.283 61.4464 211.605 76.6429C172.408 89.4107 137.962 120.643 134.39 157.643C132.61 176.086 142.75 182.724 150.793 187.99C156.87 191.968 161.749 195.163 159.39 202.071C153.908 218.125 168.676 238.393 168.676 238.393C167.256 228.655 169.832 218.757 175.819 210.946C180.116 205.058 182.151 197.819 181.551 190.554C180.622 177.714 181.301 171.536 186.212 163.875C192.676 153.768 207.997 144.839 229.426 144.839C246.274 144.839 258.734 146.76 269.023 148.346C285.92 150.952 296.963 152.654 311.98 143.464C311.99 143.457 312 143.449 312.01 143.441C312.141 143.342 312.297 143.225 312.426 143.215L312.499 143.323C315.672 148.073 323.462 159.734 323.462 171.536C323.462 178.842 322.762 185.576 322.106 191.893C320.943 203.084 319.916 212.965 323.158 222.393C328.23 237.143 331.247 244.286 331.247 244.286C333.189 233.22 338.001 222.053 342.812 210.889C350.298 193.515 357.781 176.148 354.444 159.179C349.057 131.788 330.929 129.14 330.3 129.056ZM329.331 130.263C327.816 131.891 324.047 135.324 314.945 141.529C324.073 135.347 327.829 131.898 329.331 130.263Z" fill="#FF9966"/>
<path fill-rule="evenodd" clip-rule="evenodd" d="M313.89 85.1429C325.533 93.1786 331.319 101.536 333.908 113.964C334.577 117.125 334.864 119.796 334.924 122.014C338.211 116.686 339.181 110.083 339.194 109.982C339.332 109.014 340.224 108.337 341.194 108.464C341.666 108.526 342.094 108.774 342.382 109.153C342.67 109.532 342.795 110.011 342.73 110.482C341.886 115.909 339.849 121.081 336.765 125.625C340.019 125.082 343.336 125.034 346.605 125.482C347.242 125.578 347.781 126.007 348.017 126.607C348.253 127.207 348.151 127.888 347.749 128.393C347.392 128.841 346.846 129.09 346.281 129.073L346.069 129.054C343.942 128.832 341.805 128.809 339.686 128.979C346.235 132.878 354.53 141.148 357.962 158.554C361.15 174.673 355.228 190.892 348.521 206.689L344.343 216.398C340.284 225.874 336.388 235.652 334.747 244.964C334.481 246.527 333.215 247.727 331.64 247.911L331.247 247.857C329.91 247.856 328.694 247.109 328.083 245.936L327.828 245.356C327.182 243.798 324.305 236.735 319.783 223.554C316.261 213.497 317.359 203.042 318.52 191.981L318.569 191.518C319.356 184.885 319.797 178.215 319.89 171.536C319.89 162.562 314.805 153.476 311.327 148.023L310.735 148.347L310.548 148.613C307.384 152.965 297.328 159.815 265.39 163L265.212 162.911C264.225 162.96 263.386 162.201 263.337 161.214C263.291 160.299 263.942 159.509 264.825 159.362L265.033 159.339C279.842 157.863 289.599 155.654 296.026 153.403C287.339 154.769 278.8 153.449 268.569 151.857C255.669 149.629 242.606 148.471 229.515 148.393C208.087 148.393 194.676 157.321 189.301 165.786L188.775 166.63C185.053 172.774 184.323 177.919 185.194 190.286C185.878 198.133 183.771 205.96 179.26 212.397L178.801 213.036C170.481 224.433 171.84 235.37 172.172 237.292L172.23 237.589C172.599 239.243 171.756 240.929 170.212 241.625C169.715 241.859 169.171 241.975 168.622 241.965C167.589 241.962 166.613 241.512 165.94 240.741L165.747 240.5C165.094 239.617 150.275 218.979 155.771 201.492L155.962 200.911C157.252 197.145 155.751 195.626 149.3 191.304L146.455 189.418C138.403 183.98 129.03 176.021 130.962 157.304C133.908 127.411 159.676 89.8393 210.622 73.25C258.515 57.6429 301.408 76.5536 313.89 85.1429ZM331.637 133.12L331.426 133.335C330.072 134.686 327.94 136.553 324.581 139.093L323.48 139.918C322.653 140.546 321.817 141.159 320.971 141.758L318.181 143.696C317.92 143.875 317.655 144.057 317.385 144.242L318.29 145.687C322.134 151.933 327.033 161.514 327.033 171.536C326.946 178.466 326.487 185.387 325.658 192.268L325.329 195.487C324.376 205.014 323.851 213.405 326.551 221.232L327.639 224.381C328.038 218.616 329.294 212.181 332.158 205.839C335.467 198.839 336.659 191.025 335.587 183.357C335.491 182.719 335.743 182.079 336.248 181.677C336.752 181.275 337.433 181.173 338.033 181.409C338.634 181.645 339.062 182.183 339.158 182.821C340.345 191.174 339.06 199.691 335.462 207.321C331.783 215.46 330.975 223.89 331.166 230.592C330.952 231.221 330.741 231.851 330.533 232.482L331.166 230.598L331.166 230.592C333.599 223.424 336.367 216.373 339.462 209.464L341.114 205.627C347.935 189.699 353.782 174.558 350.872 159.875C346.957 139.926 336.064 134.461 331.637 133.12ZM212.73 80.0357C224.308 76.2691 236.41 74.3586 248.587 74.3749C277.944 74.3749 301.283 85.2143 309.73 91.0357L310.239 91.3892L310.737 91.7422C303.749 104.325 289.806 111.617 275.301 109.964C273.968 109.857 272.571 109.718 271.1 109.563L268.818 109.319C245.315 106.819 205.99 102.636 179.676 141.768C177.236 145.418 175.058 149.238 173.158 153.196C172.95 153.625 172.922 154.118 173.079 154.568C173.237 155.017 173.567 155.385 173.997 155.589C174.246 155.695 174.513 155.75 174.783 155.75C175.491 155.732 176.121 155.298 176.39 154.643L177.084 153.224C178.733 149.929 180.589 146.741 182.64 143.679C206.492 108.189 241.996 110.073 264.946 112.417L271.848 113.143C272.935 113.254 273.98 113.357 274.98 113.446C297.252 115.436 308.801 101.62 313.253 94.4116L313.574 93.8837C322.263 100.857 325.151 107.438 326.819 115.446C328.129 121.737 327.633 125.364 327.292 126.816L327.166 127.293L327.14 127.357C326.554 128.064 323.534 131.439 311.743 139.371L310.469 140.223C310.313 140.301 310.162 140.387 310.015 140.482L309.289 140.918C296.768 148.322 287.289 147.52 272.95 145.359L269.551 144.839C256.291 142.543 242.865 141.349 229.408 141.268C205.087 141.268 189.569 151.946 183.176 161.946C177.841 170.299 177.11 177.268 177.847 189.098L177.962 190.821C178.533 197.24 176.742 203.647 172.926 208.839L172.357 209.624C169 214.366 166.651 219.752 165.462 225.446C162.587 218.911 160.247 210.464 162.73 203.214C165.689 194.546 160.103 189.951 154.402 186.124L151.684 184.333C149.943 183.186 148.209 182.009 146.587 180.695C143.886 172.409 143.255 153.086 173.247 120.857C173.839 120.128 173.764 119.066 173.078 118.426C172.391 117.786 171.326 117.787 170.64 118.429C144.979 146 140.742 164.764 141.817 175.772C138.873 171.698 137.149 166.231 137.962 158C140.676 130.429 164.855 95.625 212.73 80.0357ZM171.292 162.33C172.224 162.656 172.716 163.675 172.39 164.607C171.73 166.5 171.105 168.464 170.605 170.464L170.068 172.35C169.428 174.621 168.741 177.137 168.033 179.804C167.797 180.584 167.062 181.106 166.247 181.071C166.094 181.097 165.937 181.097 165.783 181.071C164.833 180.818 164.266 179.844 164.515 178.893L165.713 174.457C166.099 173.039 166.472 171.689 166.835 170.428L167.105 169.5C167.694 167.429 168.337 165.393 169.015 163.429C169.341 162.497 170.36 162.005 171.292 162.33ZM308.587 116.875C308.251 116.537 307.795 116.347 307.319 116.347C306.843 116.347 306.386 116.537 306.051 116.875C297.533 125.982 291.926 127.518 281.783 127.768C278.542 127.759 275.306 127.502 272.105 127C262.619 125.396 252.911 125.675 243.533 127.821C242.895 127.962 242.38 128.432 242.183 129.055C241.986 129.677 242.135 130.358 242.576 130.84C243.016 131.323 243.681 131.533 244.319 131.393C253.296 129.319 262.597 129.058 271.676 130.625C274.767 131.106 277.887 131.38 281.015 131.446L281.801 131.411C292.765 131.125 299.247 129.321 308.587 119.393C309.279 118.696 309.279 117.571 308.587 116.875Z" fill="#372168"/>
<path fill-rule="evenodd" clip-rule="evenodd" d="M272.876 258.628C272.568 259.469 272.217 260.293 271.823 261.097C271.593 261.476 271.395 261.871 271.148 262.249C271.011 262.52 270.851 262.779 270.671 263.023C270.473 263.319 270.292 263.599 270.078 263.895C269.999 264.036 269.905 264.168 269.799 264.29L269.288 264.965C264.351 271.351 256.121 277.013 246.937 275.367C246.566 275.304 246.198 275.221 245.835 275.12C244.914 274.904 244.012 274.618 243.135 274.264L242.263 273.885C241.819 273.688 241.341 273.425 240.864 273.178L240.189 272.783L239.202 272.19C237.594 271.153 236.099 269.951 234.741 268.602C233.668 267.554 232.708 266.395 231.878 265.146C229.356 261.553 228.031 257.257 228.092 252.868C228.351 250.855 229.652 249.128 231.515 248.325C232.198 248.061 232.924 247.927 233.655 247.93C234.526 247.933 235.393 248.038 236.239 248.243C239.152 248.901 253.06 253.098 266.326 247.124L266.655 246.975C267.116 246.758 267.603 246.597 268.103 246.498C272.975 245.428 275.362 251.666 272.876 258.628Z" fill="#FF6666"/>
<path fill-rule="evenodd" clip-rule="evenodd" d="M246.46 278.033C247.687 278.255 248.932 278.365 250.18 278.362C259.166 278.362 266.951 272.569 271.494 266.677C271.559 266.59 271.633 266.503 271.703 266.421C271.845 266.254 271.971 266.106 271.971 266.018C272.137 265.835 272.286 265.637 272.416 265.426L272.959 264.603C273.179 264.305 273.378 263.992 273.551 263.665C273.716 263.401 273.864 263.138 274.012 262.875L274.21 262.496C274.215 262.447 274.215 262.397 274.21 262.348C274.662 261.457 275.057 260.539 275.395 259.599C277.271 254.267 276.794 249.016 274.193 246.037C272.506 244.12 269.891 243.302 267.412 243.914C266.7 244.072 266.009 244.316 265.355 244.638H265.157C253.735 249.79 241.655 246.795 237.671 245.807L237.671 245.807L236.848 245.609C235.771 245.343 234.666 245.21 233.556 245.214C232.516 245.216 231.485 245.406 230.512 245.774C227.809 246.902 225.885 249.35 225.426 252.242C225.417 252.379 225.417 252.517 225.426 252.654C225.322 257.644 226.797 262.54 229.639 266.644C230.603 268.046 231.706 269.347 232.931 270.528C234.435 272.028 236.089 273.368 237.869 274.527L239.514 275.548C240.074 275.844 240.634 276.124 241.16 276.371L242.131 276.782C243.117 277.176 244.129 277.5 245.16 277.753C245.588 277.871 246.022 277.965 246.46 278.033ZM234.034 263.615C231.941 260.563 230.796 256.962 230.742 253.262C231.318 251.287 232.157 250.975 232.388 250.892C232.751 250.757 233.136 250.69 233.524 250.695C234.195 250.697 234.864 250.78 235.515 250.942L236.289 251.123C240.7 252.226 254.097 255.567 267.264 249.674L267.741 249.444C268.002 249.338 268.272 249.255 268.548 249.197C269.079 249.012 269.669 249.176 270.029 249.609C271.115 250.843 271.51 254.036 270.194 257.756C269.929 258.479 269.627 259.187 269.288 259.879L269.091 260.208L268.712 260.866L268.614 261.031C268.538 261.186 268.45 261.335 268.35 261.475L268.251 261.607C268.135 261.794 268.01 261.972 267.883 262.154C267.83 262.228 267.778 262.304 267.725 262.381L267.527 262.66L267.429 262.792C267.338 262.934 267.228 263.075 267.106 263.233C267.072 263.276 267.036 263.322 267.001 263.368C262.869 268.865 255.479 274.198 247.25 272.717C247.132 272.703 247.014 272.668 246.893 272.633C246.728 272.585 246.559 272.536 246.378 272.536C245.593 272.344 244.823 272.096 244.074 271.795L243.3 271.466L242.148 270.873L240.617 269.968C239.156 269.016 237.798 267.913 236.568 266.676C235.62 265.746 234.771 264.72 234.034 263.615Z" fill="#372168"/>
<path fill-rule="evenodd" clip-rule="evenodd" d="M269.799 264.29L269.288 264.965C264.351 271.351 256.121 277.013 246.937 275.367C246.566 275.304 246.198 275.221 245.835 275.12C244.914 274.904 244.012 274.618 243.135 274.264L242.263 273.886C241.819 273.688 241.341 273.425 240.864 273.178L240.189 272.783L239.202 272.19C237.594 271.153 236.099 269.951 234.741 268.602C233.668 267.554 232.708 266.395 231.878 265.146C238.742 261.602 246.435 259.976 254.146 260.439C259.533 260.895 264.815 262.195 269.799 264.29Z" fill="#FF7D7D"/>
<path fill-rule="evenodd" clip-rule="evenodd" d="M246.46 278.033C247.687 278.255 248.932 278.365 250.18 278.362C259.166 278.362 266.951 272.569 271.411 266.627L271.988 265.854C272.456 265.187 272.6 264.345 272.38 263.56C272.159 262.775 271.599 262.131 270.852 261.805C265.61 259.601 260.057 258.224 254.393 257.723C246.137 257.235 237.903 258.987 230.561 262.792C229.907 263.164 229.436 263.789 229.261 264.521C229.094 265.25 229.231 266.016 229.639 266.644C230.603 268.046 231.706 269.347 232.931 270.528C234.435 272.028 236.089 273.368 237.869 274.527L239.514 275.548C240.074 275.844 240.634 276.124 241.16 276.371L242.131 276.782C243.117 277.176 244.129 277.5 245.16 277.753C245.587 277.871 246.022 277.965 246.46 278.033ZM236.091 266.101L236.091 266.101C241.751 263.847 247.833 262.853 253.916 263.187C257.791 263.528 261.613 264.318 265.305 265.541C260.96 270.166 254.475 274.001 247.332 272.717C247.214 272.703 247.096 272.669 246.975 272.634C246.81 272.585 246.641 272.536 246.46 272.536C245.675 272.344 244.905 272.097 244.156 271.795L243.382 271.466L242.23 270.874L240.699 269.968C239.238 269.017 237.881 267.913 236.651 266.677C236.453 266.496 236.272 266.298 236.091 266.101Z" fill="#372168"/>
<path d="M249.011 267.878C248.766 267.877 248.524 267.82 248.303 267.713C247.907 267.525 247.602 267.186 247.457 266.772C247.312 266.358 247.338 265.903 247.53 265.508C248.846 262.877 250.833 260.641 253.29 259.023C254.05 258.71 254.924 259.005 255.338 259.714C255.753 260.423 255.581 261.329 254.936 261.838C253.024 263.123 251.476 264.88 250.443 266.94C250.179 267.496 249.626 267.858 249.011 267.878Z" fill="#372168"/>
<path d="M250.806 241.583C246.906 241.635 243.239 239.731 241.038 236.512C240.101 235.062 240.517 233.127 241.967 232.19C243.417 231.253 245.351 231.669 246.288 233.119C247.375 234.533 249.063 235.354 250.846 235.336C252.629 235.319 254.301 234.464 255.36 233.029C256.257 231.55 258.184 231.078 259.663 231.976C261.143 232.873 261.614 234.8 260.717 236.279C258.556 239.646 254.806 241.653 250.806 241.583Z" fill="#372168"/>
<path d="M295.254 218.732C294.156 218.732 293.139 218.155 292.575 217.214C291.516 215.779 289.845 214.925 288.062 214.907C286.278 214.89 284.59 215.711 283.504 217.125C282.931 218.129 281.851 218.735 280.695 218.7C279.54 218.665 278.498 217.996 277.987 216.959C277.475 215.922 277.578 214.688 278.254 213.75C280.508 210.531 284.207 208.633 288.136 208.679C292.066 208.726 295.719 210.71 297.896 213.982C298.471 214.947 298.487 216.146 297.938 217.125C297.389 218.105 296.359 218.718 295.236 218.732H295.254Z" fill="#372168"/>
<path d="M222.027 218.643C220.937 218.647 219.926 218.077 219.366 217.143C218.307 215.708 216.636 214.853 214.852 214.836C213.069 214.818 211.381 215.639 210.294 217.053C209.688 217.991 208.628 218.534 207.513 218.478C206.398 218.422 205.397 217.776 204.888 216.782C204.379 215.788 204.438 214.598 205.044 213.66C207.304 210.449 211.001 208.557 214.927 208.603C218.853 208.65 222.505 210.629 224.687 213.893C225.12 214.6 225.251 215.45 225.054 216.255C224.856 217.06 224.345 217.752 223.634 218.178C223.153 218.482 222.596 218.643 222.027 218.643Z" fill="#372168"/>
<path d="M200.033 204.982C199.101 204.988 198.204 204.629 197.533 203.982C196.862 203.312 196.486 202.403 196.486 201.455C196.486 200.507 196.862 199.598 197.533 198.928C205.791 191.299 217.481 188.633 228.23 191.928C229.458 192.276 230.407 193.253 230.72 194.49C231.033 195.727 230.662 197.038 229.747 197.928C228.832 198.817 227.511 199.151 226.283 198.803C218.064 196.168 209.063 198.107 202.658 203.893C201.971 204.603 201.021 204.998 200.033 204.982Z" fill="#372168"/>
<path d="M301.372 204.982C300.409 204.978 299.488 204.585 298.819 203.893C292.408 198.104 283.401 196.165 275.176 198.803C273.299 199.277 271.386 198.169 270.864 196.305C270.341 194.441 271.398 192.5 273.247 191.928C283.99 188.629 295.678 191.295 303.926 198.928C304.597 199.598 304.973 200.507 304.973 201.455C304.973 202.403 304.597 203.312 303.926 203.982C303.242 204.642 302.323 205.002 301.372 204.982Z" fill="#372168"/>
<path fill-rule="evenodd" clip-rule="evenodd" d="M337.962 215.821C342.483 195.076 340.615 173.449 332.604 153.786C332.247 152.839 331.872 152 331.479 150.982C330.551 148.75 329.533 146.554 328.462 144.411C321.429 130.184 310.927 117.957 297.926 108.857C295.997 107.518 294.033 106.268 291.997 105.107C290.337 104.143 288.64 103.321 286.908 102.411C280.462 99.2224 273.623 96.8987 266.569 95.5H266.122L265.533 95.3929C254.211 93.3144 242.59 93.4904 231.337 95.9107L230.069 96.1607C224.793 97.3183 219.616 98.8886 214.587 100.857C213.515 101.268 212.479 101.696 211.462 102.143C208.089 103.552 204.803 105.162 201.622 106.964C201.033 107.286 200.462 107.625 199.837 107.964C188.31 114.641 178.698 124.173 171.926 135.643C170.729 137.625 169.658 139.661 168.676 141.696C167.694 143.732 166.64 146.25 165.783 148.536C165.426 149.482 165.087 150.446 164.783 151.411C164.676 151.714 164.569 152.036 164.479 152.339C163.837 154.304 163.283 156.25 162.801 158.196C155.337 187.964 163.39 216.357 163.39 216.357C163.39 216.357 144.765 194.143 154.462 149C154.729 147.786 155.015 146.536 155.319 145.286C155.801 143.286 156.354 141.232 156.962 139.143C157.569 137.054 158.176 135.232 158.872 133.357C159.033 132.893 159.212 132.429 159.39 131.964C159.89 130.714 160.408 129.464 160.944 128.268C162.801 124.101 165.017 120.103 167.569 116.321C177.279 102.368 190.97 91.664 206.854 85.6071C209.914 84.4167 213.021 83.3452 216.176 82.3929L216.551 82.2679C222.536 80.517 228.65 79.2452 234.837 78.4643H235.337C251.607 76.39 268.13 77.6971 283.872 82.3036L284.747 82.5714C285.872 82.9107 286.979 83.2857 288.069 83.6786C290.033 84.375 291.926 85.1429 293.765 85.9643C296.929 87.3628 299.98 89.0046 302.89 90.875C305.125 92.2095 307.277 93.6764 309.337 95.2679C310.712 96.2857 312.229 97.5 313.872 98.8393C316.051 100.625 318.444 102.929 320.908 105.482C327.929 112.724 333.763 121.028 338.194 130.089C340.238 134.246 341.952 138.557 343.319 142.982C343.664 144.089 343.985 145.214 344.283 146.357C345.015 149.071 345.622 151.893 346.069 154.821C349.212 172.196 348.158 190.643 337.962 215.821Z" fill="#FFD0C1"/>
<path fill-rule="evenodd" clip-rule="evenodd" d="M160.729 218.554C161.405 219.365 162.406 219.836 163.462 219.839L163.426 220C164.549 220.004 165.609 219.479 166.286 218.584C166.964 217.688 167.181 216.526 166.872 215.446C166.783 215.179 159.176 187.571 166.319 159.125C166.783 157.232 167.319 155.339 167.944 153.429C168.015 153.179 168.104 152.911 168.229 152.554C168.515 151.643 168.837 150.75 169.176 149.857C170.015 147.625 170.908 145.518 171.944 143.304C172.979 141.089 173.979 139.304 175.051 137.518C181.53 126.572 190.71 117.472 201.712 111.089L203.372 110.125C206.45 108.389 209.628 106.839 212.89 105.482C213.854 105.054 214.837 104.643 215.872 104.25C220.718 102.355 225.703 100.839 230.783 99.7143H231.015L232.051 99.5C242.865 97.1758 254.031 97.012 264.908 99.0179H265.408L265.854 99.1072C268.578 99.6467 271.272 100.326 273.926 101.143C277.855 102.373 281.682 103.908 285.372 105.732C285.47 105.782 285.567 105.832 285.664 105.881C287.09 106.61 288.439 107.3 290.212 108.304C292.104 109.375 293.962 110.536 295.89 111.875C308.385 120.648 318.484 132.41 325.265 146.089C326.39 148.268 327.319 150.393 328.176 152.464C328.223 152.579 328.27 152.693 328.317 152.806C328.641 153.592 328.953 154.349 329.265 155.161C337 174.188 338.805 195.108 334.444 215.179C334.073 216.985 335.138 218.776 336.902 219.313C338.666 219.85 340.549 218.956 341.247 217.25C350.587 194.179 353.212 174.75 349.801 154.232C349.265 151.143 348.622 148.179 347.89 145.446C347.569 144.214 347.229 143.036 346.872 141.875C345.446 137.275 343.654 132.797 341.515 128.482C336.945 119.088 330.918 110.476 323.658 102.964C321.354 100.571 318.908 98.2679 316.39 96.0893C314.729 94.6607 313.14 93.3929 311.676 92.3036C309.527 90.639 307.279 89.1064 304.944 87.7143C301.9 85.7656 298.713 84.0523 295.408 82.5893C293.408 81.6964 291.408 80.8929 289.462 80.1964C288.319 79.7857 287.14 79.3929 286.015 79.0536L285.104 78.7679C268.885 74.0373 251.867 72.688 235.104 74.8036H234.819H234.569C228.19 75.6179 221.885 76.9315 215.712 78.7322L215.212 78.8929C212.015 79.8393 208.819 80.9464 205.712 82.1786C188.14 89.2143 174.372 99.9286 164.765 114.214C162.089 118.167 159.77 122.35 157.837 126.714C157.283 127.946 156.747 129.25 156.176 130.661L155.676 132.018C154.926 134.036 154.319 135.839 153.676 138.054C153.033 140.268 152.479 142.375 151.997 144.339C151.961 144.491 151.925 144.643 151.89 144.795C151.622 145.925 151.359 147.041 151.122 148.143C141.087 194.464 159.926 217.589 160.729 218.554ZM235.962 81.8573C240.85 81.2654 245.77 80.9672 250.694 80.9645V80.893C261.718 80.7302 272.706 82.1985 283.301 85.2502L284.158 85.5181C285.212 85.8395 286.265 86.1966 287.301 86.5716C289.087 87.1966 290.962 87.9466 292.747 88.7502C295.738 90.0843 298.627 91.6361 301.39 93.3931C301.443 93.4391 301.503 93.4754 301.569 93.5002C303.665 94.7789 305.691 96.1677 307.64 97.6609C308.997 98.7502 310.462 99.9288 311.979 101.232C314.337 103.268 316.622 105.429 318.765 107.643C325.539 114.616 331.163 122.62 335.426 131.357C337.387 135.34 339.029 139.472 340.337 143.714L340.337 143.715C340.658 144.786 340.979 145.857 341.265 146.982C341.962 149.5 342.569 152.25 343.051 155.107C344.616 164.162 344.839 173.398 343.712 182.518C342.597 172.15 340.086 161.981 336.247 152.286C335.872 151.304 335.479 150.322 335.069 149.375C334.158 147.179 333.104 144.893 331.944 142.572C324.639 127.811 313.739 115.124 300.247 105.679C298.158 104.232 296.015 102.822 294.087 101.786C293.631 101.541 293.185 101.299 292.748 101.062C291.335 100.296 290.011 99.5781 288.729 98.9645C284.699 96.9855 280.52 95.3256 276.229 94.0002C273.388 93.1161 270.503 92.377 267.587 91.7859H267.14H266.908L266.354 91.6788C254.627 89.5165 242.588 89.6864 230.926 92.1788L229.729 92.4109H229.479C224.003 93.6044 218.629 95.2285 213.408 97.2681C212.283 97.6966 211.194 98.1431 210.176 98.5895C206.692 100.045 203.299 101.708 200.015 103.572C199.926 103.625 199.835 103.678 199.744 103.732C199.254 104.023 198.742 104.327 198.229 104.643C186.208 111.629 176.176 121.575 169.087 133.536C167.926 135.447 166.765 137.572 165.676 139.911C164.587 142.25 163.569 144.643 162.658 147.054C162.283 148.054 161.926 149.089 161.64 150L161.301 151C160.622 153 160.033 155.072 159.515 157.107C157.23 166.493 156.126 176.127 156.229 185.786C154.806 173.684 155.477 161.428 158.212 149.554C158.462 148.429 158.747 147.197 159.051 145.982C159.497 144.107 160.033 142.089 160.658 139.982C161.122 138.179 161.729 136.304 162.444 134.375C162.535 134.111 162.635 133.855 162.736 133.592C162.793 133.445 162.851 133.296 162.908 133.143C163.39 131.929 163.89 130.732 164.408 129.572C166.175 125.595 168.291 121.783 170.729 118.179C179.515 105.179 192.212 95.2859 208.408 88.7681C211.265 87.6073 214.301 86.5538 217.337 85.6609C217.466 85.6356 217.593 85.5936 217.712 85.5359C223.556 83.8335 229.527 82.6034 235.569 81.8573H235.962Z" fill="#372168"/>
<path fill-rule="evenodd" clip-rule="evenodd" d="M348.819 82.5355L338.372 130.018C333.942 120.957 328.108 112.652 321.087 105.411C318.622 102.857 316.23 100.643 314.051 98.7677C312.408 97.357 310.89 96.1427 309.515 95.1962C307.456 93.6048 305.303 92.1379 303.069 90.8034C300.159 88.933 297.108 87.2912 293.944 85.8927C292.158 85.0712 290.212 84.3034 288.247 83.607C287.158 83.2141 286.051 82.8391 284.926 82.4998L284.051 82.232L334.98 69.2141C338.769 68.2503 342.788 69.3134 345.605 72.0252C348.422 74.7369 349.638 78.712 348.819 82.5355Z" fill="#FFC28F"/>
<path fill-rule="evenodd" clip-rule="evenodd" d="M216.354 82.3033C213.188 83.2318 210.081 84.3033 207.033 85.5175C191.148 91.5744 177.458 102.278 167.747 116.232C165.196 120.014 162.979 124.011 161.122 128.178L151.069 82.5354C150.228 78.6991 151.436 74.7014 154.26 71.9721C157.084 69.2428 161.12 68.172 164.926 69.1425L216.354 82.3033Z" fill="#FFC28F"/>
<path fill-rule="evenodd" clip-rule="evenodd" d="M160.819 131.75H161.176C162.614 131.793 163.937 130.969 164.533 129.66C166.3 125.684 168.416 121.871 170.855 118.268C179.64 105.268 192.337 95.3746 208.533 88.8568C211.39 87.6961 214.426 86.6425 217.462 85.7496C218.994 85.2885 220.032 83.8646 220.003 82.2648C219.974 80.665 218.885 79.2797 217.337 78.8746L165.872 65.7139C160.864 64.4346 155.551 65.8433 151.835 69.4358C148.119 73.0282 146.531 78.2906 147.64 83.3389L157.694 128.982C158.032 130.481 159.29 131.595 160.819 131.75ZM162.098 72.3568C162.111 72.3567 162.124 72.3567 162.138 72.3567H162.069C162.079 72.3567 162.088 72.3567 162.098 72.3568ZM156.126 75.2491C157.58 73.4336 159.775 72.3717 162.098 72.3568C162.751 72.3614 163.401 72.4453 164.033 72.6067L204.14 82.8745C188.233 89.2219 174.562 100.14 164.855 114.25C164.057 115.44 163.289 116.63 162.551 117.821L154.622 81.7674C154.107 79.479 154.66 77.0802 156.126 75.2491Z" fill="#372168"/>
<path d="M168.997 113.785C168.141 113.804 167.391 113.212 167.212 112.375L162.569 91.2676C161.947 88.42 162.844 85.4535 164.939 83.4273C167.034 81.4012 170.029 80.6043 172.855 81.3211L176.122 82.1604C177.079 82.407 177.655 83.3824 177.408 84.339C177.162 85.2956 176.186 85.8713 175.23 85.6247L171.98 84.7854C170.354 84.3666 168.627 84.827 167.426 85.9997C166.205 87.1514 165.682 88.8621 166.051 90.4997L170.694 111.607C170.904 112.568 170.297 113.518 169.337 113.732L168.997 113.785Z" fill="#372168"/>
<path fill-rule="evenodd" clip-rule="evenodd" d="M335.158 131.571C335.754 132.805 337.003 133.589 338.372 133.589L338.801 133.464C340.309 133.288 341.541 132.178 341.872 130.696L352.319 83.2141C353.436 78.1678 351.854 72.9033 348.139 69.3092C344.425 65.7151 339.111 64.3067 334.104 65.5891L283.176 78.607C281.628 79.0121 280.538 80.3973 280.509 81.9971C280.48 83.597 281.519 85.0209 283.051 85.482L283.908 85.7498C284.962 86.0713 286.015 86.4284 287.051 86.8034C288.837 87.4284 290.712 88.1784 292.497 88.982C295.488 90.3161 298.377 91.8679 301.14 93.6248C301.193 93.6709 301.253 93.7072 301.319 93.732C303.415 95.0107 305.441 96.3995 307.39 97.8927C308.747 98.982 310.212 100.161 311.729 101.464C314.087 103.5 316.372 105.661 318.515 107.875C325.285 114.84 330.903 122.839 335.158 131.571ZM311.676 92.2676C309.527 90.6031 307.279 89.0705 304.944 87.6784C302.071 85.8438 299.069 84.2205 295.962 82.8212L335.872 72.6069C338.474 71.942 341.235 72.6747 343.164 74.5425C345.094 76.4102 345.916 79.1455 345.337 81.7676L336.926 119.964C333.134 113.822 328.685 108.109 323.658 102.928C321.354 100.535 318.908 98.2319 316.39 96.0534C314.729 94.6248 313.14 93.3569 311.676 92.2676Z" fill="#372168"/>
<path d="M330.319 113.786H329.944C328.983 113.572 328.376 112.622 328.587 111.661L333.229 90.5535C333.598 88.9159 333.076 87.2052 331.854 86.0535C330.653 84.8809 328.927 84.4205 327.301 84.8392L323.872 85.7142C322.916 85.9559 321.944 85.3762 321.703 84.4196C321.461 83.463 322.041 82.4916 322.997 82.25L326.426 81.375C329.251 80.6581 332.246 81.455 334.341 83.4812C336.436 85.5073 337.333 88.4738 336.712 91.3214L332.069 112.429C331.87 113.232 331.146 113.793 330.319 113.786Z" fill="#372168"/>
</g>
<path fill-rule="evenodd" clip-rule="evenodd" d="M0 250C0 111.929 111.929 0 250 0C388.071 0 500 111.929 500 250C500 388.071 388.071 500 250 500C111.929 500 0 388.071 0 250ZM492.857 250C492.857 115.874 384.126 7.14286 250 7.14286C115.874 7.14286 7.14286 115.874 7.14286 250C7.14286 384.126 115.874 492.857 250 492.857C384.126 492.857 492.857 384.126 492.857 250Z" fill="#372168"/>
</svg>
