<svg width="500" height="500" viewBox="0 0 500 500" fill="none" xmlns="http://www.w3.org/2000/svg">
<path fill-rule="evenodd" clip-rule="evenodd" d="M250 496.429C386.099 496.429 496.429 386.099 496.429 250C496.429 113.901 386.099 3.57144 250 3.57144C113.901 3.57144 3.57141 113.901 3.57141 250C3.57141 386.099 113.901 496.429 250 496.429Z" fill="#E7EEFF"/>
<mask id="mask0_0_265" style="mask-type:alpha" maskUnits="userSpaceOnUse" x="3" y="3" width="494" height="494">
<path fill-rule="evenodd" clip-rule="evenodd" d="M250 496.429C386.099 496.429 496.429 386.099 496.429 250C496.429 113.901 386.099 3.57144 250 3.57144C113.901 3.57144 3.57141 113.901 3.57141 250C3.57141 386.099 113.901 496.429 250 496.429Z" fill="white"/>
</mask>
<g mask="url(#mask0_0_265)">
<path fill-rule="evenodd" clip-rule="evenodd" d="M336.74 210.585C337.919 197.482 339.687 159.822 324.533 135.107C306.015 105.089 275.623 96.321 249.926 96.7317C224.212 96.321 193.819 105.089 175.301 135.107C160.033 159.892 161.855 197.696 163.033 210.696C163.025 210.845 163.025 210.994 163.033 211.142C163.283 213.732 163.498 215.232 163.498 215.232C163.512 215.432 163.538 215.632 163.563 215.832C163.602 216.132 163.641 216.432 163.641 216.732C163.783 218.089 163.944 219.428 164.105 220.732C165.039 228.433 166.592 236.047 168.748 243.5L169.98 247.41C170.748 249.839 171.569 252.214 172.39 254.553C172.98 256.125 173.587 257.714 174.176 259.25C174.465 260.043 174.765 260.766 175.067 261.494L175.07 261.501C175.109 261.596 175.148 261.691 175.188 261.786C175.22 261.863 175.251 261.94 175.283 262.017C180.269 274.629 187.251 286.356 195.962 296.75L196.051 296.853V358.821C197.462 367.91 221.051 375.053 249.998 375.053C278.944 375.053 302.533 367.875 303.944 358.821V296.623L304.033 296.517C312.675 286.19 319.603 274.542 324.551 262.017C324.734 261.539 324.916 261.095 325.097 260.656C325.287 260.193 325.475 259.735 325.658 259.25C326.174 257.946 326.677 256.603 327.177 255.265L327.179 255.261L327.444 254.553L327.464 254.493C336.162 256.464 347.548 254.592 354.301 244.285C363.158 230.785 359.158 215.91 349.694 211.41C345.646 209.46 340.999 209.165 336.74 210.585ZM300.158 300.839L300.316 300.674C300.394 300.593 300.471 300.512 300.547 300.431C300.435 300.562 300.323 300.692 300.212 300.821C295.684 305.617 290.614 309.872 285.105 313.5C280.354 316.719 275.207 319.25 269.817 321.044C275.188 319.251 280.316 316.726 285.051 313.517C290.56 309.89 295.63 305.635 300.158 300.839Z" fill="#FFC7BB"/>
<path d="M145.426 244.357C152.194 254.714 163.658 256.553 172.373 254.535C171.087 250.964 169.837 247.279 168.623 243.482C166.636 236.637 165.168 229.653 164.23 222.589C163.962 220.678 163.73 218.732 163.516 216.75C163.442 216.252 163.394 215.752 163.373 215.25C163.373 215.25 163.194 214.125 162.998 212.142C162.908 211.839 162.908 211.5 162.908 211.16C162.9 211.006 162.9 210.851 162.908 210.696C159.436 209.548 155.693 209.504 152.194 210.571C151.413 210.823 150.649 211.128 149.908 211.482C140.551 215.91 136.498 230.785 145.426 244.357Z" fill="#FFC7BB"/>
<path d="M47.8727 424.411C82.0512 393.911 136.891 375.482 171.087 365.589L172.426 365.196C182.551 362.268 190.766 360.125 195.926 358.661C197.337 367.714 220.926 374.893 249.855 374.893C278.783 374.893 302.391 367.75 303.819 358.661H304.105C309.212 360.125 317.355 362.232 327.408 365.143L328.623 365.5C362.748 375.375 417.676 393.821 451.944 424.429C469.763 440.386 488.57 473.662 504.788 508.036H-5.00757C11.2115 473.626 30.0329 440.311 47.8727 424.411Z" fill="#EBB759"/>
<g style="mix-blend-mode:soft-light" opacity="0.4">
<path d="M282.694 393.25C271.915 395.66 260.9 396.858 249.855 396.821C213.319 396.821 182.301 384.696 171.069 365.786L172.408 365.393C182.533 362.464 190.748 360.321 195.908 358.857C197.319 367.911 220.908 375.089 249.837 375.089C278.766 375.089 302.373 367.946 303.801 358.857H304.087C309.194 360.321 317.337 362.428 327.391 365.339L328.605 365.696C323.087 375.053 312.748 382.75 299.283 388.143" fill="white"/>
</g>
<g style="mix-blend-mode:soft-light" opacity="0.4">
<path d="M282.694 393.25C271.915 395.66 260.9 396.858 249.855 396.821C213.319 396.821 182.301 384.696 171.069 365.786L172.408 365.393C182.533 362.464 190.748 360.321 195.908 358.857C197.319 367.911 220.908 375.089 249.837 375.089C278.766 375.089 302.373 367.946 303.801 358.857H304.087C309.194 360.321 317.337 362.428 327.391 365.339L328.605 365.696C323.087 375.053 312.748 382.75 299.283 388.143" fill="white"/>
</g>
<g style="mix-blend-mode:multiply" opacity="0.15">
<path fill-rule="evenodd" clip-rule="evenodd" d="M300.426 300.464V350.089C252.212 350.911 216.283 327.643 199.444 313.928V300.643L199.641 300.857C204.169 305.648 209.239 309.897 214.748 313.518C224.613 320.205 236.19 323.924 248.105 324.232H251.587C263.508 323.927 275.091 320.209 284.962 313.518C290.474 309.886 295.549 305.632 300.087 300.839L300.426 300.464Z" fill="#7C3830"/>
</g>
<path fill-rule="evenodd" clip-rule="evenodd" d="M251.152 93.1641L249.962 93.1781C230.373 92.821 194.194 97.6424 172.23 133.25C158.439 155.629 157.983 187.506 159.001 204.934L159.087 206.315C156.403 206.103 153.687 206.402 151.087 207.214C150.176 207.524 149.282 207.882 148.409 208.285C143.178 210.957 139.352 215.753 137.909 221.446C135.765 230.012 137.425 239.087 142.462 246.339C147.607 254.317 156.526 259.05 166.016 258.839L167.028 258.822C168.04 258.79 169.049 258.71 170.053 258.583L170.784 260.5C171.159 261.464 171.534 262.41 171.927 263.357C176.861 275.85 183.709 287.497 192.223 297.879L192.354 298.037V356.098L188.069 357.285C184.085 358.363 179.226 359.688 173.755 361.258L171.373 361.946L170.069 362.321C112.48 379.053 71.7302 398.464 45.4623 421.91C27.0201 438.376 7.7464 472.482 -8.92859 508.036H508.88C483.311 453.62 464.734 431.125 454.427 421.91C428.683 398.928 389.049 379.743 333.434 363.317L330.247 362.382C330.132 362.332 330.013 362.288 329.891 362.25L328.605 361.875C325.415 360.96 322.417 360.117 319.645 359.348L312.909 357.5L307.515 356.003L307.516 297.952C316.05 287.568 322.913 275.914 327.855 263.41C328.248 262.464 328.641 261.517 328.998 260.553L329.739 258.58C331.062 258.749 332.395 258.836 333.73 258.839C343.241 259.023 352.163 254.248 357.284 246.232L357.707 245.605C362.405 238.451 363.911 229.648 361.837 221.321C360.389 215.644 356.571 210.864 351.355 208.196C350.249 207.67 349.103 207.234 347.927 206.892C345.562 206.254 343.118 206.029 340.7 206.217C341.81 189.108 341.672 156.189 327.552 133.25C306.027 98.3545 270.902 93.0433 251.152 93.1641ZM269.785 377.57C290.132 375.225 302.072 369.286 306.105 363.035L311.034 364.392C313.25 364.995 315.69 365.662 318.34 366.399L323.087 367.732C317.694 374.535 309.194 380.375 298.177 384.803L297.9 384.917C296.821 385.417 296.055 386.427 295.873 387.616C295.675 388.904 296.194 390.197 297.228 390.99C298.261 391.784 299.644 391.951 300.837 391.428C314.192 386.063 324.337 378.648 330.398 369.848C384.808 385.824 424.936 405.127 449.677 427.214C465.576 441.411 482.459 470.211 497.431 500.893H2.49725C17.4298 470.292 34.3358 441.409 50.2659 427.214C74.4284 405.681 113.294 386.761 165.955 370.963L169.567 369.891C182.446 388.485 213.532 400.357 249.944 400.357C261.28 400.389 272.582 399.15 283.641 396.66C285.564 396.221 286.767 394.307 286.328 392.383C285.89 390.46 283.975 389.257 282.052 389.696C271.53 392.045 260.778 393.201 249.998 393.142C217.212 393.142 189.319 383.303 176.962 367.75L193.989 363.121C199.241 371.156 217.533 378.642 249.944 378.642C257.276 378.642 263.886 378.258 269.785 377.57ZM287.016 316.535C276.567 323.572 264.324 327.476 251.73 327.785H247.962C235.4 327.452 223.195 323.536 212.784 316.5C208.036 313.372 203.599 309.801 199.532 305.836L199.502 357.824C199.552 357.974 199.592 358.128 199.623 358.285C200.471 363.724 219.636 371.311 249.021 371.479L249.909 371.482C277.046 371.482 295.707 365.162 299.621 359.87C300.017 359.328 300.258 358.797 300.337 358.285L300.339 305.787C296.253 309.785 291.792 313.384 287.016 316.535ZM248.302 100.303L251.078 100.276C269.308 100.221 301.704 105.044 321.409 136.964C335.694 160.156 334.322 196.162 333.288 208.864L333.159 210.357V210.553L336.519 210.837H336.135L333.159 210.75C332.989 212.542 332.828 213.769 332.755 214.332L332.754 214.335C332.745 214.403 332.738 214.461 332.732 214.509C332.719 214.605 332.712 214.662 332.712 214.678V214.928C332.699 215.09 332.679 215.249 332.659 215.411C332.624 215.694 332.587 215.984 332.587 216.303C331.713 225.137 330.046 233.875 327.605 242.41C326.48 246.089 325.284 249.767 324.034 253.232L323.587 254.428C323.373 255.053 323.127 255.723 322.893 256.348L322.266 258C321.927 258.892 321.569 259.785 321.194 260.678C316.39 272.852 309.661 284.174 301.266 294.214L301.541 293.875C301.492 293.92 301.444 293.966 301.397 294.014C301.339 294.073 301.284 294.133 301.23 294.196C299.909 295.75 298.694 297.125 297.48 298.375L296.471 299.426C292.398 303.594 287.887 307.313 283.016 310.517L282.167 311.082L281.308 311.633C276.362 314.645 271.646 316.663 267.436 318.012C262.324 319.601 256.993 320.493 251.587 320.642H248.105C239.347 320.394 230.786 318.201 223.029 314.26C220.856 313.154 218.746 311.911 216.712 310.535C211.443 307.054 206.589 302.98 202.248 298.392C201.159 297.232 199.98 295.946 198.677 294.428C190.21 284.318 183.426 272.91 178.587 260.642C178.23 259.768 177.873 258.892 177.516 257.982C176.891 256.464 176.284 254.892 175.73 253.375L175.58 252.944L175.579 252.941L175.578 252.938L175.576 252.932C175.575 252.929 175.574 252.926 175.572 252.923C175.106 251.586 174.635 250.237 174.178 248.878L173.355 246.357C172.944 245.071 172.534 243.785 172.141 242.5C170.036 235.233 168.513 227.811 167.587 220.303C167.427 219.017 167.266 217.696 167.123 216.357C166.998 215.892 166.998 215.446 166.998 214.982C167.006 214.899 167.006 214.815 166.998 214.732L166.587 211.214L166.587 210.732C166.587 210.456 166.555 210.187 166.494 209.929C165.464 198.282 163.584 160.847 178.284 137C197.802 105.339 229.802 100.303 248.302 100.303ZM340.643 213.53L340.123 213.616L339.933 215.214L339.873 215.625C339.82 215.945 339.796 216.314 339.773 216.682L339.762 216.851C339.758 216.919 339.753 216.986 339.748 217.053C339.023 224.437 337.766 231.757 335.988 238.955C338.388 238.847 340.629 237.623 342.016 235.607C343.735 233.252 344.017 230.142 342.748 227.517C342.211 226.689 342.446 225.582 343.275 225.044C344.103 224.507 345.211 224.743 345.748 225.571C347.598 229.133 347.473 233.398 345.418 236.845C343.363 240.293 339.671 242.432 335.659 242.5C335.46 242.513 335.261 242.52 335.062 242.52L334.498 244.535C333.762 246.947 332.998 249.344 332.204 251.703C339.594 252.363 346.754 249.003 350.973 242.933L351.302 242.446C355.205 236.917 356.538 229.975 354.962 223.392C354.069 219.691 351.631 216.55 348.266 214.767C347.525 214.409 346.754 214.116 345.962 213.892C344.423 213.462 342.821 213.318 341.236 213.462L340.643 213.53ZM153.302 213.982C154.594 213.567 155.944 213.357 157.288 213.355L157.858 213.363C158.449 213.382 159.039 213.44 159.623 213.535L159.766 214.778C159.798 215.043 159.83 215.258 159.862 215.424L159.903 215.884C159.908 215.928 159.914 215.972 159.919 216.015C159.931 216.109 159.944 216.202 159.957 216.294C159.996 216.583 160.034 216.854 160.034 217.089C160.248 219.071 160.48 221.017 160.748 222.928C160.739 222.975 160.739 223.024 160.748 223.071C161.447 228.403 162.446 233.691 163.741 238.91C161.181 238.928 158.757 237.683 157.284 235.553C155.583 233.192 155.303 230.092 156.552 227.464C157.086 226.64 156.855 225.539 156.034 225C155.636 224.737 155.151 224.644 154.685 224.741C154.219 224.839 153.811 225.118 153.552 225.517C151.68 229.098 151.806 233.395 153.883 236.86C155.96 240.326 159.69 242.462 163.73 242.5C164.045 242.505 164.359 242.495 164.672 242.469L164.672 242.466L164.909 242.446C164.83 242.455 164.751 242.462 164.672 242.469C164.859 243.147 165.051 243.824 165.248 244.5C165.98 246.928 166.73 249.303 167.516 251.642C159.912 252.349 152.541 248.797 148.355 242.41L147.977 241.851C144.401 236.397 143.237 229.695 144.784 223.339C145.676 219.622 148.13 216.471 151.516 214.696C152.095 214.42 152.692 214.181 153.302 213.982Z" fill="#372168"/>
<path fill-rule="evenodd" clip-rule="evenodd" d="M430.837 432.821C424.296 427.042 417.324 421.77 409.98 417.053C409.444 416.705 408.764 416.67 408.194 416.96C407.625 417.251 407.254 417.822 407.221 418.46C407.188 419.098 407.498 419.705 408.034 420.053C415.224 424.672 422.053 429.83 428.462 435.482C428.785 435.775 429.204 435.94 429.641 435.946C430.154 435.945 430.642 435.724 430.98 435.339C431.635 434.604 431.571 433.477 430.837 432.821ZM164.909 242.446C164.83 242.455 164.751 242.462 164.672 242.469L164.672 242.466L164.909 242.446Z" fill="#372168"/>
<path d="M260.391 295.617C259.89 295.62 259.411 295.39 259.07 294.982C256.579 292.661 253.388 291.477 250.141 291.668C246.915 291.473 243.738 292.603 241.213 294.843C240.78 295.412 240.097 295.664 239.443 295.495C238.79 295.325 238.277 294.764 238.116 294.04C237.954 293.317 238.171 292.554 238.677 292.065C245.457 286.174 254.998 286.256 261.695 292.263C262.189 292.84 262.326 293.688 262.042 294.419C261.758 295.15 261.108 295.621 260.391 295.617Z" fill="#372168"/>
<g style="mix-blend-mode:multiply" opacity="0.15">
<path fill-rule="evenodd" clip-rule="evenodd" d="M220.497 245.119C220.497 256.019 212.502 264.856 202.64 264.856C192.778 264.856 184.783 256.019 184.783 245.119C184.783 234.219 192.778 225.382 202.64 225.382C212.502 225.382 220.497 234.219 220.497 245.119ZM316.926 245.119C316.926 256.019 308.931 264.856 299.069 264.856C289.207 264.856 281.212 256.019 281.212 245.119C281.212 234.219 289.207 225.382 299.069 225.382C308.931 225.382 316.926 234.219 316.926 245.119Z" fill="#FF1300"/>
</g>
<path fill-rule="evenodd" clip-rule="evenodd" d="M250.979 96.1473C244.374 90.3458 230.79 86.5252 215.001 88.04C167.412 92.5935 138.447 139.397 135.269 187.076C133.965 206.665 136.483 228.361 145.662 260.504C149.925 274.908 148.287 290.416 141.108 303.611C138.661 308.15 135.355 312.171 131.376 315.451C129.394 317.04 130.126 320.308 132.162 321.826C139.201 327.058 147.197 330.862 155.697 333.022C155.697 333.022 162.269 330.879 161.055 317.504C161.055 317.504 169.072 326.308 166.412 334.611C174.822 334.343 191.608 333.022 197.322 326.558V298.844C183.856 279.524 175.838 256.937 174.108 233.451C166.108 166.344 192.805 144.094 221.019 143.486C246.766 142.932 250.504 126.675 250.961 123.836C251.428 126.676 255.221 142.913 280.912 143.486C285.444 143.636 289.909 144.636 294.072 146.433C304.928 151.164 314.363 158.642 321.447 168.129C327.511 176.225 331.889 185.455 334.322 195.272C335.984 201.016 337.237 206.87 338.072 212.79C342.36 211.346 347.042 211.628 351.126 213.576C351.575 213.779 352.011 214.012 352.43 214.272C352.535 214.321 352.632 214.387 352.715 214.469C352.707 214.433 352.707 214.397 352.715 214.361C377.19 117.462 305.312 76.5111 250.979 96.1473ZM358.287 320.593C351.019 328.326 322.572 337.308 305.322 327.111V300.736C307.728 297.294 309.934 293.717 311.93 290.022C317.518 281.931 322.184 273.24 325.84 264.111C325.92 263.918 326 263.726 326.079 263.534C326.374 262.824 326.666 262.12 326.947 261.361C327.531 259.802 328.126 258.23 328.733 256.647C334.925 258.145 341.449 257.358 347.108 254.433C345.162 270.308 344.18 284.308 345.697 291.826C348.912 307.808 353.751 313.468 357.323 315.379C358.279 315.822 358.961 316.701 359.152 317.737C359.344 318.773 359.021 319.838 358.287 320.593Z" fill="#FFD87A"/>
<path fill-rule="evenodd" clip-rule="evenodd" d="M252.144 90.6646C250.5 84.6821 246.944 79.4017 242.019 75.6289C241.499 75.2589 240.821 75.1943 240.241 75.4596C239.66 75.7249 239.266 76.2797 239.205 76.915C239.145 77.5503 239.428 78.1696 239.948 78.5396L240.435 78.9304C241.884 80.1375 246.179 84.0792 248.183 89.9438C239.731 85.3777 227.305 83.2693 214.573 84.486C191.251 86.7182 170.823 98.736 155.537 119.254C141.787 137.7 133.287 161.7 131.626 186.843C130.198 208.272 133.34 230.593 142.144 261.486L142.395 262.368C146.047 275.614 144.442 289.773 137.894 301.879C135.66 305.983 132.66 309.62 129.055 312.593C127.414 313.925 126.489 315.946 126.555 318.057C126.631 320.649 127.879 323.066 129.948 324.629C137.364 330.148 145.791 334.158 154.751 336.432C155.394 336.611 156.073 336.611 156.715 336.432C159.786 335.168 162.157 332.634 163.215 329.486C163.454 330.832 163.368 332.215 162.965 333.522L162.882 333.826C162.651 334.849 162.88 335.928 163.519 336.772C164.194 337.671 165.252 338.2 166.376 338.2L166.483 338.111C178.34 337.79 193.787 335.825 199.965 328.861C200.544 328.205 200.861 327.36 200.858 326.486V298.772C200.862 298.023 200.631 297.292 200.198 296.682C187.203 277.922 179.432 256.043 177.68 233.29V232.968C173.733 199.986 178.198 174.986 190.59 160.7C198.318 151.954 209.437 146.957 221.108 146.986C238.532 146.654 246.95 139.405 250.976 133.095C254.958 139.387 263.356 146.674 280.93 147.057C285.014 147.208 289.034 148.117 292.787 149.736C303.053 154.236 311.979 161.317 318.698 170.29C324.484 178.003 328.656 186.803 330.965 196.165C332.562 201.69 333.755 207.324 334.537 213.022C334.605 214.123 335.178 215.13 336.089 215.752C337 216.373 338.148 216.539 339.198 216.2C342.611 215.024 346.35 215.236 349.608 216.79C349.923 216.929 350.227 217.09 350.519 217.272L350.979 217.561C351.518 217.865 352.129 218.025 352.751 218.022C353.3 218.028 353.842 217.912 354.34 217.682C355.352 217.191 356.074 216.251 356.287 215.147L356.736 213.328C371.184 153.58 348.457 122.082 333.501 108.557C313.009 90.02 283.265 83.3623 256.131 90.8237C257.936 87.4818 259.807 83.6718 260.162 81.6468C260.245 81.1802 260.139 80.6998 259.868 80.3113C259.597 79.9228 259.182 79.658 258.715 79.5753C258.246 79.4926 257.764 79.6007 257.375 79.8757C256.986 80.1507 256.723 80.5697 256.644 81.0396C255.49 84.3987 253.982 87.6252 252.144 90.6646ZM350.608 254.879C350.771 253.552 350.178 252.245 349.072 251.493C347.966 250.741 346.533 250.669 345.358 251.307L344.741 251.608C339.984 253.839 334.595 254.368 329.483 253.093C327.743 252.691 325.973 253.637 325.34 255.307L324.894 256.504C324.727 256.966 324.547 257.458 324.369 257.94L323.573 260.075C323.233 260.968 322.876 261.861 322.501 262.754L321.822 264.414C318.368 272.69 314.059 280.584 308.965 287.968L308.751 288.307C306.822 291.854 304.694 295.288 302.376 298.593C301.949 299.193 301.719 299.91 301.715 300.647V327.04C301.723 328.308 302.403 329.477 303.501 330.111C309.909 333.632 317.138 335.389 324.448 335.2C339.698 335.2 355.18 329.04 360.733 322.968L360.997 322.679C362.267 321.199 362.829 319.229 362.519 317.29C362.183 315.14 360.862 313.27 358.948 312.236C357.073 311.236 352.376 307.2 349.144 291.129L349.072 290.758C347.983 284.843 348.365 274.108 350.233 258.024L350.608 254.879ZM215.233 91.7718C168.894 96.1825 141.68 143.254 138.733 187.486C137.382 207.679 140.323 228.872 148.538 258.108L148.983 259.682C153.479 275.006 151.727 291.486 144.108 305.522C141.474 310.396 137.935 314.723 133.68 318.272C133.743 318.611 133.927 318.915 134.198 319.129C140.455 323.794 147.52 327.263 155.037 329.361L155.215 329.176C156.273 328.022 158.053 325.02 157.412 318.004C157.28 316.486 158.127 315.052 159.519 314.432C159.964 314.163 160.465 313.998 160.983 313.95H161.019C161.912 313.948 162.77 314.281 163.426 314.876L163.662 315.111C163.983 315.45 170.376 322.575 170.519 330.843C173.961 330.623 177.139 330.272 179.996 329.804C181.702 316.966 179.029 303.891 172.358 292.718C171.801 291.905 172.009 290.793 172.823 290.236C173.636 289.679 174.747 289.887 175.305 290.7C182.356 302.222 185.317 315.735 183.793 329.071C188.309 328.05 191.73 326.681 193.733 325.04V300.04C180.252 280.415 172.239 257.554 170.519 233.807C166.323 198.307 171.233 172.182 185.162 156.147C194.193 145.891 207.211 140.033 220.876 140.075C244.305 139.575 247.126 125.093 247.376 123.361V98.0575C241.555 93.7896 229.805 90.361 215.233 91.7718ZM331.019 260.682C334.978 261.184 338.997 260.923 342.858 259.915C341.108 275.772 340.912 286.218 342.18 292.522L342.36 293.4C345.157 306.766 349.576 315.196 355.465 318.29C352.639 321.1 346.02 324.28 338.17 326.21C334.472 321.309 326.755 308.512 326.537 286.843C326.537 285.857 325.737 285.057 324.751 285.057L324.543 285.069C323.655 285.173 322.965 285.927 322.965 286.843C323.209 307.232 329.65 320.095 333.914 326.399L334.347 327.028C325.788 328.589 316.326 328.498 308.894 324.897V301.772C311.086 298.587 313.113 295.291 314.965 291.897C320.655 283.632 325.41 274.763 329.144 265.45L329.295 265.087C329.637 264.265 329.975 263.452 330.287 262.611L331.019 260.682ZM157.805 198.861C158.791 198.861 159.59 199.661 159.59 200.647C159.59 205.04 159.93 209.7 160.376 214.468C160.469 215.449 159.75 216.32 158.769 216.415L158.608 216.361C157.688 216.366 156.915 215.67 156.823 214.754C156.376 209.897 156.108 205.147 156.019 200.647C156.019 199.661 156.819 198.861 157.805 198.861ZM254.59 123.218V98.736C280.287 90.361 309.037 96.1825 328.68 113.879C342.269 126.165 362.805 154.718 350.305 209.397C349.457 209.109 348.592 208.879 347.714 208.709C350.548 183.856 343.054 166.605 340.936 162.319L340.412 161.307C340.093 160.752 339.502 160.41 338.862 160.408C338.222 160.407 337.629 160.748 337.308 161.301C336.987 161.855 336.986 162.538 337.305 163.093C337.408 163.265 347.23 181.245 344.161 208.33L343.805 208.325V208.307C342.909 208.315 342.015 208.374 341.126 208.486C340.583 205.466 339.668 201.332 338.381 196.235L337.608 193.213C335.001 183.372 330.522 174.121 324.412 165.968C316.929 156.004 306.993 148.148 295.573 143.165C290.995 141.194 286.089 140.098 281.108 139.932C258.883 139.443 255.189 126.37 254.655 123.594L254.59 123.218ZM232.765 117.249C233.402 117.305 233.96 117.697 234.23 118.276C234.499 118.855 234.439 119.534 234.073 120.057L233.661 120.625C229.812 125.77 222.128 131.741 207.026 132.283L206.18 132.307C178.358 132.897 161.43 154.379 159.751 191.236C159.665 192.094 158.982 192.757 158.143 192.836L157.84 192.844C156.889 192.796 156.143 192.01 156.144 191.057C158.654 136.254 191.198 129.16 205.71 128.729L206.144 128.718C220.858 128.397 227.894 122.7 231.144 118.004C231.511 117.481 232.129 117.193 232.765 117.249ZM322.172 134.932C322.172 134.456 321.982 134 321.644 133.665C296.525 109.582 268.769 113.079 263.546 114.003L262.715 114.165C262.077 114.302 261.561 114.769 261.361 115.39C261.161 116.011 261.307 116.692 261.745 117.176C262.183 117.66 262.845 117.873 263.483 117.736C263.487 117.735 263.496 117.734 263.51 117.731C264.562 117.527 293.68 111.883 319.251 136.343C319.582 136.662 320.024 136.841 320.483 136.843C320.938 136.786 321.354 136.556 321.644 136.2C321.982 135.865 322.172 135.409 322.172 134.932Z" fill="#372168"/>
<path d="M257.551 260.409H243.265C241.539 260.409 240.14 259.01 240.14 257.284C240.14 255.558 241.539 254.159 243.265 254.159H257.551C259.277 254.159 260.676 255.558 260.676 257.284C260.676 259.01 259.277 260.409 257.551 260.409Z" fill="#372168"/>
<path d="M250.806 241.583C246.906 241.635 243.239 239.732 241.038 236.512C240.101 235.062 240.517 233.127 241.967 232.19C243.417 231.253 245.351 231.669 246.288 233.119C247.375 234.533 249.063 235.354 250.846 235.336C252.629 235.319 254.301 234.465 255.36 233.03C256.257 231.55 258.184 231.079 259.663 231.976C261.143 232.873 261.614 234.8 260.717 236.28C258.556 239.646 254.806 241.653 250.806 241.583Z" fill="#372168"/>
<path d="M288.008 220.089C295.919 220.089 295.937 207.768 288.008 207.768C280.079 207.768 280.062 220.089 288.008 220.089Z" fill="#372168"/>
<path d="M214.847 220.089C222.776 220.089 222.793 207.768 214.847 207.768C206.901 207.768 206.901 220.089 214.847 220.089Z" fill="#372168"/>
<path d="M304.212 202.911C303.934 202.91 303.658 202.874 303.39 202.804C293.476 200.681 283.369 199.585 273.229 199.536C271.257 199.536 269.658 197.937 269.658 195.964C269.658 193.992 271.257 192.393 273.229 192.393C283.923 192.423 294.584 193.585 305.033 195.857C306.811 196.262 307.998 197.942 307.787 199.753C307.576 201.564 306.035 202.925 304.212 202.911Z" fill="#372168"/>
<path d="M198.64 202.911C196.817 202.925 195.275 201.564 195.064 199.753C194.853 197.942 196.041 196.262 197.819 195.857C208.268 193.585 218.929 192.423 229.622 192.393C231.595 192.393 233.194 193.992 233.194 195.964C233.194 197.937 231.595 199.536 229.622 199.536C219.483 199.582 209.376 200.677 199.462 202.804C199.193 202.874 198.917 202.91 198.64 202.911Z" fill="#372168"/>
<path fill-rule="evenodd" clip-rule="evenodd" d="M233.033 48.8214H267.087C311.674 48.8214 347.819 84.9664 347.819 129.553H152.283C152.283 84.9664 188.428 48.8214 233.015 48.8214L233.033 48.8214Z" fill="#BA8C84"/>
<path fill-rule="evenodd" clip-rule="evenodd" d="M152.283 133.125H347.837C349.809 133.125 351.408 131.526 351.408 129.553C351.349 83.0114 313.629 45.2991 267.087 45.2499H233.033C186.491 45.2991 148.771 83.0114 148.712 129.553C148.712 131.526 150.311 133.125 152.283 133.125ZM344.176 125.982H155.944C157.869 84.7921 191.798 52.3716 233.033 52.3213H267.087C308.321 52.3716 342.251 84.7921 344.176 125.982Z" fill="#372168"/>
<rect x="138.587" y="129.572" width="221.375" height="43.9643" rx="7.56" fill="#FF6666"/>
<path fill-rule="evenodd" clip-rule="evenodd" d="M152.087 177.089H346.479C355.904 177.079 363.541 169.442 363.551 160.018V143.053C363.541 133.629 355.904 125.992 346.479 125.982H152.087C142.665 125.992 135.033 133.632 135.033 143.053V160.018C135.033 169.439 142.665 177.079 152.087 177.089ZM142.176 143.053C142.186 137.581 146.614 133.145 152.087 133.125H346.479C351.959 133.135 356.398 137.574 356.408 143.053V160.018C356.398 165.497 351.959 169.936 346.479 169.946H152.087C146.61 169.936 142.176 165.494 142.176 160.018V143.053Z" fill="#372168"/>
<path d="M339.533 164.554C338.547 164.554 337.747 163.754 337.747 162.768C337.747 161.782 338.547 160.982 339.533 160.982C343.129 160.972 346.041 158.06 346.051 154.464C346.051 153.478 346.85 152.679 347.837 152.679C348.823 152.679 349.622 153.478 349.622 154.464C349.612 160.032 345.101 164.544 339.533 164.554Z" fill="#372168"/>
<path d="M305.39 132.179H305.301C304.327 132.084 303.611 131.225 303.694 130.25C305.586 112.405 301.952 94.4088 293.283 78.6965C292.801 77.8383 293.105 76.7522 293.961 76.2679C294.376 76.038 294.865 75.9822 295.32 76.1129C295.776 76.2435 296.16 76.5498 296.39 76.9643C305.409 93.2886 309.199 111.988 307.247 130.536C307.171 131.494 306.35 132.22 305.39 132.179Z" fill="#372168"/>
<path d="M249.212 131.339C248.225 131.339 247.426 130.54 247.426 129.553V48.7499C247.426 47.7637 248.225 46.9642 249.212 46.9642C250.198 46.9642 250.997 47.7637 250.997 48.7499V129.482C251.017 129.968 250.837 130.441 250.5 130.791C250.163 131.142 249.698 131.34 249.212 131.339Z" fill="#372168"/>
<path d="M288.39 69.75C287.822 69.7556 287.285 69.4904 286.944 69.0357C281.353 61.4002 274.477 54.7958 266.622 49.5178C265.922 48.9663 265.736 47.9831 266.186 47.2138C266.636 46.4445 267.584 46.1246 268.408 46.4643C276.717 51.9426 283.975 58.8679 289.837 66.9107C290.119 67.2918 290.238 67.7695 290.168 68.2385C290.097 68.7075 289.843 69.1292 289.462 69.4107C289.15 69.6362 288.775 69.7551 288.39 69.75Z" fill="#372168"/>
<path d="M197.39 132.178C196.457 132.181 195.679 131.466 195.604 130.536C192.155 97.5391 207.003 65.2935 234.319 46.4641C234.866 46.0327 235.615 45.9593 236.236 46.2762C236.857 46.5932 237.236 47.2425 237.208 47.939C237.18 48.6356 236.749 49.252 236.104 49.5177C209.956 67.6447 195.777 98.5911 199.122 130.232C199.205 131.213 198.478 132.075 197.497 132.161L197.39 132.178Z" fill="#372168"/>
</g>
<path fill-rule="evenodd" clip-rule="evenodd" d="M0 250C0 111.929 111.929 0 250 0C388.071 0 500 111.929 500 250C500 388.071 388.071 500 250 500C111.929 500 0 388.071 0 250ZM492.857 250C492.857 115.874 384.126 7.14286 250 7.14286C115.874 7.14286 7.14286 115.874 7.14286 250C7.14286 384.126 115.874 492.857 250 492.857C384.126 492.857 492.857 384.126 492.857 250Z" fill="#372168"/>
</svg>
