<svg width="500" height="500" viewBox="0 0 500 500" fill="none" xmlns="http://www.w3.org/2000/svg">
<path fill-rule="evenodd" clip-rule="evenodd" d="M250 496.429C386.099 496.429 496.429 386.099 496.429 250C496.429 113.901 386.099 3.57144 250 3.57144C113.901 3.57144 3.57153 113.901 3.57153 250C3.57153 386.099 113.901 496.429 250 496.429Z" fill="#E7EEFF"/>
<mask id="mask0_0_275" style="mask-type:alpha" maskUnits="userSpaceOnUse" x="3" y="3" width="494" height="494">
<path fill-rule="evenodd" clip-rule="evenodd" d="M250 496.429C386.099 496.429 496.429 386.099 496.429 250C496.429 113.901 386.099 3.57144 250 3.57144C113.901 3.57144 3.57153 113.901 3.57153 250C3.57153 386.099 113.901 496.429 250 496.429Z" fill="white"/>
</mask>
<g mask="url(#mask0_0_275)">
<path fill-rule="evenodd" clip-rule="evenodd" d="M336.74 210.585C337.919 197.482 339.687 159.822 324.533 135.107C306.015 105.089 275.623 96.321 249.926 96.7317C224.212 96.321 193.819 105.089 175.301 135.107C160.033 159.892 161.855 197.696 163.033 210.696C163.025 210.845 163.025 210.994 163.033 211.142C163.283 213.732 163.498 215.232 163.498 215.232C163.512 215.432 163.538 215.632 163.563 215.832C163.602 216.132 163.641 216.432 163.641 216.732C163.783 218.089 163.944 219.428 164.105 220.732C165.039 228.433 166.592 236.047 168.748 243.5L169.98 247.41C170.748 249.839 171.569 252.214 172.39 254.553C172.98 256.125 173.587 257.714 174.176 259.25C174.465 260.043 174.765 260.766 175.067 261.494L175.07 261.501C175.109 261.596 175.148 261.691 175.188 261.786C175.22 261.863 175.251 261.94 175.283 262.017C180.269 274.629 187.251 286.356 195.962 296.75L196.051 296.853V358.821C197.462 367.91 221.051 375.053 249.998 375.053C278.944 375.053 302.533 367.875 303.944 358.821V296.623L304.033 296.517C312.675 286.19 319.603 274.542 324.551 262.017C324.734 261.539 324.916 261.095 325.097 260.656C325.287 260.193 325.475 259.735 325.658 259.25C326.174 257.946 326.677 256.603 327.177 255.265L327.179 255.261L327.444 254.553L327.464 254.493C336.162 256.464 347.548 254.592 354.301 244.285C363.158 230.785 359.158 215.91 349.694 211.41C345.646 209.46 340.999 209.165 336.74 210.585ZM300.158 300.839L300.316 300.674C300.394 300.593 300.471 300.512 300.547 300.431C300.435 300.562 300.323 300.692 300.212 300.821C295.684 305.617 290.614 309.872 285.105 313.5C280.354 316.719 275.207 319.25 269.817 321.044C275.188 319.251 280.316 316.726 285.051 313.517C290.56 309.89 295.63 305.635 300.158 300.839Z" fill="#DD9488"/>
<path d="M145.426 244.357C152.194 254.714 163.658 256.553 172.373 254.535C171.087 250.964 169.837 247.279 168.623 243.482C166.636 236.637 165.168 229.653 164.23 222.589C163.962 220.678 163.73 218.732 163.516 216.75C163.442 216.252 163.394 215.752 163.373 215.25C163.373 215.25 163.194 214.125 162.998 212.142C162.908 211.839 162.908 211.5 162.908 211.16C162.9 211.006 162.9 210.851 162.908 210.696C159.436 209.548 155.693 209.504 152.194 210.571C151.413 210.823 150.649 211.128 149.908 211.482C140.551 215.91 136.498 230.785 145.426 244.357Z" fill="#DD9488"/>
<path d="M47.8729 424.411C82.0515 393.911 136.891 375.482 171.087 365.589L172.426 365.196C182.551 362.268 190.766 360.125 195.926 358.661C197.337 367.714 220.926 374.893 249.855 374.893C278.784 374.893 302.391 367.75 303.819 358.661H304.105C309.212 360.125 317.355 362.232 327.409 365.143L328.623 365.5C362.748 375.375 417.677 393.821 451.944 424.429C469.763 440.386 488.571 473.662 504.789 508.036H-5.00732C11.2117 473.626 30.0332 440.311 47.8729 424.411Z" fill="#FFC28F"/>
<g style="mix-blend-mode:soft-light" opacity="0.4">
<path d="M282.694 393.25C271.915 395.66 260.9 396.858 249.855 396.821C213.319 396.821 182.301 384.696 171.069 365.786L172.409 365.393C182.534 362.464 190.748 360.321 195.909 358.857C197.319 367.911 220.909 375.089 249.837 375.089C278.766 375.089 302.373 367.946 303.801 358.857H304.087C309.194 360.321 317.337 362.428 327.391 365.339L328.605 365.696C323.087 375.053 312.748 382.75 299.284 388.143" fill="white"/>
</g>
<g style="mix-blend-mode:soft-light" opacity="0.4">
<path d="M282.694 393.25C271.915 395.66 260.9 396.858 249.855 396.821C213.319 396.821 182.301 384.696 171.069 365.786L172.409 365.393C182.534 362.464 190.748 360.321 195.909 358.857C197.319 367.911 220.909 375.089 249.837 375.089C278.766 375.089 302.373 367.946 303.801 358.857H304.087C309.194 360.321 317.337 362.428 327.391 365.339L328.605 365.696C323.087 375.053 312.748 382.75 299.284 388.143" fill="white"/>
</g>
<g style="mix-blend-mode:multiply" opacity="0.15">
<path fill-rule="evenodd" clip-rule="evenodd" d="M300.426 300.464V350.089C252.212 350.911 216.284 327.643 199.444 313.928V300.643L199.641 300.857C204.169 305.648 209.239 309.897 214.748 313.518C224.614 320.205 236.19 323.924 248.105 324.232H251.587C263.508 323.927 275.091 320.209 284.962 313.518C290.474 309.886 295.549 305.632 300.087 300.839L300.426 300.464Z" fill="#7C3830"/>
</g>
<path fill-rule="evenodd" clip-rule="evenodd" d="M251.152 93.1641L249.962 93.1781C230.373 92.821 194.195 97.6424 172.23 133.25C158.439 155.629 157.983 187.506 159.001 204.934L159.087 206.315C156.403 206.103 153.687 206.402 151.087 207.214C150.176 207.524 149.282 207.882 148.409 208.285C143.178 210.957 139.352 215.753 137.909 221.446C135.765 230.012 137.425 239.087 142.462 246.339C147.607 254.317 156.526 259.05 166.016 258.839L167.028 258.822C168.04 258.79 169.049 258.71 170.053 258.583L170.784 260.5C171.159 261.464 171.534 262.41 171.927 263.357C176.861 275.85 183.709 287.497 192.223 297.879L192.355 298.037V356.098L188.07 357.285C184.085 358.363 179.226 359.688 173.755 361.258L171.373 361.946L170.07 362.321C112.48 379.053 71.7303 398.464 45.4624 421.91C27.0202 438.376 7.74652 472.482 -8.92847 508.036H508.881C483.311 453.62 464.735 431.125 454.427 421.91C428.683 398.928 389.049 379.743 333.434 363.317L330.247 362.382C330.132 362.332 330.013 362.288 329.891 362.25L328.605 361.875C325.415 360.96 322.417 360.117 319.645 359.348L312.909 357.5L307.515 356.003L307.516 297.952C316.05 287.568 322.913 275.914 327.855 263.41C328.248 262.464 328.641 261.517 328.998 260.553L329.739 258.58C331.062 258.749 332.395 258.836 333.73 258.839C343.241 259.023 352.163 254.248 357.284 246.232L357.707 245.605C362.405 238.451 363.912 229.648 361.837 221.321C360.389 215.644 356.571 210.864 351.355 208.196C350.249 207.67 349.103 207.234 347.927 206.892C345.562 206.254 343.118 206.029 340.701 206.217C341.81 189.108 341.672 156.189 327.552 133.25C306.027 98.3545 270.902 93.0433 251.152 93.1641ZM269.785 377.57C290.132 375.225 302.072 369.286 306.105 363.035L311.034 364.392C313.25 364.995 315.69 365.662 318.34 366.399L323.087 367.732C317.695 374.535 309.195 380.375 298.177 384.803L297.901 384.917C296.821 385.417 296.055 386.427 295.873 387.616C295.675 388.904 296.195 390.197 297.228 390.99C298.261 391.784 299.644 391.951 300.837 391.428C314.193 386.063 324.337 378.648 330.398 369.848C384.808 385.824 424.936 405.127 449.677 427.214C465.577 441.411 482.459 470.211 497.431 500.893H2.49737C17.4299 470.292 34.336 441.409 50.266 427.214C74.4285 405.681 113.294 386.761 165.956 370.963L169.568 369.891C182.446 388.485 213.533 400.357 249.945 400.357C261.28 400.389 272.583 399.15 283.641 396.66C285.564 396.221 286.767 394.307 286.328 392.383C285.89 390.46 283.975 389.257 282.052 389.696C271.53 392.045 260.778 393.201 249.998 393.142C217.212 393.142 189.32 383.303 176.962 367.75L193.989 363.121C199.242 371.156 217.533 378.642 249.945 378.642C257.277 378.642 263.886 378.258 269.785 377.57ZM287.016 316.535C276.567 323.572 264.324 327.476 251.73 327.785H247.962C235.4 327.452 223.195 323.536 212.784 316.5C208.036 313.372 203.599 309.801 199.532 305.836L199.502 357.824C199.552 357.974 199.592 358.128 199.623 358.285C200.471 363.724 219.636 371.311 249.021 371.479L249.909 371.482C277.046 371.482 295.707 365.162 299.621 359.87C300.017 359.328 300.258 358.797 300.337 358.285L300.339 305.787C296.253 309.785 291.792 313.384 287.016 316.535ZM248.302 100.303L251.078 100.276C269.308 100.221 301.704 105.044 321.409 136.964C335.694 160.156 334.322 196.162 333.288 208.864L333.159 210.357V210.553L336.519 210.837H336.135L333.159 210.75C332.989 212.542 332.828 213.769 332.755 214.332L332.754 214.335C332.745 214.403 332.738 214.461 332.732 214.509C332.719 214.605 332.712 214.662 332.712 214.678V214.928C332.699 215.09 332.68 215.249 332.659 215.411C332.624 215.694 332.587 215.984 332.587 216.303C331.714 225.137 330.046 233.875 327.605 242.41C326.48 246.089 325.284 249.767 324.034 253.232L323.587 254.428C323.373 255.053 323.128 255.723 322.893 256.348L322.266 258C321.927 258.892 321.57 259.785 321.195 260.678C316.39 272.852 309.662 284.174 301.266 294.214L301.541 293.875C301.492 293.92 301.444 293.966 301.397 294.014C301.34 294.073 301.284 294.133 301.23 294.196C299.909 295.75 298.695 297.125 297.48 298.375L296.471 299.426C292.398 303.594 287.887 307.313 283.016 310.517L282.167 311.082L281.308 311.633C276.362 314.645 271.646 316.663 267.437 318.012C262.324 319.601 256.993 320.493 251.587 320.642H248.105C239.347 320.394 230.786 318.201 223.029 314.26C220.856 313.154 218.746 311.911 216.712 310.535C211.443 307.054 206.59 302.98 202.248 298.392C201.159 297.232 199.98 295.946 198.677 294.428C190.21 284.318 183.426 272.91 178.587 260.642C178.23 259.768 177.873 258.892 177.516 257.982C176.891 256.464 176.284 254.892 175.73 253.375L175.58 252.944L175.579 252.941L175.578 252.938L175.576 252.932C175.575 252.929 175.574 252.926 175.573 252.923C175.106 251.586 174.635 250.237 174.178 248.878L173.355 246.357C172.945 245.071 172.534 243.785 172.141 242.5C170.036 235.233 168.513 227.811 167.587 220.303C167.427 219.017 167.266 217.696 167.123 216.357C166.998 215.892 166.998 215.446 166.998 214.982C167.006 214.899 167.006 214.815 166.998 214.732L166.587 211.214L166.587 210.732C166.587 210.456 166.556 210.187 166.494 209.929C165.464 198.282 163.584 160.847 178.284 137C197.802 105.339 229.802 100.303 248.302 100.303ZM340.643 213.53L340.123 213.616L339.933 215.214L339.873 215.625C339.82 215.945 339.796 216.314 339.773 216.682L339.762 216.851C339.758 216.919 339.753 216.986 339.748 217.053C339.023 224.437 337.766 231.757 335.988 238.955C338.388 238.847 340.629 237.623 342.016 235.607C343.735 233.252 344.017 230.142 342.748 227.517C342.211 226.689 342.447 225.582 343.275 225.044C344.103 224.507 345.211 224.743 345.748 225.571C347.598 229.133 347.473 233.398 345.418 236.845C343.364 240.293 339.672 242.432 335.659 242.5C335.46 242.513 335.261 242.52 335.062 242.52L334.498 244.535C333.762 246.947 332.998 249.344 332.204 251.703C339.594 252.363 346.755 249.003 350.974 242.933L351.302 242.446C355.205 236.917 356.539 229.975 354.962 223.392C354.07 219.691 351.631 216.55 348.266 214.767C347.525 214.409 346.754 214.116 345.962 213.892C344.423 213.462 342.821 213.318 341.236 213.462L340.643 213.53ZM153.302 213.982C154.595 213.567 155.944 213.357 157.289 213.355L157.858 213.363C158.449 213.382 159.039 213.44 159.623 213.535L159.766 214.778C159.798 215.043 159.83 215.258 159.862 215.424L159.904 215.884C159.909 215.928 159.914 215.972 159.919 216.015C159.931 216.109 159.944 216.202 159.957 216.294C159.996 216.583 160.034 216.854 160.034 217.089C160.248 219.071 160.48 221.017 160.748 222.928C160.739 222.975 160.739 223.024 160.748 223.071C161.447 228.403 162.446 233.691 163.741 238.91C161.181 238.928 158.757 237.683 157.284 235.553C155.584 233.192 155.303 230.092 156.552 227.464C157.086 226.64 156.855 225.539 156.034 225C155.637 224.737 155.151 224.644 154.685 224.741C154.219 224.839 153.811 225.118 153.552 225.517C151.681 229.098 151.806 233.395 153.883 236.86C155.96 240.326 159.69 242.462 163.73 242.5C164.045 242.505 164.359 242.495 164.672 242.469L164.672 242.466L164.909 242.446C164.83 242.455 164.751 242.462 164.672 242.469C164.859 243.147 165.051 243.824 165.248 244.5C165.98 246.928 166.73 249.303 167.516 251.642C159.913 252.349 152.541 248.797 148.355 242.41L147.977 241.851C144.401 236.397 143.237 229.695 144.784 223.339C145.676 219.622 148.13 216.471 151.516 214.696C152.095 214.42 152.692 214.181 153.302 213.982Z" fill="#372168"/>
<path fill-rule="evenodd" clip-rule="evenodd" d="M430.837 432.821C424.297 427.042 417.324 421.77 409.98 417.053C409.444 416.705 408.764 416.67 408.195 416.96C407.626 417.251 407.255 417.822 407.221 418.46C407.188 419.098 407.498 419.705 408.034 420.053C415.224 424.672 422.053 429.83 428.462 435.482C428.785 435.775 429.205 435.94 429.641 435.946C430.154 435.945 430.642 435.724 430.98 435.339C431.635 434.604 431.571 433.477 430.837 432.821ZM164.909 242.446C164.83 242.455 164.751 242.462 164.672 242.469L164.672 242.466L164.909 242.446Z" fill="#372168"/>
<path d="M260.391 295.617C259.89 295.62 259.411 295.39 259.07 294.982C256.579 292.661 253.388 291.477 250.141 291.668C246.915 291.473 243.738 292.603 241.213 294.843C240.78 295.412 240.097 295.664 239.443 295.495C238.79 295.325 238.277 294.764 238.116 294.04C237.954 293.317 238.171 292.554 238.677 292.065C245.457 286.174 254.998 286.256 261.695 292.263C262.189 292.84 262.326 293.688 262.042 294.419C261.758 295.15 261.108 295.621 260.391 295.617Z" fill="#372168"/>
<g style="mix-blend-mode:multiply" opacity="0.15">
<path fill-rule="evenodd" clip-rule="evenodd" d="M220.497 245.119C220.497 256.019 212.503 264.856 202.64 264.856C192.778 264.856 184.783 256.019 184.783 245.119C184.783 234.219 192.778 225.382 202.64 225.382C212.503 225.382 220.497 234.219 220.497 245.119ZM316.926 245.119C316.926 256.019 308.931 264.856 299.069 264.856C289.207 264.856 281.212 256.019 281.212 245.119C281.212 234.219 289.207 225.382 299.069 225.382C308.931 225.382 316.926 234.219 316.926 245.119Z" fill="#FF1300"/>
</g>
<path fill-rule="evenodd" clip-rule="evenodd" d="M387.837 298.393L359.033 298.072C358.783 286.036 347.712 279.732 347.712 279.732C347.712 279.732 348.301 292.697 345.247 298.054L304.64 297.822C312.858 287.748 319.483 276.474 324.283 264.393C324.658 263.482 325.033 262.607 325.39 261.625C325.98 260.089 326.569 258.5 327.176 256.929C335.89 258.947 347.355 257.125 354.122 246.768C363.051 233.179 358.997 218.322 349.64 213.875C345.551 211.909 340.858 211.608 336.551 213.036C332.087 210.179 329.23 205.464 326.908 200.107C319.89 183.911 327.158 163.089 277.605 163.322C231.265 163.518 212.569 136.804 212.569 136.804C212.569 136.804 215.23 165.232 185.122 174.911C161.908 182.393 162.783 213.018 162.783 213.018C158.494 211.583 153.816 211.865 149.73 213.804C140.372 218.25 136.372 233.107 145.23 246.697C152.015 257.054 163.462 258.875 172.176 256.857C172.747 258.429 173.355 260.018 173.962 261.554C174.319 262.5 174.694 263.339 175.069 264.322C179.758 276.135 186.18 287.185 194.122 297.107L127.105 296.714C124.676 291.268 128.319 282.089 128.319 282.089C119.194 282.697 113.73 296.714 113.73 296.714C97.6582 271.589 121.444 263.5 114.801 233.322C108.158 203.143 124.087 191.072 132.069 179.75C140.051 168.429 140.694 161.625 140.694 161.625C143.301 129.054 158.247 108.697 174.247 96.0894C190.768 83.2326 211.136 76.3132 232.069 76.4465H268.444C289.388 76.3135 309.767 83.2324 326.301 96.0894C342.265 108.697 357.212 129.054 359.819 161.625C359.819 161.625 360.48 168.339 368.462 179.75C376.444 191.161 392.355 203.197 385.73 233.322C379.105 263.447 400.605 273.036 387.837 298.393Z" fill="#796BE6"/>
<path fill-rule="evenodd" clip-rule="evenodd" d="M247.518 64.395C247.631 63.8251 247.461 63.2294 247.05 62.805C246.589 62.3275 245.9 62.1456 245.263 62.3327C244.626 62.5199 244.145 63.0452 244.015 63.6964L241.712 72.3036C237.902 67.3961 232.558 63.9067 226.533 62.3929C225.547 62.2104 224.599 62.862 224.417 63.8482C224.235 64.8345 224.886 65.7819 225.872 65.9643C230.365 67.1989 234.394 69.6343 237.555 72.9616L230.816 72.9634C209.494 73.1019 188.799 80.2632 171.944 93.3572C151.087 109.696 139.355 132.643 137.051 161.214C137.051 161.266 136.256 166.948 129.819 176.553L129.051 177.679C128.158 178.954 127.147 180.257 126.063 181.613L123.298 185.053C115.348 195.038 105.659 208.879 111.23 234.125L111.42 235.027C113.593 245.768 111.59 253.369 109.155 260.417L107.476 265.153C104.179 274.519 101.516 284.449 110.64 298.679C111.369 299.802 112.665 300.423 113.997 300.287C115.329 300.152 116.474 299.283 116.962 298.036C118.361 294.622 120.356 291.483 122.855 288.768C122.304 291.935 122.618 295.193 123.765 298.196C124.333 299.477 125.596 300.308 126.997 300.321L194.015 300.714L194.308 300.702C195.567 300.597 196.686 299.831 197.235 298.676C197.826 297.434 197.65 295.962 196.783 294.893C189.065 285.238 182.824 274.489 178.265 263C178.112 262.61 177.959 262.229 177.806 261.849C177.602 261.341 177.398 260.834 177.194 260.304C177.032 259.877 176.868 259.447 176.703 259.014C176.301 257.965 175.895 256.902 175.515 255.839C175.3 255.14 174.884 254.519 174.319 254.054C173.464 253.375 172.346 253.126 171.283 253.375C163.872 255.071 153.926 253.679 148.069 244.75L147.691 244.19C144.117 238.736 142.953 232.035 144.497 225.679C145.39 221.972 147.828 218.826 151.194 217.036C154.463 215.478 158.212 215.26 161.64 216.429C162.747 216.774 163.952 216.561 164.872 215.857C165.791 215.16 166.316 214.063 166.283 212.911L166.283 212.892C166.275 212.039 166.023 184.786 186.14 178.304L186.993 178.023C203.313 172.501 210.371 161.662 213.408 153.464C214.389 150.858 215.107 148.16 215.551 145.411C224.533 153.696 244.158 167 277.551 166.839L279.681 166.839C312.1 167.035 316.762 176.624 319.748 188.212L320.408 190.875C321.182 194.493 322.269 198.036 323.658 201.464C325.712 206.286 328.872 212.304 334.64 215.982C335.575 216.584 336.737 216.716 337.783 216.339L338.351 216.165C341.586 215.248 345.05 215.527 348.104 216.964C351.473 218.76 353.911 221.913 354.801 225.625C356.365 232.207 355.032 239.145 351.14 244.679L350.788 245.197C344.84 253.699 335.139 255.072 327.926 253.321C326.866 253.083 325.756 253.339 324.908 254.018C324.375 254.438 323.972 255.002 323.747 255.643L322.99 257.725C322.746 258.388 322.499 259.049 322.285 259.619C322.186 259.881 322.095 260.124 322.015 260.339L321.67 261.241C321.436 261.837 321.194 262.429 320.944 263.036C316.307 274.789 309.886 285.757 301.908 295.554C301.023 296.617 300.831 298.095 301.416 299.349C302 300.603 303.257 301.406 304.64 301.411L345.247 301.643L345.541 301.632C346.708 301.541 347.763 300.881 348.354 299.857C350.133 295.925 351.093 291.672 351.176 287.357C353.804 290.324 355.319 294.111 355.462 298.071C355.462 300.044 357.061 301.643 359.033 301.643L387.837 301.965L388.12 301.958C389.341 301.879 390.446 301.178 391.033 300.089C397.817 286.603 395.621 276.81 392.727 267.596L391.89 264.982L391.759 264.565C389.083 256.086 386.295 247.251 389.176 234.25L389.372 233.329C394.807 207.095 383.777 193.44 375.695 183.434L375.676 183.411L373.694 180.911C372.847 179.844 372.051 178.824 371.337 177.804C364.419 167.926 363.405 161.896 363.34 161.471L363.234 160.234C360.701 132.036 349.007 109.608 328.462 93.3929C311.586 80.2824 290.867 73.109 269.52 72.9637L245.238 72.9621L247.518 64.395ZM232.015 80.0521L269.544 80.0527C289.285 80.1873 308.447 86.8073 324.069 98.9107C343.247 114.071 354.069 135.196 356.212 161.982C356.283 162.768 357.212 169.982 365.479 181.821C366.872 183.804 368.444 185.75 370.122 187.804L370.145 187.832C378.211 197.825 387.35 209.147 382.194 232.625L381.99 233.583C379.254 246.893 381.677 256.254 384.341 264.685L386.047 270.035C388.521 277.997 389.948 284.965 385.587 294.786L378.382 294.709C379.424 277.826 368.887 264.775 368.408 264.196L368.247 264.024C367.962 263.756 367.595 263.588 367.201 263.549C366.729 263.502 366.257 263.645 365.89 263.946C365.136 264.57 365.024 265.686 365.64 266.446L365.649 266.457C366.001 266.902 375.801 279.285 374.801 294.67L362.283 294.536C360.34 283.324 350.713 277.345 349.525 276.71L349.145 276.515C348.096 276.027 346.867 276.076 345.854 276.661C344.711 277.32 344.024 278.556 344.069 279.875C344.335 284.767 343.914 289.672 342.819 294.446L311.819 294.268C318.186 285.419 323.445 275.824 327.479 265.696C327.872 264.75 328.265 263.804 328.622 262.839L328.995 261.873L329.354 260.893C338.622 262.071 349.854 259.357 356.997 248.643C362.026 241.387 363.685 232.316 361.551 223.75C360.212 218.42 356.788 213.869 352.073 211.104C352.807 203.533 349.331 195.687 346.874 190.649L345.993 188.864C345.797 188.468 345.618 188.101 345.458 187.765L345.033 186.857C344.051 184.571 343.194 182.214 342.372 179.946L342.35 179.885C337.144 165.586 332.228 152.085 294.158 148.982L289.415 148.618C278.939 147.711 262.767 145.014 253.212 128.571C252.715 127.728 251.632 127.441 250.783 127.929C250.37 128.164 250.068 128.555 249.944 129.014C249.82 129.474 249.884 129.963 250.122 130.375C260.77 148.679 279.227 151.351 289.77 152.242L293.783 152.554C327.852 155.304 333.408 166.202 338.122 179.099L339.363 182.543C340.05 184.439 340.776 186.354 341.605 188.268C341.809 188.753 342.086 189.337 342.416 190.003L342.837 190.839L342.841 190.849C344.97 195.166 348.625 202.58 348.439 209.52C344.82 208.373 340.936 208.232 337.212 209.143C334.046 206.289 331.63 202.702 330.176 198.696C328.952 195.635 327.99 192.475 327.301 189.25C323.944 175.429 320.122 159.768 278.337 159.768H277.051C236.277 159.768 217.884 137.862 215.701 135.06L215.297 134.528C214.338 133.379 212.751 132.94 211.325 133.463C209.805 134.02 208.849 135.53 208.997 137.143C208.997 137.18 209 137.247 209.003 137.343C209.097 139.928 209.943 163.186 183.997 171.536L183.336 171.756C173.036 175.314 165.595 183.58 161.801 195.714C160.518 199.935 159.692 204.281 159.337 208.679C155.887 208.261 152.519 208.757 149.49 209.991C144.317 200.501 150.105 190.263 151.142 188.566L151.407 188.156C151.703 187.65 151.735 187.024 151.479 186.486C151.191 185.881 150.589 185.487 149.918 185.468C149.248 185.448 148.624 185.805 148.301 186.393C148.121 186.606 139.745 199.667 146.17 211.719C142.025 214.404 138.887 218.623 137.658 223.75C135.498 232.35 137.158 241.464 142.212 248.75L142.557 249.263C148.632 258.078 159.247 262.642 169.855 260.946C169.887 261.033 169.92 261.119 169.952 261.205C169.997 261.325 170.041 261.443 170.085 261.561C170.251 262.007 170.415 262.446 170.587 262.875C170.812 263.518 171.037 264.084 171.266 264.634L171.73 265.732C175.663 275.567 180.739 284.905 186.855 293.554L162.741 293.421C162.368 291.337 162.258 287.774 163.712 282.375C165.851 275.693 163.078 268.419 157.033 264.857C156.17 264.393 155.094 264.712 154.622 265.571C154.394 265.988 154.341 266.478 154.475 266.934C154.609 267.39 154.919 267.774 155.337 268L155.724 268.245C160.041 271.093 161.927 276.508 160.265 281.446C158.8 286.884 158.741 290.776 159.107 293.398L129.855 293.232C129.793 289.896 130.4 286.58 131.64 283.482C132.097 282.342 131.935 281.047 131.212 280.054C130.491 279.061 129.311 278.508 128.087 278.589C121.39 279.036 116.569 284.518 113.64 289.143C110.056 280.867 111.712 274.869 114.299 267.542L114.945 265.728C118.034 257.104 121.533 247.337 118.283 232.625L118.092 231.727C113.665 210.321 121.272 199.159 128.808 189.743L130.372 187.804L130.854 187.203C132.337 185.356 133.74 183.609 134.997 181.804C142.395 171.227 143.903 164.338 144.202 162.403L144.265 161.929C146.337 135.268 157.176 114.071 176.408 98.9107C192.31 86.5766 211.891 79.9363 232.015 80.0521ZM195.85 127.593C196.494 127.652 197.055 128.053 197.319 128.643C199.228 133.457 199.183 138.826 197.194 143.607C193.892 151.992 185.566 159.01 172.4 164.444L171.515 164.804C167.319 166.482 161.14 170.5 155.551 180C155.234 180.549 154.649 180.889 154.015 180.893C153.695 180.888 153.382 180.802 153.105 180.643C152.256 180.14 151.977 179.045 152.48 178.196C158.569 167.821 165.48 163.375 170.194 161.482C182.567 156.526 190.437 150.274 193.605 142.909L193.819 142.393C195.5 138.507 195.596 134.117 194.087 130.161C193.801 129.581 193.851 128.893 194.217 128.36C194.582 127.828 195.207 127.535 195.85 127.593ZM299.962 136.583C291.512 135.445 282.611 133.039 274.444 123.946C273.787 123.213 272.661 123.149 271.926 123.804C271.571 124.122 271.358 124.569 271.334 125.045C271.311 125.522 271.479 125.988 271.801 126.339C279.117 134.397 289.236 139.355 300.087 140.196H300.319V140.232C301.305 140.296 302.156 139.549 302.221 138.563C302.285 137.576 301.537 136.725 300.551 136.661L299.962 136.583Z" fill="#372168"/>
<path d="M250.854 265.786C248.882 265.786 247.283 264.187 247.283 262.215V253.857C247.283 251.885 248.882 250.286 250.854 250.286C252.827 250.286 254.426 251.885 254.426 253.857V262.215C254.426 264.187 252.827 265.786 250.854 265.786Z" fill="#372168"/>
<path d="M250.806 241.583C246.906 241.635 243.239 239.732 241.038 236.512C240.101 235.062 240.517 233.127 241.967 232.19C243.417 231.253 245.351 231.669 246.288 233.119C247.375 234.533 249.063 235.354 250.846 235.336C252.629 235.319 254.301 234.465 255.36 233.03C256.257 231.55 258.184 231.079 259.663 231.976C261.143 232.873 261.614 234.8 260.717 236.28C258.556 239.646 254.806 241.653 250.806 241.583Z" fill="#372168"/>
<path d="M288.008 220.089C295.919 220.089 295.937 207.768 288.008 207.768C280.079 207.768 280.062 220.089 288.008 220.089Z" fill="#372168"/>
<path d="M214.847 220.089C222.776 220.089 222.793 207.768 214.847 207.768C206.901 207.768 206.901 220.089 214.847 220.089Z" fill="#372168"/>
<path d="M229.765 204.5C228.842 204.506 227.952 204.154 227.283 203.518C214.265 191.018 201.694 202.196 200.301 203.518C198.862 204.777 196.687 204.68 195.366 203.297C194.046 201.914 194.048 199.737 195.372 198.357C201.747 192.232 217.658 184.357 232.23 198.357C232.915 199.013 233.311 199.914 233.331 200.862C233.351 201.81 232.993 202.727 232.337 203.411C231.663 204.108 230.735 204.501 229.765 204.5Z" fill="#372168"/>
<path d="M303.998 196.268C303.072 196.269 302.182 195.91 301.515 195.268C288.515 182.768 275.926 193.964 274.551 195.268C273.126 196.634 270.863 196.586 269.498 195.161C268.132 193.736 268.18 191.473 269.605 190.107C275.98 184 291.89 176.125 306.462 190.107C307.522 191.114 307.861 192.665 307.318 194.023C306.775 195.38 305.46 196.27 303.998 196.268Z" fill="#372168"/>
<g opacity="0.3">
<path fill-rule="evenodd" clip-rule="evenodd" d="M311.908 216.964C311.886 226.25 306.42 234.658 297.942 238.446C289.465 242.234 279.554 240.696 272.622 234.518C272.09 234.045 271.584 233.544 271.105 233.018C270.201 232.055 269.382 231.015 268.658 229.911C267.868 228.706 267.187 227.433 266.622 226.107C262.982 217.414 264.86 207.389 271.401 200.604C277.941 193.818 287.891 191.573 296.712 194.893C298.17 195.442 299.57 196.136 300.89 196.964C301.898 197.596 302.853 198.306 303.747 199.089C304.303 199.555 304.833 200.05 305.337 200.572C309.572 204.976 311.929 210.854 311.908 216.964Z" fill="#8AC4FF"/>
<path fill-rule="evenodd" clip-rule="evenodd" d="M237.73 216.964C237.708 226.25 232.241 234.658 223.764 238.446C215.286 242.234 205.375 240.696 198.444 234.518C197.912 234.045 197.405 233.544 196.926 233.018C196.022 232.055 195.204 231.015 194.48 229.911C193.689 228.706 193.008 227.433 192.444 226.107C188.803 217.414 190.681 207.389 197.222 200.604C203.763 193.818 213.713 191.573 222.533 194.893C223.992 195.442 225.392 196.136 226.712 196.964C227.719 197.596 228.675 198.306 229.569 199.089C230.124 199.555 230.655 200.05 231.158 200.572C235.394 204.976 237.75 210.854 237.73 216.964Z" fill="#8AC4FF"/>
</g>
<g style="mix-blend-mode:soft-light" opacity="0.8">
<path d="M300.837 196.964L268.694 229.911C267.904 228.706 267.222 227.433 266.658 226.107L296.747 194.893C298.175 195.448 299.545 196.141 300.837 196.964Z" fill="white"/>
</g>
<g style="mix-blend-mode:soft-light" opacity="0.8">
<path d="M305.283 200.572L302.408 203.554L272.569 234.518C272.037 234.045 271.53 233.545 271.051 233.018L303.694 199.089C304.249 199.555 304.78 200.05 305.283 200.572Z" fill="white"/>
</g>
<g style="mix-blend-mode:soft-light" opacity="0.8">
<path d="M226.658 196.964L194.426 229.911C193.636 228.706 192.955 227.433 192.39 226.107L222.48 194.893C223.938 195.442 225.338 196.136 226.658 196.964Z" fill="white"/>
</g>
<g style="mix-blend-mode:soft-light" opacity="0.8">
<path d="M231.105 200.572L228.23 203.554L198.39 234.518C197.858 234.045 197.352 233.545 196.873 233.018L229.515 199.089C230.071 199.555 230.601 200.05 231.105 200.572Z" fill="white"/>
</g>
<path fill-rule="evenodd" clip-rule="evenodd" d="M263.224 227.336C267.427 237.488 277.332 244.107 288.319 244.107C303.304 244.088 315.45 231.95 315.48 216.964C315.487 205.977 308.874 196.068 298.725 191.859C288.577 187.649 276.891 189.968 269.12 197.735C261.348 205.501 259.021 217.185 263.224 227.336ZM268.301 216.964C268.301 205.909 277.263 196.946 288.319 196.946C299.37 196.956 308.327 205.913 308.337 216.964C308.337 228.02 299.375 236.982 288.319 236.982C277.263 236.982 268.301 228.02 268.301 216.964Z" fill="#372168"/>
<path fill-rule="evenodd" clip-rule="evenodd" d="M189.045 227.336C193.248 237.488 203.153 244.107 214.14 244.107C229.126 244.088 241.271 231.95 241.301 216.964C241.308 205.977 234.695 196.068 224.547 191.859C214.398 187.649 202.713 189.968 194.941 197.735C187.169 205.501 184.842 217.185 189.045 227.336ZM194.122 216.964C194.122 205.909 203.085 196.946 214.14 196.946C225.192 196.956 234.148 205.913 234.158 216.964C234.158 228.02 225.196 236.982 214.14 236.982C203.085 236.982 194.122 228.02 194.122 216.964Z" fill="#372168"/>
<path d="M264.747 220.536C263.911 220.532 263.102 220.235 262.462 219.697C251.283 210.393 240.515 219.286 240.069 219.697C238.572 220.737 236.532 220.483 235.336 219.108C234.14 217.733 234.171 215.678 235.408 214.339C244.503 206.51 257.956 206.51 267.051 214.339C268.214 215.303 268.645 216.893 268.128 218.312C267.611 219.731 266.257 220.671 264.747 220.661V220.536Z" fill="#372168"/>
<path d="M190.551 220.536C190.29 220.561 190.027 220.561 189.765 220.536C178.605 217.982 163.462 213.179 162.819 212.982C160.935 212.386 159.892 210.375 160.489 208.491C161.085 206.607 163.096 205.564 164.98 206.161C165.14 206.161 180.497 211.089 191.355 213.571C193.129 213.976 194.316 215.65 194.11 217.458C193.904 219.266 192.371 220.63 190.551 220.625V220.536Z" fill="#372168"/>
<path d="M311.908 220.536C310.109 220.559 308.574 219.241 308.325 217.46C308.075 215.678 309.19 213.989 310.926 213.518L340.087 205.143C341.315 204.792 342.637 205.123 343.555 206.011C344.473 206.899 344.847 208.21 344.537 209.449C344.227 210.688 343.279 211.667 342.051 212.018L312.962 220.357C312.621 220.467 312.266 220.527 311.908 220.536Z" fill="#372168"/>
<path fill-rule="evenodd" clip-rule="evenodd" d="M207.124 37.3348C211.128 35.9989 213.708 32.9214 212.887 30.4609C212.066 28.0005 208.155 27.0888 204.151 28.4247C200.147 29.7605 197.566 32.8381 198.387 35.2985C199.208 37.759 203.119 38.6706 207.124 37.3348Z" fill="#9284FF"/>
<path d="M354.98 76.3393C344.598 84.4649 333.797 92.0407 322.622 99.0357L321.087 100C310.257 106.759 299.094 112.969 287.64 118.607C255.497 134.321 202.23 147.75 173.105 153.661C165.676 155.156 158.14 156.057 150.569 156.357C148.872 156.357 147.194 156.482 145.533 156.5C134.215 156.6 122.92 155.45 111.855 153.071C111.27 152.934 110.669 152.879 110.069 152.911C112.212 152.536 118.194 152.161 123.069 151.661C135.408 150.375 139.033 147.929 147.587 146.607C150.212 146.214 152.694 145.839 154.89 145.536C166.712 143.893 265.051 113.054 320.39 91.7679C328.033 88.8214 334.855 86.0714 340.533 83.5893C345.528 81.5486 350.358 79.1247 354.98 76.3393V76.3393Z" fill="#F9F9F9"/>
<path fill-rule="evenodd" clip-rule="evenodd" d="M111.087 156.5C121.964 158.865 133.063 160.063 144.194 160.071L145.587 160.036C146.649 160.027 147.589 159.989 148.45 159.955C149.269 159.923 150.016 159.893 150.73 159.893C158.493 159.578 166.219 158.653 173.837 157.125C207.801 150.232 258.408 136.839 289.23 121.786C300.786 116.101 312.044 109.831 322.962 103C323.515 102.679 324.051 102.339 324.533 102.018C335.822 94.9619 346.73 87.3144 357.212 79.1072L353.033 73.3215C348.604 76.0032 343.971 78.3318 339.176 80.2858C333.819 82.625 327.283 85.2858 319.194 88.3929C263.712 109.821 165.444 140.446 154.498 141.964L149.033 142.75L147.123 143.036C143.952 143.565 140.816 144.281 137.73 145.179C132.849 146.609 127.845 147.578 122.783 148.071C120.819 148.286 118.658 148.464 116.658 148.625C116.338 148.653 116.022 148.68 115.711 148.707C113.048 148.938 110.795 149.133 109.515 149.357L110.301 156.5C110.562 156.464 110.826 156.464 111.087 156.5ZM145.444 152.929C142.533 152.947 139.73 152.893 137.051 152.768L139.551 152.089C142.366 151.269 145.229 150.619 148.123 150.143L150.033 149.857L155.39 149.072C168.087 147.304 267.712 115.857 321.658 95.0895L322.783 94.6609L320.605 96.0359C320.257 96.2677 319.909 96.481 319.548 96.7024C319.408 96.788 319.267 96.8749 319.122 96.9645C308.399 103.663 297.343 109.813 285.997 115.393C253.694 131.197 199.355 144.679 172.319 150.161C165.056 151.628 157.687 152.506 150.283 152.786C148.89 152.929 147.39 152.929 145.444 152.929Z" fill="#372168"/>
<path fill-rule="evenodd" clip-rule="evenodd" d="M332.087 92.8931C329.122 94.8752 325.944 96.9288 322.622 99.0181L321.087 99.9824C310.254 106.748 299.085 112.958 287.622 118.59C255.48 134.304 202.212 147.75 173.105 153.643C165.67 155.138 158.129 156.04 150.551 156.34C148.855 156.447 147.194 156.465 145.533 156.482C143.033 156.482 140.605 156.482 138.265 156.375L136.033 149.482C134.717 145.458 133.685 141.347 132.944 137.179C132.605 135.286 132.319 133.411 132.122 131.518C131.592 126.901 131.425 122.25 131.622 117.607C133.176 79.5762 158.217 46.5225 194.408 34.7323L215.212 27.9645C246.463 17.7654 280.785 25.228 304.98 47.4823C308.511 50.7091 311.778 54.2144 314.747 57.9645C317.473 61.4049 319.944 65.0395 322.14 68.8395C322.426 69.3216 322.694 69.8038 322.962 70.2859C323.747 71.6788 324.497 73.1073 325.212 74.5716C327.057 78.3836 328.643 82.315 329.962 86.3395L332.087 92.8931Z" fill="#9284FF"/>
<path fill-rule="evenodd" clip-rule="evenodd" d="M138.14 159.947C140.122 160.072 142.176 160.072 144.319 160.072L145.622 160.143C147.283 160.125 148.908 160.107 150.694 160C158.464 159.702 166.198 158.777 173.819 157.232C201.14 151.714 256.194 137.964 289.194 121.893C300.78 116.204 312.068 109.928 323.015 103.089L323.64 102.697L324.533 102.143C327.962 99.9645 331.176 97.8931 334.069 95.9645L336.319 94.4645L333.354 85.3216C331.982 81.1461 330.336 77.0658 328.426 73.1073C327.676 71.5716 326.89 70.0716 326.015 68.5181C325.911 68.3368 325.809 68.1556 325.708 67.9755C325.549 67.694 325.393 67.4152 325.229 67.143C322.954 63.19 320.387 59.4117 317.551 55.8395C314.461 51.9428 311.063 48.3002 307.39 44.9466C282.22 21.8726 246.584 14.1231 214.104 24.6609L193.301 31.4288C160.402 42.151 135.977 69.9723 129.604 103.982C128.766 108.464 128.247 112.999 128.051 117.554C127.857 122.369 128.03 127.193 128.569 131.982C128.765 133.786 129.033 135.714 129.426 137.893C130.2 142.224 131.274 146.496 132.64 150.679L135.64 159.947H138.14ZM145.515 152.929H140.89L139.337 148.25C138.075 144.384 137.084 140.434 136.372 136.429C136.015 134.5 135.765 132.732 135.587 131.072C135.069 126.639 134.908 122.173 135.104 117.715C135.271 113.518 135.749 109.34 136.533 105.215C142.44 73.7709 165.037 48.0579 195.462 38.161L216.265 31.3753C246.297 21.6404 279.244 28.8095 302.515 50.1431C305.908 53.2341 309.043 56.5964 311.89 60.1967C314.524 63.5117 316.911 67.0151 319.033 70.6788L319.819 72.0717C320.569 73.3931 321.283 74.7681 321.962 76.1431C323.727 79.815 325.254 83.5966 326.533 87.4646L327.819 91.4467C325.616 92.911 323.235 94.4467 320.676 96.0538L319.89 96.536L319.194 96.9824C308.466 103.683 297.404 109.834 286.051 115.411C253.694 131.232 199.39 144.697 172.408 150.161C165.132 151.624 157.752 152.508 150.337 152.804C148.747 152.929 147.087 152.929 145.515 152.929Z" fill="#372168"/>
<path fill-rule="evenodd" clip-rule="evenodd" d="M340.783 119.554C339.426 120.34 337.98 121.09 336.48 121.875C311.372 134.822 280.301 151.625 246.73 161.643C197.087 176.465 135.855 190.215 116.997 178.643C116.801 178.5 116.605 178.411 116.426 178.268C115.319 177.518 114.301 176.768 113.39 176.018C108.436 172.324 105.005 166.944 103.747 160.893C103.448 159.159 103.825 157.376 104.801 155.911C106 154.107 107.994 152.991 110.158 152.911C110.758 152.889 111.358 152.943 111.944 153.072C120.641 154.942 129.483 156.053 138.372 156.393C140.712 156.393 143.14 156.518 145.64 156.5C147.301 156.5 148.962 156.5 150.658 156.357C158.23 156.057 165.765 155.155 173.194 153.661C202.319 147.75 255.587 134.304 287.73 118.607C299.183 112.963 310.346 106.747 321.176 99.9824C321.694 99.6788 322.212 99.3752 322.712 99.0359C326.045 96.9288 329.206 94.8812 332.194 92.8931C342.122 86.2502 349.944 80.3931 355.069 76.3395L355.89 75.6967C356.14 75.5002 356.408 75.3217 356.676 75.1431C357.17 74.8485 357.698 74.6147 358.247 74.4467C358.713 74.3074 359.192 74.2176 359.676 74.1788C362.938 73.8797 365.985 75.8376 367.069 78.9288C367.355 79.7859 367.64 80.7145 367.98 81.5002C369.605 85.9645 372.622 101.715 340.783 119.554Z" fill="#9284FF"/>
<g style="mix-blend-mode:soft-light" opacity="0.8">
<path d="M340.783 119.554C339.426 120.34 337.98 121.09 336.48 121.875C311.372 134.822 280.301 151.625 246.73 161.643C197.087 176.465 135.855 190.215 116.997 178.643C116.801 178.5 116.605 178.411 116.426 178.268C115.319 177.518 114.301 176.768 113.39 176.018C108.436 172.324 105.005 166.944 103.747 160.893C103.448 159.159 103.825 157.376 104.801 155.911C106 154.107 107.994 152.991 110.158 152.911C110.758 152.889 111.358 152.943 111.944 153.072C120.641 154.942 129.483 156.053 138.372 156.393C140.712 156.393 143.14 156.518 145.64 156.5C147.301 156.5 148.962 156.5 150.658 156.357C158.23 156.057 165.765 155.155 173.194 153.661C202.319 147.75 255.587 134.304 287.73 118.607C299.183 112.963 310.346 106.747 321.176 99.9824C321.694 99.6788 322.212 99.3752 322.712 99.0359C326.045 96.9288 329.206 94.8812 332.194 92.8931C342.122 86.2502 349.944 80.3931 355.069 76.3395L355.89 75.6967C356.14 75.5002 356.408 75.3217 356.676 75.1431C357.17 74.8485 357.698 74.6147 358.247 74.4467C358.713 74.3074 359.192 74.2176 359.676 74.1788C362.938 73.8797 365.985 75.8376 367.069 78.9288C367.355 79.7859 367.64 80.7145 367.98 81.5002C369.605 85.9645 372.622 101.715 340.783 119.554Z" fill="white"/>
</g>
<path fill-rule="evenodd" clip-rule="evenodd" d="M115.122 181.697C119.587 184.429 127.158 186.518 139.962 186.518C160.176 186.518 193.372 181.286 247.73 165.054C278.826 155.789 308.102 140.618 331.633 128.424L331.658 128.411L338.158 125.054C339.694 124.25 341.176 123.464 342.569 122.661C351.265 117.714 378.98 100.339 371.247 80.2144C371.035 79.6511 370.839 79.0791 370.643 78.5043C370.56 78.2592 370.476 78.0136 370.39 77.768C368.776 73.145 364.233 70.2046 359.355 70.6252C358.61 70.6748 357.874 70.8065 357.158 71.018C356.291 71.2839 355.463 71.6621 354.694 72.143C354.337 72.3752 353.98 72.6252 353.658 72.8752L353.426 73.0537L352.801 73.5359C348.015 77.2502 340.355 83.0894 330.158 89.9287C327.069 91.9823 323.908 94.0359 320.694 96.0537L319.408 96.8573L319.247 96.9644C308.518 103.663 297.457 109.814 286.105 115.393C253.747 131.214 199.426 144.679 172.426 150.161C165.162 151.619 157.794 152.497 150.39 152.786C148.73 152.929 147.087 152.929 145.551 152.929C144.313 152.938 143.065 152.908 141.804 152.877C140.683 152.849 139.552 152.822 138.408 152.822C129.728 152.498 121.094 151.41 112.605 149.572C111.759 149.397 110.896 149.319 110.033 149.339C109.073 149.361 108.121 149.529 107.212 149.839C105.019 150.555 103.131 151.99 101.855 153.911C100.355 156.137 99.7728 158.856 100.23 161.5C101.619 168.388 105.489 174.527 111.105 178.75C112.151 179.616 113.242 180.427 114.372 181.179L114.962 181.589L115.122 181.697ZM245.658 158.143C180.337 177.661 132.926 184.161 118.872 175.536L118.176 175.304C118.059 175.219 117.941 175.135 117.824 175.05C116.976 174.439 116.132 173.831 115.426 173.25C111.138 170.103 108.158 165.488 107.051 160.286C106.879 159.448 107.06 158.576 107.551 157.875C107.957 157.293 108.539 156.855 109.212 156.625C109.471 156.538 109.742 156.49 110.015 156.482C110.294 156.455 110.575 156.455 110.855 156.482C119.757 158.397 128.809 159.538 137.908 159.893C140.462 160 142.962 160 145.355 160C146.037 159.992 146.765 159.964 147.518 159.934C148.478 159.897 149.479 159.857 150.48 159.857C158.243 159.543 165.969 158.617 173.587 157.09C200.908 151.554 255.962 137.822 288.98 121.75C300.601 116.043 311.925 109.749 322.908 102.893C323.426 102.59 323.944 102.268 324.372 101.982C327.569 99.9645 330.783 97.8931 333.926 95.786C344.39 88.8395 352.301 82.8574 357.14 79.0538L357.926 78.4288L358.337 78.1252C358.581 77.9868 358.838 77.8731 359.105 77.786C359.344 77.719 359.589 77.6771 359.837 77.661C361.457 77.5176 362.969 78.4865 363.515 80.0181L363.516 80.0193C363.819 80.9117 364.123 81.8042 364.462 82.6967C365.89 86.4467 368.301 99.9288 338.944 116.375C337.64 117.143 336.247 117.875 334.783 118.625L328.265 122C305.015 134.054 276.015 149.072 245.658 158.143Z" fill="#372168"/>
<path fill-rule="evenodd" clip-rule="evenodd" d="M332.087 92.8932C329.122 94.8753 325.944 96.9289 322.622 99.0182L321.087 99.9824C310.254 106.748 299.085 112.958 287.622 118.59C255.479 134.304 202.212 147.75 173.104 153.643C165.67 155.138 158.128 156.04 150.551 156.34C148.854 156.447 147.194 156.465 145.533 156.482C143.033 156.482 140.604 156.482 138.265 156.375L136.033 149.482C134.717 145.459 133.685 141.347 132.944 137.179C132.604 135.286 132.319 133.411 132.122 131.518C132.122 131.518 211.783 137 322.962 70.286C323.747 71.6789 324.497 73.1074 325.212 74.5717C327.056 78.3837 328.643 82.3151 329.962 86.3396L332.087 92.8932Z" fill="#A6E5FF"/>
<path fill-rule="evenodd" clip-rule="evenodd" d="M138.14 159.947C140.123 160.072 142.176 160.072 144.319 160.072L145.605 160.161C147.265 160.143 148.89 160.125 150.676 160.018C158.446 159.72 166.18 158.795 173.801 157.25C201.123 151.732 256.176 137.982 289.176 121.911C300.762 116.222 312.05 109.946 322.998 103.107L323.623 102.715L324.515 102.161C327.944 99.9825 331.158 97.911 334.051 95.9825L336.301 94.4825L333.337 85.3396C331.965 81.1641 330.318 77.0838 328.408 73.1253C327.658 71.5896 326.873 70.0896 326.051 68.6432L324.265 65.4467L321.123 67.3396C214.568 131.262 136.376 128.21 132.516 128.059C132.436 128.056 132.388 128.054 132.373 128.054L128.14 127.768L128.569 131.982C128.765 133.786 129.033 135.715 129.426 137.893C130.2 142.224 131.274 146.497 132.64 150.679L135.64 159.947H138.14ZM145.515 152.929H140.89L139.39 148.393C138.128 144.526 137.138 140.576 136.426 136.572C136.401 136.447 136.372 136.323 136.343 136.199C136.268 135.878 136.194 135.559 136.194 135.25C154.283 135.411 225.569 132.018 321.533 75.2858L321.962 76.143C323.727 79.8148 325.254 83.5965 326.533 87.4644L327.819 91.4466C325.617 92.9109 323.236 94.4466 320.676 96.0537L319.89 96.5359L319.194 96.9823C308.466 103.683 297.404 109.834 286.051 115.411C253.694 131.232 199.39 144.697 172.408 150.161C165.133 151.624 157.752 152.508 150.337 152.804C148.748 152.929 147.087 152.929 145.515 152.929Z" fill="#372168"/>
<path fill-rule="evenodd" clip-rule="evenodd" d="M279.694 107.679C283.515 106.232 287.194 104.679 290.765 103.072L279.694 107.679Z" fill="#A6E5FF"/>
<path d="M279.694 109.465C278.839 109.458 278.109 108.847 277.952 108.006C277.795 107.166 278.256 106.332 279.051 106.018C282.73 104.625 286.408 103.072 290.033 101.447C290.464 101.247 290.957 101.227 291.402 101.391C291.848 101.555 292.21 101.89 292.408 102.322C292.607 102.755 292.625 103.249 292.457 103.695C292.289 104.141 291.95 104.502 291.515 104.697C287.819 106.357 284.069 107.929 280.337 109.357C280.13 109.428 279.913 109.464 279.694 109.465Z" fill="#372168"/>
<path fill-rule="evenodd" clip-rule="evenodd" d="M299.569 98.7502C308.907 93.9021 317.947 88.4996 326.64 82.5716L299.569 98.7502Z" fill="#A6E5FF"/>
<path d="M299.587 100.536C298.76 100.539 298.04 99.9754 297.844 99.1725C297.649 98.3697 298.03 97.5377 298.765 97.161C308.035 92.3434 317.01 86.9767 325.64 81.0895C326.169 80.6918 326.874 80.6191 327.473 80.9005C328.072 81.1819 328.466 81.7713 328.497 82.4322C328.529 83.0931 328.192 83.7171 327.622 84.0538C318.882 90.0265 309.788 95.465 300.39 100.34C300.141 100.467 299.866 100.534 299.587 100.536Z" fill="#372168"/>
<path d="M211.98 46.9646C210.993 47.1273 210.062 46.4597 209.899 45.4735C209.736 44.4873 210.404 43.5559 211.39 43.3931C214.91 42.2218 218.124 40.2821 220.801 37.7146C222.587 35.8038 223.462 33.9288 222.98 32.6074C222.676 31.7681 222.122 30.1967 217.622 30.8217C216.636 30.9548 215.729 30.2633 215.596 29.2771C215.462 28.2908 216.154 27.3834 217.14 27.2503C222.069 26.5717 225.069 27.9288 226.319 31.3931C227.283 34.0717 226.212 37.2146 223.319 40.1967C220.278 43.1489 216.618 45.3875 212.605 46.7503C212.411 46.86 212.199 46.9326 211.98 46.9646Z" fill="#372168"/>
<path fill-rule="evenodd" clip-rule="evenodd" d="M194.908 36.7679C195.98 39.9822 199.372 41.8572 203.444 41.8572C205.071 41.8569 206.688 41.5915 208.23 41.0714C214.176 39.0714 217.712 34.0714 216.23 29.6786C215.301 27.1705 213.113 25.3424 210.48 24.875C207.981 24.354 205.387 24.5269 202.98 25.375C200.545 26.1378 198.37 27.5593 196.694 29.4821C194.843 31.4191 194.163 34.1946 194.908 36.7679ZM201.819 34.4642C204.566 35.1242 207.449 34.1609 209.247 31.982C206.499 31.2995 203.605 32.2667 201.819 34.4642Z" fill="#372168"/>
</g>
<path fill-rule="evenodd" clip-rule="evenodd" d="M0 250C0 111.929 111.929 0 250 0C388.071 0 500 111.929 500 250C500 388.071 388.071 500 250 500C111.929 500 0 388.071 0 250ZM492.857 250C492.857 115.874 384.126 7.14286 250 7.14286C115.874 7.14286 7.14286 115.874 7.14286 250C7.14286 384.126 115.874 492.857 250 492.857C384.126 492.857 492.857 384.126 492.857 250Z" fill="#372168"/>
</svg>
