<svg width="500" height="500" viewBox="0 0 500 500" fill="none" xmlns="http://www.w3.org/2000/svg">
<path fill-rule="evenodd" clip-rule="evenodd" d="M250 496.429C386.099 496.429 496.429 386.099 496.429 250C496.429 113.901 386.099 3.57144 250 3.57144C113.901 3.57144 3.57143 113.901 3.57143 250C3.57143 386.099 113.901 496.429 250 496.429Z" fill="#E7EEFF"/>
<mask id="mask0_0_281" style="mask-type:alpha" maskUnits="userSpaceOnUse" x="3" y="3" width="494" height="494">
<path fill-rule="evenodd" clip-rule="evenodd" d="M250 496.429C386.099 496.429 496.429 386.099 496.429 250C496.429 113.901 386.099 3.57144 250 3.57144C113.901 3.57144 3.57143 113.901 3.57143 250C3.57143 386.099 113.901 496.429 250 496.429Z" fill="white"/>
</mask>
<g mask="url(#mask0_0_281)">
<path fill-rule="evenodd" clip-rule="evenodd" d="M336.74 210.585C337.919 197.482 339.687 159.822 324.533 135.107C306.015 105.089 275.623 96.321 249.926 96.7317C224.212 96.321 193.819 105.089 175.301 135.107C160.033 159.892 161.855 197.696 163.033 210.696C163.025 210.845 163.025 210.994 163.033 211.142C163.283 213.732 163.498 215.232 163.498 215.232C163.512 215.432 163.538 215.632 163.563 215.832C163.602 216.132 163.641 216.432 163.641 216.732C163.783 218.089 163.944 219.428 164.105 220.732C165.039 228.433 166.592 236.047 168.748 243.5L169.98 247.41C170.748 249.839 171.569 252.214 172.39 254.553C172.98 256.125 173.587 257.714 174.176 259.25C174.465 260.043 174.765 260.766 175.067 261.494L175.07 261.501C175.109 261.596 175.148 261.691 175.188 261.786C175.22 261.863 175.251 261.94 175.283 262.017C180.269 274.629 187.251 286.356 195.962 296.75L196.051 296.853V358.821C197.462 367.91 221.051 375.053 249.998 375.053C278.944 375.053 302.533 367.875 303.944 358.821V296.623L304.033 296.517C312.675 286.19 319.603 274.542 324.551 262.017C324.734 261.539 324.916 261.095 325.097 260.656C325.287 260.193 325.475 259.735 325.658 259.25C326.174 257.946 326.677 256.603 327.177 255.265L327.179 255.261L327.444 254.553L327.464 254.493C336.162 256.464 347.548 254.592 354.301 244.285C363.158 230.785 359.158 215.91 349.694 211.41C345.646 209.46 340.999 209.165 336.74 210.585ZM300.158 300.839L300.316 300.674C300.394 300.593 300.471 300.512 300.547 300.431C300.435 300.562 300.323 300.692 300.212 300.821C295.684 305.617 290.614 309.872 285.105 313.5C280.354 316.719 275.207 319.25 269.817 321.044C275.188 319.251 280.316 316.726 285.051 313.517C290.56 309.89 295.63 305.635 300.158 300.839Z" fill="#FFC7BB"/>
<path d="M145.426 244.357C152.194 254.714 163.658 256.553 172.373 254.535C171.087 250.964 169.837 247.279 168.623 243.482C166.636 236.637 165.168 229.653 164.23 222.589C163.962 220.678 163.73 218.732 163.516 216.75C163.442 216.252 163.394 215.752 163.373 215.25C163.373 215.25 163.194 214.125 162.998 212.142C162.908 211.839 162.908 211.5 162.908 211.16C162.9 211.006 162.9 210.851 162.908 210.696C159.436 209.548 155.693 209.504 152.194 210.571C151.413 210.823 150.649 211.128 149.908 211.482C140.551 215.91 136.498 230.785 145.426 244.357Z" fill="#FFC7BB"/>
<path d="M47.8727 424.411C82.0513 393.911 136.891 375.482 171.087 365.589L172.426 365.196C182.551 362.268 190.766 360.125 195.926 358.661C197.337 367.714 220.926 374.893 249.855 374.893C278.783 374.893 302.391 367.75 303.819 358.661H304.105C309.212 360.125 317.355 362.232 327.408 365.143L328.623 365.5C362.748 375.375 417.676 393.821 451.944 424.429C469.763 440.386 488.571 473.662 504.788 508.036H-5.00752C11.2115 473.626 30.033 440.311 47.8727 424.411Z" fill="#8AB99E"/>
<g style="mix-blend-mode:soft-light" opacity="0.4">
<path d="M282.694 393.25C271.915 395.66 260.9 396.858 249.855 396.821C213.319 396.821 182.301 384.696 171.069 365.786L172.408 365.393C182.533 362.464 190.748 360.321 195.908 358.857C197.319 367.911 220.908 375.089 249.837 375.089C278.766 375.089 302.373 367.946 303.801 358.857H304.087C309.194 360.321 317.337 362.428 327.391 365.339L328.605 365.696C323.087 375.053 312.748 382.75 299.283 388.143" fill="white"/>
</g>
<g style="mix-blend-mode:soft-light" opacity="0.4">
<path d="M282.694 393.25C271.915 395.66 260.9 396.858 249.855 396.821C213.319 396.821 182.301 384.696 171.069 365.786L172.408 365.393C182.533 362.464 190.748 360.321 195.908 358.857C197.319 367.911 220.908 375.089 249.837 375.089C278.766 375.089 302.373 367.946 303.801 358.857H304.087C309.194 360.321 317.337 362.428 327.391 365.339L328.605 365.696C323.087 375.053 312.748 382.75 299.283 388.143" fill="white"/>
</g>
<g style="mix-blend-mode:multiply" opacity="0.15">
<path fill-rule="evenodd" clip-rule="evenodd" d="M300.426 300.464V350.089C252.212 350.911 216.283 327.643 199.444 313.928V300.643L199.641 300.857C204.169 305.648 209.239 309.897 214.748 313.518C224.613 320.205 236.19 323.924 248.105 324.232H251.587C263.508 323.927 275.091 320.209 284.962 313.518C290.474 309.886 295.549 305.632 300.087 300.839L300.426 300.464Z" fill="#7C3830"/>
</g>
<path fill-rule="evenodd" clip-rule="evenodd" d="M251.152 93.1641L249.962 93.1781C230.373 92.821 194.194 97.6424 172.23 133.25C158.439 155.629 157.983 187.506 159.001 204.934L159.087 206.315C156.403 206.103 153.687 206.402 151.087 207.214C150.176 207.524 149.282 207.882 148.409 208.285C143.178 210.957 139.352 215.753 137.909 221.446C135.765 230.012 137.425 239.087 142.462 246.339C147.607 254.317 156.526 259.05 166.016 258.839L167.028 258.822C168.04 258.79 169.049 258.71 170.053 258.583L170.784 260.5C171.159 261.464 171.534 262.41 171.927 263.357C176.861 275.85 183.709 287.497 192.223 297.879L192.354 298.037V356.098L188.069 357.285C184.085 358.363 179.226 359.688 173.755 361.258L171.373 361.946L170.069 362.321C112.48 379.053 71.7302 398.464 45.4623 421.91C27.0201 438.376 7.74641 472.482 -8.92857 508.036H508.881C483.311 453.62 464.734 431.125 454.427 421.91C428.683 398.928 389.049 379.743 333.434 363.317L330.247 362.382C330.132 362.332 330.013 362.288 329.891 362.25L328.605 361.875C325.415 360.96 322.417 360.117 319.645 359.348L312.909 357.5L307.515 356.003L307.516 297.952C316.05 287.568 322.913 275.914 327.855 263.41C328.248 262.464 328.641 261.517 328.998 260.553L329.739 258.58C331.062 258.749 332.395 258.836 333.73 258.839C343.241 259.023 352.163 254.248 357.284 246.232L357.707 245.605C362.405 238.451 363.911 229.648 361.837 221.321C360.389 215.644 356.571 210.864 351.355 208.196C350.249 207.67 349.103 207.234 347.927 206.892C345.562 206.254 343.118 206.029 340.7 206.217C341.81 189.108 341.672 156.189 327.552 133.25C306.027 98.3545 270.902 93.0433 251.152 93.1641ZM269.785 377.57C290.132 375.225 302.072 369.286 306.105 363.035L311.034 364.392C313.25 364.995 315.69 365.662 318.34 366.399L323.087 367.732C317.694 374.535 309.194 380.375 298.177 384.803L297.9 384.917C296.821 385.417 296.055 386.427 295.873 387.616C295.675 388.904 296.194 390.197 297.228 390.99C298.261 391.784 299.644 391.951 300.837 391.428C314.192 386.063 324.337 378.648 330.398 369.848C384.808 385.824 424.936 405.127 449.677 427.214C465.576 441.411 482.459 470.211 497.431 500.893H2.49726C17.4298 470.292 34.3359 441.409 50.2659 427.214C74.4284 405.681 113.294 386.761 165.955 370.963L169.567 369.891C182.446 388.485 213.532 400.357 249.944 400.357C261.28 400.389 272.582 399.15 283.641 396.66C285.564 396.221 286.767 394.307 286.328 392.383C285.89 390.46 283.975 389.257 282.052 389.696C271.53 392.045 260.778 393.201 249.998 393.142C217.212 393.142 189.319 383.303 176.962 367.75L193.989 363.121C199.241 371.156 217.533 378.642 249.944 378.642C257.276 378.642 263.886 378.258 269.785 377.57ZM287.016 316.535C276.567 323.572 264.324 327.476 251.73 327.785H247.962C235.4 327.452 223.195 323.536 212.784 316.5C208.036 313.372 203.599 309.801 199.532 305.836L199.502 357.824C199.552 357.974 199.592 358.128 199.623 358.285C200.471 363.724 219.636 371.311 249.021 371.479L249.909 371.482C277.046 371.482 295.707 365.162 299.621 359.87C300.017 359.328 300.258 358.797 300.337 358.285L300.339 305.787C296.253 309.785 291.792 313.384 287.016 316.535ZM248.302 100.303L251.078 100.276C269.308 100.221 301.704 105.044 321.409 136.964C335.694 160.156 334.322 196.162 333.288 208.864L333.159 210.357V210.553L336.519 210.837H336.135L333.159 210.75C332.989 212.542 332.828 213.769 332.755 214.332L332.754 214.335C332.745 214.403 332.738 214.461 332.732 214.509C332.719 214.605 332.712 214.662 332.712 214.678V214.928C332.699 215.09 332.679 215.249 332.659 215.411C332.624 215.694 332.587 215.984 332.587 216.303C331.713 225.137 330.046 233.875 327.605 242.41C326.48 246.089 325.284 249.767 324.034 253.232L323.587 254.428C323.373 255.053 323.127 255.723 322.893 256.348L322.266 258C321.927 258.892 321.569 259.785 321.194 260.678C316.39 272.852 309.661 284.174 301.266 294.214L301.541 293.875C301.492 293.92 301.444 293.966 301.397 294.014C301.339 294.073 301.284 294.133 301.23 294.196C299.909 295.75 298.694 297.125 297.48 298.375L296.471 299.426C292.398 303.594 287.887 307.313 283.016 310.517L282.167 311.082L281.308 311.633C276.362 314.645 271.646 316.663 267.436 318.012C262.324 319.601 256.993 320.493 251.587 320.642H248.105C239.347 320.394 230.786 318.201 223.029 314.26C220.856 313.154 218.746 311.911 216.712 310.535C211.443 307.054 206.59 302.98 202.248 298.392C201.159 297.232 199.98 295.946 198.677 294.428C190.21 284.318 183.426 272.91 178.587 260.642C178.23 259.768 177.873 258.892 177.516 257.982C176.891 256.464 176.284 254.892 175.73 253.375L175.58 252.944L175.579 252.941L175.578 252.938L175.576 252.932C175.575 252.929 175.574 252.926 175.573 252.923C175.106 251.586 174.635 250.237 174.178 248.878L173.355 246.357C172.944 245.071 172.534 243.785 172.141 242.5C170.036 235.233 168.513 227.811 167.587 220.303C167.427 219.017 167.266 217.696 167.123 216.357C166.998 215.892 166.998 215.446 166.998 214.982C167.006 214.899 167.006 214.815 166.998 214.732L166.587 211.214L166.587 210.732C166.587 210.456 166.555 210.187 166.494 209.929C165.464 198.282 163.584 160.847 178.284 137C197.802 105.339 229.802 100.303 248.302 100.303ZM340.643 213.53L340.123 213.616L339.933 215.214L339.873 215.625C339.82 215.945 339.796 216.314 339.773 216.682L339.762 216.851C339.758 216.919 339.753 216.986 339.748 217.053C339.023 224.437 337.766 231.757 335.988 238.955C338.388 238.847 340.629 237.623 342.016 235.607C343.735 233.252 344.017 230.142 342.748 227.517C342.211 226.689 342.446 225.582 343.275 225.044C344.103 224.507 345.211 224.743 345.748 225.571C347.598 229.133 347.473 233.398 345.418 236.845C343.363 240.293 339.671 242.432 335.659 242.5C335.46 242.513 335.261 242.52 335.062 242.52L334.498 244.535C333.762 246.947 332.998 249.344 332.204 251.703C339.594 252.363 346.754 249.003 350.973 242.933L351.302 242.446C355.205 236.917 356.538 229.975 354.962 223.392C354.069 219.691 351.631 216.55 348.266 214.767C347.525 214.409 346.754 214.116 345.962 213.892C344.423 213.462 342.821 213.318 341.236 213.462L340.643 213.53ZM153.302 213.982C154.595 213.567 155.944 213.357 157.288 213.355L157.858 213.363C158.449 213.382 159.039 213.44 159.623 213.535L159.766 214.778C159.798 215.043 159.83 215.258 159.862 215.424L159.903 215.884C159.908 215.928 159.914 215.972 159.919 216.015C159.931 216.109 159.944 216.202 159.957 216.294C159.996 216.583 160.034 216.854 160.034 217.089C160.248 219.071 160.48 221.017 160.748 222.928C160.739 222.975 160.739 223.024 160.748 223.071C161.447 228.403 162.446 233.691 163.741 238.91C161.181 238.928 158.757 237.683 157.284 235.553C155.583 233.192 155.303 230.092 156.552 227.464C157.086 226.64 156.855 225.539 156.034 225C155.636 224.737 155.151 224.644 154.685 224.741C154.219 224.839 153.811 225.118 153.552 225.517C151.68 229.098 151.806 233.395 153.883 236.86C155.96 240.326 159.69 242.462 163.73 242.5C164.045 242.505 164.359 242.495 164.672 242.469L164.672 242.466L164.909 242.446C164.83 242.455 164.751 242.462 164.672 242.469C164.859 243.147 165.051 243.824 165.248 244.5C165.98 246.928 166.73 249.303 167.516 251.642C159.912 252.349 152.541 248.797 148.355 242.41L147.977 241.851C144.401 236.397 143.237 229.695 144.784 223.339C145.676 219.622 148.13 216.471 151.516 214.696C152.095 214.42 152.692 214.181 153.302 213.982Z" fill="#372168"/>
<path fill-rule="evenodd" clip-rule="evenodd" d="M430.837 432.821C424.296 427.042 417.324 421.77 409.98 417.053C409.444 416.705 408.764 416.67 408.195 416.96C407.625 417.251 407.254 417.822 407.221 418.46C407.188 419.098 407.498 419.705 408.034 420.053C415.224 424.672 422.053 429.83 428.462 435.482C428.785 435.775 429.205 435.94 429.641 435.946C430.154 435.945 430.642 435.724 430.98 435.339C431.635 434.604 431.571 433.477 430.837 432.821ZM164.909 242.446C164.83 242.455 164.751 242.462 164.672 242.469L164.672 242.466L164.909 242.446Z" fill="#372168"/>
<path fill-rule="evenodd" clip-rule="evenodd" d="M307.801 465.536C302.011 467.814 295.726 468.541 289.569 467.643C273.229 465.393 251.962 452.875 203.122 431.643C202.801 431.482 202.444 431.339 202.104 431.196C152.301 409.571 138.319 390.768 134.658 380.107C132.432 373.667 134.662 366.528 140.158 362.5C143.843 359.95 147.984 358.131 152.354 357.143C155.41 356.404 157.568 353.679 157.587 350.536C157.587 346.857 159.033 341.5 164.354 334.928C171.604 326.367 182.078 321.195 193.283 320.643C193.321 320.638 193.359 320.648 193.39 320.672C193.42 320.695 193.439 320.73 193.444 320.768C193.819 322.393 198.533 339.196 232.283 347.821C241.587 350.196 252.604 353.482 263.997 357.25C296.14 367.857 331.39 382.25 339.747 390.839C341.141 392.285 342.239 393.99 342.979 395.857C351.194 415.536 328.104 457.964 307.801 465.536Z" fill="#8C9AD9"/>
<path fill-rule="evenodd" clip-rule="evenodd" d="M289.069 471.179C290.973 471.454 292.895 471.592 294.819 471.589C299.678 471.577 304.494 470.681 309.033 468.947C322.694 463.839 335.515 446.107 342.176 430.786C345.837 422.357 351.247 406.429 346.283 394.5C345.371 392.212 344.018 390.124 342.301 388.357C332.712 378.518 294.73 363.625 265.122 353.857C253.533 350.018 242.48 346.75 233.176 344.357C201.033 336.143 197.069 320.625 196.908 319.947C196.504 318.232 194.955 317.033 193.194 317.072C180.923 317.627 169.448 323.309 161.569 332.732C155.444 340.322 154.015 346.607 154.015 350.589C154.028 352.109 152.98 353.432 151.497 353.768C146.671 354.846 142.102 356.86 138.051 359.697C131.277 364.643 128.531 373.434 131.283 381.357C135.515 393.714 150.997 412.982 200.605 434.518L201.23 434.786L201.712 435C218.033 442.107 231.569 448.322 242.283 453.322L243.159 453.723C264.709 463.61 277.827 469.628 289.069 471.179ZM167.122 337.197C173.136 330.037 181.657 325.444 190.944 324.357C193.587 330.357 202.622 343.857 231.408 351.232C240.551 353.572 251.444 356.804 262.872 360.589C299.694 372.732 330.265 386.143 337.194 393.286C338.27 394.41 339.119 395.732 339.694 397.179C342.533 404 340.979 415.5 335.622 427.893C328.462 444.339 316.515 458.464 306.551 462.197C301.308 464.247 295.624 464.905 290.051 464.107C279.712 462.679 266.712 456.679 245.283 446.75C234.444 441.732 220.962 435.536 204.64 428.393L204.015 428.125L203.533 427.911C153.747 406.304 141.122 387.875 138.033 378.947C136.301 373.975 138.027 368.456 142.283 365.357C145.572 363.087 149.272 361.48 153.176 360.625C157.812 359.5 161.097 355.377 161.158 350.607C161.212 347.768 162.283 343.143 167.122 337.197Z" fill="#372168"/>
<path fill-rule="evenodd" clip-rule="evenodd" d="M289.569 467.661C289.39 498.304 289.194 525.482 289.033 544.929C222.73 548.982 178.694 517.536 178.694 517.536H178.265C181.015 480.429 195.051 447.786 203.14 431.696C251.962 452.875 273.23 465.393 289.569 467.661Z" fill="#FFCB6D"/>
<path fill-rule="evenodd" clip-rule="evenodd" d="M177.301 520.911C183.015 524.803 220.694 548.857 277.069 548.857C281.033 548.857 285.104 548.75 289.212 548.536C291.1 548.422 292.572 546.856 292.569 544.964C292.729 525.518 292.926 498.339 293.104 467.696C293.121 465.898 291.797 464.368 290.015 464.125C279.738 462.68 266.822 456.706 245.424 446.81L245.372 446.786C244.935 446.583 244.493 446.379 244.047 446.173C233.421 441.261 220.335 435.212 204.551 428.357C202.813 427.607 200.792 428.344 199.944 430.036C191.712 446.393 177.497 479.482 174.694 517.214C174.572 518.91 175.663 520.456 177.301 520.911ZM285.569 541.535C229.087 544.018 189.408 520.232 181.997 515.446C184.908 482.071 196.89 452.625 204.962 436.268C219.241 442.536 231.25 448.086 241.128 452.651C241.577 452.859 242.021 453.064 242.462 453.268C262.515 462.553 275.354 468.482 286.069 470.66C285.89 498.339 285.729 523.035 285.569 541.535Z" fill="#372168"/>
<path d="M293.212 459.804C291.909 459.805 290.608 459.709 289.319 459.518C288.333 459.385 287.641 458.477 287.774 457.491C287.907 456.505 288.815 455.813 289.801 455.946C293.787 456.526 297.854 456.058 301.605 454.589C302.5 454.34 303.437 454.82 303.758 455.692C304.08 456.563 303.679 457.536 302.837 457.929C299.768 459.13 296.507 459.766 293.212 459.804Z" fill="#372168"/>
<path d="M217.194 501.786H216.926C215.957 501.639 215.287 500.738 215.426 499.768C220.194 466.679 232.872 445.875 233.408 445C233.96 444.3 234.943 444.114 235.712 444.564C236.481 445.014 236.801 445.962 236.462 446.786C236.319 447 223.622 467.875 218.944 500.196C218.845 501.092 218.094 501.773 217.194 501.786Z" fill="#372168"/>
<path d="M248.872 399.75H248.676C248.337 399.75 214.444 396.018 187.212 379.482C158.372 361.982 155.069 355.66 154.765 355C154.361 354.097 154.765 353.038 155.667 352.634C156.569 352.229 157.629 352.633 158.033 353.535C158.23 353.893 161.801 359.893 189.069 376.428C215.622 392.5 248.712 396.071 249.051 396.196C250.037 396.245 250.797 397.085 250.747 398.071C250.698 399.057 249.859 399.817 248.872 399.768V399.75Z" fill="#372168"/>
<path fill-rule="evenodd" clip-rule="evenodd" d="M357.337 384.464C353.18 388.935 348.362 392.741 343.051 395.75C342.31 393.883 341.212 392.178 339.819 390.732C331.462 382.161 296.229 367.75 264.069 357.143C286.551 348.786 298.64 324.071 301.747 316.875C302.307 315.626 303.625 314.898 304.979 315.089C309.908 315.75 321.479 319.125 332.39 336.089C332.39 336.089 348.229 340.589 358.658 353.089C366.165 362.394 365.599 375.824 357.337 384.464Z" fill="#BAACFF"/>
<path fill-rule="evenodd" clip-rule="evenodd" d="M341.801 399.178C342.181 399.306 342.579 399.372 342.979 399.375C343.642 399.374 344.291 399.188 344.854 398.839C350.519 395.669 355.652 391.632 360.069 386.875C369.627 376.908 370.226 361.369 361.462 350.696C352.051 339.5 338.872 334.375 334.676 332.946C323.515 316.286 311.622 312.357 305.426 311.518C302.469 311.132 299.618 312.769 298.462 315.518C295.372 322.518 283.89 345.982 262.747 353.839C261.317 354.363 260.377 355.736 260.405 357.259C260.433 358.781 261.424 360.119 262.872 360.589C299.694 372.732 330.265 386.143 337.194 393.286C338.266 394.403 339.11 395.719 339.676 397.161C340.063 398.106 340.837 398.841 341.801 399.178ZM342.301 388.304C333.604 379.357 301.462 366.25 273.462 356.607C291.694 345.857 301.747 325.696 304.819 318.571C309.158 319.25 319.426 322.536 329.319 337.911C329.787 338.639 330.504 339.172 331.337 339.411C331.479 339.446 346.229 343.75 355.837 355.268C362.33 363.177 361.862 374.698 354.747 382.054C351.634 385.368 348.146 388.311 344.354 390.821C343.758 389.914 343.07 389.07 342.301 388.304Z" fill="#372168"/>
<path d="M301.301 372.571C300.467 372.575 299.742 372.001 299.554 371.189C299.366 370.376 299.765 369.542 300.515 369.179C317.265 361.089 330.604 335.5 330.729 335.25C331.194 334.404 332.248 334.08 333.108 334.52C333.967 334.959 334.322 336.003 333.908 336.875C333.337 337.982 319.872 363.786 302.069 372.393C301.829 372.509 301.567 372.57 301.301 372.571Z" fill="#372168"/>
<path d="M260.391 295.617C259.89 295.62 259.411 295.39 259.07 294.982C256.579 292.661 253.388 291.477 250.141 291.668C246.915 291.473 243.737 292.603 241.213 294.843C240.78 295.412 240.096 295.664 239.443 295.495C238.79 295.325 238.277 294.764 238.116 294.04C237.954 293.317 238.171 292.554 238.677 292.065C245.457 286.174 254.998 286.256 261.695 292.263C262.189 292.84 262.326 293.688 262.042 294.419C261.758 295.15 261.108 295.621 260.391 295.617Z" fill="#372168"/>
<g style="mix-blend-mode:multiply" opacity="0.15">
<path fill-rule="evenodd" clip-rule="evenodd" d="M220.497 245.119C220.497 256.019 212.502 264.856 202.64 264.856C192.778 264.856 184.783 256.019 184.783 245.119C184.783 234.219 192.778 225.382 202.64 225.382C212.502 225.382 220.497 234.219 220.497 245.119ZM316.926 245.119C316.926 256.019 308.931 264.856 299.069 264.856C289.207 264.856 281.212 256.019 281.212 245.119C281.212 234.219 289.207 225.382 299.069 225.382C308.931 225.382 316.926 234.219 316.926 245.119Z" fill="#FF1300"/>
</g>
<path fill-rule="evenodd" clip-rule="evenodd" d="M326.104 151C329.361 146.333 331.27 140.859 331.622 135.178C331.709 133.429 331.684 131.677 331.547 129.932C331.694 131.706 331.725 133.488 331.64 135.268C331.288 140.948 329.379 146.422 326.122 151.089C326.087 151.165 326.046 151.236 325.997 151.304C323.459 154.887 320.457 158.117 317.069 160.911C316.607 161.525 316.08 162.088 315.497 162.589C322.176 170.857 333.301 188.322 335.408 215.5C335.408 215.5 370.301 155.625 331.694 127.447H331.276C331.261 127.339 331.245 127.232 331.229 127.125C330.297 120.726 327.928 114.621 324.301 109.268C287.883 62.2921 236.321 77.1364 216.332 82.8912C214.346 83.463 212.671 83.945 211.354 84.2678C195.337 88.1428 177.872 80.3749 177.872 80.3749C176.626 85.3487 178.1 90.6107 181.747 94.2142C172.435 89.5805 163.413 84.3865 154.729 78.6606C154.729 78.6606 144.604 89.4285 152.122 108.053C147.531 106.943 143.331 104.596 139.979 101.268C138.445 115.987 142.519 130.743 151.39 142.589C154.251 146.395 157.54 149.858 161.194 152.911C165.913 156.856 171.094 160.214 176.622 162.911C178.301 163.732 179.962 164.518 181.747 165.268C204.747 175.178 225.444 177.232 249.39 178.196C285.301 179.661 305.694 170.339 317.051 160.821C320.439 158.028 323.441 154.797 325.979 151.214C326.028 151.147 326.07 151.075 326.104 151ZM162.783 217C162.783 217 171.051 181.428 181.765 165.357C180.033 164.607 178.319 163.821 176.729 163.036C171.168 160.334 165.957 156.964 161.212 153C157.558 149.947 154.269 146.484 151.408 142.678C144.158 169.768 144.622 194.839 162.783 217ZM331.908 300.482C337.997 287.857 339.515 277.946 340.212 266.196C341.344 249.164 339.74 232.06 335.462 215.535C335.462 215.535 330.89 255.75 312.247 272.428C311.205 273.326 309.813 273.706 308.459 273.464C307.105 273.222 305.932 272.382 305.265 271.178C300.426 262.643 288.444 247.5 272.837 247.5C263.069 247.5 255.765 250.303 251.944 253.518C250.315 254.875 247.948 254.875 246.319 253.518C242.497 250.285 234.89 247.196 225.122 247.196C209.497 247.196 197.819 262.643 192.979 271.178C192.313 272.382 191.14 273.222 189.786 273.464C188.431 273.706 187.04 273.326 185.997 272.428C167.283 255.785 162.783 217.071 162.783 217.071C162.783 217.071 155.14 234.196 156.926 263.071C157.622 274.732 160.694 290.518 167.837 303.303C171.835 309.985 176.431 316.291 181.569 322.143C198.31 341.524 222.69 352.615 248.301 352.5H249.783C275.372 352.5 300.569 342.875 317.194 323.41C323.023 316.402 327.965 308.701 331.908 300.482Z" fill="#FFB07D"/>
<path fill-rule="evenodd" clip-rule="evenodd" d="M326.926 107.321C329.811 111.527 331.971 116.169 333.332 121.055C336.496 114.538 337.251 106.344 337.418 103.621L337.462 102.696C337.462 101.781 338.151 101.026 339.039 100.923L339.247 100.911C340.163 100.911 340.918 101.6 341.021 102.488L341.031 102.805C341.001 104.148 340.499 115.515 335.801 123.946C339.475 122.959 343.333 122.867 347.051 123.679C347.67 123.844 348.153 124.328 348.319 124.947C348.485 125.566 348.308 126.226 347.854 126.679C347.401 127.132 346.741 127.309 346.122 127.143C343.274 126.362 339.988 126.711 337.296 127.299C369.358 155.439 344.13 206.82 339.265 215.941C343.281 231.852 344.858 248.28 343.943 264.664L343.837 266.411C343.087 278.911 341.39 289.143 335.176 302.125C331.101 310.621 325.99 318.58 319.962 325.821C303.515 345 277.872 356.072 249.783 356.072H248.301C221.63 356.19 196.248 344.612 178.854 324.393C173.557 318.355 168.823 311.846 164.712 304.946C155.783 288.75 153.783 270.375 153.354 263.214C151.897 239.211 156.708 223.13 158.711 217.629C143.254 197.748 139.677 174.091 147.509 143.497C138.698 131.124 134.733 115.922 136.408 100.786C136.624 99.4486 137.579 98.3489 138.872 97.9464C140.146 97.5738 141.522 97.9383 142.444 98.8929C143.62 100.099 144.946 101.15 146.39 102.018C143.087 86.0536 151.587 76.75 152.015 76.3036C153.205 75.036 155.135 74.8098 156.587 75.7679L156.748 75.8607C156.952 75.987 157.343 76.2382 157.891 76.5907C160.589 78.325 167.101 82.5114 173.962 86.3393C173.709 84.1475 173.806 81.9295 174.247 79.7679C174.445 78.7212 175.1 77.8176 176.033 77.3036C177.009 76.8352 178.146 76.8352 179.122 77.3036L180.736 77.913C185.238 79.5637 198.386 83.8121 210.319 80.9822L211.228 80.7473C212.35 80.45 213.68 80.0734 215.194 79.6429L218.468 78.707C240.717 72.4412 290.945 60.8563 326.926 107.321ZM162.14 232.821V232.857C160.488 242.161 159.902 251.621 160.393 261.053L160.497 262.821C161.208 276.321 164.775 289.516 170.962 301.536C174.843 308.008 179.302 314.116 184.283 319.786C186.939 322.872 189.798 325.74 192.83 328.377C189.398 322.76 187.073 316.997 185.515 312.071C185.219 311.13 185.743 310.126 186.685 309.83C187.627 309.535 188.63 310.058 188.926 311C191.339 318.654 195.713 328.46 203.411 336.205C207.689 338.881 212.196 341.161 216.876 343.023C213.755 338.331 211.323 332.123 209.64 324.446C209.461 323.809 209.65 323.125 210.13 322.669C210.61 322.214 211.303 322.061 211.93 322.273C212.488 322.461 212.912 322.909 213.074 323.465L213.122 323.679C215.326 333.697 218.754 340.95 223.34 345.292C226.445 346.244 229.611 347.015 232.822 347.602C229.724 339.571 230.107 327.23 230.176 325.464C230.223 324.513 231.009 323.767 231.962 323.768C232.948 323.768 233.747 324.567 233.747 325.554L233.707 326.906C233.579 333.667 234.402 343.54 237.078 348.269C239.957 348.641 242.867 348.867 245.796 348.94L247.661 348.967C250.716 338.687 249.513 324.132 248.682 314.081L248.676 314V313.125C248.625 312.487 248.918 311.87 249.445 311.507C249.972 311.144 250.653 311.089 251.231 311.364C251.809 311.639 252.196 312.201 252.247 312.839V313.714L252.488 316.62C253.27 326.32 254.015 339.086 251.385 348.951C255.885 348.88 260.309 348.503 264.625 347.835C267.163 340.785 268.13 333.253 267.444 325.768C267.32 324.782 268.02 323.882 269.006 323.759C269.992 323.636 270.892 324.335 271.015 325.321C271.742 332.685 270.945 340.1 268.698 347.111C273.436 346.161 278.027 344.852 282.427 343.205C289.134 335.01 290.962 317.88 291.423 309.145L291.479 307.982C291.479 307.493 291.679 307.024 292.034 306.687C292.388 306.349 292.866 306.172 293.354 306.196C294.306 306.244 295.052 307.03 295.051 307.982L294.954 309.75C294.401 318.864 292.751 331.892 287.983 340.894L288.527 340.645C291.78 339.128 294.905 337.413 297.882 335.51C303.049 329.395 306.93 322.275 309.265 314.571C309.416 314.121 309.74 313.749 310.165 313.538C310.591 313.326 311.083 313.294 311.533 313.446C312.462 313.76 312.965 314.765 312.658 315.696C311.278 320.226 309.394 324.564 307.054 328.635C309.71 326.311 312.192 323.805 314.479 321.125C320.134 314.353 324.932 306.91 328.765 298.964C334.301 287.46 335.915 278.47 336.644 267.123L336.712 266.018C337.352 255.386 336.958 244.716 335.533 234.161L335.081 235.892C331.574 249.031 325.307 265.498 314.587 275.089C312.787 276.706 310.346 277.41 307.962 277C305.497 276.603 303.347 275.104 302.122 272.929C296.408 262.839 285.301 251.071 272.801 251.071C263.64 251.071 257.194 253.75 254.212 256.25C251.25 258.689 246.976 258.689 244.015 256.25C240.997 253.696 234.247 250.75 225.087 250.75C210.364 250.75 199.532 267.106 196.552 272.112L196.087 272.911C194.866 275.09 192.714 276.59 190.247 276.982C187.863 277.389 185.424 276.686 183.622 275.071C171.712 264.464 165.354 246 162.14 232.821ZM210.789 305.56C210.686 304.672 209.931 303.982 209.015 303.982C208.526 303.982 208.057 304.182 207.72 304.536C207.382 304.891 207.205 305.368 207.229 305.857C207.39 309.054 207.676 312.268 208.069 315.357C208.178 316.259 208.946 316.935 209.854 316.929L210.069 317C211.044 316.87 211.731 315.976 211.604 315C211.229 311.982 210.962 308.875 210.801 305.768L210.789 305.56ZM206.747 275.321C207.581 275.849 207.828 276.952 207.301 277.786C205.777 280.322 203.811 282.566 201.497 284.411C198.106 287.147 193.907 288.691 189.551 288.804C188.688 288.808 187.827 288.73 186.979 288.571C183.433 288.014 180.298 285.958 178.372 282.929C177.841 282.1 178.081 280.998 178.908 280.464C179.307 280.204 179.795 280.113 180.261 280.214C180.727 280.315 181.134 280.598 181.39 281C182.772 283.184 185.032 284.663 187.587 285.054C191.812 285.58 196.065 284.317 199.319 281.571C201.298 279.982 202.979 278.053 204.283 275.875C204.811 275.042 205.914 274.794 206.747 275.321ZM319.765 282.875C320.298 282.042 320.054 280.934 319.22 280.402C318.387 279.869 317.28 280.113 316.747 280.946C313.622 285.911 306.783 286.643 300.479 282.732L300.269 282.609C299.763 282.358 299.162 282.36 298.652 282.625C298.07 282.928 297.701 283.526 297.69 284.182C297.681 284.838 298.031 285.447 298.604 285.768C301.571 287.67 305.009 288.709 308.533 288.768C313.05 288.901 317.308 286.667 319.765 282.875ZM314.576 167.251L314.43 167.353C303.569 174.759 285.466 182.018 256.64 182.018C254.265 182.018 251.801 182.018 249.265 181.857L246.095 181.722C222.039 180.627 203.559 178.14 183.254 169.859C174.368 184.961 167.443 213.142 166.428 217.361L166.593 218.523C167.765 226.382 173.201 256.152 188.301 269.732C188.507 269.897 188.772 269.968 189.033 269.929C189.355 269.859 189.633 269.659 189.801 269.375L190.256 268.585C194.251 261.774 206.638 243.589 225.015 243.589C236.104 243.589 244.426 247.286 248.515 250.732C248.825 250.973 249.259 250.973 249.569 250.732C254.64 246.446 263.319 243.893 272.783 243.893C292.854 243.893 305.908 265.125 308.319 269.375C308.488 269.664 308.775 269.866 309.104 269.929C309.363 269.973 309.627 269.893 309.819 269.714C326.048 255.198 331.175 220.69 331.847 215.694C330.057 192.996 321.851 177.117 314.576 167.251ZM153.212 150.357L153.196 150.419L153.198 150.421C148.64 171.249 149.981 188.007 157.517 202.632C156.064 192.057 156.783 181.24 159.694 170.857C160.025 169.956 161.01 169.479 161.923 169.777C162.836 170.075 163.35 171.041 163.087 171.964C160.023 183.234 159.608 195.011 161.814 206.386L162.414 204.229C165.451 193.448 170.49 177.705 176.602 166.95L174.997 166.214C169.208 163.384 163.782 159.864 158.837 155.732C156.852 154.073 154.969 152.299 153.198 150.421L153.212 150.357ZM335.194 135.143V135.482C335.056 137.71 334.703 139.91 334.145 142.053C334.208 142.677 334.108 143.319 333.837 143.911C333.556 144.521 333.265 145.127 332.966 145.728C331.99 148.264 330.715 150.689 329.158 152.946C329.101 153.061 329.036 153.16 328.969 153.264C328.932 153.322 328.893 153.382 328.854 153.446C326.775 156.38 324.403 159.092 321.775 161.541C321.296 162.035 320.809 162.522 320.314 163.001L320.247 162.911C327.699 173.121 333.069 184.674 336.076 196.909C336.561 186.067 335.389 175.181 332.57 164.633L332.176 163.196C331.865 162.26 332.373 161.248 333.31 160.938C334.247 160.627 335.258 161.135 335.569 162.071C338.901 173.634 340.274 185.629 339.673 197.562L340.092 196.421C346.368 179.095 351.724 152.533 335.194 135.143ZM214.256 87.2622L220.683 85.4314C242.902 79.1814 288.33 68.7339 321.462 111.518C324.541 116.152 326.616 121.376 327.557 126.852L327.702 127.765L327.712 127.857C327.95 129.471 328.078 131.098 328.097 132.727C328.105 133.473 328.089 134.219 328.051 134.964V135.125C327.88 137.793 327.318 140.409 326.392 142.892C324.008 147.613 320.971 151.968 317.373 155.831C316.54 156.633 315.676 157.405 314.783 158.143C304.801 166.5 285.408 176.143 249.551 174.679C223.676 173.643 204.515 171.25 183.194 162.054C181.479 161.304 179.801 160.536 178.229 159.768C172.957 157.196 168.016 153.994 163.515 150.232C162.541 149.416 161.595 148.57 160.677 147.695L160.227 147.263L159.749 146.791L159.305 146.344L158.447 145.452L157.575 144.508L157.109 143.984L156.66 143.471L156.271 143.013L155.542 142.132L154.897 141.322L154.265 140.5C147.358 131.182 143.509 119.953 143.247 108.357C145.797 109.833 148.554 110.917 151.426 111.571C152.716 111.837 154.048 111.37 154.89 110.357C155.714 109.358 155.932 107.992 155.462 106.786C150.987 95.7286 153.392 87.9629 155.44 84.0415L155.694 83.5714C163.598 88.7064 171.804 93.3636 180.265 97.5179C181.871 98.2445 183.767 97.6909 184.729 96.2143C185.707 94.7271 185.44 92.7472 184.104 91.5714C182.476 89.9292 181.456 87.7816 181.212 85.4822C187.819 87.6607 200.265 90.6786 212.229 87.8036C212.833 87.6528 213.51 87.4703 214.256 87.2622ZM179.048 116.863L179.878 117.691C185.395 123.107 224.636 158.853 284.372 145.268C285.358 145.046 286.338 145.666 286.56 146.652C286.782 147.638 286.162 148.617 285.176 148.839C276.169 150.876 266.963 151.901 257.729 151.893C227.541 151.8 198.523 140.203 176.587 119.464C175.911 118.739 175.951 117.604 176.676 116.929C177.345 116.305 178.364 116.291 179.048 116.863ZM319.418 134.737C319.25 134.121 318.767 133.641 318.15 133.478C317.533 133.315 316.876 133.493 316.426 133.946C312.819 137.571 305.337 140.589 296.89 141.804C295.904 141.873 295.16 142.728 295.229 143.714C295.298 144.701 296.154 145.444 297.14 145.375L297.39 145.393C306.712 144 314.783 140.679 318.962 136.464C319.411 136.011 319.585 135.353 319.418 134.737ZM211.176 109C233.828 121.806 260.185 126.463 285.854 122.196C286.323 122.119 286.804 122.232 287.189 122.51C287.575 122.789 287.833 123.209 287.908 123.679C287.985 124.148 287.872 124.628 287.594 125.014C287.316 125.399 286.895 125.658 286.426 125.732C280.01 126.79 273.518 127.321 267.015 127.321C246.824 127.265 226.984 122.033 209.39 112.125C208.527 111.632 208.227 110.533 208.72 109.67C209.214 108.807 210.313 108.507 211.176 109ZM272.837 103.911C261.756 103.6 250.782 101.662 240.265 98.1607C239.333 97.8542 238.329 98.3564 238.015 99.2857C237.862 99.7356 237.895 100.228 238.106 100.653C238.317 101.079 238.689 101.403 239.14 101.554C249.991 105.168 261.315 107.166 272.747 107.482H272.837C273.823 107.482 274.622 106.683 274.622 105.696C274.622 104.71 273.823 103.911 272.837 103.911Z" fill="#372168"/>
<path d="M250.854 265.786C248.882 265.786 247.283 264.187 247.283 262.215V253.857C247.283 251.885 248.882 250.286 250.854 250.286C252.827 250.286 254.426 251.885 254.426 253.857V262.215C254.426 264.187 252.827 265.786 250.854 265.786Z" fill="#372168"/>
<path d="M250.806 241.583C246.906 241.635 243.239 239.732 241.038 236.512C240.101 235.062 240.517 233.127 241.967 232.19C243.417 231.253 245.351 231.669 246.288 233.119C247.375 234.533 249.063 235.354 250.846 235.336C252.629 235.319 254.301 234.465 255.36 233.03C256.257 231.55 258.184 231.079 259.663 231.976C261.143 232.873 261.614 234.8 260.717 236.28C258.556 239.646 254.806 241.653 250.806 241.583Z" fill="#372168"/>
<path d="M288.008 220.089C295.919 220.089 295.937 207.768 288.008 207.768C280.079 207.768 280.062 220.089 288.008 220.089Z" fill="#372168"/>
<path d="M214.847 220.089C222.776 220.089 222.793 207.768 214.847 207.768C206.901 207.768 206.901 220.089 214.847 220.089Z" fill="#372168"/>
<path d="M229.765 204.5C228.842 204.506 227.952 204.154 227.283 203.518C214.265 191.018 201.694 202.196 200.301 203.518C198.862 204.777 196.687 204.68 195.366 203.297C194.046 201.914 194.048 199.737 195.372 198.357C201.747 192.232 217.658 184.357 232.23 198.357C232.915 199.013 233.311 199.914 233.331 200.862C233.351 201.81 232.993 202.727 232.337 203.411C231.663 204.108 230.735 204.501 229.765 204.5Z" fill="#372168"/>
<path d="M303.997 196.268C303.072 196.269 302.182 195.91 301.515 195.268C288.515 182.768 275.926 193.964 274.551 195.268C273.126 196.634 270.863 196.586 269.497 195.161C268.132 193.736 268.179 191.473 269.605 190.107C275.98 184 291.89 176.125 306.462 190.107C307.522 191.114 307.861 192.665 307.318 194.023C306.775 195.38 305.459 196.27 303.997 196.268Z" fill="#372168"/>
</g>
<path fill-rule="evenodd" clip-rule="evenodd" d="M0 250C0 111.929 111.929 0 250 0C388.071 0 500 111.929 500 250C500 388.071 388.071 500 250 500C111.929 500 0 388.071 0 250ZM492.857 250C492.857 115.874 384.126 7.14286 250 7.14286C115.874 7.14286 7.14286 115.874 7.14286 250C7.14286 384.126 115.874 492.857 250 492.857C384.126 492.857 492.857 384.126 492.857 250Z" fill="#372168"/>
</svg>
