<svg width="500" height="500" viewBox="0 0 500 500" fill="none" xmlns="http://www.w3.org/2000/svg">
<path fill-rule="evenodd" clip-rule="evenodd" d="M250 496.429C386.099 496.429 496.429 386.099 496.429 250C496.429 113.901 386.099 3.57153 250 3.57153C113.901 3.57153 3.57141 113.901 3.57141 250C3.57141 386.099 113.901 496.429 250 496.429Z" fill="#E7EEFF"/>
<mask id="mask0_0_280" style="mask-type:alpha" maskUnits="userSpaceOnUse" x="3" y="3" width="494" height="494">
<path fill-rule="evenodd" clip-rule="evenodd" d="M250 496.429C386.099 496.429 496.429 386.099 496.429 250C496.429 113.901 386.099 3.57153 250 3.57153C113.901 3.57153 3.57141 113.901 3.57141 250C3.57141 386.099 113.901 496.429 250 496.429Z" fill="white"/>
</mask>
<g mask="url(#mask0_0_280)">
<path fill-rule="evenodd" clip-rule="evenodd" d="M336.74 210.585C337.919 197.482 339.687 159.822 324.533 135.107C306.015 105.089 275.623 96.3212 249.926 96.7319C224.212 96.3212 193.819 105.089 175.301 135.107C160.033 159.893 161.855 197.696 163.033 210.696C163.025 210.845 163.025 210.994 163.033 211.143C163.283 213.732 163.498 215.232 163.498 215.232C163.512 215.432 163.538 215.632 163.563 215.832C163.602 216.132 163.641 216.432 163.641 216.732C163.783 218.089 163.944 219.428 164.105 220.732C165.039 228.433 166.592 236.047 168.748 243.5L169.98 247.41C170.748 249.839 171.569 252.214 172.39 254.553C172.98 256.125 173.587 257.714 174.176 259.25C174.465 260.043 174.765 260.766 175.067 261.495L175.07 261.501C175.109 261.596 175.148 261.691 175.188 261.786C175.22 261.863 175.251 261.94 175.283 262.018C180.269 274.629 187.251 286.356 195.962 296.75L196.051 296.853V358.821C197.462 367.91 221.051 375.053 249.998 375.053C278.944 375.053 302.533 367.875 303.944 358.821V296.623L304.033 296.518C312.675 286.19 319.603 274.542 324.551 262.018C324.734 261.54 324.916 261.095 325.097 260.656C325.287 260.193 325.475 259.736 325.658 259.25C326.174 257.946 326.677 256.603 327.177 255.265L327.179 255.262L327.444 254.553L327.464 254.493C336.162 256.464 347.548 254.592 354.301 244.285C363.158 230.785 359.158 215.91 349.694 211.41C345.646 209.46 340.999 209.166 336.74 210.585ZM300.158 300.839L300.316 300.674C300.394 300.593 300.471 300.512 300.547 300.431C300.435 300.562 300.323 300.692 300.212 300.821C295.684 305.618 290.614 309.872 285.105 313.5C280.354 316.719 275.207 319.25 269.817 321.044C275.188 319.251 280.316 316.726 285.051 313.518C290.56 309.89 295.63 305.635 300.158 300.839Z" fill="#FFC7BB"/>
<path d="M145.426 244.357C152.194 254.714 163.658 256.553 172.373 254.535C171.087 250.964 169.837 247.28 168.623 243.482C166.636 236.638 165.168 229.654 164.23 222.589C163.962 220.678 163.73 218.732 163.516 216.75C163.442 216.253 163.394 215.752 163.373 215.25C163.373 215.25 163.194 214.125 162.998 212.143C162.908 211.839 162.908 211.5 162.908 211.16C162.9 211.006 162.9 210.851 162.908 210.696C159.436 209.548 155.693 209.505 152.194 210.571C151.413 210.824 150.649 211.128 149.908 211.482C140.551 215.91 136.498 230.785 145.426 244.357Z" fill="#FFC7BB"/>
<path d="M47.8727 424.411C82.0512 393.911 136.891 375.482 171.087 365.589L172.426 365.197C182.551 362.268 190.766 360.125 195.926 358.661C197.337 367.714 220.926 374.893 249.855 374.893C278.783 374.893 302.391 367.75 303.819 358.661H304.105C309.212 360.125 317.355 362.232 327.408 365.143L328.623 365.5C362.748 375.375 417.676 393.822 451.944 424.429C469.763 440.386 488.57 473.662 504.788 508.036H-5.00757C11.2115 473.626 30.0329 440.311 47.8727 424.411Z" fill="#D07182"/>
<g style="mix-blend-mode:soft-light" opacity="0.4">
<path d="M282.694 393.25C271.915 395.66 260.9 396.858 249.855 396.821C213.319 396.821 182.301 384.696 171.069 365.786L172.408 365.393C182.533 362.464 190.748 360.321 195.908 358.857C197.319 367.911 220.908 375.089 249.837 375.089C278.766 375.089 302.373 367.946 303.801 358.857H304.087C309.194 360.321 317.337 362.429 327.391 365.339L328.605 365.696C323.087 375.054 312.748 382.75 299.283 388.143" fill="white"/>
</g>
<g style="mix-blend-mode:soft-light" opacity="0.4">
<path d="M282.694 393.25C271.915 395.66 260.9 396.858 249.855 396.821C213.319 396.821 182.301 384.696 171.069 365.786L172.408 365.393C182.533 362.464 190.748 360.321 195.908 358.857C197.319 367.911 220.908 375.089 249.837 375.089C278.766 375.089 302.373 367.946 303.801 358.857H304.087C309.194 360.321 317.337 362.429 327.391 365.339L328.605 365.696C323.087 375.054 312.748 382.75 299.283 388.143" fill="white"/>
</g>
<g style="mix-blend-mode:multiply" opacity="0.15">
<path fill-rule="evenodd" clip-rule="evenodd" d="M300.426 300.464V350.089C252.212 350.911 216.283 327.643 199.444 313.928V300.643L199.641 300.857C204.169 305.648 209.239 309.897 214.748 313.518C224.613 320.205 236.19 323.924 248.105 324.232H251.587C263.508 323.927 275.091 320.209 284.962 313.518C290.474 309.886 295.549 305.632 300.087 300.839L300.426 300.464Z" fill="#7C3830"/>
</g>
<path fill-rule="evenodd" clip-rule="evenodd" d="M251.152 93.1642L249.962 93.1782C230.373 92.821 194.194 97.6425 172.23 133.25C158.439 155.629 157.983 187.506 159.001 204.935L159.087 206.315C156.403 206.103 153.687 206.402 151.087 207.214C150.176 207.524 149.282 207.882 148.409 208.285C143.178 210.957 139.352 215.753 137.909 221.446C135.765 230.012 137.425 239.087 142.462 246.339C147.607 254.317 156.526 259.05 166.016 258.839L167.028 258.822C168.04 258.79 169.049 258.71 170.053 258.583L170.784 260.5C171.159 261.464 171.534 262.41 171.927 263.357C176.861 275.851 183.709 287.497 192.223 297.879L192.354 298.037V356.098L188.069 357.285C184.085 358.363 179.226 359.688 173.755 361.258L171.373 361.946L170.069 362.321C112.48 379.053 71.7302 398.464 45.4623 421.91C27.0201 438.376 7.7464 472.482 -8.92859 508.036H508.88C483.311 453.62 464.734 431.125 454.427 421.91C428.683 398.928 389.049 379.743 333.434 363.317L330.247 362.382C330.132 362.332 330.013 362.288 329.891 362.25L328.605 361.875C325.415 360.96 322.417 360.117 319.645 359.348L312.909 357.5L307.515 356.004L307.516 297.952C316.05 287.568 322.913 275.914 327.855 263.41C328.248 262.464 328.641 261.517 328.998 260.553L329.739 258.58C331.062 258.749 332.395 258.836 333.73 258.839C343.241 259.023 352.163 254.248 357.284 246.232L357.707 245.605C362.405 238.451 363.911 229.648 361.837 221.321C360.389 215.644 356.571 210.864 351.355 208.196C350.249 207.67 349.103 207.234 347.927 206.892C345.562 206.254 343.118 206.029 340.7 206.217C341.81 189.108 341.672 156.189 327.552 133.25C306.027 98.3546 270.902 93.0434 251.152 93.1642ZM269.785 377.57C290.132 375.225 302.072 369.286 306.105 363.035L311.034 364.392C313.25 364.995 315.69 365.662 318.34 366.399L323.087 367.732C317.694 374.535 309.194 380.375 298.177 384.803L297.9 384.917C296.821 385.418 296.055 386.428 295.873 387.616C295.675 388.904 296.194 390.197 297.228 390.99C298.261 391.784 299.644 391.951 300.837 391.428C314.192 386.063 324.337 378.648 330.398 369.848C384.808 385.824 424.936 405.127 449.677 427.214C465.576 441.411 482.459 470.211 497.431 500.893H2.49725C17.4298 470.292 34.3358 441.409 50.2659 427.214C74.4284 405.681 113.294 386.761 165.955 370.963L169.567 369.891C182.446 388.485 213.532 400.357 249.944 400.357C261.28 400.39 272.582 399.15 283.641 396.66C285.564 396.221 286.767 394.307 286.328 392.384C285.89 390.46 283.975 389.257 282.052 389.696C271.53 392.045 260.778 393.201 249.998 393.142C217.212 393.142 189.319 383.303 176.962 367.75L193.989 363.121C199.241 371.156 217.533 378.642 249.944 378.642C257.276 378.642 263.886 378.259 269.785 377.57ZM287.016 316.535C276.567 323.573 264.324 327.476 251.73 327.785H247.962C235.4 327.452 223.195 323.536 212.784 316.5C208.036 313.372 203.599 309.801 199.532 305.836L199.502 357.824C199.552 357.975 199.592 358.128 199.623 358.285C200.471 363.724 219.636 371.311 249.021 371.479L249.909 371.482C277.046 371.482 295.707 365.162 299.621 359.87C300.017 359.328 300.258 358.797 300.337 358.285L300.339 305.788C296.253 309.785 291.792 313.384 287.016 316.535ZM248.302 100.303L251.078 100.276C269.308 100.221 301.704 105.044 321.409 136.964C335.694 160.156 334.322 196.162 333.288 208.865L333.159 210.357V210.553L336.519 210.837H336.135L333.159 210.75C332.989 212.542 332.828 213.769 332.755 214.332L332.754 214.335C332.745 214.403 332.738 214.461 332.732 214.509C332.719 214.605 332.712 214.662 332.712 214.678V214.928C332.699 215.09 332.679 215.249 332.659 215.411C332.624 215.694 332.587 215.985 332.587 216.303C331.713 225.137 330.046 233.875 327.605 242.41C326.48 246.089 325.284 249.767 324.034 253.232L323.587 254.428C323.373 255.053 323.127 255.723 322.893 256.348L322.266 258C321.927 258.892 321.569 259.785 321.194 260.678C316.39 272.852 309.661 284.174 301.266 294.214L301.541 293.875C301.492 293.92 301.444 293.966 301.397 294.014C301.339 294.073 301.284 294.133 301.23 294.196C299.909 295.75 298.694 297.125 297.48 298.375L296.471 299.426C292.398 303.594 287.887 307.313 283.016 310.517L282.167 311.082L281.308 311.633C276.362 314.645 271.646 316.663 267.436 318.013C262.324 319.601 256.993 320.493 251.587 320.642H248.105C239.347 320.394 230.786 318.201 223.029 314.26C220.856 313.154 218.746 311.911 216.712 310.535C211.443 307.054 206.589 302.98 202.248 298.392C201.159 297.232 199.98 295.946 198.677 294.428C190.21 284.318 183.426 272.91 178.587 260.642C178.23 259.768 177.873 258.892 177.516 257.982C176.891 256.464 176.284 254.892 175.73 253.375L175.58 252.944L175.579 252.941L175.578 252.938L175.576 252.932C175.575 252.929 175.574 252.926 175.572 252.923C175.106 251.586 174.635 250.237 174.178 248.878L173.355 246.357C172.944 245.071 172.534 243.785 172.141 242.5C170.036 235.233 168.513 227.811 167.587 220.303C167.427 219.017 167.266 217.696 167.123 216.357C166.998 215.892 166.998 215.446 166.998 214.982C167.006 214.899 167.006 214.815 166.998 214.732L166.587 211.214L166.587 210.732C166.587 210.456 166.555 210.187 166.494 209.929C165.464 198.282 163.584 160.847 178.284 137C197.802 105.339 229.802 100.303 248.302 100.303ZM340.643 213.53L340.123 213.616L339.933 215.214L339.873 215.625C339.82 215.945 339.796 216.314 339.773 216.682L339.762 216.851C339.758 216.919 339.753 216.986 339.748 217.053C339.023 224.437 337.766 231.757 335.988 238.955C338.388 238.847 340.629 237.623 342.016 235.607C343.735 233.252 344.017 230.142 342.748 227.517C342.211 226.689 342.446 225.582 343.275 225.044C344.103 224.507 345.211 224.743 345.748 225.571C347.598 229.133 347.473 233.398 345.418 236.845C343.363 240.293 339.671 242.432 335.659 242.5C335.46 242.513 335.261 242.52 335.062 242.52L334.498 244.535C333.762 246.947 332.998 249.344 332.204 251.703C339.594 252.363 346.754 249.004 350.973 242.933L351.302 242.446C355.205 236.917 356.538 229.975 354.962 223.392C354.069 219.691 351.631 216.55 348.266 214.767C347.525 214.409 346.754 214.116 345.962 213.892C344.423 213.463 342.821 213.318 341.236 213.462L340.643 213.53ZM153.302 213.982C154.594 213.568 155.944 213.357 157.288 213.355L157.858 213.363C158.449 213.382 159.039 213.44 159.623 213.535L159.766 214.778C159.798 215.043 159.83 215.259 159.862 215.424L159.903 215.884C159.908 215.928 159.914 215.972 159.919 216.015C159.931 216.109 159.944 216.202 159.957 216.294C159.996 216.583 160.034 216.854 160.034 217.089C160.248 219.071 160.48 221.017 160.748 222.928C160.739 222.975 160.739 223.024 160.748 223.071C161.447 228.403 162.446 233.691 163.741 238.91C161.181 238.928 158.757 237.683 157.284 235.553C155.583 233.192 155.303 230.092 156.552 227.464C157.086 226.64 156.855 225.539 156.034 225C155.636 224.737 155.151 224.644 154.685 224.742C154.219 224.839 153.811 225.118 153.552 225.517C151.68 229.098 151.806 233.395 153.883 236.86C155.96 240.326 159.69 242.462 163.73 242.5C164.045 242.505 164.359 242.495 164.672 242.469L164.672 242.466L164.909 242.446C164.83 242.455 164.751 242.462 164.672 242.469C164.859 243.147 165.051 243.824 165.248 244.5C165.98 246.928 166.73 249.303 167.516 251.642C159.912 252.349 152.541 248.797 148.355 242.41L147.977 241.851C144.401 236.397 143.237 229.695 144.784 223.339C145.676 219.622 148.13 216.471 151.516 214.696C152.095 214.42 152.692 214.181 153.302 213.982Z" fill="#372168"/>
<path fill-rule="evenodd" clip-rule="evenodd" d="M430.837 432.821C424.296 427.042 417.324 421.77 409.98 417.053C409.444 416.705 408.764 416.67 408.194 416.96C407.625 417.251 407.254 417.822 407.221 418.46C407.188 419.098 407.498 419.705 408.034 420.053C415.224 424.672 422.053 429.83 428.462 435.482C428.785 435.775 429.204 435.94 429.641 435.946C430.154 435.945 430.642 435.724 430.98 435.339C431.635 434.604 431.571 433.478 430.837 432.821ZM164.909 242.446C164.83 242.455 164.751 242.462 164.672 242.469L164.672 242.466L164.909 242.446Z" fill="#372168"/>
<path d="M260.391 295.617C259.89 295.62 259.411 295.39 259.07 294.982C256.579 292.661 253.388 291.477 250.141 291.668C246.915 291.473 243.738 292.603 241.213 294.843C240.78 295.412 240.097 295.664 239.443 295.495C238.79 295.325 238.277 294.764 238.116 294.04C237.954 293.317 238.171 292.554 238.677 292.065C245.457 286.174 254.998 286.256 261.695 292.263C262.189 292.84 262.326 293.688 262.042 294.419C261.758 295.15 261.108 295.622 260.391 295.617Z" fill="#372168"/>
<g style="mix-blend-mode:multiply" opacity="0.15">
<path fill-rule="evenodd" clip-rule="evenodd" d="M220.497 245.119C220.497 256.02 212.502 264.856 202.64 264.856C192.778 264.856 184.783 256.02 184.783 245.119C184.783 234.219 192.778 225.382 202.64 225.382C212.502 225.382 220.497 234.219 220.497 245.119ZM316.926 245.119C316.926 256.02 308.931 264.856 299.069 264.856C289.207 264.856 281.212 256.02 281.212 245.119C281.212 234.219 289.207 225.382 299.069 225.382C308.931 225.382 316.926 234.219 316.926 245.119Z" fill="#FF1300"/>
</g>
<path fill-rule="evenodd" clip-rule="evenodd" d="M356.001 162.836C356.001 178.586 350.358 198.015 347.947 207.854C344.582 206.949 341.025 207.048 337.715 208.14L334.144 182.282C331.007 159.403 315.445 140.149 293.733 132.282C291.947 131.675 291.001 131.39 291.001 131.39C276.715 128.104 254.608 154.407 225.394 153.265C208.947 152.64 192.037 140.14 192.037 140.14C191.322 140.854 190.626 141.568 189.965 142.282C176.598 156.641 168.137 174.875 165.805 194.354L164.019 208.068C160.546 206.92 156.803 206.877 153.305 207.943C151.251 195.354 145.644 183.729 148.894 156.157C150.68 140.729 160.43 127.836 166.858 121.55C169.296 119.09 169.951 115.375 168.501 112.229C154.572 80.9075 184.965 61.3003 184.965 61.3003C188.233 70.0503 193.697 72.0146 193.697 72.0146C194.715 56.5146 210.108 53.6575 210.108 53.6575C210.108 53.6575 216.126 68.4253 235.805 72.0146C241.261 72.8813 246.844 72.4594 252.108 70.7825C262.337 67.5229 273.326 67.5229 283.555 70.7825C301.555 76.836 308.322 87.6575 310.715 93.3539C311.78 95.8284 313.737 97.8112 316.197 98.9075C345.519 112.586 356.001 136.8 356.001 162.836Z" fill="#A97B73"/>
<path fill-rule="evenodd" clip-rule="evenodd" d="M213.251 52.4077L213.382 52.7009C214.317 54.6882 220.171 65.6559 236.287 68.6041C241.185 69.3459 246.188 68.9549 250.912 67.4612C261.846 63.9582 273.602 63.9582 284.537 67.4612C303.769 73.9255 311.144 85.622 313.84 92.0327C314.509 93.5541 315.685 94.7906 317.161 95.5354L317.537 95.7112C345.019 108.443 359.537 131.64 359.537 162.836C359.537 176.801 355.34 193.193 352.554 204.033L352.193 205.501C352.065 206.008 351.94 206.494 351.82 206.961L351.819 206.966C351.662 207.576 351.513 208.156 351.376 208.711C351.146 209.65 350.544 210.456 349.71 210.944C348.968 211.377 348.098 211.527 347.26 211.373L346.947 211.301C344.244 210.577 341.388 210.664 338.733 211.551C338.408 211.683 338.065 211.768 337.715 211.801C337.038 211.807 336.374 211.614 335.804 211.247C334.92 210.686 334.326 209.766 334.179 208.729L330.447 182.783C327.51 161.232 312.839 143.099 292.376 135.729L290.993 135.257C290.449 135.078 290.091 134.968 289.954 134.926L289.894 134.908C285.535 133.914 279.076 137.149 271.55 141.308L266.719 143.991C255.255 150.327 241.251 157.528 225.09 156.908C211.465 156.39 197.876 148.479 192.34 144.872C179.8 158.412 171.749 175.483 169.271 193.752L167.34 208.604C167.204 209.65 166.612 210.582 165.723 211.151C164.834 211.719 163.74 211.865 162.733 211.551C160.122 210.673 157.316 210.576 154.657 211.266L154.09 211.426C153.103 211.74 152.028 211.609 151.144 211.068C150.258 210.527 149.652 209.628 149.483 208.604C149.073 206.029 148.482 203.454 147.863 200.755L147.697 200.033C144.052 186.12 143.092 171.646 144.862 157.382L145.054 155.908C147.304 136.872 160.179 122.961 164.072 119.158C165.393 117.824 165.782 115.841 165.09 114.12L164.947 113.801C149.947 80.0862 182.412 58.6398 182.804 58.4434C183.718 57.8583 184.848 57.7204 185.876 58.0684C186.896 58.4073 187.71 59.1879 188.09 60.1934C188.815 62.1892 189.852 64.0576 191.162 65.7291C194.099 57.7668 200.963 51.9033 209.287 50.247C210.953 49.9347 212.61 50.8376 213.251 52.4077ZM311.219 100.109L310.478 100.821C302.405 108.658 295.731 117.816 290.742 127.899C291.069 127.948 291.393 128.011 291.715 128.086L291.836 128.105C292.206 128.187 293.262 128.529 294.84 129.086C317.787 137.326 334.259 157.63 337.59 181.783L340.715 203.854L341.238 203.801C344.313 178.412 341.433 165.097 339.376 159.336C339.162 158.733 339.286 158.062 339.702 157.576C340.117 157.089 340.76 156.861 341.389 156.978C342.018 157.094 342.537 157.537 342.751 158.14L342.992 158.837C345.514 166.351 347.675 180.051 344.832 203.808L345.287 203.854L345.542 202.862C345.586 202.695 345.632 202.527 345.679 202.354L346.705 198.314C349.285 188.051 352.429 174.413 352.429 162.926C352.429 134.672 339.979 114.363 315.405 102.604L314.572 102.211C313.352 101.665 312.226 100.955 311.219 100.109ZM205.816 58.9404L206.038 58.8287C204.705 64.6202 205.223 73.7917 216.572 82.8362C216.886 83.0883 217.277 83.2268 217.679 83.2291C218.439 83.2323 219.117 82.755 219.37 82.0392C219.624 81.3234 219.397 80.5257 218.804 80.0505C208.951 72.1411 208.365 64.522 209.414 59.7653C219.241 73.4237 236.796 79.3519 253.001 74.247L253.925 73.9617C263.185 71.2042 273.07 71.2993 282.287 74.247C298.296 79.6295 304.639 88.8122 307.047 94.2591L307.287 94.8184C307.687 95.7498 308.183 96.629 308.764 97.4413C305.073 100.84 294.972 111.062 286.891 127.681C281.4 128.13 275.441 131.059 268.861 134.585L265.519 136.39C253.84 142.89 240.519 150.301 225.412 149.658C212.894 149.125 199.69 140.979 195.44 138.131L193.78 136.986C192.384 136.134 190.567 136.338 189.394 137.515C188.668 138.241 187.953 138.973 187.251 139.711C173.335 154.607 164.538 173.557 162.144 193.801L160.894 203.658C160.448 203.604 160.001 203.565 159.553 203.545C157.652 180.024 163.77 158.858 164.746 155.481L164.816 155.241L164.935 154.785C165.038 154.245 164.886 153.682 164.515 153.264C164.09 152.787 163.444 152.573 162.818 152.702C162.193 152.831 161.684 153.284 161.483 153.89C156.676 170.023 154.834 186.884 156.033 203.654L156.001 203.658C155.626 201.872 155.215 200.086 154.787 198.301C151.203 184.71 150.359 170.542 152.304 156.622L152.413 155.775C154.206 142.82 162.206 130.991 169.197 124.14C172.696 120.635 173.657 115.328 171.608 110.818C166.324 99.9771 167.322 87.1253 174.215 77.2291L174.852 76.2983C176.363 74.1443 178.041 72.1153 179.872 70.2311C177.361 80.854 176.819 98.3674 193.912 112.783C194.172 112.999 194.488 113.135 194.82 113.179L195.032 113.191L195.221 113.178C195.874 113.09 196.432 112.648 196.661 112.018C196.916 111.318 196.71 110.534 196.144 110.051C178.813 95.4306 181.04 77.7144 183.874 68.5139L184.072 67.886C187.65 73.5605 191.819 75.1683 192.394 75.3541L192.712 75.448C193.674 75.6842 194.697 75.511 195.531 74.9598C196.459 74.3473 197.048 73.3379 197.126 72.2291C197.504 66.5262 200.85 61.5161 205.816 58.9404ZM201.34 128.051C207.626 131.622 217.019 135.765 226.197 136.122C234.666 136.256 243.059 134.505 250.769 130.997C251.676 130.613 252.723 131.037 253.108 131.943C253.492 132.851 253.068 133.897 252.162 134.283C244.524 137.716 236.267 139.557 227.894 139.693H226.001C216.126 139.301 206.179 134.854 199.554 131.176C198.996 130.857 198.651 130.264 198.648 129.621C198.645 128.978 198.985 128.382 199.541 128.059C200.096 127.735 200.782 127.732 201.34 128.051ZM269.876 123.14C269.646 122.725 269.261 122.419 268.806 122.288C268.35 122.158 267.862 122.213 267.447 122.443L267.215 122.568C264.929 123.842 262.596 125.122 260.215 126.408C259.5 126.794 259.135 127.614 259.328 128.404C259.522 129.193 260.224 129.753 261.037 129.765C261.303 129.751 261.564 129.684 261.804 129.568C264.322 128.265 266.679 126.961 268.947 125.693L269.197 125.568C270.054 125.084 270.358 123.998 269.876 123.14Z" fill="#372168"/>
<path d="M234.39 255.678L263.462 247.125C266.39 246.268 269.444 248.161 269.444 250.821V264.875C269.308 266.183 268.596 267.363 267.501 268.092C266.406 268.82 265.042 269.023 263.783 268.643L234.605 262.143C232.819 262.202 231.324 260.803 231.265 259.018C231.206 257.233 232.605 255.738 234.39 255.678Z" fill="#F9F9F9"/>
<path fill-rule="evenodd" clip-rule="evenodd" d="M263.087 271.696C263.673 271.829 264.272 271.895 264.872 271.893C266.708 271.886 268.485 271.249 269.908 270.089C271.565 268.806 272.535 266.828 272.533 264.732V250.678C272.49 248.552 271.452 246.569 269.73 245.321C267.669 243.824 265.033 243.363 262.587 244.071L233.515 252.625C230.516 253.287 228.419 255.999 228.533 259.069C228.647 262.138 230.939 264.687 233.98 265.125L263.087 271.696ZM235.301 259.035C235.015 258.964 234.837 258.875 234.837 258.875C234.937 258.771 235.069 258.702 235.212 258.678L264.301 250.125C264.864 249.955 265.473 250.047 265.962 250.375C266.069 250.464 266.265 250.643 266.265 250.821V264.875C266.242 265.045 266.144 265.196 265.997 265.285C265.539 265.616 264.959 265.734 264.408 265.607L235.301 259.035Z" fill="#372168"/>
<path d="M269.39 259.643H255.301C254.315 259.643 253.515 258.843 253.515 257.857C253.515 256.871 254.315 256.071 255.301 256.071H269.39C270.376 256.071 271.176 256.871 271.176 257.857C271.176 258.843 270.376 259.643 269.39 259.643Z" fill="#372168"/>
<path d="M250.806 241.583C246.906 241.636 243.239 239.732 241.038 236.512C240.101 235.062 240.517 233.127 241.967 232.19C243.417 231.253 245.351 231.669 246.288 233.119C247.375 234.533 249.063 235.354 250.846 235.336C252.629 235.319 254.301 234.465 255.36 233.03C256.257 231.55 258.184 231.079 259.663 231.976C261.143 232.874 261.614 234.8 260.717 236.28C258.556 239.646 254.806 241.653 250.806 241.583Z" fill="#372168"/>
<path d="M288.008 220.089C295.919 220.089 295.937 207.768 288.008 207.768C280.079 207.768 280.062 220.089 288.008 220.089Z" fill="#372168"/>
<path d="M214.847 220.089C222.776 220.089 222.793 207.768 214.847 207.768C206.901 207.768 206.901 220.089 214.847 220.089Z" fill="#372168"/>
<path d="M200.212 204.679C198.936 204.787 197.699 204.207 196.967 203.156C196.235 202.105 196.119 200.744 196.663 199.584C197.207 198.425 198.329 197.644 199.605 197.536C205.247 196.554 221.033 193.5 226.23 191.375C228.03 190.73 230.019 191.617 230.742 193.388C231.464 195.158 230.664 197.184 228.926 197.982C221.962 200.839 201.694 204.429 200.837 204.572C200.632 204.625 200.423 204.661 200.212 204.679Z" fill="#372168"/>
<path d="M301.73 196.607C301.522 196.625 301.313 196.625 301.105 196.607C300.248 196.465 279.98 192.875 273.015 190.018C271.835 189.533 271.003 188.456 270.833 187.191C270.663 185.926 271.18 184.667 272.19 183.887C273.2 183.108 274.549 182.926 275.73 183.411C280.908 185.536 296.694 188.59 302.337 189.572C303.613 189.68 304.734 190.461 305.278 191.62C305.822 192.78 305.706 194.141 304.974 195.192C304.243 196.243 303.006 196.823 301.73 196.715V196.607Z" fill="#372168"/>
<g opacity="0.41">
<path fill-rule="evenodd" clip-rule="evenodd" d="M308.944 217.946C308.944 229.781 299.35 239.375 287.515 239.375C275.681 239.375 266.087 229.781 266.087 217.946C266.087 206.112 275.681 196.518 287.515 196.518C289.428 196.516 291.333 196.775 293.176 197.286C294.502 197.643 295.788 198.133 297.015 198.75C304.335 202.342 308.965 209.793 308.944 217.946Z" fill="#A6E5FF"/>
<path fill-rule="evenodd" clip-rule="evenodd" d="M234.765 217.946C234.684 226.883 229.066 234.831 220.669 237.888C212.272 240.946 202.859 238.471 197.051 231.679C193.82 227.831 192.044 222.971 192.033 217.946C192.033 206.112 201.627 196.518 213.462 196.518C215.405 196.512 217.341 196.777 219.212 197.304C220.572 197.673 221.89 198.188 223.14 198.839C230.316 202.499 234.814 209.892 234.765 217.946Z" fill="#A6E5FF"/>
</g>
<g style="mix-blend-mode:soft-light" opacity="0.8">
<path d="M297.087 198.822L271.122 231.536C270.165 230.383 269.333 229.132 268.64 227.804L293.247 197.447C294.57 197.775 295.856 198.235 297.087 198.822Z" fill="white"/>
</g>
<g style="mix-blend-mode:soft-light" opacity="0.8">
<path d="M223.069 198.911L197.051 231.679C196.064 230.507 195.208 229.232 194.497 227.875L219.14 197.375C220.501 197.744 221.818 198.259 223.069 198.911Z" fill="white"/>
</g>
<path fill-rule="evenodd" clip-rule="evenodd" d="M262.587 217.875C262.587 231.682 273.78 242.875 287.587 242.875C301.394 242.875 312.587 231.682 312.587 217.875C312.587 204.068 301.394 192.875 287.587 192.875C273.78 192.875 262.587 204.068 262.587 217.875ZM269.73 218.018C269.73 208.156 277.724 200.161 287.587 200.161C297.449 200.161 305.444 208.156 305.444 218.018C305.444 227.88 297.449 235.875 287.587 235.875C277.724 235.875 269.73 227.88 269.73 218.018Z" fill="#372168"/>
<path fill-rule="evenodd" clip-rule="evenodd" d="M188.337 217.875C188.337 231.682 199.53 242.875 213.337 242.875C227.144 242.875 238.337 231.682 238.337 217.875C238.337 204.068 227.144 192.875 213.337 192.875C199.53 192.875 188.337 204.068 188.337 217.875ZM195.48 218.018C195.48 208.156 203.474 200.161 213.337 200.161C223.199 200.161 231.194 208.156 231.194 218.018C231.194 227.88 223.199 235.875 213.337 235.875C203.474 235.875 195.48 227.88 195.48 218.018Z" fill="#372168"/>
<path d="M192.051 221.518H191.515L163.122 217.286C161.266 216.902 160.033 215.135 160.313 213.261C160.593 211.386 162.289 210.057 164.176 210.232L192.569 214.447C194.541 214.59 196.024 216.305 195.881 218.277C195.738 220.249 194.023 221.732 192.051 221.589V221.518Z" fill="#372168"/>
<path d="M308.944 221.518C306.971 221.661 305.256 220.178 305.113 218.205C304.97 216.233 306.453 214.518 308.426 214.375L336.837 210.161C338.137 209.887 339.482 210.357 340.327 211.382C341.173 212.407 341.38 213.816 340.865 215.041C340.349 216.266 339.196 217.103 337.872 217.214L309.479 221.447L308.944 221.518Z" fill="#372168"/>
<path d="M266.337 219.446C265.915 219.447 265.497 219.369 265.104 219.214C248.604 213.107 236.372 219.018 236.247 219.071C235.1 219.687 233.708 219.629 232.616 218.92C231.523 218.211 230.903 216.964 230.997 215.665C231.092 214.367 231.885 213.222 233.069 212.678C233.694 212.375 248.229 205.357 267.587 212.518C269.222 213.111 270.192 214.797 269.883 216.509C269.574 218.221 268.076 219.462 266.337 219.446Z" fill="#372168"/>
</g>
<path fill-rule="evenodd" clip-rule="evenodd" d="M0 250C0 111.929 111.929 0 250 0C388.071 0 500 111.929 500 250C500 388.071 388.071 500 250 500C111.929 500 0 388.071 0 250ZM492.857 250C492.857 115.874 384.126 7.14286 250 7.14286C115.874 7.14286 7.14286 115.874 7.14286 250C7.14286 384.126 115.874 492.857 250 492.857C384.126 492.857 492.857 384.126 492.857 250Z" fill="#372168"/>
</svg>
