<svg width="500" height="500" viewBox="0 0 500 500" fill="none" xmlns="http://www.w3.org/2000/svg">
<path fill-rule="evenodd" clip-rule="evenodd" d="M250 496.429C386.099 496.429 496.429 386.099 496.429 250C496.429 113.901 386.099 3.57153 250 3.57153C113.901 3.57153 3.57141 113.901 3.57141 250C3.57141 386.099 113.901 496.429 250 496.429Z" fill="#E7EEFF"/>
<mask id="mask0_0_268" style="mask-type:alpha" maskUnits="userSpaceOnUse" x="3" y="3" width="494" height="494">
<path fill-rule="evenodd" clip-rule="evenodd" d="M250 496.429C386.099 496.429 496.429 386.099 496.429 250C496.429 113.901 386.099 3.57153 250 3.57153C113.901 3.57153 3.57141 113.901 3.57141 250C3.57141 386.099 113.901 496.429 250 496.429Z" fill="white"/>
</mask>
<g mask="url(#mask0_0_268)">
<path fill-rule="evenodd" clip-rule="evenodd" d="M336.359 210.077L336.357 210.036C337.536 196.964 339.357 159.232 324.071 134.357C305.536 104.339 275.161 95.5538 249.464 95.9823C223.732 95.5538 193.357 104.339 174.821 134.357C159.554 159.125 161.375 196.911 162.571 209.929V210.03C158.281 208.601 153.604 208.884 149.518 210.822C140.161 215.268 136.089 230.125 145.018 243.714C151.783 254.04 163.198 255.882 171.903 253.893C172.226 254.732 172.545 255.575 172.861 256.412C173.129 257.121 173.395 257.825 173.661 258.518L174.768 261.286C180.393 275.65 188.675 288.827 199.179 300.125C203.705 304.911 208.768 309.16 214.268 312.786C224.14 319.474 235.722 323.192 247.643 323.5H251.214C263.136 323.197 274.719 319.479 284.589 312.786C288.752 310.04 292.665 306.938 296.286 303.517C292.663 306.964 288.743 310.089 284.571 312.857C274.702 319.55 263.118 323.269 251.196 323.572H247.625C235.705 323.264 224.122 319.546 214.25 312.857C208.75 309.231 203.687 304.983 199.161 300.197V359.357C200.071 365.125 211.625 370.054 227.982 372.357C234.864 373.313 241.803 373.796 248.75 373.804H250C256.948 373.796 263.886 373.313 270.768 372.357C287.214 369.982 298.804 365.072 299.607 359.268V300.202L299.696 300.107C310.194 288.814 318.47 275.644 324.089 261.286L325.196 258.518C325.814 257.001 326.396 255.431 326.961 253.879C335.674 255.891 347.129 254.066 353.911 243.714C362.768 230.125 358.768 215.268 349.375 210.875C345.301 208.942 340.638 208.656 336.359 210.077ZM168.304 242.786C168.661 244.021 169.028 245.245 169.406 246.458C169.011 245.278 168.62 244.09 168.232 242.893C167.946 241.947 167.607 240.768 167.393 239.964L167.392 239.962L167.392 239.96C167.178 239.157 166.893 238.088 166.75 237.482C166.693 237.24 166.648 237.035 166.601 236.826L166.6 236.823C166.53 236.507 166.457 236.179 166.339 235.697C166.241 235.295 166.156 234.88 166.071 234.464C165.987 234.049 165.902 233.634 165.804 233.232C165.607 232.429 165.446 231.625 165.286 230.786L165.179 230.232C164.982 229.161 164.786 228.072 164.607 226.964C164.464 226.191 164.339 225.405 164.232 224.607C164.214 224.515 164.194 224.422 164.174 224.329L164.173 224.326C164.096 223.968 164.018 223.604 164.018 223.25C163.857 222.125 163.696 220.982 163.554 219.822C163.387 218.548 163.244 217.316 163.125 216.125C163.018 215.625 162.964 215.125 162.964 214.625C162.964 214.625 163.089 214.286 162.964 214.018C162.896 213.873 162.892 213.638 162.887 213.419C162.884 213.235 162.88 213.062 162.839 212.964C162.784 212.833 162.784 212.809 162.779 212.682C162.775 212.602 162.771 212.482 162.75 212.268L162.74 212.172L162.733 212.101C162.738 212.124 162.744 212.144 162.75 212.161C162.791 212.274 162.787 212.34 162.783 212.418C162.777 212.512 162.771 212.623 162.839 212.857C162.907 213.091 162.912 213.266 162.916 213.441C162.92 213.587 162.924 213.732 162.964 213.911C163.054 214.304 163.054 214.518 163.054 214.518C163.068 214.718 163.094 214.918 163.119 215.118C163.158 215.418 163.196 215.718 163.196 216.018C163.312 217.178 163.459 218.368 163.594 219.46L163.625 219.714C163.768 220.875 163.929 222.018 164.089 223.143C164.114 223.298 164.137 223.456 164.16 223.614C164.202 223.91 164.245 224.209 164.304 224.5C164.411 225.298 164.536 226.084 164.679 226.857C164.857 227.964 165.054 229.054 165.25 230.125L165.357 230.679C165.438 231.098 165.527 231.5 165.616 231.902C165.705 232.304 165.795 232.706 165.875 233.125C165.967 233.603 166.087 234.134 166.197 234.617C166.28 234.982 166.357 235.321 166.411 235.589C166.536 236.214 166.679 236.804 166.821 237.375L166.933 237.814C167.097 238.459 167.245 239.038 167.464 239.857C167.732 240.857 168.018 241.839 168.304 242.786ZM162.634 211.151C162.641 211.261 162.649 211.369 162.657 211.471C162.623 211.182 162.595 210.883 162.59 210.572C162.607 210.764 162.621 210.962 162.634 211.151Z" fill="#FFD6CB"/>
<path d="M28.5707 496.429C28.9183 495.049 29.1003 494.313 29.4544 492.974C29.7006 492.043 29.9441 491.123 30.1785 490.215C31.1785 486.643 32.1963 483.072 33.2321 479.804C33.356 479.409 33.48 479.017 33.6034 478.626C33.8711 477.778 34.1361 476.939 34.3928 476.107C34.6785 475.215 34.9642 474.322 35.2499 473.5C36.0356 471.143 36.8213 468.857 37.6071 466.661C39.3809 461.732 41.1666 457.197 42.9642 453.054C43.4106 452 43.8571 450.965 44.3035 449.965L44.5713 449.375C45.5356 447.161 46.5178 445.09 47.4999 443.125C50.2914 437.275 53.6023 431.687 57.3928 426.429C57.4429 426.354 57.4969 426.282 57.5493 426.213L57.5494 426.213C57.609 426.134 57.6667 426.058 57.7142 425.982C58.6963 424.697 59.6428 423.536 60.5535 422.536L60.6606 422.411C61.3019 421.69 61.9832 420.988 62.6596 420.292C62.8873 420.057 63.1144 419.823 63.3392 419.59C69.0978 413.797 75.4344 408.609 82.2499 404.107L84.3213 402.732C85.369 402.042 86.4404 401.363 87.5356 400.697C90.1785 399.054 92.8928 397.465 95.6964 395.911C100.321 393.34 105.107 390.911 109.982 388.607C115.875 385.822 121.875 383.25 127.839 380.822L131.893 379.215C133.053 378.75 134.232 378.304 135.464 377.875C140.678 375.893 145.857 374.072 150.911 372.375C160.696 369.09 169.964 366.34 178.143 364.072C186.607 361.732 193.857 359.911 199.196 358.625C199.17 358.875 199.17 359.126 199.196 359.375C200.107 365.143 211.696 370.09 228.018 372.375C234.899 373.331 241.838 373.814 248.786 373.822H250.036C256.983 373.814 263.922 373.331 270.804 372.375C287.25 370.054 298.839 365.09 299.643 359.286C299.66 359.066 299.66 358.845 299.643 358.625C305 359.929 312.321 361.75 320.839 364.107C328.982 366.357 338.196 369.107 347.928 372.375C354.107 374.447 360.428 376.715 366.875 379.215C370.149 380.476 373.417 381.804 376.678 383.197L380.411 384.786L383.411 386.107C390.143 389.143 396.768 392.393 403.053 395.911C406.982 398.09 410.803 400.357 414.446 402.732L415.464 403.411C417.25 404.554 419.036 405.732 420.607 406.982C425.886 410.723 430.838 414.905 435.411 419.482C436.375 420.447 437.303 421.429 438.196 422.429C439.286 423.635 440.312 424.899 441.268 426.215V426.322C442.089 427.429 442.946 428.643 443.786 429.893C446.514 434.095 448.983 438.461 451.178 442.965C452.232 445.107 453.286 447.375 454.375 449.804C455.053 451.34 455.732 452.929 456.411 454.572C456.875 455.677 457.326 456.811 457.787 457.974L457.946 458.375C458.958 460.947 459.976 463.655 461 466.5C461.786 468.697 462.571 470.982 463.357 473.34C464.262 476.113 465.173 478.994 466.089 481.982C466.219 482.421 466.351 482.863 466.484 483.306L466.488 483.32L466.489 483.323C466.738 484.154 466.989 484.994 467.232 485.84L467.341 486.219C467.689 487.426 468.073 488.762 468.429 490.054C469.054 492.268 469.089 494.089 469.642 496.429H28.5707Z" fill="#FFB07D"/>
<g style="mix-blend-mode:soft-light" opacity="0.8">
<path d="M320.929 364.089C316.518 370.839 309.143 376.197 299.679 380.161C291.583 383.427 283.114 385.677 274.464 386.857C257.921 389.19 241.133 389.19 224.589 386.857C215.891 385.664 207.373 383.396 199.232 380.107C189.822 376.143 182.5 370.786 178.107 364.036C186.572 361.696 193.822 359.875 199.161 358.589C199.135 358.839 199.135 359.09 199.161 359.339C200.072 365.107 211.661 370.054 227.982 372.339C234.864 373.295 241.803 373.778 248.75 373.786H250C256.948 373.778 263.886 373.295 270.768 372.339C287.214 370.018 298.804 365.054 299.607 359.25C299.625 359.03 299.625 358.809 299.607 358.589C305.107 359.911 312.411 361.732 320.929 364.089Z" fill="white"/>
</g>
<g style="mix-blend-mode:multiply" opacity="0.15">
<path fill-rule="evenodd" clip-rule="evenodd" d="M296.036 303.786V356.107C251.536 356.804 218.571 333.893 202.839 320.197V303.75C206.379 307.132 210.222 310.181 214.321 312.857C224.197 319.539 235.777 323.257 247.696 323.572H251.268C263.187 323.257 274.768 319.539 284.643 312.857C288.703 310.179 292.516 307.143 296.036 303.786Z" fill="#7C3830"/>
</g>
<path fill-rule="evenodd" clip-rule="evenodd" d="M251.405 92.5021L249.607 92.5181C229.965 92.1609 193.786 96.9645 172.107 132.572C158.313 154.962 157.857 186.762 158.887 204.188L158.974 205.569C155.23 205.217 151.43 205.875 147.982 207.518C142.75 210.188 138.924 214.984 137.482 220.679C135.315 229.276 136.969 238.391 142.018 245.679L142.367 246.206C147.562 253.862 156.293 258.382 165.572 258.179C166.928 258.145 168.279 258.026 169.616 257.82C169.875 258.516 170.14 259.214 170.411 259.911L171.518 262.697C177.149 276.991 185.317 290.146 195.623 301.529L195.714 301.627L195.715 355.746C189.544 357.259 183.316 358.893 177.018 360.625C167.286 363.322 158.322 366.054 149.607 368.982C143.947 370.947 138.839 372.732 134.054 374.518C133.649 374.661 133.268 374.802 132.89 374.945L129.121 376.404C128.211 376.762 127.298 377.131 126.393 377.5L123.777 378.554C118.55 380.687 113.355 382.972 108.304 385.375C103.161 387.804 98.2681 390.286 93.8038 392.786C90.7323 394.5 88.0181 396.09 85.5359 397.625L84.686 398.148C83.844 398.67 83.027 399.192 82.2502 399.715C81.5181 400.179 80.7859 400.661 80.1252 401.125C73.1183 405.706 66.5965 410.99 60.6609 416.893C60.1084 417.526 59.5607 418.081 59.0418 418.606C58.6385 419.014 58.2522 419.406 57.8931 419.804L57.7681 419.964C56.8395 420.964 55.8395 422.179 54.7324 423.643C54.6629 423.719 54.603 423.803 54.5538 423.893L54.3752 424.125L53.4065 425.489C49.8928 430.513 46.8003 435.821 44.1609 441.357C43.2936 442.952 42.5902 444.473 41.9337 445.961L41.1609 447.732L40.4341 449.369C40.1312 450.062 39.8335 450.768 39.5359 451.482L38.9407 452.892C37.3534 456.697 35.7661 460.857 34.1788 465.286C33.3931 467.5 32.5895 469.822 31.8038 472.197L31.5048 473.082L30.9109 474.875L29.3308 479.975C28.7465 481.87 28.1571 483.86 27.5661 485.923L26.6788 489.072C26.397 490.181 26.1022 491.308 25.8051 492.444L25.8033 492.45C25.4985 493.616 25.1912 494.79 24.8931 495.964L24.4109 497.75C24.2591 498.339 24.2617 499.386 24.1077 500H475.001L473.607 495.268C473.607 495.268 472.5 491.089 471.929 489.089C471.643 488.036 471.34 486.964 471.036 485.929L470.732 484.839L469.572 480.929C469.114 479.523 468.684 478.141 468.261 476.782L468.26 476.777L468.259 476.775C467.774 475.218 467.299 473.692 466.804 472.197C466.018 469.822 465.214 467.5 464.429 465.286C463.375 462.411 462.34 459.607 461.322 457.054L461.161 456.607C460.697 455.429 460.232 454.286 459.768 453.197C459.089 451.518 458.393 449.911 457.697 448.339C456.813 446.371 455.999 444.603 455.218 442.961L454.447 441.357C452.18 436.743 449.646 432.265 446.857 427.947C446.494 427.435 446.143 426.92 445.786 426.397L445.785 426.395L445.78 426.388L445.776 426.382L445.775 426.38C445.276 425.649 444.766 424.902 444.197 424.125L444.054 423.947C442.893 422.375 441.786 421.018 440.84 419.982C439.893 418.947 438.911 417.893 437.929 416.911C433.212 412.19 428.105 407.877 422.661 404.018C420.875 402.732 419.107 401.518 417.447 400.447C417.072 400.197 416.697 399.929 416.375 399.732L415.181 398.96C411.971 396.906 408.544 394.879 404.75 392.768C398.697 389.411 392.179 386.161 384.786 382.84L381.732 381.5L380.786 381.089L378 379.893C374.804 378.536 371.572 377.232 368.089 375.875C362.036 373.518 355.786 371.268 348.982 368.982C340.197 366.018 331.018 363.232 321.714 360.661C316.142 359.113 311.158 357.818 307.021 356.777L303.177 355.82L303.18 301.869C313.65 290.402 321.936 277.115 327.625 262.661L328.75 259.84C328.994 259.208 329.236 258.57 329.475 257.934C330.756 258.092 332.047 258.174 333.34 258.179C342.78 258.375 351.652 253.682 356.804 245.768L357.228 245.139C361.94 237.958 363.446 229.123 361.357 220.768C359.904 215.075 356.072 210.281 350.839 207.607C347.544 206.034 343.923 205.364 340.34 205.62C341.456 188.523 341.341 155.535 327.197 132.59C305.857 98.0333 271.243 92.4937 251.405 92.5021ZM174.31 368.941L176.707 368.261C181.449 374.391 188.538 379.467 197.822 383.375C206.269 386.798 215.112 389.15 224.143 390.375C232.577 391.588 241.087 392.184 249.607 392.161C258.096 392.211 266.576 391.644 274.982 390.464C283.919 389.235 292.669 386.908 301.036 383.536C310.438 379.612 317.599 374.466 322.363 368.292C330.744 370.648 339.002 373.193 346.947 375.857C353.643 378.107 359.786 380.322 365.732 382.643C369.143 383.964 372.322 385.25 375.465 386.589L379.161 388.161L382.089 389.464C389.286 392.697 395.643 395.857 401.518 399.125C405.607 401.411 409.286 403.607 412.75 405.857L414.713 407.143C416.03 408.014 417.375 408.943 418.732 409.929C423.828 413.56 428.607 417.616 433.018 422.054L433.027 422.063L433.028 422.064L433.031 422.067C433.92 422.973 434.826 423.898 435.697 424.893C436.703 425.999 437.645 427.162 438.518 428.375L438.679 428.572C439.554 429.732 440.304 430.839 441.036 431.964C443.67 436.043 446.056 440.277 448.179 444.643L448.549 445.397C449.169 446.67 449.807 448.032 450.479 449.51L451.304 451.34C451.982 452.857 452.643 454.411 453.322 456.054L453.768 457.136C454.066 457.865 454.363 458.607 454.661 459.357L454.822 459.786C455.804 462.268 456.822 464.964 457.839 467.804L458.426 469.444C459.009 471.102 459.585 472.813 460.161 474.554L460.71 476.209C461.439 478.434 462.161 480.728 462.875 483.089L463.286 484.464L464.322 488C464.411 488.319 464.502 488.639 464.594 488.962C464.796 489.67 465 490.389 465.197 491.125L465.75 493.125L33.0362 492.857L34.0604 489.595C34.9505 486.425 35.8373 483.427 36.6966 480.661L37.8574 476.982C37.9278 476.767 37.9972 476.553 38.066 476.341L38.0746 476.315L38.077 476.307C38.2834 475.671 38.4851 475.05 38.6966 474.429L39.1662 473.034C39.7902 471.187 40.4074 469.389 41.0359 467.661C42.6966 462.804 44.4824 458.304 46.2681 454.232C46.6966 453.214 47.1431 452.197 47.5716 451.232L48.3808 449.399C49.0916 447.809 49.8574 446.2 50.7145 444.5C53.4042 438.864 56.6019 433.485 60.2681 428.429L60.6252 427.929L60.9123 427.567C61.7565 426.503 62.4952 425.571 63.0895 424.929L63.3574 424.643C64.1074 423.75 65.0002 422.857 65.8931 421.964C71.4951 416.4 77.6454 411.416 84.2502 407.089L86.2859 405.75C87.3038 405.089 88.3216 404.429 89.4109 403.768L90.3253 403.204C92.4835 401.882 94.8194 400.525 97.4288 399.072C101.75 396.714 106.482 394.304 111.5 391.929C117.268 389.197 123.214 386.607 129.214 384.232L130.403 383.75L134.381 382.179C135.139 381.883 135.905 381.589 136.679 381.304L138.107 380.768C141.462 379.517 144.969 378.262 148.722 376.972L152 375.857C159.158 373.447 166.502 371.172 174.31 368.941ZM184.393 366.157C188.516 365.055 192.642 363.992 196.732 362.982C201.168 370.96 217.454 374.461 226.094 375.788L227.536 376C234.583 376.981 241.689 377.476 248.804 377.482H250.072C257.181 377.477 264.281 376.981 271.322 376C279.216 374.897 296.294 371.631 301.647 363.858C301.843 363.579 302.024 363.294 302.189 363.003L302.186 363.002L302.25 362.893C302.23 362.93 302.21 362.966 302.189 363.003C304.675 363.572 307.543 364.297 310.758 365.145L314.781 366.219C310.113 370.867 304.525 374.491 298.375 376.857L296.904 377.436C289.53 380.27 281.85 382.24 274.018 383.304C257.825 385.589 241.39 385.589 225.197 383.304C216.793 382.154 208.564 379.971 200.697 376.804C194.553 374.41 188.976 370.761 184.322 366.089L184.393 366.157ZM202.804 308.572V358.947C203.589 361.697 211.875 366.429 228.554 368.768C235.275 369.706 242.053 370.177 248.839 370.179H250.072C256.852 370.176 263.624 369.705 270.34 368.768C277.467 367.762 283.059 366.326 287.189 364.797L287.549 364.662C293.011 362.567 295.752 360.324 295.964 358.786C295.966 358.444 296.014 358.107 296.105 357.784L296.108 308.727C293.577 310.921 290.923 312.971 288.159 314.868L286.768 315.804C277.842 321.844 267.593 325.583 256.933 326.73C255.026 326.945 253.107 327.077 251.179 327.125H247.697L247.583 327.12L247.554 327.125C245.591 327.072 243.637 326.932 241.697 326.706L239.892 326.47L238.853 326.312L237.354 326.054L236.156 325.822C228.056 324.177 220.306 321.02 213.323 316.484L212.375 315.857C209.015 313.66 205.817 311.225 202.804 308.572ZM247.787 99.6841L249.465 99.6967C267.482 99.4109 300.768 103.75 320.893 136.375C335.178 159.533 333.806 195.554 332.772 208.258L332.643 209.75V209.982L335.894 210.258L332.697 210.179L332.695 210.199L332.643 210.197C332.56 211 332.48 211.699 332.412 212.273L332.179 214.072C332.17 214.173 332.17 214.274 332.179 214.375L332.072 215.732C331.786 218.304 331.518 220.518 331.161 222.875C330.804 225.232 330.411 227.518 330 229.679L329.793 230.775C329.649 231.508 329.494 232.238 329.34 232.929L328.883 234.995L328.643 236.018V236.179C328.527 236.679 328.406 237.152 328.286 237.612L327.929 238.964L327.93 239.159C327.69 240.117 327.433 240.953 327.161 241.822L326.784 243.038L326.453 244.077L326.375 244.304C325.572 246.929 324.661 249.661 323.572 252.661V252.839C323.142 254.042 322.69 255.244 322.251 256.409L321.929 257.268L320.266 261.407C314.81 274.796 306.985 287.096 297.161 297.714L297.491 297.352C297.344 297.461 297.203 297.582 297.072 297.714C292.739 302.311 287.885 306.386 282.607 309.857L281.732 310.443C272.643 316.406 262.061 319.714 251.179 319.982H247.697C247.338 319.973 246.979 319.96 246.62 319.944L245.709 319.896L244.376 319.798C234.345 318.949 224.68 315.534 216.322 309.857L215.113 309.046C210.31 305.76 205.871 301.967 201.875 297.732C201.772 297.624 201.663 297.522 201.546 297.433C191.505 286.512 183.571 273.827 178.143 260.018L177.054 257.304C176.869 256.822 176.685 256.332 176.5 255.838L175.393 252.857L175.072 252.679C173.822 249.197 172.625 245.536 171.5 241.822C171.375 241.395 171.233 240.89 171.099 240.407L171.097 240.402L170.967 239.935L170.598 238.662C170.532 238.425 170.466 238.167 170.398 237.893L169.991 236.244C169.968 236.145 169.946 236.047 169.924 235.946C169.907 235.869 169.889 235.79 169.872 235.71C169.812 235.434 169.747 235.137 169.661 234.786L169.484 234.043C169.367 233.54 169.256 233.024 169.161 232.5V232.322C168.982 231.589 168.822 230.839 168.679 230.036L168.572 229.536L167.877 225.543C167.796 225.064 167.72 224.572 167.661 224.072C167.661 224.048 167.675 224.042 167.689 224.036C167.716 224.024 167.744 224.012 167.661 223.857C167.536 223.625 167.536 223.375 167.536 223.143V222.679C167.482 222.316 167.431 221.945 167.38 221.57L166.954 218.447C166.841 217.577 166.737 216.67 166.643 215.732L166.543 214.826L166.518 214.375C166.528 214.262 166.528 214.149 166.518 214.036L166.321 212.39L166.322 211.75C166.31 211.605 166.289 211.447 166.266 211.274C166.218 210.912 166.161 210.483 166.161 209.964L166.15 209.69C166.129 209.418 166.078 209.153 165.998 208.899L165.907 207.817C164.874 194.745 163.647 159.321 177.804 136.375C197.342 104.729 229.281 99.6968 247.787 99.6841ZM340.114 212.879L339.767 212.935L339.563 214.58C339.537 214.767 339.516 214.908 339.5 215L339.393 216.34C339.127 218.824 338.862 221.062 338.56 223.078L338.429 223.929L338.334 224.521L338.333 224.528C337.999 226.619 337.623 228.971 337.232 231.072C337.089 231.857 336.939 232.627 336.78 233.392L336.536 234.536L336.479 234.795C336.255 235.819 336.07 236.666 335.839 237.589V237.768L335.67 238.453C338.062 238.329 340.29 237.109 341.679 235.107C343.397 232.746 343.679 229.631 342.411 227C341.88 226.172 342.119 225.069 342.947 224.536C343.775 224.005 344.878 224.244 345.411 225.072C347.292 228.649 347.173 232.947 345.098 236.415C343.023 239.883 339.291 242.02 335.25 242.054L335.322 242.089C335.12 242.089 334.919 242.081 334.718 242.067L334.461 242.972L334.197 243.857C333.893 244.857 333.643 245.643 333.339 246.5C332.897 247.941 332.408 249.455 331.871 251.043L331.732 251.036C339.141 251.719 346.329 248.374 350.581 242.306L350.911 241.822C354.771 236.266 356.071 229.326 354.482 222.75C353.59 219.044 351.152 215.897 347.786 214.107C345.57 213.04 343.112 212.598 340.676 212.816L340.114 212.879ZM151.036 214.054C152.87 213.175 154.877 212.717 156.911 212.715C157.733 212.727 158.552 212.817 159.357 212.982V213.393C159.413 213.589 159.416 213.756 159.418 213.914C159.42 214.058 159.422 214.195 159.464 214.34C159.518 214.522 159.54 214.678 159.548 214.805L159.554 215.018C159.583 215.509 159.636 215.997 159.714 216.482C159.756 216.911 159.802 217.338 159.849 217.761L160.143 220.25C160.286 221.465 160.447 222.625 160.625 223.822V224.232L160.786 225.197C160.84 225.607 160.902 226.018 160.967 226.415L161.35 228.679C161.465 229.334 161.589 229.991 161.713 230.653L161.768 230.947L161.857 231.465L162.462 234.335L162.929 236.447L163.357 238.232V238.429L163.375 238.5C160.829 238.502 158.422 237.251 156.964 235.125C155.259 232.765 154.985 229.659 156.25 227.036C156.781 226.207 156.542 225.105 155.715 224.572C154.886 224.041 153.784 224.28 153.25 225.107C151.369 228.684 151.488 232.983 153.563 236.451C155.638 239.919 159.37 242.056 163.411 242.089C163.716 242.095 164.021 242.085 164.325 242.061L164.433 242.052L164.59 242.036C164.537 242.042 164.485 242.047 164.433 242.052C164.397 242.055 164.361 242.058 164.325 242.061L164.321 242.061L164.84 243.84C165.572 246.268 166.322 248.643 167.107 250.982C159.504 251.688 152.13 248.145 147.929 241.768L147.55 241.208C143.974 235.755 142.811 229.053 144.357 222.697C145.244 218.993 147.675 215.846 151.036 214.054Z" fill="#372168"/>
<path fill-rule="evenodd" clip-rule="evenodd" d="M302.189 363.003C302.21 362.966 302.23 362.93 302.25 362.893L302.186 363.002L302.189 363.003ZM164.433 242.052L164.59 242.036C164.537 242.042 164.485 242.047 164.433 242.052Z" fill="#372168"/>
<g style="mix-blend-mode:multiply" opacity="0.15">
<path fill-rule="evenodd" clip-rule="evenodd" d="M218.75 249.583C218.75 260.484 210.755 269.32 200.893 269.32C191.031 269.32 183.036 260.484 183.036 249.583C183.036 238.683 191.031 229.846 200.893 229.846C210.755 229.846 218.75 238.683 218.75 249.583ZM315.178 249.583C315.178 260.484 307.184 269.32 297.321 269.32C287.459 269.32 279.464 260.484 279.464 249.583C279.464 238.683 287.459 229.846 297.321 229.846C307.184 229.846 315.178 238.683 315.178 249.583Z" fill="#FF1300"/>
</g>
<path fill-rule="evenodd" clip-rule="evenodd" d="M263.375 281.572C251.25 288.304 244 276.214 241.464 270.857C247.17 269.636 252.589 267.332 257.429 264.072C265.161 269.839 271.464 277.072 263.375 281.572Z" fill="#FF6666"/>
<path fill-rule="evenodd" clip-rule="evenodd" d="M252.036 285.804C253.454 286.27 254.936 286.511 256.429 286.518C259.353 286.42 262.205 285.578 264.714 284.072C268.911 281.786 269.929 278.875 270.071 276.822C270.393 272.286 266.821 267.322 259.179 261.572C258.153 260.838 256.775 260.838 255.75 261.572C251.227 264.623 246.158 266.775 240.821 267.911C239.944 268.099 239.201 268.676 238.801 269.479C238.401 270.282 238.389 271.223 238.768 272.036C240.714 276.197 245 283.518 252.036 285.804ZM245.841 272.703C245.828 272.683 245.816 272.663 245.803 272.643V272.714C245.816 272.711 245.828 272.707 245.841 272.703ZM253.857 280.125C250.328 278.99 247.627 275.566 245.841 272.703C249.856 271.477 253.691 269.727 257.25 267.5C263.857 272.857 264.25 275.571 264.196 276.429C264.143 277.286 263.375 278.125 261.928 278.929C259.539 280.479 256.594 280.916 253.857 280.125Z" fill="#372168"/>
<path d="M232.089 274.839C231.75 274.862 231.41 274.862 231.071 274.839C230.29 274.798 229.556 274.447 229.034 273.864C228.511 273.281 228.242 272.514 228.286 271.732C228.322 270.95 228.673 270.216 229.257 269.695C229.842 269.174 230.612 268.911 231.393 268.964C234.56 269.01 237.72 268.668 240.804 267.946C242.378 267.623 243.922 268.621 244.273 270.19C244.623 271.758 243.652 273.319 242.089 273.696C238.806 274.434 235.454 274.817 232.089 274.839Z" fill="#372168"/>
<path d="M255.482 274.643C254.888 274.644 254.333 274.349 254 273.857C252.832 272.094 251.398 270.522 249.75 269.197C249.016 268.585 248.893 267.504 249.472 266.743C250.051 265.983 251.125 265.813 251.911 266.357C253.875 267.907 255.575 269.765 256.946 271.857C257.504 272.671 257.296 273.782 256.482 274.339C256.183 274.532 255.837 274.637 255.482 274.643Z" fill="#372168"/>
<path d="M257.411 266.946C256.135 266.925 255.019 266.084 254.644 264.864C254.27 263.645 254.724 262.323 255.768 261.589C258.258 259.91 260.552 257.958 262.607 255.768C263.314 254.945 264.416 254.578 265.475 254.811C266.534 255.044 267.38 255.84 267.676 256.884C267.972 257.927 267.672 259.049 266.893 259.804C264.539 262.317 261.909 264.557 259.054 266.482C258.565 266.798 257.993 266.959 257.411 266.946Z" fill="#372168"/>
<path d="M249.059 246.94C245.159 246.993 241.492 245.089 239.291 241.869C238.354 240.419 238.77 238.484 240.219 237.548C241.669 236.611 243.604 237.026 244.541 238.476C245.628 239.89 247.316 240.711 249.099 240.694C250.882 240.676 252.553 239.822 253.612 238.387C254.51 236.907 256.437 236.436 257.916 237.333C259.395 238.231 259.867 240.157 258.969 241.637C256.809 245.003 253.058 247.011 249.059 246.94Z" fill="#372168"/>
<path d="M293.506 224.089C292.409 224.089 291.392 223.513 290.828 222.572C289.769 221.137 288.097 220.282 286.314 220.265C284.531 220.247 282.843 221.068 281.756 222.482C281.183 223.486 280.103 224.092 278.948 224.057C277.792 224.023 276.75 223.353 276.239 222.316C275.728 221.279 275.831 220.045 276.506 219.107C278.76 215.888 282.459 213.99 286.389 214.036C290.319 214.083 293.972 216.068 296.149 219.339C296.723 220.304 296.739 221.503 296.19 222.483C295.641 223.463 294.611 224.075 293.488 224.089H293.506Z" fill="#372168"/>
<path d="M220.279 224C219.19 224.004 218.179 223.434 217.619 222.5C216.56 221.065 214.888 220.211 213.105 220.193C211.322 220.176 209.634 220.997 208.547 222.411C207.941 223.348 206.881 223.892 205.765 223.836C204.65 223.78 203.65 223.133 203.14 222.139C202.631 221.146 202.691 219.956 203.297 219.018C205.556 215.806 209.253 213.914 213.18 213.961C217.106 214.007 220.757 215.986 222.94 219.25C223.372 219.957 223.504 220.808 223.306 221.612C223.108 222.417 222.597 223.11 221.886 223.536C221.406 223.84 220.848 224.001 220.279 224Z" fill="#372168"/>
<path d="M285.946 205.375C281.257 205.396 276.572 205.08 271.929 204.429C270.653 204.244 269.572 203.392 269.095 202.194C268.617 200.997 268.814 199.635 269.612 198.623C270.411 197.61 271.688 197.101 272.964 197.286C281.905 198.408 290.952 198.408 299.893 197.286C301.865 197.005 303.692 198.376 303.973 200.348C304.254 202.321 302.883 204.147 300.911 204.429C295.949 205.071 290.95 205.387 285.946 205.375Z" fill="#372168"/>
<path d="M198.25 204.464C196.278 204.627 194.547 203.16 194.384 201.188C194.221 199.215 195.688 197.484 197.661 197.322C197.804 197.322 211.839 194.893 225.697 192.893C227.669 192.612 229.496 193.983 229.777 195.955C230.058 197.928 228.687 199.755 226.714 200.036C212.947 202.036 199 204.411 198.857 204.429C198.656 204.459 198.453 204.471 198.25 204.464Z" fill="#372168"/>
<path fill-rule="evenodd" clip-rule="evenodd" d="M149.72 211.218C153.812 209.278 158.496 208.996 162.791 210.432C162.059 204.379 163.202 174.236 163.202 174.236C173.303 169.821 184.082 167.158 195.077 166.361C195.077 166.361 196.309 146.432 202.934 139.754C202.934 139.754 204.255 163.914 207.827 166.664C207.827 166.664 281.363 153.95 336.72 178.2C336.773 178.986 336.988 182.7 336.988 183.557C337.46 192.528 337.299 201.52 336.505 210.468C340.795 209.033 345.473 209.315 349.559 211.254C351.415 212.146 353.059 213.424 354.38 215.004C358.198 212.481 361.337 209.059 363.523 205.039C378.071 178.856 379.271 147.307 366.755 120.093C366.51 119.545 366.249 119.012 365.99 118.481C365.758 118.008 365.528 117.537 365.309 117.057C334.541 48.6287 253.113 50.7716 253.113 50.7716H249.416C233.62 51.1637 217.971 53.9143 202.988 58.9323C147.113 76.8966 112.363 139.789 131.898 196.932C134.508 204.34 138.281 211.284 143.077 217.504C144.604 214.785 146.92 212.593 149.72 211.218ZM427.88 304.04C424.791 254.468 354.023 244.075 354.023 244.075C347.238 254.432 335.773 256.254 327.059 254.236C299.952 388.95 430.988 353.611 427.88 304.04ZM71.2733 304.075C74.3626 254.504 145.13 244.111 145.13 244.111C151.916 254.468 163.38 256.29 172.095 254.272C199.202 388.986 68.1483 353.647 71.2733 304.075Z" fill="#784A42"/>
<path fill-rule="evenodd" clip-rule="evenodd" d="M337.127 75.2821L335.889 74.3197L334.791 73.4918C301.796 48.9107 261.725 47.2939 254.329 47.2031L249.291 47.2002C233.137 47.6063 217.134 50.417 201.809 55.5395C176.065 64.0748 154.272 81.3749 140.114 104.241C115.808 135.427 110.208 175.745 109.994 177.784L109.973 178.097C109.975 178.488 110.105 178.871 110.348 179.184C110.64 179.559 111.069 179.803 111.541 179.861H111.755C112.657 179.858 113.415 179.184 113.523 178.289L113.527 178.263C113.649 177.345 116.498 155.934 127.278 132.521C120.944 153.819 121.249 176.723 128.434 198.093C131.172 205.859 135.126 213.14 140.148 219.664C140.823 220.552 141.873 221.074 142.988 221.075L143.309 221.111C144.5 221.031 145.572 220.361 146.166 219.325C147.339 217.238 149.112 215.552 151.255 214.486C154.537 212.926 158.298 212.708 161.738 213.879C162.884 214.233 164.133 213.988 165.06 213.226C165.988 212.464 166.47 211.287 166.345 210.093C166.009 206.933 166.196 195.866 166.446 186.335L166.738 176.557C175.841 172.804 185.487 170.537 195.309 169.843C197.118 169.737 198.561 168.294 198.666 166.486C198.965 162.173 199.61 157.892 200.595 153.682C201.559 161.093 203.148 167.504 205.702 169.432C206.489 170.022 207.483 170.261 208.452 170.093C209.184 169.968 279.845 158.164 333.291 180.522C333.306 180.787 333.321 181.059 333.337 181.327C333.382 182.122 333.426 182.889 333.444 183.387L333.452 183.754C333.909 192.552 333.748 201.371 332.97 210.147C332.862 211.338 333.358 212.505 334.291 213.254C335.219 214 336.458 214.234 337.595 213.879C341.023 212.721 344.765 212.933 348.041 214.468C349.418 215.153 350.635 216.121 351.613 217.307C352.773 218.687 354.779 218.986 356.291 218.004C360.582 215.161 364.118 211.319 366.595 206.807C381.792 179.657 383.054 146.867 369.988 118.629L369.67 117.934C369.506 117.581 369.341 117.236 369.202 116.968C368.97 116.522 368.755 116.057 368.541 115.593C365.334 108.464 361.585 102.077 357.436 96.3593C369.999 109.096 382.052 126.737 387.47 150.218C387.664 151.042 388.41 151.616 389.255 151.594C389.346 151.589 389.435 151.577 389.523 151.557C389.985 151.451 390.386 151.165 390.637 150.764C390.888 150.362 390.969 149.876 390.863 149.414C382.112 111.234 356.333 88.0406 338.269 76.0334L337.127 75.2821ZM141.349 241.167L141.06 241.225C120.388 236.893 101.316 245.963 100.452 246.379L100.272 246.479C99.639 246.881 99.3181 247.644 99.4905 248.389C99.6786 249.201 100.404 249.775 101.238 249.772C101.51 249.773 101.778 249.712 102.023 249.593C102.176 249.44 115.17 243.321 130.813 243.662C122.935 245.853 115.255 248.733 107.863 252.272C82.9876 264.379 69.1126 282.2 67.7733 303.843L67.7383 304.511C67.1333 319.205 77.3005 334.056 94.4161 343.379L95.402 343.924C104.971 349.11 115.664 351.892 126.559 352.022C137.597 352.222 148.416 348.928 157.47 342.611C171.863 332.004 186.702 307.95 175.773 253.557C175.583 252.608 175.016 251.777 174.202 251.254C173.389 250.727 172.396 250.553 171.452 250.772C164.059 252.468 154.113 251.057 148.238 242.129C147.464 240.943 146.063 240.327 144.666 240.557C143.557 240.747 142.451 240.951 141.349 241.167ZM360.3 241.623C358.431 241.223 356.552 240.862 354.666 240.539C353.269 240.309 351.869 240.926 351.095 242.111C345.166 251.075 335.22 252.45 327.88 250.754C326.936 250.535 325.944 250.709 325.13 251.236C324.32 251.755 323.753 252.579 323.559 253.522C312.831 306.844 326.886 331.012 340.999 341.94L341.863 342.593C350.874 348.872 361.631 352.158 372.613 351.986C383.944 351.882 395.064 348.909 404.934 343.343L405.707 342.915C422.611 333.409 432.492 318.496 431.577 303.807L431.522 303.008C429.893 281.743 416.055 264.211 391.488 252.254C385.505 249.389 379.334 246.957 373.021 244.974C384.225 245.243 398.689 246.985 411.291 252.968C411.531 253.084 411.793 253.145 412.059 253.147V253.129C412.889 253.124 413.607 252.547 413.79 251.737C413.974 250.927 413.574 250.098 412.827 249.736C394.351 240.953 372.654 240.842 361.391 241.549L360.3 241.623ZM355.702 248.039C355.221 248.647 354.718 249.23 354.195 249.79L354.992 249.978C367.123 252.921 392.22 262.184 405.238 289.575C405.446 290.004 405.474 290.497 405.316 290.946C405.159 291.396 404.828 291.764 404.398 291.968C404.181 292.077 403.944 292.144 403.702 292.164C403.015 292.163 402.39 291.767 402.095 291.147C388.292 262.21 360.322 254.562 350.918 252.769C349.821 253.624 348.662 254.389 347.456 255.063L348.239 255.682C353.729 260.103 362.058 268.431 365.095 280.057C365.344 281.009 364.777 281.983 363.827 282.236C363.7 282.28 363.568 282.304 363.434 282.307C362.599 282.334 361.857 281.777 361.648 280.968C358.443 268.744 348.441 260.209 343.764 256.783C341.734 257.558 339.61 258.094 337.438 258.376L337.396 260.062C337.244 268.947 337.919 288.216 345.595 303.915C346.033 304.797 345.673 305.868 344.791 306.307C344.546 306.426 344.278 306.487 344.005 306.486C343.323 306.487 342.699 306.099 342.398 305.486C333.88 288.038 333.556 267.057 333.826 258.606C332.529 258.605 331.222 258.512 329.916 258.325C320.988 306.54 333.666 327.682 346.095 336.897C362.47 348.95 385.666 345.7 401.452 337.129C416.118 329.137 424.859 316.826 424.427 304.903L424.398 304.307C421.809 262.897 367.255 250.236 355.702 248.039ZM141.976 248.335L143.541 248.022C144.244 248.907 144.994 249.742 145.789 250.521C135.318 253.066 119.534 260.796 107.023 274.307C106.541 274.827 106.412 275.583 106.695 276.233C106.977 276.884 107.618 277.305 108.327 277.307C108.822 277.306 109.294 277.099 109.63 276.736C122.368 263.012 139.463 255.008 149.257 253.436C150.363 254.221 151.522 254.921 152.722 255.532C141.058 265.454 136.403 279.42 136.202 280.057L136.149 280.259C135.972 281.134 136.475 282.023 137.345 282.307C137.528 282.333 137.715 282.333 137.898 282.307C138.648 282.32 139.325 281.864 139.595 281.165C139.658 280.974 144.525 266.371 156.45 257.106C158.225 257.707 160.063 258.131 161.937 258.363C162.934 265.12 164.531 282.371 157.863 299.182C157.508 300.094 157.954 301.122 158.863 301.486C159.073 301.569 159.297 301.611 159.523 301.611C160.262 301.619 160.929 301.172 161.202 300.486C167.647 284.152 166.813 267.883 165.785 259.809L165.619 258.583C166.85 258.573 168.088 258.483 169.327 258.307C178.291 306.664 165.63 327.718 153.13 336.879C136.702 348.932 113.505 345.682 97.7733 337.111C82.8804 328.986 74.0768 316.414 74.8447 304.289L74.9389 303.056C78.4118 264.244 127.932 251.252 141.976 248.335ZM101.377 282.629C102.038 282.66 102.627 283.054 102.909 283.653C103.159 284.185 103.129 284.802 102.84 285.304L102.72 285.486C100.318 289.073 98.3007 292.904 96.7018 296.914C96.4311 297.594 95.7729 298.04 95.0411 298.04C94.8157 298.033 94.5928 297.99 94.3804 297.914C93.9397 297.74 93.5866 297.397 93.399 296.961C93.2114 296.526 93.2047 296.033 93.3804 295.593C95.0807 291.353 97.2172 287.302 99.7554 283.504C100.092 282.934 100.716 282.598 101.377 282.629ZM253.13 54.1629C252.907 54.1934 252.686 54.2412 252.47 54.3073H249.47C233.993 54.669 218.659 57.3661 203.988 62.3073C176.638 71.395 154.049 91.027 141.238 116.843C128.577 142.111 126.416 170.129 135.202 195.736C137.143 201.307 139.802 206.602 143.113 211.486C144.561 210.024 146.245 208.817 148.095 207.914C149.509 207.232 150.99 206.717 152.508 206.375C130.759 162.247 146.902 130.266 147.613 128.879C148.071 128.001 149.154 127.661 150.032 128.12C150.847 128.546 151.198 129.51 150.877 130.349L150.472 131.213C148.29 136.044 136.303 166.29 156.25 205.892C157.149 205.856 158.051 205.882 158.952 205.968L158.935 203.95C158.91 196.535 159.212 185.665 159.416 179.226L157.537 179.935C156.417 180.364 155.176 180.851 153.827 181.397C153.402 181.571 152.947 181.662 152.488 181.665C150.768 181.677 149.283 180.463 148.955 178.774C148.627 177.086 149.549 175.404 151.148 174.772L153.988 173.646C157.694 172.204 160.249 171.316 161.398 170.935C161.51 170.867 161.631 170.807 161.755 170.754C171.295 166.606 181.411 163.938 191.755 162.843L191.875 161.762C192.649 155.112 194.788 142.664 200.363 137.039C201.359 136.032 202.857 135.708 204.18 136.215C205.503 136.722 206.402 137.963 206.47 139.379L206.558 140.922C207.085 149.47 208.331 158.889 209.577 162.593L211.493 162.314C215.975 161.684 223.645 160.756 233.406 160.143C229.064 145.787 231.798 130.101 240.97 118.004C241.352 117.493 241.978 117.226 242.612 117.302C243.245 117.379 243.79 117.787 244.04 118.374C244.291 118.96 244.21 119.636 243.827 120.147C235.037 131.502 232.558 146.441 237.06 159.935L239.452 159.82C257.241 159.037 280.364 159.495 303.572 164.135C303.18 147.315 299.626 133.206 292.988 122.164C292.61 121.33 292.926 120.346 293.717 119.885C294.509 119.425 295.52 119.638 296.059 120.379C303.107 132.138 306.845 147.093 307.162 164.888C312.494 166.054 317.816 167.449 323.064 169.11C324.842 162.4 323.486 154.534 322.113 149.093C321.885 148.454 322.039 147.742 322.509 147.254C322.98 146.766 323.686 146.587 324.333 146.791C324.979 146.995 325.454 147.548 325.559 148.218C327.059 154.057 328.416 162.504 326.523 170.004C326.501 170.079 326.475 170.152 326.444 170.222C330.405 171.569 334.316 173.075 338.148 174.754C338.31 174.825 338.465 174.908 338.612 175L340.234 175.629C342.49 176.513 345.96 177.911 348.505 179.093C350.038 179.791 350.875 181.465 350.513 183.11C350.151 184.755 348.69 185.924 347.005 185.915C346.492 185.915 345.985 185.799 345.523 185.575C344.067 184.892 342.253 184.127 340.565 183.442L340.559 183.325L340.563 183.441L340.565 183.442C340.96 190.947 340.917 198.468 340.434 205.968C341.553 205.868 342.675 205.86 343.787 205.944C358.667 186.823 357.255 145.77 357.238 145.325C357.238 144.339 358.037 143.539 359.023 143.539C359.939 143.539 360.694 144.229 360.797 145.117L360.809 145.325C360.809 145.403 360.812 145.554 360.816 145.772C360.9 150.496 361.552 186.963 347.817 206.664C348.958 206.986 350.073 207.41 351.148 207.932C352.425 208.557 353.624 209.33 354.72 210.236C357.034 208.213 358.969 205.794 360.434 203.093C374.323 178.232 375.612 148.282 363.956 122.344L363.291 120.895L362.45 119.173C362.318 118.897 362.184 118.611 362.059 118.343C332.934 53.5861 255.53 54.1456 253.178 54.1626L253.13 54.1629ZM242.105 70.0542C241.863 69.5389 241.386 69.1653 240.818 69.0585C240.18 68.9383 239.526 69.1747 239.112 69.6758C238.698 70.1768 238.589 70.8633 238.827 71.4681L238.83 71.4784C238.949 71.8229 241.786 80.0513 240.386 88.6163C227.314 76.5503 204.747 79.4224 202.769 79.703L202.46 79.7603C201.586 79.9922 201.007 80.8469 201.139 81.7627C201.282 82.7489 202.198 83.4325 203.184 83.2895C203.417 83.2562 225.151 80.1757 237.416 90.8059C175.964 96.6002 168.553 143.528 168.281 145.88L168.261 146.175C168.258 147.066 168.922 147.838 169.827 147.95H170.041C170.949 147.947 171.709 147.263 171.809 146.361C171.809 145.825 178.13 98.1109 241.452 94.0395C259.488 92.8431 274.47 99.5038 287.291 114.272C287.937 115.016 289.064 115.096 289.809 114.45C290.553 113.804 290.633 112.677 289.988 111.932C278.142 98.3048 263.957 91.0857 247.761 90.4236C255.146 86.4371 269.516 80.4637 286.47 82.5752C287.456 82.6985 288.355 81.9989 288.479 81.0127C288.602 80.0265 287.902 79.127 286.916 79.0038C267.774 76.6242 252.079 83.7513 244.746 87.9601L244.041 88.3708C245.24 79.6505 242.673 71.6895 242.24 70.416L242.105 70.0542Z" fill="#372168"/>
<path fill-rule="evenodd" clip-rule="evenodd" d="M336.886 104.571C340.126 101.409 342.674 97.6087 344.369 93.4106C346.029 88.2856 352.19 81.3213 355.886 77.4642C358.168 75.0457 359.904 72.1652 360.976 69.0178C368.94 46.1428 357.976 31.5178 344.904 27.482C336.833 24.9999 321.279 24.8749 311.886 25.0535C307.208 25.1623 302.548 24.418 298.136 22.857C286.511 18.7499 261.333 13.2142 225.797 27.1606C181.69 44.4999 139.726 82.2142 127.458 93.232C115.19 104.25 97.2614 121.803 105.154 134.303C113.047 146.803 131.386 138.589 131.386 138.589C134.583 145.143 140.851 148.303 146.976 146.411C166.494 140.375 209.476 127.625 235.976 123.982C270.011 119.303 295.69 116.839 325.261 117.571C331.243 117.696 336.333 111.946 336.886 104.571Z" fill="#A89FDB"/>
<path fill-rule="evenodd" clip-rule="evenodd" d="M129.904 143.036C132.948 147.611 138.035 150.411 143.529 150.536C145.072 150.537 146.607 150.309 148.083 149.857C165.833 144.375 209.993 131.143 236.511 127.571C268.958 123.107 295.101 120.464 325.172 121.179H325.458C332.815 121.179 339.101 114.75 340.297 106.214C343.557 102.879 346.098 98.9104 347.761 94.5536C348.851 91.2857 352.743 85.9643 358.476 79.9822C361.11 77.1906 363.113 73.8655 364.351 70.2322C369.476 55.5357 366.868 45.1786 363.779 39.0893C360.129 31.9029 353.727 26.4989 346.029 24.1072C337.797 21.5179 322.922 21.3036 311.886 21.5179C307.634 21.6195 303.399 20.9478 299.386 19.5357C286.868 15.0893 260.493 9.75001 224.547 23.875C194.94 35.5179 161.511 57.9464 125.136 90.6072L124.993 90.7358C115.04 99.6805 92.1846 120.22 102.19 136.214C108.833 146.786 121.869 145.679 129.904 143.036ZM134.654 137.054C134.058 135.82 132.81 135.036 131.44 135.036V135C130.931 135.019 130.431 135.147 129.976 135.375C129.815 135.446 114.386 142.196 108.243 132.429C102.101 122.661 117.654 106.929 129.958 95.8751C165.654 63.8572 198.351 41.8572 227.154 30.5358C260.94 17.2679 285.422 22.1786 296.993 26.2858C301.814 27.9836 306.902 28.7943 312.011 28.6786C326.851 28.3929 338.19 29.1786 343.904 30.9644C349.756 32.7771 354.625 36.88 357.404 42.3394C360.922 49.3036 360.993 58.1429 357.601 67.8929C356.685 70.5505 355.219 72.9846 353.297 75.0358C348.672 79.8393 342.761 86.8036 340.976 92.3394C339.464 95.9734 337.235 99.2652 334.422 102.018C333.775 102.624 333.386 103.455 333.333 104.339C332.904 109.768 329.404 114.018 325.333 114.018C294.797 113.321 268.333 115.964 235.547 120.464C208.476 124.197 163.833 137.482 145.976 143.018C141.511 144.393 137.083 142.036 134.654 137.054Z" fill="#372168"/>
<path d="M127.422 140.054C126.588 140.057 125.863 139.483 125.675 138.671C125.487 137.859 125.886 137.024 126.636 136.661C126.993 136.482 164.44 118.161 222.618 107.393C236.243 104.875 249.618 102.947 262.333 101.661C263.319 101.557 264.202 102.273 264.306 103.259C264.41 104.245 263.694 105.129 262.708 105.232C250.065 106.5 236.797 108.429 223.261 110.929C165.601 121.643 128.618 139.697 128.208 139.893C127.961 140.005 127.693 140.06 127.422 140.054Z" fill="#372168"/>
<path d="M336.886 106.357H336.458C336.279 106.357 317.154 101.75 280.101 103.875C279.627 103.904 279.161 103.744 278.806 103.429C278.45 103.114 278.235 102.67 278.208 102.197C278.178 101.723 278.339 101.257 278.654 100.902C278.969 100.546 279.412 100.331 279.886 100.304C317.565 98.1608 336.529 102.697 337.315 102.893C338.301 103.011 339.005 103.907 338.886 104.893C338.768 105.879 337.873 106.583 336.886 106.464V106.357Z" fill="#372168"/>
<path d="M308.333 43.2858C301.909 43.2184 295.593 41.6271 289.904 38.643L289.458 38.4287C288.868 38.1651 288.467 37.6036 288.408 36.9603C288.35 36.317 288.643 35.6923 289.175 35.3265C289.708 34.9608 290.396 34.9111 290.976 35.1965L291.422 35.4108C297.029 38.0537 305.511 42.0358 319.994 38.0001C320.451 37.8743 320.939 37.9353 321.351 38.1698C321.763 38.4042 322.065 38.7929 322.19 39.2501C322.453 40.1965 321.903 41.178 320.958 41.4465C316.852 42.6276 312.605 43.2463 308.333 43.2858Z" fill="#372168"/>
<path d="M214.333 17.3037C217.239 20.8388 219.281 25.0025 220.297 29.4644L214.333 17.3037Z" fill="#F9F9F9"/>
<path d="M220.279 33.0358C218.594 33.0295 217.143 31.846 216.797 30.1965C215.903 26.2658 214.106 22.5974 211.547 19.4823C210.388 17.94 210.664 15.7563 212.169 14.5501C213.675 13.3438 215.866 13.551 217.118 15.018C220.378 18.9873 222.659 23.6665 223.779 28.6787C223.975 29.6071 223.793 30.575 223.273 31.369C222.754 32.163 221.94 32.7177 221.011 32.9108C220.773 32.98 220.527 33.022 220.279 33.0358Z" fill="#372168"/>
</g>
<path fill-rule="evenodd" clip-rule="evenodd" d="M0 250C0 111.929 111.929 0 250 0C388.071 0 500 111.929 500 250C500 388.071 388.071 500 250 500C111.929 500 0 388.071 0 250ZM492.857 250C492.857 115.874 384.126 7.14286 250 7.14286C115.874 7.14286 7.14286 115.874 7.14286 250C7.14286 384.126 115.874 492.857 250 492.857C384.126 492.857 492.857 384.126 492.857 250Z" fill="#372168"/>
</svg>
