<svg width="500" height="500" viewBox="0 0 500 500" fill="none" xmlns="http://www.w3.org/2000/svg">
<path fill-rule="evenodd" clip-rule="evenodd" d="M250 496.429C386.099 496.429 496.429 386.099 496.429 250C496.429 113.901 386.099 3.57153 250 3.57153C113.901 3.57153 3.57153 113.901 3.57153 250C3.57153 386.099 113.901 496.429 250 496.429Z" fill="#E7EEFF"/>
<mask id="mask0_0_263" style="mask-type:alpha" maskUnits="userSpaceOnUse" x="3" y="3" width="494" height="494">
<path fill-rule="evenodd" clip-rule="evenodd" d="M250 496.429C386.099 496.429 496.429 386.099 496.429 250C496.429 113.901 386.099 3.57153 250 3.57153C113.901 3.57153 3.57153 113.901 3.57153 250C3.57153 386.099 113.901 496.429 250 496.429Z" fill="white"/>
</mask>
<g mask="url(#mask0_0_263)">
<path fill-rule="evenodd" clip-rule="evenodd" d="M336.359 210.077L336.357 210.036C337.536 196.964 339.357 159.232 324.071 134.357C305.536 104.339 275.161 95.5538 249.464 95.9823C223.732 95.5538 193.357 104.339 174.821 134.357C159.554 159.125 161.375 196.911 162.571 209.929V210.03C158.281 208.601 153.604 208.884 149.518 210.822C140.161 215.268 136.089 230.125 145.018 243.714C151.783 254.04 163.198 255.882 171.903 253.893C172.226 254.732 172.545 255.575 172.861 256.412C173.129 257.121 173.395 257.825 173.661 258.518L174.768 261.286C180.393 275.65 188.675 288.827 199.179 300.125C203.705 304.911 208.768 309.16 214.268 312.786C224.14 319.474 235.722 323.192 247.643 323.5H251.214C263.136 323.197 274.719 319.479 284.589 312.786C288.752 310.04 292.665 306.938 296.286 303.517C292.663 306.964 288.743 310.089 284.571 312.857C274.702 319.55 263.118 323.269 251.196 323.572H247.625C235.705 323.264 224.122 319.546 214.25 312.857C208.75 309.231 203.687 304.983 199.161 300.197V359.357C200.071 365.125 211.625 370.054 227.982 372.357C234.864 373.313 241.803 373.796 248.75 373.804H250C256.948 373.796 263.886 373.313 270.768 372.357C287.214 369.982 298.804 365.072 299.607 359.268V300.202L299.696 300.107C310.194 288.814 318.47 275.644 324.089 261.286L325.196 258.518C325.814 257.001 326.396 255.431 326.961 253.879C335.674 255.891 347.129 254.066 353.911 243.714C362.768 230.125 358.768 215.268 349.375 210.875C345.301 208.942 340.638 208.656 336.359 210.077ZM168.304 242.786C168.661 244.021 169.028 245.245 169.406 246.458C169.011 245.278 168.62 244.09 168.232 242.893C167.946 241.947 167.607 240.768 167.393 239.964L167.392 239.962L167.392 239.96C167.178 239.157 166.893 238.088 166.75 237.482C166.693 237.24 166.648 237.035 166.601 236.826L166.6 236.823C166.53 236.507 166.457 236.179 166.339 235.697C166.241 235.295 166.156 234.88 166.071 234.464C165.987 234.049 165.902 233.634 165.804 233.232C165.607 232.429 165.446 231.625 165.286 230.786L165.179 230.232C164.982 229.161 164.786 228.072 164.607 226.964C164.464 226.191 164.339 225.405 164.232 224.607C164.214 224.515 164.194 224.422 164.174 224.329L164.173 224.326C164.096 223.968 164.018 223.604 164.018 223.25C163.857 222.125 163.696 220.982 163.554 219.822C163.387 218.548 163.244 217.316 163.125 216.125C163.018 215.625 162.964 215.125 162.964 214.625C162.964 214.625 163.089 214.286 162.964 214.018C162.896 213.873 162.892 213.638 162.887 213.419C162.884 213.235 162.88 213.062 162.839 212.964C162.784 212.833 162.784 212.809 162.779 212.682C162.775 212.602 162.771 212.482 162.75 212.268L162.74 212.172L162.733 212.101C162.738 212.124 162.744 212.144 162.75 212.161C162.791 212.274 162.787 212.34 162.783 212.418C162.777 212.512 162.771 212.623 162.839 212.857C162.907 213.091 162.912 213.266 162.916 213.441C162.92 213.587 162.924 213.732 162.964 213.911C163.054 214.304 163.054 214.518 163.054 214.518C163.068 214.718 163.094 214.918 163.119 215.118C163.158 215.418 163.196 215.718 163.196 216.018C163.312 217.178 163.459 218.368 163.594 219.46L163.625 219.714C163.768 220.875 163.929 222.018 164.089 223.143C164.114 223.298 164.137 223.456 164.16 223.614C164.202 223.91 164.245 224.209 164.304 224.5C164.411 225.298 164.536 226.084 164.679 226.857C164.857 227.964 165.054 229.054 165.25 230.125L165.357 230.679C165.438 231.098 165.527 231.5 165.616 231.902C165.705 232.304 165.795 232.706 165.875 233.125C165.967 233.603 166.087 234.134 166.197 234.617C166.28 234.982 166.357 235.321 166.411 235.589C166.536 236.214 166.679 236.804 166.821 237.375L166.933 237.814C167.097 238.459 167.245 239.038 167.464 239.857C167.732 240.857 168.018 241.839 168.304 242.786ZM162.634 211.151C162.641 211.261 162.649 211.369 162.657 211.471C162.623 211.182 162.595 210.883 162.59 210.572C162.607 210.764 162.621 210.962 162.634 211.151Z" fill="#FFD6CB"/>
<path d="M28.5708 496.429C28.9184 495.049 29.1005 494.313 29.4546 492.974C29.7008 492.043 29.9443 491.123 30.1786 490.215C31.1786 486.643 32.1965 483.072 33.2322 479.804C33.3562 479.409 33.4801 479.017 33.6035 478.626C33.8712 477.778 34.1362 476.939 34.3929 476.107C34.6786 475.215 34.9643 474.322 35.25 473.5C36.0357 471.143 36.8215 468.857 37.6072 466.661C39.381 461.732 41.1667 457.197 42.9643 453.054C43.4108 452 43.8572 450.965 44.3036 449.965L44.5715 449.375C45.5358 447.161 46.5179 445.09 47.5 443.125C50.2915 437.275 53.6024 431.687 57.3929 426.429C57.443 426.354 57.497 426.282 57.5494 426.213L57.5495 426.213C57.6091 426.134 57.6668 426.058 57.7143 425.982C58.6965 424.697 59.6429 423.536 60.5536 422.536L60.6608 422.411C61.3021 421.69 61.9834 420.988 62.6598 420.292C62.8874 420.057 63.1145 419.823 63.3393 419.59C69.0979 413.797 75.4345 408.609 82.25 404.107L84.3215 402.732C85.3691 402.042 86.4405 401.363 87.5358 400.697C90.1786 399.054 92.8929 397.465 95.6965 395.911C100.321 393.34 105.107 390.911 109.982 388.607C115.875 385.822 121.875 383.25 127.839 380.822L131.893 379.215C133.054 378.75 134.232 378.304 135.464 377.875C140.679 375.893 145.857 374.072 150.911 372.375C160.696 369.09 169.964 366.34 178.143 364.072C186.607 361.732 193.857 359.911 199.196 358.625C199.17 358.875 199.17 359.126 199.196 359.375C200.107 365.143 211.696 370.09 228.018 372.375C234.899 373.331 241.838 373.814 248.786 373.822H250.036C256.983 373.814 263.922 373.331 270.804 372.375C287.25 370.054 298.839 365.09 299.643 359.286C299.661 359.066 299.661 358.845 299.643 358.625C305 359.929 312.321 361.75 320.839 364.107C328.982 366.357 338.196 369.107 347.929 372.375C354.107 374.447 360.429 376.715 366.875 379.215C370.149 380.476 373.417 381.804 376.679 383.197L380.411 384.786L383.411 386.107C390.143 389.143 396.768 392.393 403.054 395.911C406.982 398.09 410.804 400.357 414.446 402.732L415.464 403.411C417.25 404.554 419.036 405.732 420.607 406.982C425.886 410.723 430.838 414.905 435.411 419.482C436.375 420.447 437.304 421.429 438.196 422.429C439.287 423.635 440.312 424.899 441.268 426.215V426.322C442.089 427.429 442.946 428.643 443.786 429.893C446.514 434.095 448.983 438.461 451.179 442.965C452.232 445.107 453.286 447.375 454.375 449.804C455.054 451.34 455.732 452.929 456.411 454.572C456.875 455.677 457.326 456.811 457.787 457.974L457.946 458.375C458.958 460.947 459.976 463.655 461 466.5C461.786 468.697 462.571 470.982 463.357 473.34C464.262 476.113 465.173 478.994 466.089 481.982C466.219 482.421 466.351 482.863 466.484 483.306L466.488 483.32L466.489 483.323C466.738 484.154 466.989 484.994 467.232 485.84L467.341 486.219C467.689 487.426 468.073 488.762 468.429 490.054C469.054 492.268 469.089 494.089 469.642 496.429H28.5708Z" fill="#FF6666"/>
<g style="mix-blend-mode:soft-light" opacity="0.8">
<path d="M320.929 364.089C316.518 370.839 309.143 376.197 299.679 380.161C291.583 383.427 283.114 385.677 274.465 386.857C257.921 389.19 241.133 389.19 224.59 386.857C215.891 385.664 207.373 383.396 199.232 380.107C189.822 376.143 182.5 370.786 178.107 364.036C186.572 361.696 193.822 359.875 199.161 358.589C199.135 358.839 199.135 359.09 199.161 359.339C200.072 365.107 211.661 370.054 227.982 372.339C234.864 373.295 241.803 373.778 248.75 373.786H250C256.948 373.778 263.887 373.295 270.768 372.339C287.215 370.018 298.804 365.054 299.607 359.25C299.625 359.03 299.625 358.809 299.607 358.589C305.107 359.911 312.411 361.732 320.929 364.089Z" fill="white"/>
</g>
<g style="mix-blend-mode:multiply" opacity="0.15">
<path fill-rule="evenodd" clip-rule="evenodd" d="M296.036 303.786V356.107C251.536 356.804 218.571 333.893 202.839 320.197V303.75C206.378 307.132 210.222 310.181 214.321 312.857C224.196 319.539 235.777 323.257 247.696 323.572H251.268C263.187 323.257 274.767 319.539 284.643 312.857C288.703 310.179 292.516 307.143 296.036 303.786Z" fill="#7C3830"/>
</g>
<path fill-rule="evenodd" clip-rule="evenodd" d="M251.405 92.5021L249.607 92.5181C229.965 92.1609 193.786 96.9645 172.107 132.572C158.313 154.962 157.857 186.762 158.887 204.188L158.974 205.569C155.23 205.217 151.43 205.875 147.982 207.518C142.75 210.188 138.924 214.984 137.482 220.679C135.315 229.276 136.969 238.391 142.018 245.679L142.367 246.206C147.562 253.862 156.293 258.382 165.572 258.179C166.928 258.145 168.279 258.026 169.616 257.82C169.875 258.516 170.14 259.214 170.411 259.911L171.518 262.697C177.149 276.991 185.317 290.146 195.623 301.529L195.714 301.627L195.715 355.746C189.544 357.259 183.316 358.893 177.018 360.625C167.286 363.322 158.322 366.054 149.607 368.982C143.947 370.947 138.839 372.732 134.054 374.518C133.649 374.661 133.268 374.802 132.89 374.945L129.121 376.404C128.211 376.762 127.298 377.131 126.393 377.5L123.777 378.554C118.55 380.687 113.355 382.972 108.304 385.375C103.161 387.804 98.2681 390.286 93.8038 392.786C90.7323 394.5 88.0181 396.09 85.5359 397.625L84.686 398.148C83.844 398.67 83.027 399.192 82.2502 399.715C81.5181 400.179 80.7859 400.661 80.1252 401.125C73.1183 405.706 66.5965 410.99 60.6609 416.893C60.1084 417.526 59.5607 418.081 59.0418 418.606C58.6385 419.014 58.2522 419.406 57.8931 419.804L57.7681 419.964C56.8395 420.964 55.8395 422.179 54.7324 423.643C54.6629 423.719 54.603 423.803 54.5538 423.893L54.3752 424.125L53.4065 425.489C49.8928 430.513 46.8003 435.821 44.1609 441.357C43.2936 442.952 42.5902 444.473 41.9337 445.961L41.1609 447.732L40.4341 449.369C40.1312 450.062 39.8335 450.768 39.5359 451.482L38.9407 452.892C37.3534 456.697 35.7661 460.857 34.1788 465.286C33.3931 467.5 32.5895 469.822 31.8038 472.197L31.5048 473.082L30.9109 474.875L29.3308 479.975C28.7465 481.87 28.1571 483.86 27.5661 485.923L26.6788 489.072C26.397 490.181 26.1022 491.308 25.8051 492.444L25.8033 492.45C25.4985 493.616 25.1912 494.79 24.8931 495.964L24.4109 497.75C24.2591 498.339 24.2617 499.386 24.1077 500H475.001L473.607 495.268C473.607 495.268 472.5 491.089 471.929 489.089C471.643 488.036 471.34 486.964 471.036 485.929L470.732 484.839L469.572 480.929C469.114 479.523 468.684 478.141 468.261 476.782L468.26 476.777L468.259 476.775C467.774 475.218 467.299 473.692 466.804 472.197C466.018 469.822 465.214 467.5 464.429 465.286C463.375 462.411 462.34 459.607 461.322 457.054L461.161 456.607C460.697 455.429 460.232 454.286 459.768 453.197C459.089 451.518 458.393 449.911 457.697 448.339C456.813 446.371 455.999 444.603 455.218 442.961L454.447 441.357C452.18 436.743 449.646 432.265 446.857 427.947C446.494 427.435 446.143 426.92 445.786 426.397L445.785 426.395L445.78 426.388L445.776 426.382L445.775 426.38C445.276 425.649 444.766 424.902 444.197 424.125L444.054 423.947C442.893 422.375 441.786 421.018 440.84 419.982C439.893 418.947 438.911 417.893 437.929 416.911C433.212 412.19 428.105 407.877 422.661 404.018C420.875 402.732 419.107 401.518 417.447 400.447C417.072 400.197 416.697 399.929 416.375 399.732L415.181 398.96C411.971 396.906 408.544 394.879 404.75 392.768C398.697 389.411 392.179 386.161 384.786 382.84L381.732 381.5L380.786 381.089L378 379.893C374.804 378.536 371.572 377.232 368.089 375.875C362.036 373.518 355.786 371.268 348.982 368.982C340.197 366.018 331.018 363.232 321.714 360.661C316.142 359.113 311.158 357.818 307.021 356.777L303.177 355.82L303.18 301.869C313.65 290.402 321.936 277.115 327.625 262.661L328.75 259.84C328.994 259.208 329.236 258.57 329.475 257.934C330.756 258.092 332.047 258.174 333.34 258.179C342.78 258.375 351.652 253.682 356.804 245.768L357.228 245.139C361.94 237.958 363.446 229.123 361.357 220.768C359.904 215.075 356.072 210.281 350.839 207.607C347.544 206.034 343.923 205.364 340.34 205.62C341.456 188.523 341.341 155.535 327.197 132.59C305.857 98.0333 271.243 92.4937 251.405 92.5021ZM174.31 368.941L176.707 368.261C181.449 374.391 188.538 379.467 197.822 383.375C206.269 386.798 215.112 389.15 224.143 390.375C232.577 391.588 241.087 392.184 249.607 392.161C258.096 392.211 266.576 391.644 274.982 390.464C283.919 389.235 292.669 386.908 301.036 383.536C310.438 379.612 317.599 374.466 322.363 368.292C330.744 370.648 339.002 373.193 346.947 375.857C353.643 378.107 359.786 380.322 365.732 382.643C369.143 383.964 372.322 385.25 375.465 386.589L379.161 388.161L382.089 389.464C389.286 392.697 395.643 395.857 401.518 399.125C405.607 401.411 409.286 403.607 412.75 405.857L414.713 407.143C416.03 408.014 417.375 408.943 418.732 409.929C423.828 413.56 428.607 417.616 433.018 422.054L433.027 422.063L433.028 422.064L433.031 422.067C433.92 422.973 434.826 423.898 435.697 424.893C436.703 425.999 437.645 427.162 438.518 428.375L438.679 428.572C439.554 429.732 440.304 430.839 441.036 431.964C443.67 436.043 446.056 440.277 448.179 444.643L448.549 445.397C449.169 446.67 449.807 448.032 450.479 449.51L451.304 451.34C451.982 452.857 452.643 454.411 453.322 456.054L453.768 457.136C454.066 457.865 454.363 458.607 454.661 459.357L454.822 459.786C455.804 462.268 456.822 464.964 457.839 467.804L458.426 469.444C459.009 471.102 459.585 472.813 460.161 474.554L460.71 476.209C461.439 478.434 462.161 480.728 462.875 483.089L463.286 484.464L464.322 488C464.411 488.319 464.502 488.639 464.594 488.962C464.796 489.67 465 490.389 465.197 491.125L465.75 493.125L33.0362 492.857L34.0604 489.595C34.9505 486.425 35.8373 483.427 36.6966 480.661L37.8574 476.982C37.9278 476.767 37.9972 476.553 38.066 476.341L38.0746 476.315L38.077 476.307C38.2834 475.671 38.4851 475.05 38.6966 474.429L39.1662 473.034C39.7902 471.187 40.4074 469.389 41.0359 467.661C42.6966 462.804 44.4824 458.304 46.2681 454.232C46.6966 453.214 47.1431 452.197 47.5716 451.232L48.3808 449.399C49.0916 447.809 49.8574 446.2 50.7145 444.5C53.4042 438.864 56.6019 433.485 60.2681 428.429L60.6252 427.929L60.9123 427.567C61.7565 426.503 62.4952 425.571 63.0895 424.929L63.3574 424.643C64.1074 423.75 65.0002 422.857 65.8931 421.964C71.4951 416.4 77.6454 411.416 84.2502 407.089L86.2859 405.75C87.3038 405.089 88.3216 404.429 89.4109 403.768L90.3253 403.204C92.4835 401.882 94.8194 400.525 97.4288 399.072C101.75 396.714 106.482 394.304 111.5 391.929C117.268 389.197 123.214 386.607 129.214 384.232L130.403 383.75L134.381 382.179C135.139 381.883 135.905 381.589 136.679 381.304L138.107 380.768C141.462 379.517 144.969 378.262 148.722 376.972L152 375.857C159.158 373.447 166.502 371.172 174.31 368.941ZM184.393 366.157C188.516 365.055 192.642 363.992 196.732 362.982C201.168 370.96 217.454 374.461 226.094 375.788L227.536 376C234.583 376.981 241.689 377.476 248.804 377.482H250.072C257.181 377.477 264.281 376.981 271.322 376C279.216 374.897 296.294 371.631 301.647 363.858C301.843 363.579 302.024 363.294 302.189 363.003L302.186 363.002L302.25 362.893C302.23 362.93 302.21 362.966 302.189 363.003C304.675 363.572 307.543 364.297 310.758 365.145L314.781 366.219C310.113 370.867 304.525 374.491 298.375 376.857L296.904 377.436C289.53 380.27 281.85 382.24 274.018 383.304C257.825 385.589 241.39 385.589 225.197 383.304C216.793 382.154 208.564 379.971 200.697 376.804C194.553 374.41 188.976 370.761 184.322 366.089L184.393 366.157ZM202.804 308.572V358.947C203.589 361.697 211.875 366.429 228.554 368.768C235.275 369.706 242.053 370.177 248.839 370.179H250.072C256.852 370.176 263.624 369.705 270.34 368.768C277.467 367.762 283.059 366.326 287.189 364.797L287.549 364.662C293.011 362.567 295.752 360.324 295.964 358.786C295.966 358.444 296.014 358.107 296.105 357.784L296.108 308.727C293.577 310.921 290.923 312.971 288.159 314.868L286.768 315.804C277.842 321.844 267.593 325.583 256.933 326.73C255.026 326.945 253.107 327.077 251.179 327.125H247.697L247.583 327.12L247.554 327.125C245.591 327.072 243.637 326.932 241.697 326.706L239.892 326.47L238.853 326.312L237.354 326.054L236.156 325.822C228.056 324.177 220.306 321.02 213.323 316.484L212.375 315.857C209.015 313.66 205.817 311.225 202.804 308.572ZM247.787 99.6841L249.465 99.6967C267.482 99.4109 300.768 103.75 320.893 136.375C335.178 159.533 333.806 195.554 332.772 208.258L332.643 209.75V209.982L335.894 210.258L332.697 210.179L332.695 210.199L332.643 210.197C332.56 211 332.48 211.699 332.412 212.273L332.179 214.072C332.17 214.173 332.17 214.274 332.179 214.375L332.072 215.732C331.786 218.304 331.518 220.518 331.161 222.875C330.804 225.232 330.411 227.518 330 229.679L329.793 230.775C329.649 231.508 329.494 232.238 329.34 232.929L328.883 234.995L328.643 236.018V236.179C328.527 236.679 328.406 237.152 328.286 237.612L327.929 238.964L327.93 239.159C327.69 240.117 327.433 240.953 327.161 241.822L326.784 243.038L326.453 244.077L326.375 244.304C325.572 246.929 324.661 249.661 323.572 252.661V252.839C323.142 254.042 322.69 255.244 322.251 256.409L321.929 257.268L320.266 261.407C314.81 274.796 306.985 287.096 297.161 297.714L297.491 297.352C297.344 297.461 297.203 297.582 297.072 297.714C292.739 302.311 287.885 306.386 282.607 309.857L281.732 310.443C272.643 316.406 262.061 319.714 251.179 319.982H247.697C247.338 319.973 246.979 319.96 246.62 319.944L245.709 319.896L244.376 319.798C234.345 318.949 224.68 315.534 216.322 309.857L215.113 309.046C210.31 305.76 205.871 301.967 201.875 297.732C201.772 297.624 201.663 297.522 201.546 297.433C191.505 286.512 183.571 273.827 178.143 260.018L177.054 257.304C176.869 256.822 176.685 256.332 176.5 255.838L175.393 252.857L175.072 252.679C173.822 249.197 172.625 245.536 171.5 241.822C171.375 241.395 171.233 240.89 171.099 240.407L171.097 240.402L170.967 239.935L170.598 238.662C170.532 238.425 170.466 238.167 170.398 237.893L169.991 236.244C169.968 236.145 169.946 236.047 169.924 235.946C169.907 235.869 169.889 235.79 169.872 235.71C169.812 235.434 169.747 235.137 169.661 234.786L169.484 234.043C169.367 233.54 169.256 233.024 169.161 232.5V232.322C168.982 231.589 168.822 230.839 168.679 230.036L168.572 229.536L167.877 225.543C167.796 225.064 167.72 224.572 167.661 224.072C167.661 224.048 167.675 224.042 167.689 224.036C167.716 224.024 167.744 224.012 167.661 223.857C167.536 223.625 167.536 223.375 167.536 223.143V222.679C167.482 222.316 167.431 221.945 167.38 221.57L166.954 218.447C166.841 217.577 166.737 216.67 166.643 215.732L166.543 214.826L166.518 214.375C166.528 214.262 166.528 214.149 166.518 214.036L166.321 212.39L166.322 211.75C166.31 211.605 166.289 211.447 166.266 211.274C166.218 210.912 166.161 210.483 166.161 209.964L166.15 209.69C166.129 209.418 166.078 209.153 165.998 208.899L165.907 207.817C164.874 194.745 163.647 159.321 177.804 136.375C197.342 104.729 229.281 99.6968 247.787 99.6841ZM340.114 212.879L339.767 212.935L339.563 214.58C339.537 214.767 339.516 214.908 339.5 215L339.393 216.34C339.127 218.824 338.862 221.062 338.56 223.078L338.429 223.929L338.334 224.521L338.333 224.528C337.999 226.619 337.623 228.971 337.232 231.072C337.089 231.857 336.939 232.627 336.78 233.392L336.536 234.536L336.479 234.795C336.255 235.819 336.07 236.666 335.839 237.589V237.768L335.67 238.453C338.062 238.329 340.29 237.109 341.679 235.107C343.397 232.746 343.679 229.631 342.411 227C341.88 226.172 342.119 225.069 342.947 224.536C343.775 224.005 344.878 224.244 345.411 225.072C347.292 228.649 347.173 232.947 345.098 236.415C343.023 239.883 339.291 242.02 335.25 242.054L335.322 242.089C335.12 242.089 334.919 242.081 334.718 242.067L334.461 242.972L334.197 243.857C333.893 244.857 333.643 245.643 333.339 246.5C332.897 247.941 332.408 249.455 331.871 251.043L331.732 251.036C339.141 251.719 346.329 248.374 350.581 242.306L350.911 241.822C354.771 236.266 356.071 229.326 354.482 222.75C353.59 219.044 351.152 215.897 347.786 214.107C345.57 213.04 343.112 212.598 340.676 212.816L340.114 212.879ZM151.036 214.054C152.87 213.175 154.877 212.717 156.911 212.715C157.733 212.727 158.552 212.817 159.357 212.982V213.393C159.413 213.589 159.416 213.756 159.418 213.914C159.42 214.058 159.422 214.195 159.464 214.34C159.518 214.522 159.54 214.678 159.548 214.805L159.554 215.018C159.583 215.509 159.636 215.997 159.714 216.482C159.756 216.911 159.802 217.338 159.849 217.761L160.143 220.25C160.286 221.465 160.447 222.625 160.625 223.822V224.232L160.786 225.197C160.84 225.607 160.902 226.018 160.967 226.415L161.35 228.679C161.465 229.334 161.589 229.991 161.713 230.653L161.768 230.947L161.857 231.465L162.462 234.335L162.929 236.447L163.357 238.232V238.429L163.375 238.5C160.829 238.502 158.422 237.251 156.964 235.125C155.259 232.765 154.985 229.659 156.25 227.036C156.781 226.207 156.542 225.105 155.715 224.572C154.886 224.041 153.784 224.28 153.25 225.107C151.369 228.684 151.488 232.983 153.563 236.451C155.638 239.919 159.37 242.056 163.411 242.089C163.716 242.095 164.021 242.085 164.325 242.061L164.433 242.052L164.59 242.036C164.537 242.042 164.485 242.047 164.433 242.052C164.397 242.055 164.361 242.058 164.325 242.061L164.321 242.061L164.84 243.84C165.572 246.268 166.322 248.643 167.107 250.982C159.504 251.688 152.13 248.145 147.929 241.768L147.55 241.208C143.974 235.755 142.811 229.053 144.357 222.697C145.244 218.993 147.675 215.846 151.036 214.054Z" fill="#372168"/>
<path fill-rule="evenodd" clip-rule="evenodd" d="M302.189 363.003C302.21 362.966 302.23 362.93 302.25 362.893L302.186 363.002L302.189 363.003ZM164.433 242.052L164.59 242.036C164.537 242.042 164.485 242.047 164.433 242.052Z" fill="#372168"/>
<g style="mix-blend-mode:multiply" opacity="0.15">
<path fill-rule="evenodd" clip-rule="evenodd" d="M218.75 249.583C218.75 260.484 210.755 269.32 200.893 269.32C191.031 269.32 183.036 260.484 183.036 249.583C183.036 238.683 191.031 229.846 200.893 229.846C210.755 229.846 218.75 238.683 218.75 249.583ZM315.179 249.583C315.179 260.484 307.184 269.32 297.322 269.32C287.459 269.32 279.464 260.484 279.464 249.583C279.464 238.683 287.459 229.846 297.322 229.846C307.184 229.846 315.179 238.683 315.179 249.583Z" fill="#FF1300"/>
</g>
<path d="M261.161 279.411C259.435 279.411 258.036 278.012 258.036 276.286C258.036 274.56 259.435 273.161 261.161 273.161C263.597 273.161 265.571 271.186 265.571 268.75C265.571 266.314 263.597 264.34 261.161 264.34C259.435 264.34 258.036 262.941 258.036 261.215C258.036 259.489 259.435 258.09 261.161 258.09C265.225 257.682 269.167 259.62 271.326 263.087C273.485 266.554 273.485 270.947 271.326 274.414C269.167 277.881 265.225 279.819 261.161 279.411Z" fill="#372168"/>
<path d="M249.059 246.94C245.159 246.993 241.492 245.089 239.291 241.869C238.354 240.419 238.77 238.484 240.219 237.548C241.669 236.611 243.604 237.026 244.541 238.476C245.628 239.89 247.316 240.711 249.099 240.694C250.882 240.676 252.553 239.822 253.612 238.387C254.51 236.907 256.437 236.436 257.916 237.333C259.395 238.231 259.867 240.157 258.969 241.637C256.809 245.003 253.058 247.011 249.059 246.94Z" fill="#372168"/>
<path d="M286.261 225.447C294.171 225.447 294.189 213.125 286.261 213.125C278.332 213.125 278.314 225.447 286.261 225.447Z" fill="#372168"/>
<path d="M213.1 225.447C221.028 225.447 221.046 213.125 213.1 213.125C205.153 213.125 205.153 225.447 213.1 225.447Z" fill="#372168"/>
<path d="M270.857 204.107C268.885 204.196 267.214 202.669 267.125 200.696C267.036 198.724 268.563 197.053 270.536 196.964L300.893 194.232C302.169 194.117 303.409 194.692 304.147 195.739C304.884 196.787 305.006 198.148 304.468 199.311C303.929 200.473 302.812 201.26 301.536 201.375L271.179 204.107H270.857Z" fill="#372168"/>
<path d="M196.678 204.107C194.706 204.196 193.035 202.669 192.946 200.696C192.858 198.724 194.385 197.053 196.357 196.964L226.714 194.232C228.687 194.055 230.43 195.51 230.607 197.482C230.785 199.455 229.329 201.198 227.357 201.375L197 204.107H196.678Z" fill="#372168"/>
<path fill-rule="evenodd" clip-rule="evenodd" d="M92.3267 237.714C82.8446 296.554 89.5053 348.786 110.184 388.625C117.327 385.214 124.791 382.072 132.13 379.232C133.916 378.554 135.577 377.893 137.309 377.25C141.952 375.464 146.559 373.911 151.077 372.393C157.773 370.143 164.22 368.143 170.237 366.375C182.166 362.893 192.38 360.322 199.362 358.643C199.362 358.893 199.362 353.286 199.362 353.5V300.232C188.859 288.934 180.577 275.758 174.952 261.393L173.845 258.625C173.255 257.089 172.666 255.5 172.059 253.929C163.345 255.947 151.88 254.125 145.095 243.768C144.288 242.523 143.56 241.229 142.916 239.893C137.041 227.393 141.13 214.893 149.595 210.875C153.672 208.95 158.337 208.675 162.612 210.107C162.612 209.643 162.505 209.125 162.47 208.554C162.47 208.327 162.47 208.077 162.47 207.804V207.679C162.287 202.743 162.737 197.804 163.809 192.982C165.788 186.727 169.757 181.29 175.112 177.5L175.505 177.232C176.577 176.477 177.692 175.786 178.845 175.161C195.398 166.125 205.487 150.714 211.416 137.661C214.866 130.186 217.437 122.336 219.077 114.268C219.362 116.054 216.523 172 288.97 172.322C288.97 172.322 279.773 156.25 279.773 140.179C279.773 140.179 294.059 163.393 309.72 172.589L310.416 173.072C312.862 174.75 315.148 176.25 317.255 177.661C323.398 181.75 328.095 184.911 331.291 188.554C334.755 192.518 336.434 197.054 336.273 204.018C336.273 204.268 336.273 209.786 336.273 210.036C340.562 208.601 345.241 208.883 349.327 210.822C349.737 211.018 350.112 211.214 350.505 211.447C356.452 215.018 359.845 223.018 358.47 231.947C357.771 236.153 356.189 240.164 353.827 243.714C347.041 254.072 335.577 255.893 326.862 253.875C326.291 255.447 325.702 257.036 325.077 258.572L323.97 261.339C318.35 275.698 310.075 288.868 299.577 300.161V344.339C299.577 344.125 299.577 358.804 299.577 358.625C307.13 360.411 318.487 363.304 331.72 367.25C333.987 367.929 336.309 368.625 338.666 369.375C341.678 370.316 344.755 371.316 347.898 372.375L350.47 373.25C355.827 375.036 361.327 377.054 366.845 379.214C371.368 380.964 375.88 382.822 380.38 384.786C393.077 359.786 400.934 330.679 403.595 299.857L398.47 386.857C401.645 380.095 404.412 373.148 406.755 366.054C406.764 366.025 406.764 365.994 406.755 365.964C437.22 274.125 395.166 171.572 379.612 136.732C370.702 116.367 357.467 98.1849 340.827 83.4465C291.005 39.9286 236.202 51.0358 215.13 57.7501C215.541 57.7679 121.737 55.1787 92.3267 237.714Z" fill="#FF9966"/>
<path fill-rule="evenodd" clip-rule="evenodd" d="M226.05 41.5444C226.44 42.4517 226.02 43.5031 225.113 43.8926C220.691 45.7861 217.851 50.3224 216.248 53.8075L217.663 53.3876C241.382 46.492 294.792 38.1504 343.559 80.7676C360.243 95.4852 373.574 113.604 382.66 133.898L383.273 135.285C432.613 245.803 425.38 322.25 410.577 366.946V367.196C408.181 374.422 405.361 381.5 402.13 388.393C401.406 389.967 399.656 390.793 397.98 390.353C396.304 389.914 395.185 388.334 395.327 386.607L397.309 353.071C393.792 364.522 389.318 375.656 383.934 386.357C383.079 388.042 381.06 388.77 379.327 388.018C374.934 386.107 370.398 384.25 365.934 382.5C360.863 380.518 355.416 378.535 349.684 376.589L348.86 376.301L344.078 374.707C342.515 374.192 340.985 373.697 339.475 373.22L337.97 372.75C335.613 372 333.309 371.303 331.059 370.625C321.712 367.826 312.156 365.237 301.949 362.734L299.148 362.053C297.453 361.648 296.299 360.078 296.416 358.339V300.214C296.415 299.297 296.767 298.415 297.398 297.75C307.222 287.131 315.048 274.831 320.503 261.442L322.166 257.303C322.72 255.857 323.291 254.303 323.845 252.785C324.063 252.131 324.466 251.555 325.005 251.125C325.858 250.44 326.976 250.184 328.041 250.428C335.398 252.125 345.345 250.75 351.255 241.785C353.337 238.662 354.731 235.131 355.345 231.428C356.452 224.285 353.934 217.464 349.077 214.535L348.202 214.071C344.928 212.527 341.182 212.315 337.755 213.482C336.627 213.836 335.397 213.609 334.47 212.875C333.54 212.144 333.032 211.001 333.113 209.821V203.803C333.238 198.25 332.077 194.482 329.077 191.018L328.97 190.91C326.036 187.55 321.26 184.366 315.719 180.672L310.816 177.406C310.482 177.182 310.144 176.954 309.804 176.723L308.148 175.589C299.666 170.5 291.702 161.768 285.97 154.5C287.439 159.606 289.397 164.558 291.816 169.287L292.488 170.571C293.126 171.676 293.126 173.038 292.488 174.143C291.847 175.252 290.661 175.933 289.38 175.928C259.363 175.785 237.988 166.446 225.88 148.16C222.481 142.977 219.925 137.288 218.309 131.303C217.528 133.416 216.63 135.646 215.602 137.972L215.077 139.143C209.416 151.643 199.005 168.518 180.97 178.303C179.999 178.85 179.058 179.446 178.148 180.089L177.95 180.243L177.738 180.375H177.63C172.896 183.708 169.384 188.5 167.63 194.018C166.677 198.457 166.281 202.998 166.452 207.535V208.303C166.469 208.728 166.51 209.151 166.577 209.571C166.737 210.604 166.437 211.654 165.755 212.446C164.807 213.518 163.324 213.943 161.952 213.535C158.719 212.425 155.197 212.551 152.06 213.875L151.541 214.107C145.041 217.196 141.488 227.678 146.559 238.375C147.125 239.565 147.77 240.716 148.488 241.821C154.363 250.75 164.309 252.16 171.702 250.464C172.759 250.22 173.869 250.47 174.72 251.143C175.298 251.596 175.717 252.221 175.916 252.928L177.029 255.909C177.216 256.403 177.404 256.893 177.595 257.375L178.666 260.089C184.15 274.021 192.18 286.81 202.345 297.803C202.983 298.465 203.341 299.348 203.345 300.268V353.535C203.354 353.678 203.354 353.821 203.345 353.964V358.678C203.27 360.196 202.302 361.513 200.899 362.047L200.613 362.143C190.738 364.518 180.97 367.107 171.648 369.839C165.095 371.768 158.702 373.768 152.63 375.803C148.098 377.33 144.029 378.756 140.227 380.158L138.97 380.625C138.077 380.946 137.224 381.268 136.38 381.594L133.845 382.589C126.327 385.5 119.023 388.625 112.113 391.893C111.516 392.168 110.855 392.273 110.202 392.196C108.865 392.199 107.638 391.455 107.023 390.268C85.5947 349.018 79.2912 296.071 88.7912 237.143L89.3147 233.962C98.0901 181.673 117.919 113.18 162.702 76.5176C181.14 61.4542 197.974 56.5413 207.5 54.9491L200.577 47.7319C200.079 47.2841 199.873 46.5954 200.045 45.948C200.216 45.3005 200.734 44.8032 201.389 44.6598C202.043 44.5165 202.722 44.7511 203.148 45.2676L211.949 54.3678L212.134 54.3513C213.699 50.2932 217.228 43.3764 223.702 40.6069C224.609 40.2173 225.661 40.6371 226.05 41.5444ZM216.63 61.2498C216.34 61.3409 216.041 61.3976 215.738 61.4189L214.62 61.4472C210.342 61.6267 189.805 63.4857 166.72 82.5533C123.531 118.264 104.477 185.828 96.0955 236.834L95.8591 238.276L95.9162 238.285C86.8983 294.232 92.434 344.5 111.898 383.928C118.005 381.125 124.398 378.428 130.934 375.893L136.148 373.893L139.014 372.84C139.986 372.487 140.976 372.132 141.987 371.773C125.229 342.168 120.614 307.888 119.738 283.946C119.738 282.96 120.537 282.16 121.523 282.16C122.439 282.16 123.194 282.85 123.297 283.738L123.395 286.06C124.452 309.59 129.221 342.344 145.35 370.594C146.856 370.071 148.411 369.541 150.023 369C156.184 366.928 162.684 364.893 169.309 362.946C172.971 361.877 176.687 360.831 180.444 359.81C173.231 345.079 170.821 324.696 170.72 323.785C170.606 322.799 171.314 321.908 172.3 321.794C173.216 321.689 174.05 322.292 174.255 323.168L174.291 323.375C174.291 323.597 176.79 344.629 184.057 358.841C187.971 357.798 191.924 356.785 195.898 355.803C195.898 355.089 195.898 354.455 195.962 353.891L196.023 353.482V301.696C186.046 290.663 178.071 277.978 172.453 264.213L170.755 260L170.005 258C159.189 259.704 148.378 254.91 142.38 245.75C141.481 244.384 140.675 242.958 139.97 241.482C133.703 228.228 137.258 213.342 147.844 207.926L148.309 207.696C149.671 207.048 151.094 206.553 152.551 206.217C139.503 195.337 136.421 176.131 136.273 175.143C136.178 174.505 136.43 173.864 136.934 173.462C137.439 173.06 138.12 172.958 138.72 173.194C139.254 173.404 139.652 173.853 139.801 174.398L139.982 175.412C140.748 179.429 144.956 197.414 157.965 205.706C158.239 205.712 158.513 205.727 158.787 205.748C143.456 170.124 158.073 144.482 158.738 143.357C159.018 142.736 159.628 142.329 160.309 142.307C160.991 142.286 161.625 142.655 161.943 143.257C162.262 143.86 162.21 144.591 161.809 145.143L161.354 146.01C159.196 150.349 150.497 170.521 159.525 197.613C159.77 195.734 160.11 193.867 160.541 192.018C162.636 185.306 166.793 179.434 172.411 175.228L173.255 174.607L173.559 174.393H173.666C174.557 173.769 175.474 173.184 176.415 172.639L177.363 172.107C193.248 163.35 202.794 148.324 208.075 136.917L208.38 136.25C211.511 129.476 213.897 122.385 215.496 115.1L215.827 113.535C216.087 112.006 217.305 110.819 218.841 110.599C220.378 110.379 221.88 111.176 222.559 112.571C222.711 112.895 222.819 113.237 222.88 113.589C222.911 114.005 222.911 114.423 222.88 114.839L222.908 115.721C223.475 130.449 229.898 160.751 272.039 167.363C246.108 151.423 247.85 118.401 247.965 116.233C247.968 116.173 247.97 116.136 247.97 116.125C248.054 115.139 248.921 114.407 249.907 114.491C250.823 114.569 251.519 115.322 251.547 116.219L251.541 116.428C251.197 124.476 252.353 132.518 254.952 140.143C259.854 154.099 269.12 163.587 282.581 168.459L283.327 168.5L282.84 167.404C280.03 160.964 276.398 150.634 276.398 140.16C276.401 138.566 277.461 137.166 278.995 136.731C280.433 136.323 281.961 136.855 282.839 138.04L283.038 138.337L283.045 138.348C283.884 139.668 297.447 161.016 311.738 169.5L312.041 169.696L312.398 169.946L315.97 172.359C316.502 172.716 317.023 173.065 317.541 173.41L319.452 174.696L322.355 176.631C327.069 179.802 331.136 182.744 334.113 186.107L334.22 186.232C337.832 190.363 339.688 194.988 340.043 200.919C350.288 179.115 342.522 151.7 341.638 148.726L341.559 148.464C341.313 147.844 341.433 147.14 341.87 146.636C342.306 146.132 342.987 145.914 343.635 146.069C344.283 146.225 344.791 146.728 344.952 147.375C347.082 154.648 348.359 162.145 348.755 169.714C349.512 183.642 347.065 195.881 341.692 205.563C344.134 205.506 346.563 205.884 348.868 206.676C359.036 199.186 361.742 183.108 361.859 182.414L361.863 182.393C362.016 181.406 362.939 180.731 363.925 180.884C364.841 181.026 365.489 181.832 365.454 182.736L365.434 182.946L365.43 182.969C365.265 183.968 362.673 199.597 352.555 208.362L352.577 208.375C360.023 212.839 363.809 222.303 362.238 232.482C361.471 237.194 359.705 241.687 357.059 245.66C351.064 254.825 340.251 259.62 329.434 257.91L328.702 259.857C328.49 260.397 328.283 260.905 328.079 261.408L328.077 261.413C327.903 261.84 327.731 262.262 327.559 262.696C321.919 277.005 313.747 290.179 303.434 301.589V344.357C303.469 344.987 303.469 345.619 303.434 346.25V355.803C313.791 358.339 323.488 360.964 332.988 363.803L336.454 364.855C337.622 365.21 338.8 365.571 339.988 365.946C343.023 366.893 346.113 367.91 349.273 368.964L351.3 369.651C372.242 340.654 374.536 291.048 374.661 288.343C374.664 288.281 374.665 288.244 374.666 288.232C374.696 287.246 375.519 286.47 376.505 286.499C377.492 286.529 378.267 287.353 378.238 288.339C377.688 298.932 376.375 309.471 374.309 319.875C371.36 334.871 365.627 355.387 354.828 370.865C358.88 372.276 362.807 373.718 366.545 375.156L368.398 375.875C371.97 377.232 375.452 378.66 378.934 380.143C390.859 354.772 398.118 327.461 400.363 299.518C400.511 297.545 402.229 296.066 404.202 296.214C406.174 296.362 407.653 298.081 407.505 300.053L403.693 364.785L404.287 362.972C423.686 302.359 414.302 223.603 377.781 140.675L376.666 138.16C368.013 118.305 355.115 100.587 338.88 86.2498C290.47 43.9462 237.255 54.6783 216.63 61.2498ZM123.541 261.446C123.579 260.808 123.274 260.198 122.741 259.846C122.208 259.494 121.527 259.453 120.955 259.739C120.384 260.025 120.008 260.594 119.97 261.232C119.773 264.196 119.595 267.393 119.595 270.696C119.595 271.682 120.394 272.482 121.38 272.482L121.586 272.472C122.464 272.381 123.157 271.653 123.184 270.75C123.238 267.5 123.363 264.375 123.541 261.446Z" fill="#372168"/>
<path fill-rule="evenodd" clip-rule="evenodd" d="M335.106 218.393C339.792 196.787 338.123 174.286 330.302 153.608C329.945 152.661 329.57 151.822 329.177 150.804C328.248 148.572 327.231 146.375 326.159 144.233C319.126 130.006 308.625 117.779 295.623 108.679C293.695 107.34 291.731 106.09 289.695 104.929C288.034 103.965 286.338 103.143 284.606 102.233C278.159 99.0442 271.321 96.7206 264.266 95.3219H263.82L263.231 95.2147C251.909 93.1363 240.288 93.3123 229.034 95.7326L227.766 95.9826C222.491 97.1402 217.314 98.7105 212.284 100.679C211.213 101.09 210.177 101.518 209.159 101.965C205.172 103.635 201.305 105.58 197.588 107.786C184.032 115.624 173.168 127.384 166.427 141.518C165.356 143.786 164.391 146.072 163.534 148.358C163.177 149.304 162.838 150.268 162.534 151.233C162.427 151.536 162.32 151.858 162.231 152.161C161.588 154.125 161.034 156.072 160.552 158.018C153.088 187.786 161.141 216.179 161.141 216.179C161.141 216.179 142.516 193.965 152.213 148.822C152.481 147.608 152.766 146.358 153.07 145.108C153.552 143.108 154.106 141.054 154.713 138.965C155.32 136.875 155.927 135.054 156.624 133.179C156.784 132.715 156.963 132.25 157.141 131.786C159.282 126.286 162.025 121.04 165.32 116.143C175.03 102.189 188.721 91.4859 204.606 85.429C207.784 84.1552 211.016 83.0421 214.302 82.0897C220.287 80.3389 226.401 79.067 232.588 78.2862H233.088C249.664 76.1654 266.5 77.5649 282.498 82.3933C283.623 82.7326 284.731 83.1076 285.82 83.5004C287.784 84.1969 289.677 84.9647 291.516 85.7862C294.68 87.1846 297.731 88.8265 300.641 90.6969C302.876 92.0314 305.028 93.4983 307.088 95.0897C308.463 96.1076 309.981 97.3219 311.623 98.6612C313.802 100.447 316.195 102.75 318.659 105.304C328.961 115.878 336.637 128.722 341.07 142.804C341.415 143.911 341.737 145.036 342.034 146.179C342.766 148.893 343.373 151.715 343.82 154.643C346.891 172.09 345.284 193.286 335.106 218.393Z" fill="#FFC28F"/>
<path fill-rule="evenodd" clip-rule="evenodd" d="M334.07 221.804C334.405 221.911 334.754 221.965 335.106 221.965C336.539 222.011 337.861 221.195 338.463 219.893C347.891 196.59 350.945 174.465 347.552 154.125C347.016 151.036 346.373 148.072 345.641 145.34C345.32 144.09 344.998 142.929 344.641 141.768C340.08 127.143 332.126 113.804 321.427 102.84C319.123 100.465 316.677 98.1432 314.141 95.9646C312.498 94.5539 310.891 93.2682 309.427 92.1789C307.268 90.5283 305.02 88.9962 302.695 87.5896C299.651 85.6409 296.464 83.9276 293.159 82.4646C291.123 81.5539 289.177 80.7682 287.213 80.0896C286.07 79.661 284.909 79.2682 283.766 78.9289C267.295 73.9524 249.96 72.5042 232.891 74.6789H232.32C225.947 75.4952 219.648 76.8088 213.481 78.6074C210.052 79.6074 206.677 80.7682 203.463 82.0539C185.909 89.0896 172.123 99.8039 162.516 114.09C159.043 119.237 156.162 124.76 153.927 130.554L153.427 131.875C152.949 133.174 152.572 134.371 152.172 135.642C151.945 136.364 151.71 137.109 151.445 137.911C150.713 140.125 150.141 142.232 149.659 144.215C149.356 145.482 149.07 146.75 148.784 148.018L148.784 148.018C138.766 194.322 157.588 217.447 158.409 218.411C159.495 219.686 161.322 220.034 162.801 219.25C164.281 218.465 165.016 216.757 164.57 215.143L164.566 215.129C164.362 214.376 156.938 187.011 164.016 158.822C164.481 156.929 165.016 155.036 165.641 153.125C165.713 152.875 165.802 152.625 165.945 152.25C166.213 151.34 166.534 150.447 166.873 149.554C167.695 147.34 168.641 145.125 169.641 143C176.104 129.535 186.479 118.333 199.409 110.857C203 108.724 206.735 106.845 210.588 105.232C211.552 104.804 212.534 104.393 213.57 104C218.455 102.09 223.482 100.568 228.606 99.4467L229.766 99.2324C240.56 96.9035 251.708 96.7276 262.57 98.7146L263.106 98.8217H263.373H263.57C266.29 99.3566 268.979 100.042 271.623 100.875C275.551 102.101 279.378 103.63 283.07 105.447C283.265 105.548 283.458 105.647 283.65 105.746C284.986 106.435 286.272 107.099 287.927 108.036C289.82 109.107 291.677 110.286 293.588 111.607C306.088 120.375 316.188 132.139 322.963 145.822C324.106 148 325.034 150.143 325.891 152.197C326.027 152.543 326.165 152.881 326.303 153.218C326.528 153.769 326.752 154.317 326.963 154.893C334.544 174.927 336.157 196.729 331.606 217.661C331.231 219.472 332.3 221.269 334.07 221.804ZM233.623 81.7858C238.53 81.1949 243.467 80.8968 248.409 80.893C259.705 80.6461 270.972 82.1275 281.82 85.2858C282.873 85.6073 283.927 85.9644 284.981 86.3394C286.766 86.9823 288.552 87.6965 290.338 88.5358C293.337 89.852 296.227 91.4045 298.981 93.1787L299.159 93.2858C301.262 94.5555 303.295 95.9385 305.248 97.4287C305.497 97.6318 305.749 97.8366 306.004 98.0439C307.139 98.9664 308.33 99.9357 309.57 101C311.927 103.036 314.231 105.197 316.373 107.429C326.306 117.575 333.692 129.93 337.927 143.482C338.266 144.554 338.57 145.643 338.873 146.75C339.588 149.268 340.177 152.018 340.659 154.875C342.194 164.328 342.321 173.956 341.034 183.447C340.156 172.708 337.751 162.149 333.891 152.089C333.516 151.107 333.123 150.125 332.713 149.179C331.82 147 330.766 144.714 329.588 142.375C322.281 127.621 311.389 114.936 297.909 105.482C295.82 104.054 293.677 102.607 291.731 101.589C291.057 101.237 290.407 100.887 289.776 100.547C288.584 99.9052 287.46 99.2997 286.373 98.7858C279.655 95.4936 272.535 93.0923 265.195 91.643H264.838H264.641L264.07 91.5358C252.335 89.3823 240.292 89.5522 228.623 92.0358L227.177 92.3215C221.703 93.5233 216.329 95.1472 211.106 97.1787C209.981 97.6073 208.891 98.0537 207.873 98.5001C203.74 100.241 199.73 102.264 195.873 104.554C181.71 112.758 170.356 125.051 163.302 139.822C162.195 142.179 161.195 144.572 160.302 146.964C159.909 147.982 159.552 149 159.266 149.911C159.231 150.013 159.189 150.116 159.148 150.219C159.045 150.475 158.945 150.725 158.945 150.929C158.248 152.929 157.659 154.982 157.159 157.018C154.86 166.407 153.75 176.048 153.856 185.714C152.432 173.607 153.103 161.345 155.838 149.464C155.944 149.02 156.049 148.562 156.157 148.094C156.323 147.378 156.493 146.639 156.677 145.893C157.123 144.018 157.677 142 158.284 139.893C158.731 138.089 159.356 136.214 160.07 134.286C160.15 134.033 160.245 133.788 160.35 133.517C160.409 133.367 160.47 133.208 160.534 133.036C162.577 127.781 165.194 122.769 168.338 118.089C177.141 105.089 189.82 95.1966 206.034 88.6966C209.034 87.4823 212.195 86.4108 215.409 85.4644C221.188 83.7663 227.094 82.5362 233.07 81.7858H233.623Z" fill="#372168"/>
<path fill-rule="evenodd" clip-rule="evenodd" d="M343.981 154.643C339.403 154.678 334.83 154.355 330.302 153.679C329.945 152.733 329.57 151.893 329.177 150.876C328.248 148.643 327.231 146.447 326.159 144.304C330.976 142.623 336.123 142.109 341.177 142.804C341.522 143.911 341.844 145.036 342.141 146.179C342.945 148.893 343.481 151.715 343.981 154.643Z" fill="#8BCBC9"/>
<path fill-rule="evenodd" clip-rule="evenodd" d="M329.748 157.215C334.118 157.855 338.528 158.189 342.945 158.215L344.016 158.286C345.063 158.267 346.048 157.791 346.713 156.982C347.375 156.181 347.655 155.132 347.48 154.107C346.945 151.018 346.302 148.054 345.57 145.322C345.248 144.072 344.927 142.911 344.57 141.75C344.17 140.445 343.061 139.481 341.713 139.268C336.082 138.49 330.348 139.06 324.98 140.929C324.009 141.262 323.229 141.997 322.838 142.947C322.447 143.898 322.486 144.972 322.945 145.893C324.088 148.072 325.016 150.215 325.873 152.268C325.932 152.412 325.991 152.556 326.05 152.701C326.352 153.436 326.658 154.183 326.927 154.929C327.381 156.148 328.462 157.023 329.748 157.215ZM339.623 151C337.409 150.893 335.106 150.696 332.838 150.411H332.856L332.855 150.411C332.73 150.107 332.605 149.804 332.498 149.5C332.106 148.554 331.695 147.589 331.248 146.625C333.597 146.145 335.997 145.965 338.391 146.089C338.423 146.209 338.468 146.329 338.512 146.449C338.595 146.668 338.677 146.888 338.677 147.107C338.998 148.357 339.32 149.661 339.623 151Z" fill="#372168"/>
<path fill-rule="evenodd" clip-rule="evenodd" d="M345.266 171.483C341.722 172.103 338.074 171.363 335.052 169.411C333.874 164.01 332.28 158.709 330.284 153.554C334.753 153.14 339.245 153.021 343.73 153.197C344.835 159.228 345.35 165.352 345.266 171.483Z" fill="#FF7DB0"/>
<path fill-rule="evenodd" clip-rule="evenodd" d="M333.23 172.482C336.075 174.308 339.386 175.275 342.766 175.268C343.769 175.291 344.773 175.232 345.766 175.09C347.506 174.799 348.772 173.282 348.748 171.518C348.823 165.153 348.279 158.796 347.123 152.536C346.821 150.916 345.448 149.713 343.802 149.625C339.156 149.443 334.503 149.568 329.873 150C328.753 150.094 327.743 150.71 327.146 151.661C326.549 152.613 326.435 153.791 326.837 154.84C328.771 159.819 330.312 164.941 331.445 170.161C331.681 171.155 332.331 172 333.23 172.482ZM341.695 168.072C340.457 167.951 339.249 167.619 338.123 167.09H338.159C337.349 163.614 336.415 160.179 335.355 156.786C337.141 156.679 338.927 156.679 340.712 156.679C341.275 160.453 341.603 164.258 341.695 168.072Z" fill="#372168"/>
<path fill-rule="evenodd" clip-rule="evenodd" d="M166.427 141.5C165.356 143.768 164.391 146.054 163.534 148.34C163.177 149.286 162.838 150.25 162.534 151.215C162.427 151.518 162.32 151.84 162.231 152.143C158.773 146.402 156.866 139.861 156.695 133.161C156.856 132.697 157.034 132.233 157.213 131.768C159.354 126.268 162.097 121.022 165.391 116.125C164.945 122.215 165.981 132.893 166.427 141.5Z" fill="#FF7DB0"/>
<path fill-rule="evenodd" clip-rule="evenodd" d="M159.248 154.108C159.909 155.111 161.029 155.715 162.23 155.715L162.748 155.751C164.12 155.544 165.247 154.563 165.641 153.233C165.713 152.983 165.802 152.733 165.945 152.358C166.213 151.447 166.534 150.554 166.873 149.661C167.695 147.447 168.641 145.233 169.641 143.09C169.916 142.537 170.034 141.919 169.98 141.304C169.855 138.911 169.695 136.34 169.516 133.769C168.995 127.986 168.805 122.179 168.945 116.376C169.055 114.766 168.072 113.282 166.547 112.756C165.022 112.229 163.333 112.791 162.427 114.126C158.954 119.273 156.073 124.796 153.838 130.59C153.659 131.054 153.48 131.536 153.32 132.001C153.167 132.436 153.1 132.897 153.123 133.358C153.286 140.696 155.4 147.858 159.248 154.108ZM161.891 142.858C161.024 139.866 160.491 136.788 160.302 133.679L160.302 133.679C160.373 133.483 160.445 133.286 160.534 133.072C161.016 131.822 161.534 130.59 162.088 129.394C162.177 131.001 162.284 132.626 162.391 134.233C162.552 136.465 162.695 138.679 162.802 140.804C162.722 140.982 162.642 141.161 162.561 141.34C162.332 141.846 162.102 142.357 161.891 142.858Z" fill="#372168"/>
<path fill-rule="evenodd" clip-rule="evenodd" d="M311.731 98.7502C305.891 100.536 297.606 103.143 289.695 105.089C281.671 100.437 272.925 97.1593 263.82 95.3931C270.62 90.4571 278.057 86.4626 285.927 83.5181C291.126 85.3202 296.1 87.717 300.748 90.6609C304.641 93.0281 308.316 95.7351 311.731 98.7502Z" fill="#FF7DB0"/>
<path fill-rule="evenodd" clip-rule="evenodd" d="M287.909 108.09C288.452 108.404 289.068 108.571 289.695 108.572C289.983 108.577 290.271 108.547 290.552 108.482C298.731 106.465 307.177 103.857 312.82 102.072C314.049 101.675 314.969 100.645 315.225 99.379C315.48 98.1125 315.032 96.8068 314.052 95.9646C310.488 92.8442 306.658 90.0419 302.606 87.5896C297.75 84.4991 292.555 81.9766 287.123 80.0717C286.331 79.7954 285.469 79.7954 284.677 80.0717C276.501 83.1317 268.777 87.2824 261.713 92.411C260.564 93.2487 260.021 94.6881 260.331 96.0757C260.641 97.4634 261.745 98.5349 263.141 98.8038C271.856 100.502 280.226 103.64 287.909 108.09ZM290.213 101.179C284.633 98.0719 278.728 95.5867 272.606 93.7683C276.861 91.2051 281.323 89.0011 285.945 87.179C290.447 88.8368 294.757 90.9741 298.802 93.554L298.981 93.679C300.797 94.7683 302.55 95.9607 304.231 97.2504C299.963 98.554 295.07 99.9647 290.213 101.179Z" fill="#372168"/>
<path fill-rule="evenodd" clip-rule="evenodd" d="M318.766 105.304C311.108 106.936 303.354 108.087 295.552 108.75C293.623 107.411 291.659 106.161 289.623 105C287.963 104.036 286.266 103.215 284.534 102.304C291.623 98.6785 299.251 96.2242 307.123 95.0361C308.498 96.054 310.016 97.2683 311.659 98.6076C313.909 100.536 316.302 102.75 318.766 105.304Z" fill="#FF9966"/>
<path fill-rule="evenodd" clip-rule="evenodd" d="M293.588 111.679C294.185 112.096 294.895 112.32 295.623 112.322L295.945 112.358C303.881 111.662 311.765 110.47 319.552 108.786C320.811 108.503 321.819 107.563 322.189 106.326C322.559 105.09 322.234 103.751 321.338 102.822C319.034 100.447 316.588 98.1256 314.052 95.947C312.409 94.5363 310.802 93.2506 309.32 92.1435C308.561 91.5827 307.611 91.3452 306.677 91.4828C298.376 92.7241 290.335 95.3181 282.873 99.1613C281.698 99.8084 280.985 101.059 281.027 102.4C281.068 103.741 281.857 104.945 283.07 105.518C283.265 105.619 283.458 105.719 283.65 105.818C284.986 106.507 286.272 107.171 287.927 108.108C289.82 109.179 291.677 110.358 293.588 111.679ZM296.588 105.072C295.266 104.179 293.945 103.358 292.641 102.572C297.041 100.856 301.599 99.5765 306.248 98.7506C307.248 99.5363 308.302 100.393 309.391 101.322L311.373 103.108C306.481 103.947 301.248 104.661 296.588 105.072Z" fill="#372168"/>
<path fill-rule="evenodd" clip-rule="evenodd" d="M215.587 96.2502C217.962 96.6252 243.909 101.875 245.945 70.536C245.945 70.1788 245.677 70.1252 245.337 70.1252C239.175 70.3354 233.046 71.1306 227.034 72.5002C206.373 77.286 214.391 93.9288 215.302 96.036C215.352 96.1533 215.461 96.235 215.587 96.2502Z" fill="#FF7DB0"/>
<path fill-rule="evenodd" clip-rule="evenodd" d="M215.302 99.8219C217.403 100.172 219.529 100.352 221.659 100.358C227.894 100.572 234.013 98.6433 238.998 94.8933C245.32 89.8754 248.873 81.7683 249.588 70.804C249.668 69.729 249.3 68.6686 248.57 67.8754C247.762 67.0269 246.634 66.5598 245.463 66.5897C239.018 66.803 232.608 67.6281 226.32 69.054C218.802 70.804 213.73 74.2147 211.213 79.2147C209.48 82.679 208.213 88.6076 212.016 97.2683V97.4826C212.554 98.7436 213.712 99.6312 215.07 99.8219H215.302ZM234.463 89.2683C230.409 92.5005 224.57 93.804 217.909 92.9826H217.945C215.891 87.679 216.552 84.304 217.516 82.3755C219.016 79.3755 222.48 77.2148 227.838 75.9826C232.511 74.9526 237.248 74.2308 242.016 73.8219C241.034 80.8933 238.516 86.0362 234.463 89.2683Z" fill="#372168"/>
<path fill-rule="evenodd" clip-rule="evenodd" d="M210.677 96.4468C207.106 97.0718 174.963 112.358 165.106 59.6433C164.998 59.1254 165.463 58.9111 165.981 59.0004C172.602 60.3054 179.3 61.1823 186.034 61.6254C221.177 65.3933 212.373 92.929 211.034 96.1075C210.975 96.2703 210.843 96.3959 210.677 96.4468Z" fill="#FF7DB0"/>
<path fill-rule="evenodd" clip-rule="evenodd" d="M182.355 98.5004C186.875 101.205 192.053 102.608 197.32 102.554C201.722 102.506 206.09 101.771 210.266 100.375L211.32 100.054C212.726 99.8062 213.902 98.8461 214.427 97.5183C214.659 97.0183 219.927 83.429 213.07 72.0183C208.373 64.2147 199.409 59.554 186.409 58.179C184.088 57.929 182.248 57.7504 180.641 57.6076C175.946 57.2487 171.281 56.5746 166.677 55.5897C165.251 55.2864 163.767 55.7075 162.713 56.7147C161.777 57.6503 161.357 58.9834 161.588 60.2861C165.177 79.5183 172.159 92.3754 182.355 98.5004ZM186.034 92.3754C178.427 87.7861 172.837 78.0004 169.498 63.304C173.921 64.0823 176.468 64.3174 179.9 64.6342L179.998 64.6432L185.659 65.179C196.23 66.3218 203.462 69.8397 206.945 75.6075C210.945 82.2861 209.177 90.3397 208.248 93.4647H208.123C208.082 93.4775 208.041 93.4905 207.999 93.5037C203.949 94.7758 194.712 97.6775 186.034 92.3754Z" fill="#372168"/>
<path d="M215.588 98.0362H215.463C214.49 97.9601 213.758 97.1172 213.82 96.1433C213.82 95.6791 214.713 84.6612 228.963 80.4112C229.904 80.1337 230.893 80.6681 231.177 81.6076C231.316 82.0623 231.267 82.5535 231.043 82.9725C230.818 83.3915 230.436 83.7036 229.98 83.8398C218.195 87.4112 217.48 96.0183 217.373 96.3398C217.326 97.291 216.54 98.0374 215.588 98.0362Z" fill="#372168"/>
<path d="M208.891 98.0182C195.106 98.0182 184.731 84.5718 184.266 83.9646C183.67 83.1756 183.826 82.0524 184.615 81.4557C185.404 80.859 186.527 81.0149 187.124 81.8039C187.124 81.9289 196.481 93.911 208.159 94.4289C205.882 90.2148 203.298 86.1741 200.427 82.3396C200.022 81.8452 199.911 81.1722 200.137 80.5741C200.363 79.9761 200.89 79.5438 201.521 79.4402C202.152 79.3366 202.79 79.5773 203.195 80.0718C206.745 84.887 209.921 89.9674 212.695 95.2682C212.974 95.7928 212.974 96.4221 212.695 96.9468C212.417 97.4633 211.903 97.8104 211.32 97.8753C210.514 97.9753 209.703 98.023 208.891 98.0182Z" fill="#372168"/>
</g>
<path fill-rule="evenodd" clip-rule="evenodd" d="M0 250C0 111.929 111.929 0 250 0C388.071 0 500 111.929 500 250C500 388.071 388.071 500 250 500C111.929 500 0 388.071 0 250ZM492.857 250C492.857 115.874 384.126 7.14286 250 7.14286C115.874 7.14286 7.14286 115.874 7.14286 250C7.14286 384.126 115.874 492.857 250 492.857C384.126 492.857 492.857 384.126 492.857 250Z" fill="#372168"/>
</svg>
