<svg width="500" height="500" viewBox="0 0 500 500" fill="none" xmlns="http://www.w3.org/2000/svg">
<path fill-rule="evenodd" clip-rule="evenodd" d="M250 496.429C386.099 496.429 496.429 386.099 496.429 250C496.429 113.901 386.099 3.57153 250 3.57153C113.901 3.57153 3.57153 113.901 3.57153 250C3.57153 386.099 113.901 496.429 250 496.429Z" fill="#E7EEFF"/>
<mask id="mask0_0_276" style="mask-type:alpha" maskUnits="userSpaceOnUse" x="3" y="3" width="494" height="494">
<path fill-rule="evenodd" clip-rule="evenodd" d="M250 496.429C386.099 496.429 496.429 386.099 496.429 250C496.429 113.901 386.099 3.57153 250 3.57153C113.901 3.57153 3.57153 113.901 3.57153 250C3.57153 386.099 113.901 496.429 250 496.429Z" fill="white"/>
</mask>
<g mask="url(#mask0_0_276)">
<path fill-rule="evenodd" clip-rule="evenodd" d="M336.359 210.077L336.357 210.036C337.536 196.964 339.357 159.232 324.071 134.357C305.536 104.339 275.161 95.5538 249.464 95.9823C223.732 95.5538 193.357 104.339 174.821 134.357C159.554 159.125 161.375 196.911 162.571 209.929V210.03C158.281 208.601 153.604 208.884 149.518 210.822C140.161 215.268 136.089 230.125 145.018 243.714C151.783 254.04 163.198 255.882 171.903 253.893C172.226 254.732 172.545 255.575 172.861 256.412C173.129 257.121 173.395 257.825 173.661 258.518L174.768 261.286C180.393 275.65 188.675 288.827 199.179 300.125C203.705 304.911 208.768 309.16 214.268 312.786C224.14 319.474 235.722 323.192 247.643 323.5H251.214C263.136 323.197 274.719 319.479 284.589 312.786C288.752 310.04 292.665 306.938 296.286 303.517C292.663 306.964 288.743 310.089 284.571 312.857C274.702 319.55 263.118 323.269 251.196 323.572H247.625C235.705 323.264 224.122 319.546 214.25 312.857C208.75 309.231 203.687 304.983 199.161 300.197V359.357C200.071 365.125 211.625 370.054 227.982 372.357C234.864 373.313 241.803 373.796 248.75 373.804H250C256.948 373.796 263.886 373.313 270.768 372.357C287.214 369.982 298.804 365.072 299.607 359.268V300.202L299.696 300.107C310.194 288.814 318.47 275.644 324.089 261.286L325.196 258.518C325.814 257.001 326.396 255.431 326.961 253.879C335.674 255.891 347.129 254.066 353.911 243.714C362.768 230.125 358.768 215.268 349.375 210.875C345.301 208.942 340.638 208.656 336.359 210.077ZM168.304 242.786C168.661 244.021 169.028 245.245 169.406 246.458C169.011 245.278 168.62 244.09 168.232 242.893C167.946 241.947 167.607 240.768 167.393 239.964L167.392 239.962L167.392 239.96C167.178 239.157 166.893 238.088 166.75 237.482C166.693 237.24 166.648 237.035 166.601 236.826L166.6 236.823C166.53 236.507 166.457 236.179 166.339 235.697C166.241 235.295 166.156 234.88 166.071 234.464C165.987 234.049 165.902 233.634 165.804 233.232C165.607 232.429 165.446 231.625 165.286 230.786L165.179 230.232C164.982 229.161 164.786 228.072 164.607 226.964C164.464 226.191 164.339 225.405 164.232 224.607C164.214 224.515 164.194 224.422 164.174 224.329L164.173 224.326C164.096 223.968 164.018 223.604 164.018 223.25C163.857 222.125 163.696 220.982 163.554 219.822C163.387 218.548 163.244 217.316 163.125 216.125C163.018 215.625 162.964 215.125 162.964 214.625C162.964 214.625 163.089 214.286 162.964 214.018C162.896 213.873 162.892 213.638 162.887 213.419C162.884 213.235 162.88 213.062 162.839 212.964C162.784 212.833 162.784 212.809 162.779 212.682C162.775 212.602 162.771 212.482 162.75 212.268L162.74 212.172L162.733 212.101C162.738 212.124 162.744 212.144 162.75 212.161C162.791 212.274 162.787 212.34 162.783 212.418C162.777 212.512 162.771 212.623 162.839 212.857C162.907 213.091 162.912 213.266 162.916 213.441C162.92 213.587 162.924 213.732 162.964 213.911C163.054 214.304 163.054 214.518 163.054 214.518C163.068 214.718 163.094 214.918 163.119 215.118C163.158 215.418 163.196 215.718 163.196 216.018C163.312 217.178 163.459 218.368 163.594 219.46L163.625 219.714C163.768 220.875 163.929 222.018 164.089 223.143C164.114 223.298 164.137 223.456 164.16 223.614C164.202 223.91 164.245 224.209 164.304 224.5C164.411 225.298 164.536 226.084 164.679 226.857C164.857 227.964 165.054 229.054 165.25 230.125L165.357 230.679C165.438 231.098 165.527 231.5 165.616 231.902C165.705 232.304 165.795 232.706 165.875 233.125C165.967 233.603 166.087 234.134 166.197 234.617C166.28 234.982 166.357 235.321 166.411 235.589C166.536 236.214 166.679 236.804 166.821 237.375L166.933 237.814C167.097 238.459 167.245 239.038 167.464 239.857C167.732 240.857 168.018 241.839 168.304 242.786ZM162.634 211.151C162.641 211.261 162.649 211.369 162.657 211.471C162.623 211.182 162.595 210.883 162.59 210.572C162.607 210.764 162.621 210.962 162.634 211.151Z" fill="#B86961"/>
<path d="M28.5708 496.429C28.9184 495.049 29.1005 494.313 29.4546 492.974C29.7008 492.043 29.9443 491.123 30.1786 490.214C31.1786 486.643 32.1965 483.072 33.2322 479.804C33.3562 479.409 33.4801 479.017 33.6035 478.626C33.8712 477.778 34.1362 476.938 34.3929 476.107C34.6786 475.214 34.9643 474.322 35.25 473.5C36.0357 471.143 36.8215 468.857 37.6072 466.661C39.381 461.732 41.1667 457.197 42.9643 453.054C43.4108 452 43.8572 450.964 44.3036 449.964L44.5715 449.375C45.5358 447.161 46.5179 445.089 47.5 443.125C50.2915 437.275 53.6024 431.687 57.3929 426.429C57.443 426.354 57.497 426.282 57.5494 426.213L57.5495 426.213C57.6091 426.134 57.6668 426.058 57.7143 425.982C58.6965 424.697 59.6429 423.536 60.5536 422.536L60.6608 422.411C61.3021 421.689 61.9834 420.988 62.6598 420.291C62.8874 420.057 63.1145 419.823 63.3393 419.589C69.0979 413.797 75.4345 408.609 82.25 404.107L84.3215 402.732C85.3691 402.042 86.4405 401.363 87.5358 400.697C90.1786 399.054 92.8929 397.464 95.6965 395.911C100.321 393.339 105.107 390.911 109.982 388.607C115.875 385.822 121.875 383.25 127.839 380.822L131.893 379.214C133.054 378.75 134.232 378.304 135.464 377.875C140.679 375.893 145.857 374.072 150.911 372.375C160.696 369.089 169.964 366.339 178.143 364.072C186.607 361.732 193.857 359.911 199.196 358.625C199.17 358.874 199.17 359.126 199.196 359.375C200.107 365.143 211.696 370.089 228.018 372.375C234.899 373.33 241.838 373.814 248.786 373.822H250.036C256.983 373.814 263.922 373.33 270.804 372.375C287.25 370.054 298.839 365.089 299.643 359.286C299.661 359.066 299.661 358.845 299.643 358.625C305 359.929 312.321 361.75 320.839 364.107C328.982 366.357 338.196 369.107 347.929 372.375C354.107 374.447 360.429 376.714 366.875 379.214C370.149 380.476 373.417 381.804 376.679 383.197L380.411 384.786L383.411 386.107C390.143 389.143 396.768 392.393 403.054 395.911C406.982 398.089 410.804 400.357 414.446 402.732L415.464 403.411C417.25 404.554 419.036 405.732 420.607 406.982C425.886 410.723 430.838 414.905 435.411 419.482C436.375 420.447 437.304 421.429 438.196 422.429C439.287 423.635 440.312 424.899 441.268 426.214V426.322C442.089 427.429 442.946 428.643 443.786 429.893C446.514 434.095 448.983 438.461 451.179 442.964C452.232 445.107 453.286 447.375 454.375 449.804C455.054 451.339 455.732 452.929 456.411 454.572C456.875 455.677 457.326 456.811 457.787 457.974L457.946 458.375C458.958 460.947 459.976 463.655 461 466.5C461.786 468.697 462.571 470.982 463.357 473.339C464.262 476.113 465.173 478.994 466.089 481.982C466.219 482.421 466.351 482.862 466.484 483.306L466.488 483.32L466.489 483.323C466.738 484.154 466.989 484.993 467.232 485.839L467.341 486.219C467.689 487.426 468.073 488.762 468.429 490.054C469.054 492.268 469.089 494.089 469.642 496.429H28.5708Z" fill="#FFCB6D"/>
<g style="mix-blend-mode:soft-light" opacity="0.8">
<path d="M320.929 364.089C316.518 370.839 309.143 376.197 299.679 380.161C291.583 383.427 283.114 385.677 274.465 386.857C257.921 389.19 241.133 389.19 224.59 386.857C215.891 385.664 207.373 383.397 199.232 380.107C189.822 376.143 182.5 370.786 178.107 364.036C186.572 361.697 193.822 359.875 199.161 358.589C199.135 358.839 199.135 359.09 199.161 359.339C200.072 365.107 211.661 370.054 227.982 372.339C234.864 373.295 241.803 373.778 248.75 373.786H250C256.948 373.778 263.887 373.295 270.768 372.339C287.215 370.018 298.804 365.054 299.607 359.25C299.625 359.03 299.625 358.809 299.607 358.589C305.107 359.911 312.411 361.732 320.929 364.089Z" fill="white"/>
</g>
<g style="mix-blend-mode:multiply" opacity="0.15">
<path fill-rule="evenodd" clip-rule="evenodd" d="M296.036 303.786V356.107C251.536 356.804 218.571 333.893 202.839 320.197V303.75C206.378 307.132 210.222 310.181 214.321 312.857C224.196 319.539 235.777 323.257 247.696 323.572H251.268C263.187 323.257 274.767 319.539 284.643 312.857C288.703 310.179 292.516 307.143 296.036 303.786Z" fill="#7C3830"/>
</g>
<path fill-rule="evenodd" clip-rule="evenodd" d="M251.405 92.5021L249.607 92.5181C229.965 92.1609 193.786 96.9645 172.107 132.572C158.313 154.962 157.857 186.762 158.887 204.188L158.974 205.569C155.23 205.217 151.43 205.875 147.982 207.518C142.75 210.188 138.924 214.984 137.482 220.679C135.315 229.276 136.969 238.391 142.018 245.679L142.367 246.206C147.562 253.862 156.293 258.382 165.572 258.179C166.928 258.145 168.279 258.026 169.616 257.82C169.875 258.516 170.14 259.214 170.411 259.911L171.518 262.697C177.149 276.991 185.317 290.146 195.623 301.529L195.714 301.627L195.715 355.746C189.544 357.259 183.316 358.893 177.018 360.625C167.286 363.322 158.322 366.054 149.607 368.982C143.947 370.947 138.839 372.732 134.054 374.518C133.649 374.661 133.268 374.802 132.89 374.945L129.121 376.404C128.211 376.762 127.298 377.131 126.393 377.5L123.777 378.554C118.55 380.687 113.355 382.972 108.304 385.375C103.161 387.804 98.2681 390.286 93.8038 392.786C90.7323 394.5 88.0181 396.09 85.5359 397.625L84.686 398.148C83.844 398.67 83.027 399.192 82.2502 399.715C81.5181 400.179 80.7859 400.661 80.1252 401.125C73.1183 405.706 66.5965 410.99 60.6609 416.893C60.1084 417.526 59.5607 418.081 59.0418 418.606C58.6385 419.014 58.2522 419.406 57.8931 419.804L57.7681 419.964C56.8395 420.964 55.8395 422.179 54.7324 423.643C54.6629 423.719 54.603 423.803 54.5538 423.893L54.3752 424.125L53.4065 425.489C49.8928 430.513 46.8003 435.821 44.1609 441.357C43.2936 442.952 42.5902 444.473 41.9337 445.961L41.1609 447.732L40.4341 449.369C40.1312 450.062 39.8335 450.768 39.5359 451.482L38.9407 452.892C37.3534 456.697 35.7661 460.857 34.1788 465.286C33.3931 467.5 32.5895 469.822 31.8038 472.197L31.5048 473.082L30.9109 474.875L29.3308 479.975C28.7465 481.87 28.1571 483.86 27.5661 485.923L26.6788 489.072C26.397 490.181 26.1022 491.308 25.8051 492.444L25.8033 492.45C25.4985 493.616 25.1912 494.79 24.8931 495.964L24.4109 497.75C24.2591 498.339 24.2617 499.386 24.1077 500H475.001L473.607 495.268C473.607 495.268 472.5 491.089 471.929 489.089C471.643 488.036 471.34 486.964 471.036 485.929L470.732 484.839L469.572 480.929C469.114 479.523 468.684 478.141 468.261 476.782L468.26 476.777L468.259 476.775C467.774 475.218 467.299 473.692 466.804 472.197C466.018 469.822 465.214 467.5 464.429 465.286C463.375 462.411 462.34 459.607 461.322 457.054L461.161 456.607C460.697 455.429 460.232 454.286 459.768 453.197C459.089 451.518 458.393 449.911 457.697 448.339C456.813 446.371 455.999 444.603 455.218 442.961L454.447 441.357C452.18 436.743 449.646 432.265 446.857 427.947C446.494 427.435 446.143 426.92 445.786 426.397L445.785 426.395L445.78 426.388L445.776 426.382L445.775 426.38C445.276 425.649 444.766 424.902 444.197 424.125L444.054 423.947C442.893 422.375 441.786 421.018 440.84 419.982C439.893 418.947 438.911 417.893 437.929 416.911C433.212 412.19 428.105 407.877 422.661 404.018C420.875 402.732 419.107 401.518 417.447 400.447C417.072 400.197 416.697 399.929 416.375 399.732L415.181 398.96C411.971 396.906 408.544 394.879 404.75 392.768C398.697 389.411 392.179 386.161 384.786 382.84L381.732 381.5L380.786 381.089L378 379.893C374.804 378.536 371.572 377.232 368.089 375.875C362.036 373.518 355.786 371.268 348.982 368.982C340.197 366.018 331.018 363.232 321.714 360.661C316.142 359.113 311.158 357.818 307.021 356.777L303.177 355.82L303.18 301.869C313.65 290.402 321.936 277.115 327.625 262.661L328.75 259.84C328.994 259.208 329.236 258.57 329.475 257.934C330.756 258.092 332.047 258.174 333.34 258.179C342.78 258.375 351.652 253.682 356.804 245.768L357.228 245.139C361.94 237.958 363.446 229.123 361.357 220.768C359.904 215.075 356.072 210.281 350.839 207.607C347.544 206.034 343.923 205.364 340.34 205.62C341.456 188.523 341.341 155.535 327.197 132.59C305.857 98.0333 271.243 92.4937 251.405 92.5021ZM174.31 368.941L176.707 368.261C181.449 374.391 188.538 379.467 197.822 383.375C206.269 386.798 215.112 389.15 224.143 390.375C232.577 391.588 241.087 392.184 249.607 392.161C258.096 392.211 266.576 391.644 274.982 390.464C283.919 389.235 292.669 386.908 301.036 383.536C310.438 379.612 317.599 374.466 322.363 368.292C330.744 370.648 339.002 373.193 346.947 375.857C353.643 378.107 359.786 380.322 365.732 382.643C369.143 383.964 372.322 385.25 375.465 386.589L379.161 388.161L382.089 389.464C389.286 392.697 395.643 395.857 401.518 399.125C405.607 401.411 409.286 403.607 412.75 405.857L414.713 407.143C416.03 408.014 417.375 408.943 418.732 409.929C423.828 413.56 428.607 417.616 433.018 422.054L433.027 422.063L433.028 422.064L433.031 422.067C433.92 422.973 434.826 423.898 435.697 424.893C436.703 425.999 437.645 427.162 438.518 428.375L438.679 428.572C439.554 429.732 440.304 430.839 441.036 431.964C443.67 436.043 446.056 440.277 448.179 444.643L448.549 445.397C449.169 446.67 449.807 448.032 450.479 449.51L451.304 451.34C451.982 452.857 452.643 454.411 453.322 456.054L453.768 457.136C454.066 457.865 454.363 458.607 454.661 459.357L454.822 459.786C455.804 462.268 456.822 464.964 457.839 467.804L458.426 469.444C459.009 471.102 459.585 472.813 460.161 474.554L460.71 476.209C461.439 478.434 462.161 480.728 462.875 483.089L463.286 484.464L464.322 488C464.411 488.319 464.502 488.639 464.594 488.962C464.796 489.67 465 490.389 465.197 491.125L465.75 493.125L33.0362 492.857L34.0604 489.595C34.9505 486.425 35.8373 483.427 36.6966 480.661L37.8574 476.982C37.9278 476.767 37.9972 476.553 38.066 476.341L38.0746 476.315L38.077 476.307C38.2834 475.671 38.4851 475.05 38.6966 474.429L39.1662 473.034C39.7902 471.187 40.4074 469.389 41.0359 467.661C42.6966 462.804 44.4824 458.304 46.2681 454.232C46.6966 453.214 47.1431 452.197 47.5716 451.232L48.3808 449.399C49.0916 447.809 49.8574 446.2 50.7145 444.5C53.4042 438.864 56.6019 433.485 60.2681 428.429L60.6252 427.929L60.9123 427.567C61.7565 426.503 62.4952 425.571 63.0895 424.929L63.3574 424.643C64.1074 423.75 65.0002 422.857 65.8931 421.964C71.4951 416.4 77.6454 411.416 84.2502 407.089L86.2859 405.75C87.3038 405.089 88.3216 404.429 89.4109 403.768L90.3253 403.204C92.4835 401.882 94.8194 400.525 97.4288 399.072C101.75 396.714 106.482 394.304 111.5 391.929C117.268 389.197 123.214 386.607 129.214 384.232L130.403 383.75L134.381 382.179C135.139 381.883 135.905 381.589 136.679 381.304L138.107 380.768C141.462 379.517 144.969 378.262 148.722 376.972L152 375.857C159.158 373.447 166.502 371.172 174.31 368.941ZM184.393 366.157C188.516 365.055 192.642 363.992 196.732 362.982C201.168 370.96 217.454 374.461 226.094 375.788L227.536 376C234.583 376.981 241.689 377.476 248.804 377.482H250.072C257.181 377.477 264.281 376.981 271.322 376C279.216 374.897 296.294 371.631 301.647 363.858C301.843 363.579 302.024 363.294 302.189 363.003L302.186 363.002L302.25 362.893C302.23 362.93 302.21 362.966 302.189 363.003C304.675 363.572 307.543 364.297 310.758 365.145L314.781 366.219C310.113 370.867 304.525 374.491 298.375 376.857L296.904 377.436C289.53 380.27 281.85 382.24 274.018 383.304C257.825 385.589 241.39 385.589 225.197 383.304C216.793 382.154 208.564 379.971 200.697 376.804C194.553 374.41 188.976 370.761 184.322 366.089L184.393 366.157ZM202.804 308.572V358.947C203.589 361.697 211.875 366.429 228.554 368.768C235.275 369.706 242.053 370.177 248.839 370.179H250.072C256.852 370.176 263.624 369.705 270.34 368.768C277.467 367.762 283.059 366.326 287.189 364.797L287.549 364.662C293.011 362.567 295.752 360.324 295.964 358.786C295.966 358.444 296.014 358.107 296.105 357.784L296.108 308.727C293.577 310.921 290.923 312.971 288.159 314.868L286.768 315.804C277.842 321.844 267.593 325.583 256.933 326.73C255.026 326.945 253.107 327.077 251.179 327.125H247.697L247.583 327.12L247.554 327.125C245.591 327.072 243.637 326.932 241.697 326.706L239.892 326.47L238.853 326.312L237.354 326.054L236.156 325.822C228.056 324.177 220.306 321.02 213.323 316.484L212.375 315.857C209.015 313.66 205.817 311.225 202.804 308.572ZM247.787 99.6841L249.465 99.6967C267.482 99.4109 300.768 103.75 320.893 136.375C335.178 159.533 333.806 195.554 332.772 208.258L332.643 209.75V209.982L335.894 210.258L332.697 210.179L332.695 210.199L332.643 210.197C332.56 211 332.48 211.699 332.412 212.273L332.179 214.072C332.17 214.173 332.17 214.274 332.179 214.375L332.072 215.732C331.786 218.304 331.518 220.518 331.161 222.875C330.804 225.232 330.411 227.518 330 229.679L329.793 230.775C329.649 231.508 329.494 232.238 329.34 232.929L328.883 234.995L328.643 236.018V236.179C328.527 236.679 328.406 237.152 328.286 237.612L327.929 238.964L327.93 239.159C327.69 240.117 327.433 240.953 327.161 241.822L326.784 243.038L326.453 244.077L326.375 244.304C325.572 246.929 324.661 249.661 323.572 252.661V252.839C323.142 254.042 322.69 255.244 322.251 256.409L321.929 257.268L320.266 261.407C314.81 274.796 306.985 287.096 297.161 297.714L297.491 297.352C297.344 297.461 297.203 297.582 297.072 297.714C292.739 302.311 287.885 306.386 282.607 309.857L281.732 310.443C272.643 316.406 262.061 319.714 251.179 319.982H247.697C247.338 319.973 246.979 319.96 246.62 319.944L245.709 319.896L244.376 319.798C234.345 318.949 224.68 315.534 216.322 309.857L215.113 309.046C210.31 305.76 205.871 301.967 201.875 297.732C201.772 297.624 201.663 297.522 201.546 297.433C191.505 286.512 183.571 273.827 178.143 260.018L177.054 257.304C176.869 256.822 176.685 256.332 176.5 255.838L175.393 252.857L175.072 252.679C173.822 249.197 172.625 245.536 171.5 241.822C171.375 241.395 171.233 240.89 171.099 240.407L171.097 240.402L170.967 239.935L170.598 238.662C170.532 238.425 170.466 238.167 170.398 237.893L169.991 236.244C169.968 236.145 169.946 236.047 169.924 235.946C169.907 235.869 169.889 235.79 169.872 235.71C169.812 235.434 169.747 235.137 169.661 234.786L169.484 234.043C169.367 233.54 169.256 233.024 169.161 232.5V232.322C168.982 231.589 168.822 230.839 168.679 230.036L168.572 229.536L167.877 225.543C167.796 225.064 167.72 224.572 167.661 224.072C167.661 224.048 167.675 224.042 167.689 224.036C167.716 224.024 167.744 224.012 167.661 223.857C167.536 223.625 167.536 223.375 167.536 223.143V222.679C167.482 222.316 167.431 221.945 167.38 221.57L166.954 218.447C166.841 217.577 166.737 216.67 166.643 215.732L166.543 214.826L166.518 214.375C166.528 214.262 166.528 214.149 166.518 214.036L166.321 212.39L166.322 211.75C166.31 211.605 166.289 211.447 166.266 211.274C166.218 210.912 166.161 210.483 166.161 209.964L166.15 209.69C166.129 209.418 166.078 209.153 165.998 208.899L165.907 207.817C164.874 194.745 163.647 159.321 177.804 136.375C197.342 104.729 229.281 99.6968 247.787 99.6841ZM340.114 212.879L339.767 212.935L339.563 214.58C339.537 214.767 339.516 214.908 339.5 215L339.393 216.34C339.127 218.824 338.862 221.062 338.56 223.078L338.429 223.929L338.334 224.521L338.333 224.528C337.999 226.619 337.623 228.971 337.232 231.072C337.089 231.857 336.939 232.627 336.78 233.392L336.536 234.536L336.479 234.795C336.255 235.819 336.07 236.666 335.839 237.589V237.768L335.67 238.453C338.062 238.329 340.29 237.109 341.679 235.107C343.397 232.746 343.679 229.631 342.411 227C341.88 226.172 342.119 225.069 342.947 224.536C343.775 224.005 344.878 224.244 345.411 225.072C347.292 228.649 347.173 232.947 345.098 236.415C343.023 239.883 339.291 242.02 335.25 242.054L335.322 242.089C335.12 242.089 334.919 242.081 334.718 242.067L334.461 242.972L334.197 243.857C333.893 244.857 333.643 245.643 333.339 246.5C332.897 247.941 332.408 249.455 331.871 251.043L331.732 251.036C339.141 251.719 346.329 248.374 350.581 242.306L350.911 241.822C354.771 236.266 356.071 229.326 354.482 222.75C353.59 219.044 351.152 215.897 347.786 214.107C345.57 213.04 343.112 212.598 340.676 212.816L340.114 212.879ZM151.036 214.054C152.87 213.175 154.877 212.717 156.911 212.715C157.733 212.727 158.552 212.817 159.357 212.982V213.393C159.413 213.589 159.416 213.756 159.418 213.914C159.42 214.058 159.422 214.195 159.464 214.34C159.518 214.522 159.54 214.678 159.548 214.805L159.554 215.018C159.583 215.509 159.636 215.997 159.714 216.482C159.756 216.911 159.802 217.338 159.849 217.761L160.143 220.25C160.286 221.465 160.447 222.625 160.625 223.822V224.232L160.786 225.197C160.84 225.607 160.902 226.018 160.967 226.415L161.35 228.679C161.465 229.334 161.589 229.991 161.713 230.653L161.768 230.947L161.857 231.465L162.462 234.335L162.929 236.447L163.357 238.232V238.429L163.375 238.5C160.829 238.502 158.422 237.251 156.964 235.125C155.259 232.765 154.985 229.659 156.25 227.036C156.781 226.207 156.542 225.105 155.715 224.572C154.886 224.041 153.784 224.28 153.25 225.107C151.369 228.684 151.488 232.983 153.563 236.451C155.638 239.919 159.37 242.056 163.411 242.089C163.716 242.095 164.021 242.085 164.325 242.061L164.433 242.052L164.59 242.036C164.537 242.042 164.485 242.047 164.433 242.052C164.397 242.055 164.361 242.058 164.325 242.061L164.321 242.061L164.84 243.84C165.572 246.268 166.322 248.643 167.107 250.982C159.504 251.688 152.13 248.145 147.929 241.768L147.55 241.208C143.974 235.755 142.811 229.053 144.357 222.697C145.244 218.993 147.675 215.846 151.036 214.054Z" fill="#372168"/>
<path fill-rule="evenodd" clip-rule="evenodd" d="M302.189 363.003C302.21 362.966 302.23 362.93 302.25 362.893L302.186 363.002L302.189 363.003ZM164.433 242.052L164.59 242.036C164.537 242.042 164.485 242.047 164.433 242.052Z" fill="#372168"/>
<g style="mix-blend-mode:multiply" opacity="0.15">
<path fill-rule="evenodd" clip-rule="evenodd" d="M218.75 249.583C218.75 260.484 210.755 269.32 200.893 269.32C191.031 269.32 183.036 260.484 183.036 249.583C183.036 238.683 191.031 229.846 200.893 229.846C210.755 229.846 218.75 238.683 218.75 249.583ZM315.179 249.583C315.179 260.484 307.184 269.32 297.322 269.32C287.459 269.32 279.464 260.484 279.464 249.583C279.464 238.683 287.459 229.846 297.322 229.846C307.184 229.846 315.179 238.683 315.179 249.583Z" fill="#FF1300"/>
</g>
<path d="M248.929 281.482C246.279 281.529 243.654 280.973 241.25 279.857C240.377 279.394 240.045 278.31 240.509 277.438C240.972 276.565 242.056 276.233 242.929 276.696C246.971 278.429 251.547 278.429 255.589 276.696C256.186 276.464 256.861 276.567 257.361 276.967C257.861 277.367 258.11 278.003 258.013 278.636C257.916 279.269 257.489 279.803 256.893 280.036C254.35 281.006 251.65 281.496 248.929 281.482Z" fill="#372168"/>
<path d="M249.982 274.125C240.607 274.125 232 270.911 227 265.554C225.931 264.283 226.043 262.398 227.255 261.262C228.466 260.127 230.354 260.137 231.554 261.286C235.357 265.339 242.411 267.875 250 267.875C251.726 267.875 253.125 269.274 253.125 271C253.125 272.726 251.726 274.125 250 274.125H249.982Z" fill="#372168"/>
<path fill-rule="evenodd" clip-rule="evenodd" d="M268.839 265.25C263.38 269.167 256.788 271.187 250.071 271C248.286 265.643 247.839 258.982 254.196 256.161C261.053 253.107 265.821 258.875 268.482 264C268.686 264.388 268.808 264.813 268.839 265.25Z" fill="#FF6666"/>
<path fill-rule="evenodd" clip-rule="evenodd" d="M247.018 271.964C247.469 273.264 248.696 274.132 250.071 274.125C257.485 274.308 264.755 272.056 270.768 267.714C271.595 267.067 272.044 266.048 271.964 265C271.879 264.14 271.631 263.303 271.232 262.536C266.464 253.589 259.75 250.232 252.839 253.304C246.25 256.232 244.125 263.036 247.018 271.964ZM255.375 259.018C256.127 258.65 256.949 258.449 257.786 258.429C259.607 258.429 262.161 259.464 264.964 264.232C261.092 266.389 256.768 267.612 252.339 267.804C250.864 261.068 254.165 259.568 255.358 259.025L255.375 259.018Z" fill="#372168"/>
<path d="M260.232 271.679C259.53 271.677 258.895 271.265 258.607 270.625L256.714 266.393C256.456 265.809 256.528 265.132 256.905 264.616C257.281 264.101 257.904 263.825 258.539 263.893C259.173 263.961 259.724 264.363 259.982 264.947L261.768 269.179C262.008 269.729 261.956 270.363 261.628 270.866C261.301 271.37 260.743 271.675 260.143 271.679H260.232Z" fill="#372168"/>
<path d="M249.059 246.94C245.159 246.993 241.492 245.089 239.291 241.869C238.354 240.419 238.77 238.484 240.219 237.548C241.669 236.611 243.604 237.026 244.541 238.476C245.628 239.89 247.316 240.711 249.099 240.694C250.882 240.676 252.553 239.822 253.612 238.387C254.51 236.907 256.437 236.436 257.916 237.333C259.395 238.231 259.867 240.157 258.969 241.637C256.809 245.003 253.058 247.011 249.059 246.94Z" fill="#372168"/>
<path d="M293.506 224.089C292.409 224.089 291.392 223.513 290.828 222.572C289.769 221.137 288.097 220.282 286.314 220.265C284.531 220.247 282.843 221.068 281.756 222.482C281.183 223.486 280.103 224.092 278.948 224.057C277.792 224.023 276.75 223.353 276.239 222.316C275.728 221.279 275.831 220.045 276.506 219.107C278.76 215.888 282.459 213.99 286.389 214.036C290.319 214.083 293.972 216.068 296.149 219.339C296.723 220.304 296.739 221.503 296.19 222.483C295.641 223.463 294.611 224.075 293.488 224.089H293.506Z" fill="#372168"/>
<path d="M220.279 224C219.19 224.004 218.179 223.434 217.619 222.5C216.56 221.065 214.888 220.211 213.105 220.193C211.322 220.176 209.634 220.997 208.547 222.411C207.941 223.348 206.881 223.892 205.765 223.836C204.65 223.78 203.65 223.133 203.14 222.139C202.631 221.146 202.691 219.956 203.297 219.018C205.556 215.806 209.253 213.914 213.18 213.961C217.106 214.007 220.757 215.986 222.94 219.25C223.372 219.957 223.504 220.808 223.306 221.612C223.108 222.417 222.597 223.11 221.886 223.536C221.406 223.84 220.848 224.001 220.279 224Z" fill="#372168"/>
<path d="M303.446 206.375H303.089C302.089 206.375 278.357 203.946 267.018 199C265.208 198.211 264.381 196.104 265.17 194.295C265.959 192.485 268.065 191.657 269.875 192.446C280.179 196.946 303.536 199.25 303.804 199.268C305.776 199.357 307.303 201.028 307.214 203C307.126 204.972 305.455 206.5 303.482 206.411L303.446 206.375Z" fill="#372168"/>
<path d="M194.25 206.375C192.278 206.464 190.607 204.937 190.518 202.964C190.429 200.992 191.956 199.321 193.929 199.232C194.161 199.232 217.518 196.911 227.857 192.411C229.028 191.9 230.382 192.053 231.409 192.812C232.437 193.571 232.981 194.82 232.838 196.089C232.694 197.358 231.885 198.454 230.714 198.964C219.375 203.911 195.643 206.25 194.643 206.339L194.25 206.375Z" fill="#372168"/>
<path fill-rule="evenodd" clip-rule="evenodd" d="M443.381 249.661C449.691 257.477 451.699 267.92 448.738 277.518C446.557 283.633 442.016 288.618 436.131 291.358C430.363 294.215 421.684 300.965 426.291 314.447C426.898 316.233 427.452 318.018 427.952 319.804C429.657 325.976 428.554 332.586 424.936 337.87C421.319 343.153 415.555 346.573 409.184 347.215C406.758 347.462 404.32 347.581 401.881 347.572C386.416 347.572 388.059 363.643 388.059 363.643C388.398 369.84 391.631 378.411 383.023 385.608L380.381 384.447L376.648 382.858C373.387 381.465 370.119 380.137 366.845 378.875C360.434 376.375 354.077 374.108 347.898 372.036C338.166 368.768 328.952 366.018 320.809 363.768C312.291 361.411 304.934 359.572 299.559 358.268V299.875C310.057 288.583 318.332 275.412 323.952 261.054L325.059 258.286C325.648 256.75 326.238 255.161 326.845 253.59C335.559 255.608 347.023 253.786 353.809 243.429C362.738 229.84 358.666 214.983 349.309 210.536C345.223 208.597 340.545 208.316 336.256 209.75C336.256 209.75 332.095 173.643 301.398 180.857C270.702 188.072 262.631 169.5 256.488 160.786C250.345 152.072 238.006 146.661 219.363 153.036C206.041 157.608 193.184 147.965 186.934 142.09C186.691 141.861 186.319 141.837 186.048 142.034C185.778 142.23 185.685 142.591 185.827 142.893C189.113 150.036 192.256 163.107 176.006 171.732C167.506 176.268 163.023 185.733 161.72 195.518C161.809 201.465 162.166 206.411 162.47 209.804C158.175 208.368 153.491 208.65 149.398 210.59C140.041 215.036 136.041 229.893 144.898 243.482C151.684 253.84 163.148 255.661 171.863 253.643C172.434 255.215 173.023 256.804 173.648 258.34L174.756 261.108C180.375 275.476 188.65 288.658 199.148 299.965V358.34C193.791 359.625 186.488 361.465 178.023 363.804C169.845 366.072 160.577 368.822 150.791 372.108C145.738 373.893 140.559 375.679 135.345 377.608C134.184 378.036 133.006 378.483 131.773 378.947L127.72 380.554C122.631 382.59 117.541 384.768 112.506 387.108C107.865 383.752 104.805 378.64 104.041 372.965C103.794 370.438 104.024 367.888 104.72 365.447C105.684 361.608 106.148 351.929 89.202 345.465C78.3627 341.34 65.9877 325.572 76.2555 306.679C85.1841 290.161 74.8448 280.715 72.1127 278.608C70.9698 277.733 69.827 276.822 68.7555 275.929C49.1127 258.59 57.6127 236.179 67.3984 229.108C77.6127 221.75 78.3984 212.322 72.7555 199.697C63.952 179.697 70.3448 166.482 77.1127 158.982C80.9804 154.899 85.9384 152.011 91.3984 150.661C98.5413 148.715 102.47 145.786 103.684 139.125C104.97 131.982 107.256 125 112.381 119.893C126.666 105.607 149.166 108.09 153.184 108.661C153.334 108.685 153.486 108.637 153.595 108.531C153.703 108.426 153.756 108.276 153.738 108.125C153.381 104.072 152.131 81.1968 168.881 65.2682C176.96 57.8173 187.71 53.9526 198.684 54.5539C205.006 54.8218 213.327 54.5539 219.898 51.7503C230.309 47.4289 243.113 33.2146 264.398 35.4289C269.819 36.093 275.05 37.8485 279.773 40.5896C286.062 43.9023 293.255 45.0865 300.273 43.9646C315.952 41.8932 333.684 39.4825 347.273 67.7682C355.202 84.2682 376.47 65.2682 394.309 76.5182C421.559 93.7325 405.863 116.768 417.523 125.643C429.184 134.518 454.773 136.679 438.166 174.518C436.849 177.455 436.237 180.66 436.381 183.875C436.501 188.919 439.197 193.549 443.523 196.143C454.238 202.661 454.934 217.375 446.756 223.982C438.577 230.59 435.006 240.233 443.381 249.661Z" fill="#A6E5FF"/>
<path fill-rule="evenodd" clip-rule="evenodd" d="M281.666 37.3931C276.52 34.4096 270.822 32.5021 264.916 31.7859C249.847 30.2304 238.512 36.3941 229.951 41.7382L227.416 43.3395C224.631 45.2506 221.692 46.9289 218.631 48.3574C212.559 50.8931 204.595 51.1431 198.988 50.8931L198.174 50.8594C186.521 50.4841 175.171 54.6954 166.577 62.6074C152.332 76.0841 150.226 94.2498 150.163 103.415L150.166 104.607C141.684 104 122.97 104.357 110.023 117.215C104.179 123.01 101.848 130.753 100.653 136.635L100.246 138.757C99.3047 143.269 96.8175 145.338 90.6127 147.072C84.4607 148.574 78.8775 151.831 74.5413 156.447C67.0056 164.893 60.0234 179.393 69.5591 201.09L69.8285 201.706C74.7459 213.13 73.4141 220.247 65.2913 226.09C59.7199 230.125 53.8449 239.09 53.327 250.018C52.9699 257.447 54.9341 268.411 66.3806 278.482C67.3818 279.38 68.4331 280.178 69.4376 280.939L69.44 280.941L69.5413 281.018L70.1668 281.525C73.024 283.89 80.3542 291.466 73.1127 304.857L72.7546 305.525C67.4033 315.735 68.4632 324.387 70.4238 330.094L70.6841 330.822C73.6799 338.921 79.9289 345.397 87.9163 348.679C101.648 353.911 102.166 360.875 101.256 364.447L101.06 365.174C100.388 367.851 100.193 370.627 100.488 373.375C101.391 380.016 104.964 386 110.381 389.947C110.993 390.39 111.731 390.625 112.488 390.625C113.046 390.591 113.589 390.433 114.077 390.161C118.845 387.947 123.898 385.768 129.131 383.661L134.297 381.626C135.055 381.33 135.821 381.036 136.595 380.75L138.188 380.155C142.467 378.568 146.98 376.98 151.916 375.393C160.398 372.5 169.506 369.768 178.97 367.143C180.914 366.643 182.868 366.135 184.827 365.626L184.861 365.617C189.891 364.309 194.953 362.992 199.97 361.786C201.61 361.39 202.749 359.901 202.702 358.215V299.84C202.703 298.922 202.351 298.04 201.72 297.375C191.551 286.382 183.526 273.585 178.059 259.643L177.826 259.066C177.535 258.346 177.252 257.649 176.97 256.929C176.416 255.482 175.845 253.965 175.309 252.482C174.772 250.671 172.917 249.591 171.077 250.018C163.684 251.732 153.738 250.322 147.863 241.393L147.484 240.834C143.906 235.381 142.742 228.678 144.291 222.322C145.178 218.618 147.609 215.471 150.97 213.679C154.254 212.128 158.011 211.91 161.452 213.072C162.591 213.429 163.834 213.193 164.763 212.443C165.692 211.693 166.185 210.529 166.077 209.34C165.666 204.84 165.345 200.232 165.345 195.643C166.684 185.875 171.184 178.286 177.702 174.804C190.773 167.857 192.827 158.179 191.845 150.536C199.381 155.715 209.702 160.054 220.541 156.322L221.269 156.079C235.531 151.419 247.291 153.83 253.595 162.75C254.202 163.625 254.827 164.572 255.488 165.607L255.489 165.61C261.757 175.217 272.24 191.285 302.238 184.25L302.961 184.087C309.915 182.597 315.829 183.525 320.541 186.822C329.436 193.064 332.099 206.002 332.629 209.273L332.788 210.349C332.98 211.277 333.535 212.096 334.337 212.618C335.227 213.198 336.33 213.351 337.345 213.036C340.78 211.874 344.532 212.091 347.809 213.643C351.17 215.435 353.601 218.582 354.488 222.286C356.09 228.861 354.789 235.808 350.916 241.357L350.563 241.876C344.599 250.377 334.897 251.733 327.702 249.982C326.637 249.738 325.518 249.994 324.666 250.679C324.127 251.109 323.724 251.686 323.506 252.34L322.385 255.386L321.827 256.875L320.72 259.607C315.251 273.547 307.219 286.339 297.041 297.322C296.403 297.984 296.045 298.866 296.041 299.786V358.179C296.045 359.825 297.173 361.256 298.773 361.643C303.75 362.917 308.48 364.135 313.086 365.335L319.916 367.125C329.113 369.661 338.148 372.429 346.827 375.34C353.506 377.572 359.666 379.804 365.613 382.125C369.023 383.447 372.202 384.732 375.345 386.072L378.131 387.25L379.041 387.643L381.631 388.786C382.877 389.345 384.332 389.143 385.381 388.268C393.112 381.796 392.921 374.084 392.26 368.415L392.041 366.679C392.011 366.455 391.98 366.233 391.949 366.014C391.814 365.061 391.684 364.143 391.684 363.215C391.666 363.143 391.166 357.304 394.345 353.822C396.35 351.837 399.122 350.826 401.934 351.054C404.498 351.063 407.062 350.938 409.613 350.679C417.032 349.928 423.742 345.944 427.952 339.789C432.161 333.635 433.442 325.936 431.452 318.75C430.845 316.768 430.273 314.982 429.666 313.197L429.498 312.686C426.922 304.565 429.673 298.435 437.702 294.447C444.461 291.313 449.661 285.572 452.113 278.536C455.534 267.744 453.27 255.954 446.095 247.197L445.735 246.828C443.39 244.33 442.132 240.992 442.256 237.554C442.559 233.822 444.988 229.982 449.077 226.679C453.9 222.607 456.45 216.45 455.916 210.161C455.416 203.087 451.524 196.693 445.47 193C442.13 191.031 440.053 187.467 439.988 183.59C439.872 180.938 440.38 178.295 441.47 175.875L441.902 174.878C455.021 144.196 441.206 134.635 429.43 128.298L427.184 127.107C424.6 125.845 422.122 124.376 419.773 122.715C416.867 120.493 416.351 116.849 415.96 110.789L415.776 107.755C415.13 97.5345 413.444 84.1964 396.363 73.4109C387.494 67.82 377.912 68.8188 369.928 70.0068L366.493 70.5255C357.84 71.7982 353.384 71.8502 350.648 66.1431L350.207 65.2364C336.459 37.4355 318.249 38.0396 302.902 39.9589L299.97 40.3395C293.711 41.3719 287.285 40.3376 281.666 37.3931ZM221.434 54.9824C224.879 53.3934 228.188 51.524 231.327 49.3931C240.131 43.7859 250.113 37.4466 264.202 38.9109C269.14 39.5303 273.901 41.1398 278.202 43.6431C285.187 47.3584 293.195 48.6878 301.006 47.4288L301.032 47.4253C316.844 45.3373 331.727 43.3719 344.22 69.2502C349.226 79.6457 358.707 78.9241 367.475 77.6192L371.266 77.0389C378.464 75.9602 385.861 75.274 392.523 79.4645C406.319 88.1894 407.958 98.356 408.578 107.6L408.864 112.31C409.289 118.608 410.192 124.427 415.398 128.411C418.06 130.326 420.88 132.01 423.827 133.447L423.836 133.452C435.726 139.718 446.949 145.632 434.934 173.018C433.398 176.467 432.695 180.229 432.881 184C433.062 190.241 436.433 195.951 441.809 199.125L442.243 199.394C446.097 201.876 448.555 206.048 448.845 210.643L448.882 211.139C449.091 214.939 447.535 218.635 444.648 221.143C438.934 225.75 435.666 231.232 435.202 237C434.908 242.551 436.94 247.973 440.809 251.965C446.229 258.852 447.936 267.956 445.381 276.34C443.534 281.537 439.672 285.772 434.666 288.09C423.238 293.75 419.006 303.75 423.023 315.536C423.595 317.125 424.131 318.911 424.631 320.697C426.051 325.859 425.123 331.386 422.095 335.802C419.066 340.218 414.244 343.073 408.916 343.607C406.615 343.846 404.302 343.959 401.988 343.947C397.138 343.686 392.419 345.566 389.077 349.09C384.315 354.365 384.505 361.858 384.594 363.474L384.682 364.735C384.766 365.684 384.89 366.639 385.023 367.643L385.2 369.02C385.724 373.298 385.882 377.499 382.398 381.322L381.898 381.107L381.006 380.732L376.804 378.939C374.076 377.787 371.317 376.664 368.256 375.5L366.23 374.718C360.806 372.639 355.196 370.621 349.148 368.59C340.363 365.625 331.184 362.857 321.881 360.268C317.367 359.023 312.794 357.817 308.047 356.614L303.238 355.411V301.25C313.557 289.825 321.741 276.64 327.398 262.322L328.523 259.5L329.273 257.536C340.091 259.25 350.907 254.454 356.898 245.286L357.321 244.659C362.012 237.509 363.513 228.712 361.434 220.393C359.045 210.376 349.387 203.852 339.202 205.375C337.863 199.304 334.131 187.607 324.738 181C318.131 176.34 310.023 175.107 300.684 177.304L299.888 177.483C276.968 182.516 268.505 172.171 262.707 163.468L261.117 161.05C260.557 160.197 260.02 159.386 259.506 158.643C248.018 142.378 228.151 146.388 219.214 149.272L218.309 149.572C207.411 153.317 196.48 145.738 190.404 140.254L189.47 139.393C187.977 137.987 185.695 137.841 184.036 139.047C182.376 140.252 181.809 142.467 182.684 144.322C187.595 154.84 184.809 162.982 174.416 168.5L173.872 168.801C165.579 173.519 159.918 183.01 158.345 194.965C158.336 195.137 158.336 195.31 158.345 195.482L158.402 197.933C158.474 200.382 158.595 202.826 158.756 205.25C155.073 204.939 151.374 205.617 148.041 207.215C142.807 209.895 138.977 214.695 137.523 220.393C135.4 228.965 137.058 238.037 142.077 245.304L142.422 245.817C148.485 254.64 159.093 259.217 169.702 257.536C169.952 258.215 170.202 258.875 170.47 259.536L171.577 262.322C177.222 276.643 185.394 289.835 195.702 301.268V355.411C189.541 356.929 183.327 358.554 177.202 360.232C167.648 362.893 158.398 365.715 149.791 368.59C144.131 370.572 139.041 372.357 134.238 374.143C133.041 374.572 131.827 375.036 130.666 375.5L126.577 377.107C121.988 378.947 117.506 380.857 113.238 382.804C110.25 380.083 108.315 376.398 107.773 372.393C107.574 370.309 107.774 368.206 108.363 366.197C109.309 362.465 110.809 349.697 90.6663 342C84.348 339.402 79.4827 334.169 77.3502 327.679C75.2176 321.188 76.0312 314.09 79.577 308.25C89.7712 289.45 77.7316 278.244 74.6666 275.798L73.3507 274.783C72.635 274.23 71.952 273.688 71.3091 273.125C62.3168 265.263 60.4547 256.925 60.5698 251.089L60.5949 250.357C60.9163 241.857 65.4699 234.822 69.5234 231.893L70.0769 231.486C84.0499 221.005 80.256 207.468 76.1663 198.143C68.3775 180.467 73.4631 168.722 79.375 161.844L79.8984 161.25C83.2867 157.685 87.6239 155.163 92.3984 153.982L92.7972 153.876C99.0503 152.174 105.507 149.051 107.256 139.697C108.72 131.643 111.166 126.125 114.952 122.357C124.077 113.322 136.863 111.643 145.131 111.643L146.408 111.638C148.536 111.655 150.662 111.8 152.773 112.072L153.083 112.109C154.219 112.202 155.348 111.813 156.189 111.03C157.106 110.175 157.579 108.946 157.47 107.697C157.095 103.518 156.077 82.4109 171.506 67.8038C178.891 61.0291 188.694 57.5147 198.702 58.0538L199.416 58.0811C205.694 58.2954 214.384 57.9056 221.434 54.9824ZM137.738 342.536C139.089 345.816 142.375 347.875 145.916 347.661C146.64 347.624 147.356 347.486 148.041 347.25C148.647 347.049 149.315 347.187 149.792 347.611C150.269 348.036 150.483 348.682 150.354 349.308C150.225 349.933 149.772 350.442 149.166 350.643C148.189 350.966 147.175 351.164 146.148 351.232L145.398 351.25C140.583 351.255 136.246 348.337 134.434 343.875C134.134 342.981 134.581 342.007 135.456 341.652C136.331 341.297 137.33 341.685 137.738 342.536ZM367.113 342.268C367.359 341.311 366.784 340.336 365.827 340.09C364.87 339.843 363.895 340.419 363.648 341.375C363.468 342.079 363.198 342.758 362.845 343.393C361.113 346.488 357.599 348.133 354.113 347.482C353.475 347.364 352.822 347.596 352.401 348.089C351.98 348.583 351.854 349.263 352.071 349.875C352.288 350.486 352.814 350.936 353.452 351.054C354.171 351.18 354.9 351.246 355.631 351.25V351.197C361.046 351.187 365.769 347.514 367.113 342.268ZM142.398 282.75C143.314 282.75 144.069 283.44 144.172 284.328L144.184 284.536C144.253 286.683 145.694 288.542 147.756 289.143C148.174 289.267 148.606 289.339 149.041 289.357C150.028 289.357 150.827 290.157 150.827 291.143C150.827 292.129 150.028 292.929 149.041 292.929L148.898 292.804C148.154 292.769 147.416 292.643 146.702 292.429C143.187 291.38 140.736 288.202 140.613 284.536C140.613 283.55 141.412 282.75 142.398 282.75ZM358.916 283.232C358.916 282.246 358.117 281.447 357.131 281.447C356.144 281.447 355.345 282.246 355.345 283.232L355.322 283.568C355.115 285.564 353.721 287.254 351.773 287.822C351.362 287.946 350.936 288.018 350.506 288.036C349.519 288.036 348.72 288.835 348.72 289.822C348.72 290.808 349.519 291.607 350.506 291.607L350.648 291.5C351.393 291.48 352.132 291.36 352.845 291.143C356.365 290.095 358.814 286.904 358.916 283.232ZM406.019 253.859L406.148 254.036C406.763 254.869 407.262 255.782 407.631 256.75C409.436 261.513 407.999 266.897 404.059 270.125C403.762 270.373 403.392 270.517 403.006 270.536C402.474 270.537 401.971 270.301 401.631 269.893C401.327 269.529 401.181 269.058 401.224 268.586C401.268 268.114 401.498 267.678 401.863 267.375C404.593 265.106 405.571 261.348 404.291 258.036C404.031 257.366 403.689 256.73 403.273 256.143C402.848 255.633 402.741 254.928 402.996 254.314C403.251 253.701 403.826 253.28 404.488 253.221C405.076 253.169 405.647 253.411 406.019 253.859ZM97.6387 246.908C97.2996 246.366 96.6972 246.046 96.0583 246.069C95.4194 246.092 94.8411 246.453 94.5413 247.018C92.1581 251.515 92.9207 257.033 96.4341 260.715C97.1401 261.468 97.9451 262.123 98.827 262.661C99.106 262.834 99.4273 262.927 99.7556 262.929C100.551 262.923 101.247 262.392 101.463 261.626C101.678 260.86 101.36 260.044 100.684 259.625C100.076 259.244 99.5184 258.788 99.0234 258.268C96.5653 255.696 96.0327 251.838 97.702 248.697C98.0018 248.132 97.9777 247.45 97.6387 246.908ZM360.381 176.215C365.468 176.231 369.974 179.505 371.559 184.34C371.88 185.323 372.078 186.343 372.148 187.375C372.15 188.321 371.414 189.104 370.47 189.161L370.381 189.357C369.394 189.357 368.595 188.558 368.595 187.572C368.557 186.854 368.418 186.144 368.184 185.465C367.077 182.089 363.933 179.801 360.381 179.786C359.394 179.786 358.595 178.986 358.595 178C358.595 177.014 359.394 176.215 360.381 176.215ZM132.196 160.269C132.088 159.64 131.653 159.116 131.053 158.894C130.454 158.673 129.783 158.788 129.291 159.197C125.342 162.419 123.902 167.81 125.72 172.572C126.086 173.531 126.579 174.438 127.184 175.268C127.517 175.736 128.056 176.015 128.631 176.018C129.027 176.031 129.417 175.912 129.738 175.679C130.122 175.4 130.38 174.98 130.453 174.51C130.527 174.041 130.411 173.562 130.131 173.179C129.708 172.596 129.366 171.96 129.113 171.286C127.841 167.967 128.833 164.206 131.577 161.947C132.068 161.538 132.304 160.899 132.196 160.269ZM281.059 157.357C281.452 157.962 281.933 158.504 282.488 158.965C285.173 161.301 289.057 161.647 292.113 159.822C292.664 159.421 293.395 159.369 293.998 159.687C294.6 160.006 294.969 160.64 294.948 161.321C294.927 162.003 294.52 162.612 293.898 162.893C292.082 163.97 290.011 164.544 287.898 164.554C285.059 164.555 282.315 163.535 280.166 161.679C279.381 161.007 278.69 160.232 278.113 159.375C277.556 158.562 277.763 157.45 278.577 156.893C279.391 156.336 280.502 156.544 281.059 157.357ZM422.22 159.018C422.563 155.36 420.528 151.894 417.166 150.411C416.583 150.153 415.905 150.225 415.39 150.602C414.874 150.978 414.598 151.601 414.666 152.236C414.735 152.87 415.136 153.42 415.72 153.679C417.678 154.544 418.864 156.565 418.666 158.697C418.635 159.125 418.539 159.547 418.381 159.947C418.175 160.496 418.253 161.111 418.588 161.592C418.923 162.073 419.473 162.359 420.059 162.357C420.811 162.357 421.482 161.886 421.738 161.179C421.995 160.484 422.157 159.757 422.22 159.018ZM296.184 105.893C299.854 105.907 303.104 108.266 304.256 111.75C304.49 112.461 304.628 113.199 304.666 113.947C304.668 114.892 303.932 115.676 302.988 115.732L302.863 115.768C301.876 115.768 301.077 114.969 301.077 113.982C301.053 113.552 300.975 113.126 300.845 112.715C300.126 110.761 298.265 109.464 296.184 109.465C295.198 109.465 294.398 108.665 294.398 107.679C294.398 106.693 295.198 105.893 296.184 105.893ZM389.648 111.857C389.524 110.83 389.272 109.822 388.898 108.857C387.037 104.128 382.368 101.111 377.291 101.357C376.305 101.407 375.546 102.246 375.595 103.232C375.644 104.219 376.484 104.978 377.47 104.929C381.018 104.76 384.28 106.872 385.577 110.179C385.835 110.851 386.009 111.553 386.095 112.268C386.195 113.177 386.966 113.863 387.881 113.857L388.077 113.822C389.051 113.71 389.753 112.833 389.648 111.857ZM197.131 87.6252C198.117 87.6252 198.916 88.4247 198.916 89.4109C198.916 90.3971 198.117 91.1966 197.131 91.1966C194.996 91.2101 193.107 92.5818 192.434 94.6074C192.344 94.8852 192.276 95.1697 192.232 95.458L192.184 95.8931C192.128 96.8304 191.355 97.5639 190.416 97.5716H190.309C189.835 97.5441 189.392 97.3289 189.077 96.9737C188.762 96.6186 188.601 96.1526 188.631 95.6788C188.682 94.9376 188.826 94.2057 189.059 93.5002C190.159 90.13 193.224 87.8071 196.738 87.6354L197.131 87.6252ZM266.586 66.8306C267.118 65.9972 266.875 64.8899 266.041 64.3574C260.768 61.0091 253.802 62.3117 250.095 67.3395C249.698 67.883 249.64 68.6038 249.946 69.2037C250.251 69.8035 250.868 70.1805 251.541 70.1788C252.107 70.1746 252.636 69.903 252.97 69.4466C255.08 66.5846 258.775 65.3792 262.166 66.4466C262.85 66.6764 263.504 66.9882 264.113 67.3752C264.946 67.9078 266.053 67.6639 266.586 66.8306Z" fill="#372168"/>
<path fill-rule="evenodd" clip-rule="evenodd" d="M148.766 294.018C136.677 286.625 154.249 264.125 154.249 264.125C154.249 264.125 171.802 286.607 159.749 294.018C156.366 296.037 152.149 296.037 148.766 294.018Z" fill="#FFC28F"/>
<path fill-rule="evenodd" clip-rule="evenodd" d="M146.909 297.054C149.118 298.405 151.659 299.116 154.249 299.107C156.844 299.118 159.391 298.407 161.606 297.054C164.628 295.253 166.71 292.218 167.302 288.75C169.266 278.036 158.32 263.589 157.07 261.964C156.388 261.102 155.348 260.601 154.249 260.607C153.156 260.607 152.123 261.107 151.445 261.964C150.124 263.518 139.231 277.929 141.195 288.75C141.789 292.223 143.878 295.259 146.909 297.054ZM148.213 287.482C147.391 282.964 150.82 275.714 154.249 270.357C157.356 275.268 161.159 282.661 160.266 287.393C160.056 288.891 159.167 290.209 157.856 290.964C155.631 292.302 152.849 292.302 150.624 290.964C149.337 290.226 148.451 288.947 148.213 287.482Z" fill="#372168"/>
<path d="M154.248 295.696C153.686 295.696 153.157 295.432 152.82 294.982C149.248 290.25 152.534 283.982 152.677 283.714C152.95 283.106 153.54 282.7 154.206 282.663C154.873 282.625 155.504 282.963 155.843 283.537C156.183 284.112 156.174 284.827 155.82 285.393C155.82 285.5 153.498 289.946 155.677 292.821C155.961 293.2 156.083 293.677 156.016 294.145C155.949 294.614 155.699 295.037 155.32 295.321C155.013 295.56 154.637 295.691 154.248 295.696Z" fill="#372168"/>
<path fill-rule="evenodd" clip-rule="evenodd" d="M335.07 293.5C322.981 286.107 340.552 263.607 340.552 263.607C340.552 263.607 358.106 286.107 346.034 293.5C342.663 295.536 338.442 295.536 335.07 293.5Z" fill="#FFC28F"/>
<path fill-rule="evenodd" clip-rule="evenodd" d="M333.195 296.554C335.417 297.887 337.96 298.591 340.552 298.589C343.147 298.597 345.693 297.886 347.909 296.536C350.932 294.735 353.014 291.701 353.606 288.232C355.57 277.518 344.623 263.054 343.373 261.447C342.696 260.577 341.654 260.07 340.552 260.072C339.45 260.07 338.408 260.577 337.731 261.447C336.409 263.018 325.534 277.518 327.481 288.232C328.074 291.709 330.163 294.751 333.195 296.554ZM340.543 269.854C340.546 269.849 340.549 269.844 340.552 269.84H340.534C340.537 269.844 340.54 269.849 340.543 269.854ZM334.534 286.965C333.713 282.451 337.118 275.209 340.543 269.854C343.666 274.764 347.408 282.148 346.588 286.965C346.368 288.432 345.486 289.716 344.195 290.447C341.964 291.788 339.176 291.788 336.945 290.447C335.651 289.716 334.763 288.433 334.534 286.965Z" fill="#372168"/>
<path d="M339.891 295.179C339.505 295.179 339.129 295.054 338.82 294.822C338.441 294.538 338.191 294.115 338.124 293.646C338.057 293.177 338.179 292.701 338.463 292.322C340.659 289.429 338.338 284.929 338.32 284.893C338.001 284.332 338.006 283.643 338.332 283.086C338.659 282.529 339.258 282.189 339.904 282.193C340.55 282.197 341.144 282.546 341.463 283.108C341.606 283.375 344.891 289.643 341.32 294.375C341.002 294.859 340.47 295.158 339.891 295.179Z" fill="#372168"/>
<path d="M154.249 265.911C153.262 265.911 152.463 265.112 152.463 264.125V255C152.463 254.014 153.262 253.215 154.249 253.215C155.235 253.215 156.034 254.014 156.034 255V264.197C155.996 265.155 155.208 265.912 154.249 265.911Z" fill="#372168"/>
<path d="M340.552 265.393C339.566 265.393 338.766 264.594 338.766 263.607V254.411C338.766 253.425 339.566 252.625 340.552 252.625C341.538 252.625 342.338 253.425 342.338 254.411V263.607C342.338 264.594 341.538 265.393 340.552 265.393Z" fill="#372168"/>
<path fill-rule="evenodd" clip-rule="evenodd" d="M256.515 -10.8568C266.982 -2.46314 293.724 32.5044 302.853 44.6066L305.962 48.7503L307.875 47.8681C316.11 44.1336 348.849 29.9223 365.301 32.2682C381.176 34.4646 386.855 45.9824 386.749 55.3039C386.376 89.8124 354.817 106.522 316.032 117.145L314.855 117.465C275.533 128.072 226.051 129.215 207.087 129.732C188.123 130.25 160.658 144.786 138.033 152.679C132.556 154.625 126.868 155.914 121.087 156.518C104.194 158.161 88.2654 147.34 84.9618 130.697C84.6425 129.089 84.4515 127.459 84.3899 125.822C84.3408 116.123 88.0906 106.79 94.8368 99.8217C104.837 89.2146 121.748 85.786 135.48 85.8039C141.526 85.6732 147.555 86.5112 153.337 88.286L154.538 88.7111C160.695 90.8382 175.653 95.3602 193.265 99.5717L195.051 99.9646C199.039 100.917 203.164 101.832 207.342 102.689L209.855 103.197C216.997 104.643 224.283 105.911 231.283 106.768C271.212 100.411 312.694 77.5003 320.962 72.8396L312.819 60.3396L311.708 58.6001L310.733 59.2689C306.046 62.4077 285.507 75.3705 251.868 86.0346L250.73 86.3932C214.408 97.7682 197.658 99.6967 195.373 99.9289H195.087L193.301 99.536L191.391 99.0755C173.347 94.6911 158.393 90.079 153.373 88.2503C147.591 86.4755 141.562 85.6375 135.515 85.7682L135.337 85.4062C134.097 82.799 127.025 66.2909 133.926 41.8753C140.054 20.2583 179.038 2.29196 188.756 -3.21366L189.069 -3.39256C213.48 -17.464 243.801 -21.0533 256.515 -10.8568Z" fill="#FCDED0"/>
<path fill-rule="evenodd" clip-rule="evenodd" d="M81.4618 131.393C85.0306 148.435 100.196 160.543 117.605 160.25C118.646 160.25 119.76 160.214 120.767 160.182C120.987 160.175 121.201 160.168 121.408 160.161C127.499 159.534 133.493 158.186 139.265 156.143C146.215 153.721 153.725 150.633 160.998 147.642L161.212 147.554C177.694 140.751 194.73 133.733 207.23 133.393H208.444C228.926 132.84 276.908 131.536 315.837 121.036C347.622 112.465 389.926 96.3398 390.372 55.4648C390.551 39.5541 378.194 30.6255 365.855 28.8398C346.087 26.0005 306.158 44.8398 304.462 45.6434C303.559 46.0749 302.879 46.8652 302.587 47.8219C302.294 48.7798 302.417 49.8164 302.926 50.6791L308.819 60.6612L315.962 71.7148C303.265 78.6969 266.605 97.6076 231.301 103.358C224.944 102.465 217.962 101.268 210.551 99.7862C205.944 98.8755 201.158 97.8219 195.801 96.5719L194.14 96.1791C174.605 91.5184 159.069 86.6434 154.605 85.0184C148.417 83.0933 141.958 82.1827 135.48 82.3219H135.355C126.587 82.3219 105.105 83.8219 92.2475 97.4648C84.8632 105.137 80.7631 115.388 80.8189 126.036C80.9036 127.835 81.1184 129.626 81.4618 131.393ZM97.4439 102.268C108.39 90.6611 127.515 89.3754 135.355 89.3754L135.319 89.5182C140.963 89.3867 146.593 90.1522 151.997 91.7861C157.855 93.9111 174.23 98.8575 192.444 103.215L194.087 103.59C199.444 104.858 204.319 105.911 208.997 106.84C216.783 108.411 224.087 109.643 230.747 110.518C231.085 110.572 231.428 110.572 231.765 110.518C272.372 104.036 314.605 80.6968 322.658 76.0897C323.546 75.6186 324.194 74.7953 324.444 73.8218C324.673 72.8664 324.499 71.8588 323.962 71.0361L314.765 56.9111L310.98 50.4825C321.105 46.0004 350.247 33.8754 364.73 35.929C378.426 37.8754 383.212 47.2682 383.122 55.3932C382.819 83.179 361.462 101.304 313.872 114.125C276.009 124.394 229.022 125.679 208.578 126.239L208.158 126.25H206.926C193.122 126.661 175.462 133.911 158.39 140.947C157.431 141.337 156.479 141.726 155.533 142.112C148.997 144.78 142.778 147.318 136.819 149.393C131.621 151.211 126.226 152.41 120.747 152.965C105.247 154.465 91.3546 144.608 88.4796 130.018C88.1924 128.6 88.0192 127.161 87.9618 125.715C87.964 116.966 91.3636 108.559 97.4439 102.268Z" fill="#372168"/>
<path d="M136.319 138.715C135.333 138.838 134.433 138.138 134.31 137.152C134.187 136.166 134.886 135.267 135.872 135.143C136.247 135.054 172.712 125.786 210.408 127.804C211.394 127.853 212.154 128.693 212.105 129.679C212.055 130.665 211.216 131.425 210.23 131.375C173.087 129.393 137.122 138.518 136.765 138.518C136.626 138.603 136.476 138.669 136.319 138.715Z" fill="#372168"/>
<path d="M262.355 111.982C249.912 112.029 237.479 111.248 225.14 109.643C224.154 109.495 223.475 108.576 223.623 107.59C223.77 106.603 224.69 105.924 225.676 106.072C226.319 106.161 289.337 115.518 336.605 96.0002C337.043 95.817 337.536 95.8156 337.975 95.9966C338.414 96.1775 338.762 96.5258 338.944 96.9645C339.314 97.8718 338.884 98.9077 337.98 99.286C313.373 109.465 284.658 111.982 262.355 111.982Z" fill="#372168"/>
<path d="M349.301 89.6434C349.301 89.6434 356.444 87.9649 365.212 76.572L349.301 89.6434Z" fill="#F9F9F9"/>
<path d="M349.301 91.4289C348.315 91.5472 347.419 90.8436 347.301 89.8574C347.183 88.8712 347.886 87.9758 348.873 87.8574C349.015 87.8574 355.605 86.0717 363.783 75.3574C364.385 74.5734 365.508 74.4255 366.292 75.0271C367.076 75.6287 367.224 76.7519 366.622 77.536C357.515 89.3039 350.033 91.1789 349.712 91.2503C349.584 91.3285 349.446 91.3886 349.301 91.4289Z" fill="#372168"/>
<path fill-rule="evenodd" clip-rule="evenodd" d="M194.319 103.536C194.562 103.563 194.808 103.563 195.051 103.536L195.123 103.59H195.783C198.873 103.268 216.14 101.09 251.855 89.911C289.855 78.0182 311.515 63.2503 313.855 61.6075C314.224 61.3572 314.54 61.0354 314.783 60.661C315.54 59.5235 315.582 58.0538 314.89 56.8753L309.087 47.036C309.028 46.925 308.962 46.8177 308.89 46.7146C307.372 44.6789 271.712 -3.14252 258.783 -13.4997C244.962 -24.6247 213.569 -21.4818 187.355 -6.3568C186.374 -5.79423 185.043 -5.09183 183.448 -4.24961C183.068 -4.04921 182.674 -3.84089 182.265 -3.62466C167.283 4.23248 136.248 20.6075 130.48 41.0182C122.569 68.7325 131.855 86.8039 132.265 87.5539C132.884 88.7159 134.092 89.4433 135.408 89.4468C141.053 89.3152 146.682 90.0807 152.087 91.7146C157.944 93.8396 174.319 98.786 192.533 103.143L194.319 103.536ZM154.676 84.9288C149.253 83.2034 143.599 82.3123 137.908 82.286H137.837C135.926 77.3217 131.694 62.8574 137.319 42.8753C142.283 25.4288 172.587 9.42885 185.533 2.60742C187.819 1.51813 189.64 0.464561 190.89 -0.267582C213.962 -13.5712 242.998 -17.1247 254.319 -8.03544C266.176 1.48242 300.783 47.6788 303.033 50.7146L307.015 57.4646C300.069 61.8753 280.158 73.4824 249.712 83.0003C215.765 93.6253 199.087 95.9467 195.373 96.3753L194.212 96.0896C174.676 91.4288 159.14 86.5538 154.676 84.9288Z" fill="#372168"/>
<path fill-rule="evenodd" clip-rule="evenodd" d="M321.033 72.8398C312.765 77.572 271.283 100.483 231.355 106.768C224.212 105.84 217.069 104.572 209.926 103.197C204.89 102.197 199.908 101.108 195.123 99.9648H195.408C197.712 99.7327 214.462 97.8041 250.765 86.4291C289.426 74.3398 311.123 59.0898 311.783 58.6077L312.926 60.3934L321.033 72.8398Z" fill="#FF8F8F"/>
<path fill-rule="evenodd" clip-rule="evenodd" d="M230.89 110.411H231.355L231.801 110.465C272.408 103.982 314.64 80.6432 322.694 76.036C323.582 75.565 324.23 74.7417 324.48 73.7682C324.709 72.8128 324.534 71.8052 323.997 70.9825L314.712 56.6967C314.055 55.6989 312.942 55.0958 311.747 55.0896C310.983 55.0883 310.238 55.3324 309.622 55.786C308.105 56.8396 286.676 71.5003 249.64 83.0717C215.247 93.8396 198.587 96.0717 195.158 96.4467H194.765C193.013 96.5873 191.623 97.9825 191.49 99.7356C191.356 101.489 192.518 103.078 194.23 103.482C199.587 104.75 204.462 105.804 209.14 106.732C216.926 108.304 224.23 109.536 230.89 110.411ZM231.247 103.233C225.765 102.483 219.801 101.5 213.497 100.286H213.551C222.605 98.2684 235.194 95.0184 251.747 89.8219C282.979 80.0541 303.176 68.3219 310.676 63.5541L315.908 71.5898C303.212 78.5719 266.551 97.4826 231.247 103.233Z" fill="#372168"/>
<path d="M325.247 74.9825C323.703 74.998 322.16 74.8665 320.64 74.5896C320.175 74.4873 319.77 74.2034 319.515 73.801C319.26 73.3986 319.177 72.911 319.283 72.4467C319.497 71.4861 320.447 70.8792 321.408 71.0896C325.262 71.712 329.207 71.4494 332.944 70.3217C333.869 70.1087 334.8 70.6572 335.061 71.5702C335.323 72.4831 334.824 73.4411 333.926 73.7503C331.104 74.5623 328.183 74.977 325.247 74.9825Z" fill="#372168"/>
<path d="M145.247 47.1969H144.926C144.459 47.1142 144.045 46.8494 143.774 46.4609C143.502 46.0724 143.396 45.592 143.48 45.1254C143.622 44.3576 143.783 43.6076 143.98 42.8576C144.809 39.9288 146.218 37.1963 148.122 34.8219C151.508 30.4032 156.096 27.055 161.337 25.179C161.943 24.9117 162.647 25.0018 163.166 25.4131C163.685 25.8244 163.934 26.4893 163.813 27.1404C163.691 27.7916 163.219 28.322 162.587 28.5183C158.018 30.1655 154.007 33.0684 151.015 36.8933C149.38 38.9251 148.166 41.2623 147.444 43.7683C147.265 44.429 147.122 45.0897 146.997 45.7504C146.835 46.5891 146.102 47.1953 145.247 47.1969Z" fill="#372168"/>
</g>
<path fill-rule="evenodd" clip-rule="evenodd" d="M0 250C0 111.929 111.929 0 250 0C388.071 0 500 111.929 500 250C500 388.071 388.071 500 250 500C111.929 500 0 388.071 0 250ZM492.857 250C492.857 115.874 384.126 7.14286 250 7.14286C115.874 7.14286 7.14286 115.874 7.14286 250C7.14286 384.126 115.874 492.857 250 492.857C384.126 492.857 492.857 384.126 492.857 250Z" fill="#372168"/>
</svg>
