<svg width="500" height="500" viewBox="0 0 500 500" fill="none" xmlns="http://www.w3.org/2000/svg">
<path fill-rule="evenodd" clip-rule="evenodd" d="M250 496.429C386.099 496.429 496.429 386.099 496.429 250C496.429 113.901 386.099 3.57153 250 3.57153C113.901 3.57153 3.57143 113.901 3.57143 250C3.57143 386.099 113.901 496.429 250 496.429Z" fill="#E7EEFF"/>
<mask id="mask0_0_278" style="mask-type:alpha" maskUnits="userSpaceOnUse" x="3" y="3" width="494" height="494">
<path fill-rule="evenodd" clip-rule="evenodd" d="M250 496.429C386.099 496.429 496.429 386.099 496.429 250C496.429 113.901 386.099 3.57153 250 3.57153C113.901 3.57153 3.57143 113.901 3.57143 250C3.57143 386.099 113.901 496.429 250 496.429Z" fill="white"/>
</mask>
<g mask="url(#mask0_0_278)">
<path fill-rule="evenodd" clip-rule="evenodd" d="M336.359 210.077L336.357 210.036C337.536 196.964 339.357 159.232 324.071 134.357C305.536 104.339 275.161 95.5538 249.464 95.9823C223.732 95.5538 193.357 104.339 174.821 134.357C159.554 159.125 161.375 196.911 162.571 209.929V210.03C158.281 208.601 153.604 208.884 149.518 210.822C140.161 215.268 136.089 230.125 145.018 243.714C151.783 254.04 163.198 255.882 171.903 253.893C172.226 254.732 172.545 255.575 172.861 256.412C173.129 257.121 173.395 257.825 173.661 258.518L174.768 261.286C180.393 275.65 188.675 288.827 199.179 300.125C203.705 304.911 208.768 309.16 214.268 312.786C224.14 319.474 235.722 323.192 247.643 323.5H251.214C263.136 323.197 274.719 319.479 284.589 312.786C288.752 310.04 292.665 306.938 296.285 303.517C292.662 306.964 288.743 310.089 284.571 312.857C274.701 319.55 263.118 323.269 251.196 323.572H247.625C235.705 323.264 224.122 319.546 214.25 312.857C208.75 309.231 203.687 304.983 199.161 300.197V359.357C200.071 365.125 211.625 370.054 227.982 372.357C234.864 373.313 241.802 373.796 248.75 373.804H250C256.947 373.796 263.886 373.313 270.768 372.357C287.214 369.982 298.804 365.072 299.607 359.268V300.202L299.696 300.107C310.194 288.814 318.47 275.644 324.089 261.286L325.196 258.518C325.814 257.001 326.396 255.431 326.961 253.879C335.674 255.891 347.129 254.066 353.911 243.714C362.768 230.125 358.768 215.268 349.375 210.875C345.301 208.942 340.638 208.656 336.359 210.077ZM168.304 242.786C168.661 244.021 169.028 245.245 169.406 246.458C169.011 245.278 168.62 244.09 168.232 242.893C167.946 241.947 167.607 240.768 167.393 239.964L167.392 239.962L167.392 239.96C167.177 239.157 166.893 238.088 166.75 237.482C166.693 237.24 166.647 237.035 166.601 236.826L166.6 236.823C166.53 236.507 166.457 236.179 166.339 235.697C166.241 235.295 166.156 234.88 166.071 234.464C165.987 234.049 165.902 233.634 165.804 233.232C165.607 232.429 165.446 231.625 165.286 230.786L165.179 230.232C164.982 229.161 164.786 228.072 164.607 226.964C164.464 226.191 164.339 225.405 164.232 224.607C164.214 224.515 164.194 224.422 164.174 224.329L164.173 224.326C164.096 223.968 164.018 223.604 164.018 223.25C163.857 222.125 163.696 220.982 163.554 219.822C163.387 218.548 163.244 217.316 163.125 216.125C163.018 215.625 162.964 215.125 162.964 214.625C162.964 214.625 163.089 214.286 162.964 214.018C162.896 213.873 162.892 213.638 162.887 213.419C162.884 213.235 162.88 213.062 162.839 212.964C162.784 212.833 162.783 212.809 162.778 212.682C162.775 212.602 162.771 212.482 162.75 212.268L162.74 212.172L162.732 212.101C162.738 212.124 162.744 212.144 162.75 212.161C162.791 212.274 162.787 212.34 162.783 212.418C162.777 212.512 162.771 212.623 162.839 212.857C162.907 213.091 162.912 213.266 162.916 213.441C162.92 213.587 162.924 213.732 162.964 213.911C163.054 214.304 163.054 214.518 163.054 214.518C163.068 214.718 163.094 214.918 163.119 215.118C163.158 215.418 163.196 215.718 163.196 216.018C163.312 217.178 163.459 218.368 163.594 219.46L163.625 219.714C163.768 220.875 163.929 222.018 164.089 223.143C164.114 223.298 164.137 223.456 164.16 223.614C164.202 223.91 164.245 224.209 164.304 224.5C164.411 225.298 164.536 226.084 164.679 226.857C164.857 227.964 165.054 229.054 165.25 230.125L165.357 230.679C165.437 231.098 165.527 231.5 165.616 231.902C165.705 232.304 165.795 232.706 165.875 233.125C165.967 233.603 166.087 234.134 166.197 234.617C166.28 234.982 166.357 235.321 166.411 235.589C166.536 236.214 166.679 236.804 166.821 237.375L166.933 237.814C167.097 238.459 167.245 239.038 167.464 239.857C167.732 240.857 168.018 241.839 168.304 242.786ZM162.634 211.151C162.641 211.261 162.649 211.369 162.657 211.471C162.623 211.182 162.595 210.883 162.59 210.572C162.607 210.764 162.621 210.962 162.634 211.151Z" fill="#FFD6CB"/>
<path d="M28.5706 496.429C28.9182 495.049 29.1003 494.313 29.4544 492.974C29.7006 492.043 29.9441 491.123 30.1785 490.214C31.1785 486.643 32.1963 483.072 33.232 479.804C33.356 479.409 33.48 479.017 33.6034 478.626C33.8711 477.778 34.1361 476.938 34.3927 476.107C34.6785 475.214 34.9642 474.322 35.2499 473.5C36.0356 471.143 36.8213 468.857 37.607 466.661C39.3808 461.732 41.1665 457.197 42.9642 453.054C43.4106 452 43.857 450.964 44.3035 449.964L44.5713 449.375C45.5356 447.161 46.5177 445.089 47.4999 443.125C50.2914 437.275 53.6023 431.687 57.3927 426.429C57.4428 426.354 57.4968 426.282 57.5493 426.213L57.5493 426.213C57.609 426.134 57.6667 426.058 57.7142 425.982C58.6963 424.697 59.6427 423.536 60.5535 422.536L60.6606 422.411C61.3019 421.689 61.9832 420.988 62.6596 420.291C62.8873 420.057 63.1143 419.823 63.3392 419.589C69.0977 413.797 75.4344 408.609 82.2499 404.107L84.3213 402.732C85.3689 402.042 86.4404 401.363 87.5356 400.697C90.1785 399.054 92.8927 397.464 95.6963 395.911C100.321 393.339 105.107 390.911 109.982 388.607C115.875 385.822 121.875 383.25 127.839 380.822L131.893 379.214C133.053 378.75 134.232 378.304 135.464 377.875C140.678 375.893 145.857 374.072 150.911 372.375C160.696 369.089 169.964 366.339 178.143 364.072C186.607 361.732 193.857 359.911 199.196 358.625C199.17 358.874 199.17 359.126 199.196 359.375C200.107 365.143 211.696 370.089 228.018 372.375C234.899 373.33 241.838 373.814 248.786 373.822H250.036C256.983 373.814 263.922 373.33 270.803 372.375C287.25 370.054 298.839 365.089 299.643 359.286C299.66 359.066 299.66 358.845 299.643 358.625C305 359.929 312.321 361.75 320.839 364.107C328.982 366.357 338.196 369.107 347.928 372.375C354.107 374.447 360.428 376.714 366.875 379.214C370.149 380.476 373.417 381.804 376.678 383.197L380.411 384.786L383.411 386.107C390.143 389.143 396.768 392.393 403.053 395.911C406.982 398.089 410.803 400.357 414.446 402.732L415.464 403.411C417.25 404.554 419.036 405.732 420.607 406.982C425.886 410.723 430.838 414.905 435.411 419.482C436.375 420.447 437.303 421.429 438.196 422.429C439.286 423.635 440.312 424.899 441.268 426.214V426.322C442.089 427.429 442.946 428.643 443.786 429.893C446.514 434.095 448.983 438.461 451.178 442.964C452.232 445.107 453.286 447.375 454.375 449.804C455.053 451.339 455.732 452.929 456.411 454.572C456.875 455.677 457.326 456.811 457.787 457.974L457.946 458.375C458.958 460.947 459.976 463.655 461 466.5C461.786 468.697 462.571 470.982 463.357 473.339C464.262 476.113 465.173 478.994 466.089 481.982C466.219 482.421 466.351 482.862 466.484 483.306L466.488 483.32L466.489 483.323C466.738 484.154 466.989 484.993 467.232 485.839L467.341 486.219C467.689 487.426 468.073 488.762 468.428 490.054C469.053 492.268 469.089 494.089 469.642 496.429H28.5706Z" fill="#FF7D7D"/>
<g style="mix-blend-mode:soft-light" opacity="0.8">
<path d="M320.929 364.089C316.518 370.839 309.143 376.197 299.679 380.161C291.583 383.427 283.114 385.677 274.464 386.857C257.921 389.19 241.133 389.19 224.589 386.857C215.891 385.664 207.373 383.397 199.232 380.107C189.822 376.143 182.5 370.786 178.107 364.036C186.572 361.697 193.822 359.875 199.161 358.589C199.134 358.839 199.134 359.09 199.161 359.339C200.072 365.107 211.661 370.054 227.982 372.339C234.864 373.295 241.803 373.778 248.75 373.786H250C256.948 373.778 263.886 373.295 270.768 372.339C287.214 370.018 298.804 365.054 299.607 359.25C299.625 359.03 299.625 358.809 299.607 358.589C305.107 359.911 312.411 361.732 320.929 364.089Z" fill="white"/>
</g>
<g style="mix-blend-mode:multiply" opacity="0.15">
<path fill-rule="evenodd" clip-rule="evenodd" d="M296.036 303.786V356.107C251.536 356.804 218.571 333.893 202.839 320.197V303.75C206.379 307.132 210.222 310.181 214.321 312.857C224.197 319.539 235.777 323.257 247.696 323.572H251.268C263.187 323.257 274.768 319.539 284.643 312.857C288.703 310.179 292.516 307.143 296.036 303.786Z" fill="#7C3830"/>
</g>
<path fill-rule="evenodd" clip-rule="evenodd" d="M251.405 92.5021L249.607 92.5181C229.964 92.1609 193.786 96.9645 172.107 132.572C158.313 154.962 157.857 186.762 158.887 204.188L158.974 205.569C155.23 205.217 151.43 205.875 147.982 207.518C142.75 210.188 138.924 214.984 137.482 220.679C135.315 229.276 136.969 238.391 142.018 245.679L142.367 246.206C147.561 253.862 156.293 258.382 165.572 258.179C166.928 258.145 168.279 258.026 169.616 257.82C169.875 258.516 170.14 259.214 170.411 259.911L171.518 262.697C177.149 276.991 185.317 290.146 195.623 301.529L195.714 301.627L195.715 355.746C189.544 357.259 183.316 358.893 177.018 360.625C167.286 363.322 158.322 366.054 149.607 368.982C143.947 370.947 138.839 372.732 134.054 374.518C133.649 374.661 133.268 374.802 132.89 374.945L129.121 376.404C128.21 376.762 127.298 377.131 126.393 377.5L123.777 378.554C118.55 380.687 113.355 382.972 108.304 385.375C103.161 387.804 98.268 390.286 93.8037 392.786C90.7323 394.5 88.018 396.09 85.5359 397.625L84.686 398.148C83.8439 398.67 83.0269 399.192 82.2502 399.715C81.518 400.179 80.7859 400.661 80.1252 401.125C73.1183 405.706 66.5965 410.99 60.6609 416.893C60.1084 417.526 59.5607 418.081 59.0417 418.606C58.6385 419.014 58.2521 419.406 57.893 419.804L57.768 419.964C56.8395 420.964 55.8395 422.179 54.7323 423.643C54.6629 423.719 54.6029 423.803 54.5537 423.893L54.3752 424.125L53.4065 425.489C49.8928 430.513 46.8002 435.821 44.1609 441.357C43.2935 442.952 42.5902 444.473 41.9337 445.961L41.1609 447.732L40.434 449.369C40.1311 450.062 39.8335 450.768 39.5359 451.482L38.9406 452.892C37.3533 456.697 35.766 460.857 34.1787 465.286C33.393 467.5 32.5894 469.822 31.8037 472.197L31.5048 473.082L30.9109 474.875L29.3308 479.975C28.7464 481.87 28.1571 483.86 27.5661 485.923L26.6787 489.072C26.397 490.181 26.1021 491.308 25.805 492.444L25.8033 492.45C25.4984 493.616 25.1911 494.79 24.893 495.964L24.4109 497.75C24.2591 498.339 24.2616 499.386 24.1076 500H475L473.607 495.268C473.607 495.268 472.5 491.089 471.929 489.089C471.643 488.036 471.339 486.964 471.036 485.929L470.732 484.839L469.572 480.929C469.114 479.523 468.684 478.141 468.261 476.782L468.259 476.777L468.259 476.775C467.774 475.218 467.299 473.692 466.804 472.197C466.018 469.822 465.214 467.5 464.429 465.286C463.375 462.411 462.339 459.607 461.322 457.054L461.161 456.607C460.697 455.429 460.232 454.286 459.768 453.197C459.089 451.518 458.393 449.911 457.697 448.339C456.813 446.371 455.999 444.603 455.218 442.961L454.447 441.357C452.18 436.743 449.646 432.265 446.857 427.947C446.494 427.435 446.143 426.92 445.786 426.397L445.785 426.395L445.78 426.388L445.776 426.382L445.775 426.38C445.276 425.649 444.766 424.902 444.197 424.125L444.054 423.947C442.893 422.375 441.786 421.018 440.839 419.982C439.893 418.947 438.911 417.893 437.929 416.911C433.212 412.19 428.105 407.877 422.661 404.018C420.875 402.732 419.107 401.518 417.447 400.447C417.072 400.197 416.697 399.929 416.375 399.732L415.181 398.96C411.971 396.906 408.544 394.879 404.75 392.768C398.697 389.411 392.179 386.161 384.786 382.84L381.732 381.5L380.786 381.089L378 379.893C374.804 378.536 371.572 377.232 368.089 375.875C362.036 373.518 355.786 371.268 348.982 368.982C340.197 366.018 331.018 363.232 321.714 360.661C316.142 359.113 311.158 357.818 307.021 356.777L303.177 355.82L303.18 301.869C313.65 290.402 321.936 277.115 327.625 262.661L328.75 259.84C328.994 259.208 329.236 258.57 329.475 257.934C330.756 258.092 332.047 258.174 333.339 258.179C342.78 258.375 351.652 253.682 356.804 245.768L357.228 245.139C361.94 237.958 363.446 229.123 361.357 220.768C359.903 215.075 356.072 210.281 350.839 207.607C347.544 206.034 343.923 205.364 340.34 205.62C341.456 188.523 341.341 155.535 327.197 132.59C305.857 98.0333 271.243 92.4937 251.405 92.5021ZM174.31 368.941L176.707 368.261C181.449 374.391 188.538 379.467 197.822 383.375C206.269 386.798 215.111 389.15 224.143 390.375C232.577 391.588 241.087 392.184 249.607 392.161C258.096 392.211 266.576 391.644 274.982 390.464C283.919 389.235 292.669 386.908 301.036 383.536C310.438 379.612 317.599 374.466 322.363 368.292C330.744 370.648 339.002 373.193 346.947 375.857C353.643 378.107 359.786 380.322 365.732 382.643C369.143 383.964 372.322 385.25 375.464 386.589L379.161 388.161L382.089 389.464C389.286 392.697 395.643 395.857 401.518 399.125C405.607 401.411 409.286 403.607 412.75 405.857L414.713 407.143C416.029 408.014 417.375 408.943 418.732 409.929C423.828 413.56 428.607 417.616 433.018 422.054L433.027 422.063L433.028 422.064L433.031 422.067C433.92 422.973 434.826 423.898 435.697 424.893C436.703 425.999 437.645 427.162 438.518 428.375L438.679 428.572C439.554 429.732 440.304 430.839 441.036 431.964C443.67 436.043 446.056 440.277 448.179 444.643L448.549 445.397C449.169 446.67 449.807 448.032 450.479 449.51L451.304 451.34C451.982 452.857 452.643 454.411 453.322 456.054L453.768 457.136C454.066 457.865 454.363 458.607 454.661 459.357L454.822 459.786C455.804 462.268 456.822 464.964 457.839 467.804L458.426 469.444C459.009 471.102 459.585 472.813 460.161 474.554L460.709 476.209C461.439 478.434 462.161 480.728 462.875 483.089L463.286 484.464L464.322 488C464.411 488.319 464.502 488.639 464.594 488.962C464.796 489.67 465 490.389 465.197 491.125L465.75 493.125L33.0362 492.857L34.0604 489.595C34.9505 486.425 35.8372 483.427 36.6966 480.661L37.8573 476.982C37.9278 476.767 37.9972 476.553 38.066 476.341L38.0745 476.315L38.077 476.307C38.2834 475.671 38.4851 475.05 38.6966 474.429L39.1662 473.034C39.7902 471.187 40.4073 469.389 41.0359 467.661C42.6966 462.804 44.4823 458.304 46.268 454.232C46.6966 453.214 47.143 452.197 47.5716 451.232L48.3807 449.399C49.0916 447.809 49.8573 446.2 50.7145 444.5C53.4041 438.864 56.6019 433.485 60.268 428.429L60.6252 427.929L60.9122 427.567C61.7564 426.503 62.4952 425.571 63.0895 424.929L63.3573 424.643C64.1073 423.75 65.0002 422.857 65.893 421.964C71.495 416.4 77.6454 411.416 84.2502 407.089L86.2859 405.75C87.3037 405.089 88.3216 404.429 89.4109 403.768L90.3252 403.204C92.4834 401.882 94.8194 400.525 97.4287 399.072C101.75 396.714 106.482 394.304 111.5 391.929C117.268 389.197 123.214 386.607 129.214 384.232L130.403 383.75L134.381 382.179C135.139 381.883 135.905 381.589 136.679 381.304L138.107 380.768C141.462 379.517 144.969 378.262 148.722 376.972L152 375.857C159.158 373.447 166.502 371.172 174.31 368.941ZM184.393 366.157C188.516 365.055 192.642 363.992 196.732 362.982C201.168 370.96 217.454 374.461 226.094 375.788L227.536 376C234.583 376.981 241.689 377.476 248.804 377.482H250.072C257.181 377.477 264.281 376.981 271.322 376C279.216 374.897 296.294 371.631 301.647 363.858C301.843 363.579 302.024 363.294 302.189 363.003L302.186 363.002L302.25 362.893C302.23 362.93 302.21 362.966 302.189 363.003C304.675 363.572 307.543 364.297 310.758 365.145L314.781 366.219C310.113 370.867 304.525 374.491 298.375 376.857L296.904 377.436C289.53 380.27 281.85 382.24 274.018 383.304C257.824 385.589 241.39 385.589 225.197 383.304C216.793 382.154 208.564 379.971 200.697 376.804C194.553 374.41 188.975 370.761 184.322 366.089L184.393 366.157ZM202.804 308.572V358.947C203.589 361.697 211.875 366.429 228.554 368.768C235.275 369.706 242.053 370.177 248.839 370.179H250.072C256.852 370.176 263.624 369.705 270.339 368.768C277.467 367.762 283.059 366.326 287.189 364.797L287.549 364.662C293.011 362.567 295.752 360.324 295.964 358.786C295.966 358.444 296.014 358.107 296.105 357.784L296.108 308.727C293.577 310.921 290.923 312.971 288.159 314.868L286.768 315.804C277.842 321.844 267.593 325.583 256.933 326.73C255.026 326.945 253.107 327.077 251.179 327.125H247.697L247.583 327.12L247.554 327.125C245.591 327.072 243.637 326.932 241.697 326.706L239.892 326.47L238.853 326.312L237.354 326.054L236.156 325.822C228.056 324.177 220.306 321.02 213.323 316.484L212.375 315.857C209.015 313.66 205.817 311.225 202.804 308.572ZM247.787 99.6841L249.464 99.6967C267.482 99.4109 300.768 103.75 320.893 136.375C335.178 159.533 333.806 195.554 332.772 208.258L332.643 209.75V209.982L335.894 210.258L332.697 210.179L332.695 210.199L332.643 210.197C332.56 211 332.48 211.699 332.412 212.273L332.179 214.072C332.17 214.173 332.17 214.274 332.179 214.375L332.072 215.732C331.786 218.304 331.518 220.518 331.161 222.875C330.804 225.232 330.411 227.518 330 229.679L329.793 230.775C329.649 231.508 329.494 232.238 329.339 232.929L328.883 234.995L328.643 236.018V236.179C328.527 236.679 328.406 237.152 328.286 237.612L327.929 238.964L327.929 239.159C327.689 240.117 327.433 240.953 327.161 241.822L326.784 243.038L326.453 244.077L326.375 244.304C325.572 246.929 324.661 249.661 323.572 252.661V252.839C323.142 254.042 322.69 255.244 322.251 256.409L321.929 257.268L320.266 261.407C314.81 274.796 306.985 287.096 297.161 297.714L297.491 297.352C297.344 297.461 297.203 297.582 297.072 297.714C292.739 302.311 287.885 306.386 282.607 309.857L281.732 310.443C272.643 316.406 262.061 319.714 251.179 319.982H247.697C247.337 319.973 246.979 319.96 246.62 319.944L245.709 319.896L244.376 319.798C234.345 318.949 224.68 315.534 216.322 309.857L215.113 309.046C210.31 305.76 205.871 301.967 201.875 297.732C201.772 297.624 201.663 297.522 201.546 297.433C191.505 286.512 183.57 273.827 178.143 260.018L177.054 257.304C176.869 256.822 176.685 256.332 176.5 255.838L175.393 252.857L175.072 252.679C173.822 249.197 172.625 245.536 171.5 241.822C171.375 241.395 171.233 240.89 171.099 240.407L171.097 240.402L170.967 239.935L170.598 238.662C170.532 238.425 170.466 238.167 170.397 237.893L169.991 236.244C169.968 236.145 169.946 236.047 169.924 235.946C169.907 235.869 169.889 235.79 169.872 235.71C169.812 235.434 169.746 235.137 169.661 234.786L169.484 234.043C169.367 233.54 169.256 233.024 169.161 232.5V232.322C168.982 231.589 168.822 230.839 168.679 230.036L168.572 229.536L167.876 225.543C167.796 225.064 167.72 224.572 167.661 224.072C167.661 224.048 167.675 224.042 167.689 224.036C167.716 224.024 167.744 224.012 167.661 223.857C167.536 223.625 167.536 223.375 167.536 223.143V222.679C167.482 222.316 167.431 221.945 167.38 221.57L166.954 218.447C166.841 217.577 166.737 216.67 166.643 215.732L166.542 214.826L166.518 214.375C166.528 214.262 166.528 214.149 166.518 214.036L166.321 212.39L166.322 211.75C166.31 211.605 166.289 211.447 166.266 211.274C166.218 210.912 166.161 210.483 166.161 209.964L166.15 209.69C166.129 209.418 166.078 209.153 165.998 208.899L165.907 207.817C164.874 194.745 163.647 159.321 177.804 136.375C197.342 104.729 229.281 99.6968 247.787 99.6841ZM340.114 212.879L339.767 212.935L339.563 214.58C339.537 214.767 339.516 214.908 339.5 215L339.393 216.34C339.127 218.824 338.862 221.062 338.56 223.078L338.429 223.929L338.334 224.521L338.333 224.528C337.999 226.619 337.623 228.971 337.232 231.072C337.089 231.857 336.939 232.627 336.78 233.392L336.536 234.536L336.479 234.795C336.255 235.819 336.07 236.666 335.839 237.589V237.768L335.67 238.453C338.062 238.329 340.29 237.109 341.679 235.107C343.397 232.746 343.679 229.631 342.411 227C341.88 226.172 342.119 225.069 342.947 224.536C343.775 224.005 344.877 224.244 345.411 225.072C347.292 228.649 347.173 232.947 345.098 236.415C343.023 239.883 339.291 242.02 335.25 242.054L335.322 242.089C335.12 242.089 334.919 242.081 334.718 242.067L334.461 242.972L334.197 243.857C333.893 244.857 333.643 245.643 333.339 246.5C332.897 247.941 332.408 249.455 331.871 251.043L331.732 251.036C339.14 251.719 346.329 248.374 350.581 242.306L350.911 241.822C354.771 236.266 356.071 229.326 354.482 222.75C353.59 219.044 351.152 215.897 347.786 214.107C345.569 213.04 343.112 212.598 340.676 212.816L340.114 212.879ZM151.036 214.054C152.87 213.175 154.877 212.717 156.911 212.715C157.733 212.727 158.552 212.817 159.357 212.982V213.393C159.413 213.589 159.416 213.756 159.418 213.914C159.42 214.058 159.422 214.195 159.464 214.34C159.518 214.522 159.539 214.678 159.548 214.805L159.554 215.018C159.583 215.509 159.636 215.997 159.714 216.482C159.756 216.911 159.802 217.338 159.849 217.761L160.143 220.25C160.286 221.465 160.447 222.625 160.625 223.822V224.232L160.786 225.197C160.839 225.607 160.902 226.018 160.967 226.415L161.35 228.679C161.465 229.334 161.589 229.991 161.713 230.653L161.768 230.947L161.857 231.465L162.462 234.335L162.929 236.447L163.357 238.232V238.429L163.375 238.5C160.828 238.502 158.422 237.251 156.964 235.125C155.259 232.765 154.984 229.659 156.25 227.036C156.781 226.207 156.542 225.105 155.714 224.572C154.886 224.041 153.784 224.28 153.25 225.107C151.369 228.684 151.488 232.983 153.563 236.451C155.638 239.919 159.37 242.056 163.411 242.089C163.716 242.095 164.021 242.085 164.325 242.061L164.432 242.052L164.589 242.036C164.537 242.042 164.485 242.047 164.432 242.052C164.397 242.055 164.361 242.058 164.325 242.061L164.321 242.061L164.839 243.84C165.572 246.268 166.322 248.643 167.107 250.982C159.503 251.688 152.13 248.145 147.929 241.768L147.55 241.208C143.974 235.755 142.811 229.053 144.357 222.697C145.244 218.993 147.675 215.846 151.036 214.054Z" fill="#372168"/>
<path fill-rule="evenodd" clip-rule="evenodd" d="M302.189 363.003C302.21 362.966 302.23 362.93 302.25 362.893L302.186 363.002L302.189 363.003ZM164.432 242.052L164.589 242.036C164.537 242.042 164.485 242.047 164.432 242.052Z" fill="#372168"/>
<g style="mix-blend-mode:multiply" opacity="0.15">
<path fill-rule="evenodd" clip-rule="evenodd" d="M218.75 249.583C218.75 260.484 210.755 269.32 200.893 269.32C191.031 269.32 183.036 260.484 183.036 249.583C183.036 238.683 191.031 229.846 200.893 229.846C210.755 229.846 218.75 238.683 218.75 249.583ZM315.179 249.583C315.179 260.484 307.184 269.32 297.321 269.32C287.459 269.32 279.464 260.484 279.464 249.583C279.464 238.683 287.459 229.846 297.321 229.846C307.184 229.846 315.179 238.683 315.179 249.583Z" fill="#FF1300"/>
</g>
<path d="M253.786 289.679H244.232C243.246 289.679 242.446 288.879 242.446 287.893C242.446 286.907 243.246 286.107 244.232 286.107H253.786C254.772 286.107 255.571 286.907 255.571 287.893C255.571 288.879 254.772 289.679 253.786 289.679Z" fill="#372168"/>
<path fill-rule="evenodd" clip-rule="evenodd" d="M273.464 254.697C272.962 267.844 262.157 278.244 249 278.244C235.843 278.244 225.038 267.844 224.536 254.697L273.464 254.697Z" fill="#FF6666"/>
<path fill-rule="evenodd" clip-rule="evenodd" d="M221.411 254.697C221.684 269.67 234.026 281.596 249 281.357C263.974 281.596 276.315 269.67 276.589 254.697C276.589 252.971 275.19 251.572 273.464 251.572H224.536C222.81 251.572 221.411 252.971 221.411 254.697ZM249 275.452C238.63 275.452 229.749 268.027 227.911 257.822H270.089C268.251 268.027 259.369 275.452 249 275.452Z" fill="#372168"/>
<path fill-rule="evenodd" clip-rule="evenodd" d="M265.946 271.393C261.406 275.884 255.243 278.351 248.857 278.232C243.109 278.34 237.532 276.281 233.232 272.465L233.375 271.161C233.375 271.161 239.268 260.607 248.696 267.322L249.143 267.161C250.314 266.693 251.458 266.163 252.571 265.572C260 261.786 264.964 270.036 264.964 270.036L265.946 271.393Z" fill="#FF7D7D"/>
<path fill-rule="evenodd" clip-rule="evenodd" d="M231.107 274.75C235.988 279.097 242.322 281.454 248.857 281.357C256.096 281.471 263.072 278.649 268.196 273.536C269.217 272.444 269.322 270.783 268.446 269.572L267.536 268.304C265.232 264.572 258.964 258.786 251.107 262.786C250.428 263.143 249.714 263.5 248.982 263.822C246.319 262.167 243.123 261.598 240.053 262.232C236.073 263.376 232.697 266.029 230.643 269.625C230.438 269.994 230.311 270.401 230.268 270.822L230.125 272.125C230.025 273.105 230.388 274.076 231.107 274.75ZM248.857 275.054C244.618 275.125 240.462 273.877 236.964 271.482C238.067 269.981 239.627 268.878 241.411 268.34C243.369 268.021 245.369 268.583 246.875 269.875C247.73 270.474 248.825 270.614 249.803 270.25L250.25 270.072C251.539 269.563 252.792 268.966 254 268.286C257.768 266.375 260.678 269.411 261.803 270.893C258.054 273.649 253.51 275.109 248.857 275.054Z" fill="#372168"/>
<path d="M247.018 269.143C247.97 268.146 249.08 267.313 250.304 266.679L247.018 269.143Z" fill="#F9F9F9"/>
<path d="M247.018 272.268C246.167 272.27 245.353 271.921 244.768 271.304C243.553 270.084 243.553 268.113 244.768 266.893C246 265.598 247.459 264.539 249.071 263.768C250.108 263.35 251.289 263.517 252.169 264.206C253.049 264.895 253.495 266.001 253.339 267.108C253.182 268.215 252.447 269.154 251.411 269.572C250.558 270.049 249.782 270.651 249.107 271.357C248.549 271.912 247.804 272.237 247.018 272.268Z" fill="#372168"/>
<path d="M249.059 246.94C245.159 246.993 241.492 245.089 239.291 241.869C238.354 240.419 238.77 238.484 240.219 237.548C241.669 236.611 243.604 237.026 244.541 238.476C245.628 239.89 247.316 240.711 249.099 240.694C250.882 240.676 252.553 239.822 253.612 238.387C254.51 236.907 256.437 236.436 257.916 237.333C259.395 238.231 259.867 240.157 258.969 241.637C256.809 245.003 253.058 247.011 249.059 246.94Z" fill="#372168"/>
<path d="M293.506 224.089C292.409 224.089 291.392 223.513 290.828 222.572C289.769 221.137 288.097 220.282 286.314 220.265C284.531 220.247 282.843 221.068 281.756 222.482C281.183 223.486 280.103 224.092 278.948 224.057C277.792 224.023 276.75 223.353 276.239 222.316C275.728 221.279 275.831 220.045 276.506 219.107C278.76 215.888 282.459 213.99 286.389 214.036C290.319 214.083 293.972 216.068 296.149 219.339C296.723 220.304 296.739 221.503 296.19 222.483C295.641 223.463 294.611 224.075 293.488 224.089H293.506Z" fill="#372168"/>
<path d="M220.279 224C219.19 224.004 218.179 223.434 217.619 222.5C216.56 221.065 214.888 220.211 213.105 220.193C211.322 220.176 209.634 220.997 208.547 222.411C207.941 223.348 206.881 223.892 205.765 223.836C204.65 223.78 203.65 223.133 203.14 222.139C202.631 221.146 202.691 219.956 203.297 219.018C205.556 215.806 209.253 213.914 213.18 213.961C217.106 214.007 220.757 215.986 222.94 219.25C223.372 219.957 223.504 220.808 223.306 221.612C223.108 222.417 222.597 223.11 221.886 223.536C221.406 223.84 220.848 224.001 220.279 224Z" fill="#372168"/>
<path d="M301.982 206.25C301.214 206.254 300.467 206.003 299.857 205.536C299.643 205.393 286.607 196 271.589 200.786C270.359 201.225 268.988 200.957 268.013 200.088C267.038 199.219 266.615 197.888 266.91 196.616C267.205 195.343 268.171 194.334 269.428 193.982C288.053 188.036 303.464 199.339 304.125 199.822C305.355 200.744 305.856 202.35 305.37 203.808C304.884 205.267 303.519 206.25 301.982 206.25Z" fill="#372168"/>
<path d="M196.321 206.232C195.197 206.232 194.139 205.703 193.464 204.804C192.293 203.229 192.612 201.004 194.178 199.822C194.839 199.322 210.25 188.036 228.875 193.982C230.687 194.629 231.661 196.594 231.079 198.427C230.496 200.261 228.567 201.303 226.714 200.786C211.643 195.982 198.589 205.447 198.446 205.536C197.831 205.99 197.086 206.234 196.321 206.232Z" fill="#372168"/>
<path fill-rule="evenodd" clip-rule="evenodd" d="M408.97 332.607C408.97 332.607 404.505 352.607 370.88 342.107C370.238 344.022 369.4 345.865 368.38 347.607C359.75 362.438 342.115 369.469 325.648 364.643L321.327 363.429C312.809 361.072 306.452 359.5 301.077 358.197L300.595 358.072H300.47H300.13V299.643C310.628 288.35 318.904 275.18 324.523 260.822L325.63 258.054C326.22 256.518 326.809 254.929 327.416 253.357C336.13 255.375 347.595 253.554 354.38 243.197C360.273 234.161 360.47 224.554 357.184 217.822C350.871 214.012 344.003 211.21 336.827 209.518C323.773 205.947 315.023 197.5 312.738 186.554C311.255 179.572 312.452 171.25 316.916 161.804C322.88 149.161 319.148 140.232 313.934 134.464C309.041 129.107 301.434 125.661 293.309 124.482C270.755 121.268 257.88 127.214 252.577 130.679C250.912 131.77 248.759 131.77 247.095 130.679C241.738 127.232 228.916 121.268 206.345 124.482C198.184 125.661 190.63 129.072 185.738 134.464C180.523 140.232 176.809 149.161 182.755 161.804C187.22 171.25 188.416 179.661 186.934 186.554C184.666 197.429 175.988 205.893 163.059 209.536C155.648 211.265 148.62 214.346 142.327 218.625C139.416 225.286 139.827 234.5 145.488 243.197C152.273 253.554 163.738 255.375 172.452 253.357C173.023 254.929 173.613 256.518 174.238 258.054L175.345 260.822C177.13 265.161 179.023 269.304 181.059 273.197C181.666 274.387 182.291 275.53 182.934 276.625C187.538 284.978 193.184 292.713 199.738 299.643V358.054C199.738 358.054 199.738 358.054 199.452 358.054C194.095 359.34 187.095 361.107 178.63 363.411L172.827 365.054C156.373 369.897 138.713 363.123 129.72 348.518C128.471 346.508 127.453 344.363 126.684 342.125C93.0768 352.625 88.5947 332.625 88.5947 332.625C62.7554 331.25 64.7018 311.518 65.8268 305.839C65.8986 305.529 66.1245 305.277 66.4252 305.172C66.7259 305.067 67.0595 305.124 67.309 305.322C79.059 314.625 103.684 297.357 86.3447 266.268C68.4875 234.125 96.2197 224.607 114.363 216.161C136.863 205.679 138.005 177.375 137.916 170.393C137.916 168.607 137.916 166.697 137.916 164.839C140.613 61.768 248.523 64.8395 248.791 64.8395C249.059 64.8395 356.952 61.6966 359.666 164.839C359.666 166.625 359.666 168.518 359.666 170.393C359.666 177.375 360.738 205.679 383.238 216.161C401.38 224.607 429.184 234.143 411.255 266.268C394.041 297.107 421.755 315.929 433.934 307.339C434.253 307.123 434.659 307.079 435.016 307.222C435.374 307.366 435.638 307.677 435.72 308.054C436.648 314.143 437.148 333.054 408.97 332.607Z" fill="#FFCB6D"/>
<path fill-rule="evenodd" clip-rule="evenodd" d="M126.595 350.357C134.131 362.692 147.568 370.189 162.023 370.125C165.977 370.197 169.92 369.71 173.737 368.679L179.523 367.054C186.577 365.072 193.362 363.322 200.13 361.697C201.92 361.462 203.253 359.93 203.237 358.125V299.714C203.239 298.797 202.887 297.915 202.255 297.25C195.901 290.531 190.429 283.03 185.97 274.929C185.374 273.845 184.779 272.738 184.184 271.607C182.202 267.839 180.416 263.786 178.63 259.554C178.552 259.359 178.474 259.167 178.397 258.977C178.106 258.257 177.823 257.56 177.541 256.839C176.987 255.393 176.416 253.875 175.88 252.393C175.344 250.581 173.489 249.501 171.648 249.929C164.237 251.625 154.291 250.232 148.434 241.304C144.112 234.661 142.916 227.161 145.166 221.054C150.831 217.363 157.089 214.675 163.666 213.107H163.97C178.184 209.089 187.809 199.732 190.38 187.429C192.095 179.357 190.595 170.268 185.934 160.411C181.666 151.357 182.47 143.482 188.327 136.982C193.31 132.039 199.816 128.925 206.791 128.143C227.916 125.143 239.862 130.393 245.095 133.786C247.947 135.654 251.635 135.654 254.487 133.786C258.684 131.036 270.809 125 292.755 128.125C299.745 128.875 306.267 131.994 311.237 136.964C317.095 143.464 317.916 151.339 313.63 160.393C308.97 170.25 307.398 179.339 309.184 187.393C311.773 199.732 321.541 209.089 335.827 213.072H336.095C342.502 214.6 348.651 217.061 354.345 220.375C356.38 225.411 356.595 233.25 351.345 241.304C345.434 250.25 335.487 251.625 328.13 249.929C327.071 249.69 325.96 249.946 325.112 250.625C324.573 251.055 324.17 251.632 323.952 252.286C323.398 253.804 322.827 255.357 322.255 256.804L322.205 256.933C321.85 257.847 321.524 258.684 321.166 259.554C315.714 273.44 307.72 286.188 297.595 297.143C296.887 297.818 296.486 298.754 296.487 299.732V358.161C296.489 359.802 297.608 361.231 299.202 361.625H300.166C305.684 362.964 311.952 364.518 320.309 366.839L324.595 368.036C342.631 373.351 361.961 365.623 371.362 349.339L371.523 349.037C372.058 348.031 372.505 347.191 372.862 346.411C385.452 349.839 395.559 349.411 402.916 345.161C406.574 343.089 409.505 339.94 411.309 336.143C421.541 335.875 429.237 332.982 434.041 327.518C440.059 320.679 439.827 311.964 439.148 307.357C438.892 305.757 437.824 304.405 436.327 303.786C434.8 303.143 433.049 303.339 431.702 304.304C427.827 307.054 421.13 305.75 416.112 301.25C412.916 298.322 403.309 287.5 414.22 267.964C420.273 257.107 421.916 247.857 419.22 239.697C414.942 226.741 400.453 220.135 388.74 214.795L388.523 214.697L384.595 212.911C380.934 211.214 362.773 201.179 363.077 170.411V164.732C361.63 109.929 330.809 84.7144 305.202 73.2144C269.144 57.3452 228.081 57.3452 192.023 73.2144C166.434 84.7144 135.63 109.929 134.184 164.661V170.411C134.309 175.804 133.595 203.179 112.755 212.893L108.556 214.802C96.8358 220.137 82.4008 226.707 78.1125 239.679C75.4339 247.839 77.0589 257.089 83.1303 267.947C92.2196 284.25 88.8089 295.679 82.5767 301.036C78.3625 304.643 73.0053 305.214 69.4339 302.464C68.1917 301.481 66.5265 301.217 65.041 301.768C63.5811 302.301 62.5092 303.562 62.2196 305.089C61.4517 308.982 60.3267 318.911 66.3446 326.643C70.541 331.964 77.0589 335.107 85.9875 336C87.7835 339.877 90.75 343.094 94.4696 345.197C101.827 349.464 112.005 349.875 124.505 346.447C125.133 347.786 125.83 349.091 126.595 350.357ZM128.291 338.964C127.777 338.681 127.199 338.533 126.612 338.536C126.349 338.53 126.085 338.554 125.827 338.607C114.023 342.304 104.559 342.447 98.4696 339.018C95.5358 337.487 93.3133 334.874 92.2732 331.732C91.9242 330.173 90.5825 329.036 88.9875 328.947C81.0946 328.536 75.4696 326.25 72.291 322.161C69.8254 318.664 68.6858 314.404 69.0767 310.143C75.4433 312.397 82.5345 310.947 87.5053 306.375C100.38 295.482 96.666 276.875 89.666 264.375C84.6303 255.357 83.1839 247.982 85.2017 241.839C88.541 231.786 101.041 226.054 112.077 221.072L116.077 219.286C140.898 207.786 141.773 176.411 141.684 170.286V164.822C144.142 68.1633 242.599 68.3794 248.675 68.3927C248.734 68.3928 248.785 68.3929 248.827 68.3929H249.023C249.064 68.3929 249.114 68.3928 249.173 68.3927C255.174 68.3794 353.62 68.1608 356.166 164.822V170.268C355.827 204.536 375.702 216.464 381.809 219.304L385.809 221.089L385.814 221.092C396.777 226.073 409.274 231.752 412.595 241.857C414.63 248 413.166 255.375 408.148 264.393C397.416 283.589 402.845 298.732 411.505 306.482C417.827 312.161 426.077 314.125 432.505 311.839C432.66 315.807 431.358 319.694 428.845 322.768C425.13 327.036 418.434 329.107 409.059 328.964C407.407 328.97 405.975 330.107 405.595 331.714C404.556 334.866 402.334 337.49 399.398 339.036C393.309 342.464 383.862 342.322 372.041 338.625C371.131 338.347 370.148 338.443 369.309 338.893C368.455 339.327 367.812 340.087 367.523 341C366.941 342.654 366.205 344.25 365.327 345.768C357.552 359.192 341.591 365.541 326.72 361.125L322.398 359.911C314.809 357.822 308.952 356.339 303.791 355.089V300.875C314.114 289.459 322.297 276.279 327.952 261.964L329.077 259.143C329.327 258.5 329.577 257.839 329.809 257.179C339.059 258.357 350.309 255.732 357.452 244.929C363.487 235.679 364.648 224.607 360.47 216.036C360.166 215.413 359.689 214.892 359.095 214.536C352.446 210.542 345.217 207.608 337.666 205.839C326.059 202.572 318.237 195.197 316.237 185.607C314.791 179.179 316.166 171.536 320.148 163.107C327.148 148.286 322.077 137.929 316.577 131.857C310.498 125.634 302.454 121.704 293.809 120.732C270.273 117.393 256.684 123.518 250.63 127.482C250.147 127.795 249.525 127.795 249.041 127.482C242.97 123.536 229.273 117.411 205.845 120.75C197.206 121.725 189.169 125.655 183.095 131.875C177.612 137.947 172.523 148.304 179.523 163.143C183.434 171.554 184.827 179.107 183.434 185.625C181.434 195.143 173.72 202.589 162.22 205.857C154.402 207.696 146.988 210.953 140.345 215.464C139.778 215.843 139.332 216.376 139.059 217C135.362 225.5 136.63 235.947 142.505 244.964C148.502 254.125 159.317 258.914 170.13 257.197L170.88 259.197C171.142 259.863 171.388 260.466 171.634 261.069C171.757 261.371 171.88 261.673 172.005 261.982C173.809 266.447 175.791 270.714 177.862 274.679C178.487 275.929 179.13 277.107 179.791 278.25C184.311 286.441 189.796 294.061 196.13 300.946V355.125C190.023 356.625 183.952 358.161 177.648 359.947L171.791 361.607C156.892 366.007 140.892 359.883 132.737 346.661C131.644 344.909 130.752 343.041 130.077 341.089C129.792 340.169 129.148 339.403 128.291 338.964Z" fill="#372168"/>
<path fill-rule="evenodd" clip-rule="evenodd" d="M286.362 111.072C286.467 110.096 285.765 109.219 284.791 109.107C264.88 107.214 249.005 129.375 248.345 130.322L248.22 130.523C248.036 130.87 247.971 131.27 248.038 131.661C248.118 132.13 248.383 132.548 248.773 132.822C249.077 133.033 249.439 133.146 249.809 133.143C250.378 133.107 250.895 132.802 251.202 132.322C251.211 132.315 251.265 132.244 251.362 132.118C253.038 129.942 267.538 111.109 284.416 112.679C285.397 112.772 286.268 112.053 286.362 111.072ZM279.095 123.804C287.317 124.731 294.971 128.457 300.773 134.357L301.276 134.929C306.113 140.578 310.271 149.851 304.356 162.978L304.041 163.661C299.898 172.429 298.541 180.375 300.005 187.268C300.106 187.732 300.017 188.217 299.759 188.616C299.501 189.015 299.095 189.294 298.63 189.393C298.52 189.425 298.406 189.443 298.291 189.447C297.434 189.466 296.685 188.874 296.505 188.036C294.931 180.597 296.239 172.187 300.414 163.031L300.827 162.143C305.327 152.643 304.523 143.839 298.13 136.768C292.891 131.482 285.993 128.16 278.595 127.357C273.688 126.642 268.729 126.355 263.773 126.5C263.135 126.526 262.532 126.209 262.191 125.669C261.85 125.129 261.823 124.449 262.12 123.883C262.416 123.318 262.992 122.954 263.63 122.929C268.801 122.762 273.976 123.055 279.095 123.804ZM237.809 124.768C237.809 123.782 237.009 122.982 236.023 122.982C230.853 122.807 225.677 123.099 220.559 123.857C212.336 124.784 204.682 128.511 198.88 134.411C193.827 140.089 189.041 149.768 195.612 163.714C199.755 172.482 201.13 180.429 199.666 187.322C199.565 187.786 199.654 188.271 199.912 188.67C200.17 189.068 200.576 189.348 201.041 189.447C201.165 189.464 201.292 189.464 201.416 189.447C202.283 189.506 203.067 188.933 203.273 188.089C204.916 180.411 203.452 171.697 198.97 162.214L198.683 161.593C194.404 152.086 195.409 143.812 201.666 136.822C206.903 131.532 213.802 128.209 221.202 127.411C226.108 126.694 231.067 126.407 236.023 126.554C237.009 126.554 237.809 125.754 237.809 124.768ZM358.916 214.625C371.416 222.107 378.559 230.839 380.595 241.286C380.784 242.217 380.594 243.184 380.068 243.975C379.542 244.766 378.723 245.315 377.791 245.5C377.585 245.538 377.376 245.562 377.166 245.572C375.436 245.605 373.932 244.393 373.595 242.697C371.916 234.322 365.916 227.143 355.237 220.75C354.143 220.093 353.483 218.902 353.505 217.626C353.527 216.35 354.228 215.182 355.344 214.563C356.46 213.944 357.822 213.968 358.916 214.625ZM144.291 221.447C145.89 220.332 146.3 218.143 145.214 216.525C144.127 214.907 141.945 214.459 140.309 215.518C126.916 224.482 120.398 233.982 120.398 244.697C120.398 246.669 121.997 248.268 123.97 248.268C124.923 248.268 125.837 247.887 126.508 247.209C127.179 246.532 127.551 245.614 127.541 244.661C127.541 236.607 133.023 229 144.291 221.447ZM358.22 236.304L358.503 236.529C360.589 238.245 372.766 249.348 372.666 275.018C372.666 275.934 371.977 276.688 371.089 276.792L370.88 276.804C369.894 276.804 369.095 276.004 369.095 275.018C369.192 251.668 358.496 241.276 356.422 239.455L356.077 239.161C355.566 238.778 355.299 238.152 355.375 237.519C355.452 236.885 355.86 236.341 356.447 236.09C357.033 235.839 357.709 235.921 358.22 236.304ZM145.416 242.143C145.869 241.69 146.046 241.03 145.88 240.411C145.714 239.792 145.231 239.309 144.612 239.143C143.993 238.977 143.333 239.154 142.88 239.607C139.041 243.482 130.112 254.839 130.112 276.804C130.112 277.79 130.912 278.589 131.898 278.589C132.884 278.589 133.684 277.79 133.684 276.804C133.616 257.114 141.102 246.7 144.893 242.682L145.416 242.143ZM408.748 329.018C408.226 329.007 399.735 328.627 388.22 314.732C386.962 313.209 384.708 312.993 383.184 314.25C381.66 315.508 381.444 317.762 382.702 319.286C395.033 334.235 404.951 336.034 408.224 336.185L408.72 336.197L409.22 336.161C411.136 335.981 412.566 334.315 412.452 332.393C412.347 330.498 410.779 329.015 408.88 329.018L408.748 329.018ZM154.245 320.813C153.654 319.621 152.451 318.857 151.121 318.829C149.792 318.801 148.557 319.513 147.916 320.679C142.509 328.88 134.673 335.186 125.505 338.714C123.84 339.262 122.818 340.937 123.093 342.668C123.369 344.399 124.86 345.675 126.612 345.679C126.989 345.682 127.363 345.622 127.72 345.5C138.483 341.491 147.673 334.129 153.934 324.5L154.103 324.246C154.73 323.207 154.79 321.912 154.245 320.813ZM189.207 341.366C190.977 342.145 191.806 344.191 191.077 345.982L190.738 346.69C188.754 350.729 178.426 370 159.47 370H157.952C155.979 369.892 154.468 368.205 154.577 366.232C154.685 364.26 156.372 362.749 158.345 362.857C175.22 363.768 184.452 343.322 184.541 343.107C185.369 341.359 187.437 340.588 189.207 341.366ZM314.533 343.305L314.648 343.554L314.728 343.773C315.543 345.803 322.609 361.155 337.04 362.465L337.755 362.518C339.031 362.553 340.192 363.266 340.799 364.389C341.407 365.511 341.369 366.873 340.701 367.96C340.033 369.048 338.835 369.696 337.559 369.661V369.643H337.345C316.827 368.464 308.345 347.036 307.987 346.125C307.344 344.303 308.267 342.3 310.069 341.604C311.695 340.977 313.506 341.618 314.394 343.058L314.533 343.305ZM350.809 322.464C356.451 329.127 363.414 334.542 371.253 338.369L372.237 338.839C373.781 339.52 374.637 341.187 374.293 342.837C373.968 344.391 372.662 345.532 371.104 345.666L370.838 345.677L370.586 345.668C370.194 345.637 369.81 345.538 369.452 345.375C360.229 341.11 352.041 334.896 345.452 327.161C344.322 325.667 344.538 323.555 345.946 322.321C347.354 321.086 349.476 321.149 350.809 322.464ZM108.037 317.35C109.354 317.579 110.434 318.526 110.833 319.802C111.233 321.078 110.886 322.471 109.934 323.411C99.5053 335.339 90.9517 336.179 88.7375 336.179H88.2732C86.3007 336.055 84.8017 334.356 84.925 332.384C85.0426 330.501 86.596 329.05 88.4525 329.029L88.8641 329.031C89.9166 328.97 96.2535 328.203 104.577 318.714C105.384 317.648 106.719 317.121 108.037 317.35Z" fill="#372168"/>
<path fill-rule="evenodd" clip-rule="evenodd" d="M229.98 50.6072H264.034C308.621 50.6072 344.766 86.7522 344.766 131.339H149.23C149.23 86.7522 185.376 50.6072 229.963 50.6072L229.98 50.6072Z" fill="#BA8C84"/>
<path fill-rule="evenodd" clip-rule="evenodd" d="M149.23 134.911H344.784C346.757 134.911 348.355 133.312 348.355 131.339C348.296 84.7971 310.576 47.0848 264.034 47.0356H229.98C183.438 47.0848 145.718 84.7971 145.659 131.339C145.659 133.312 147.258 134.911 149.23 134.911ZM341.123 127.768H152.891C154.816 86.5778 188.746 54.1574 229.981 54.107H264.034C305.269 54.1574 339.198 86.5778 341.123 127.768Z" fill="#372168"/>
<rect x="135.534" y="131.357" width="221.375" height="43.9643" rx="7.56" fill="#FF6666"/>
<path fill-rule="evenodd" clip-rule="evenodd" d="M149.034 178.875H343.427C352.851 178.865 360.488 171.228 360.498 161.804V144.839C360.488 135.415 352.851 127.778 343.427 127.768H149.034C139.613 127.778 131.98 135.418 131.98 144.839V161.804C131.98 171.225 139.613 178.865 149.034 178.875ZM139.123 144.839C139.133 139.367 143.562 134.93 149.034 134.911H343.427C348.906 134.921 353.346 139.36 353.355 144.839V161.804C353.346 167.283 348.906 171.722 343.427 171.732H149.034C143.558 171.722 139.123 167.28 139.123 161.804V144.839Z" fill="#372168"/>
<path d="M336.48 166.339C335.494 166.339 334.695 165.54 334.695 164.554C334.695 163.567 335.494 162.768 336.48 162.768C340.076 162.758 342.989 159.846 342.998 156.25C342.998 155.264 343.798 154.464 344.784 154.464C345.77 154.464 346.57 155.264 346.57 156.25C346.56 161.818 342.049 166.33 336.48 166.339Z" fill="#372168"/>
<path d="M302.338 133.964H302.248C301.275 133.87 300.558 133.01 300.641 132.036C302.534 114.19 298.9 96.1945 290.23 80.4822C289.749 79.624 290.052 78.5378 290.909 78.0536C291.323 77.8237 291.812 77.7679 292.268 77.8985C292.723 78.0292 293.108 78.3355 293.338 78.75C302.357 95.0742 306.146 113.774 304.195 132.321C304.119 133.28 303.298 134.006 302.338 133.964Z" fill="#372168"/>
<path d="M246.159 133.125C245.173 133.125 244.373 132.326 244.373 131.339V50.5357C244.373 49.5495 245.173 48.75 246.159 48.75C247.145 48.75 247.945 49.5495 247.945 50.5357V131.268C247.964 131.754 247.785 132.226 247.448 132.577C247.111 132.927 246.645 133.125 246.159 133.125Z" fill="#372168"/>
<path d="M285.338 71.5357C284.769 71.5414 284.232 71.2761 283.891 70.8214C278.301 63.186 271.424 56.5815 263.57 51.3036C262.87 50.752 262.684 49.7688 263.133 48.9995C263.583 48.2302 264.532 47.9104 265.355 48.25C273.664 53.7283 280.922 60.6536 286.784 68.6964C287.066 69.0775 287.185 69.5552 287.115 70.0242C287.045 70.4932 286.791 70.9149 286.409 71.1964C286.098 71.4219 285.722 71.5409 285.338 71.5357Z" fill="#372168"/>
<path d="M194.338 133.964C193.405 133.967 192.627 133.251 192.552 132.321C189.102 99.3248 203.951 67.0792 231.266 48.2498C231.814 47.8184 232.562 47.745 233.183 48.0619C233.804 48.3789 234.184 49.0282 234.156 49.7247C234.127 50.4213 233.696 51.0377 233.052 51.3034C206.903 69.4304 192.724 100.377 196.07 132.018C196.152 132.999 195.425 133.861 194.445 133.946L194.338 133.964Z" fill="#372168"/>
</g>
<path fill-rule="evenodd" clip-rule="evenodd" d="M0 250C0 111.929 111.929 0 250 0C388.071 0 500 111.929 500 250C500 388.071 388.071 500 250 500C111.929 500 0 388.071 0 250ZM492.857 250C492.857 115.874 384.126 7.14286 250 7.14286C115.874 7.14286 7.14286 115.874 7.14286 250C7.14286 384.126 115.874 492.857 250 492.857C384.126 492.857 492.857 384.126 492.857 250Z" fill="#372168"/>
</svg>
