<svg width="500" height="500" viewBox="0 0 500 500" fill="none" xmlns="http://www.w3.org/2000/svg">
<path fill-rule="evenodd" clip-rule="evenodd" d="M250 496.429C386.099 496.429 496.429 386.099 496.429 250C496.429 113.901 386.099 3.57141 250 3.57141C113.901 3.57141 3.57144 113.901 3.57144 250C3.57144 386.099 113.901 496.429 250 496.429Z" fill="#E7EEFF"/>
<mask id="mask0_0_296" style="mask-type:alpha" maskUnits="userSpaceOnUse" x="3" y="3" width="494" height="494">
<path fill-rule="evenodd" clip-rule="evenodd" d="M250 496.429C386.099 496.429 496.429 386.099 496.429 250C496.429 113.901 386.099 3.57141 250 3.57141C113.901 3.57141 3.57144 113.901 3.57144 250C3.57144 386.099 113.901 496.429 250 496.429Z" fill="white"/>
</mask>
<g mask="url(#mask0_0_296)">
<path fill-rule="evenodd" clip-rule="evenodd" d="M336.359 210.077L336.357 210.036C337.536 196.964 339.357 159.232 324.071 134.357C305.536 104.339 275.161 95.5535 249.464 95.9821C223.732 95.5535 193.357 104.339 174.821 134.357C159.554 159.125 161.375 196.911 162.571 209.929V210.03C158.281 208.601 153.604 208.884 149.518 210.821C140.161 215.268 136.089 230.125 145.018 243.714C151.783 254.04 163.198 255.882 171.903 253.893C172.226 254.732 172.545 255.575 172.861 256.412C173.129 257.12 173.395 257.825 173.661 258.518L174.768 261.286C180.393 275.65 188.675 288.826 199.179 300.125C203.705 304.911 208.768 309.159 214.268 312.786C224.14 319.474 235.722 323.192 247.643 323.5H251.214C263.136 323.197 274.719 319.478 284.589 312.786C288.752 310.04 292.665 306.938 296.285 303.517C292.662 306.963 288.743 310.089 284.571 312.857C274.701 319.55 263.118 323.269 251.196 323.571H247.625C235.705 323.264 224.122 319.545 214.25 312.857C208.75 309.231 203.687 304.982 199.161 300.196V359.357C200.071 365.125 211.625 370.054 227.982 372.357C234.864 373.312 241.802 373.796 248.75 373.804H250C256.947 373.796 263.886 373.312 270.768 372.357C287.214 369.982 298.804 365.071 299.607 359.268V300.201L299.696 300.107C310.194 288.814 318.47 275.644 324.089 261.286L325.196 258.518C325.814 257.001 326.396 255.431 326.961 253.878C335.674 255.891 347.129 254.065 353.911 243.714C362.768 230.125 358.768 215.268 349.375 210.875C345.301 208.942 340.638 208.656 336.359 210.077ZM168.304 242.786C168.661 244.021 169.028 245.245 169.406 246.457C169.011 245.278 168.62 244.09 168.232 242.893C167.946 241.946 167.607 240.768 167.393 239.964L167.392 239.962L167.392 239.96C167.177 239.157 166.893 238.088 166.75 237.482C166.693 237.24 166.647 237.035 166.601 236.825L166.6 236.823C166.53 236.507 166.457 236.179 166.339 235.696C166.241 235.295 166.156 234.879 166.071 234.464C165.987 234.049 165.902 233.634 165.804 233.232C165.607 232.429 165.446 231.625 165.286 230.786L165.179 230.232C164.982 229.161 164.786 228.071 164.607 226.964C164.464 226.19 164.339 225.405 164.232 224.607C164.214 224.515 164.194 224.422 164.174 224.328L164.173 224.326C164.096 223.968 164.018 223.603 164.018 223.25C163.857 222.125 163.696 220.982 163.554 219.821C163.387 218.548 163.244 217.315 163.125 216.125C163.018 215.625 162.964 215.125 162.964 214.625C162.964 214.625 163.089 214.286 162.964 214.018C162.896 213.872 162.892 213.638 162.887 213.419C162.884 213.235 162.88 213.062 162.839 212.964C162.784 212.833 162.783 212.809 162.778 212.682C162.775 212.602 162.771 212.481 162.75 212.268L162.74 212.171L162.732 212.101C162.738 212.123 162.744 212.143 162.75 212.161C162.791 212.274 162.787 212.34 162.783 212.418C162.777 212.512 162.771 212.623 162.839 212.857C162.907 213.091 162.912 213.266 162.916 213.441C162.92 213.587 162.924 213.732 162.964 213.911C163.054 214.304 163.054 214.518 163.054 214.518C163.068 214.718 163.094 214.918 163.119 215.118C163.158 215.418 163.196 215.718 163.196 216.018C163.312 217.177 163.459 218.368 163.594 219.46L163.625 219.714C163.768 220.875 163.929 222.018 164.089 223.143C164.114 223.298 164.137 223.456 164.16 223.614C164.202 223.91 164.245 224.209 164.304 224.5C164.411 225.298 164.536 226.083 164.679 226.857C164.857 227.964 165.054 229.054 165.25 230.125L165.357 230.679C165.437 231.098 165.527 231.5 165.616 231.902C165.705 232.304 165.795 232.705 165.875 233.125C165.967 233.603 166.087 234.133 166.197 234.617C166.28 234.981 166.357 235.321 166.411 235.589C166.536 236.214 166.679 236.804 166.821 237.375L166.933 237.814C167.097 238.458 167.245 239.038 167.464 239.857C167.732 240.857 168.018 241.839 168.304 242.786ZM162.634 211.15C162.641 211.261 162.649 211.369 162.657 211.471C162.623 211.182 162.595 210.883 162.59 210.571C162.607 210.764 162.621 210.961 162.634 211.15Z" fill="#FFD6CB"/>
<path d="M28.5707 496.428C28.9183 495.049 29.1003 494.313 29.4544 492.974C29.7006 492.043 29.9441 491.122 30.1785 490.214C31.1785 486.643 32.1963 483.071 33.2321 479.804C33.356 479.409 33.48 479.016 33.6034 478.626C33.8711 477.778 34.1361 476.938 34.3928 476.107C34.6785 475.214 34.9642 474.321 35.2499 473.5C36.0356 471.143 36.8213 468.857 37.6071 466.661C39.3809 461.732 41.1666 457.196 42.9642 453.054C43.4106 452 43.8571 450.964 44.3035 449.964L44.5713 449.375C45.5356 447.161 46.5178 445.089 47.4999 443.125C50.2914 437.275 53.6023 431.687 57.3928 426.429C57.4429 426.353 57.4969 426.282 57.5493 426.213L57.5494 426.213C57.609 426.134 57.6667 426.058 57.7142 425.982C58.6963 424.696 59.6428 423.536 60.5535 422.536L60.6606 422.411C61.3019 421.689 61.9832 420.988 62.6596 420.291C62.8873 420.057 63.1144 419.823 63.3392 419.589C69.0978 413.797 75.4344 408.609 82.2499 404.107L84.3213 402.732C85.369 402.042 86.4404 401.363 87.5356 400.696C90.1785 399.054 92.8928 397.464 95.6964 395.911C100.321 393.339 105.107 390.911 109.982 388.607C115.875 385.821 121.875 383.25 127.839 380.821L131.893 379.214C133.053 378.75 134.232 378.304 135.464 377.875C140.678 375.893 145.857 374.071 150.911 372.375C160.696 369.089 169.964 366.339 178.143 364.071C186.607 361.732 193.857 359.911 199.196 358.625C199.17 358.874 199.17 359.126 199.196 359.375C200.107 365.143 211.696 370.089 228.018 372.375C234.899 373.33 241.838 373.814 248.786 373.821H250.036C256.983 373.814 263.922 373.33 270.804 372.375C287.25 370.054 298.839 365.089 299.643 359.286C299.66 359.066 299.66 358.845 299.643 358.625C305 359.929 312.321 361.75 320.839 364.107C328.982 366.357 338.196 369.107 347.928 372.375C354.107 374.446 360.428 376.714 366.875 379.214C370.149 380.476 373.417 381.804 376.678 383.196L380.411 384.786L383.411 386.107C390.143 389.143 396.768 392.393 403.053 395.911C406.982 398.089 410.803 400.357 414.446 402.732L415.464 403.411C417.25 404.554 419.036 405.732 420.607 406.982C425.886 410.723 430.838 414.905 435.411 419.482C436.375 420.446 437.303 421.429 438.196 422.429C439.286 423.635 440.312 424.899 441.268 426.214V426.321C442.089 427.429 442.946 428.643 443.786 429.893C446.514 434.095 448.983 438.46 451.178 442.964C452.232 445.107 453.286 447.375 454.375 449.804C455.053 451.339 455.732 452.929 456.411 454.571C456.875 455.677 457.326 456.811 457.787 457.974L457.946 458.375C458.958 460.946 459.976 463.655 461 466.5C461.786 468.696 462.571 470.982 463.357 473.339C464.262 476.113 465.173 478.994 466.089 481.982C466.219 482.421 466.351 482.862 466.484 483.306L466.488 483.32L466.489 483.323C466.738 484.154 466.989 484.993 467.232 485.839L467.341 486.218C467.689 487.426 468.073 488.762 468.429 490.054C469.054 492.268 469.089 494.089 469.642 496.428H28.5707Z" fill="#FFB3C4"/>
<g style="mix-blend-mode:soft-light" opacity="0.8">
<path d="M320.929 364.089C316.518 370.839 309.143 376.197 299.679 380.161C291.583 383.427 283.114 385.677 274.464 386.857C257.921 389.19 241.133 389.19 224.589 386.857C215.891 385.664 207.373 383.396 199.232 380.107C189.822 376.143 182.5 370.786 178.107 364.036C186.572 361.696 193.822 359.875 199.161 358.589C199.135 358.839 199.135 359.09 199.161 359.339C200.072 365.107 211.661 370.054 227.982 372.339C234.864 373.295 241.803 373.778 248.75 373.786H250C256.948 373.778 263.886 373.295 270.768 372.339C287.214 370.018 298.804 365.054 299.607 359.25C299.625 359.03 299.625 358.809 299.607 358.589C305.107 359.911 312.411 361.732 320.929 364.089Z" fill="white"/>
</g>
<g style="mix-blend-mode:multiply" opacity="0.15">
<path fill-rule="evenodd" clip-rule="evenodd" d="M296.036 303.786V356.107C251.536 356.804 218.571 333.893 202.839 320.197V303.75C206.379 307.132 210.222 310.181 214.321 312.857C224.197 319.539 235.777 323.257 247.696 323.572H251.268C263.187 323.257 274.768 319.539 284.643 312.857C288.703 310.179 292.516 307.143 296.036 303.786Z" fill="#7C3830"/>
</g>
<path fill-rule="evenodd" clip-rule="evenodd" d="M251.405 92.502L249.607 92.518C229.964 92.1608 193.786 96.9644 172.107 132.572C158.313 154.962 157.857 186.762 158.887 204.188L158.974 205.569C155.23 205.217 151.43 205.875 147.982 207.518C142.75 210.188 138.924 214.984 137.482 220.679C135.315 229.276 136.969 238.391 142.018 245.679L142.367 246.206C147.561 253.862 156.293 258.382 165.572 258.179C166.928 258.145 168.279 258.026 169.616 257.82C169.875 258.516 170.14 259.213 170.411 259.911L171.518 262.697C177.149 276.991 185.317 290.146 195.623 301.528L195.714 301.627L195.715 355.745C189.544 357.258 183.316 358.893 177.018 360.625C167.286 363.322 158.322 366.054 149.607 368.982C143.947 370.947 138.839 372.732 134.054 374.518C133.649 374.661 133.268 374.802 132.89 374.945L129.121 376.404C128.211 376.762 127.298 377.131 126.393 377.5L123.777 378.554C118.55 380.687 113.355 382.972 108.304 385.375C103.161 387.804 98.268 390.286 93.8037 392.786C90.7323 394.5 88.018 396.089 85.5359 397.625L84.686 398.147C83.8439 398.67 83.027 399.192 82.2502 399.714C81.518 400.179 80.7859 400.661 80.1252 401.125C73.1183 405.706 66.5965 410.989 60.6609 416.893C60.1084 417.526 59.5607 418.08 59.0418 418.606C58.6385 419.014 58.2521 419.406 57.893 419.804L57.768 419.964C56.8395 420.964 55.8395 422.179 54.7323 423.643C54.6629 423.719 54.6029 423.803 54.5538 423.893L54.3752 424.125L53.4065 425.488C49.8928 430.513 46.8002 435.821 44.1609 441.357C43.2935 442.952 42.5902 444.473 41.9337 445.961L41.1609 447.732L40.434 449.368C40.1311 450.062 39.8335 450.768 39.5359 451.482L38.9407 452.892C37.3534 456.697 35.7661 460.857 34.1788 465.286C33.393 467.5 32.5895 469.821 31.8038 472.197L31.5048 473.081L30.9109 474.875L29.3308 479.975C28.7464 481.87 28.1571 483.86 27.5661 485.923L26.6788 489.071C26.397 490.181 26.1022 491.308 25.8051 492.444L25.8033 492.45C25.4984 493.615 25.1912 494.79 24.893 495.964L24.4109 497.75C24.2591 498.339 24.2617 499.386 24.1076 500H475L473.607 495.268C473.607 495.268 472.5 491.089 471.929 489.089C471.643 488.036 471.339 486.964 471.036 485.929L470.732 484.839L469.572 480.929C469.114 479.523 468.684 478.141 468.261 476.782L468.259 476.777L468.259 476.775C467.774 475.218 467.299 473.692 466.804 472.197C466.018 469.821 465.214 467.5 464.429 465.286C463.375 462.411 462.339 459.607 461.322 457.054L461.161 456.607C460.697 455.429 460.232 454.286 459.768 453.197C459.089 451.518 458.393 449.911 457.697 448.339C456.813 446.371 455.999 444.603 455.218 442.96L454.447 441.357C452.18 436.743 449.646 432.265 446.857 427.947C446.494 427.435 446.143 426.92 445.786 426.397L445.785 426.395L445.78 426.388L445.776 426.382L445.775 426.38C445.276 425.649 444.766 424.902 444.197 424.125L444.054 423.946C442.893 422.375 441.786 421.018 440.839 419.982C439.893 418.946 438.911 417.893 437.929 416.911C433.212 412.19 428.105 407.877 422.661 404.018C420.875 402.732 419.107 401.518 417.447 400.446C417.072 400.196 416.697 399.929 416.375 399.732L415.181 398.96C411.971 396.906 408.544 394.879 404.75 392.768C398.697 389.411 392.179 386.161 384.786 382.839L381.732 381.5L380.786 381.089L378 379.893C374.804 378.536 371.572 377.232 368.089 375.875C362.036 373.518 355.786 371.268 348.982 368.982C340.197 366.018 331.018 363.232 321.714 360.661C316.142 359.113 311.158 357.818 307.021 356.777L303.177 355.82L303.18 301.868C313.65 290.402 321.936 277.114 327.625 262.661L328.75 259.839C328.994 259.208 329.236 258.57 329.475 257.934C330.756 258.092 332.047 258.174 333.339 258.179C342.78 258.374 351.652 253.682 356.804 245.768L357.228 245.139C361.94 237.958 363.446 229.123 361.357 220.768C359.903 215.074 356.072 210.281 350.839 207.607C347.544 206.034 343.923 205.364 340.34 205.62C341.456 188.522 341.341 155.535 327.197 132.589C305.857 98.0331 271.243 92.4936 251.405 92.502ZM174.31 368.941L176.707 368.261C181.449 374.391 188.538 379.467 197.822 383.375C206.269 386.798 215.111 389.149 224.143 390.375C232.577 391.587 241.087 392.184 249.607 392.161C258.096 392.211 266.576 391.644 274.982 390.464C283.919 389.235 292.669 386.908 301.036 383.536C310.438 379.612 317.599 374.466 322.363 368.291C330.744 370.648 339.002 373.193 346.947 375.857C353.643 378.107 359.786 380.322 365.732 382.643C369.143 383.964 372.322 385.25 375.464 386.589L379.161 388.161L382.089 389.464C389.286 392.697 395.643 395.857 401.518 399.125C405.607 401.411 409.286 403.607 412.75 405.857L414.713 407.143C416.029 408.014 417.375 408.943 418.732 409.929C423.828 413.559 428.607 417.616 433.018 422.054L433.027 422.063L433.028 422.064L433.031 422.067C433.92 422.973 434.826 423.898 435.697 424.893C436.703 425.999 437.645 427.162 438.518 428.375L438.679 428.572C439.554 429.732 440.304 430.839 441.036 431.964C443.67 436.043 446.056 440.277 448.179 444.643L448.549 445.396C449.169 446.67 449.807 448.032 450.479 449.51L451.304 451.339C451.982 452.857 452.643 454.411 453.322 456.054L453.768 457.136C454.066 457.865 454.363 458.607 454.661 459.357L454.822 459.786C455.804 462.268 456.822 464.964 457.839 467.804L458.426 469.443C459.009 471.102 459.585 472.813 460.161 474.554L460.709 476.209C461.439 478.434 462.161 480.727 462.875 483.089L463.286 484.464L464.322 488C464.411 488.319 464.502 488.639 464.594 488.962C464.796 489.67 465 490.389 465.197 491.125L465.75 493.124L33.0362 492.857L34.0604 489.595C34.9505 486.424 35.8372 483.426 36.6966 480.661L37.8573 476.982C37.9278 476.766 37.9972 476.553 38.066 476.341L38.0745 476.314L38.077 476.307C38.2834 475.671 38.4851 475.05 38.6966 474.429L39.1662 473.034C39.7902 471.187 40.4073 469.389 41.0359 467.661C42.6966 462.804 44.4823 458.304 46.268 454.232C46.6966 453.214 47.143 452.197 47.5716 451.232L48.3808 449.399C49.0916 447.809 49.8573 446.2 50.7145 444.5C53.4041 438.864 56.6019 433.484 60.268 428.429L60.6252 427.929L60.9122 427.567C61.7565 426.502 62.4952 425.571 63.0895 424.929L63.3573 424.643C64.1073 423.75 65.0002 422.857 65.893 421.964C71.495 416.4 77.6454 411.416 84.2502 407.089L86.2859 405.75C87.3037 405.089 88.3216 404.429 89.4109 403.768L90.3252 403.204C92.4834 401.882 94.8194 400.525 97.4287 399.072C101.75 396.714 106.482 394.304 111.5 391.929C117.268 389.197 123.214 386.607 129.214 384.232L130.403 383.75L134.381 382.179C135.139 381.883 135.905 381.589 136.679 381.304L138.107 380.768C141.462 379.517 144.969 378.262 148.722 376.972L152 375.857C159.158 373.447 166.502 371.172 174.31 368.941ZM184.393 366.157C188.516 365.055 192.642 363.992 196.732 362.982C201.168 370.959 217.454 374.461 226.094 375.788L227.536 376C234.583 376.981 241.689 377.476 248.804 377.482H250.072C257.181 377.477 264.281 376.981 271.322 376C279.216 374.897 296.294 371.631 301.647 363.858C301.843 363.578 302.024 363.293 302.189 363.002L302.186 363.002L302.25 362.893C302.23 362.93 302.21 362.966 302.189 363.002C304.675 363.572 307.543 364.297 310.758 365.145L314.781 366.219C310.113 370.867 304.525 374.491 298.375 376.857L296.904 377.436C289.53 380.27 281.85 382.239 274.018 383.304C257.824 385.589 241.39 385.589 225.197 383.304C216.793 382.154 208.564 379.971 200.697 376.804C194.553 374.41 188.975 370.761 184.322 366.089L184.393 366.157ZM202.804 308.572V358.947C203.589 361.697 211.875 366.429 228.554 368.768C235.275 369.706 242.053 370.177 248.839 370.179H250.072C256.852 370.176 263.624 369.705 270.339 368.768C277.467 367.762 283.059 366.326 287.189 364.797L287.549 364.661C293.011 362.567 295.752 360.324 295.964 358.786C295.966 358.443 296.014 358.107 296.105 357.784L296.108 308.727C293.577 310.92 290.923 312.971 288.159 314.868L286.768 315.804C277.842 321.844 267.593 325.583 256.933 326.73C255.026 326.945 253.107 327.077 251.179 327.125H247.697L247.583 327.12L247.554 327.125C245.591 327.072 243.637 326.932 241.697 326.706L239.892 326.47L238.853 326.312L237.354 326.054L236.156 325.822C228.056 324.177 220.306 321.02 213.323 316.484L212.375 315.857C209.015 313.66 205.817 311.225 202.804 308.572ZM247.787 99.6839L249.464 99.6965C267.482 99.4108 300.768 103.75 320.893 136.375C335.178 159.533 333.806 195.554 332.772 208.258L332.643 209.75V209.982L335.894 210.258L332.697 210.179L332.695 210.199L332.643 210.197C332.56 211 332.48 211.699 332.412 212.273L332.179 214.072C332.17 214.173 332.17 214.274 332.179 214.375L332.072 215.732C331.786 218.304 331.518 220.518 331.161 222.875C330.804 225.232 330.411 227.518 330 229.679L329.793 230.775C329.649 231.508 329.494 232.238 329.339 232.929L328.883 234.995L328.643 236.018V236.179C328.527 236.679 328.406 237.152 328.286 237.612L327.929 238.964L327.929 239.159C327.689 240.117 327.433 240.953 327.161 241.822L326.784 243.038L326.453 244.077L326.375 244.304C325.572 246.929 324.661 249.661 323.572 252.661V252.839C323.142 254.042 322.69 255.244 322.251 256.409L321.929 257.268L320.266 261.407C314.81 274.796 306.985 287.096 297.161 297.714L297.491 297.352C297.344 297.461 297.203 297.582 297.072 297.714C292.739 302.311 287.885 306.386 282.607 309.857L281.732 310.443C272.643 316.406 262.061 319.714 251.179 319.982H247.697C247.337 319.973 246.979 319.96 246.62 319.944L245.709 319.896L244.376 319.798C234.345 318.949 224.68 315.534 216.322 309.857L215.113 309.046C210.31 305.76 205.871 301.967 201.875 297.732C201.772 297.623 201.663 297.522 201.546 297.433C191.505 286.512 183.57 273.827 178.143 260.018L177.054 257.304C176.869 256.822 176.685 256.331 176.5 255.837L175.393 252.857L175.072 252.679C173.822 249.197 172.625 245.536 171.5 241.822C171.375 241.395 171.233 240.889 171.099 240.407L171.097 240.402L170.967 239.935L170.598 238.661C170.532 238.425 170.466 238.167 170.398 237.893L169.991 236.244C169.968 236.145 169.946 236.047 169.924 235.946C169.907 235.869 169.889 235.79 169.872 235.71C169.812 235.434 169.746 235.137 169.661 234.786L169.484 234.042C169.367 233.54 169.256 233.024 169.161 232.5V232.322C168.982 231.589 168.822 230.839 168.679 230.036L168.572 229.536L167.877 225.542C167.796 225.064 167.72 224.572 167.661 224.072C167.661 224.048 167.675 224.042 167.689 224.036C167.716 224.024 167.744 224.012 167.661 223.857C167.536 223.625 167.536 223.375 167.536 223.143V222.679C167.482 222.316 167.431 221.945 167.38 221.57L166.954 218.447C166.841 217.577 166.737 216.67 166.643 215.732L166.543 214.826L166.518 214.375C166.528 214.262 166.528 214.149 166.518 214.036L166.321 212.39L166.322 211.75C166.31 211.605 166.289 211.447 166.266 211.274C166.218 210.912 166.161 210.483 166.161 209.964L166.15 209.69C166.129 209.418 166.078 209.153 165.998 208.899L165.907 207.817C164.874 194.745 163.647 159.321 177.804 136.375C197.342 104.729 229.281 99.6966 247.787 99.6839ZM340.114 212.879L339.767 212.935L339.563 214.58C339.537 214.767 339.516 214.908 339.5 215L339.393 216.339C339.127 218.824 338.862 221.062 338.56 223.078L338.429 223.929L338.334 224.52L338.333 224.528C337.999 226.619 337.623 228.971 337.232 231.072C337.089 231.857 336.939 232.627 336.78 233.392L336.536 234.536L336.479 234.795C336.255 235.819 336.07 236.666 335.839 237.589V237.768L335.67 238.453C338.062 238.329 340.29 237.109 341.679 235.107C343.397 232.746 343.679 229.631 342.411 227C341.88 226.171 342.119 225.069 342.947 224.536C343.775 224.005 344.877 224.244 345.411 225.072C347.292 228.649 347.173 232.947 345.098 236.415C343.023 239.883 339.291 242.02 335.25 242.054L335.322 242.089C335.12 242.089 334.919 242.081 334.718 242.067L334.461 242.971L334.197 243.857C333.893 244.857 333.643 245.643 333.339 246.5C332.897 247.941 332.408 249.455 331.871 251.043L331.732 251.036C339.14 251.719 346.329 248.374 350.581 242.306L350.911 241.822C354.771 236.266 356.071 229.326 354.482 222.75C353.59 219.044 351.152 215.897 347.786 214.107C345.57 213.04 343.112 212.598 340.676 212.816L340.114 212.879ZM151.036 214.054C152.87 213.175 154.877 212.717 156.911 212.714C157.733 212.727 158.552 212.817 159.357 212.982V213.393C159.413 213.589 159.416 213.756 159.418 213.913C159.42 214.058 159.422 214.194 159.464 214.339C159.518 214.522 159.539 214.678 159.548 214.805L159.554 215.018C159.583 215.508 159.636 215.997 159.714 216.482C159.756 216.911 159.802 217.337 159.849 217.761L160.143 220.25C160.286 221.464 160.447 222.625 160.625 223.822V224.232L160.786 225.197C160.839 225.607 160.902 226.018 160.967 226.415L161.35 228.679C161.465 229.334 161.589 229.991 161.713 230.653L161.768 230.947L161.857 231.464L162.462 234.334L162.929 236.447L163.357 238.232V238.429L163.375 238.5C160.829 238.501 158.422 237.251 156.964 235.125C155.259 232.765 154.985 229.659 156.25 227.036C156.781 226.207 156.542 225.105 155.714 224.572C154.886 224.04 153.784 224.28 153.25 225.107C151.369 228.684 151.488 232.983 153.563 236.451C155.638 239.919 159.37 242.055 163.411 242.089C163.716 242.095 164.021 242.085 164.325 242.061L164.433 242.052L164.589 242.036C164.537 242.042 164.485 242.047 164.433 242.052C164.397 242.055 164.361 242.058 164.325 242.061L164.321 242.061L164.839 243.839C165.572 246.268 166.322 248.643 167.107 250.982C159.503 251.688 152.13 248.145 147.929 241.768L147.55 241.208C143.974 235.755 142.811 229.052 144.357 222.697C145.244 218.992 147.675 215.846 151.036 214.054Z" fill="#372168"/>
<path fill-rule="evenodd" clip-rule="evenodd" d="M302.189 363.002C302.21 362.966 302.23 362.93 302.25 362.893L302.186 363.002L302.189 363.002ZM164.433 242.052L164.589 242.036C164.537 242.042 164.485 242.047 164.433 242.052Z" fill="#372168"/>
<g style="mix-blend-mode:multiply" opacity="0.15">
<path fill-rule="evenodd" clip-rule="evenodd" d="M218.75 249.583C218.75 260.484 210.755 269.32 200.893 269.32C191.031 269.32 183.036 260.484 183.036 249.583C183.036 238.683 191.031 229.846 200.893 229.846C210.755 229.846 218.75 238.683 218.75 249.583ZM315.179 249.583C315.179 260.484 307.184 269.32 297.321 269.32C287.459 269.32 279.464 260.484 279.464 249.583C279.464 238.683 287.459 229.846 297.321 229.846C307.184 229.846 315.179 238.683 315.179 249.583Z" fill="#FF1300"/>
</g>
<path d="M253.768 278.839H244.232C243.246 278.839 242.446 278.04 242.446 277.053C242.446 276.067 243.246 275.268 244.232 275.268H253.768C254.754 275.268 255.554 276.067 255.554 277.053C255.554 278.04 254.754 278.839 253.768 278.839Z" fill="#372168"/>
<path d="M249 270.321C241.696 270.321 234.964 267.803 231.018 263.607C230.252 262.794 229.979 261.634 230.3 260.564C230.622 259.494 231.49 258.677 232.577 258.421C233.664 258.165 234.806 258.508 235.571 259.321C238.321 262.25 243.464 264.071 249 264.071C254.536 264.071 259.714 262.286 262.429 259.321C263.194 258.508 264.335 258.165 265.423 258.421C266.51 258.677 267.378 259.494 267.7 260.564C268.021 261.634 267.748 262.794 266.982 263.607C263 267.803 256.304 270.321 249 270.321Z" fill="#372168"/>
<path d="M249.059 246.94C245.159 246.993 241.492 245.089 239.291 241.869C238.354 240.419 238.77 238.484 240.219 237.547C241.669 236.61 243.604 237.026 244.541 238.476C245.628 239.89 247.316 240.711 249.099 240.693C250.882 240.676 252.553 239.822 253.612 238.387C254.51 236.907 256.437 236.436 257.916 237.333C259.395 238.231 259.867 240.157 258.969 241.637C256.809 245.003 253.058 247.01 249.059 246.94V246.94Z" fill="#372168"/>
<path d="M286.261 225.446C294.171 225.446 294.189 213.125 286.261 213.125C278.332 213.125 278.314 225.446 286.261 225.446Z" fill="#372168"/>
<path d="M213.1 225.446C221.028 225.446 221.046 213.125 213.1 213.125C205.153 213.125 205.153 225.446 213.1 225.446Z" fill="#372168"/>
<path d="M229.286 204.107C228.715 204.11 228.151 203.975 227.643 203.714C213.589 196.482 199.071 203.714 199.071 203.714C197.316 204.617 195.161 203.925 194.259 202.17C193.357 200.414 194.048 198.26 195.804 197.357C196.518 197 213.661 188.429 230.982 197.357C232.45 198.109 233.212 199.768 232.826 201.372C232.44 202.975 231.006 204.106 229.357 204.107H229.286Z" fill="#372168"/>
<path d="M301.768 204.107C301.203 204.107 300.646 203.972 300.143 203.714C286.072 196.482 271.572 203.714 271.572 203.714C270.431 204.341 269.04 204.297 267.941 203.601C266.842 202.904 266.208 201.665 266.288 200.367C266.367 199.068 267.146 197.915 268.322 197.357C269.036 196.982 286.179 188.429 303.5 197.357C304.988 198.117 305.749 199.807 305.334 201.425C304.919 203.043 303.438 204.157 301.768 204.107Z" fill="#372168"/>
<path d="M94.8804 323.429C94.3625 328.054 93.6661 332.518 92.8268 336.875L92.8625 336.911C89.4682 354.481 83.7384 369.997 78.3771 384.516C75.4179 392.529 72.571 400.239 70.2911 407.822C70.0513 408.619 69.8039 409.439 69.5496 410.282C55.8306 455.768 22.4841 566.327 123.488 597.482C123.488 597.482 117.291 589.536 111.934 552.197C111.934 552.197 126.559 601.732 195.863 580.607C195.863 580.607 175.327 567.875 173.666 538.125C173.666 538.125 186.738 577.054 229.309 570.179C229.309 570.179 173.523 504.964 198.005 438.161C210.613 403.804 213.041 374.018 211.595 351C210.222 330.054 201.155 311.463 191.911 292.508C190.816 290.262 189.718 288.011 188.63 285.75C178.363 264.411 172.863 250.964 172.863 221.804C172.863 171.964 201.988 134.018 239.255 130.179C252.9 128.794 266.613 128.198 280.327 128.393C283.863 128.446 338.327 149.875 337.148 209.929C341.44 208.478 346.127 208.753 350.22 210.697C353.148 212.149 355.55 214.477 357.095 217.357C407.202 72.6786 288.773 76.1072 288.773 76.1072C243.041 31.1965 139.863 56.1072 111.291 139.464C103.38 162.554 99.3625 195.732 99.3625 221.768V249.429C99.3625 249.429 97.6482 298.429 94.8804 323.429Z" fill="#FF8EC1"/>
<path d="M300.505 300.054V348.357C371.491 344.334 361.27 296.94 360.857 295.024C360.848 294.984 360.845 294.964 360.845 294.964C360.115 289.648 359.061 284.228 358.011 278.824C355.617 266.513 353.241 254.293 354.755 243.607C347.97 253.964 336.505 255.786 327.791 253.768C327.458 254.63 327.13 255.497 326.805 256.359C326.537 257.067 326.271 257.771 326.005 258.464L324.898 261.232C319.279 275.59 311.003 288.761 300.505 300.054Z" fill="#FF8EC1"/>
<path fill-rule="evenodd" clip-rule="evenodd" d="M291.297 72.5294L290.166 72.5179C269.041 52.625 236.041 45.625 201.488 53.7857L200.178 54.0952C157.063 64.5233 122.221 96.2674 107.863 138.304C100.505 159.804 95.7554 192.571 95.7554 221.768V249.304C95.738 249.806 94.1246 295.673 91.5342 320.769L91.2911 323.036C90.8089 327.357 90.1482 331.786 89.2911 336.196L88.8997 338.179C85.9733 352.571 81.4741 365.49 76.9441 377.904L74.1101 385.631C71.4395 392.897 68.9179 399.825 66.8446 406.768L66.0946 409.214C59.0589 432.554 47.2911 471.607 49.8982 509.482C53.1482 556.214 77.5232 587.018 122.398 600.857C122.727 600.963 123.071 601.018 123.416 601.018C124.518 600.964 125.533 600.404 126.166 599.5C127.075 598.249 127.075 596.555 126.166 595.304L125.986 595.02C125.246 593.766 122.321 588.092 119.021 572.842L118.523 570.482C122.713 575.243 127.72 579.216 133.309 582.214C149.88 591.143 171.202 591.75 196.666 584C198.007 583.594 198.986 582.441 199.171 581.053C199.355 579.664 198.711 578.296 197.523 577.554C190.58 572.611 185.131 565.852 181.773 558.018C190.916 568 206.095 577.464 229.648 573.679C230.926 573.472 231.991 572.591 232.434 571.375C232.885 570.156 232.639 568.788 231.791 567.804C231.255 567.179 177.63 503.446 201.13 439.339C212.095 409.429 216.72 379.625 214.934 350.732C213.721 331.456 206.049 313.947 197.906 297.086L191.613 284.143C181.773 263.696 176.202 250.714 176.202 221.75C176.202 175.25 203.363 137.393 239.398 133.679C252.858 132.301 266.387 131.705 279.916 131.893C282.041 132.5 334.63 151.357 333.488 209.786C333.469 210.933 334.003 212.019 334.923 212.706C335.842 213.392 337.036 213.594 338.13 213.25C341.565 212.088 345.317 212.306 348.595 213.857C350.876 214.983 352.749 216.794 353.952 219.036C354.646 220.251 355.986 220.95 357.38 220.821C358.776 220.697 359.97 219.769 360.434 218.446C377.862 168.232 377.166 129.75 358.398 104.161C337.467 75.7722 301.444 72.7276 291.297 72.5294ZM204.784 60.4477C212.887 58.6377 221.164 57.7089 229.47 57.6786C252.023 57.6786 272.255 64.8214 286.363 78.5179C286.51 78.6645 286.669 78.7969 286.838 78.9122C286.664 81.8529 286.316 86.8087 285.667 92.7334L285.384 95.2085C285.374 95.2696 285.366 95.3311 285.365 95.3922C284.278 104.526 282.502 115.438 279.641 124.757C266.043 124.586 252.447 125.186 238.916 126.554C236.536 126.798 234.182 127.173 231.862 127.676C215.272 130.102 195.375 136.06 179.88 149.964C163.452 164.732 155.113 185.857 155.113 212.643C155.113 213.629 155.912 214.429 156.898 214.429C157.878 214.429 158.674 213.64 158.684 212.661C158.684 186.911 166.613 166.714 182.255 152.643C190.554 145.182 200.312 140.114 210.139 136.691C202.324 141.68 195.251 148.364 189.238 156.554C176.452 173.964 169.309 197.125 169.309 221.732C169.309 252.179 175.38 266.464 185.38 287.232L188.755 294.196C198.005 313.125 206.738 331 208.005 351.161C209.755 379.071 205.327 407.911 194.613 436.875L194.231 437.935C184.35 465.9 186.742 497.914 201.184 530.607C205.27 539.836 210.069 548.725 215.536 557.2C196.036 539.606 165.193 502.325 175.952 449.036C177.107 443.371 178.211 438.044 179.255 433.057L183.795 411.537C191.776 373.386 193.514 358.443 180.47 336.018C179.956 335.21 178.898 334.951 178.069 335.43C177.241 335.909 176.937 336.956 177.38 337.804C189.8 359.128 188.058 373.696 180.247 411.001L176.096 430.66C174.948 436.128 173.724 442.016 172.452 448.321C159.739 511.31 203.255 552.584 221.058 566.489L222.115 567.306C191.051 568.844 179.371 543 177.34 537.788L176.926 536.663C176.288 535.107 174.635 534.194 172.957 534.512C171.186 534.848 169.943 536.451 170.059 538.25C170.593 553.168 176.705 567.322 187.156 577.93C162.988 573.933 145.98 556.263 136.684 525.304C129.674 501.304 130.298 475.719 138.47 452.089C147.476 424.421 150.793 395.216 148.22 366.232C146.465 347.698 143.711 329.273 139.97 311.036C135.184 285.786 130.666 261.929 131.327 229.196C131.327 228.21 130.527 227.411 129.541 227.411C128.555 227.411 127.755 228.21 127.755 229.196C127.154 258.556 130.666 280.781 134.832 303.183L136.452 311.786C140.183 329.891 142.925 348.186 144.666 366.589C147.195 395.097 143.933 423.821 135.077 451.036C126.693 475.352 126.069 501.671 133.291 526.357C142.255 556.208 158.845 574.634 181.701 580.421C163.986 583.868 148.996 582.359 137.023 575.982C127.005 570.626 119.299 561.782 115.363 551.125C114.843 549.316 113.008 548.22 111.169 548.621C109.33 549.022 108.118 550.782 108.398 552.643C110.939 570.213 113.671 581.467 115.903 588.545L116.316 589.823C111.959 585.898 106.463 579.908 101.488 571.411C84.647 542.703 86.2938 507.379 90.8441 482.204L91.1661 480.464C91.3485 479.478 90.6969 478.531 89.7107 478.348C88.7245 478.166 87.7771 478.817 87.5946 479.804C76.2753 539.372 94.9458 572.134 109.078 587.596L109.937 588.521C33.5125 554.036 57.7455 462.225 71.3345 416.693L72.9696 411.25L73.6839 408.982C75.4839 402.925 77.6382 396.845 79.9456 390.541L84.1512 379.111C88.8402 366.265 93.4088 352.855 96.3446 337.643L96.7097 335.669C97.4194 331.721 98.0054 327.783 98.4339 323.911C101.067 299.903 102.826 253.062 102.929 249.703L102.934 221.857C102.934 193.375 107.523 161.518 114.666 140.696C128.386 100.57 161.848 70.3689 203.166 60.8214L204.784 60.4477ZM356.096 240.27C357.654 240.855 358.602 242.439 358.38 244.089C356.955 254.158 359.21 265.756 361.598 278.031L361.613 278.107L362.634 283.493C363.309 287.097 363.952 290.72 364.452 294.304C366.818 306.276 364.137 318.695 357.041 328.625C346.755 342.554 327.845 350.393 300.827 351.929H300.505C299.597 351.93 298.722 351.585 298.059 350.964C297.34 350.288 296.933 349.344 296.934 348.357V300.054C296.933 299.137 297.284 298.254 297.916 297.589C307.749 286.974 315.581 274.674 321.039 261.282L321.595 259.893C321.873 259.217 322.131 258.562 322.399 257.882L322.405 257.868C322.496 257.636 322.589 257.401 322.684 257.161L323.55 254.92C323.845 254.161 324.148 253.393 324.47 252.625C324.688 251.971 325.091 251.394 325.63 250.964C326.478 250.285 327.589 250.029 328.648 250.268C336.005 252.054 345.952 250.607 351.863 241.643C352.781 240.255 354.537 239.685 356.096 240.27ZM329.416 259.768C329.666 259.125 329.916 258.464 330.148 257.804C332.222 258.105 334.306 258.178 336.363 258.028C336.129 264.449 337.282 271.404 338.598 278.263L339.515 282.983C340.153 286.304 340.773 289.682 341.22 292.911L341.222 292.93C341.296 293.711 343.393 315.831 330.88 331.375C326.577 336.724 321.018 340.717 314.274 343.323C311.047 343.851 307.647 344.256 304.077 344.536V301.482C314.412 290.072 322.613 276.899 328.291 262.589L329.416 259.768ZM350.791 252.946C347.5 255.229 343.803 256.782 339.943 257.549C339.541 264.49 341.044 272.221 342.63 280.339L343.4 284.372C343.78 286.401 344.145 288.442 344.459 290.465L344.766 292.578C344.977 294.494 346.998 317.042 333.684 333.554C331.606 336.139 329.267 338.433 326.673 340.432C337.647 336.977 345.843 331.595 351.166 324.393C357.029 316.107 359.26 305.789 357.345 295.821C357.336 295.697 357.336 295.571 357.345 295.446C356.642 290.318 355.594 284.914 354.592 279.743L354.541 279.482C352.594 270.75 351.34 261.877 350.791 252.946ZM135.481 177.867C135.2 177.485 134.778 177.231 134.309 177.161C133.84 177.089 133.362 177.207 132.98 177.488C132.598 177.77 132.344 178.192 132.273 178.661C130.666 189.607 129.452 200.214 128.702 210.214C128.63 211.195 129.364 212.049 130.345 212.125H130.47C131.396 212.119 132.163 211.405 132.238 210.482C132.952 200.625 134.166 190.054 135.809 179.196C135.881 178.727 135.763 178.249 135.481 177.867ZM290.395 79.561L290.265 81.6707C290.06 84.7586 289.722 88.9059 289.193 93.6321L290.028 93.6279C295.883 93.6591 309.101 94.9912 321.934 105.696C322.514 106.177 322.73 106.97 322.474 107.679C322.218 108.387 321.544 108.859 320.791 108.857V108.893C320.374 108.894 319.97 108.748 319.648 108.482C311.065 101.071 300.068 97.0879 288.761 97.2617C287.65 106.077 285.891 116.326 283.145 125.339C289.494 127.327 304.096 134.549 316.738 147.625C331.845 163.141 340.451 183.846 340.791 205.5C341.939 205.377 343.091 205.352 344.234 205.423L344.255 205.339C359.398 157.643 329.505 118.339 329.202 117.946C328.595 117.167 328.735 116.044 329.514 115.438C330.233 114.878 331.246 114.954 331.874 115.582L332.023 115.75C332.344 116.159 363.187 156.569 347.811 205.966C349.195 206.303 350.548 206.786 351.845 207.411C353.291 208.108 354.636 208.997 355.845 210.054C370.363 165.107 369.327 130.911 352.755 108.268C333.323 81.7886 297.918 79.7062 290.395 79.561ZM265.843 83.4532C265.71 82.8132 265.238 82.2969 264.613 82.1072C214.023 64.875 167.202 100.536 166.738 100.911L166.569 101.059C165.942 101.683 165.863 102.691 166.416 103.411C166.753 103.849 167.274 104.106 167.827 104.107C168.227 104.11 168.617 103.978 168.934 103.732C169.38 103.339 214.702 68.8929 263.452 85.4822C264.062 85.7173 264.751 85.6004 265.25 85.1775C265.748 84.7546 265.975 84.0932 265.843 83.4532Z" fill="#372168"/>
<g opacity="0.3">
<path fill-rule="evenodd" clip-rule="evenodd" d="M308.855 218.75C308.834 228.035 303.367 236.444 294.889 240.232C286.412 244.02 276.501 242.482 269.57 236.304C269.038 235.831 268.531 235.33 268.052 234.804C267.148 233.841 266.33 232.801 265.605 231.696C264.815 230.492 264.134 229.219 263.57 227.893C259.929 219.2 261.807 209.175 268.348 202.389C274.889 195.604 284.838 193.359 293.659 196.679C295.118 197.228 296.517 197.922 297.838 198.75C298.845 199.381 299.8 200.092 300.695 200.875C301.25 201.341 301.781 201.835 302.284 202.357C306.519 206.761 308.876 212.64 308.855 218.75Z" fill="#8AC4FF"/>
<path fill-rule="evenodd" clip-rule="evenodd" d="M234.677 218.75C234.655 228.035 229.188 236.444 220.711 240.232C212.233 244.02 202.322 242.482 195.391 236.304C194.859 235.831 194.352 235.33 193.873 234.804C192.97 233.841 192.151 232.801 191.427 231.696C190.637 230.492 189.955 229.219 189.391 227.893C185.75 219.2 187.629 209.175 194.169 202.389C200.71 195.604 210.66 193.359 219.48 196.679C220.939 197.228 222.339 197.922 223.659 198.75C224.666 199.381 225.622 200.092 226.516 200.875C227.072 201.341 227.602 201.835 228.105 202.357C232.341 206.761 234.697 212.64 234.677 218.75Z" fill="#8AC4FF"/>
</g>
<g style="mix-blend-mode:soft-light" opacity="0.8">
<path d="M297.784 198.75L265.641 231.696C264.851 230.492 264.17 229.219 263.605 227.893L293.695 196.679C295.123 197.233 296.492 197.927 297.784 198.75V198.75Z" fill="white"/>
</g>
<g style="mix-blend-mode:soft-light" opacity="0.8">
<path d="M302.23 202.357L299.355 205.339L269.516 236.304C268.984 235.831 268.477 235.33 267.998 234.804L300.641 200.875C301.197 201.341 301.727 201.836 302.23 202.357V202.357Z" fill="white"/>
</g>
<g style="mix-blend-mode:soft-light" opacity="0.8">
<path d="M223.606 198.75L191.373 231.696C190.583 230.492 189.902 229.219 189.338 227.893L219.427 196.679C220.885 197.228 222.285 197.922 223.606 198.75V198.75Z" fill="white"/>
</g>
<g style="mix-blend-mode:soft-light" opacity="0.8">
<path d="M228.052 202.357L225.177 205.339L195.338 236.304C194.805 235.831 194.299 235.33 193.82 234.804L226.463 200.875C227.018 201.341 227.549 201.836 228.052 202.357V202.357Z" fill="white"/>
</g>
<path fill-rule="evenodd" clip-rule="evenodd" d="M260.171 229.122C264.374 239.274 274.279 245.893 285.266 245.893C300.252 245.873 312.397 233.735 312.427 218.75C312.434 207.763 305.821 197.854 295.673 193.644C285.524 189.435 273.839 191.754 266.067 199.52C258.295 207.287 255.968 218.971 260.171 229.122ZM265.248 218.75C265.248 207.694 274.211 198.732 285.266 198.732C296.318 198.742 305.274 207.698 305.284 218.75C305.284 229.806 296.322 238.768 285.266 238.768C274.211 238.768 265.248 229.806 265.248 218.75Z" fill="#372168"/>
<path fill-rule="evenodd" clip-rule="evenodd" d="M185.993 229.122C190.196 239.274 200.1 245.893 211.088 245.893C226.073 245.873 238.219 233.735 238.248 218.75C238.256 207.763 231.643 197.854 221.494 193.644C211.345 189.435 199.66 191.754 191.888 199.52C184.117 207.287 181.79 218.971 185.993 229.122ZM191.07 218.75C191.07 207.694 200.032 198.732 211.088 198.732C222.139 198.742 231.096 207.698 231.105 218.75C231.105 229.806 222.143 238.768 211.088 238.768C200.032 238.768 191.07 229.806 191.07 218.75Z" fill="#372168"/>
<path d="M261.695 222.321C260.858 222.318 260.049 222.021 259.409 221.482C248.23 212.179 237.463 221.071 237.016 221.482C235.52 222.522 233.48 222.269 232.283 220.894C231.087 219.519 231.118 217.463 232.355 216.125C241.45 208.295 254.904 208.295 263.998 216.125C265.161 217.088 265.592 218.679 265.075 220.098C264.558 221.517 263.205 222.457 261.695 222.446V222.321Z" fill="#372168"/>
<path d="M187.498 222.321C187.237 222.347 186.974 222.347 186.713 222.321C175.552 219.768 160.409 214.964 159.766 214.768C157.882 214.171 156.839 212.16 157.436 210.277C158.032 208.393 160.043 207.35 161.927 207.946C162.088 207.946 177.445 212.875 188.302 215.357C190.076 215.761 191.263 217.435 191.057 219.243C190.851 221.052 189.318 222.416 187.498 222.411V222.321Z" fill="#372168"/>
<path d="M308.855 222.322C307.057 222.345 305.521 221.027 305.272 219.245C305.023 217.464 306.137 215.775 307.873 215.304L337.034 206.929C338.262 206.578 339.584 206.909 340.502 207.797C341.42 208.685 341.794 209.995 341.484 211.234C341.174 212.473 340.226 213.453 338.998 213.804L309.909 222.143C309.568 222.253 309.213 222.313 308.855 222.322V222.322Z" fill="#372168"/>
</g>
<path fill-rule="evenodd" clip-rule="evenodd" d="M0 250C0 111.929 111.929 0 250 0C388.071 0 500 111.929 500 250C500 388.071 388.071 500 250 500C111.929 500 0 388.071 0 250ZM492.857 250C492.857 115.874 384.126 7.14286 250 7.14286C115.874 7.14286 7.14286 115.874 7.14286 250C7.14286 384.126 115.874 492.857 250 492.857C384.126 492.857 492.857 384.126 492.857 250Z" fill="#372168"/>
</svg>
