<svg width="500" height="500" viewBox="0 0 500 500" fill="none" xmlns="http://www.w3.org/2000/svg">
<path fill-rule="evenodd" clip-rule="evenodd" d="M250 496.429C386.099 496.429 496.429 386.099 496.429 250C496.429 113.901 386.099 3.57153 250 3.57153C113.901 3.57153 3.57141 113.901 3.57141 250C3.57141 386.099 113.901 496.429 250 496.429Z" fill="#E7EEFF"/>
<mask id="mask0_0_282" style="mask-type:alpha" maskUnits="userSpaceOnUse" x="3" y="3" width="494" height="494">
<path fill-rule="evenodd" clip-rule="evenodd" d="M250 496.429C386.099 496.429 496.429 386.099 496.429 250C496.429 113.901 386.099 3.57153 250 3.57153C113.901 3.57153 3.57141 113.901 3.57141 250C3.57141 386.099 113.901 496.429 250 496.429Z" fill="white"/>
</mask>
<g mask="url(#mask0_0_282)">
<path fill-rule="evenodd" clip-rule="evenodd" d="M336.359 210.077L336.357 210.036C337.536 196.964 339.357 159.232 324.071 134.357C305.536 104.339 275.161 95.5538 249.464 95.9823C223.732 95.5538 193.357 104.339 174.821 134.357C159.554 159.125 161.375 196.911 162.571 209.929V210.03C158.281 208.601 153.604 208.884 149.518 210.822C140.161 215.268 136.089 230.125 145.018 243.714C151.783 254.04 163.198 255.882 171.903 253.893C172.226 254.732 172.545 255.575 172.861 256.412C173.129 257.121 173.395 257.825 173.661 258.518L174.768 261.286C180.393 275.65 188.675 288.827 199.179 300.125C203.705 304.911 208.768 309.16 214.268 312.786C224.14 319.474 235.722 323.192 247.643 323.5H251.214C263.136 323.197 274.719 319.479 284.589 312.786C288.752 310.04 292.665 306.938 296.286 303.517C292.663 306.964 288.743 310.089 284.571 312.857C274.702 319.55 263.118 323.269 251.196 323.572H247.625C235.705 323.264 224.122 319.546 214.25 312.857C208.75 309.231 203.687 304.983 199.161 300.197V359.357C200.071 365.125 211.625 370.054 227.982 372.357C234.864 373.313 241.803 373.796 248.75 373.804H250C256.948 373.796 263.886 373.313 270.768 372.357C287.214 369.982 298.804 365.072 299.607 359.268V300.202L299.696 300.107C310.194 288.814 318.47 275.644 324.089 261.286L325.196 258.518C325.814 257.001 326.396 255.431 326.961 253.879C335.674 255.891 347.129 254.066 353.911 243.714C362.768 230.125 358.768 215.268 349.375 210.875C345.301 208.942 340.638 208.656 336.359 210.077ZM168.304 242.786C168.661 244.021 169.028 245.245 169.406 246.458C169.011 245.278 168.62 244.09 168.232 242.893C167.946 241.947 167.607 240.768 167.393 239.964L167.392 239.962L167.392 239.96C167.178 239.157 166.893 238.088 166.75 237.482C166.693 237.24 166.648 237.035 166.601 236.826L166.6 236.823C166.53 236.507 166.457 236.179 166.339 235.697C166.241 235.295 166.156 234.88 166.071 234.464C165.987 234.049 165.902 233.634 165.804 233.232C165.607 232.429 165.446 231.625 165.286 230.786L165.179 230.232C164.982 229.161 164.786 228.072 164.607 226.964C164.464 226.191 164.339 225.405 164.232 224.607C164.214 224.515 164.194 224.422 164.174 224.329L164.173 224.326C164.096 223.968 164.018 223.604 164.018 223.25C163.857 222.125 163.696 220.982 163.554 219.822C163.387 218.548 163.244 217.316 163.125 216.125C163.018 215.625 162.964 215.125 162.964 214.625C162.964 214.625 163.089 214.286 162.964 214.018C162.896 213.873 162.892 213.638 162.887 213.419C162.884 213.235 162.88 213.062 162.839 212.964C162.784 212.833 162.784 212.809 162.779 212.682C162.775 212.602 162.771 212.482 162.75 212.268L162.74 212.172L162.733 212.101C162.738 212.124 162.744 212.144 162.75 212.161C162.791 212.274 162.787 212.34 162.783 212.418C162.777 212.512 162.771 212.623 162.839 212.857C162.907 213.091 162.912 213.266 162.916 213.441C162.92 213.587 162.924 213.732 162.964 213.911C163.054 214.304 163.054 214.518 163.054 214.518C163.068 214.718 163.094 214.918 163.119 215.118C163.158 215.418 163.196 215.718 163.196 216.018C163.312 217.178 163.459 218.368 163.594 219.46L163.625 219.714C163.768 220.875 163.929 222.018 164.089 223.143C164.114 223.298 164.137 223.456 164.16 223.614C164.202 223.91 164.245 224.209 164.304 224.5C164.411 225.298 164.536 226.084 164.679 226.857C164.857 227.964 165.054 229.054 165.25 230.125L165.357 230.679C165.438 231.098 165.527 231.5 165.616 231.902C165.705 232.304 165.795 232.706 165.875 233.125C165.967 233.603 166.087 234.134 166.197 234.617C166.28 234.982 166.357 235.321 166.411 235.589C166.536 236.214 166.679 236.804 166.821 237.375L166.933 237.814C167.097 238.459 167.245 239.038 167.464 239.857C167.732 240.857 168.018 241.839 168.304 242.786ZM162.634 211.151C162.641 211.261 162.649 211.369 162.657 211.471C162.623 211.182 162.595 210.883 162.59 210.572C162.607 210.764 162.621 210.962 162.634 211.151Z" fill="#FFD6CB"/>
<path d="M28.5707 496.429C28.9183 495.049 29.1003 494.313 29.4544 492.974C29.7006 492.043 29.9441 491.123 30.1785 490.214C31.1785 486.643 32.1963 483.072 33.2321 479.804C33.356 479.409 33.48 479.017 33.6034 478.626C33.8711 477.778 34.1361 476.938 34.3928 476.107C34.6785 475.214 34.9642 474.322 35.2499 473.5C36.0356 471.143 36.8213 468.857 37.6071 466.661C39.3809 461.732 41.1666 457.197 42.9642 453.054C43.4106 452 43.8571 450.964 44.3035 449.964L44.5713 449.375C45.5356 447.161 46.5178 445.089 47.4999 443.125C50.2914 437.275 53.6023 431.687 57.3928 426.429C57.4429 426.354 57.4969 426.282 57.5493 426.213L57.5494 426.213C57.609 426.134 57.6667 426.058 57.7142 425.982C58.6963 424.697 59.6428 423.536 60.5535 422.536L60.6606 422.411C61.3019 421.689 61.9832 420.988 62.6596 420.291C62.8873 420.057 63.1144 419.823 63.3392 419.589C69.0978 413.797 75.4344 408.609 82.2499 404.107L84.3213 402.732C85.369 402.042 86.4404 401.363 87.5356 400.697C90.1785 399.054 92.8928 397.464 95.6964 395.911C100.321 393.339 105.107 390.911 109.982 388.607C115.875 385.822 121.875 383.25 127.839 380.822L131.893 379.214C133.053 378.75 134.232 378.304 135.464 377.875C140.678 375.893 145.857 374.072 150.911 372.375C160.696 369.089 169.964 366.339 178.143 364.072C186.607 361.732 193.857 359.911 199.196 358.625C199.17 358.874 199.17 359.126 199.196 359.375C200.107 365.143 211.696 370.089 228.018 372.375C234.899 373.33 241.838 373.814 248.786 373.822H250.036C256.983 373.814 263.922 373.33 270.804 372.375C287.25 370.054 298.839 365.089 299.643 359.286C299.66 359.066 299.66 358.845 299.643 358.625C305 359.929 312.321 361.75 320.839 364.107C328.982 366.357 338.196 369.107 347.928 372.375C354.107 374.447 360.428 376.714 366.875 379.214C370.149 380.476 373.417 381.804 376.678 383.197L380.411 384.786L383.411 386.107C390.143 389.143 396.768 392.393 403.053 395.911C406.982 398.089 410.803 400.357 414.446 402.732L415.464 403.411C417.25 404.554 419.036 405.732 420.607 406.982C425.886 410.723 430.838 414.905 435.411 419.482C436.375 420.447 437.303 421.429 438.196 422.429C439.286 423.635 440.312 424.899 441.268 426.214V426.322C442.089 427.429 442.946 428.643 443.786 429.893C446.514 434.095 448.983 438.461 451.178 442.964C452.232 445.107 453.286 447.375 454.375 449.804C455.053 451.339 455.732 452.929 456.411 454.572C456.875 455.677 457.326 456.811 457.787 457.974L457.946 458.375C458.958 460.947 459.976 463.655 461 466.5C461.786 468.697 462.571 470.982 463.357 473.339C464.262 476.113 465.173 478.994 466.089 481.982C466.219 482.421 466.351 482.862 466.484 483.306L466.488 483.32L466.489 483.323C466.738 484.154 466.989 484.993 467.232 485.839L467.341 486.219C467.689 487.426 468.073 488.762 468.429 490.054C469.054 492.268 469.089 494.089 469.642 496.429H28.5707Z" fill="#FFA1B2"/>
<g style="mix-blend-mode:soft-light" opacity="0.8">
<path d="M320.929 364.089C316.518 370.839 309.143 376.197 299.679 380.161C291.583 383.427 283.114 385.677 274.464 386.857C257.921 389.19 241.133 389.19 224.589 386.857C215.891 385.664 207.373 383.397 199.232 380.107C189.822 376.143 182.5 370.786 178.107 364.036C186.572 361.697 193.822 359.875 199.161 358.589C199.135 358.839 199.135 359.09 199.161 359.339C200.072 365.107 211.661 370.054 227.982 372.339C234.864 373.295 241.803 373.778 248.75 373.786H250C256.948 373.778 263.886 373.295 270.768 372.339C287.214 370.018 298.804 365.054 299.607 359.25C299.625 359.03 299.625 358.809 299.607 358.589C305.107 359.911 312.411 361.732 320.929 364.089Z" fill="white"/>
</g>
<g style="mix-blend-mode:multiply" opacity="0.15">
<path fill-rule="evenodd" clip-rule="evenodd" d="M296.036 303.786V356.107C251.536 356.804 218.571 333.893 202.839 320.197V303.75C206.379 307.132 210.222 310.181 214.321 312.857C224.197 319.539 235.777 323.257 247.696 323.572H251.268C263.187 323.257 274.768 319.539 284.643 312.857C288.703 310.179 292.516 307.143 296.036 303.786Z" fill="#7C3830"/>
</g>
<path fill-rule="evenodd" clip-rule="evenodd" d="M251.405 92.5021L249.607 92.5181C229.965 92.1609 193.786 96.9645 172.107 132.572C158.313 154.962 157.857 186.762 158.887 204.188L158.974 205.569C155.23 205.217 151.43 205.875 147.982 207.518C142.75 210.188 138.924 214.984 137.482 220.679C135.315 229.276 136.969 238.391 142.018 245.679L142.367 246.206C147.562 253.862 156.293 258.382 165.572 258.179C166.928 258.145 168.279 258.026 169.616 257.82C169.875 258.516 170.14 259.214 170.411 259.911L171.518 262.697C177.149 276.991 185.317 290.146 195.623 301.529L195.714 301.627L195.715 355.746C189.544 357.259 183.316 358.893 177.018 360.625C167.286 363.322 158.322 366.054 149.607 368.982C143.947 370.947 138.839 372.732 134.054 374.518C133.649 374.661 133.268 374.802 132.89 374.945L129.121 376.404C128.211 376.762 127.298 377.131 126.393 377.5L123.777 378.554C118.55 380.687 113.355 382.972 108.304 385.375C103.161 387.804 98.2681 390.286 93.8038 392.786C90.7323 394.5 88.0181 396.09 85.5359 397.625L84.686 398.148C83.844 398.67 83.027 399.192 82.2502 399.715C81.5181 400.179 80.7859 400.661 80.1252 401.125C73.1183 405.706 66.5965 410.99 60.6609 416.893C60.1084 417.526 59.5607 418.081 59.0418 418.606C58.6385 419.014 58.2522 419.406 57.8931 419.804L57.7681 419.964C56.8395 420.964 55.8395 422.179 54.7324 423.643C54.6629 423.719 54.603 423.803 54.5538 423.893L54.3752 424.125L53.4065 425.489C49.8928 430.513 46.8003 435.821 44.1609 441.357C43.2936 442.952 42.5902 444.473 41.9337 445.961L41.1609 447.732L40.4341 449.369C40.1312 450.062 39.8335 450.768 39.5359 451.482L38.9407 452.892C37.3534 456.697 35.7661 460.857 34.1788 465.286C33.3931 467.5 32.5895 469.822 31.8038 472.197L31.5048 473.082L30.9109 474.875L29.3308 479.975C28.7465 481.87 28.1571 483.86 27.5661 485.923L26.6788 489.072C26.397 490.181 26.1022 491.308 25.8051 492.444L25.8033 492.45C25.4985 493.616 25.1912 494.79 24.8931 495.964L24.4109 497.75C24.2591 498.339 24.2617 499.386 24.1077 500H475.001L473.607 495.268C473.607 495.268 472.5 491.089 471.929 489.089C471.643 488.036 471.34 486.964 471.036 485.929L470.732 484.839L469.572 480.929C469.114 479.523 468.684 478.141 468.261 476.782L468.26 476.777L468.259 476.775C467.774 475.218 467.299 473.692 466.804 472.197C466.018 469.822 465.214 467.5 464.429 465.286C463.375 462.411 462.34 459.607 461.322 457.054L461.161 456.607C460.697 455.429 460.232 454.286 459.768 453.197C459.089 451.518 458.393 449.911 457.697 448.339C456.813 446.371 455.999 444.603 455.218 442.961L454.447 441.357C452.18 436.743 449.646 432.265 446.857 427.947C446.494 427.435 446.143 426.92 445.786 426.397L445.785 426.395L445.78 426.388L445.776 426.382L445.775 426.38C445.276 425.649 444.766 424.902 444.197 424.125L444.054 423.947C442.893 422.375 441.786 421.018 440.84 419.982C439.893 418.947 438.911 417.893 437.929 416.911C433.212 412.19 428.105 407.877 422.661 404.018C420.875 402.732 419.107 401.518 417.447 400.447C417.072 400.197 416.697 399.929 416.375 399.732L415.181 398.96C411.971 396.906 408.544 394.879 404.75 392.768C398.697 389.411 392.179 386.161 384.786 382.84L381.732 381.5L380.786 381.089L378 379.893C374.804 378.536 371.572 377.232 368.089 375.875C362.036 373.518 355.786 371.268 348.982 368.982C340.197 366.018 331.018 363.232 321.714 360.661C316.142 359.113 311.158 357.818 307.021 356.777L303.177 355.82L303.18 301.869C313.65 290.402 321.936 277.115 327.625 262.661L328.75 259.84C328.994 259.208 329.236 258.57 329.475 257.934C330.756 258.092 332.047 258.174 333.34 258.179C342.78 258.375 351.652 253.682 356.804 245.768L357.228 245.139C361.94 237.958 363.446 229.123 361.357 220.768C359.904 215.075 356.072 210.281 350.839 207.607C347.544 206.034 343.923 205.364 340.34 205.62C341.456 188.523 341.341 155.535 327.197 132.59C305.857 98.0333 271.243 92.4937 251.405 92.5021ZM174.31 368.941L176.707 368.261C181.449 374.391 188.538 379.467 197.822 383.375C206.269 386.798 215.112 389.15 224.143 390.375C232.577 391.588 241.087 392.184 249.607 392.161C258.096 392.211 266.576 391.644 274.982 390.464C283.919 389.235 292.669 386.908 301.036 383.536C310.438 379.612 317.599 374.466 322.363 368.292C330.744 370.648 339.002 373.193 346.947 375.857C353.643 378.107 359.786 380.322 365.732 382.643C369.143 383.964 372.322 385.25 375.465 386.589L379.161 388.161L382.089 389.464C389.286 392.697 395.643 395.857 401.518 399.125C405.607 401.411 409.286 403.607 412.75 405.857L414.713 407.143C416.03 408.014 417.375 408.943 418.732 409.929C423.828 413.56 428.607 417.616 433.018 422.054L433.027 422.063L433.028 422.064L433.031 422.067C433.92 422.973 434.826 423.898 435.697 424.893C436.703 425.999 437.645 427.162 438.518 428.375L438.679 428.572C439.554 429.732 440.304 430.839 441.036 431.964C443.67 436.043 446.056 440.277 448.179 444.643L448.549 445.397C449.169 446.67 449.807 448.032 450.479 449.51L451.304 451.34C451.982 452.857 452.643 454.411 453.322 456.054L453.768 457.136C454.066 457.865 454.363 458.607 454.661 459.357L454.822 459.786C455.804 462.268 456.822 464.964 457.839 467.804L458.426 469.444C459.009 471.102 459.585 472.813 460.161 474.554L460.71 476.209C461.439 478.434 462.161 480.728 462.875 483.089L463.286 484.464L464.322 488C464.411 488.319 464.502 488.639 464.594 488.962C464.796 489.67 465 490.389 465.197 491.125L465.75 493.125L33.0362 492.857L34.0604 489.595C34.9505 486.425 35.8373 483.427 36.6966 480.661L37.8574 476.982C37.9278 476.767 37.9972 476.553 38.066 476.341L38.0746 476.315L38.077 476.307C38.2834 475.671 38.4851 475.05 38.6966 474.429L39.1662 473.034C39.7902 471.187 40.4074 469.389 41.0359 467.661C42.6966 462.804 44.4824 458.304 46.2681 454.232C46.6966 453.214 47.1431 452.197 47.5716 451.232L48.3808 449.399C49.0916 447.809 49.8574 446.2 50.7145 444.5C53.4042 438.864 56.6019 433.485 60.2681 428.429L60.6252 427.929L60.9123 427.567C61.7565 426.503 62.4952 425.571 63.0895 424.929L63.3574 424.643C64.1074 423.75 65.0002 422.857 65.8931 421.964C71.4951 416.4 77.6454 411.416 84.2502 407.089L86.2859 405.75C87.3038 405.089 88.3216 404.429 89.4109 403.768L90.3253 403.204C92.4835 401.882 94.8194 400.525 97.4288 399.072C101.75 396.714 106.482 394.304 111.5 391.929C117.268 389.197 123.214 386.607 129.214 384.232L130.403 383.75L134.381 382.179C135.139 381.883 135.905 381.589 136.679 381.304L138.107 380.768C141.462 379.517 144.969 378.262 148.722 376.972L152 375.857C159.158 373.447 166.502 371.172 174.31 368.941ZM184.393 366.157C188.516 365.055 192.642 363.992 196.732 362.982C201.168 370.96 217.454 374.461 226.094 375.788L227.536 376C234.583 376.981 241.689 377.476 248.804 377.482H250.072C257.181 377.477 264.281 376.981 271.322 376C279.216 374.897 296.294 371.631 301.647 363.858C301.843 363.579 302.024 363.294 302.189 363.003L302.186 363.002L302.25 362.893C302.23 362.93 302.21 362.966 302.189 363.003C304.675 363.572 307.543 364.297 310.758 365.145L314.781 366.219C310.113 370.867 304.525 374.491 298.375 376.857L296.904 377.436C289.53 380.27 281.85 382.24 274.018 383.304C257.825 385.589 241.39 385.589 225.197 383.304C216.793 382.154 208.564 379.971 200.697 376.804C194.553 374.41 188.976 370.761 184.322 366.089L184.393 366.157ZM202.804 308.572V358.947C203.589 361.697 211.875 366.429 228.554 368.768C235.275 369.706 242.053 370.177 248.839 370.179H250.072C256.852 370.176 263.624 369.705 270.34 368.768C277.467 367.762 283.059 366.326 287.189 364.797L287.549 364.662C293.011 362.567 295.752 360.324 295.964 358.786C295.966 358.444 296.014 358.107 296.105 357.784L296.108 308.727C293.577 310.921 290.923 312.971 288.159 314.868L286.768 315.804C277.842 321.844 267.593 325.583 256.933 326.73C255.026 326.945 253.107 327.077 251.179 327.125H247.697L247.583 327.12L247.554 327.125C245.591 327.072 243.637 326.932 241.697 326.706L239.892 326.47L238.853 326.312L237.354 326.054L236.156 325.822C228.056 324.177 220.306 321.02 213.323 316.484L212.375 315.857C209.015 313.66 205.817 311.225 202.804 308.572ZM247.787 99.6841L249.465 99.6967C267.482 99.4109 300.768 103.75 320.893 136.375C335.178 159.533 333.806 195.554 332.772 208.258L332.643 209.75V209.982L335.894 210.258L332.697 210.179L332.695 210.199L332.643 210.197C332.56 211 332.48 211.699 332.412 212.273L332.179 214.072C332.17 214.173 332.17 214.274 332.179 214.375L332.072 215.732C331.786 218.304 331.518 220.518 331.161 222.875C330.804 225.232 330.411 227.518 330 229.679L329.793 230.775C329.649 231.508 329.494 232.238 329.34 232.929L328.883 234.995L328.643 236.018V236.179C328.527 236.679 328.406 237.152 328.286 237.612L327.929 238.964L327.93 239.159C327.69 240.117 327.433 240.953 327.161 241.822L326.784 243.038L326.453 244.077L326.375 244.304C325.572 246.929 324.661 249.661 323.572 252.661V252.839C323.142 254.042 322.69 255.244 322.251 256.409L321.929 257.268L320.266 261.407C314.81 274.796 306.985 287.096 297.161 297.714L297.491 297.352C297.344 297.461 297.203 297.582 297.072 297.714C292.739 302.311 287.885 306.386 282.607 309.857L281.732 310.443C272.643 316.406 262.061 319.714 251.179 319.982H247.697C247.338 319.973 246.979 319.96 246.62 319.944L245.709 319.896L244.376 319.798C234.345 318.949 224.68 315.534 216.322 309.857L215.113 309.046C210.31 305.76 205.871 301.967 201.875 297.732C201.772 297.624 201.663 297.522 201.546 297.433C191.505 286.512 183.571 273.827 178.143 260.018L177.054 257.304C176.869 256.822 176.685 256.332 176.5 255.838L175.393 252.857L175.072 252.679C173.822 249.197 172.625 245.536 171.5 241.822C171.375 241.395 171.233 240.89 171.099 240.407L171.097 240.402L170.967 239.935L170.598 238.662C170.532 238.425 170.466 238.167 170.398 237.893L169.991 236.244C169.968 236.145 169.946 236.047 169.924 235.946C169.907 235.869 169.889 235.79 169.872 235.71C169.812 235.434 169.747 235.137 169.661 234.786L169.484 234.043C169.367 233.54 169.256 233.024 169.161 232.5V232.322C168.982 231.589 168.822 230.839 168.679 230.036L168.572 229.536L167.877 225.543C167.796 225.064 167.72 224.572 167.661 224.072C167.661 224.048 167.675 224.042 167.689 224.036C167.716 224.024 167.744 224.012 167.661 223.857C167.536 223.625 167.536 223.375 167.536 223.143V222.679C167.482 222.316 167.431 221.945 167.38 221.57L166.954 218.447C166.841 217.577 166.737 216.67 166.643 215.732L166.543 214.826L166.518 214.375C166.528 214.262 166.528 214.149 166.518 214.036L166.321 212.39L166.322 211.75C166.31 211.605 166.289 211.447 166.266 211.274C166.218 210.912 166.161 210.483 166.161 209.964L166.15 209.69C166.129 209.418 166.078 209.153 165.998 208.899L165.907 207.817C164.874 194.745 163.647 159.321 177.804 136.375C197.342 104.729 229.281 99.6968 247.787 99.6841ZM340.114 212.879L339.767 212.935L339.563 214.58C339.537 214.767 339.516 214.908 339.5 215L339.393 216.34C339.127 218.824 338.862 221.062 338.56 223.078L338.429 223.929L338.334 224.521L338.333 224.528C337.999 226.619 337.623 228.971 337.232 231.072C337.089 231.857 336.939 232.627 336.78 233.392L336.536 234.536L336.479 234.795C336.255 235.819 336.07 236.666 335.839 237.589V237.768L335.67 238.453C338.062 238.329 340.29 237.109 341.679 235.107C343.397 232.746 343.679 229.631 342.411 227C341.88 226.172 342.119 225.069 342.947 224.536C343.775 224.005 344.878 224.244 345.411 225.072C347.292 228.649 347.173 232.947 345.098 236.415C343.023 239.883 339.291 242.02 335.25 242.054L335.322 242.089C335.12 242.089 334.919 242.081 334.718 242.067L334.461 242.972L334.197 243.857C333.893 244.857 333.643 245.643 333.339 246.5C332.897 247.941 332.408 249.455 331.871 251.043L331.732 251.036C339.141 251.719 346.329 248.374 350.581 242.306L350.911 241.822C354.771 236.266 356.071 229.326 354.482 222.75C353.59 219.044 351.152 215.897 347.786 214.107C345.57 213.04 343.112 212.598 340.676 212.816L340.114 212.879ZM151.036 214.054C152.87 213.175 154.877 212.717 156.911 212.715C157.733 212.727 158.552 212.817 159.357 212.982V213.393C159.413 213.589 159.416 213.756 159.418 213.914C159.42 214.058 159.422 214.195 159.464 214.34C159.518 214.522 159.54 214.678 159.548 214.805L159.554 215.018C159.583 215.509 159.636 215.997 159.714 216.482C159.756 216.911 159.802 217.338 159.849 217.761L160.143 220.25C160.286 221.465 160.447 222.625 160.625 223.822V224.232L160.786 225.197C160.84 225.607 160.902 226.018 160.967 226.415L161.35 228.679C161.465 229.334 161.589 229.991 161.713 230.653L161.768 230.947L161.857 231.465L162.462 234.335L162.929 236.447L163.357 238.232V238.429L163.375 238.5C160.829 238.502 158.422 237.251 156.964 235.125C155.259 232.765 154.985 229.659 156.25 227.036C156.781 226.207 156.542 225.105 155.715 224.572C154.886 224.041 153.784 224.28 153.25 225.107C151.369 228.684 151.488 232.983 153.563 236.451C155.638 239.919 159.37 242.056 163.411 242.089C163.716 242.095 164.021 242.085 164.325 242.061L164.433 242.052L164.59 242.036C164.537 242.042 164.485 242.047 164.433 242.052C164.397 242.055 164.361 242.058 164.325 242.061L164.321 242.061L164.84 243.84C165.572 246.268 166.322 248.643 167.107 250.982C159.504 251.688 152.13 248.145 147.929 241.768L147.55 241.208C143.974 235.755 142.811 229.053 144.357 222.697C145.244 218.993 147.675 215.846 151.036 214.054Z" fill="#372168"/>
<path fill-rule="evenodd" clip-rule="evenodd" d="M302.189 363.003C302.21 362.966 302.23 362.93 302.25 362.893L302.186 363.002L302.189 363.003ZM164.433 242.052L164.59 242.036C164.537 242.042 164.485 242.047 164.433 242.052Z" fill="#372168"/>
<g style="mix-blend-mode:multiply" opacity="0.15">
<path fill-rule="evenodd" clip-rule="evenodd" d="M218.75 249.583C218.75 260.484 210.755 269.32 200.893 269.32C191.031 269.32 183.036 260.484 183.036 249.583C183.036 238.683 191.031 229.846 200.893 229.846C210.755 229.846 218.75 238.683 218.75 249.583ZM315.179 249.583C315.179 260.484 307.184 269.32 297.321 269.32C287.459 269.32 279.464 260.484 279.464 249.583C279.464 238.683 287.459 229.846 297.321 229.846C307.184 229.846 315.179 238.683 315.179 249.583Z" fill="#FF1300"/>
</g>
<path fill-rule="evenodd" clip-rule="evenodd" d="M263.375 281.572C251.25 288.304 244 276.214 241.464 270.857C247.17 269.636 252.589 267.332 257.429 264.072C265.161 269.839 271.464 277.072 263.375 281.572Z" fill="#FF6666"/>
<path fill-rule="evenodd" clip-rule="evenodd" d="M252.036 285.804C253.454 286.27 254.936 286.511 256.429 286.518C259.353 286.42 262.205 285.578 264.714 284.072C268.911 281.786 269.929 278.875 270.071 276.822C270.393 272.286 266.821 267.322 259.179 261.572C258.153 260.838 256.775 260.838 255.75 261.572C251.227 264.623 246.158 266.775 240.821 267.911C239.944 268.099 239.201 268.676 238.801 269.479C238.401 270.282 238.389 271.223 238.768 272.036C240.714 276.197 245 283.518 252.036 285.804ZM245.841 272.703C245.828 272.683 245.816 272.663 245.803 272.643V272.714C245.816 272.711 245.828 272.707 245.841 272.703ZM253.857 280.125C250.328 278.99 247.627 275.566 245.841 272.703C249.856 271.477 253.691 269.727 257.25 267.5C263.857 272.857 264.25 275.571 264.196 276.429C264.143 277.286 263.375 278.125 261.928 278.929C259.539 280.479 256.594 280.916 253.857 280.125Z" fill="#372168"/>
<path d="M232.089 274.839C231.75 274.862 231.41 274.862 231.071 274.839C230.29 274.798 229.556 274.447 229.034 273.864C228.511 273.281 228.242 272.514 228.286 271.732C228.322 270.95 228.672 270.216 229.257 269.695C229.842 269.174 230.612 268.911 231.393 268.964C234.56 269.01 237.72 268.668 240.804 267.946C242.378 267.623 243.922 268.621 244.273 270.19C244.623 271.758 243.652 273.319 242.089 273.696C238.806 274.434 235.454 274.817 232.089 274.839Z" fill="#372168"/>
<path d="M255.482 274.643C254.888 274.644 254.333 274.349 254 273.857C252.831 272.094 251.398 270.522 249.75 269.197C249.016 268.585 248.893 267.504 249.472 266.743C250.051 265.983 251.125 265.813 251.911 266.357C253.875 267.907 255.575 269.765 256.946 271.857C257.503 272.671 257.296 273.782 256.482 274.339C256.183 274.532 255.837 274.637 255.482 274.643Z" fill="#372168"/>
<path d="M257.411 266.946C256.135 266.925 255.019 266.084 254.644 264.864C254.27 263.645 254.724 262.323 255.768 261.589C258.258 259.91 260.552 257.958 262.607 255.768C263.314 254.945 264.416 254.578 265.475 254.811C266.534 255.044 267.38 255.84 267.676 256.884C267.972 257.927 267.672 259.049 266.893 259.804C264.539 262.317 261.909 264.557 259.054 266.482C258.565 266.798 257.993 266.959 257.411 266.946Z" fill="#372168"/>
<path d="M249.059 246.94C245.159 246.993 241.492 245.089 239.291 241.869C238.354 240.419 238.77 238.484 240.219 237.548C241.669 236.611 243.604 237.026 244.541 238.476C245.628 239.89 247.316 240.711 249.099 240.694C250.882 240.676 252.553 239.822 253.612 238.387C254.51 236.907 256.436 236.436 257.916 237.333C259.395 238.231 259.867 240.157 258.969 241.637C256.809 245.003 253.058 247.011 249.059 246.94Z" fill="#372168"/>
<path d="M293.506 224.089C292.409 224.089 291.392 223.513 290.828 222.572C289.769 221.137 288.097 220.282 286.314 220.265C284.531 220.247 282.843 221.068 281.756 222.482C281.183 223.486 280.103 224.092 278.948 224.057C277.792 224.023 276.75 223.353 276.239 222.316C275.728 221.279 275.831 220.045 276.506 219.107C278.76 215.888 282.459 213.99 286.389 214.036C290.319 214.083 293.972 216.068 296.149 219.339C296.723 220.304 296.739 221.503 296.19 222.483C295.641 223.463 294.611 224.075 293.488 224.089H293.506Z" fill="#372168"/>
<path d="M220.279 224C219.19 224.004 218.179 223.434 217.619 222.5C216.56 221.065 214.888 220.211 213.105 220.193C211.322 220.176 209.634 220.997 208.547 222.411C207.941 223.348 206.881 223.892 205.765 223.836C204.65 223.78 203.65 223.133 203.14 222.139C202.631 221.146 202.691 219.956 203.297 219.018C205.556 215.806 209.253 213.914 213.18 213.961C217.106 214.007 220.757 215.986 222.94 219.25C223.372 219.957 223.504 220.808 223.306 221.612C223.108 222.417 222.597 223.11 221.886 223.536C221.406 223.84 220.848 224.001 220.279 224Z" fill="#372168"/>
<path d="M285.946 205.375C281.257 205.396 276.572 205.08 271.929 204.429C270.653 204.244 269.572 203.392 269.095 202.194C268.617 200.997 268.814 199.635 269.612 198.623C270.411 197.61 271.688 197.101 272.964 197.286C281.905 198.408 290.952 198.408 299.893 197.286C301.865 197.005 303.692 198.376 303.973 200.348C304.254 202.321 302.883 204.147 300.911 204.429C295.949 205.071 290.95 205.387 285.946 205.375Z" fill="#372168"/>
<path d="M198.25 204.464C196.278 204.627 194.547 203.16 194.384 201.188C194.221 199.215 195.688 197.484 197.661 197.322C197.804 197.322 211.839 194.893 225.696 192.893C227.669 192.612 229.496 193.983 229.777 195.955C230.058 197.928 228.687 199.755 226.714 200.036C212.946 202.036 199 204.411 198.857 204.429C198.656 204.459 198.453 204.471 198.25 204.464Z" fill="#372168"/>
<path d="M249.225 129.567C248.213 131.639 244.739 135.239 233.059 138.822C230.493 139.615 227.911 140.343 225.318 141.074C209.862 145.431 193.964 149.913 178.184 169.072C164.764 185.375 161.621 208.841 161.492 209.843L161.577 210.001C157.603 208.966 153.393 209.364 149.684 211.126C140.327 215.572 136.327 230.429 145.184 244.019C151.97 254.376 163.434 256.197 172.148 254.179C172.72 255.751 173.309 257.34 173.934 258.876L175.041 261.644C178.405 270.073 182.617 278.138 187.612 285.715C179.183 292.128 169.496 296.691 159.184 299.108C127.327 305.733 102.487 293.394 96.5589 264.894C90.6303 236.394 119.934 192.84 151.898 186.215H152.269L152.237 186.09C149.778 176.424 148.767 166.446 149.237 156.483C150.041 139.322 155.237 124.644 161.862 115.411C181.291 88.5186 212.755 72.8757 245.595 77.4293C247.38 77.6793 248.72 77.9293 249.273 78.0365H249.612V78.2147C250.269 78.0884 251.348 77.8839 252.809 77.6793C285.648 73.1257 319.148 88.5365 339.72 114.572C351.39 129.026 360.189 155.374 348.833 186.542C380.163 194.094 408.54 236.847 402.684 264.929C396.755 293.501 371.934 305.769 340.059 299.144C329.689 296.711 319.951 292.111 311.487 285.644C316.515 278.074 320.752 270.008 324.13 261.572L325.237 258.804C325.503 258.111 325.769 257.408 326.037 256.699C326.362 255.838 326.69 254.97 327.023 254.108C335.737 256.126 347.202 254.304 353.987 243.947C362.916 230.358 358.845 215.501 349.487 211.054C345.428 209.124 340.781 208.836 336.515 210.247C336.494 210.278 336.473 210.309 336.452 210.34V209.733C336.72 206.001 337.487 186.376 325.13 171.358C308.89 151.621 288.801 145.778 271.984 140.888C269.736 140.234 267.547 139.598 265.434 138.947C253.595 135.376 250.184 131.644 249.237 129.59C249.233 129.583 249.229 129.575 249.225 129.567Z" fill="#8BCBC9"/>
<path d="M249.225 129.567C248.213 131.639 244.739 135.239 233.059 138.822C230.493 139.615 227.911 140.343 225.318 141.074C209.862 145.431 193.964 149.913 178.184 169.072C164.764 185.375 161.621 208.841 161.492 209.843L161.577 210.001C157.603 208.966 153.393 209.364 149.684 211.126C140.327 215.572 136.327 230.429 145.184 244.019C151.97 254.376 163.434 256.197 172.148 254.179C172.72 255.751 173.309 257.34 173.934 258.876L175.041 261.644C178.405 270.073 182.617 278.138 187.612 285.715C179.183 292.128 169.496 296.691 159.184 299.108C127.327 305.733 102.487 293.394 96.5589 264.894C90.6303 236.394 119.934 192.84 151.898 186.215H152.269L152.237 186.09C149.778 176.424 148.767 166.446 149.237 156.483C150.041 139.322 155.237 124.644 161.862 115.411C181.291 88.5186 212.755 72.8757 245.595 77.4293C247.38 77.6793 248.72 77.9293 249.273 78.0365H249.612V78.2147C250.269 78.0884 251.348 77.8839 252.809 77.6793C285.648 73.1257 319.148 88.5365 339.72 114.572C351.39 129.026 360.189 155.374 348.833 186.542C380.163 194.094 408.54 236.847 402.684 264.929C396.755 293.501 371.934 305.769 340.059 299.144C329.689 296.711 319.951 292.111 311.487 285.644C316.515 278.074 320.752 270.008 324.13 261.572L325.237 258.804C325.503 258.111 325.769 257.408 326.037 256.699C326.362 255.838 326.69 254.97 327.023 254.108C335.737 256.126 347.202 254.304 353.987 243.947C362.916 230.358 358.845 215.501 349.487 211.054C345.428 209.124 340.781 208.836 336.515 210.247C336.494 210.278 336.473 210.309 336.452 210.34V209.733C336.72 206.001 337.487 186.376 325.13 171.358C308.89 151.621 288.801 145.778 271.984 140.888C269.736 140.234 267.547 139.598 265.434 138.947C253.595 135.376 250.184 131.644 249.237 129.59C249.233 129.583 249.229 129.575 249.225 129.567Z" fill="#B3F3F1"/>
<path fill-rule="evenodd" clip-rule="evenodd" d="M353.729 182.883C362.858 152.962 354.21 127.001 342.559 112.251C320.63 84.4828 285.22 69.4828 252.38 74.0363L251.916 74.1023C251.313 74.1899 250.778 74.2761 250.315 74.3548L249.15 74.5628C248.421 74.4297 247.372 74.2509 246.095 74.0721L245.108 73.9413C212.553 69.822 179.636 84.9144 158.97 113.501C151.309 124.036 146.452 139.697 145.684 156.358C145.248 165.484 146.018 174.623 147.973 183.538C147.611 183.64 147.249 183.747 146.887 183.859C138.057 185.292 103.223 192.997 76.6482 226.429C76.2247 226.965 76.144 227.696 76.4403 228.311C76.7367 228.926 77.3581 229.319 78.0411 229.322C78.6 229.312 79.1221 229.041 79.4518 228.59C96.1409 207.592 116.154 197.085 130.475 191.917C121.87 197.734 113.772 205.8 107.166 215.358C95.3804 232.411 90.1482 251.215 93.1661 265.679C98.1839 290.286 117.148 304.465 143.166 304.465C148.79 304.436 154.397 303.832 159.898 302.661C170.722 300.142 180.887 295.352 189.72 288.608C191.257 287.478 191.634 285.339 190.577 283.751C185.671 276.363 181.53 268.495 178.22 260.268L177.13 257.554C176.946 257.066 176.761 256.574 176.577 256.079L175.47 253.09C175.264 252.386 174.846 251.762 174.273 251.304C173.418 250.626 172.3 250.376 171.238 250.626C163.845 252.322 153.898 250.911 148.023 241.983L147.645 241.423C144.067 235.97 142.903 229.267 144.452 222.911C145.342 219.209 147.773 216.064 151.13 214.269C153.793 212.99 156.789 212.609 159.67 213.172C160.234 213.532 160.898 213.734 161.595 213.734C162.201 213.748 162.803 213.613 163.345 213.34C164.612 212.624 165.318 211.212 165.13 209.768C165.684 206.036 169.238 185.679 180.952 171.393C194.794 154.575 208.41 149.729 222.648 145.652L228.946 143.874C230.676 143.382 232.398 142.882 234.113 142.358C237.577 141.292 240.579 140.152 243.111 138.942C238.832 145 230.037 152.161 211.97 156.536C210.262 156.952 208.591 157.501 206.97 158.179C206.19 158.512 205.751 159.347 205.92 160.178C206.088 161.008 206.818 161.606 207.666 161.608C207.91 161.595 208.148 161.528 208.363 161.411C209.805 160.811 211.292 160.322 212.809 159.947C234.505 154.697 243.809 145.447 247.773 138.304C247.702 144.393 246.791 151.036 243.72 153.858L243.564 154.018C242.987 154.69 242.986 155.701 243.595 156.376C243.913 156.731 244.36 156.944 244.836 156.967C245.313 156.991 245.779 156.823 246.13 156.501C250.379 152.608 251.376 144.516 251.386 137.851L251.377 136.62C254.518 138.681 258.863 140.571 264.38 142.268C266.505 142.929 268.702 143.572 270.97 144.233L275.01 145.416C290.773 150.088 308.043 156.159 322.363 173.536C333.042 186.511 333.169 203.39 332.934 208.528L332.88 209.465V210.251C332.88 211.589 333.616 212.755 334.705 213.366C335.536 213.846 336.546 213.981 337.505 213.697C340.932 212.519 344.685 212.737 347.952 214.304C351.31 216.1 353.74 219.245 354.63 222.947C356.233 229.522 354.932 236.469 351.059 242.019L350.706 242.537C344.741 251.039 335.04 252.412 327.845 250.661C326.782 250.412 325.664 250.662 324.809 251.34C324.276 251.775 323.874 252.35 323.648 253.001C323.095 254.536 322.523 256.072 321.97 257.536L320.863 260.268C317.575 268.479 313.452 276.33 308.559 283.697C307.501 285.285 307.879 287.424 309.416 288.554C318.276 295.334 328.479 300.149 339.345 302.679C344.852 303.846 350.465 304.444 356.095 304.465C382.113 304.465 401.077 290.269 406.166 265.751L406.348 264.826C411.049 239.217 390.98 204.841 365.295 189.662C380.716 194.568 407.697 205.889 424.327 228.59C424.664 229.051 425.202 229.324 425.773 229.322V229.251C426.443 229.246 427.054 228.866 427.355 228.268C427.656 227.669 427.597 226.952 427.202 226.411C402.649 192.934 356.505 183.295 354.232 182.923L353.938 182.885L353.729 182.883ZM343.523 205.929C346.38 201.127 348.875 196.12 350.988 190.947C351.624 191.15 352.259 191.368 352.893 191.601C377.972 218.593 387.859 256.424 379.155 292.264C369.098 297.557 355.958 298.913 340.791 295.769C335.829 294.617 331.021 292.926 326.451 290.733C350.205 284.847 354.736 261.722 355.457 249.551L355.53 248.044C356.049 247.389 356.541 246.708 357.005 246.001L357.427 245.373C362.118 238.216 363.618 229.415 361.541 221.09C360.104 215.393 356.276 210.595 351.041 207.929C348.685 206.792 346.133 206.113 343.523 205.929ZM149.876 191.023L149.11 191.846C123.87 219.212 114.169 257.607 123.518 293.776C133.064 297.712 144.962 298.478 158.47 295.679C162.439 294.758 166.311 293.49 170.041 291.897C145.578 284.305 143.214 257.508 143.202 247.529C142.932 247.178 142.67 246.818 142.416 246.451L142.041 245.894C137.057 238.611 135.444 229.537 137.613 220.983C139.049 215.286 142.877 210.488 148.113 207.822C150.421 206.72 152.912 206.049 155.462 205.843C153.735 202.117 152.226 198.294 150.939 194.394C150.69 193.649 150.449 192.902 150.217 192.151L149.876 191.023ZM112.952 219.429C121.458 207.128 132.39 197.646 143.5 192.713C130.985 207.557 108.28 242.583 119.411 291.808C109.507 286.343 102.706 276.964 100.059 264.233C97.4518 251.572 102.238 234.893 112.952 219.429ZM360.886 195.35L362.199 197.036C374.744 213.465 392.466 245.803 383.336 289.711C391.162 284.212 396.616 275.887 399.035 265.091L399.202 264.322C403.917 241.391 384.631 208.887 360.886 195.35ZM146.964 252.612L146.889 251.496C153.017 256.913 161.34 259.452 169.666 258.144C169.916 258.804 170.166 259.465 170.434 260.126L171.541 262.929C174.632 270.535 178.384 277.855 182.755 284.804C180.313 286.525 177.768 288.083 175.135 289.47C162.261 286.954 153.671 278.94 149.434 265.751C148.133 261.466 147.307 257.06 146.964 252.612ZM351.742 251.959L351.677 252.015C345.598 257.145 337.492 259.522 329.38 258.251L328.63 260.197L327.505 263.019C324.444 270.561 320.728 277.821 316.398 284.715V284.822C318.026 285.973 319.7 287.052 321.414 288.056C335.526 286.016 344.919 277.939 349.38 263.876C350.565 259.985 351.355 255.992 351.742 251.959ZM253.183 81.1068L254.374 80.9494C284.506 77.1232 316.872 91.065 337.077 116.626C348.148 130.661 356.202 156.072 345.488 185.286L344.791 187.089C343.666 189.934 342.42 192.729 341.058 195.464L340.932 195.713C340.509 189.623 339.831 183.553 338.898 177.518C336.939 162.995 330.344 149.492 320.095 139.018C319.409 138.308 318.278 138.288 317.568 138.974C316.858 139.659 316.838 140.791 317.523 141.501C327.254 151.425 333.517 164.227 335.38 178.001C335.656 179.781 335.909 181.564 336.139 183.351C334.137 178.217 331.386 173.379 327.952 169.001C311.759 149.347 291.856 142.873 275.372 138.054L271.384 136.893C269.739 136.411 268.13 135.929 266.559 135.447C257.718 132.716 254.395 130.177 253.164 128.827C253.204 128.447 253.21 128.063 253.184 127.679L253.183 81.1068ZM234.47 80.3399C207.791 80.3399 181.809 94.0006 164.827 117.59C158.041 126.983 153.577 141.608 152.863 156.697C152.417 166.232 153.373 175.781 155.697 185.038L155.748 185.187L155.791 185.34C156.378 187.662 157.047 189.961 157.797 192.232L157.794 190.947C157.872 169.696 164.58 135.556 201.845 112.286C202.387 111.948 203.068 111.925 203.632 112.226C204.196 112.526 204.557 113.105 204.579 113.744C204.6 114.382 204.28 114.984 203.738 115.322C165.722 139.065 160.768 174.554 161.402 194.489C163.969 186.057 168.321 175.573 175.488 166.858C190.773 148.301 206.043 142.94 220.873 138.692L224.452 137.679C226.154 137.203 227.849 136.727 229.54 136.229L232.077 135.465C240.709 132.884 244.083 130.36 245.364 129.009C245.293 128.542 245.275 128.066 245.309 127.59L245.308 81.1425L245.184 81.1256C241.635 80.6126 238.055 80.3501 234.47 80.3399ZM310.577 130.572C305.277 126.497 299.45 123.157 293.255 120.643C292.36 120.395 291.423 120.874 291.102 121.746C290.78 122.618 291.181 123.591 292.023 123.983C297.878 126.412 303.393 129.587 308.434 133.429C308.743 133.661 309.119 133.786 309.505 133.786C310.067 133.786 310.597 133.522 310.934 133.072C311.218 132.693 311.34 132.217 311.273 131.748C311.206 131.279 310.956 130.856 310.577 130.572Z" fill="#372168"/>
<path fill-rule="evenodd" clip-rule="evenodd" d="M300.302 356.036C300.302 356.036 292.605 325.107 336.445 327.161C336.445 327.161 336.248 366.607 300.302 356.036Z" fill="#BDCBFF"/>
<path fill-rule="evenodd" clip-rule="evenodd" d="M299.355 359.465C303.354 360.699 307.51 361.355 311.695 361.411C317.294 361.543 322.78 359.823 327.302 356.518C339.855 347.179 340.087 327.983 340.087 327.161C340.09 325.256 338.597 323.685 336.695 323.59C320.123 322.822 308.391 326.483 301.82 334.5C293.873 344.197 296.766 356.393 296.909 356.911C297.216 358.135 298.146 359.105 299.355 359.465ZM323.034 350.804C318.23 354.393 311.677 355.197 303.534 353.197L303.463 353.215C302.851 348.164 304.256 343.075 307.373 339.054C311.927 333.465 320.338 330.643 332.373 330.643H332.695C332.07 335.857 329.98 345.643 323.034 350.804Z" fill="#372168"/>
<path d="M300.302 357.822C300.083 357.821 299.866 357.785 299.659 357.715C299.216 357.546 298.858 357.209 298.664 356.777C298.47 356.345 298.455 355.854 298.623 355.411C302.195 345.84 320.552 337.179 321.338 336.822C322.225 336.415 323.276 336.797 323.695 337.679C324.114 338.571 323.73 339.635 322.838 340.054C317.909 342.357 304.552 349.857 301.963 356.679C301.697 357.366 301.038 357.819 300.302 357.822Z" fill="#372168"/>
<path fill-rule="evenodd" clip-rule="evenodd" d="M299.195 343.75V362.143C298.391 367.947 286.802 372.857 270.355 375.232C263.474 376.188 256.535 376.671 249.588 376.679H248.338C245.98 376.679 243.659 376.679 241.391 376.5C236.516 376.286 231.873 375.857 227.57 375.232C211.213 372.929 199.659 368.09 198.748 362.232V343.768C198.742 343.362 198.991 342.995 199.371 342.851C199.751 342.707 200.18 342.817 200.445 343.125C204.338 347.447 214.391 351 227.57 352.857C231.248 353.393 235.177 353.786 239.284 354.018C242.213 354.197 245.248 354.286 248.338 354.304H249.588C256.535 354.296 263.474 353.813 270.355 352.857C275.888 352.138 281.34 350.9 286.641 349.161C290.694 348.054 294.419 345.983 297.498 343.125C297.761 342.819 298.186 342.709 298.564 342.848C298.942 342.987 299.194 343.347 299.195 343.75Z" fill="#BDCBFF"/>
<path fill-rule="evenodd" clip-rule="evenodd" d="M248.355 380.25H248.355L249.802 380.179C256.911 380.172 264.011 379.676 271.052 378.697C280.141 377.482 301.445 373.34 302.927 362.625C302.936 362.465 302.936 362.304 302.927 362.143V343.625C302.93 341.74 301.767 340.049 300.005 339.379C298.243 338.708 296.249 339.197 294.998 340.607C294.088 341.625 291.659 343.625 285.641 345.661C280.547 347.328 275.311 348.524 269.998 349.232C263.288 350.161 256.522 350.633 249.748 350.643H248.516C245.32 350.625 242.338 350.536 239.588 350.357C235.641 350.143 231.748 349.75 228.177 349.232C213.552 347.179 205.659 343.447 203.177 340.697C201.935 339.263 199.933 338.753 198.158 339.418C196.382 340.083 195.207 341.783 195.213 343.679V362.143V362.697C196.891 373.411 218.123 377.5 227.052 378.768C231.498 379.411 236.266 379.84 241.213 380.072C243.445 380.25 245.748 380.25 248.355 380.25ZM228.088 371.697C211.409 369.339 203.123 364.625 202.338 361.875V349.089C209.516 353.357 220.409 355.447 227.07 356.393C230.891 356.947 234.927 357.339 239.088 357.572C241.945 357.75 245.052 357.875 248.355 357.875H249.623C256.732 357.868 263.832 357.373 270.873 356.393C276.625 355.645 282.293 354.353 287.802 352.536C290.529 351.658 293.156 350.497 295.641 349.072V361.822C294.855 364.554 286.677 369.322 269.855 371.697C263.145 372.625 256.38 373.097 249.605 373.107H248.373C245.909 373.089 243.677 373.036 241.57 372.929C236.838 372.714 232.32 372.304 228.088 371.697Z" fill="#372168"/>
<path fill-rule="evenodd" clip-rule="evenodd" d="M239.302 354.018C220.748 362.465 206.052 362.679 200.82 362.411C199.48 362.411 198.766 362.232 198.766 362.232V343.768C198.76 343.362 199.009 342.995 199.389 342.851C199.769 342.707 200.198 342.817 200.463 343.125C204.355 347.447 214.409 351 227.588 352.857C231.338 353.393 235.195 353.786 239.302 354.018Z" fill="#FF7DB0"/>
<path fill-rule="evenodd" clip-rule="evenodd" d="M200.641 366.036H203.427C216.381 365.799 229.138 362.816 240.855 357.286C242.357 356.608 243.2 354.99 242.895 353.37C242.59 351.75 241.216 350.55 239.57 350.465C235.623 350.25 231.73 349.858 228.159 349.34C213.534 347.286 205.641 343.554 203.159 340.804C201.918 339.371 199.916 338.861 198.14 339.526C196.364 340.191 195.189 341.89 195.195 343.786V362.25C195.175 364.031 196.47 365.555 198.23 365.822C198.23 365.822 199.07 365.947 200.641 366.036ZM223.766 355.893C216.807 357.93 209.588 358.941 202.338 358.893V349.09C208.355 352.715 217.159 354.786 223.766 355.893Z" fill="#372168"/>
<path fill-rule="evenodd" clip-rule="evenodd" d="M273.177 360.84C278.151 357.538 282.682 353.613 286.659 349.161C290.712 348.054 294.437 345.983 297.516 343.125C297.75 342.729 298.231 342.552 298.666 342.704C299.1 342.857 299.367 343.295 299.302 343.75V362.143C298.498 367.947 286.909 372.858 270.463 375.233C263.581 376.188 256.642 376.671 249.695 376.679H248.445C246.088 376.679 243.766 376.679 241.498 376.5C248.231 374.116 254.794 371.276 261.141 368" fill="#C2EB93"/>
<path d="M248.355 380.25C245.748 380.25 243.445 380.25 241.213 380.072C239.498 379.996 238.08 378.711 237.836 377.013C237.591 375.314 238.589 373.682 240.213 373.125C246.784 370.789 253.191 368.015 259.391 364.822C260.527 364.235 261.889 364.298 262.965 364.988C264.041 365.678 264.668 366.89 264.608 368.167C264.549 369.444 263.812 370.592 262.677 371.179L259.516 372.768C263.088 372.536 266.552 372.161 269.838 371.697C286.659 369.322 294.838 364.554 295.623 361.822V349.072C293.417 350.339 291.098 351.398 288.695 352.233C284.666 356.616 280.121 360.496 275.159 363.786C273.527 364.896 271.304 364.472 270.195 362.84C269.085 361.208 269.509 358.985 271.141 357.875C275.867 354.764 280.165 351.048 283.927 346.822C284.353 346.343 284.893 345.98 285.498 345.768C291.498 343.75 293.927 341.75 294.838 340.733C296.089 339.322 298.082 338.833 299.844 339.504C301.606 340.174 302.769 341.865 302.766 343.75V362.143C302.775 362.304 302.775 362.465 302.766 362.625C301.284 373.34 279.98 377.483 270.891 378.697C263.85 379.677 256.75 380.172 249.641 380.179L248.355 380.25Z" fill="#372168"/>
<path fill-rule="evenodd" clip-rule="evenodd" d="M299.302 352.322C299.302 352.322 318.302 337.036 330.98 368.125C330.98 368.125 303.552 380.679 299.302 352.322Z" fill="#EBB759"/>
<path fill-rule="evenodd" clip-rule="evenodd" d="M307.23 371.911C310.574 373.652 314.3 374.53 318.07 374.465C323.028 374.381 327.923 373.332 332.48 371.375C334.213 370.566 335.001 368.534 334.266 366.768C329.373 354.768 322.873 347.643 314.927 345.59C305.23 343.09 297.391 349.286 297.07 349.554C296.086 350.35 295.597 351.606 295.784 352.858C297.159 362.143 301.016 368.554 307.23 371.911ZM310.641 365.643C306.963 363.643 304.48 359.75 303.248 354.036C306.242 352.318 309.767 351.77 313.141 352.5C318.016 353.768 322.48 358.429 326.159 366.054C322.266 367.179 315.695 368.375 310.641 365.643Z" fill="#372168"/>
<path d="M315.141 362.608C314.579 362.608 314.05 362.343 313.713 361.893C308.355 354.875 299.266 354.108 299.177 354.108C298.197 354.032 297.462 353.177 297.534 352.197C297.61 351.217 298.464 350.482 299.445 350.554C299.891 350.554 310.338 351.447 316.57 359.75C316.854 360.129 316.976 360.606 316.909 361.074C316.842 361.543 316.591 361.966 316.213 362.25C315.903 362.482 315.527 362.608 315.141 362.608Z" fill="#372168"/>
</g>
<path fill-rule="evenodd" clip-rule="evenodd" d="M0 250C0 111.929 111.929 0 250 0C388.071 0 500 111.929 500 250C500 388.071 388.071 500 250 500C111.929 500 0 388.071 0 250ZM492.857 250C492.857 115.874 384.126 7.14286 250 7.14286C115.874 7.14286 7.14286 115.874 7.14286 250C7.14286 384.126 115.874 492.857 250 492.857C384.126 492.857 492.857 384.126 492.857 250Z" fill="#372168"/>
</svg>
