<svg width="500" height="500" viewBox="0 0 500 500" fill="none" xmlns="http://www.w3.org/2000/svg">
<path fill-rule="evenodd" clip-rule="evenodd" d="M250 496.429C386.099 496.429 496.429 386.099 496.429 250C496.429 113.901 386.099 3.57141 250 3.57141C113.901 3.57141 3.57141 113.901 3.57141 250C3.57141 386.099 113.901 496.429 250 496.429Z" fill="#E7EEFF"/>
<mask id="mask0_0_272" style="mask-type:alpha" maskUnits="userSpaceOnUse" x="3" y="3" width="494" height="494">
<path fill-rule="evenodd" clip-rule="evenodd" d="M250 496.429C386.099 496.429 496.429 386.099 496.429 250C496.429 113.901 386.099 3.57141 250 3.57141C113.901 3.57141 3.57141 113.901 3.57141 250C3.57141 386.099 113.901 496.429 250 496.429Z" fill="white"/>
</mask>
<g mask="url(#mask0_0_272)">
<path fill-rule="evenodd" clip-rule="evenodd" d="M336.359 210.077L336.357 210.036C337.536 196.964 339.357 159.232 324.071 134.357C305.536 104.339 275.161 95.5535 249.464 95.9821C223.732 95.5535 193.357 104.339 174.821 134.357C159.554 159.125 161.375 196.911 162.571 209.929V210.03C158.281 208.601 153.604 208.884 149.518 210.821C140.161 215.268 136.089 230.125 145.018 243.714C151.783 254.04 163.198 255.882 171.903 253.893C172.226 254.732 172.545 255.575 172.861 256.412C173.129 257.12 173.395 257.825 173.661 258.518L174.768 261.286C180.393 275.65 188.675 288.826 199.179 300.125C203.705 304.911 208.768 309.159 214.268 312.786C224.14 319.474 235.722 323.192 247.643 323.5H251.214C263.136 323.197 274.719 319.478 284.589 312.786C288.752 310.04 292.665 306.938 296.286 303.517C292.663 306.963 288.743 310.089 284.571 312.857C274.702 319.55 263.118 323.269 251.196 323.571H247.625C235.705 323.264 224.122 319.545 214.25 312.857C208.75 309.231 203.687 304.982 199.161 300.196V359.357C200.071 365.125 211.625 370.054 227.982 372.357C234.864 373.312 241.803 373.796 248.75 373.804H250C256.948 373.796 263.886 373.312 270.768 372.357C287.214 369.982 298.804 365.071 299.607 359.268V300.201L299.696 300.107C310.194 288.814 318.47 275.644 324.089 261.286L325.196 258.518C325.814 257.001 326.396 255.431 326.961 253.878C335.674 255.891 347.129 254.065 353.911 243.714C362.768 230.125 358.768 215.268 349.375 210.875C345.301 208.942 340.638 208.656 336.359 210.077ZM168.304 242.786C168.661 244.021 169.028 245.245 169.406 246.457C169.011 245.278 168.62 244.09 168.232 242.893C167.946 241.946 167.607 240.768 167.393 239.964L167.392 239.962L167.392 239.96C167.178 239.157 166.893 238.088 166.75 237.482C166.693 237.24 166.648 237.035 166.601 236.825L166.6 236.823C166.53 236.507 166.457 236.179 166.339 235.696C166.241 235.295 166.156 234.879 166.071 234.464C165.987 234.049 165.902 233.634 165.804 233.232C165.607 232.429 165.446 231.625 165.286 230.786L165.179 230.232C164.982 229.161 164.786 228.071 164.607 226.964C164.464 226.19 164.339 225.405 164.232 224.607C164.214 224.515 164.194 224.422 164.174 224.328L164.173 224.326C164.096 223.968 164.018 223.603 164.018 223.25C163.857 222.125 163.696 220.982 163.554 219.821C163.387 218.548 163.244 217.315 163.125 216.125C163.018 215.625 162.964 215.125 162.964 214.625C162.964 214.625 163.089 214.286 162.964 214.018C162.896 213.872 162.892 213.638 162.887 213.419C162.884 213.235 162.88 213.062 162.839 212.964C162.784 212.833 162.784 212.809 162.779 212.682C162.775 212.602 162.771 212.481 162.75 212.268L162.74 212.171L162.733 212.101C162.738 212.123 162.744 212.143 162.75 212.161C162.791 212.274 162.787 212.34 162.783 212.418C162.777 212.512 162.771 212.623 162.839 212.857C162.907 213.091 162.912 213.266 162.916 213.441C162.92 213.587 162.924 213.732 162.964 213.911C163.054 214.304 163.054 214.518 163.054 214.518C163.068 214.718 163.094 214.918 163.119 215.118C163.158 215.418 163.196 215.718 163.196 216.018C163.312 217.177 163.459 218.368 163.594 219.46L163.625 219.714C163.768 220.875 163.929 222.018 164.089 223.143C164.114 223.298 164.137 223.456 164.16 223.614C164.202 223.91 164.245 224.209 164.304 224.5C164.411 225.298 164.536 226.083 164.679 226.857C164.857 227.964 165.054 229.054 165.25 230.125L165.357 230.679C165.438 231.098 165.527 231.5 165.616 231.902C165.705 232.304 165.795 232.705 165.875 233.125C165.967 233.603 166.087 234.133 166.197 234.617C166.28 234.981 166.357 235.321 166.411 235.589C166.536 236.214 166.679 236.804 166.821 237.375L166.933 237.814C167.097 238.458 167.245 239.038 167.464 239.857C167.732 240.857 168.018 241.839 168.304 242.786ZM162.634 211.15C162.641 211.261 162.649 211.369 162.657 211.471C162.623 211.182 162.595 210.883 162.59 210.571C162.607 210.764 162.621 210.961 162.634 211.15Z" fill="#FFD6CB"/>
<path d="M28.5707 496.428C28.9183 495.049 29.1003 494.313 29.4544 492.974C29.7006 492.043 29.9441 491.122 30.1785 490.214C31.1785 486.643 32.1963 483.071 33.2321 479.804C33.356 479.409 33.48 479.016 33.6034 478.626C33.8711 477.778 34.1361 476.938 34.3928 476.107C34.6785 475.214 34.9642 474.321 35.2499 473.5C36.0356 471.143 36.8213 468.857 37.6071 466.661C39.3809 461.732 41.1666 457.196 42.9642 453.054C43.4106 452 43.8571 450.964 44.3035 449.964L44.5713 449.375C45.5356 447.161 46.5178 445.089 47.4999 443.125C50.2914 437.275 53.6023 431.687 57.3928 426.429C57.4429 426.353 57.4969 426.282 57.5493 426.213L57.5494 426.213C57.609 426.134 57.6667 426.058 57.7142 425.982C58.6963 424.696 59.6428 423.536 60.5535 422.536L60.6606 422.411C61.3019 421.689 61.9832 420.988 62.6596 420.291C62.8873 420.057 63.1144 419.823 63.3392 419.589C69.0978 413.797 75.4344 408.609 82.2499 404.107L84.3213 402.732C85.369 402.042 86.4404 401.363 87.5356 400.696C90.1785 399.054 92.8928 397.464 95.6964 395.911C100.321 393.339 105.107 390.911 109.982 388.607C115.875 385.821 121.875 383.25 127.839 380.821L131.893 379.214C133.053 378.75 134.232 378.304 135.464 377.875C140.678 375.893 145.857 374.071 150.911 372.375C160.696 369.089 169.964 366.339 178.143 364.071C186.607 361.732 193.857 359.911 199.196 358.625C199.17 358.874 199.17 359.126 199.196 359.375C200.107 365.143 211.696 370.089 228.018 372.375C234.899 373.33 241.838 373.814 248.786 373.821H250.036C256.983 373.814 263.922 373.33 270.804 372.375C287.25 370.054 298.839 365.089 299.643 359.286C299.66 359.066 299.66 358.845 299.643 358.625C305 359.929 312.321 361.75 320.839 364.107C328.982 366.357 338.196 369.107 347.928 372.375C354.107 374.446 360.428 376.714 366.875 379.214C370.149 380.476 373.417 381.804 376.678 383.196L380.411 384.786L383.411 386.107C390.143 389.143 396.768 392.393 403.053 395.911C406.982 398.089 410.803 400.357 414.446 402.732L415.464 403.411C417.25 404.554 419.036 405.732 420.607 406.982C425.886 410.723 430.838 414.905 435.411 419.482C436.375 420.446 437.303 421.429 438.196 422.429C439.286 423.635 440.312 424.899 441.268 426.214V426.321C442.089 427.429 442.946 428.643 443.786 429.893C446.514 434.095 448.983 438.46 451.178 442.964C452.232 445.107 453.286 447.375 454.375 449.804C455.053 451.339 455.732 452.929 456.411 454.571C456.875 455.677 457.326 456.811 457.787 457.974L457.946 458.375C458.958 460.946 459.976 463.655 461 466.5C461.786 468.696 462.571 470.982 463.357 473.339C464.262 476.113 465.173 478.994 466.089 481.982C466.219 482.421 466.351 482.862 466.484 483.306L466.488 483.32L466.489 483.323C466.738 484.154 466.989 484.993 467.232 485.839L467.341 486.218C467.689 487.426 468.073 488.762 468.429 490.054C469.054 492.268 469.089 494.089 469.642 496.428H28.5707Z" fill="#FF6666"/>
<g style="mix-blend-mode:soft-light" opacity="0.8">
<path d="M320.929 364.089C316.518 370.839 309.143 376.197 299.679 380.161C291.583 383.427 283.114 385.677 274.464 386.857C257.921 389.19 241.133 389.19 224.589 386.857C215.891 385.664 207.373 383.396 199.232 380.107C189.822 376.143 182.5 370.786 178.107 364.036C186.572 361.696 193.822 359.875 199.161 358.589C199.135 358.839 199.135 359.09 199.161 359.339C200.072 365.107 211.661 370.054 227.982 372.339C234.864 373.295 241.803 373.778 248.75 373.786H250C256.948 373.778 263.886 373.295 270.768 372.339C287.214 370.018 298.804 365.054 299.607 359.25C299.625 359.03 299.625 358.809 299.607 358.589C305.107 359.911 312.411 361.732 320.929 364.089Z" fill="white"/>
</g>
<g style="mix-blend-mode:multiply" opacity="0.15">
<path fill-rule="evenodd" clip-rule="evenodd" d="M296.036 303.786V356.107C251.536 356.804 218.571 333.893 202.839 320.197V303.75C206.379 307.132 210.222 310.181 214.321 312.857C224.197 319.539 235.777 323.257 247.696 323.572H251.268C263.187 323.257 274.768 319.539 284.643 312.857C288.703 310.179 292.516 307.143 296.036 303.786Z" fill="#7C3830"/>
</g>
<path fill-rule="evenodd" clip-rule="evenodd" d="M251.405 92.502L249.607 92.518C229.965 92.1608 193.786 96.9644 172.107 132.572C158.313 154.962 157.857 186.762 158.887 204.188L158.974 205.569C155.23 205.217 151.43 205.875 147.982 207.518C142.75 210.188 138.924 214.984 137.482 220.679C135.315 229.276 136.969 238.391 142.018 245.679L142.367 246.206C147.562 253.862 156.293 258.382 165.572 258.179C166.928 258.145 168.279 258.026 169.616 257.82C169.875 258.516 170.14 259.213 170.411 259.911L171.518 262.697C177.149 276.991 185.317 290.146 195.623 301.528L195.714 301.627L195.715 355.745C189.544 357.258 183.316 358.893 177.018 360.625C167.286 363.322 158.322 366.054 149.607 368.982C143.947 370.947 138.839 372.732 134.054 374.518C133.649 374.661 133.268 374.802 132.89 374.945L129.121 376.404C128.211 376.762 127.298 377.131 126.393 377.5L123.777 378.554C118.55 380.687 113.355 382.972 108.304 385.375C103.161 387.804 98.2681 390.286 93.8038 392.786C90.7323 394.5 88.0181 396.089 85.5359 397.625L84.686 398.147C83.844 398.67 83.027 399.192 82.2502 399.714C81.5181 400.179 80.7859 400.661 80.1252 401.125C73.1183 405.706 66.5965 410.989 60.6609 416.893C60.1084 417.526 59.5607 418.08 59.0418 418.606C58.6385 419.014 58.2522 419.406 57.8931 419.804L57.7681 419.964C56.8395 420.964 55.8395 422.179 54.7324 423.643C54.6629 423.719 54.603 423.803 54.5538 423.893L54.3752 424.125L53.4065 425.488C49.8928 430.513 46.8003 435.821 44.1609 441.357C43.2936 442.952 42.5902 444.473 41.9337 445.961L41.1609 447.732L40.4341 449.368C40.1312 450.062 39.8335 450.768 39.5359 451.482L38.9407 452.892C37.3534 456.697 35.7661 460.857 34.1788 465.286C33.3931 467.5 32.5895 469.822 31.8038 472.197L31.5048 473.081L30.9109 474.875L29.3308 479.975C28.7465 481.87 28.1571 483.86 27.5661 485.923L26.6788 489.072C26.397 490.181 26.1022 491.308 25.8051 492.444L25.8033 492.45C25.4985 493.615 25.1912 494.79 24.8931 495.964L24.4109 497.75C24.2591 498.339 24.2617 499.386 24.1077 500H475.001L473.607 495.268C473.607 495.268 472.5 491.089 471.929 489.089C471.643 488.036 471.34 486.964 471.036 485.929L470.732 484.839L469.572 480.929C469.114 479.523 468.684 478.141 468.261 476.782L468.26 476.777L468.259 476.775C467.774 475.218 467.299 473.692 466.804 472.197C466.018 469.822 465.214 467.5 464.429 465.286C463.375 462.411 462.34 459.607 461.322 457.054L461.161 456.607C460.697 455.429 460.232 454.286 459.768 453.197C459.089 451.518 458.393 449.911 457.697 448.339C456.813 446.371 455.999 444.603 455.218 442.96L454.447 441.357C452.18 436.743 449.646 432.265 446.857 427.947C446.494 427.435 446.143 426.92 445.786 426.397L445.785 426.395L445.78 426.388L445.776 426.382L445.775 426.38C445.276 425.649 444.766 424.902 444.197 424.125L444.054 423.947C442.893 422.375 441.786 421.018 440.84 419.982C439.893 418.947 438.911 417.893 437.929 416.911C433.212 412.19 428.105 407.877 422.661 404.018C420.875 402.732 419.107 401.518 417.447 400.447C417.072 400.197 416.697 399.929 416.375 399.732L415.181 398.96C411.971 396.905 408.544 394.879 404.75 392.768C398.697 389.411 392.179 386.161 384.786 382.839L381.732 381.5L380.786 381.089L378 379.893C374.804 378.536 371.572 377.232 368.089 375.875C362.036 373.518 355.786 371.268 348.982 368.982C340.197 366.018 331.018 363.232 321.714 360.661C316.142 359.113 311.158 357.818 307.021 356.777L303.177 355.82L303.18 301.868C313.65 290.402 321.936 277.114 327.625 262.661L328.75 259.839C328.994 259.208 329.236 258.57 329.475 257.934C330.756 258.092 332.047 258.174 333.34 258.179C342.78 258.374 351.652 253.682 356.804 245.768L357.228 245.139C361.94 237.958 363.446 229.123 361.357 220.768C359.904 215.074 356.072 210.281 350.839 207.607C347.544 206.034 343.923 205.364 340.34 205.62C341.456 188.522 341.341 155.535 327.197 132.589C305.857 98.0331 271.243 92.4936 251.405 92.502ZM174.31 368.941L176.707 368.261C181.449 374.391 188.538 379.467 197.822 383.375C206.269 386.798 215.112 389.149 224.143 390.375C232.577 391.587 241.087 392.184 249.607 392.161C258.096 392.211 266.576 391.644 274.982 390.464C283.919 389.235 292.669 386.908 301.036 383.536C310.438 379.612 317.599 374.466 322.363 368.291C330.744 370.648 339.002 373.193 346.947 375.857C353.643 378.107 359.786 380.322 365.732 382.643C369.143 383.964 372.322 385.25 375.465 386.589L379.161 388.161L382.089 389.464C389.286 392.697 395.643 395.857 401.518 399.125C405.607 401.411 409.286 403.607 412.75 405.857L414.713 407.143C416.03 408.014 417.375 408.943 418.732 409.929C423.828 413.559 428.607 417.616 433.018 422.054L433.027 422.063L433.028 422.064L433.031 422.067C433.92 422.973 434.826 423.898 435.697 424.893C436.703 425.999 437.645 427.162 438.518 428.375L438.679 428.572C439.554 429.732 440.304 430.839 441.036 431.964C443.67 436.043 446.056 440.277 448.179 444.643L448.549 445.396C449.169 446.67 449.807 448.032 450.479 449.51L451.304 451.339C451.982 452.857 452.643 454.411 453.322 456.054L453.768 457.136C454.066 457.865 454.363 458.607 454.661 459.357L454.822 459.786C455.804 462.268 456.822 464.964 457.839 467.804L458.426 469.443C459.009 471.102 459.585 472.813 460.161 474.554L460.71 476.209C461.439 478.434 462.161 480.727 462.875 483.089L463.286 484.464L464.322 488C464.411 488.319 464.502 488.639 464.594 488.962C464.796 489.67 465 490.389 465.197 491.125L465.75 493.124L33.0362 492.857L34.0604 489.595C34.9505 486.424 35.8373 483.426 36.6966 480.661L37.8574 476.982C37.9278 476.766 37.9972 476.553 38.066 476.341L38.0746 476.314L38.077 476.307C38.2834 475.671 38.4851 475.05 38.6966 474.429L39.1662 473.034C39.7902 471.186 40.4074 469.389 41.0359 467.661C42.6966 462.804 44.4824 458.304 46.2681 454.232C46.6966 453.214 47.1431 452.197 47.5716 451.232L48.3808 449.399C49.0916 447.809 49.8574 446.2 50.7145 444.5C53.4042 438.864 56.6019 433.484 60.2681 428.429L60.6252 427.929L60.9123 427.567C61.7565 426.502 62.4952 425.571 63.0895 424.929L63.3574 424.643C64.1074 423.75 65.0002 422.857 65.8931 421.964C71.4951 416.4 77.6454 411.416 84.2502 407.089L86.2859 405.75C87.3038 405.089 88.3216 404.429 89.4109 403.768L90.3253 403.204C92.4835 401.882 94.8194 400.525 97.4288 399.072C101.75 396.714 106.482 394.304 111.5 391.929C117.268 389.197 123.214 386.607 129.214 384.232L130.403 383.75L134.381 382.179C135.139 381.883 135.905 381.589 136.679 381.304L138.107 380.768C141.462 379.517 144.969 378.262 148.722 376.972L152 375.857C159.158 373.447 166.502 371.172 174.31 368.941ZM184.393 366.157C188.516 365.055 192.642 363.992 196.732 362.982C201.168 370.959 217.454 374.461 226.094 375.788L227.536 376C234.583 376.981 241.689 377.476 248.804 377.482H250.072C257.181 377.477 264.281 376.981 271.322 376C279.216 374.897 296.294 371.631 301.647 363.858C301.843 363.578 302.024 363.293 302.189 363.002L302.186 363.002L302.25 362.893C302.23 362.93 302.21 362.966 302.189 363.002C304.675 363.572 307.543 364.297 310.758 365.145L314.781 366.219C310.113 370.867 304.525 374.491 298.375 376.857L296.904 377.436C289.53 380.27 281.85 382.239 274.018 383.304C257.825 385.589 241.39 385.589 225.197 383.304C216.793 382.154 208.564 379.971 200.697 376.804C194.553 374.41 188.976 370.761 184.322 366.089L184.393 366.157ZM202.804 308.572V358.947C203.589 361.697 211.875 366.429 228.554 368.768C235.275 369.706 242.053 370.177 248.839 370.179H250.072C256.852 370.176 263.624 369.705 270.34 368.768C277.467 367.762 283.059 366.326 287.189 364.797L287.549 364.661C293.011 362.567 295.752 360.324 295.964 358.786C295.966 358.443 296.014 358.107 296.105 357.784L296.108 308.727C293.577 310.92 290.923 312.971 288.159 314.868L286.768 315.804C277.842 321.844 267.593 325.583 256.933 326.73C255.026 326.945 253.107 327.077 251.179 327.125H247.697L247.583 327.12L247.554 327.125C245.591 327.072 243.637 326.932 241.697 326.706L239.892 326.47L238.853 326.312L237.354 326.054L236.156 325.822C228.056 324.177 220.306 321.02 213.323 316.484L212.375 315.857C209.015 313.66 205.817 311.225 202.804 308.572ZM247.787 99.6839L249.465 99.6965C267.482 99.4108 300.768 103.75 320.893 136.375C335.178 159.533 333.806 195.554 332.772 208.258L332.643 209.75V209.982L335.894 210.257L332.697 210.179L332.695 210.199L332.643 210.197C332.56 211 332.48 211.699 332.412 212.273L332.179 214.072C332.17 214.173 332.17 214.274 332.179 214.375L332.072 215.732C331.786 218.304 331.518 220.518 331.161 222.875C330.804 225.232 330.411 227.518 330 229.679L329.793 230.775C329.649 231.508 329.494 232.238 329.34 232.929L328.883 234.995L328.643 236.018V236.179C328.527 236.679 328.406 237.152 328.286 237.612L327.929 238.964L327.93 239.159C327.69 240.117 327.433 240.953 327.161 241.822L326.784 243.038L326.453 244.077L326.375 244.304C325.572 246.929 324.661 249.661 323.572 252.661V252.839C323.142 254.042 322.69 255.244 322.251 256.409L321.929 257.268L320.266 261.407C314.81 274.796 306.985 287.096 297.161 297.714L297.491 297.352C297.344 297.461 297.203 297.582 297.072 297.714C292.739 302.311 287.885 306.386 282.607 309.857L281.732 310.443C272.643 316.406 262.061 319.714 251.179 319.982H247.697C247.338 319.973 246.979 319.96 246.62 319.944L245.709 319.896L244.376 319.798C234.345 318.949 224.68 315.534 216.322 309.857L215.113 309.046C210.31 305.76 205.871 301.967 201.875 297.732C201.772 297.623 201.663 297.522 201.546 297.433C191.505 286.512 183.571 273.827 178.143 260.018L177.054 257.304C176.869 256.822 176.685 256.331 176.5 255.837L175.393 252.857L175.072 252.679C173.822 249.197 172.625 245.536 171.5 241.822C171.375 241.395 171.233 240.889 171.099 240.407L171.097 240.402L170.967 239.935L170.598 238.661C170.532 238.425 170.466 238.167 170.398 237.893L169.991 236.244C169.968 236.145 169.946 236.047 169.924 235.946C169.907 235.869 169.889 235.79 169.872 235.71C169.812 235.434 169.747 235.137 169.661 234.786L169.484 234.042C169.367 233.54 169.256 233.024 169.161 232.5V232.322C168.982 231.589 168.822 230.839 168.679 230.036L168.572 229.536L167.877 225.542C167.796 225.064 167.72 224.572 167.661 224.072C167.661 224.048 167.675 224.042 167.689 224.036C167.716 224.024 167.744 224.012 167.661 223.857C167.536 223.625 167.536 223.375 167.536 223.143V222.679C167.482 222.316 167.431 221.945 167.38 221.57L166.954 218.447C166.841 217.577 166.737 216.67 166.643 215.732L166.543 214.826L166.518 214.375C166.528 214.262 166.528 214.149 166.518 214.036L166.321 212.39L166.322 211.75C166.31 211.605 166.289 211.447 166.266 211.274C166.218 210.912 166.161 210.483 166.161 209.964L166.15 209.69C166.129 209.418 166.078 209.153 165.998 208.899L165.907 207.817C164.874 194.745 163.647 159.321 177.804 136.375C197.342 104.729 229.281 99.6966 247.787 99.6839ZM340.114 212.879L339.767 212.935L339.563 214.58C339.537 214.767 339.516 214.908 339.5 215L339.393 216.339C339.127 218.824 338.862 221.062 338.56 223.078L338.429 223.929L338.334 224.52L338.333 224.528C337.999 226.619 337.623 228.971 337.232 231.072C337.089 231.857 336.939 232.627 336.78 233.392L336.536 234.536L336.479 234.795C336.255 235.819 336.07 236.666 335.839 237.589V237.768L335.67 238.453C338.062 238.329 340.29 237.109 341.679 235.107C343.397 232.746 343.679 229.631 342.411 227C341.88 226.171 342.119 225.069 342.947 224.536C343.775 224.005 344.878 224.244 345.411 225.072C347.292 228.649 347.173 232.947 345.098 236.415C343.023 239.883 339.291 242.02 335.25 242.054L335.322 242.089C335.12 242.089 334.919 242.081 334.718 242.067L334.461 242.971L334.197 243.857C333.893 244.857 333.643 245.643 333.339 246.5C332.897 247.941 332.408 249.455 331.871 251.043L331.732 251.036C339.141 251.719 346.329 248.374 350.581 242.306L350.911 241.822C354.771 236.266 356.071 229.326 354.482 222.75C353.59 219.044 351.152 215.897 347.786 214.107C345.57 213.04 343.112 212.598 340.676 212.816L340.114 212.879ZM151.036 214.054C152.87 213.175 154.877 212.717 156.911 212.714C157.733 212.727 158.552 212.817 159.357 212.982V213.393C159.413 213.589 159.416 213.756 159.418 213.913C159.42 214.058 159.422 214.194 159.464 214.339C159.518 214.522 159.54 214.678 159.548 214.805L159.554 215.018C159.583 215.508 159.636 215.997 159.714 216.482C159.756 216.911 159.802 217.337 159.849 217.761L160.143 220.25C160.286 221.464 160.447 222.625 160.625 223.822V224.232L160.786 225.197C160.84 225.607 160.902 226.018 160.967 226.415L161.35 228.679C161.465 229.334 161.589 229.991 161.713 230.653L161.768 230.947L161.857 231.464L162.462 234.334L162.929 236.447L163.357 238.232V238.429L163.375 238.499C160.829 238.501 158.422 237.251 156.964 235.125C155.259 232.765 154.985 229.659 156.25 227.036C156.781 226.207 156.542 225.105 155.715 224.572C154.886 224.04 153.784 224.28 153.25 225.107C151.369 228.684 151.488 232.983 153.563 236.451C155.638 239.919 159.37 242.055 163.411 242.089C163.716 242.095 164.021 242.085 164.325 242.061L164.433 242.052L164.59 242.036C164.537 242.042 164.485 242.047 164.433 242.052C164.397 242.055 164.361 242.058 164.325 242.061L164.321 242.061L164.84 243.839C165.572 246.268 166.322 248.643 167.107 250.982C159.504 251.688 152.13 248.145 147.929 241.768L147.55 241.208C143.974 235.755 142.811 229.052 144.357 222.697C145.244 218.992 147.675 215.846 151.036 214.054Z" fill="#372168"/>
<path fill-rule="evenodd" clip-rule="evenodd" d="M302.189 363.002C302.21 362.966 302.23 362.93 302.25 362.893L302.186 363.002L302.189 363.002ZM164.433 242.052L164.59 242.036C164.537 242.042 164.485 242.047 164.433 242.052Z" fill="#372168"/>
<g style="mix-blend-mode:multiply" opacity="0.15">
<path fill-rule="evenodd" clip-rule="evenodd" d="M218.75 249.583C218.75 260.484 210.755 269.32 200.893 269.32C191.031 269.32 183.036 260.484 183.036 249.583C183.036 238.683 191.031 229.846 200.893 229.846C210.755 229.846 218.75 238.683 218.75 249.583ZM315.178 249.583C315.178 260.484 307.184 269.32 297.321 269.32C287.459 269.32 279.464 260.484 279.464 249.583C279.464 238.683 287.459 229.846 297.321 229.846C307.184 229.846 315.178 238.683 315.178 249.583Z" fill="#FF1300"/>
</g>
<path d="M253.768 278.839H244.232C243.246 278.839 242.446 278.04 242.446 277.054C242.446 276.067 243.246 275.268 244.232 275.268H253.768C254.754 275.268 255.554 276.067 255.554 277.054C255.554 278.04 254.754 278.839 253.768 278.839Z" fill="#372168"/>
<path d="M249 270.321C241.696 270.321 234.964 267.803 231.018 263.607C230.252 262.794 229.979 261.634 230.3 260.564C230.622 259.494 231.49 258.677 232.577 258.421C233.664 258.165 234.806 258.508 235.571 259.321C238.321 262.25 243.464 264.071 249 264.071C254.536 264.071 259.714 262.286 262.429 259.321C263.194 258.508 264.335 258.165 265.423 258.421C266.51 258.677 267.378 259.494 267.7 260.564C268.021 261.634 267.748 262.794 266.982 263.607C263 267.803 256.304 270.321 249 270.321Z" fill="#372168"/>
<path d="M249.059 246.94C245.159 246.992 241.492 245.089 239.291 241.869C238.354 240.419 238.77 238.484 240.219 237.547C241.669 236.61 243.604 237.026 244.541 238.476C245.628 239.89 247.316 240.711 249.099 240.693C250.882 240.676 252.553 239.822 253.612 238.387C254.51 236.907 256.437 236.436 257.916 237.333C259.395 238.23 259.867 240.157 258.969 241.637C256.809 245.003 253.058 247.01 249.059 246.94Z" fill="#372168"/>
<path d="M286.261 225.446C294.171 225.446 294.189 213.125 286.261 213.125C278.332 213.125 278.314 225.446 286.261 225.446Z" fill="#372168"/>
<path d="M213.1 225.446C221.028 225.446 221.046 213.125 213.1 213.125C205.153 213.125 205.153 225.446 213.1 225.446Z" fill="#372168"/>
<path d="M229.286 204.107C228.715 204.11 228.151 203.975 227.643 203.714C213.589 196.482 199.072 203.714 199.072 203.714C197.316 204.617 195.161 203.925 194.259 202.17C193.357 200.414 194.048 198.26 195.804 197.357C196.518 197 213.661 188.429 230.982 197.357C232.45 198.109 233.212 199.768 232.826 201.372C232.44 202.975 231.006 204.106 229.357 204.107H229.286Z" fill="#372168"/>
<path d="M301.768 204.107C301.203 204.107 300.646 203.972 300.143 203.714C286.072 196.482 271.572 203.714 271.572 203.714C270.431 204.341 269.04 204.297 267.941 203.601C266.842 202.904 266.209 201.665 266.288 200.367C266.367 199.068 267.146 197.915 268.322 197.357C269.036 196.982 286.179 188.429 303.5 197.357C304.988 198.117 305.749 199.807 305.334 201.425C304.919 203.043 303.438 204.157 301.768 204.107Z" fill="#372168"/>
<path d="M249.791 71.6071C259.153 71.5949 268.481 72.7466 277.559 75.0357C275.567 70.4058 273.051 66.02 270.059 61.9643C260.595 49.2143 242.987 35.3571 211.684 37.7678C156.434 42.0535 136.97 111.732 130.684 150.268C126.022 178.801 110.314 195.062 96.6406 209.218C80.6194 225.805 67.3897 239.501 77.9875 266.661C77.9875 266.661 64.6303 309.125 112.595 307.554C112.595 307.554 130.38 333.732 155.845 307.554C167.416 295.643 170.523 275.411 170.273 254.571C160.632 256.349 150.861 252.195 145.452 244.018C136.595 230.429 140.595 215.571 149.952 211.125C150.606 210.814 151.28 210.547 151.97 210.327V210.339C155.553 209.158 159.422 209.158 163.005 210.339L165.273 203.518L183.541 143.214C183.541 143.214 183.541 162.768 188.595 174.536C189.476 176.548 191.469 177.846 193.666 177.839H307.148C309.415 177.822 311.441 176.419 312.255 174.304C316.363 163.589 316.362 146.393 316.362 146.393L336.541 210.339C340.125 209.158 343.993 209.158 347.577 210.339V155.25C347.577 117.339 318.041 85.3035 277.541 75.0535C268.463 72.7644 259.135 71.6127 249.773 71.625C210.321 71.625 176.326 91.6284 160.862 120.386C172.701 98.3437 195.422 81.4525 223.148 74.75C231.874 72.6572 240.817 71.6023 249.791 71.6071Z" fill="#8C9AD9"/>
<path fill-rule="evenodd" clip-rule="evenodd" d="M272.88 59.7679C275.743 63.6083 278.196 67.7369 280.197 72.0857C322.146 83.3918 351.237 117.4 351.237 155.304V210.393C351.24 211.545 350.687 212.628 349.752 213.301C348.817 213.974 347.615 214.154 346.523 213.786C343.625 212.819 340.492 212.819 337.595 213.786C337.257 213.876 336.908 213.919 336.559 213.911C335.003 213.915 333.623 212.911 333.148 211.429L318.398 164.679C317.808 168.388 316.876 172.035 315.612 175.571C314.246 179.076 310.873 181.385 307.112 181.393H193.63C190.008 181.404 186.727 179.254 185.291 175.929C183.498 171.466 182.234 166.81 181.523 162.054L168.702 204.393V204.643L166.434 211.464C165.821 213.319 163.832 214.337 161.97 213.75C159.296 212.866 156.424 212.807 153.724 213.573L153.148 213.75C152.846 213.852 152.536 213.912 152.225 213.931C151.957 214.031 151.693 214.145 151.434 214.268C148.076 216.064 145.646 219.209 144.755 222.911C143.215 229.267 144.379 235.966 147.949 241.422L148.327 241.982C155.112 252.304 166.345 251.464 169.612 250.911C170.636 250.751 171.679 251.045 172.47 251.714C173.26 252.381 173.723 253.359 173.737 254.393C174.036 280.321 169.161 298.323 158.789 309.389L158.291 309.911C150.13 318.5 141.72 322.768 133.309 322.768C132.571 322.768 131.839 322.732 131.112 322.661C120.666 321.75 113.541 314.446 110.809 311.143C95.7731 311.321 84.9695 307.161 78.666 298.839C69.8267 287.196 73.0231 271.357 74.1838 266.804C63.9838 239.375 77.2188 224.158 92.1495 208.655L96.4054 204.242C109.181 190.93 122.86 175.471 127.112 149.571L127.451 147.528C133.25 113.315 152.772 38.6229 211.362 34.1429C244.595 31.5893 263.148 46.6429 272.88 59.7679ZM211.898 41.2857C157.166 45.4822 139.291 119.232 134.148 150.75C129.441 179.563 114.16 196.046 100.314 210.383L96.2283 214.617C81.7663 229.699 72.1433 241.647 81.2184 265.081L81.4099 265.423C82.7336 267.664 87.2734 273.199 98.7374 270.321C99.6939 270.086 100.661 270.669 100.898 271.625C101.134 272.582 100.551 273.548 99.5945 273.786C97.3522 274.396 95.043 274.726 92.7195 274.768C86.8601 274.768 83.0739 272.51 80.7595 270.265L80.6272 270.942C79.6297 276.257 78.6091 286.86 84.3981 294.411C89.4874 301.089 98.9338 304.268 112.452 303.804L112.541 303.947C113.624 303.95 114.641 304.445 115.313 305.281L115.679 305.779C116.815 307.283 122.909 314.799 131.791 315.554C138.684 316.143 145.898 312.607 153.22 305.071C162.041 295.982 166.452 280.732 166.648 258.482C156.932 258.877 147.726 254.128 142.416 245.982C137.356 238.699 135.695 229.582 137.862 220.982C139.299 215.286 143.127 210.488 148.362 207.821V155.143C148.362 116.232 178.72 81.7143 222.255 71.2143C238.233 67.4058 254.827 66.9558 270.987 69.8929C269.811 67.8764 268.523 65.927 267.13 64.0536C258.487 52.3929 241.862 39.0536 211.898 41.2857ZM198.742 87.8682C213.449 79.8077 230.958 75.125 249.737 75.125C258.804 75.1179 267.837 76.2336 276.63 78.4464C316.273 88.5357 343.97 120.089 343.97 155.232V205.946C342.284 205.801 340.587 205.861 338.916 206.125L319.737 145.321C319.213 143.633 317.532 142.582 315.785 142.851C314.038 143.119 312.749 144.625 312.755 146.393C312.755 146.554 312.702 163 308.88 173.036L308.78 173.246C308.443 173.855 307.802 174.244 307.095 174.25L292.757 174.25C296.648 158.766 291.661 141.094 290.397 137.053L290.13 136.232C289.809 135.301 288.794 134.805 287.862 135.125C287.412 135.276 287.04 135.6 286.829 136.025C286.617 136.451 286.585 136.943 286.737 137.393C286.822 137.612 293.585 157.853 289.067 174.249L250.386 174.249C247.228 160.913 249.902 144.427 251.065 138.381L251.579 135.813C251.692 134.927 251.125 134.078 250.237 133.857C249.776 133.744 249.288 133.821 248.882 134.069C248.477 134.317 248.187 134.716 248.077 135.179L248.048 135.288C247.56 137.193 242.962 157.477 246.632 174.25L211.375 174.251C209.41 168.21 206.515 154.002 214.38 136.321C214.572 135.888 214.584 135.396 214.413 134.954C214.243 134.512 213.903 134.156 213.47 133.964C213.036 133.772 212.544 133.76 212.102 133.931C211.66 134.102 211.304 134.441 211.112 134.875C203.488 151.917 205.211 165.783 207.227 173.173L207.535 174.25L193.612 174.25C192.842 174.26 192.14 173.81 191.827 173.107C187.879 164.044 187.2 149.62 187.083 144.813L187.059 143.196C187.077 141.412 185.775 139.888 184.01 139.627C182.245 139.366 180.558 140.448 180.059 142.161L161.791 202.464V202.571L160.595 206.143C159.501 205.98 158.397 205.896 157.291 205.893L155.523 205.891L155.523 155.143C155.523 127.992 171.903 103.117 197.557 88.5263L198.742 87.8682Z" fill="#372168"/>
<path fill-rule="evenodd" clip-rule="evenodd" d="M275.166 70.1787C275.639 71.0667 275.554 72.1483 274.95 72.9522C274.345 73.7561 273.329 74.1369 272.345 73.9287C264.92 72.4309 257.365 71.6771 249.791 71.6787C241.907 71.6792 234.044 72.4931 226.327 74.1073C225.556 74.2805 224.747 74.0945 224.129 73.6016C223.512 73.1086 223.151 72.362 223.148 71.5716C223.116 66.457 226.533 61.9624 231.47 60.6251C238.452 58.8394 249.934 57.518 266.184 61.1251C268.777 61.713 271.035 63.2973 272.47 65.5358C273.452 67.0716 274.362 68.6251 275.166 70.1787Z" fill="#FFC28F"/>
<path fill-rule="evenodd" clip-rule="evenodd" d="M266.916 57.5717C270.414 58.3751 273.462 60.5076 275.416 63.5181C276.179 64.7101 276.923 65.9322 277.623 67.1693L278.309 68.411C279.459 70.5047 279.27 73.0789 277.827 74.9824C276.406 76.9213 273.983 77.8501 271.63 77.3574C256.889 74.4141 241.705 74.4749 226.987 77.536C226.565 77.6263 226.134 77.6742 225.702 77.6788C222.289 77.6788 219.523 74.9126 219.523 71.5003C219.505 67.2307 221.311 63.2926 224.292 60.5361C217.174 57.79 209.045 58.6062 202.541 62.9645C198.418 65.5292 194.789 68.8135 191.827 72.661C191.468 73.1544 190.882 73.4305 190.273 73.3931C189.897 73.3997 189.528 73.2872 189.219 73.0717C188.832 72.7956 188.571 72.3764 188.494 71.9071C188.43 71.516 188.498 71.1171 188.683 70.7719L188.809 70.5717L188.829 70.5449C189.511 69.6419 206.002 47.8061 227.652 58.2027C228.548 57.7457 229.503 57.3771 230.505 57.1074C237.648 55.2145 249.773 53.7681 266.916 57.5717ZM306.702 106.161C301.866 100.083 295.143 95.7915 287.594 93.9645C286.608 93.7624 285.645 94.398 285.443 95.3842C285.24 96.3704 285.876 97.3338 286.862 97.536L287.508 97.7035C289.911 98.3651 298.469 101.12 303.827 108.375C304.168 108.83 304.705 109.095 305.273 109.09C305.662 109.065 306.032 108.915 306.327 108.661C306.708 108.379 306.962 107.958 307.033 107.489C307.103 107.02 306.984 106.542 306.702 106.161ZM148.058 271.776C148.948 272.125 149.405 273.114 149.094 274.018C147.64 277.724 145.89 281.307 143.862 284.732C143.55 285.288 142.964 285.636 142.327 285.643C141.685 285.643 141.093 285.299 140.775 284.741C140.458 284.184 140.464 283.499 140.791 282.947C142.719 279.673 144.385 276.251 145.773 272.715C146.161 271.84 147.168 271.427 148.058 271.776ZM137.268 290.012C137.899 290.115 138.427 290.547 138.652 291.146C138.878 291.744 138.768 292.417 138.362 292.911C127.092 306.605 110.838 308.517 103.428 308.621L102.755 308.625L102.071 308.62C100.689 308.599 99.7375 308.52 99.5199 308.502L99.518 308.501L99.5051 308.5C98.5189 308.397 97.8034 307.513 97.9069 306.527C98.0031 305.611 98.7717 304.929 99.6706 304.919L100.804 304.98C105.142 305.154 123.737 305.055 135.594 290.643C136 290.149 136.638 289.908 137.268 290.012ZM232.309 64.0003C236.944 62.8404 241.709 62.2763 246.487 62.3217C252.841 62.3696 259.17 63.1121 265.362 64.536C267.035 64.932 268.489 65.963 269.416 67.411L269.817 68.0109C270.217 68.6319 270.612 69.3083 270.987 69.9645C256.352 67.3093 241.348 67.4244 226.755 70.3038C227.195 67.2885 229.373 64.8167 232.309 64.0003Z" fill="#372168"/>
<g opacity="0.7">
<path fill-rule="evenodd" clip-rule="evenodd" d="M240.57 208.393C239.784 217.571 235.534 238.036 210.963 238.036C207.487 238.075 204.021 237.685 200.641 236.875C200.093 236.744 199.558 236.601 199.034 236.446C198.025 236.143 197.035 235.78 196.07 235.357C195.082 234.942 194.122 234.465 193.195 233.929C192.038 233.254 190.944 232.477 189.927 231.607C188.23 230.182 186.766 228.501 185.588 226.625C182.153 220.873 180.821 214.107 181.82 207.482C182.12 205.507 183.821 204.049 185.82 204.054H236.534C237.659 204.05 238.734 204.517 239.501 205.341C240.267 206.165 240.654 207.271 240.57 208.393Z" fill="#FFD87A"/>
<path fill-rule="evenodd" clip-rule="evenodd" d="M285.32 238.018C282.082 238.05 278.855 237.635 275.73 236.786C275.177 236.643 274.641 236.464 274.141 236.286C273.151 235.952 272.185 235.552 271.248 235.089C270.277 234.638 269.345 234.107 268.463 233.5C267.346 232.771 266.294 231.946 265.32 231.036C263.688 229.503 262.265 227.762 261.088 225.857C257.966 220.526 256.132 214.54 255.73 208.375C255.64 207.25 256.026 206.139 256.792 205.311C257.559 204.483 258.638 204.014 259.766 204.018H310.48C312.479 204.013 314.18 205.471 314.48 207.446C315.802 216.054 313.873 238.018 285.32 238.018Z" fill="#FFD87A"/>
</g>
<g opacity="0.49">
<g style="mix-blend-mode:soft-light" opacity="0.8">
<path d="M283.266 204.018L265.409 231.036C263.777 229.503 262.354 227.762 261.177 225.857L275.695 204.018H283.266Z" fill="white"/>
</g>
<g style="mix-blend-mode:soft-light" opacity="0.8">
<path d="M291.891 204.018L271.248 235.089C270.277 234.638 269.345 234.107 268.463 233.5L288.106 204.018L291.891 204.018Z" fill="white"/>
</g>
<g style="mix-blend-mode:soft-light" opacity="0.8">
<path d="M297.498 204.018L275.73 236.786C275.177 236.643 274.641 236.464 274.141 236.286L295.57 204.018H297.498Z" fill="white"/>
</g>
</g>
<g opacity="0.49">
<g style="mix-blend-mode:soft-light" opacity="0.8">
<path d="M208.266 204.018L189.927 231.607C188.23 230.182 186.766 228.501 185.588 226.625L200.588 204.054L208.266 204.018Z" fill="white"/>
</g>
<g style="mix-blend-mode:soft-light" opacity="0.8">
<path d="M216.891 204.018L196.07 235.339C195.082 234.924 194.122 234.447 193.195 233.911L213.052 204.018L216.891 204.018Z" fill="white"/>
</g>
<g style="mix-blend-mode:soft-light" opacity="0.8">
<path d="M222.498 204.018L200.641 236.857C200.093 236.726 199.558 236.583 199.034 236.429L220.587 204.018H222.498Z" fill="white"/>
</g>
</g>
<path fill-rule="evenodd" clip-rule="evenodd" d="M252.159 208.678C252.998 218.571 257.909 241.589 285.338 241.589C296.98 241.589 305.82 238.178 311.552 231.446C317.998 223.964 319.088 213.857 317.998 206.875C317.425 203.169 314.23 200.438 310.48 200.446H259.748C257.619 200.439 255.584 201.326 254.141 202.891C252.698 204.457 251.979 206.557 252.159 208.678ZM259.391 207.821C259.479 207.716 259.611 207.656 259.748 207.661H310.48C310.711 207.658 310.909 207.825 310.945 208.054C311.748 213.214 310.963 221.232 306.123 226.875C301.784 231.946 294.784 234.518 285.338 234.518C274.463 234.518 261.052 229.946 259.266 208.143C259.261 208.023 259.306 207.906 259.391 207.821Z" fill="#372168"/>
<path d="M314.302 220.697C312.534 220.703 311.028 219.414 310.76 217.667C310.491 215.92 311.542 214.239 313.23 213.715L333.588 207.322C335.471 206.73 337.478 207.777 338.07 209.661C338.661 211.545 337.614 213.551 335.73 214.143L315.373 220.518C315.029 220.638 314.667 220.698 314.302 220.697Z" fill="#372168"/>
<path fill-rule="evenodd" clip-rule="evenodd" d="M184.73 231.446C190.498 238.179 199.32 241.589 210.963 241.589C238.373 241.589 243.32 218.571 244.141 208.679C244.31 206.56 243.587 204.466 242.146 202.903C240.706 201.34 238.678 200.45 236.552 200.446H185.82C182.058 200.424 178.853 203.172 178.302 206.893C177.213 213.857 178.32 223.964 184.73 231.446ZM185.355 208.054C185.391 207.825 185.589 207.658 185.82 207.661H236.552C236.687 207.665 236.816 207.723 236.909 207.821C236.989 207.908 237.028 208.025 237.016 208.143C235.159 229.946 221.82 234.518 210.963 234.518C201.498 234.518 194.498 231.946 190.159 226.875C185.355 221.232 184.552 213.214 185.355 208.054Z" fill="#372168"/>
<path d="M258.695 224.786C258.115 224.79 257.545 224.649 257.034 224.375C251.469 221.541 244.884 221.541 239.32 224.375C238.206 225.013 236.837 225.008 235.728 224.363C234.619 223.718 233.938 222.53 233.943 221.247C233.947 219.964 234.635 218.781 235.748 218.143C243.451 214.171 252.599 214.171 260.302 218.143C261.738 218.918 262.466 220.568 262.07 222.152C261.674 223.735 260.255 224.849 258.623 224.857L258.695 224.786Z" fill="#372168"/>
<path d="M182.105 220.696C181.73 220.688 181.357 220.628 180.998 220.518L159.82 213.661C157.941 213.054 156.91 211.039 157.516 209.161C158.123 207.282 160.137 206.251 162.016 206.857L183.195 213.714C184.886 214.239 185.938 215.925 185.665 217.676C185.391 219.426 183.877 220.711 182.105 220.696Z" fill="#372168"/>
<path d="M255.695 210.589H240.445C238.472 210.589 236.873 208.99 236.873 207.018C236.873 205.046 238.472 203.447 240.445 203.447H255.695C257.667 203.447 259.266 205.046 259.266 207.018C259.266 208.99 257.667 210.589 255.695 210.589Z" fill="#372168"/>
</g>
<path fill-rule="evenodd" clip-rule="evenodd" d="M0 250C0 111.929 111.929 0 250 0C388.071 0 500 111.929 500 250C500 388.071 388.071 500 250 500C111.929 500 0 388.071 0 250ZM492.857 250C492.857 115.874 384.126 7.14286 250 7.14286C115.874 7.14286 7.14286 115.874 7.14286 250C7.14286 384.126 115.874 492.857 250 492.857C384.126 492.857 492.857 384.126 492.857 250Z" fill="#372168"/>
</svg>
