<svg width="500" height="500" viewBox="0 0 500 500" fill="none" xmlns="http://www.w3.org/2000/svg">
<path fill-rule="evenodd" clip-rule="evenodd" d="M250 496.429C386.099 496.429 496.429 386.099 496.429 250C496.429 113.901 386.099 3.57141 250 3.57141C113.901 3.57141 3.57141 113.901 3.57141 250C3.57141 386.099 113.901 496.429 250 496.429Z" fill="#E7EEFF"/>
<mask id="mask0_0_295" style="mask-type:alpha" maskUnits="userSpaceOnUse" x="3" y="3" width="494" height="494">
<path fill-rule="evenodd" clip-rule="evenodd" d="M250 496.429C386.099 496.429 496.429 386.099 496.429 250C496.429 113.901 386.099 3.57141 250 3.57141C113.901 3.57141 3.57141 113.901 3.57141 250C3.57141 386.099 113.901 496.429 250 496.429Z" fill="white"/>
</mask>
<g mask="url(#mask0_0_295)">
<path fill-rule="evenodd" clip-rule="evenodd" d="M336.359 210.077L336.357 210.036C337.536 196.964 339.357 159.232 324.071 134.357C305.536 104.339 275.161 95.5535 249.464 95.9821C223.732 95.5535 193.357 104.339 174.821 134.357C159.554 159.125 161.375 196.911 162.571 209.929V210.03C158.281 208.601 153.604 208.884 149.518 210.821C140.161 215.268 136.089 230.125 145.018 243.714C151.783 254.04 163.198 255.882 171.903 253.893C172.226 254.732 172.545 255.575 172.861 256.412C173.129 257.12 173.395 257.825 173.661 258.518L174.768 261.286C180.393 275.65 188.675 288.826 199.179 300.125C203.705 304.911 208.768 309.159 214.268 312.786C224.14 319.474 235.722 323.192 247.643 323.5H251.214C263.136 323.197 274.719 319.478 284.589 312.786C288.752 310.04 292.665 306.938 296.286 303.517C292.663 306.963 288.743 310.089 284.571 312.857C274.702 319.55 263.118 323.269 251.196 323.571H247.625C235.705 323.264 224.122 319.545 214.25 312.857C208.75 309.231 203.687 304.982 199.161 300.196V359.357C200.071 365.125 211.625 370.054 227.982 372.357C234.864 373.312 241.803 373.796 248.75 373.804H250C256.948 373.796 263.886 373.312 270.768 372.357C287.214 369.982 298.804 365.071 299.607 359.268V300.201L299.696 300.107C310.194 288.814 318.47 275.644 324.089 261.286L325.196 258.518C325.814 257.001 326.396 255.431 326.961 253.878C335.674 255.891 347.129 254.065 353.911 243.714C362.768 230.125 358.768 215.268 349.375 210.875C345.301 208.942 340.638 208.656 336.359 210.077ZM168.304 242.786C168.661 244.021 169.028 245.245 169.406 246.457C169.011 245.278 168.62 244.09 168.232 242.893C167.946 241.946 167.607 240.768 167.393 239.964L167.392 239.962L167.392 239.96C167.178 239.157 166.893 238.088 166.75 237.482C166.693 237.24 166.648 237.035 166.601 236.825L166.6 236.823C166.53 236.507 166.457 236.179 166.339 235.696C166.241 235.295 166.156 234.879 166.071 234.464C165.987 234.049 165.902 233.634 165.804 233.232C165.607 232.429 165.446 231.625 165.286 230.786L165.179 230.232C164.982 229.161 164.786 228.071 164.607 226.964C164.464 226.19 164.339 225.405 164.232 224.607C164.214 224.515 164.194 224.422 164.174 224.328L164.173 224.326C164.096 223.968 164.018 223.603 164.018 223.25C163.857 222.125 163.696 220.982 163.554 219.821C163.387 218.548 163.244 217.315 163.125 216.125C163.018 215.625 162.964 215.125 162.964 214.625C162.964 214.625 163.089 214.286 162.964 214.018C162.896 213.872 162.892 213.638 162.887 213.419C162.884 213.235 162.88 213.062 162.839 212.964C162.784 212.833 162.784 212.809 162.779 212.682C162.775 212.602 162.771 212.481 162.75 212.268L162.74 212.171L162.733 212.101C162.738 212.123 162.744 212.143 162.75 212.161C162.791 212.274 162.787 212.34 162.783 212.418C162.777 212.512 162.771 212.623 162.839 212.857C162.907 213.091 162.912 213.266 162.916 213.441C162.92 213.587 162.924 213.732 162.964 213.911C163.054 214.304 163.054 214.518 163.054 214.518C163.068 214.718 163.094 214.918 163.119 215.118C163.158 215.418 163.196 215.718 163.196 216.018C163.312 217.177 163.459 218.368 163.594 219.46L163.625 219.714C163.768 220.875 163.929 222.018 164.089 223.143C164.114 223.298 164.137 223.456 164.16 223.614C164.202 223.91 164.245 224.209 164.304 224.5C164.411 225.298 164.536 226.083 164.679 226.857C164.857 227.964 165.054 229.054 165.25 230.125L165.357 230.679C165.438 231.098 165.527 231.5 165.616 231.902C165.705 232.304 165.795 232.705 165.875 233.125C165.967 233.603 166.087 234.133 166.197 234.617C166.28 234.981 166.357 235.321 166.411 235.589C166.536 236.214 166.679 236.804 166.821 237.375L166.933 237.814C167.097 238.458 167.245 239.038 167.464 239.857C167.732 240.857 168.018 241.839 168.304 242.786ZM162.634 211.15C162.641 211.261 162.649 211.369 162.657 211.471C162.623 211.182 162.595 210.883 162.59 210.571C162.607 210.764 162.621 210.961 162.634 211.15Z" fill="#8F4F48"/>
<path d="M28.5707 496.428C28.9183 495.049 29.1003 494.313 29.4544 492.974C29.7006 492.043 29.9441 491.122 30.1785 490.214C31.1785 486.643 32.1963 483.071 33.2321 479.804C33.356 479.409 33.48 479.016 33.6034 478.626C33.8711 477.778 34.1361 476.938 34.3928 476.107C34.6785 475.214 34.9642 474.321 35.2499 473.5C36.0356 471.143 36.8213 468.857 37.6071 466.661C39.3809 461.732 41.1666 457.196 42.9642 453.054C43.4106 452 43.8571 450.964 44.3035 449.964L44.5713 449.375C45.5356 447.161 46.5178 445.089 47.4999 443.125C50.2914 437.275 53.6023 431.687 57.3928 426.429C57.4429 426.353 57.4969 426.282 57.5493 426.213L57.5494 426.213C57.609 426.134 57.6667 426.058 57.7142 425.982C58.6963 424.696 59.6428 423.536 60.5535 422.536L60.6606 422.411C61.3019 421.689 61.9832 420.988 62.6596 420.291C62.8873 420.057 63.1144 419.823 63.3392 419.589C69.0978 413.797 75.4344 408.609 82.2499 404.107L84.3213 402.732C85.369 402.042 86.4404 401.363 87.5356 400.696C90.1785 399.054 92.8928 397.464 95.6964 395.911C100.321 393.339 105.107 390.911 109.982 388.607C115.875 385.821 121.875 383.25 127.839 380.821L131.893 379.214C133.053 378.75 134.232 378.304 135.464 377.875C140.678 375.893 145.857 374.071 150.911 372.375C160.696 369.089 169.964 366.339 178.143 364.071C186.607 361.732 193.857 359.911 199.196 358.625C199.17 358.874 199.17 359.126 199.196 359.375C200.107 365.143 211.696 370.089 228.018 372.375C234.899 373.33 241.838 373.814 248.786 373.821H250.036C256.983 373.814 263.922 373.33 270.804 372.375C287.25 370.054 298.839 365.089 299.643 359.286C299.66 359.066 299.66 358.845 299.643 358.625C305 359.929 312.321 361.75 320.839 364.107C328.982 366.357 338.196 369.107 347.928 372.375C354.107 374.446 360.428 376.714 366.875 379.214C370.149 380.476 373.417 381.804 376.678 383.196L380.411 384.786L383.411 386.107C390.143 389.143 396.768 392.393 403.053 395.911C406.982 398.089 410.803 400.357 414.446 402.732L415.464 403.411C417.25 404.554 419.036 405.732 420.607 406.982C425.886 410.723 430.838 414.905 435.411 419.482C436.375 420.446 437.303 421.429 438.196 422.429C439.286 423.635 440.312 424.899 441.268 426.214V426.321C442.089 427.429 442.946 428.643 443.786 429.893C446.514 434.095 448.983 438.46 451.178 442.964C452.232 445.107 453.286 447.375 454.375 449.804C455.053 451.339 455.732 452.929 456.411 454.571C456.875 455.677 457.326 456.811 457.787 457.974L457.946 458.375C458.958 460.946 459.976 463.655 461 466.5C461.786 468.696 462.571 470.982 463.357 473.339C464.262 476.113 465.173 478.994 466.089 481.982C466.219 482.421 466.351 482.862 466.484 483.306L466.488 483.32L466.489 483.323C466.738 484.154 466.989 484.993 467.232 485.839L467.341 486.218C467.689 487.426 468.073 488.762 468.429 490.054C469.054 492.268 469.089 494.089 469.642 496.428H28.5707Z" fill="#F3B9AA"/>
<g style="mix-blend-mode:soft-light" opacity="0.8">
<path d="M320.929 364.089C316.518 370.839 309.143 376.197 299.679 380.161C291.583 383.427 283.114 385.677 274.464 386.857C257.921 389.19 241.133 389.19 224.589 386.857C215.891 385.664 207.373 383.396 199.232 380.107C189.822 376.143 182.5 370.786 178.107 364.036C186.572 361.696 193.822 359.875 199.161 358.589C199.135 358.839 199.135 359.09 199.161 359.339C200.072 365.107 211.661 370.054 227.982 372.339C234.864 373.295 241.803 373.778 248.75 373.786H250C256.948 373.778 263.886 373.295 270.768 372.339C287.214 370.018 298.804 365.054 299.607 359.25C299.625 359.03 299.625 358.809 299.607 358.589C305.107 359.911 312.411 361.732 320.929 364.089Z" fill="white"/>
</g>
<g style="mix-blend-mode:multiply" opacity="0.15">
<path fill-rule="evenodd" clip-rule="evenodd" d="M296.036 303.786V356.107C251.536 356.804 218.571 333.893 202.839 320.197V303.75C206.379 307.132 210.222 310.181 214.321 312.857C224.197 319.539 235.777 323.257 247.696 323.572H251.268C263.187 323.257 274.768 319.539 284.643 312.857C288.703 310.179 292.516 307.143 296.036 303.786Z" fill="#7C3830"/>
</g>
<path fill-rule="evenodd" clip-rule="evenodd" d="M251.405 92.502L249.607 92.518C229.965 92.1608 193.786 96.9644 172.107 132.572C158.313 154.962 157.857 186.762 158.887 204.188L158.974 205.569C155.23 205.217 151.43 205.875 147.982 207.518C142.75 210.188 138.924 214.984 137.482 220.679C135.315 229.276 136.969 238.391 142.018 245.679L142.367 246.206C147.562 253.862 156.293 258.382 165.572 258.179C166.928 258.145 168.279 258.026 169.616 257.82C169.875 258.516 170.14 259.213 170.411 259.911L171.518 262.697C177.149 276.991 185.317 290.146 195.623 301.528L195.714 301.627L195.715 355.745C189.544 357.258 183.316 358.893 177.018 360.625C167.286 363.322 158.322 366.054 149.607 368.982C143.947 370.947 138.839 372.732 134.054 374.518C133.649 374.661 133.268 374.802 132.89 374.945L129.121 376.404C128.211 376.762 127.298 377.131 126.393 377.5L123.777 378.554C118.55 380.687 113.355 382.972 108.304 385.375C103.161 387.804 98.2681 390.286 93.8038 392.786C90.7323 394.5 88.0181 396.089 85.5359 397.625L84.686 398.147C83.844 398.67 83.027 399.192 82.2502 399.714C81.5181 400.179 80.7859 400.661 80.1252 401.125C73.1183 405.706 66.5965 410.989 60.6609 416.893C60.1084 417.526 59.5607 418.08 59.0418 418.606C58.6385 419.014 58.2522 419.406 57.8931 419.804L57.7681 419.964C56.8395 420.964 55.8395 422.179 54.7324 423.643C54.6629 423.719 54.603 423.803 54.5538 423.893L54.3752 424.125L53.4065 425.488C49.8928 430.513 46.8003 435.821 44.1609 441.357C43.2936 442.952 42.5902 444.473 41.9337 445.961L41.1609 447.732L40.4341 449.368C40.1312 450.062 39.8335 450.768 39.5359 451.482L38.9407 452.892C37.3534 456.697 35.7661 460.857 34.1788 465.286C33.3931 467.5 32.5895 469.822 31.8038 472.197L31.5048 473.081L30.9109 474.875L29.3308 479.975C28.7465 481.87 28.1571 483.86 27.5661 485.923L26.6788 489.072C26.397 490.181 26.1022 491.308 25.8051 492.444L25.8033 492.45C25.4985 493.615 25.1912 494.79 24.8931 495.964L24.4109 497.75C24.2591 498.339 24.2617 499.386 24.1077 500H475.001L473.607 495.268C473.607 495.268 472.5 491.089 471.929 489.089C471.643 488.036 471.34 486.964 471.036 485.929L470.732 484.839L469.572 480.929C469.114 479.523 468.684 478.141 468.261 476.782L468.26 476.777L468.259 476.775C467.774 475.218 467.299 473.692 466.804 472.197C466.018 469.822 465.214 467.5 464.429 465.286C463.375 462.411 462.34 459.607 461.322 457.054L461.161 456.607C460.697 455.429 460.232 454.286 459.768 453.197C459.089 451.518 458.393 449.911 457.697 448.339C456.813 446.371 455.999 444.603 455.218 442.96L454.447 441.357C452.18 436.743 449.646 432.265 446.857 427.947C446.494 427.435 446.143 426.92 445.786 426.397L445.785 426.395L445.78 426.388L445.776 426.382L445.775 426.38C445.276 425.649 444.766 424.902 444.197 424.125L444.054 423.947C442.893 422.375 441.786 421.018 440.84 419.982C439.893 418.947 438.911 417.893 437.929 416.911C433.212 412.19 428.105 407.877 422.661 404.018C420.875 402.732 419.107 401.518 417.447 400.447C417.072 400.197 416.697 399.929 416.375 399.732L415.181 398.96C411.971 396.905 408.544 394.879 404.75 392.768C398.697 389.411 392.179 386.161 384.786 382.839L381.732 381.5L380.786 381.089L378 379.893C374.804 378.536 371.572 377.232 368.089 375.875C362.036 373.518 355.786 371.268 348.982 368.982C340.197 366.018 331.018 363.232 321.714 360.661C316.142 359.113 311.158 357.818 307.021 356.777L303.177 355.82L303.18 301.868C313.65 290.402 321.936 277.114 327.625 262.661L328.75 259.839C328.994 259.208 329.236 258.57 329.475 257.934C330.756 258.092 332.047 258.174 333.34 258.179C342.78 258.374 351.652 253.682 356.804 245.768L357.228 245.139C361.94 237.958 363.446 229.123 361.357 220.768C359.904 215.074 356.072 210.281 350.839 207.607C347.544 206.034 343.923 205.364 340.34 205.62C341.456 188.522 341.341 155.535 327.197 132.589C305.857 98.0331 271.243 92.4936 251.405 92.502ZM174.31 368.941L176.707 368.261C181.449 374.391 188.538 379.467 197.822 383.375C206.269 386.798 215.112 389.149 224.143 390.375C232.577 391.587 241.087 392.184 249.607 392.161C258.096 392.211 266.576 391.644 274.982 390.464C283.919 389.235 292.669 386.908 301.036 383.536C310.438 379.612 317.599 374.466 322.363 368.291C330.744 370.648 339.002 373.193 346.947 375.857C353.643 378.107 359.786 380.322 365.732 382.643C369.143 383.964 372.322 385.25 375.465 386.589L379.161 388.161L382.089 389.464C389.286 392.697 395.643 395.857 401.518 399.125C405.607 401.411 409.286 403.607 412.75 405.857L414.713 407.143C416.03 408.014 417.375 408.943 418.732 409.929C423.828 413.559 428.607 417.616 433.018 422.054L433.027 422.063L433.028 422.064L433.031 422.067C433.92 422.973 434.826 423.898 435.697 424.893C436.703 425.999 437.645 427.162 438.518 428.375L438.679 428.572C439.554 429.732 440.304 430.839 441.036 431.964C443.67 436.043 446.056 440.277 448.179 444.643L448.549 445.396C449.169 446.67 449.807 448.032 450.479 449.51L451.304 451.339C451.982 452.857 452.643 454.411 453.322 456.054L453.768 457.136C454.066 457.865 454.363 458.607 454.661 459.357L454.822 459.786C455.804 462.268 456.822 464.964 457.839 467.804L458.426 469.443C459.009 471.102 459.585 472.813 460.161 474.554L460.71 476.209C461.439 478.434 462.161 480.727 462.875 483.089L463.286 484.464L464.322 488C464.411 488.319 464.502 488.639 464.594 488.962C464.796 489.67 465 490.389 465.197 491.125L465.75 493.124L33.0362 492.857L34.0604 489.595C34.9505 486.424 35.8373 483.426 36.6966 480.661L37.8574 476.982C37.9278 476.766 37.9972 476.553 38.066 476.341L38.0746 476.314L38.077 476.307C38.2834 475.671 38.4851 475.05 38.6966 474.429L39.1662 473.034C39.7902 471.186 40.4074 469.389 41.0359 467.661C42.6966 462.804 44.4824 458.304 46.2681 454.232C46.6966 453.214 47.1431 452.197 47.5716 451.232L48.3808 449.399C49.0916 447.809 49.8574 446.2 50.7145 444.5C53.4042 438.864 56.6019 433.484 60.2681 428.429L60.6252 427.929L60.9123 427.567C61.7565 426.502 62.4952 425.571 63.0895 424.929L63.3574 424.643C64.1074 423.75 65.0002 422.857 65.8931 421.964C71.4951 416.4 77.6454 411.416 84.2502 407.089L86.2859 405.75C87.3038 405.089 88.3216 404.429 89.4109 403.768L90.3253 403.204C92.4835 401.882 94.8194 400.525 97.4288 399.072C101.75 396.714 106.482 394.304 111.5 391.929C117.268 389.197 123.214 386.607 129.214 384.232L130.403 383.75L134.381 382.179C135.139 381.883 135.905 381.589 136.679 381.304L138.107 380.768C141.462 379.517 144.969 378.262 148.722 376.972L152 375.857C159.158 373.447 166.502 371.172 174.31 368.941ZM184.393 366.157C188.516 365.055 192.642 363.992 196.732 362.982C201.168 370.959 217.454 374.461 226.094 375.788L227.536 376C234.583 376.981 241.689 377.476 248.804 377.482H250.072C257.181 377.477 264.281 376.981 271.322 376C279.216 374.897 296.294 371.631 301.647 363.858C301.843 363.578 302.024 363.293 302.189 363.002L302.186 363.002L302.25 362.893C302.23 362.93 302.21 362.966 302.189 363.002C304.675 363.572 307.543 364.297 310.758 365.145L314.781 366.219C310.113 370.867 304.525 374.491 298.375 376.857L296.904 377.436C289.53 380.27 281.85 382.239 274.018 383.304C257.825 385.589 241.39 385.589 225.197 383.304C216.793 382.154 208.564 379.971 200.697 376.804C194.553 374.41 188.976 370.761 184.322 366.089L184.393 366.157ZM202.804 308.572V358.947C203.589 361.697 211.875 366.429 228.554 368.768C235.275 369.706 242.053 370.177 248.839 370.179H250.072C256.852 370.176 263.624 369.705 270.34 368.768C277.467 367.762 283.059 366.326 287.189 364.797L287.549 364.661C293.011 362.567 295.752 360.324 295.964 358.786C295.966 358.443 296.014 358.107 296.105 357.784L296.108 308.727C293.577 310.92 290.923 312.971 288.159 314.868L286.768 315.804C277.842 321.844 267.593 325.583 256.933 326.73C255.026 326.945 253.107 327.077 251.179 327.125H247.697L247.583 327.12L247.554 327.125C245.591 327.072 243.637 326.932 241.697 326.706L239.892 326.47L238.853 326.312L237.354 326.054L236.156 325.822C228.056 324.177 220.306 321.02 213.323 316.484L212.375 315.857C209.015 313.66 205.817 311.225 202.804 308.572ZM247.787 99.6839L249.465 99.6965C267.482 99.4108 300.768 103.75 320.893 136.375C335.178 159.533 333.806 195.554 332.772 208.258L332.643 209.75V209.982L335.894 210.257L332.697 210.179L332.695 210.199L332.643 210.197C332.56 211 332.48 211.699 332.412 212.273L332.179 214.072C332.17 214.173 332.17 214.274 332.179 214.375L332.072 215.732C331.786 218.304 331.518 220.518 331.161 222.875C330.804 225.232 330.411 227.518 330 229.679L329.793 230.775C329.649 231.508 329.494 232.238 329.34 232.929L328.883 234.995L328.643 236.018V236.179C328.527 236.679 328.406 237.152 328.286 237.612L327.929 238.964L327.93 239.159C327.69 240.117 327.433 240.953 327.161 241.822L326.784 243.038L326.453 244.077L326.375 244.304C325.572 246.929 324.661 249.661 323.572 252.661V252.839C323.142 254.042 322.69 255.244 322.251 256.409L321.929 257.268L320.266 261.407C314.81 274.796 306.985 287.096 297.161 297.714L297.491 297.352C297.344 297.461 297.203 297.582 297.072 297.714C292.739 302.311 287.885 306.386 282.607 309.857L281.732 310.443C272.643 316.406 262.061 319.714 251.179 319.982H247.697C247.338 319.973 246.979 319.96 246.62 319.944L245.709 319.896L244.376 319.798C234.345 318.949 224.68 315.534 216.322 309.857L215.113 309.046C210.31 305.76 205.871 301.967 201.875 297.732C201.772 297.623 201.663 297.522 201.546 297.433C191.505 286.512 183.571 273.827 178.143 260.018L177.054 257.304C176.869 256.822 176.685 256.331 176.5 255.837L175.393 252.857L175.072 252.679C173.822 249.197 172.625 245.536 171.5 241.822C171.375 241.395 171.233 240.889 171.099 240.407L171.097 240.402L170.967 239.935L170.598 238.661C170.532 238.425 170.466 238.167 170.398 237.893L169.991 236.244C169.968 236.145 169.946 236.047 169.924 235.946C169.907 235.869 169.889 235.79 169.872 235.71C169.812 235.434 169.747 235.137 169.661 234.786L169.484 234.042C169.367 233.54 169.256 233.024 169.161 232.5V232.322C168.982 231.589 168.822 230.839 168.679 230.036L168.572 229.536L167.877 225.542C167.796 225.064 167.72 224.572 167.661 224.072C167.661 224.048 167.675 224.042 167.689 224.036C167.716 224.024 167.744 224.012 167.661 223.857C167.536 223.625 167.536 223.375 167.536 223.143V222.679C167.482 222.316 167.431 221.945 167.38 221.57L166.954 218.447C166.841 217.577 166.737 216.67 166.643 215.732L166.543 214.826L166.518 214.375C166.528 214.262 166.528 214.149 166.518 214.036L166.321 212.39L166.322 211.75C166.31 211.605 166.289 211.447 166.266 211.274C166.218 210.912 166.161 210.483 166.161 209.964L166.15 209.69C166.129 209.418 166.078 209.153 165.998 208.899L165.907 207.817C164.874 194.745 163.647 159.321 177.804 136.375C197.342 104.729 229.281 99.6966 247.787 99.6839ZM340.114 212.879L339.767 212.935L339.563 214.58C339.537 214.767 339.516 214.908 339.5 215L339.393 216.339C339.127 218.824 338.862 221.062 338.56 223.078L338.429 223.929L338.334 224.52L338.333 224.528C337.999 226.619 337.623 228.971 337.232 231.072C337.089 231.857 336.939 232.627 336.78 233.392L336.536 234.536L336.479 234.795C336.255 235.819 336.07 236.666 335.839 237.589V237.768L335.67 238.453C338.062 238.329 340.29 237.109 341.679 235.107C343.397 232.746 343.679 229.631 342.411 227C341.88 226.171 342.119 225.069 342.947 224.536C343.775 224.005 344.878 224.244 345.411 225.072C347.292 228.649 347.173 232.947 345.098 236.415C343.023 239.883 339.291 242.02 335.25 242.054L335.322 242.089C335.12 242.089 334.919 242.081 334.718 242.067L334.461 242.971L334.197 243.857C333.893 244.857 333.643 245.643 333.339 246.5C332.897 247.941 332.408 249.455 331.871 251.043L331.732 251.036C339.141 251.719 346.329 248.374 350.581 242.306L350.911 241.822C354.771 236.266 356.071 229.326 354.482 222.75C353.59 219.044 351.152 215.897 347.786 214.107C345.57 213.04 343.112 212.598 340.676 212.816L340.114 212.879ZM151.036 214.054C152.87 213.175 154.877 212.717 156.911 212.714C157.733 212.727 158.552 212.817 159.357 212.982V213.393C159.413 213.589 159.416 213.756 159.418 213.913C159.42 214.058 159.422 214.194 159.464 214.339C159.518 214.522 159.54 214.678 159.548 214.805L159.554 215.018C159.583 215.508 159.636 215.997 159.714 216.482C159.756 216.911 159.802 217.337 159.849 217.761L160.143 220.25C160.286 221.464 160.447 222.625 160.625 223.822V224.232L160.786 225.197C160.84 225.607 160.902 226.018 160.967 226.415L161.35 228.679C161.465 229.334 161.589 229.991 161.713 230.653L161.768 230.947L161.857 231.464L162.462 234.334L162.929 236.447L163.357 238.232V238.429L163.375 238.499C160.829 238.501 158.422 237.251 156.964 235.125C155.259 232.765 154.985 229.659 156.25 227.036C156.781 226.207 156.542 225.105 155.715 224.572C154.886 224.04 153.784 224.28 153.25 225.107C151.369 228.684 151.488 232.983 153.563 236.451C155.638 239.919 159.37 242.055 163.411 242.089C163.716 242.095 164.021 242.085 164.325 242.061L164.433 242.052L164.59 242.036C164.537 242.042 164.485 242.047 164.433 242.052C164.397 242.055 164.361 242.058 164.325 242.061L164.321 242.061L164.84 243.839C165.572 246.268 166.322 248.643 167.107 250.982C159.504 251.688 152.13 248.145 147.929 241.768L147.55 241.208C143.974 235.755 142.811 229.052 144.357 222.697C145.244 218.992 147.675 215.846 151.036 214.054Z" fill="#372168"/>
<path fill-rule="evenodd" clip-rule="evenodd" d="M302.189 363.002C302.21 362.966 302.23 362.93 302.25 362.893L302.186 363.002L302.189 363.002ZM164.433 242.052L164.59 242.036C164.537 242.042 164.485 242.047 164.433 242.052Z" fill="#372168"/>
<g style="mix-blend-mode:multiply" opacity="0.15">
<path fill-rule="evenodd" clip-rule="evenodd" d="M218.75 249.583C218.75 260.484 210.755 269.32 200.893 269.32C191.031 269.32 183.036 260.484 183.036 249.583C183.036 238.683 191.031 229.846 200.893 229.846C210.755 229.846 218.75 238.683 218.75 249.583ZM315.179 249.583C315.179 260.484 307.184 269.32 297.321 269.32C287.459 269.32 279.464 260.484 279.464 249.583C279.464 238.683 287.459 229.846 297.321 229.846C307.184 229.846 315.179 238.683 315.179 249.583Z" fill="#FF1300"/>
</g>
<path d="M248.928 281.482C246.279 281.529 243.653 280.973 241.25 279.857C240.377 279.394 240.045 278.31 240.509 277.437C240.972 276.565 242.056 276.233 242.928 276.696C246.971 278.429 251.547 278.429 255.589 276.696C256.186 276.463 256.861 276.567 257.361 276.967C257.861 277.367 258.109 278.003 258.013 278.636C257.916 279.269 257.489 279.803 256.893 280.036C254.35 281.005 251.65 281.496 248.928 281.482Z" fill="#372168"/>
<path d="M249.982 274.125C240.607 274.125 232 270.911 227 265.553C225.931 264.283 226.043 262.398 227.255 261.262C228.466 260.126 230.354 260.137 231.553 261.286C235.357 265.339 242.411 267.875 250 267.875C251.726 267.875 253.125 269.274 253.125 271C253.125 272.726 251.726 274.125 250 274.125H249.982Z" fill="#372168"/>
<path fill-rule="evenodd" clip-rule="evenodd" d="M268.839 265.25C263.38 269.167 256.788 271.186 250.071 271C248.286 265.643 247.839 258.982 254.196 256.161C261.053 253.107 265.821 258.875 268.482 264C268.686 264.387 268.808 264.813 268.839 265.25Z" fill="#FF6666"/>
<path fill-rule="evenodd" clip-rule="evenodd" d="M247.018 271.964C247.469 273.264 248.696 274.132 250.071 274.125C257.485 274.308 264.755 272.056 270.768 267.714C271.595 267.067 272.044 266.048 271.964 265C271.879 264.14 271.63 263.303 271.232 262.536C266.464 253.589 259.75 250.232 252.839 253.304C246.25 256.232 244.125 263.036 247.018 271.964ZM255.375 259.018C256.127 258.65 256.949 258.449 257.786 258.428C259.607 258.428 262.161 259.464 264.964 264.232C261.091 266.389 256.768 267.612 252.339 267.803C250.864 261.067 254.165 259.568 255.358 259.025L255.375 259.018Z" fill="#372168"/>
<path d="M260.232 271.679C259.53 271.677 258.895 271.265 258.607 270.625L256.714 266.393C256.456 265.809 256.528 265.132 256.905 264.616C257.281 264.101 257.904 263.825 258.539 263.893C259.173 263.961 259.724 264.363 259.982 264.947L261.768 269.179C262.008 269.729 261.956 270.363 261.628 270.866C261.301 271.37 260.743 271.675 260.143 271.679H260.232Z" fill="#372168"/>
<path d="M249.059 246.94C245.159 246.992 241.492 245.089 239.291 241.869C238.354 240.419 238.77 238.484 240.219 237.547C241.669 236.61 243.604 237.026 244.541 238.476C245.628 239.89 247.316 240.711 249.099 240.693C250.882 240.676 252.553 239.822 253.612 238.387C254.51 236.907 256.436 236.436 257.916 237.333C259.395 238.23 259.867 240.157 258.969 241.637C256.809 245.003 253.058 247.01 249.059 246.94Z" fill="#372168"/>
<path d="M293.506 224.089C292.409 224.089 291.392 223.513 290.828 222.571C289.769 221.136 288.097 220.282 286.314 220.265C284.531 220.247 282.843 221.068 281.756 222.482C281.183 223.486 280.103 224.092 278.948 224.057C277.792 224.023 276.75 223.353 276.239 222.316C275.728 221.279 275.831 220.045 276.506 219.107C278.76 215.888 282.459 213.99 286.389 214.036C290.319 214.083 293.972 216.068 296.149 219.339C296.723 220.304 296.739 221.503 296.19 222.483C295.641 223.462 294.611 224.075 293.488 224.089H293.506Z" fill="#372168"/>
<path d="M220.279 224C219.19 224.004 218.179 223.434 217.619 222.5C216.56 221.065 214.888 220.211 213.105 220.193C211.322 220.175 209.634 220.997 208.547 222.411C207.941 223.348 206.881 223.892 205.765 223.836C204.65 223.78 203.65 223.133 203.14 222.139C202.631 221.145 202.691 219.955 203.297 219.018C205.556 215.806 209.253 213.914 213.18 213.961C217.106 214.007 220.757 215.986 222.94 219.25C223.372 219.957 223.504 220.807 223.306 221.612C223.108 222.417 222.597 223.109 221.886 223.536C221.406 223.84 220.848 224.001 220.279 224Z" fill="#372168"/>
<path d="M303.446 206.375H303.089C302.089 206.375 278.357 203.946 267.018 199C265.208 198.211 264.381 196.104 265.17 194.295C265.959 192.485 268.065 191.657 269.875 192.446C280.178 196.946 303.536 199.25 303.803 199.268C305.776 199.357 307.303 201.027 307.214 203C307.125 204.972 305.455 206.499 303.482 206.411L303.446 206.375Z" fill="#372168"/>
<path d="M194.25 206.375C192.278 206.464 190.607 204.937 190.518 202.964C190.429 200.992 191.956 199.321 193.929 199.232C194.161 199.232 217.518 196.911 227.857 192.411C229.028 191.9 230.382 192.053 231.409 192.812C232.437 193.57 232.981 194.82 232.838 196.089C232.694 197.358 231.885 198.454 230.714 198.964C219.375 203.911 195.643 206.25 194.643 206.339L194.25 206.375Z" fill="#372168"/>
<path fill-rule="evenodd" clip-rule="evenodd" d="M383.684 261.464C383.627 263.144 382.483 264.591 380.863 265.036C378.465 265.636 376.022 266.036 373.559 266.232L372.898 283.714C372.819 285.875 371.306 287.717 369.202 288.214C366.086 288.942 362.901 289.331 359.702 289.375L360.166 298.036C360.166 298.036 362.077 322.018 361.398 349.447C361.332 352.216 360.059 354.819 357.914 356.573C355.769 358.327 352.965 359.057 350.238 358.572L347.13 358.018C342.61 357.214 339.316 353.287 339.309 348.697C339.309 327.072 337.827 308.232 337.827 308.232C332.732 309.8 327.442 310.648 322.113 310.75V318.643C322.112 319.984 321.36 321.211 320.166 321.822C316.773 323.482 305.702 325.572 298.845 322.339V299.929C298.845 299.929 305.72 292.161 309.559 286.697C312.022 283.18 314.282 279.525 316.327 275.75C317.97 272.661 319.488 269.393 320.327 267.697L321.238 265.697C323.519 260.234 325.358 254.596 326.738 248.839C335.005 215.786 326.416 195 322.952 188.429C320.605 184.126 318.639 179.627 317.077 174.982C314.075 165.519 312.275 155.716 311.72 145.804C311.47 141.599 308.78 137.931 304.845 136.429C259.845 119.196 216.613 129.107 200.184 134.125C196.154 135.361 193.237 138.866 192.755 143.054C191.755 151.643 192.345 160.643 180.488 173.714C176.005 178.643 162.255 182.643 161.63 209.804C158.159 208.648 154.413 208.604 150.916 209.679C150.138 209.933 149.375 210.231 148.63 210.572C139.273 215 135.273 229.893 144.148 243.464C150.47 253.143 160.898 255.375 169.345 253.982L171.13 253.339L174.38 261.947C175.685 265.347 177.163 268.679 178.809 271.929C179.238 272.732 179.755 273.714 180.327 274.714C181.791 277.322 183.523 280.25 184.47 281.857C185.791 283.964 187.005 285.822 188.184 287.464C189.705 289.66 191.338 291.776 193.077 293.804C194.148 295.018 195.113 296.322 196.22 297.554L198.452 300.036V358.447C193.095 359.714 185.738 361.572 177.327 363.893C168.916 366.214 159.88 368.911 150.095 372.197C145.041 373.893 139.863 375.768 134.648 377.697C133.488 378.125 132.309 378.572 131.077 379.036L127.023 380.643C121.023 383.036 115.023 385.643 109.166 388.429C104.291 390.732 99.5054 393.161 94.8804 395.732C92.0947 397.286 89.3625 398.875 86.7197 400.518C85.6363 401.185 84.5649 401.863 83.5054 402.554L81.4339 403.911C78.7732 405.697 76.2197 407.482 73.7554 409.411C83.5232 338.339 129.791 279.857 129.791 279.857C130.077 277.714 125.613 271.179 120.863 261.107C110.47 239.143 98.6661 200.393 131.773 153.518C131.773 153.518 129.988 117.946 166.023 95.9822C166.023 95.9822 176.738 76.3393 203.845 77.4286C207.793 77.4096 211.728 77.8835 215.559 78.8393C215.559 78.8393 233.97 60.1429 262.184 72.2679C272.568 67.6917 284.514 68.3554 294.327 74.0536C294.327 74.0536 327.488 74.1608 339.434 111.554C339.416 111.5 386.255 135.964 383.684 261.464Z" fill="#A97B73"/>
<path fill-rule="evenodd" clip-rule="evenodd" d="M188.255 287.393C152.255 298.911 129.863 279.803 129.863 279.803C130.148 277.661 125.684 271.125 120.934 261.053C121.809 261.75 146.72 281.107 180.416 274.714C181.88 277.321 183.613 280.25 184.559 281.857C185.863 283.893 187.077 285.75 188.255 287.393Z" fill="#FF8EC1"/>
<path fill-rule="evenodd" clip-rule="evenodd" d="M71.7376 412.232C72.3504 412.676 73.0882 412.914 73.8447 412.911C74.4126 412.826 74.9517 412.605 75.4162 412.268C75.6309 412.164 75.8344 412.039 76.0233 411.893C78.3983 410.107 80.9162 408.322 83.5412 406.536L85.5769 405.179C86.5947 404.518 87.6305 403.857 88.7019 403.197C91.1126 401.697 93.7376 400.161 96.7197 398.5C101.041 396.161 105.773 393.732 110.791 391.357C116.559 388.643 122.505 386.054 128.505 383.661C129.533 383.236 130.56 382.833 131.595 382.426C131.909 382.303 132.225 382.179 132.541 382.054L135.988 380.732C140.738 378.857 145.755 377.072 151.291 375.286C159.898 372.393 168.738 369.697 178.345 367.036C185.077 365.25 191.898 363.464 199.363 361.679C200.963 361.292 202.091 359.861 202.095 358.214V299.804C202.092 298.919 201.762 298.066 201.166 297.411L198.916 294.911L198.857 294.845C198.303 294.221 197.722 293.567 197.273 292.947C196.809 292.304 196.327 291.714 195.845 291.161C194.174 289.214 192.607 287.182 191.148 285.072C190.13 283.679 188.988 281.964 187.577 279.714C186.613 278.143 184.916 275.25 183.523 272.786L182.059 270.107C180.532 267.187 179.683 265.103 178.504 262.21C178.429 262.024 178.352 261.836 178.273 261.643L174.559 251.893C173.866 250.051 171.814 249.117 169.97 249.804L168.577 250.322C164.863 250.929 153.916 251.554 147.273 241.393C143.366 235.865 142.032 228.921 143.613 222.339C144.505 218.623 146.95 215.469 150.327 213.679C150.907 213.405 151.504 213.167 152.113 212.964C154.937 212.113 157.957 212.156 160.755 213.089C161.824 213.424 162.987 213.239 163.898 212.589C164.815 211.938 165.37 210.892 165.398 209.768C165.863 189.643 173.648 183.732 179.345 179.411C180.769 178.406 182.102 177.276 183.327 176.036C194.577 163.625 195.434 154.482 196.184 146.393C196.232 145.934 196.277 145.479 196.321 145.027C196.375 144.477 196.429 143.932 196.488 143.393C196.81 140.622 198.746 138.307 201.416 137.5C217.559 132.572 259.863 122.911 303.755 139.714C306.387 140.716 308.184 143.171 308.345 145.982C308.903 156.191 310.744 166.288 313.827 176.036C315.461 180.876 317.51 185.566 319.952 190.054C322.898 195.464 331.595 215.661 323.523 247.911C322.192 253.467 320.4 258.902 318.166 264.161L317.309 266.072L316.309 268.107C315.488 269.822 314.452 271.982 313.345 274.054C311.375 277.687 309.199 281.205 306.827 284.589C303.113 289.839 296.309 297.518 296.309 297.518C295.731 298.174 295.413 299.019 295.416 299.893V322.304C295.413 323.684 296.206 324.942 297.452 325.536C305.291 329.232 317.523 327.143 321.898 324.964C324.333 323.771 325.862 321.282 325.827 318.572V314.107C328.832 313.873 331.816 313.42 334.755 312.75C335.184 319.518 335.934 333.464 335.934 348.679C335.93 354.983 340.443 360.385 346.648 361.5L349.755 362.054C353.499 362.714 357.344 361.714 360.292 359.315C363.24 356.915 364.999 353.353 365.113 349.554C365.751 323.855 364.08 300.861 363.882 298.128C363.869 297.957 363.863 297.866 363.863 297.857L363.595 292.75C365.809 292.566 368.006 292.213 370.166 291.697C373.817 290.821 376.443 287.627 376.595 283.875L377.148 269.447C378.769 269.231 380.374 268.909 381.952 268.482C385.059 267.569 387.223 264.756 387.309 261.518C389.63 145.536 350.327 114.25 342.38 109.107C335.72 89.4287 323.273 79.9466 313.916 75.4466C308.081 72.5899 301.753 70.8746 295.273 70.393C285.089 64.8318 272.964 64.0731 262.166 68.3216C237.202 58.3394 219.702 70.5537 214.559 74.893C211.094 74.1657 207.563 73.8007 204.023 73.8037C177.988 72.6787 166.005 89.2501 163.434 93.3394C130.238 114.054 128.22 145.554 128.22 152.375C103.38 187.947 99.8983 225.072 117.666 262.572L117.773 262.786C119.684 266.786 121.523 270.232 123.023 273.018C124.238 275.197 125.47 277.589 126.023 278.929C119.113 288.143 79.2019 343.572 70.2733 408.857C70.0999 410.166 70.663 411.465 71.7376 412.232ZM124.13 259.554L124.023 259.339V259.322C107.148 223.518 110.648 189.554 134.613 155.643C135.062 154.988 135.288 154.205 135.255 153.411C135.202 152.036 134.148 119.607 167.809 99.0716C168.347 98.7508 168.786 98.2872 169.077 97.7323C169.078 97.73 169.081 97.7251 169.085 97.7175C169.431 97.1195 179.278 80.066 203.63 81.0358C207.35 81.0162 211.057 81.4601 214.666 82.3573C215.877 82.6423 217.149 82.277 218.023 81.393C218.184 81.2144 235.023 64.5537 260.702 75.5894C261.679 76.0072 262.792 75.968 263.738 75.4823C273.025 71.4201 283.694 72.0372 292.452 77.143C293.001 77.4406 293.613 77.6 294.238 77.6073C295.488 77.6073 325.005 78.268 335.97 112.679C336.267 113.579 336.909 114.324 337.755 114.75C337.758 114.752 337.767 114.757 337.782 114.766C338.399 115.126 349.316 121.502 359.773 141.947C369.791 161.482 381.452 198.036 380.184 261.482C380.165 261.605 380.073 261.704 379.952 261.732C377.769 262.294 375.54 262.652 373.291 262.804C371.506 262.973 370.123 264.44 370.059 266.232L369.398 283.714C369.377 284.281 368.972 284.76 368.416 284.875C365.553 285.55 362.625 285.91 359.684 285.947C358.721 285.969 357.807 286.381 357.152 287.087C356.496 287.793 356.153 288.734 356.202 289.697L356.666 298.464L356.667 298.478C356.722 299.174 358.57 322.841 357.898 349.5C357.863 351.231 357.071 352.86 355.731 353.956C354.391 355.052 352.638 355.506 350.934 355.197L347.827 354.643C345.008 354.149 342.952 351.701 342.952 348.839C342.936 329.208 341.701 311.643 341.484 308.565C341.463 308.269 341.452 308.107 341.452 308.089C341.368 307.007 340.796 306.021 339.898 305.411C338.996 304.802 337.865 304.637 336.827 304.964C332.088 306.412 327.173 307.205 322.22 307.322C321.253 307.278 320.315 307.656 319.648 308.357C318.975 309.036 318.602 309.955 318.613 310.911L318.72 318.75C313.552 320.653 307.956 321.08 302.559 319.982V301.411C304.577 299.089 309.506 293.339 312.648 288.911C315.202 285.268 317.545 281.482 319.666 277.572C320.827 275.375 321.898 273.161 322.755 271.375C323.113 270.625 323.434 269.964 323.755 269.339L324.702 267.25C327.072 261.613 328.972 255.79 330.38 249.839C338.773 216.054 330.327 194.572 326.273 186.875C324.027 182.755 322.145 178.447 320.648 174C317.744 164.839 316.01 155.347 315.488 145.75C315.156 140.145 311.572 135.255 306.327 133.25C260.363 115.643 216.202 125.714 199.345 130.857C193.968 132.499 190.071 137.166 189.416 142.75C189.33 143.475 189.261 144.201 189.191 144.932C189.16 145.263 189.128 145.595 189.095 145.929C188.416 153.232 187.702 160.714 178.059 171.429C177.132 172.34 176.128 173.171 175.059 173.911L175.051 173.917C169.354 178.239 160.076 185.277 158.488 205.572C155.603 205.241 152.682 205.527 149.916 206.411C149.001 206.71 148.107 207.068 147.238 207.482C142.008 210.146 138.181 214.936 136.738 220.625C134.566 229.225 136.227 238.344 141.291 245.625C147.297 254.836 158.17 259.639 169.023 257.875L171.148 263.518L171.648 264.75C172.988 268 173.952 270.25 175.738 273.822C175.855 274.037 175.977 274.264 176.104 274.499C176.461 275.162 176.856 275.897 177.291 276.661C178.738 279.143 180.505 282.161 181.523 283.804C183.023 286.179 184.238 288.018 185.345 289.554C186.932 291.859 188.643 294.076 190.47 296.197C190.839 296.628 191.049 296.886 191.501 297.441L191.738 297.732C192.362 298.5 192.988 299.268 193.648 299.982L194.97 301.447V355.679C188.47 357.286 182.398 358.857 176.452 360.5C166.72 363.197 157.755 365.929 149.041 368.857C143.398 370.822 138.309 372.607 133.488 374.393C132.676 374.684 131.946 374.966 131.137 375.28C130.753 375.428 130.352 375.584 129.916 375.75C128.559 376.268 127.184 376.822 125.827 377.375C119.72 379.893 113.63 382.464 107.738 385.25C102.577 387.679 97.7019 390.179 93.2376 392.661C90.1662 394.375 87.4519 395.964 84.9697 397.518C83.8447 398.197 82.7197 398.893 81.684 399.589C80.9519 400.054 80.2197 400.536 79.559 401L78.684 401.572C90.4138 336.517 131.699 283.383 132.635 282.177L132.648 282.161C133.058 281.646 133.318 281.028 133.398 280.375C133.72 277.857 132.255 275.125 129.327 269.661C129.108 269.254 128.879 268.832 128.642 268.396C127.277 265.881 125.652 262.886 124.13 259.554Z" fill="#372168"/>
<path fill-rule="evenodd" clip-rule="evenodd" d="M271.684 69.768C271.96 70.7148 271.417 71.7061 270.47 71.9823L269.975 72.1391C266.032 73.4688 241.816 83.1888 244.926 119.814C245.263 121.374 245.569 122.988 245.845 124.661C245.913 125.069 245.836 125.467 245.653 125.804L245.773 126.589C245.851 127.058 245.737 127.539 245.459 127.924C245.181 128.31 244.761 128.568 244.291 128.643L244.023 128.661C243.139 128.672 242.379 128.034 242.238 127.161C241.842 124.736 241.556 122.408 241.368 120.171C239.21 110.317 235.915 102.876 232.249 97.2628L231.386 97.2248C229.273 97.1713 227.16 97.4196 225.113 97.9644C224.953 98.0278 224.784 98.064 224.613 98.0716C223.626 98.2096 222.715 97.5221 222.577 96.5358C222.439 95.5496 223.126 94.6382 224.113 94.5001C225.924 94.0098 227.78 93.7219 229.646 93.6394C220.517 82.1034 210.279 80.3518 209.613 80.2501C208.626 80.1071 207.943 79.1917 208.086 78.2055C208.219 77.2897 209.017 76.6349 209.92 76.6605L210.269 76.7013C212.301 77.0479 231.321 80.9186 241.373 107.554C244.296 76.1805 269.186 68.6292 269.488 68.5537C270.429 68.289 271.408 68.8302 271.684 69.768ZM302.434 76.3037C302.572 75.3175 301.885 74.4061 300.898 74.268C300.13 74.1608 282.005 71.768 267.095 83.9644C256.023 93.0358 249.827 107.697 248.684 127.339C248.633 128.319 249.383 129.157 250.363 129.214H250.47C251.409 129.207 252.181 128.473 252.238 127.536C253.255 108.893 259.077 95.1608 269.327 86.768C280.979 77.2151 295.21 77.4585 299.27 77.7402L300.608 77.8566C301.511 77.8777 302.306 77.2195 302.434 76.3037ZM346.113 115.464C346.801 116.109 346.871 117.177 346.271 117.905C345.671 118.632 344.608 118.768 343.845 118.214C330.936 108.681 315.248 103.66 299.202 103.929C273.988 104.822 258.97 128.339 258.827 128.589C258.477 129.109 257.881 129.407 257.255 129.375C256.919 129.371 256.591 129.272 256.309 129.089C255.48 128.568 255.225 127.477 255.738 126.643L256.262 125.839C258.085 123.139 264.441 114.463 274.805 107.962C273.105 106.876 271.262 106.024 269.327 105.429C268.671 105.296 268.144 104.807 267.963 104.162C267.781 103.517 267.976 102.826 268.467 102.37C268.957 101.914 269.662 101.772 270.291 102C273.134 102.872 275.805 104.227 278.187 106.003C284.066 102.875 291.037 100.581 299.023 100.304C315.985 99.8734 332.589 105.219 346.113 115.464ZM227.21 129.711C227.581 129.156 227.612 128.442 227.291 127.857C226.916 127.054 217.916 108.464 187.13 111.911C170.503 113.755 155.854 125.674 146.199 135.812L145.166 136.911C138.838 143.687 133.197 151.075 128.327 158.964C127.824 159.813 128.104 160.908 128.952 161.411C129.228 161.574 129.542 161.661 129.863 161.661C130.486 161.668 131.068 161.35 131.398 160.822C131.648 160.393 156.452 118.947 187.541 115.464C213.928 112.495 222.666 126.75 223.909 129.066L224.151 129.558C224.425 130.072 224.938 130.425 225.527 130.491C226.19 130.566 226.839 130.265 227.21 129.711ZM342.913 139.594L342.403 139.103L341.581 138.34C314.405 113.569 283.816 128.568 283.488 128.732L283.284 128.852C282.96 129.073 282.716 129.397 282.593 129.774C282.445 130.227 282.484 130.719 282.702 131.143C283.148 132.019 284.217 132.37 285.095 131.929L286.1 131.496C292.155 128.963 298.65 127.635 305.22 127.589C317.357 127.492 328.393 131.623 338.013 139.946C336.231 140.396 334.498 141.036 332.845 141.857C332.106 142.235 331.725 143.072 331.926 143.878C332.126 144.683 332.854 145.244 333.684 145.232C333.965 145.225 334.24 145.152 334.488 145.018L335.2 144.681C337.115 143.816 339.144 143.23 341.226 142.937C342.777 144.485 344.287 146.148 345.755 147.929C359.483 164.586 365.536 196.936 368.159 225.093L368.376 227.495C366.332 227.655 364.309 228.039 362.345 228.643C361.533 228.937 361.048 229.77 361.193 230.621C361.338 231.472 362.071 232.098 362.934 232.107C363.152 232.111 363.368 232.081 363.577 232.018C365.235 231.501 366.945 231.175 368.673 231.049C370.028 248.295 370.152 263.328 370.095 271.223L370.005 277.107C370.005 278.093 370.805 278.893 371.791 278.893L371.998 278.873C372.813 278.747 373.447 278.073 373.505 277.232C373.876 261.395 373.429 245.551 372.163 229.764C372.223 229.586 372.255 229.395 372.255 229.197C372.255 228.898 372.182 228.616 372.051 228.369C371.946 227.103 371.836 225.837 371.72 224.572C368.148 186.589 360.38 160.054 348.505 145.661C346.806 143.594 345.08 141.713 343.338 140.003C343.22 139.844 343.076 139.706 342.913 139.594ZM328.676 153.168L329.148 153.572C339.863 162.857 353.023 185.143 355.416 238.714L360.077 295.268C360.116 295.742 359.965 296.212 359.657 296.574C359.348 296.936 358.908 297.16 358.434 297.197L358.22 297.143C357.287 297.146 356.509 296.43 356.434 295.5L351.791 238.929C349.452 186.572 336.863 165.089 326.791 156.268C318.952 149.447 312.38 149.982 312.309 150C311.671 150.061 311.049 149.776 310.678 149.254C310.306 148.732 310.242 148.051 310.508 147.468C310.745 146.95 311.212 146.58 311.76 146.461L311.97 146.429C311.977 146.429 311.989 146.428 312.004 146.428L312.047 146.426C312.926 146.389 320.236 146.077 328.676 153.168ZM332.702 207.714C332.652 207.243 332.418 206.811 332.049 206.513C331.681 206.215 331.209 206.075 330.738 206.125C329.764 206.228 329.055 207.097 329.148 208.072C329.25 208.716 335.347 268.749 337.732 304.728L338.077 310.197C338.134 311.141 338.917 311.877 339.863 311.875H339.952C340.426 311.848 340.869 311.632 341.184 311.277C341.499 310.922 341.66 310.456 341.63 309.982C340.377 289.311 337.494 257.663 335.342 235.05L332.702 207.714ZM319.005 268.429C319.921 268.401 320.697 269.068 320.826 269.953L320.847 270.249C320.901 272.316 322.047 308.86 322.273 312.661C322.324 313.641 321.574 314.478 320.595 314.536H320.488C319.542 314.538 318.759 313.801 318.702 312.857L318.605 310.713C318.324 303.646 317.685 283.339 317.406 274.46L317.406 274.456L317.406 274.453L317.404 274.382C317.331 272.071 317.283 270.551 317.273 270.268C317.244 269.282 318.019 268.458 319.005 268.429ZM144.127 286.599C144.775 286.568 145.388 286.89 145.73 287.441C146.029 287.923 146.079 288.513 145.876 289.032L145.718 289.357L145.7 289.392C144.005 292.676 114.162 350.46 111.041 388.518C110.958 389.434 110.193 390.138 109.273 390.143H109.113C108.132 390.058 107.405 389.195 107.488 388.214C110.738 348.518 141.327 290 142.613 287.589C142.9 287.009 143.48 286.63 144.127 286.599ZM165.235 289.664C165.604 290.187 165.666 290.866 165.398 291.447C154.162 318.043 147.062 346.202 144.345 374.947C144.258 375.816 143.558 376.485 142.705 376.55L142.327 376.554C141.346 376.46 140.627 375.588 140.72 374.607C143.517 345.462 150.743 316.913 162.148 289.947C162.416 289.366 162.974 288.973 163.61 288.914C164.247 288.856 164.867 289.142 165.235 289.664ZM186.578 288.346C186.531 287.457 185.826 286.723 184.916 286.661C184.442 286.627 183.974 286.782 183.616 287.094C183.257 287.406 183.037 287.848 183.005 288.322C182.988 288.707 180.398 326.238 174.563 361.774L174.202 363.947C174.04 364.918 174.695 365.836 175.666 366H175.97C176.802 365.964 177.499 365.356 177.648 364.536C183.721 328.923 186.466 290.515 186.574 288.624L186.578 288.346ZM166.363 253.723C166.775 253.958 167.077 254.346 167.202 254.804L167.486 256.298C167.951 258.907 168.76 264.872 168.113 273.857C168.038 274.787 167.26 275.503 166.327 275.5H166.202C165.222 275.424 164.487 274.57 164.559 273.589C165.175 267.63 164.904 261.612 163.755 255.732C163.505 254.786 164.062 253.815 165.005 253.554C165.463 253.428 165.951 253.489 166.363 253.723ZM143.435 242.814L143.023 238.572C142.929 237.591 142.058 236.871 141.077 236.964C140.103 237.059 139.387 237.918 139.47 238.893C141.09 255.571 142.408 264.917 143.141 269.551L143.773 273.357C143.953 274.195 144.702 274.787 145.559 274.768C145.678 274.736 145.792 274.688 145.898 274.625C146.859 274.412 147.466 273.461 147.255 272.5C147.239 272.5 145.651 265.092 143.435 242.814ZM195.702 133.964C196.682 134.04 197.417 134.895 197.345 135.875C197.308 136.349 197.084 136.789 196.722 137.098C196.36 137.406 195.89 137.557 195.416 137.518C170.952 135.625 141.702 161.304 131.505 193.589C121.684 224.714 124.363 248.768 128.398 263.464C128.649 264.41 128.092 265.382 127.148 265.643C127.016 265.686 126.877 265.71 126.738 265.715C125.907 265.743 125.167 265.195 124.952 264.393L124.637 263.208C120.692 247.957 118.282 223.645 128.095 192.518C138.809 158.768 169.702 131.947 195.702 133.964ZM191.345 157.393C192.222 156.939 192.566 155.86 192.113 154.982C191.659 154.105 190.58 153.761 189.702 154.214C179.479 159.767 169.588 165.908 160.077 172.607C148.738 180.482 141.059 198.107 137.863 223.572C137.802 224.043 137.932 224.519 138.224 224.895C138.515 225.27 138.944 225.514 139.416 225.572H139.648C140.544 225.57 141.3 224.906 141.416 224.018C145.273 193.161 154.791 180.625 162.113 175.536L164.285 174.021C173.001 167.999 182.033 162.448 191.345 157.393ZM342.523 188.214C342.602 189.201 341.867 190.064 340.88 190.143C338.249 190.42 335.686 191.157 333.309 192.322C333.061 192.448 332.784 192.51 332.505 192.5C331.689 192.496 330.98 191.939 330.782 191.148C330.584 190.356 330.948 189.531 331.666 189.143C334.463 187.754 337.488 186.883 340.595 186.572C341.581 186.493 342.444 187.228 342.523 188.214ZM238.559 128.125C239.428 127.673 239.77 126.605 239.327 125.732C212.363 73.3573 164.488 96.5716 164.023 96.8216L163.842 96.925C163.094 97.4128 162.813 98.3948 163.22 99.2144C163.659 100.097 164.73 100.456 165.613 100.018C167.452 99.0894 210.773 78.0894 236.148 127.357C236.456 127.951 237.069 128.323 237.738 128.322C238.023 128.323 238.305 128.255 238.559 128.125ZM158.952 102.072C161.978 102.873 164.833 104.216 167.38 106.036C167.759 106.32 168.01 106.743 168.077 107.212C168.144 107.681 168.022 108.157 167.738 108.536C167.404 108.981 166.883 109.245 166.327 109.25C165.941 109.25 165.565 109.125 165.255 108.893C163.093 107.362 160.674 106.231 158.113 105.554C157.151 105.322 156.559 104.355 156.791 103.393C157.023 102.431 157.99 101.84 158.952 102.072ZM310.505 87.8394C307.832 86.2108 304.886 85.0795 301.809 84.5001C301.171 84.398 300.527 84.6441 300.12 85.1455C299.712 85.647 299.603 86.3277 299.834 86.9313C300.065 87.5348 300.6 87.9695 301.238 88.0716L302.012 88.236C304.325 88.7698 306.541 89.666 308.577 90.893C308.864 91.0786 309.199 91.1778 309.541 91.1787C310.159 91.1662 310.726 90.8352 311.041 90.3037C311.572 89.475 311.333 88.3728 310.505 87.8394Z" fill="#372168"/>
<path fill-rule="evenodd" clip-rule="evenodd" d="M127.541 282.536C128.291 283.161 142.184 294.679 165.398 294.679C173.528 294.643 181.602 293.335 189.327 290.804C190.41 290.449 191.258 289.599 191.611 288.516C191.964 287.433 191.779 286.246 191.113 285.322C190.095 283.929 188.952 282.214 187.541 279.964C186.577 278.393 184.88 275.5 183.488 273.036C182.743 271.686 181.217 270.966 179.702 271.25C148.077 277.25 124.077 259.072 123.077 258.286C121.779 257.26 119.946 257.26 118.648 258.286C117.367 259.322 116.962 261.1 117.666 262.589C119.61 266.673 121.5 270.187 123.017 273.007L123.023 273.018C124.27 275.151 125.362 277.371 126.291 279.661C126.242 280.761 126.704 281.821 127.541 282.536ZM147.041 284.625C142.13 283.088 137.481 280.812 133.255 277.875H133.202C132.363 275.385 131.274 272.985 129.952 270.714C144.941 278.35 161.938 281.121 178.577 278.643C179.224 279.695 179.829 280.737 180.364 281.658C180.819 282.441 181.223 283.137 181.559 283.679L182.595 285.304C170.924 288.496 158.581 288.261 147.041 284.625Z" fill="#372168"/>
<path fill-rule="evenodd" clip-rule="evenodd" d="M242.916 128.732C243.421 128.148 243.493 127.305 243.095 126.643C242.697 125.981 241.919 125.65 241.166 125.822L241.136 125.829C240.273 126.037 227.754 129.274 215.13 142.179C214.438 142.875 214.438 144 215.13 144.697C215.466 145.035 215.922 145.225 216.398 145.225C216.874 145.225 217.331 145.035 217.666 144.697C223.14 139.024 229.643 134.442 236.827 131.197C234.578 134.873 232.78 138.806 231.47 142.911C231.179 143.853 231.707 144.852 232.648 145.143C232.821 145.2 233.002 145.23 233.184 145.232C233.997 145.257 234.724 144.728 234.952 143.947C236.646 138.427 239.346 133.269 242.916 128.732ZM148.738 188C149.16 188.217 149.478 188.594 149.622 189.046C149.766 189.498 149.724 189.99 149.505 190.411C149.207 190.988 148.619 191.357 147.97 191.375C147.685 191.369 147.405 191.302 147.148 191.179C145.093 190.215 142.814 189.844 140.567 190.101L140.005 190.179C139.539 190.273 139.054 190.177 138.658 189.912C138.262 189.647 137.989 189.235 137.898 188.768C137.713 187.802 138.344 186.868 139.309 186.679C142.513 186.13 145.808 186.592 148.738 188ZM117.838 219.044C118.718 218.874 119.351 218.068 119.282 217.152C119.208 216.166 118.349 215.426 117.363 215.5C114.256 215.811 111.231 216.682 108.434 218.072C107.716 218.459 107.352 219.284 107.55 220.076C107.748 220.868 108.457 221.425 109.273 221.429C109.551 221.433 109.827 221.371 110.077 221.25C112.447 220.085 115.004 219.347 117.63 219.072L117.838 219.044ZM125.738 302.393C126.574 302.668 127.085 303.51 126.942 304.379C126.8 305.247 126.046 305.882 125.166 305.875C125.036 305.872 124.907 305.855 124.781 305.824L124.595 305.768C122.073 304.979 119.429 304.652 116.791 304.804C115.805 304.883 114.942 304.147 114.863 303.161C114.784 302.175 115.519 301.311 116.505 301.232C119.628 301.053 122.757 301.446 125.738 302.393ZM175.444 323.852C175.581 322.986 175.07 322.149 174.238 321.875C171.233 320.99 168.093 320.657 164.97 320.893C163.989 320.987 163.269 321.858 163.363 322.839C163.408 323.314 163.641 323.751 164.01 324.053C164.378 324.355 164.853 324.496 165.327 324.447C167.962 324.26 170.609 324.538 173.148 325.268C173.326 325.295 173.506 325.295 173.684 325.268V325.357C174.561 325.355 175.306 324.718 175.444 323.852ZM359.434 321.804C360.42 321.907 361.136 322.791 361.032 323.777C360.929 324.763 360.045 325.479 359.059 325.375V325.286H358.666C356.377 324.805 354.027 324.69 351.702 324.947C350.726 325.073 349.831 324.386 349.702 323.411C349.636 322.939 349.761 322.461 350.049 322.082C350.338 321.703 350.766 321.455 351.238 321.393C353.974 321.099 356.74 321.237 359.434 321.804ZM198.216 337.588C197.924 337.212 197.495 336.969 197.023 336.911C194.037 336.633 191.026 336.813 188.095 337.447C187.457 337.52 186.906 337.928 186.651 338.517C186.396 339.106 186.474 339.787 186.856 340.303C187.239 340.819 187.867 341.091 188.505 341.018L188.827 340.911C191.379 340.375 193.998 340.224 196.595 340.464C197.57 340.58 198.456 339.886 198.577 338.911C198.637 338.439 198.508 337.963 198.216 337.588ZM131.434 339.5C132.42 339.614 133.128 340.505 133.014 341.491C132.901 342.477 132.01 343.185 131.023 343.072V343.036H130.613C128.284 342.563 125.898 342.457 123.54 342.72L122.755 342.822C121.769 342.994 120.83 342.335 120.657 341.348C120.485 340.362 121.144 339.423 122.13 339.25C125.221 338.767 128.374 338.852 131.434 339.5ZM102.63 372.822C102.796 373.742 102.236 374.625 101.359 374.883L101.166 374.929C98.5783 375.477 96.1065 376.474 93.8626 377.875C93.5761 378.083 93.2342 378.201 92.8805 378.214C92.083 378.229 91.3728 377.712 91.1406 376.949C90.9084 376.186 91.2103 375.361 91.8805 374.929C94.5241 373.23 97.4516 372.02 100.523 371.357C101.51 371.18 102.453 371.835 102.63 372.822Z" fill="#372168"/>
<path fill-rule="evenodd" clip-rule="evenodd" d="M335.105 218.393C339.792 196.787 338.123 174.286 330.302 153.607C329.945 152.661 329.57 151.822 329.177 150.804C328.248 148.572 327.23 146.375 326.159 144.232C319.126 130.006 308.625 117.779 295.623 108.679C293.695 107.339 291.73 106.089 289.695 104.929C288.034 103.964 286.338 103.143 284.605 102.232C278.159 99.044 271.32 96.7203 264.266 95.3216H263.82L263.23 95.2145C251.909 93.1361 240.288 93.312 229.034 95.7323L227.766 95.9823C222.49 97.14 217.314 98.7103 212.284 100.679C211.213 101.089 210.177 101.518 209.159 101.964C205.172 103.634 201.305 105.58 197.588 107.786C184.031 115.624 173.167 127.384 166.427 141.518C165.355 143.786 164.391 146.072 163.534 148.357C163.177 149.304 162.838 150.268 162.534 151.232C162.427 151.536 162.32 151.857 162.23 152.161C161.588 154.125 161.034 156.072 160.552 158.018C153.088 187.786 161.141 216.179 161.141 216.179C161.141 216.179 142.516 193.964 152.213 148.822C152.48 147.607 152.766 146.357 153.07 145.107C153.552 143.107 154.105 141.054 154.713 138.964C155.32 136.875 155.927 135.054 156.623 133.179C156.784 132.714 156.963 132.25 157.141 131.786C159.282 126.286 162.025 121.04 165.32 116.143C175.03 102.189 188.721 91.4856 204.605 85.4288C207.784 84.155 211.016 83.0419 214.302 82.0895C220.287 80.3387 226.401 79.0668 232.588 78.2859H233.088C249.663 76.1652 266.5 77.5647 282.498 82.3931C283.623 82.7323 284.73 83.1073 285.82 83.5002C287.784 84.1966 289.677 84.9645 291.516 85.7859C294.68 87.1844 297.731 88.8262 300.641 90.6966C302.876 92.0311 305.028 93.498 307.088 95.0895C308.463 96.1073 309.98 97.3216 311.623 98.6609C313.802 100.447 316.195 102.75 318.659 105.304C328.961 115.878 336.637 128.722 341.07 142.804C341.415 143.911 341.736 145.036 342.034 146.179C342.766 148.893 343.373 151.714 343.82 154.643C346.891 172.089 345.284 193.286 335.105 218.393Z" fill="#FFC28F"/>
<path fill-rule="evenodd" clip-rule="evenodd" d="M334.07 221.804C334.405 221.911 334.754 221.965 335.105 221.964C336.539 222.011 337.861 221.195 338.463 219.893C347.891 196.589 350.945 174.464 347.552 154.125C347.016 151.036 346.373 148.072 345.641 145.339C345.32 144.089 344.998 142.929 344.641 141.768C340.08 127.143 332.126 113.804 321.427 102.839C319.123 100.464 316.677 98.143 314.141 95.9645C312.498 94.5538 310.891 93.268 309.427 92.1788C307.268 90.5281 305.02 88.9961 302.695 87.5895C299.651 85.6408 296.463 83.9274 293.159 82.4645C291.123 81.5538 289.177 80.768 287.213 80.0895C286.07 79.6609 284.909 79.268 283.766 78.9288C267.295 73.9522 249.96 72.5041 232.891 74.6788H232.32C225.947 75.4951 219.648 76.8086 213.48 78.6073C210.052 79.6073 206.677 80.768 203.463 82.0538C185.909 89.0895 172.123 99.8038 162.516 114.089C159.043 119.237 156.162 124.76 153.927 130.554L153.427 131.875C152.948 133.174 152.572 134.371 152.172 135.642C151.945 136.363 151.71 137.109 151.445 137.911C150.713 140.125 150.141 142.232 149.659 144.214C149.355 145.482 149.07 146.75 148.784 148.018L148.784 148.018C138.766 194.322 157.588 217.447 158.409 218.411C159.495 219.686 161.321 220.034 162.801 219.25C164.28 218.465 165.016 216.757 164.57 215.143L164.566 215.129C164.362 214.376 156.938 187.011 164.016 158.822C164.48 156.929 165.016 155.036 165.641 153.125C165.713 152.875 165.802 152.625 165.945 152.25C166.213 151.339 166.534 150.447 166.873 149.554C167.695 147.339 168.641 145.125 169.641 143C176.104 129.535 186.479 118.333 199.409 110.857C203 108.724 206.735 106.845 210.588 105.232C211.552 104.804 212.534 104.393 213.57 104C218.454 102.09 223.482 100.568 228.605 99.4466L229.766 99.2323C240.56 96.9034 251.708 96.7274 262.57 98.7145L263.105 98.8216H263.373H263.57C266.29 99.3565 268.979 100.042 271.623 100.875C275.551 102.101 279.378 103.629 283.07 105.447C283.265 105.548 283.458 105.647 283.65 105.746C284.985 106.435 286.272 107.099 287.927 108.036C289.82 109.107 291.677 110.286 293.588 111.607C306.087 120.375 316.188 132.139 322.963 145.822C324.105 148 325.034 150.143 325.891 152.197C326.027 152.543 326.165 152.881 326.303 153.218C326.528 153.769 326.752 154.317 326.963 154.893C334.544 174.927 336.157 196.729 331.605 217.661C331.231 219.472 332.3 221.269 334.07 221.804ZM233.623 81.7857C238.53 81.1948 243.467 80.8966 248.409 80.8929C259.705 80.646 270.972 82.1274 281.82 85.2857C282.873 85.6071 283.927 85.9643 284.98 86.3393C286.766 86.9821 288.552 87.6964 290.338 88.5357C293.337 89.8519 296.227 91.4044 298.98 93.1786L299.159 93.2857C301.262 94.5554 303.295 95.9384 305.248 97.4286C305.497 97.6316 305.749 97.8365 306.004 98.0437C307.138 98.9663 308.33 99.9355 309.57 101C311.927 103.036 314.23 105.196 316.373 107.429C326.306 117.574 333.692 129.93 337.927 143.482C338.266 144.554 338.57 145.643 338.873 146.75C339.588 149.268 340.177 152.018 340.659 154.875C342.194 164.328 342.32 173.956 341.034 183.446C340.156 172.708 337.751 162.149 333.891 152.089C333.516 151.107 333.123 150.125 332.713 149.179C331.82 147 330.766 144.714 329.588 142.375C322.281 127.621 311.389 114.936 297.909 105.482C295.82 104.054 293.677 102.607 291.73 101.589C291.057 101.237 290.407 100.887 289.776 100.547C288.584 99.905 287.459 99.2996 286.373 98.7857C279.655 95.4934 272.535 93.0922 265.195 91.6429H264.838H264.641L264.07 91.5357C252.335 89.3822 240.292 89.5521 228.623 92.0357L227.177 92.3214C221.702 93.5232 216.329 95.1471 211.105 97.1786C209.98 97.6071 208.891 98.0536 207.873 98.5C203.74 100.241 199.73 102.264 195.873 104.554C181.71 112.758 170.356 125.051 163.302 139.821C162.195 142.179 161.195 144.571 160.302 146.964C159.909 147.982 159.552 149 159.266 149.911C159.23 150.013 159.189 150.116 159.148 150.219C159.045 150.475 158.945 150.725 158.945 150.929C158.248 152.929 157.659 154.982 157.159 157.018C154.859 166.407 153.75 176.048 153.855 185.714C152.432 173.607 153.103 161.345 155.838 149.464C155.943 149.02 156.049 148.562 156.157 148.094C156.323 147.378 156.493 146.638 156.677 145.893C157.123 144.018 157.677 142 158.284 139.893C158.73 138.089 159.355 136.214 160.07 134.286C160.15 134.033 160.245 133.788 160.35 133.517C160.409 133.367 160.47 133.208 160.534 133.036C162.577 127.781 165.194 122.769 168.338 118.089C177.141 105.089 189.82 95.1964 206.034 88.6964C209.034 87.4821 212.195 86.4107 215.409 85.4643C221.188 83.7662 227.094 82.536 233.07 81.7857H233.623Z" fill="#372168"/>
<path fill-rule="evenodd" clip-rule="evenodd" d="M343.98 154.643C339.403 154.677 334.829 154.355 330.302 153.679C329.945 152.732 329.57 151.893 329.177 150.875C328.248 148.643 327.23 146.447 326.159 144.304C330.976 142.622 336.123 142.108 341.177 142.804C341.522 143.911 341.844 145.036 342.141 146.179C342.945 148.893 343.48 151.715 343.98 154.643Z" fill="#8BCBC9"/>
<path fill-rule="evenodd" clip-rule="evenodd" d="M329.748 157.214C334.118 157.855 338.528 158.189 342.945 158.214L344.016 158.286C345.062 158.267 346.048 157.791 346.712 156.982C347.374 156.181 347.655 155.132 347.48 154.107C346.945 151.018 346.302 148.054 345.57 145.321C345.248 144.071 344.927 142.911 344.57 141.75C344.17 140.445 343.061 139.481 341.712 139.268C336.082 138.49 330.348 139.059 324.98 140.929C324.009 141.262 323.228 141.997 322.837 142.946C322.447 143.898 322.486 144.972 322.945 145.893C324.087 148.071 325.016 150.214 325.873 152.268C325.932 152.412 325.991 152.556 326.05 152.701C326.352 153.436 326.658 154.182 326.927 154.929C327.381 156.147 328.462 157.023 329.748 157.214ZM339.623 151C337.409 150.893 335.105 150.696 332.838 150.411H332.855L332.855 150.41C332.73 150.107 332.605 149.803 332.498 149.5C332.105 148.553 331.695 147.589 331.248 146.625C333.597 146.145 335.997 145.965 338.391 146.089C338.423 146.209 338.467 146.329 338.512 146.448C338.595 146.668 338.677 146.887 338.677 147.107C338.998 148.357 339.32 149.661 339.623 151Z" fill="#372168"/>
<path fill-rule="evenodd" clip-rule="evenodd" d="M345.266 171.482C341.722 172.103 338.074 171.363 335.052 169.411C333.874 164.01 332.28 158.708 330.284 153.554C334.753 153.14 339.245 153.02 343.73 153.196C344.835 159.227 345.35 165.352 345.266 171.482Z" fill="#FF7DB0"/>
<path fill-rule="evenodd" clip-rule="evenodd" d="M333.23 172.482C336.075 174.308 339.386 175.275 342.766 175.268C343.769 175.291 344.773 175.231 345.766 175.089C347.506 174.799 348.772 173.281 348.748 171.518C348.823 165.153 348.279 158.796 347.123 152.536C346.821 150.915 345.448 149.712 343.802 149.625C339.156 149.443 334.503 149.568 329.873 150C328.753 150.094 327.743 150.709 327.146 151.661C326.549 152.613 326.435 153.79 326.837 154.839C328.771 159.818 330.312 164.941 331.445 170.161C331.681 171.154 332.331 171.999 333.23 172.482ZM341.695 168.072C340.457 167.951 339.249 167.618 338.123 167.09H338.159C337.349 163.613 336.415 160.179 335.355 156.786C337.141 156.679 338.927 156.679 340.712 156.679C341.275 160.452 341.603 164.257 341.695 168.072Z" fill="#372168"/>
<path fill-rule="evenodd" clip-rule="evenodd" d="M166.427 141.5C165.355 143.768 164.391 146.054 163.534 148.34C163.177 149.286 162.838 150.25 162.534 151.215C162.427 151.518 162.32 151.84 162.23 152.143C158.773 146.402 156.866 139.861 156.695 133.161C156.855 132.697 157.034 132.232 157.213 131.768C159.354 126.268 162.097 121.022 165.391 116.125C164.945 122.215 165.98 132.893 166.427 141.5Z" fill="#FF7DB0"/>
<path fill-rule="evenodd" clip-rule="evenodd" d="M159.248 154.107C159.909 155.111 161.029 155.714 162.23 155.715L162.748 155.75C164.12 155.544 165.247 154.562 165.641 153.232C165.713 152.982 165.802 152.732 165.945 152.357C166.213 151.447 166.534 150.554 166.873 149.661C167.695 147.447 168.641 145.232 169.641 143.09C169.916 142.537 170.034 141.919 169.98 141.304C169.855 138.911 169.695 136.34 169.516 133.768C168.995 127.986 168.805 122.179 168.945 116.375C169.055 114.766 168.072 113.282 166.547 112.755C165.022 112.229 163.333 112.79 162.427 114.125C158.954 119.273 156.073 124.796 153.838 130.59C153.659 131.054 153.48 131.536 153.32 132C153.167 132.436 153.1 132.897 153.123 133.357C153.286 140.695 155.4 147.858 159.248 154.107ZM161.891 142.857C161.024 139.866 160.491 136.788 160.302 133.679L160.302 133.679C160.373 133.482 160.445 133.286 160.534 133.072C161.016 131.822 161.534 130.59 162.088 129.393C162.177 131 162.284 132.625 162.391 134.232C162.552 136.465 162.695 138.679 162.802 140.804C162.722 140.981 162.642 141.16 162.561 141.34C162.332 141.846 162.102 142.356 161.891 142.857Z" fill="#372168"/>
<path fill-rule="evenodd" clip-rule="evenodd" d="M311.73 98.75C305.891 100.536 297.605 103.143 289.695 105.089C281.671 100.436 272.925 97.1591 263.82 95.3928C270.62 90.4569 278.057 86.4624 285.927 83.5178C291.126 85.3199 296.099 87.7168 300.748 90.6607C304.64 93.0279 308.316 95.7349 311.73 98.75Z" fill="#FF7DB0"/>
<path fill-rule="evenodd" clip-rule="evenodd" d="M287.909 108.089C288.452 108.404 289.068 108.57 289.695 108.572C289.983 108.577 290.271 108.547 290.552 108.482C298.73 106.464 307.177 103.857 312.82 102.072C314.049 101.675 314.969 100.645 315.224 99.3789C315.48 98.1124 315.032 96.8067 314.052 95.9644C310.488 92.8441 306.658 90.0417 302.605 87.5894C297.75 84.4989 292.555 81.9764 287.123 80.0716C286.331 79.7953 285.469 79.7953 284.677 80.0716C276.501 83.1316 268.777 87.2823 261.713 92.4109C260.564 93.2485 260.021 94.688 260.331 96.0756C260.641 97.4633 261.745 98.5348 263.141 98.8037C271.856 100.502 280.226 103.64 287.909 108.089ZM290.213 101.179C284.632 98.0717 278.728 95.5866 272.606 93.7681C276.861 91.205 281.323 89.001 285.945 87.1789C290.447 88.8367 294.757 90.974 298.802 93.5539L298.981 93.6789C300.797 94.7682 302.55 95.9606 304.231 97.2503C299.963 98.5539 295.07 99.9646 290.213 101.179Z" fill="#372168"/>
<path fill-rule="evenodd" clip-rule="evenodd" d="M318.766 105.304C311.108 106.936 303.354 108.087 295.552 108.75C293.623 107.411 291.659 106.161 289.623 105C287.963 104.036 286.266 103.214 284.534 102.304C291.622 98.6783 299.251 96.2239 307.123 95.0359C308.498 96.0537 310.016 97.268 311.659 98.6073C313.909 100.536 316.302 102.75 318.766 105.304Z" fill="#FF9966"/>
<path fill-rule="evenodd" clip-rule="evenodd" d="M293.587 111.679C294.185 112.096 294.895 112.32 295.623 112.322L295.945 112.357C303.881 111.662 311.765 110.469 319.552 108.786C320.811 108.503 321.819 107.562 322.189 106.326C322.559 105.09 322.234 103.75 321.337 102.822C319.034 100.447 316.587 98.1252 314.052 95.9467C312.409 94.536 310.802 93.2502 309.32 92.1431C308.561 91.5823 307.61 91.3448 306.677 91.4824C298.376 92.7238 290.335 95.3177 282.873 99.161C281.698 99.808 280.985 101.059 281.026 102.4C281.068 103.74 281.857 104.945 283.07 105.518C283.265 105.619 283.458 105.719 283.65 105.818C284.985 106.507 286.272 107.171 287.927 108.107C289.82 109.179 291.677 110.357 293.587 111.679ZM296.587 105.072C295.266 104.179 293.945 103.357 292.641 102.572C297.041 100.856 301.598 99.5761 306.248 98.7502C307.248 99.5359 308.302 100.393 309.391 101.322L311.373 103.107C306.48 103.947 301.248 104.661 296.587 105.072Z" fill="#372168"/>
<path fill-rule="evenodd" clip-rule="evenodd" d="M215.587 96.25C217.962 96.625 243.909 101.875 245.945 70.5357C245.945 70.1786 245.677 70.125 245.337 70.125C239.175 70.3351 233.046 71.1304 227.034 72.5C206.373 77.2857 214.391 93.9286 215.302 96.0357C215.352 96.1531 215.461 96.2347 215.587 96.25Z" fill="#FF7DB0"/>
<path fill-rule="evenodd" clip-rule="evenodd" d="M215.302 99.8216C217.403 100.172 219.529 100.351 221.659 100.357C227.894 100.572 234.013 98.643 238.998 94.8931C245.32 89.8752 248.873 81.7681 249.588 70.8038C249.668 69.7288 249.3 68.6683 248.57 67.8752C247.762 67.0267 246.634 66.5596 245.463 66.5895C239.018 66.8027 232.608 67.6279 226.32 69.0538C218.802 70.8038 213.73 74.2145 211.213 79.2145C209.48 82.6788 208.213 88.6073 212.016 97.2681V97.4823C212.554 98.7434 213.712 99.6309 215.07 99.8216H215.302ZM234.463 89.2681C230.409 92.5002 224.57 93.8038 217.909 92.9824H217.945C215.891 87.6788 216.552 84.3038 217.516 82.3752C219.016 79.3752 222.48 77.2145 227.838 75.9824C232.511 74.9523 237.248 74.2305 242.016 73.8217C241.034 80.8931 238.516 86.0359 234.463 89.2681Z" fill="#372168"/>
<path fill-rule="evenodd" clip-rule="evenodd" d="M210.677 96.4467C207.105 97.0717 174.963 112.357 165.105 59.6431C164.998 59.1253 165.463 58.911 165.98 59.0003C172.602 60.3053 179.3 61.1821 186.034 61.6253C221.177 65.3931 212.373 92.9289 211.034 96.1074C210.975 96.2702 210.842 96.3957 210.677 96.4467Z" fill="#FF7DB0"/>
<path fill-rule="evenodd" clip-rule="evenodd" d="M182.355 98.5002C186.875 101.205 192.053 102.608 197.32 102.554C201.722 102.506 206.09 101.771 210.266 100.375L211.32 100.054C212.726 99.806 213.902 98.8459 214.427 97.518C214.659 97.018 219.927 83.4287 213.07 72.018C208.373 64.2145 199.409 59.5537 186.409 58.1787C184.088 57.9287 182.248 57.7502 180.641 57.6073C175.946 57.2484 171.281 56.5743 166.677 55.5895C165.251 55.2862 163.767 55.7073 162.713 56.7145C161.777 57.65 161.357 58.9832 161.588 60.2859C165.177 79.518 172.159 92.3752 182.355 98.5002ZM186.034 92.3751C178.427 87.7859 172.837 78.0001 169.498 63.3037C173.921 64.082 176.468 64.3172 179.9 64.634L179.998 64.643L185.659 65.1787C196.23 66.3216 203.462 69.8394 206.945 75.6073C210.945 82.2859 209.177 90.3394 208.248 93.4644H208.123C208.082 93.4773 208.041 93.4903 207.999 93.5035C203.949 94.7756 194.712 97.6772 186.034 92.3751Z" fill="#372168"/>
<path d="M215.588 98.036H215.463C214.49 97.9598 213.758 97.1169 213.82 96.1431C213.82 95.6788 214.713 84.661 228.963 80.411C229.904 80.1335 230.893 80.6678 231.177 81.6074C231.316 82.0621 231.267 82.5533 231.043 82.9722C230.818 83.3912 230.436 83.7034 229.98 83.8395C218.195 87.411 217.48 96.0181 217.373 96.3395C217.326 97.2907 216.54 98.0371 215.588 98.036Z" fill="#372168"/>
<path d="M208.891 98.0179C195.105 98.0179 184.73 84.5715 184.266 83.9644C183.67 83.1754 183.825 82.0521 184.614 81.4554C185.403 80.8588 186.527 81.0147 187.123 81.8037C187.123 81.9287 196.48 93.9108 208.159 94.4287C205.882 90.2145 203.298 86.1738 200.427 82.3394C200.022 81.8449 199.911 81.1719 200.137 80.5739C200.362 79.9758 200.89 79.5436 201.521 79.44C202.152 79.3363 202.79 79.5771 203.195 80.0715C206.745 84.8868 209.921 89.9671 212.695 95.2679C212.974 95.7926 212.974 96.4219 212.695 96.9465C212.417 97.4631 211.903 97.8102 211.32 97.8751C210.514 97.975 209.703 98.0227 208.891 98.0179Z" fill="#372168"/>
</g>
<path fill-rule="evenodd" clip-rule="evenodd" d="M0 250C0 111.929 111.929 0 250 0C388.071 0 500 111.929 500 250C500 388.071 388.071 500 250 500C111.929 500 0 388.071 0 250ZM492.857 250C492.857 115.874 384.126 7.14286 250 7.14286C115.874 7.14286 7.14286 115.874 7.14286 250C7.14286 384.126 115.874 492.857 250 492.857C384.126 492.857 492.857 384.126 492.857 250Z" fill="#372168"/>
</svg>
