<svg width="500" height="500" viewBox="0 0 500 500" fill="none" xmlns="http://www.w3.org/2000/svg">
<path fill-rule="evenodd" clip-rule="evenodd" d="M250 496.429C386.099 496.429 496.429 386.099 496.429 250C496.429 113.901 386.099 3.57153 250 3.57153C113.901 3.57153 3.57143 113.901 3.57143 250C3.57143 386.099 113.901 496.429 250 496.429Z" fill="#E7EEFF"/>
<mask id="mask0_0_266" style="mask-type:alpha" maskUnits="userSpaceOnUse" x="3" y="3" width="494" height="494">
<path fill-rule="evenodd" clip-rule="evenodd" d="M250 496.429C386.099 496.429 496.429 386.099 496.429 250C496.429 113.901 386.099 3.57153 250 3.57153C113.901 3.57153 3.57143 113.901 3.57143 250C3.57143 386.099 113.901 496.429 250 496.429Z" fill="white"/>
</mask>
<g mask="url(#mask0_0_266)">
<path fill-rule="evenodd" clip-rule="evenodd" d="M336.359 210.077L336.357 210.036C337.536 196.964 339.357 159.232 324.071 134.357C305.536 104.339 275.161 95.5538 249.464 95.9823C223.732 95.5538 193.357 104.339 174.821 134.357C159.554 159.125 161.375 196.911 162.571 209.929V210.03C158.281 208.601 153.604 208.884 149.518 210.822C140.161 215.268 136.089 230.125 145.018 243.714C151.783 254.04 163.198 255.882 171.903 253.893C172.226 254.732 172.545 255.575 172.861 256.412C173.129 257.121 173.395 257.825 173.661 258.518L174.768 261.286C180.393 275.65 188.675 288.827 199.179 300.125C203.705 304.911 208.768 309.16 214.268 312.786C224.14 319.474 235.722 323.192 247.643 323.5H251.214C263.136 323.197 274.719 319.479 284.589 312.786C288.752 310.04 292.665 306.938 296.285 303.517C292.662 306.964 288.743 310.089 284.571 312.857C274.701 319.55 263.118 323.269 251.196 323.572H247.625C235.705 323.264 224.122 319.546 214.25 312.857C208.75 309.231 203.687 304.983 199.161 300.197V359.357C200.071 365.125 211.625 370.054 227.982 372.357C234.864 373.313 241.802 373.796 248.75 373.804H250C256.947 373.796 263.886 373.313 270.768 372.357C287.214 369.982 298.804 365.072 299.607 359.268V300.202L299.696 300.107C310.194 288.814 318.47 275.644 324.089 261.286L325.196 258.518C325.814 257.001 326.396 255.431 326.961 253.879C335.674 255.891 347.129 254.066 353.911 243.714C362.768 230.125 358.768 215.268 349.375 210.875C345.301 208.942 340.638 208.656 336.359 210.077ZM168.304 242.786C168.661 244.021 169.028 245.245 169.406 246.458C169.011 245.278 168.62 244.09 168.232 242.893C167.946 241.947 167.607 240.768 167.393 239.964L167.392 239.962L167.392 239.96C167.177 239.157 166.893 238.088 166.75 237.482C166.693 237.24 166.647 237.035 166.601 236.826L166.6 236.823C166.53 236.507 166.457 236.179 166.339 235.697C166.241 235.295 166.156 234.88 166.071 234.464C165.987 234.049 165.902 233.634 165.804 233.232C165.607 232.429 165.446 231.625 165.286 230.786L165.179 230.232C164.982 229.161 164.786 228.072 164.607 226.964C164.464 226.191 164.339 225.405 164.232 224.607C164.214 224.515 164.194 224.422 164.174 224.329L164.173 224.326C164.096 223.968 164.018 223.604 164.018 223.25C163.857 222.125 163.696 220.982 163.554 219.822C163.387 218.548 163.244 217.316 163.125 216.125C163.018 215.625 162.964 215.125 162.964 214.625C162.964 214.625 163.089 214.286 162.964 214.018C162.896 213.873 162.892 213.638 162.887 213.419C162.884 213.235 162.88 213.062 162.839 212.964C162.784 212.833 162.783 212.809 162.778 212.682C162.775 212.602 162.771 212.482 162.75 212.268L162.74 212.172L162.732 212.101C162.738 212.124 162.744 212.144 162.75 212.161C162.791 212.274 162.787 212.34 162.783 212.418C162.777 212.512 162.771 212.623 162.839 212.857C162.907 213.091 162.912 213.266 162.916 213.441C162.92 213.587 162.924 213.732 162.964 213.911C163.054 214.304 163.054 214.518 163.054 214.518C163.068 214.718 163.094 214.918 163.119 215.118C163.158 215.418 163.196 215.718 163.196 216.018C163.312 217.178 163.459 218.368 163.594 219.46L163.625 219.714C163.768 220.875 163.929 222.018 164.089 223.143C164.114 223.298 164.137 223.456 164.16 223.614C164.202 223.91 164.245 224.209 164.304 224.5C164.411 225.298 164.536 226.084 164.679 226.857C164.857 227.964 165.054 229.054 165.25 230.125L165.357 230.679C165.437 231.098 165.527 231.5 165.616 231.902C165.705 232.304 165.795 232.706 165.875 233.125C165.967 233.603 166.087 234.134 166.197 234.617C166.28 234.982 166.357 235.321 166.411 235.589C166.536 236.214 166.679 236.804 166.821 237.375L166.933 237.814C167.097 238.459 167.245 239.038 167.464 239.857C167.732 240.857 168.018 241.839 168.304 242.786ZM162.634 211.151C162.641 211.261 162.649 211.369 162.657 211.471C162.623 211.182 162.595 210.883 162.59 210.572C162.607 210.764 162.621 210.962 162.634 211.151Z" fill="#FFD6CB"/>
<path d="M28.5706 496.429C28.9182 495.049 29.1003 494.313 29.4544 492.974C29.7006 492.043 29.9441 491.123 30.1785 490.215C31.1785 486.643 32.1963 483.072 33.232 479.804C33.356 479.409 33.48 479.017 33.6034 478.626C33.8711 477.778 34.1361 476.939 34.3927 476.107C34.6785 475.215 34.9642 474.322 35.2499 473.5C36.0356 471.143 36.8213 468.857 37.607 466.661C39.3808 461.732 41.1665 457.197 42.9642 453.054C43.4106 452 43.857 450.965 44.3035 449.965L44.5713 449.375C45.5356 447.161 46.5177 445.09 47.4999 443.125C50.2914 437.275 53.6023 431.687 57.3927 426.429C57.4428 426.354 57.4968 426.282 57.5493 426.213L57.5493 426.213C57.609 426.134 57.6667 426.058 57.7142 425.982C58.6963 424.697 59.6427 423.536 60.5535 422.536L60.6606 422.411C61.3019 421.69 61.9832 420.988 62.6596 420.292C62.8873 420.057 63.1143 419.823 63.3392 419.59C69.0977 413.797 75.4344 408.609 82.2499 404.107L84.3213 402.732C85.3689 402.042 86.4404 401.363 87.5356 400.697C90.1785 399.054 92.8927 397.465 95.6963 395.911C100.321 393.34 105.107 390.911 109.982 388.607C115.875 385.822 121.875 383.25 127.839 380.822L131.893 379.215C133.053 378.75 134.232 378.304 135.464 377.875C140.678 375.893 145.857 374.072 150.911 372.375C160.696 369.09 169.964 366.34 178.143 364.072C186.607 361.732 193.857 359.911 199.196 358.625C199.17 358.875 199.17 359.126 199.196 359.375C200.107 365.143 211.696 370.09 228.018 372.375C234.899 373.331 241.838 373.814 248.786 373.822H250.036C256.983 373.814 263.922 373.331 270.803 372.375C287.25 370.054 298.839 365.09 299.643 359.286C299.66 359.066 299.66 358.845 299.643 358.625C305 359.929 312.321 361.75 320.839 364.107C328.982 366.357 338.196 369.107 347.928 372.375C354.107 374.447 360.428 376.715 366.875 379.215C370.149 380.476 373.417 381.804 376.678 383.197L380.411 384.786L383.411 386.107C390.143 389.143 396.768 392.393 403.053 395.911C406.982 398.09 410.803 400.357 414.446 402.732L415.464 403.411C417.25 404.554 419.036 405.732 420.607 406.982C425.886 410.723 430.838 414.905 435.411 419.482C436.375 420.447 437.303 421.429 438.196 422.429C439.286 423.635 440.312 424.899 441.268 426.215V426.322C442.089 427.429 442.946 428.643 443.786 429.893C446.514 434.095 448.983 438.461 451.178 442.965C452.232 445.107 453.286 447.375 454.375 449.804C455.053 451.34 455.732 452.929 456.411 454.572C456.875 455.677 457.326 456.811 457.787 457.974L457.946 458.375C458.958 460.947 459.976 463.655 461 466.5C461.786 468.697 462.571 470.982 463.357 473.34C464.262 476.113 465.173 478.994 466.089 481.982C466.219 482.421 466.351 482.863 466.484 483.306L466.488 483.32L466.489 483.323C466.738 484.154 466.989 484.994 467.232 485.84L467.341 486.219C467.689 487.426 468.073 488.762 468.428 490.054C469.053 492.268 469.089 494.089 469.642 496.429H28.5706Z" fill="#FF6666"/>
<g style="mix-blend-mode:soft-light" opacity="0.8">
<path d="M320.929 364.089C316.518 370.839 309.143 376.197 299.679 380.161C291.583 383.427 283.114 385.677 274.464 386.857C257.921 389.19 241.133 389.19 224.589 386.857C215.891 385.664 207.373 383.396 199.232 380.107C189.822 376.143 182.5 370.786 178.107 364.036C186.572 361.696 193.822 359.875 199.161 358.589C199.134 358.839 199.134 359.09 199.161 359.339C200.072 365.107 211.661 370.054 227.982 372.339C234.864 373.295 241.803 373.778 248.75 373.786H250C256.948 373.778 263.886 373.295 270.768 372.339C287.214 370.018 298.804 365.054 299.607 359.25C299.625 359.03 299.625 358.809 299.607 358.589C305.107 359.911 312.411 361.732 320.929 364.089Z" fill="white"/>
</g>
<g style="mix-blend-mode:multiply" opacity="0.15">
<path fill-rule="evenodd" clip-rule="evenodd" d="M296.036 303.786V356.107C251.536 356.804 218.571 333.893 202.839 320.197V303.75C206.379 307.132 210.222 310.181 214.321 312.857C224.197 319.539 235.777 323.257 247.696 323.572H251.268C263.187 323.257 274.768 319.539 284.643 312.857C288.703 310.179 292.516 307.143 296.036 303.786Z" fill="#7C3830"/>
</g>
<path fill-rule="evenodd" clip-rule="evenodd" d="M251.405 92.5021L249.607 92.5181C229.964 92.1609 193.786 96.9645 172.107 132.572C158.313 154.962 157.857 186.762 158.887 204.188L158.974 205.569C155.23 205.217 151.43 205.875 147.982 207.518C142.75 210.188 138.924 214.984 137.482 220.679C135.315 229.276 136.969 238.391 142.018 245.679L142.367 246.206C147.561 253.862 156.293 258.382 165.572 258.179C166.928 258.145 168.279 258.026 169.616 257.82C169.875 258.516 170.14 259.214 170.411 259.911L171.518 262.697C177.149 276.991 185.317 290.146 195.623 301.529L195.714 301.627L195.715 355.746C189.544 357.259 183.316 358.893 177.018 360.625C167.286 363.322 158.322 366.054 149.607 368.982C143.947 370.947 138.839 372.732 134.054 374.518C133.649 374.661 133.268 374.802 132.89 374.945L129.121 376.404C128.21 376.762 127.298 377.131 126.393 377.5L123.777 378.554C118.55 380.687 113.355 382.972 108.304 385.375C103.161 387.804 98.268 390.286 93.8037 392.786C90.7323 394.5 88.018 396.09 85.5359 397.625L84.686 398.148C83.8439 398.67 83.0269 399.192 82.2502 399.715C81.518 400.179 80.7859 400.661 80.1252 401.125C73.1183 405.706 66.5965 410.99 60.6609 416.893C60.1084 417.526 59.5607 418.081 59.0417 418.606C58.6385 419.014 58.2521 419.406 57.893 419.804L57.768 419.964C56.8395 420.964 55.8395 422.179 54.7323 423.643C54.6629 423.719 54.6029 423.803 54.5537 423.893L54.3752 424.125L53.4065 425.489C49.8928 430.513 46.8002 435.821 44.1609 441.357C43.2935 442.952 42.5902 444.473 41.9337 445.961L41.1609 447.732L40.434 449.369C40.1311 450.062 39.8335 450.768 39.5359 451.482L38.9406 452.892C37.3533 456.697 35.766 460.857 34.1787 465.286C33.393 467.5 32.5894 469.822 31.8037 472.197L31.5048 473.082L30.9109 474.875L29.3308 479.975C28.7464 481.87 28.1571 483.86 27.5661 485.923L26.6787 489.072C26.397 490.181 26.1021 491.308 25.805 492.444L25.8033 492.45C25.4984 493.616 25.1911 494.79 24.893 495.964L24.4109 497.75C24.2591 498.339 24.2616 499.386 24.1076 500H475L473.607 495.268C473.607 495.268 472.5 491.089 471.929 489.089C471.643 488.036 471.339 486.964 471.036 485.929L470.732 484.839L469.572 480.929C469.114 479.523 468.684 478.141 468.261 476.782L468.259 476.777L468.259 476.775C467.774 475.218 467.299 473.692 466.804 472.197C466.018 469.822 465.214 467.5 464.429 465.286C463.375 462.411 462.339 459.607 461.322 457.054L461.161 456.607C460.697 455.429 460.232 454.286 459.768 453.197C459.089 451.518 458.393 449.911 457.697 448.339C456.813 446.371 455.999 444.603 455.218 442.961L454.447 441.357C452.18 436.743 449.646 432.265 446.857 427.947C446.494 427.435 446.143 426.92 445.786 426.397L445.785 426.395L445.78 426.388L445.776 426.382L445.775 426.38C445.276 425.649 444.766 424.902 444.197 424.125L444.054 423.947C442.893 422.375 441.786 421.018 440.839 419.982C439.893 418.947 438.911 417.893 437.929 416.911C433.212 412.19 428.105 407.877 422.661 404.018C420.875 402.732 419.107 401.518 417.447 400.447C417.072 400.197 416.697 399.929 416.375 399.732L415.181 398.96C411.971 396.906 408.544 394.879 404.75 392.768C398.697 389.411 392.179 386.161 384.786 382.84L381.732 381.5L380.786 381.089L378 379.893C374.804 378.536 371.572 377.232 368.089 375.875C362.036 373.518 355.786 371.268 348.982 368.982C340.197 366.018 331.018 363.232 321.714 360.661C316.142 359.113 311.158 357.818 307.021 356.777L303.177 355.82L303.18 301.869C313.65 290.402 321.936 277.115 327.625 262.661L328.75 259.84C328.994 259.208 329.236 258.57 329.475 257.934C330.756 258.092 332.047 258.174 333.339 258.179C342.78 258.375 351.652 253.682 356.804 245.768L357.228 245.139C361.94 237.958 363.446 229.123 361.357 220.768C359.903 215.075 356.072 210.281 350.839 207.607C347.544 206.034 343.923 205.364 340.34 205.62C341.456 188.523 341.341 155.535 327.197 132.59C305.857 98.0333 271.243 92.4937 251.405 92.5021ZM174.31 368.941L176.707 368.261C181.449 374.391 188.538 379.467 197.822 383.375C206.269 386.798 215.111 389.15 224.143 390.375C232.577 391.588 241.087 392.184 249.607 392.161C258.096 392.211 266.576 391.644 274.982 390.464C283.919 389.235 292.669 386.908 301.036 383.536C310.438 379.612 317.599 374.466 322.363 368.292C330.744 370.648 339.002 373.193 346.947 375.857C353.643 378.107 359.786 380.322 365.732 382.643C369.143 383.964 372.322 385.25 375.464 386.589L379.161 388.161L382.089 389.464C389.286 392.697 395.643 395.857 401.518 399.125C405.607 401.411 409.286 403.607 412.75 405.857L414.713 407.143C416.029 408.014 417.375 408.943 418.732 409.929C423.828 413.56 428.607 417.616 433.018 422.054L433.027 422.063L433.028 422.064L433.031 422.067C433.92 422.973 434.826 423.898 435.697 424.893C436.703 425.999 437.645 427.162 438.518 428.375L438.679 428.572C439.554 429.732 440.304 430.839 441.036 431.964C443.67 436.043 446.056 440.277 448.179 444.643L448.549 445.397C449.169 446.67 449.807 448.032 450.479 449.51L451.304 451.34C451.982 452.857 452.643 454.411 453.322 456.054L453.768 457.136C454.066 457.865 454.363 458.607 454.661 459.357L454.822 459.786C455.804 462.268 456.822 464.964 457.839 467.804L458.426 469.444C459.009 471.102 459.585 472.813 460.161 474.554L460.709 476.209C461.439 478.434 462.161 480.728 462.875 483.089L463.286 484.464L464.322 488C464.411 488.319 464.502 488.639 464.594 488.962C464.796 489.67 465 490.389 465.197 491.125L465.75 493.125L33.0362 492.857L34.0604 489.595C34.9505 486.425 35.8372 483.427 36.6966 480.661L37.8573 476.982C37.9278 476.767 37.9972 476.553 38.066 476.341L38.0745 476.315L38.077 476.307C38.2834 475.671 38.4851 475.05 38.6966 474.429L39.1662 473.034C39.7902 471.187 40.4073 469.389 41.0359 467.661C42.6966 462.804 44.4823 458.304 46.268 454.232C46.6966 453.214 47.143 452.197 47.5716 451.232L48.3807 449.399C49.0916 447.809 49.8573 446.2 50.7145 444.5C53.4041 438.864 56.6019 433.485 60.268 428.429L60.6252 427.929L60.9122 427.567C61.7564 426.503 62.4952 425.571 63.0895 424.929L63.3573 424.643C64.1073 423.75 65.0002 422.857 65.893 421.964C71.495 416.4 77.6454 411.416 84.2502 407.089L86.2859 405.75C87.3037 405.089 88.3216 404.429 89.4109 403.768L90.3252 403.204C92.4834 401.882 94.8194 400.525 97.4287 399.072C101.75 396.714 106.482 394.304 111.5 391.929C117.268 389.197 123.214 386.607 129.214 384.232L130.403 383.75L134.381 382.179C135.139 381.883 135.905 381.589 136.679 381.304L138.107 380.768C141.462 379.517 144.969 378.262 148.722 376.972L152 375.857C159.158 373.447 166.502 371.172 174.31 368.941ZM184.393 366.157C188.516 365.055 192.642 363.992 196.732 362.982C201.168 370.96 217.454 374.461 226.094 375.788L227.536 376C234.583 376.981 241.689 377.476 248.804 377.482H250.072C257.181 377.477 264.281 376.981 271.322 376C279.216 374.897 296.294 371.631 301.647 363.858C301.843 363.579 302.024 363.294 302.189 363.003L302.186 363.002L302.25 362.893C302.23 362.93 302.21 362.966 302.189 363.003C304.675 363.572 307.543 364.297 310.758 365.145L314.781 366.219C310.113 370.867 304.525 374.491 298.375 376.857L296.904 377.436C289.53 380.27 281.85 382.24 274.018 383.304C257.824 385.589 241.39 385.589 225.197 383.304C216.793 382.154 208.564 379.971 200.697 376.804C194.553 374.41 188.975 370.761 184.322 366.089L184.393 366.157ZM202.804 308.572V358.947C203.589 361.697 211.875 366.429 228.554 368.768C235.275 369.706 242.053 370.177 248.839 370.179H250.072C256.852 370.176 263.624 369.705 270.339 368.768C277.467 367.762 283.059 366.326 287.189 364.797L287.549 364.662C293.011 362.567 295.752 360.324 295.964 358.786C295.966 358.444 296.014 358.107 296.105 357.784L296.108 308.727C293.577 310.921 290.923 312.971 288.159 314.868L286.768 315.804C277.842 321.844 267.593 325.583 256.933 326.73C255.026 326.945 253.107 327.077 251.179 327.125H247.697L247.583 327.12L247.554 327.125C245.591 327.072 243.637 326.932 241.697 326.706L239.892 326.47L238.853 326.312L237.354 326.054L236.156 325.822C228.056 324.177 220.306 321.02 213.323 316.484L212.375 315.857C209.015 313.66 205.817 311.225 202.804 308.572ZM247.787 99.6841L249.464 99.6967C267.482 99.4109 300.768 103.75 320.893 136.375C335.178 159.533 333.806 195.554 332.772 208.258L332.643 209.75V209.982L335.894 210.258L332.697 210.179L332.695 210.199L332.643 210.197C332.56 211 332.48 211.699 332.412 212.273L332.179 214.072C332.17 214.173 332.17 214.274 332.179 214.375L332.072 215.732C331.786 218.304 331.518 220.518 331.161 222.875C330.804 225.232 330.411 227.518 330 229.679L329.793 230.775C329.649 231.508 329.494 232.238 329.339 232.929L328.883 234.995L328.643 236.018V236.179C328.527 236.679 328.406 237.152 328.286 237.612L327.929 238.964L327.929 239.159C327.689 240.117 327.433 240.953 327.161 241.822L326.784 243.038L326.453 244.077L326.375 244.304C325.572 246.929 324.661 249.661 323.572 252.661V252.839C323.142 254.042 322.69 255.244 322.251 256.409L321.929 257.268L320.266 261.407C314.81 274.796 306.985 287.096 297.161 297.714L297.491 297.352C297.344 297.461 297.203 297.582 297.072 297.714C292.739 302.311 287.885 306.386 282.607 309.857L281.732 310.443C272.643 316.406 262.061 319.714 251.179 319.982H247.697C247.337 319.973 246.979 319.96 246.62 319.944L245.709 319.896L244.376 319.798C234.345 318.949 224.68 315.534 216.322 309.857L215.113 309.046C210.31 305.76 205.871 301.967 201.875 297.732C201.772 297.624 201.663 297.522 201.546 297.433C191.505 286.512 183.57 273.827 178.143 260.018L177.054 257.304C176.869 256.822 176.685 256.332 176.5 255.838L175.393 252.857L175.072 252.679C173.822 249.197 172.625 245.536 171.5 241.822C171.375 241.395 171.233 240.89 171.099 240.407L171.097 240.402L170.967 239.935L170.598 238.662C170.532 238.425 170.466 238.167 170.397 237.893L169.991 236.244C169.968 236.145 169.946 236.047 169.924 235.946C169.907 235.869 169.889 235.79 169.872 235.71C169.812 235.434 169.746 235.137 169.661 234.786L169.484 234.043C169.367 233.54 169.256 233.024 169.161 232.5V232.322C168.982 231.589 168.822 230.839 168.679 230.036L168.572 229.536L167.876 225.543C167.796 225.064 167.72 224.572 167.661 224.072C167.661 224.048 167.675 224.042 167.689 224.036C167.716 224.024 167.744 224.012 167.661 223.857C167.536 223.625 167.536 223.375 167.536 223.143V222.679C167.482 222.316 167.431 221.945 167.38 221.57L166.954 218.447C166.841 217.577 166.737 216.67 166.643 215.732L166.542 214.826L166.518 214.375C166.528 214.262 166.528 214.149 166.518 214.036L166.321 212.39L166.322 211.75C166.31 211.605 166.289 211.447 166.266 211.274C166.218 210.912 166.161 210.483 166.161 209.964L166.15 209.69C166.129 209.418 166.078 209.153 165.998 208.899L165.907 207.817C164.874 194.745 163.647 159.321 177.804 136.375C197.342 104.729 229.281 99.6968 247.787 99.6841ZM340.114 212.879L339.767 212.935L339.563 214.58C339.537 214.767 339.516 214.908 339.5 215L339.393 216.34C339.127 218.824 338.862 221.062 338.56 223.078L338.429 223.929L338.334 224.521L338.333 224.528C337.999 226.619 337.623 228.971 337.232 231.072C337.089 231.857 336.939 232.627 336.78 233.392L336.536 234.536L336.479 234.795C336.255 235.819 336.07 236.666 335.839 237.589V237.768L335.67 238.453C338.062 238.329 340.29 237.109 341.679 235.107C343.397 232.746 343.679 229.631 342.411 227C341.88 226.172 342.119 225.069 342.947 224.536C343.775 224.005 344.877 224.244 345.411 225.072C347.292 228.649 347.173 232.947 345.098 236.415C343.023 239.883 339.291 242.02 335.25 242.054L335.322 242.089C335.12 242.089 334.919 242.081 334.718 242.067L334.461 242.972L334.197 243.857C333.893 244.857 333.643 245.643 333.339 246.5C332.897 247.941 332.408 249.455 331.871 251.043L331.732 251.036C339.14 251.719 346.329 248.374 350.581 242.306L350.911 241.822C354.771 236.266 356.071 229.326 354.482 222.75C353.59 219.044 351.152 215.897 347.786 214.107C345.569 213.04 343.112 212.598 340.676 212.816L340.114 212.879ZM151.036 214.054C152.87 213.175 154.877 212.717 156.911 212.715C157.733 212.727 158.552 212.817 159.357 212.982V213.393C159.413 213.589 159.416 213.756 159.418 213.914C159.42 214.058 159.422 214.195 159.464 214.34C159.518 214.522 159.539 214.678 159.548 214.805L159.554 215.018C159.583 215.509 159.636 215.997 159.714 216.482C159.756 216.911 159.802 217.338 159.849 217.761L160.143 220.25C160.286 221.465 160.447 222.625 160.625 223.822V224.232L160.786 225.197C160.839 225.607 160.902 226.018 160.967 226.415L161.35 228.679C161.465 229.334 161.589 229.991 161.713 230.653L161.768 230.947L161.857 231.465L162.462 234.335L162.929 236.447L163.357 238.232V238.429L163.375 238.5C160.828 238.502 158.422 237.251 156.964 235.125C155.259 232.765 154.984 229.659 156.25 227.036C156.781 226.207 156.542 225.105 155.714 224.572C154.886 224.041 153.784 224.28 153.25 225.107C151.369 228.684 151.488 232.983 153.563 236.451C155.638 239.919 159.37 242.056 163.411 242.089C163.716 242.095 164.021 242.085 164.325 242.061L164.432 242.052L164.589 242.036C164.537 242.042 164.485 242.047 164.432 242.052C164.397 242.055 164.361 242.058 164.325 242.061L164.321 242.061L164.839 243.84C165.572 246.268 166.322 248.643 167.107 250.982C159.503 251.688 152.13 248.145 147.929 241.768L147.55 241.208C143.974 235.755 142.811 229.053 144.357 222.697C145.244 218.993 147.675 215.846 151.036 214.054Z" fill="#372168"/>
<path fill-rule="evenodd" clip-rule="evenodd" d="M302.189 363.003C302.21 362.966 302.23 362.93 302.25 362.893L302.186 363.002L302.189 363.003ZM164.432 242.052L164.589 242.036C164.537 242.042 164.485 242.047 164.432 242.052Z" fill="#372168"/>
<g style="mix-blend-mode:multiply" opacity="0.15">
<path fill-rule="evenodd" clip-rule="evenodd" d="M218.75 249.583C218.75 260.484 210.755 269.32 200.893 269.32C191.031 269.32 183.036 260.484 183.036 249.583C183.036 238.683 191.031 229.846 200.893 229.846C210.755 229.846 218.75 238.683 218.75 249.583ZM315.179 249.583C315.179 260.484 307.184 269.32 297.321 269.32C287.459 269.32 279.464 260.484 279.464 249.583C279.464 238.683 287.459 229.846 297.321 229.846C307.184 229.846 315.179 238.683 315.179 249.583Z" fill="#FF1300"/>
</g>
<path d="M249.107 271.143C247.135 271.143 245.536 269.544 245.536 267.572V259.215C245.536 257.242 247.135 255.643 249.107 255.643C251.08 255.643 252.679 257.242 252.679 259.215V267.572C252.679 269.544 251.08 271.143 249.107 271.143Z" fill="#372168"/>
<path d="M249.059 246.94C245.159 246.993 241.492 245.089 239.291 241.869C238.354 240.419 238.77 238.484 240.219 237.548C241.669 236.611 243.604 237.026 244.541 238.476C245.628 239.89 247.316 240.711 249.099 240.694C250.882 240.676 252.553 239.822 253.612 238.387C254.51 236.907 256.437 236.436 257.916 237.333C259.395 238.231 259.867 240.157 258.969 241.637C256.809 245.003 253.058 247.011 249.059 246.94Z" fill="#372168"/>
<path d="M286.261 225.447C294.171 225.447 294.189 213.125 286.261 213.125C278.332 213.125 278.314 225.447 286.261 225.447Z" fill="#372168"/>
<path d="M213.1 225.447C221.028 225.447 221.046 213.125 213.1 213.125C205.153 213.125 205.153 225.447 213.1 225.447Z" fill="#372168"/>
<path d="M228.018 209.857C227.095 209.863 226.205 209.511 225.536 208.875C212.518 196.375 199.946 207.554 198.554 208.875C197.115 210.134 194.939 210.037 193.619 208.654C192.298 207.271 192.301 205.094 193.625 203.714C200 197.589 215.911 189.714 230.482 203.714C231.167 204.37 231.563 205.271 231.584 206.219C231.604 207.167 231.246 208.084 230.589 208.768C229.916 209.465 228.987 209.858 228.018 209.857Z" fill="#372168"/>
<path d="M302.25 201.625C301.324 201.626 300.434 201.268 299.768 200.625C286.768 188.125 274.179 199.322 272.804 200.625C271.379 201.991 269.116 201.943 267.75 200.518C266.384 199.093 266.432 196.83 267.857 195.464C274.232 189.357 290.143 181.482 304.714 195.464C305.774 196.471 306.113 198.023 305.571 199.38C305.028 200.738 303.712 201.627 302.25 201.625Z" fill="#372168"/>
<path fill-rule="evenodd" clip-rule="evenodd" d="M443.255 414.911C442.345 418.661 442.577 422.464 441.47 425.893C440.543 424.653 439.553 423.461 438.505 422.321C437.612 421.321 436.684 420.339 435.72 419.375C431.147 414.798 426.195 410.616 420.916 406.875C419.255 405.679 417.541 404.5 415.773 403.304L414.755 402.625C411.184 400.25 407.291 397.982 403.362 395.804C397.023 392.232 390.398 389.036 383.72 386L380.72 384.679L377.916 383.482L377.13 383.143H376.987L374.612 382.161C372.13 381.107 369.666 380.125 367.184 379.161C360.773 376.661 354.416 374.393 348.237 372.321C338.505 369.054 329.291 366.304 321.148 364.054C313.005 361.804 311.916 361.5 299.88 358.571V300.179C310.37 288.849 318.628 275.642 324.22 261.25L325.327 258.482C325.916 256.946 326.505 255.357 327.112 253.786C335.827 255.804 347.291 253.982 354.077 243.625C363.005 230.036 358.934 215.179 349.577 210.732C344.898 208.518 336.541 209.768 336.541 209.768C337.289 204.151 337.01 198.446 335.72 192.929C333.313 182.503 326.045 173.867 316.184 169.714C312.345 168.125 307.255 164.357 302.184 155.929C291.916 138.839 267.077 137.321 267.077 137.321C259.934 136.518 253.827 131.821 249.362 126.5C239.827 126.054 224.666 134.054 219.666 146.143C213.612 160.857 193.47 149.018 184.845 160.429C174.291 174.411 191.362 185.25 180.327 208.286C178.934 211.196 177.005 214.429 175.112 217.893C169.063 228.824 167.971 241.82 172.112 253.607C172.112 253.607 172.112 253.607 172.112 253.714C172.684 255.286 173.273 256.875 173.898 258.411L175.005 261.179C175.583 262.923 176.312 264.614 177.184 266.232C182.618 278.677 190.137 290.103 199.416 300.018V319.446V358.411C194.059 359.696 186.916 361.518 178.362 363.768C170.184 366.036 160.916 368.786 151.13 372.071C146.077 373.768 140.898 375.643 135.684 377.571C134.523 378 133.345 378.446 132.112 378.911L128.059 380.518L123.934 382.196C119.309 384.107 114.702 386.161 110.166 388.304C105.291 390.607 100.505 393.036 95.8803 395.607C93.0946 397.161 90.3624 398.75 87.7196 400.393C86.6362 401.06 85.5648 401.738 84.5053 402.429L82.4339 403.804L79.7374 405.589C78.8446 406.196 77.9517 406.821 77.1303 407.375C72.128 410.98 67.4387 415 63.1124 419.393L61.7196 419.107C61.072 417.238 60.5997 415.313 60.3089 413.357C54.8446 378.714 70.041 379.125 67.6124 361.036C63.3446 329.25 82.1482 322.661 85.291 310.286C87.9874 299.696 81.5946 287.536 83.5053 273.393C86.8624 247.286 97.2732 239.929 104.166 232.125C112.684 222.482 113.38 208.554 111.559 197.625C109.737 186.696 112.684 175.071 123.559 162.304C129.041 155.857 131.809 145.696 133.184 137.304C136.437 117.046 149.329 99.6315 167.755 90.6071C169.541 89.7679 171.077 89 172.345 88.3036C175.595 86.5179 178.809 84.7321 181.952 82.7143C189.095 78.2679 203.38 78.75 212.684 74.3929C219.827 71.0179 226.362 68.1607 239.577 74.1429C244.097 76.2684 248.221 79.149 251.773 82.6607C266.596 74.9675 283.495 72.2323 299.987 74.8571C313.791 76.9643 327.255 81.5357 337.487 101.304C341.362 108.839 349.737 112.536 359.237 123.482C368.737 134.429 366.916 148.482 373.523 153.268C378.212 157.061 382.211 161.634 385.345 166.786C390.47 174.107 395.327 184.321 390.541 197.714C383.255 218.196 380.22 228.196 389.934 236.018C397.237 241.911 401.059 250.875 400.88 263.732C400.88 265.804 400.666 267.893 400.434 269.946C399.862 274.857 399.166 288.607 407.577 295.518C417.273 303.5 426.97 312.589 420.077 326.714C418.108 330.537 416.861 334.69 416.398 338.964C415.184 350.389 420.448 361.536 430.041 367.857C443.416 377.679 451.166 382.679 443.255 414.911Z" fill="#FFA1B2"/>
<path fill-rule="evenodd" clip-rule="evenodd" d="M252.273 78.2858C248.845 75.3149 245.031 72.822 240.934 70.875C227.249 64.6875 219.432 67.308 212.832 70.3185L211.059 71.1429C206.357 72.9878 201.445 74.2414 196.434 74.875C190.148 75.9643 184.22 77 179.952 79.6786C177.041 81.5893 173.862 83.375 170.523 85.1608L169.967 85.4578C169.391 85.7606 168.759 86.0799 168.104 86.4057L166.095 87.3929C146.636 96.9368 133.011 115.321 129.541 136.714L129.419 137.452C128.194 144.663 125.709 154.22 120.737 160.071C109.934 172.732 105.755 185.232 107.934 198.286L108.093 199.305C109.065 205.962 109.847 220.221 101.38 229.839C100.925 230.357 100.452 230.871 99.9652 231.388L98.4525 232.982C91.5268 240.265 82.8957 249.341 79.8625 273.018C79.2318 279.886 79.6473 286.81 81.0946 293.554C82.1125 299.607 82.9875 304.839 81.8089 309.482C81.1324 312.159 79.4023 314.678 77.2768 317.478L74.2505 321.416C68.2207 329.36 61.2107 340.441 64.0589 361.589L64.1413 362.271C64.7261 367.635 63.5354 370.933 61.7277 374.866L60.7063 377.049C57.3603 384.186 53.5015 393.213 56.7553 413.982C57.0827 416.157 57.6087 418.297 58.3268 420.375C58.7443 421.552 59.7465 422.426 60.9696 422.679L62.3625 422.964C63.5566 423.214 64.7956 422.837 65.6482 421.964C69.8531 417.707 74.4045 413.807 79.2553 410.304C79.9875 409.714 80.8982 409.089 81.7732 408.518L82.6455 407.94L84.4339 406.732L86.4518 405.393C87.4696 404.732 88.5053 404.071 89.5768 403.411C92.0232 401.893 94.6482 400.357 97.5946 398.714C101.934 396.357 106.666 393.947 111.666 391.571C116.362 389.375 120.898 387.321 125.291 385.536L129.398 383.875C130.452 383.434 131.517 383.015 132.594 382.592L132.619 382.582C132.884 382.478 133.15 382.373 133.416 382.268L136.862 380.947C141.559 379.161 146.577 377.375 152.184 375.589C160.666 372.697 169.755 369.964 179.22 367.339C181.286 366.808 183.362 366.267 185.442 365.726L185.459 365.721C190.365 364.443 195.292 363.16 200.166 361.982C201.766 361.595 202.895 360.164 202.898 358.518V300.125C202.899 299.199 202.541 298.309 201.898 297.643C192.867 288.088 185.535 277.06 180.22 265.036C180.185 264.943 180.144 264.854 180.095 264.768L179.647 263.899C179.071 262.73 178.576 261.523 178.166 260.286C178.176 260.227 178.176 260.166 178.166 260.107C178.095 259.923 178.025 259.741 177.954 259.559C177.906 259.436 177.857 259.312 177.809 259.189L177.095 257.393C176.523 255.929 175.97 254.429 175.434 252.929V252.643L175.175 251.884C171.663 241.231 172.751 229.581 178.202 219.75L179.987 216.571C181.327 214.25 182.559 212.071 183.559 209.982C189.342 197.94 188.036 188.785 186.483 181.362L186.068 179.422C184.662 172.855 183.639 168.078 187.702 162.732C190.428 159.135 194.945 158.627 200.255 158.378L201.987 158.304L202.194 158.293C209.693 157.921 218.918 157.463 222.987 147.589L223.242 146.997C227.801 136.81 240.081 130.545 247.755 130.107C251.97 134.679 258.434 139.893 266.862 140.821L266.869 140.822C267.363 140.859 290.041 142.554 299.13 157.696L299.613 158.487C304.138 165.779 309.258 170.636 314.827 172.946L315.438 173.213C323.942 177.028 330.178 184.62 332.255 193.732C333.449 198.828 333.709 204.097 333.023 209.286C332.864 210.402 333.242 211.527 334.041 212.321C334.842 213.108 335.967 213.472 337.077 213.304C338.97 213.018 345.041 212.536 348.059 213.964C351.426 215.762 353.863 218.914 354.755 222.625C356.345 229.195 355.045 236.131 351.184 241.679L350.832 242.197C344.883 250.696 335.165 251.985 327.97 250.321C326.907 250.072 325.789 250.322 324.934 251C324.406 251.436 324.01 252.012 323.791 252.661L322.005 257.196L320.916 259.946C315.414 273.902 307.36 286.71 297.166 297.714C296.567 298.374 296.235 299.234 296.237 300.125V358.5C296.19 360.186 297.33 361.676 298.97 362.071C307.684 364.123 310.523 364.815 314.618 365.919L323.184 368.282C331.312 370.581 339.309 373.056 347.023 375.643C353.702 377.893 359.862 380.107 365.809 382.429C367.031 382.928 368.138 383.368 369.171 383.779C370.615 384.353 371.914 384.87 373.184 385.411L373.773 385.643C374.416 385.875 375.005 386.107 375.559 386.357L375.845 386.464L376.309 386.661L376.523 386.768L379.309 387.946L382.255 389.25C389.452 392.5 395.809 395.661 401.684 398.911C405.755 401.196 409.452 403.393 412.898 405.643C412.974 405.688 413.05 405.734 413.127 405.784L413.88 406.286C415.505 407.339 417.202 408.5 418.88 409.714C423.976 413.345 428.755 417.401 433.166 421.839C434.059 422.75 434.97 423.697 435.845 424.679C436.818 425.745 437.73 426.866 438.577 428.036C439.255 428.94 440.321 429.47 441.452 429.464C441.639 429.387 441.818 429.291 441.987 429.179C443.304 428.965 444.393 428.035 444.809 426.768C445.443 424.596 445.844 422.364 446.005 420.107C446.125 418.564 446.352 417.03 446.684 415.518C454.461 383.837 447.739 376.283 433.72 366.227L432.398 365.286L431.916 364.929C423.371 359.333 418.676 349.425 419.755 339.268C420.181 335.427 421.313 331.697 423.095 328.268C430.87 312.242 419.915 301.399 411.713 294.494L409.612 292.75C402.733 287.088 403.27 275.097 403.719 270.823L403.864 269.511C404.096 267.345 404.237 265.514 404.237 263.768L404.245 262.89C404.269 249.787 400.11 239.801 391.952 233.232L391.67 232.999C385.014 227.38 386.171 220.575 392.373 202.78L393.737 198.911C399.338 183.264 392.588 171.373 389.093 166.162L388.184 164.839C384.823 159.312 380.52 154.417 375.47 150.375C373.56 148.993 372.473 145.883 371.389 142.148L370.719 139.803C369.086 134.131 366.988 127.238 361.702 121.125C357.95 116.889 353.866 112.96 349.487 109.375L349.106 109.049C345.232 105.741 342.163 103.119 340.434 99.6608C329.832 79.0296 315.44 73.7933 301.507 71.5033L300.362 71.3215C283.997 68.776 267.244 71.2021 252.273 78.2858ZM253.15 86.104C253.277 86.0475 253.401 85.9831 253.523 85.9108C267.628 78.6737 283.667 76.1037 299.327 78.5715L299.817 78.648C311.273 80.4589 324.359 84.1286 334.112 103.125C336.253 107.359 339.567 110.464 343.438 113.808L344.827 115C348.932 118.366 352.765 122.05 356.291 126.018C360.182 130.502 361.967 135.616 363.405 140.508L364.53 144.409C365.939 149.221 367.523 153.641 371.237 156.339C375.536 159.863 379.207 164.09 382.095 168.839L382.237 169.054C386.755 175.5 391.38 184.482 387.005 196.75C380.023 216.339 375.416 229.286 387.505 239.018L387.985 239.415C394.3 244.774 397.287 252.795 397.13 263.893C397.095 265.607 396.97 267.464 396.702 269.75L396.665 270.074C395.988 276.267 395.604 290.676 405.112 298.5C415.077 306.714 422.273 313.893 416.702 325.375C414.541 329.589 413.179 334.166 412.684 338.875C411.308 351.576 417.145 363.982 427.809 371.018L428.309 371.357C440.891 380.282 446.7 384.439 440.204 412.334L439.791 414.072L439.589 414.979C439.401 415.89 439.254 416.808 439.148 417.732L438.237 416.804C433.531 412.079 428.429 407.766 422.987 403.911L421.917 403.148C420.493 402.145 419.087 401.196 417.773 400.339L416.684 399.625C413.148 397.321 409.345 395.036 405.077 392.679C399.295 389.463 393.055 386.346 386.027 383.154C386.698 378.22 386.363 369.105 376.362 363.5L375.788 363.168C371.268 360.488 368.67 357.327 367.916 353.607C366.755 347.929 370.184 341.982 373.273 338.018L373.698 337.462C382.199 326.19 382.058 316.72 373.273 306.179C365.128 296.264 366.474 275.733 366.588 274.007L366.591 273.954L366.601 273.684C366.578 272.786 365.885 272.029 364.97 271.946C363.983 271.858 363.112 272.585 363.023 273.571C362.934 274.518 361.023 297.018 370.505 308.446C378.416 317.964 378.416 325.643 370.505 335.821L370.037 336.435C365.289 342.774 363.362 348.941 364.452 354.321C365.452 359.25 368.88 363.393 374.648 366.625L375.158 366.92C381.98 371.002 382.991 377.042 382.755 381.096L382.712 381.675L382.077 381.393L379.327 380.214L378.345 379.893L376.559 379.143L376.023 378.929C373.862 378 371.487 377.054 368.505 375.893L366.474 375.11C361.038 373.032 355.43 371.016 349.398 369C340.595 366.036 331.416 363.25 322.112 360.679L320.155 360.135C315.093 358.732 312.912 358.149 307.299 356.763L303.47 355.821V301.661C310.64 293.729 316.776 284.944 321.744 275.516C321.905 280.43 322.943 285.251 325.612 288.911C332.152 297.894 332.152 310.07 325.612 319.054L325.248 319.556C321.575 324.798 320.68 331.516 322.88 337.554C323.14 338.248 323.8 338.709 324.541 338.714C324.746 338.702 324.947 338.647 325.13 338.554L325.32 338.47C326.113 338.065 326.497 337.124 326.184 336.268C324.351 331.135 325.224 325.424 328.505 321.071C335.936 310.844 335.936 296.995 328.505 286.768C324.852 281.764 324.893 273.765 325.857 266.966C326.467 265.566 327.052 264.155 327.612 262.732L328.755 259.911C328.987 259.268 329.237 258.607 329.487 257.964C340.303 259.664 351.111 254.871 357.112 245.714L357.537 245.085C362.258 237.908 363.764 229.069 361.666 220.714C360.223 215.016 356.389 210.218 351.148 207.554C347.774 206.218 344.143 205.656 340.523 205.911C340.547 205.378 340.562 204.846 340.565 204.312C342.047 201.427 343.982 198.841 345.966 196.348L348.36 193.361C351.006 190.037 353.394 186.8 354.434 183.161C357.041 174 350.791 163.732 340.487 160.304C335.709 158.655 332.188 154.561 331.273 149.589L331.231 149.381C331.088 148.835 330.695 148.383 330.164 148.168C329.567 147.926 328.886 148.022 328.378 148.418C327.87 148.814 327.612 149.451 327.702 150.089C328.793 156.423 333.249 161.66 339.327 163.75C347.845 166.589 353.059 174.875 350.952 182.232C350.158 185.056 348.189 187.782 345.933 190.651L344.452 192.518C343.064 194.192 341.61 195.968 340.245 197.897C340.025 195.97 339.695 194.055 339.255 192.161C336.614 180.581 328.548 170.986 317.595 166.393C314.63 165.161 310.077 162.018 305.291 154.054L304.928 153.463C294.854 137.478 273.728 134.36 268.502 133.825L267.452 133.732C260.791 132.964 255.452 128.107 252.148 124.179C251.869 123.847 251.534 123.572 251.162 123.365C251.184 120.703 251.232 118.041 251.311 115.381C251.365 115.145 251.37 114.905 251.325 114.675C251.633 104.137 252.342 93.6124 253.452 83.125L253.15 86.104ZM386.027 383.154L385.095 382.732C385.407 382.873 385.718 383.014 386.027 383.154ZM214.13 77.8036C208.864 79.9446 203.341 81.3913 197.702 82.1072L194.704 82.6271C190.287 83.4103 186.301 84.263 183.773 85.9286C181.125 87.6735 178.372 89.2347 175.458 90.8259L173.987 91.625C172.595 92.3929 170.88 93.2322 169.22 94.0179C152.131 102.428 140.094 118.473 136.779 137.192L136.63 138.071C134.76 149.639 131.48 158.485 126.658 164.319L126.202 164.857C116.862 175.821 113.202 186.429 115.005 197.286C116.487 206.107 117.362 222.732 106.773 234.786C106.118 235.512 105.44 236.246 104.743 236.988L102.162 239.716C96.033 246.26 89.5081 254.412 86.9696 274.143C86.4416 280.311 86.8449 286.523 88.166 292.571L88.452 294.278C89.4367 300.223 90.1917 305.888 88.7732 311.464C87.6292 315.955 84.9017 319.596 82.0267 323.435L81.6303 323.964L80.2071 325.805C74.5889 333.157 68.9572 342.031 71.1377 359.973L71.2553 360.893C72.3625 369.162 70.1179 374.314 67.8985 379.19L66.9192 381.304C64.0106 387.657 61.2309 395.493 64.0053 413.125C64.0053 413.319 64.0522 413.504 64.0984 413.686C64.1159 413.755 64.1334 413.824 64.1482 413.893C67.2067 411.052 70.4153 408.377 73.76 405.881L75.2018 404.821C76.0589 404.179 76.9875 403.518 77.8982 402.875L80.6303 401.089C81.291 400.625 82.0232 400.143 82.7553 399.679C83.8089 398.982 84.916 398.286 86.041 397.607C88.5589 396.036 91.2732 394.446 94.3268 392.75C96.4153 391.589 98.5936 390.424 100.847 389.264L101.035 388.323C103.123 377.248 101.769 366.903 97.1544 358.944L96.7732 358.304C87.37 342.875 95.8554 334.488 102.045 328.37L102.13 328.286L104.112 326.322L104.443 325.978C108.801 321.361 117.409 308.923 111.63 286.696C108.63 275.089 111.398 267.054 114.237 262.464C116.028 259.462 118.469 256.899 121.38 254.964C121.79 254.724 122.278 254.657 122.737 254.778C123.196 254.899 123.588 255.197 123.827 255.607C124.294 256.395 124.086 257.395 123.375 257.937L122.806 258.307C120.622 259.789 110.701 267.64 114.896 285.064L115.077 285.786C121.452 310.357 111.309 324.071 106.648 328.821L104.612 330.839L103.498 331.93C97.6649 337.678 92.3911 343.911 99.3776 355.856L99.7196 356.429C104.86 364.86 106.555 375.648 104.71 387.321C106.053 386.655 107.421 385.995 108.809 385.339C113.577 383.089 118.255 381 122.755 379.161L125.519 377.993L126.898 377.375C127.926 376.895 128.953 376.514 129.974 376.136L129.976 376.135C130.32 376.008 130.663 375.881 131.005 375.75L133.413 374.82C133.791 374.677 134.172 374.536 134.577 374.393C137.623 373.248 140.816 372.103 144.212 370.911C140.359 364.438 140.146 356.289 143.898 349.541L144.22 348.982C150.226 338.533 148.805 334.733 146.415 328.343L146.38 328.25L145.773 326.646C145.466 325.821 145.155 324.957 144.845 324.036C144.595 323.262 144.329 322.504 144.063 321.757L142.956 318.656C140.415 311.391 138.84 304.256 147.42 294.685L147.898 294.161C158.518 282.693 151.361 267.663 148.154 262.224L147.684 261.446C142.398 252.813 140.242 236.618 151.849 219.138L152.327 218.429C161.734 204.584 158.752 192.349 157.884 189.475L157.684 188.839C157.441 188.249 157.532 187.575 157.922 187.07C158.312 186.565 158.942 186.306 159.574 186.391C160.136 186.467 160.624 186.804 160.896 187.292L160.987 187.482L160.992 187.493C161.292 188.263 166.974 202.849 155.711 219.85L155.309 220.446C144.308 236.535 145.833 251.287 150.548 259.213L151.23 260.337C154.743 266.282 162.674 282.892 150.99 296.113L150.559 296.589C142.145 305.642 144.265 311.677 146.939 319.291L146.987 319.429C147.398 320.571 147.809 321.732 148.202 323C148.502 323.889 148.802 324.727 149.098 325.525L150.1 328.178C152.408 334.37 153.739 339.35 147.657 350.195L147.291 350.839C143.727 356.743 143.95 364.087 147.645 369.713L150.112 368.857C158.72 365.964 167.97 363.161 177.523 360.5C183.648 358.804 189.827 357.197 195.97 355.679V301.518C186.895 291.586 179.512 280.233 174.112 267.911C173.196 266.188 172.414 264.397 171.773 262.554L170.702 259.857C170.297 258.798 169.892 257.73 169.498 256.665L168.827 254.821C164.463 242.338 165.515 228.612 171.702 216.954L172.112 216.196C172.451 215.56 172.802 214.929 173.148 214.307L173.155 214.294L173.159 214.288L173.162 214.282C173.412 213.831 173.66 213.386 173.898 212.946L175.436 210.181C176.091 208.989 176.699 207.85 177.22 206.768C181.96 196.865 181.033 189.649 179.618 182.864L178.753 178.828C177.363 172.141 176.608 165.576 182.095 158.304C186.643 152.293 193.404 151.446 199.671 151.128L203.414 150.962C210.276 150.625 214.397 149.885 216.416 144.804C221.679 132.041 236.458 123.458 247.559 122.918C247.576 120.671 247.614 118.424 247.67 116.178L246.833 115.904C241.859 114.358 228.987 111.747 221.237 122.929L220.16 124.503C219.296 125.777 218.515 126.957 217.806 128.044L216.354 130.27C210.261 139.527 208.056 141.508 195.628 139.583L194.987 139.482C185.041 137.893 177.791 139.054 172.791 143.054C167.791 147.054 164.541 154.643 163.862 165.25C163.775 166.147 163.037 166.826 162.157 166.861L161.827 166.857C161.353 166.825 160.911 166.606 160.599 166.247C160.288 165.888 160.132 165.42 160.166 164.946C161.005 153.321 164.505 145 170.541 140.214C176.422 135.551 184.134 134.279 194.701 135.836L197.204 136.211C207.244 137.636 208.118 136.348 213.987 127.357L214.738 126.236C215.003 125.836 215.276 125.42 215.559 124.99C216.38 123.74 217.282 122.366 218.291 120.911C227.19 108.064 241.941 110.765 247.782 112.486C247.939 107.805 248.178 103.128 248.497 98.4568L247.698 98.7735C243.721 100.287 236.428 102.129 233.184 96.9465C231.671 94.5006 229.04 92.9677 226.166 92.8572C222.554 92.8386 219.184 94.6718 217.237 97.7143C212.505 104.089 202.791 105.464 197.416 105.732C192.826 105.875 188.298 106.83 184.041 108.554C178.809 110.75 175.309 113.661 173.63 117.196C173.349 117.789 172.767 118.179 172.112 118.214C171.846 118.217 171.583 118.155 171.345 118.036C170.452 117.616 170.069 116.553 170.487 115.661C172.559 111.321 176.684 107.821 182.755 105.25C187.396 103.383 192.327 102.337 197.327 102.161L198.23 102.108C203.094 101.775 210.846 100.471 214.47 95.5893C217.094 91.6006 221.57 89.2245 226.345 89.2858C230.4 89.448 234.111 91.608 236.255 95.0536C238.79 99.099 247.604 95.0184 248.653 94.4845L248.794 94.4058C249.021 91.5041 249.279 88.6046 249.567 85.7079L249.333 85.5164L249.112 85.3036C245.876 82.1355 242.134 79.5285 238.041 77.5893C226.112 72.2322 220.827 74.6608 214.13 77.8036ZM433.773 402.071C437.845 395.732 432.898 389.071 429.72 386.446C429.353 386.145 428.881 386.002 428.409 386.049C427.936 386.096 427.502 386.329 427.202 386.696C426.586 387.457 426.697 388.573 427.452 389.196C427.454 389.2 427.474 389.217 427.508 389.248C428.148 389.821 433.995 395.055 430.755 400.143C430.224 400.972 430.464 402.074 431.291 402.607C431.578 402.793 431.913 402.892 432.255 402.893C432.869 402.898 433.442 402.588 433.773 402.071ZM78.0589 381.571C78.3626 381.936 78.5088 382.406 78.4652 382.879C78.4289 383.272 78.2634 383.64 77.9978 383.927L77.6159 384.281C77.0193 384.849 75.4396 386.562 76.2171 388.149L76.3446 388.375C76.6054 388.775 76.6955 389.262 76.5949 389.728C76.4942 390.194 76.2112 390.601 75.8089 390.857C75.5158 391.024 75.1815 391.105 74.8446 391.089C74.2375 391.088 73.6725 390.779 73.3446 390.268C70.9696 386.571 73.7553 382.786 75.5589 381.339C76.3152 380.719 77.4298 380.822 78.0589 381.571ZM178.398 337.429C182.47 331.089 177.541 324.429 174.362 321.804C173.603 321.172 172.476 321.276 171.845 322.036C171.213 322.795 171.317 323.922 172.077 324.554L172.083 324.559L172.103 324.577C172.564 324.979 178.682 330.315 175.398 335.5C175.046 336.049 175.021 336.747 175.333 337.319C175.646 337.892 176.246 338.249 176.898 338.25C177.505 338.249 178.07 337.94 178.398 337.429ZM343.818 287.217L343.987 287.357C347.166 289.982 352.112 296.625 348.041 302.964C347.713 303.475 347.148 303.785 346.541 303.786C346.199 303.785 345.864 303.686 345.577 303.5C344.75 302.967 344.51 301.864 345.041 301.036C348.337 295.832 342.147 290.477 341.74 290.125L341.72 290.107C341.182 289.717 340.905 289.061 341.001 288.403C341.097 287.745 341.55 287.196 342.178 286.976C342.735 286.781 343.348 286.875 343.818 287.217ZM135.367 178.01C135.271 177.353 134.817 176.803 134.19 176.583C133.563 176.364 132.866 176.51 132.38 176.964L132.184 177.13C129.004 179.86 124.338 186.362 128.327 192.571C128.655 193.082 129.22 193.392 129.827 193.393C130.167 193.397 130.502 193.304 130.791 193.125C131.193 192.869 131.476 192.462 131.577 191.996C131.678 191.53 131.588 191.042 131.327 190.643C128.311 185.951 133.124 181.103 134.373 179.959L134.818 179.575C135.243 179.178 135.452 178.595 135.367 178.01ZM374.487 183.464C376.273 184.964 379.077 188.821 376.702 192.393C376.387 192.924 375.819 193.255 375.202 193.268C374.86 193.267 374.525 193.168 374.237 192.982C373.469 192.487 373.208 191.501 373.6 190.699L373.702 190.518C374.952 188.554 372.327 186.304 372.22 186.214C371.531 185.57 371.462 184.501 372.062 183.774C372.662 183.046 373.724 182.911 374.487 183.464ZM295.834 111.513C291.727 104.696 285.554 94.7396 270.505 94.125C269.519 94.125 268.72 94.9245 268.72 95.9108C268.72 96.897 269.519 97.6965 270.505 97.6965L271.214 97.7378C283.136 98.574 288.49 106.138 292.254 112.338L293.112 113.768L294.577 116.179C296.467 119.069 299.889 120.292 303.658 121.342L305.741 121.907C311.429 123.436 316.717 125.001 317.97 131.125C318.142 131.97 318.893 132.571 319.755 132.554L319.88 132.429C320.345 132.334 320.752 132.059 321.013 131.664C321.275 131.268 321.368 130.786 321.273 130.321C319.725 122.726 313.572 120.363 307.985 118.787L305.017 117.978C301.69 117.068 298.686 116.11 297.452 114.179C297.32 113.963 297.186 113.745 297.049 113.523C296.722 112.99 296.381 112.437 296.041 111.857L295.834 111.513Z" fill="#372168"/>
<path fill-rule="evenodd" clip-rule="evenodd" d="M304.748 463.75C298.958 466.028 292.673 466.755 286.516 465.857C270.177 463.607 248.909 451.089 200.07 429.857C199.748 429.696 199.391 429.553 199.052 429.411C149.248 407.786 135.266 388.982 131.605 378.321C129.379 371.881 131.609 364.742 137.105 360.714C140.79 358.164 144.931 356.345 149.302 355.357C152.357 354.618 154.515 351.893 154.534 348.75C154.534 345.071 155.98 339.714 161.302 333.143C168.551 324.581 179.026 319.409 190.23 318.857C190.268 318.852 190.307 318.862 190.337 318.886C190.367 318.909 190.387 318.944 190.391 318.982C190.766 320.607 195.48 337.411 229.23 346.036C238.534 348.411 249.552 351.696 260.945 355.464C293.088 366.071 328.338 380.464 336.695 389.053C338.088 390.5 339.186 392.204 339.927 394.071C348.141 413.75 325.052 456.178 304.748 463.75Z" fill="#8C9AD9"/>
<path fill-rule="evenodd" clip-rule="evenodd" d="M286.016 469.393C287.92 469.669 289.842 469.806 291.766 469.804C296.625 469.791 301.442 468.896 305.98 467.161C319.641 462.054 332.463 444.322 339.123 429C342.784 420.572 348.195 404.643 343.23 392.714C342.318 390.426 340.965 388.339 339.248 386.572C329.659 376.732 291.677 361.839 262.07 352.072C250.48 348.232 239.427 344.964 230.123 342.572C197.98 334.357 194.016 318.839 193.855 318.161C193.451 316.446 191.903 315.247 190.141 315.286C177.87 315.841 166.396 321.523 158.516 330.947C152.391 338.536 150.963 344.822 150.963 348.804C150.975 350.323 149.927 351.646 148.445 351.982C143.618 353.06 139.05 355.074 134.998 357.911C128.225 362.857 125.478 371.649 128.23 379.572C132.463 391.929 147.945 411.197 197.552 432.732L198.177 433L198.659 433.214C214.98 440.322 228.516 446.536 239.23 451.536L240.107 451.938C261.656 461.824 274.775 467.842 286.016 469.393ZM164.07 335.411C170.083 328.251 178.604 323.659 187.891 322.572C190.534 328.572 199.57 342.072 228.355 349.447C237.498 351.786 248.391 355.018 259.82 358.804C296.641 370.947 327.213 384.357 334.141 391.5C335.218 392.624 336.067 393.946 336.641 395.393C339.48 402.214 337.927 413.714 332.57 426.107C325.409 442.554 313.463 456.679 303.498 460.411C298.255 462.461 292.571 463.12 286.998 462.322C276.659 460.893 263.659 454.893 242.23 444.964C231.391 439.947 217.909 433.75 201.588 426.607L200.963 426.339L200.48 426.125C150.695 404.518 138.07 386.089 134.98 377.161C133.248 372.189 134.974 366.67 139.23 363.572C142.519 361.301 146.219 359.694 150.123 358.839C154.759 357.714 158.044 353.592 158.105 348.822C158.159 345.982 159.23 341.357 164.07 335.411Z" fill="#372168"/>
<path fill-rule="evenodd" clip-rule="evenodd" d="M286.516 465.875C286.338 496.518 286.141 523.697 285.98 543.143C219.677 547.197 175.641 515.75 175.641 515.75H175.213C177.963 478.643 191.998 446 200.088 429.911C248.909 451.089 270.177 463.607 286.516 465.875Z" fill="#FFCB6D"/>
<path fill-rule="evenodd" clip-rule="evenodd" d="M174.248 519.125C179.963 523.018 217.641 547.071 274.016 547.071C277.98 547.071 282.052 546.964 286.159 546.75C288.047 546.636 289.52 545.07 289.516 543.178C289.677 523.732 289.873 496.553 290.052 465.911C290.068 464.112 288.745 462.582 286.963 462.339C276.685 460.894 263.769 454.92 242.372 445.024L242.32 445C241.882 444.798 241.441 444.594 240.994 444.387C230.369 439.476 217.282 433.426 201.498 426.571C199.76 425.822 197.739 426.558 196.891 428.25C188.659 444.607 174.445 477.696 171.641 515.428C171.52 517.124 172.61 518.67 174.248 519.125ZM282.516 539.75C226.034 542.232 186.355 518.446 178.945 513.66C181.855 480.285 193.838 450.839 201.909 434.482C216.189 440.751 228.197 446.3 238.075 450.866C238.524 451.073 238.969 451.278 239.409 451.482C259.463 460.768 272.302 466.696 283.016 468.875C282.838 496.553 282.677 521.25 282.516 539.75Z" fill="#372168"/>
<path d="M290.159 458.018C288.856 458.019 287.555 457.924 286.266 457.732C285.28 457.599 284.588 456.692 284.722 455.705C284.855 454.719 285.762 454.028 286.748 454.161C290.734 454.74 294.802 454.272 298.552 452.804C299.447 452.555 300.384 453.034 300.706 453.906C301.027 454.778 300.627 455.751 299.784 456.143C296.715 457.345 293.454 457.98 290.159 458.018Z" fill="#372168"/>
<path d="M214.141 500H213.873C212.904 499.853 212.235 498.952 212.373 497.982C217.141 464.893 229.82 444.089 230.355 443.214C230.907 442.514 231.89 442.328 232.66 442.778C233.429 443.228 233.749 444.176 233.409 445C233.266 445.214 220.57 466.089 215.891 498.411C215.792 499.306 215.042 499.987 214.141 500Z" fill="#372168"/>
<path d="M245.82 397.964H245.623C245.284 397.964 211.391 394.232 184.159 377.696C155.32 360.196 152.016 353.875 151.713 353.214C151.308 352.312 151.712 351.252 152.614 350.848C153.517 350.444 154.576 350.847 154.98 351.75C155.177 352.107 158.748 358.107 186.016 374.643C212.57 390.714 245.659 394.285 245.998 394.41C246.985 394.46 247.744 395.299 247.695 396.285C247.645 397.272 246.806 398.031 245.82 397.982V397.964Z" fill="#372168"/>
<path fill-rule="evenodd" clip-rule="evenodd" d="M354.284 382.679C350.127 387.149 345.309 390.955 339.998 393.964C339.258 392.097 338.16 390.393 336.766 388.947C328.409 380.375 293.177 365.964 261.016 355.357C283.498 347 295.588 322.286 298.695 315.089C299.254 313.841 300.572 313.113 301.927 313.304C306.855 313.964 318.427 317.339 329.338 334.304C329.338 334.304 345.177 338.804 355.605 351.304C363.112 360.608 362.547 374.039 354.284 382.679Z" fill="#BAACFF"/>
<path fill-rule="evenodd" clip-rule="evenodd" d="M338.748 397.393C339.128 397.52 339.526 397.587 339.927 397.589C340.589 397.588 341.239 397.403 341.802 397.054C347.466 393.883 352.6 389.846 357.016 385.089C366.575 375.122 367.173 359.583 358.409 348.911C348.998 337.714 335.82 332.589 331.623 331.161C320.463 314.5 308.57 310.571 302.373 309.732C299.416 309.346 296.566 310.983 295.409 313.732C292.32 320.732 280.838 344.196 259.695 352.054C258.265 352.577 257.324 353.95 257.353 355.473C257.381 356.996 258.371 358.333 259.82 358.804C296.641 370.946 327.213 384.357 334.141 391.5C335.214 392.617 336.057 393.934 336.623 395.375C337.01 396.321 337.784 397.055 338.748 397.393ZM339.248 386.518C330.552 377.571 298.409 364.464 270.409 354.821C288.641 344.071 298.695 323.911 301.766 316.786C306.105 317.464 316.373 320.75 326.266 336.125C326.735 336.853 327.452 337.386 328.284 337.625C328.427 337.661 343.177 341.964 352.784 353.482C359.278 361.391 358.809 372.912 351.695 380.268C348.581 383.583 345.094 386.525 341.302 389.036C340.706 388.128 340.018 387.284 339.248 386.518Z" fill="#372168"/>
<path d="M298.248 370.786C297.415 370.789 296.689 370.215 296.501 369.403C296.313 368.591 296.712 367.756 297.463 367.393C314.213 359.304 327.552 333.714 327.677 333.464C328.142 332.618 329.195 332.294 330.055 332.734C330.915 333.173 331.269 334.217 330.855 335.089C330.284 336.196 316.82 362 299.016 370.607C298.777 370.723 298.514 370.784 298.248 370.786Z" fill="#372168"/>
<path fill-rule="evenodd" clip-rule="evenodd" d="M336.886 104.571C340.126 101.409 342.674 97.6087 344.369 93.4106C346.029 88.2856 352.19 81.3213 355.886 77.4642C358.168 75.0457 359.904 72.1652 360.976 69.0178C368.94 46.1428 357.976 31.5178 344.904 27.482C336.833 24.9999 321.279 24.8749 311.886 25.0535C307.208 25.1623 302.548 24.418 298.136 22.857C286.511 18.7499 261.333 13.2142 225.797 27.1606C181.69 44.4999 139.726 82.2142 127.458 93.232C115.19 104.25 97.2615 121.803 105.154 134.303C113.047 146.803 131.386 138.589 131.386 138.589C134.583 145.143 140.851 148.303 146.976 146.411C166.494 140.375 209.476 127.625 235.976 123.982C270.011 119.303 295.69 116.839 325.261 117.571C331.244 117.696 336.333 111.946 336.886 104.571Z" fill="#A89FDB"/>
<path fill-rule="evenodd" clip-rule="evenodd" d="M129.904 143.036C132.948 147.611 138.035 150.411 143.529 150.536C145.072 150.537 146.607 150.309 148.083 149.857C165.833 144.375 209.994 131.143 236.511 127.571C268.958 123.107 295.101 120.464 325.172 121.179H325.458C332.815 121.179 339.101 114.75 340.297 106.214C343.557 102.879 346.098 98.9104 347.761 94.5536C348.851 91.2857 352.744 85.9643 358.476 79.9822C361.11 77.1906 363.114 73.8655 364.351 70.2322C369.476 55.5357 366.869 45.1786 363.779 39.0893C360.129 31.9029 353.727 26.4989 346.029 24.1072C337.797 21.5179 322.922 21.3036 311.886 21.5179C307.634 21.6195 303.399 20.9478 299.386 19.5357C286.869 15.0893 260.494 9.75001 224.547 23.875C194.94 35.5179 161.511 57.9464 125.136 90.6072L124.993 90.7358C115.04 99.6805 92.1847 120.22 102.19 136.214C108.833 146.786 121.869 145.679 129.904 143.036ZM134.654 137.054C134.058 135.82 132.81 135.036 131.44 135.036V135C130.931 135.019 130.431 135.147 129.976 135.375C129.815 135.446 114.386 142.196 108.244 132.429C102.101 122.661 117.654 106.929 129.958 95.8751C165.654 63.8572 198.351 41.8572 227.154 30.5358C260.94 17.2679 285.422 22.1786 296.994 26.2858C301.814 27.9836 306.902 28.7943 312.011 28.6786C326.851 28.3929 338.19 29.1786 343.904 30.9644C349.756 32.7771 354.625 36.88 357.404 42.3394C360.922 49.3036 360.994 58.1429 357.601 67.8929C356.685 70.5505 355.219 72.9846 353.297 75.0358C348.672 79.8393 342.761 86.8036 340.976 92.3394C339.464 95.9734 337.235 99.2652 334.422 102.018C333.775 102.624 333.386 103.455 333.333 104.339C332.904 109.768 329.404 114.018 325.333 114.018C294.797 113.321 268.333 115.964 235.547 120.464C208.476 124.197 163.833 137.482 145.976 143.018C141.511 144.393 137.083 142.036 134.654 137.054Z" fill="#372168"/>
<path d="M127.422 140.054C126.588 140.057 125.863 139.483 125.675 138.671C125.487 137.859 125.886 137.024 126.636 136.661C126.994 136.482 164.44 118.161 222.619 107.393C236.244 104.875 249.619 102.947 262.333 101.661C263.319 101.557 264.203 102.273 264.306 103.259C264.41 104.245 263.694 105.129 262.708 105.232C250.065 106.5 236.797 108.429 223.261 110.929C165.601 121.643 128.619 139.697 128.208 139.893C127.962 140.005 127.693 140.06 127.422 140.054Z" fill="#372168"/>
<path d="M336.886 106.357H336.458C336.279 106.357 317.154 101.75 280.101 103.875C279.627 103.904 279.161 103.744 278.806 103.429C278.451 103.114 278.235 102.67 278.208 102.197C278.179 101.723 278.339 101.257 278.654 100.902C278.969 100.546 279.413 100.331 279.886 100.304C317.565 98.1608 336.529 102.697 337.315 102.893C338.301 103.011 339.005 103.907 338.886 104.893C338.768 105.879 337.873 106.583 336.886 106.464V106.357Z" fill="#372168"/>
<path d="M308.333 43.2858C301.909 43.2184 295.593 41.6271 289.904 38.643L289.458 38.4287C288.868 38.1651 288.467 37.6036 288.408 36.9603C288.35 36.317 288.643 35.6923 289.175 35.3265C289.708 34.9608 290.396 34.9111 290.976 35.1965L291.422 35.4108C297.029 38.0537 305.511 42.0358 319.994 38.0001C320.451 37.8743 320.939 37.9353 321.351 38.1698C321.763 38.4042 322.065 38.7929 322.19 39.2501C322.453 40.1965 321.903 41.178 320.958 41.4465C316.852 42.6276 312.605 43.2463 308.333 43.2858Z" fill="#372168"/>
<path d="M214.333 17.3037C217.239 20.8388 219.281 25.0025 220.297 29.4644L214.333 17.3037Z" fill="#F9F9F9"/>
<path d="M220.279 33.0358C218.594 33.0295 217.143 31.846 216.797 30.1965C215.903 26.2658 214.106 22.5974 211.547 19.4823C210.389 17.94 210.664 15.7563 212.169 14.5501C213.675 13.3438 215.866 13.551 217.119 15.018C220.378 18.9873 222.659 23.6665 223.779 28.6787C223.975 29.6071 223.793 30.575 223.273 31.369C222.754 32.163 221.94 32.7177 221.011 32.9108C220.773 32.98 220.527 33.022 220.279 33.0358Z" fill="#372168"/>
</g>
<path fill-rule="evenodd" clip-rule="evenodd" d="M0 250C0 111.929 111.929 0 250 0C388.071 0 500 111.929 500 250C500 388.071 388.071 500 250 500C111.929 500 0 388.071 0 250ZM492.857 250C492.857 115.874 384.126 7.14286 250 7.14286C115.874 7.14286 7.14286 115.874 7.14286 250C7.14286 384.126 115.874 492.857 250 492.857C384.126 492.857 492.857 384.126 492.857 250Z" fill="#372168"/>
</svg>
