<svg width="500" height="500" viewBox="0 0 500 500" fill="none" xmlns="http://www.w3.org/2000/svg">
<path fill-rule="evenodd" clip-rule="evenodd" d="M250 496.429C386.099 496.429 496.429 386.099 496.429 250C496.429 113.901 386.099 3.57141 250 3.57141C113.901 3.57141 3.57153 113.901 3.57153 250C3.57153 386.099 113.901 496.429 250 496.429Z" fill="#E7EEFF"/>
<mask id="mask0_0_284" style="mask-type:alpha" maskUnits="userSpaceOnUse" x="3" y="3" width="494" height="494">
<path fill-rule="evenodd" clip-rule="evenodd" d="M250 496.429C386.099 496.429 496.429 386.099 496.429 250C496.429 113.901 386.099 3.57141 250 3.57141C113.901 3.57141 3.57153 113.901 3.57153 250C3.57153 386.099 113.901 496.429 250 496.429Z" fill="white"/>
</mask>
<g mask="url(#mask0_0_284)">
<path fill-rule="evenodd" clip-rule="evenodd" d="M336.359 210.077L336.357 210.036C337.536 196.964 339.357 159.232 324.071 134.357C305.536 104.339 275.161 95.5535 249.464 95.9821C223.732 95.5535 193.357 104.339 174.821 134.357C159.554 159.125 161.375 196.911 162.571 209.929V210.03C158.281 208.601 153.604 208.884 149.518 210.821C140.161 215.268 136.089 230.125 145.018 243.714C151.783 254.04 163.198 255.882 171.903 253.893C172.226 254.732 172.545 255.575 172.861 256.412C173.129 257.12 173.395 257.825 173.661 258.518L174.768 261.286C180.393 275.65 188.675 288.826 199.179 300.125C203.705 304.911 208.768 309.159 214.268 312.786C224.14 319.474 235.722 323.192 247.643 323.5H251.214C263.136 323.197 274.719 319.478 284.589 312.786C288.752 310.04 292.665 306.938 296.286 303.517C292.663 306.963 288.743 310.089 284.571 312.857C274.702 319.55 263.118 323.269 251.196 323.571H247.625C235.705 323.264 224.122 319.545 214.25 312.857C208.75 309.231 203.687 304.982 199.161 300.196V359.357C200.071 365.125 211.625 370.054 227.982 372.357C234.864 373.312 241.803 373.796 248.75 373.804H250C256.948 373.796 263.886 373.312 270.768 372.357C287.214 369.982 298.804 365.071 299.607 359.268V300.201L299.696 300.107C310.194 288.814 318.47 275.644 324.089 261.286L325.196 258.518C325.814 257.001 326.396 255.431 326.961 253.878C335.674 255.891 347.129 254.065 353.911 243.714C362.768 230.125 358.768 215.268 349.375 210.875C345.301 208.942 340.638 208.656 336.359 210.077ZM168.304 242.786C168.661 244.021 169.028 245.245 169.406 246.457C169.011 245.278 168.62 244.09 168.232 242.893C167.946 241.946 167.607 240.768 167.393 239.964L167.392 239.962L167.392 239.96C167.178 239.157 166.893 238.088 166.75 237.482C166.693 237.24 166.648 237.035 166.601 236.825L166.6 236.823C166.53 236.507 166.457 236.179 166.339 235.696C166.241 235.295 166.156 234.879 166.071 234.464C165.987 234.049 165.902 233.634 165.804 233.232C165.607 232.429 165.446 231.625 165.286 230.786L165.179 230.232C164.982 229.161 164.786 228.071 164.607 226.964C164.464 226.19 164.339 225.405 164.232 224.607C164.214 224.515 164.194 224.422 164.174 224.328L164.173 224.326C164.096 223.968 164.018 223.603 164.018 223.25C163.857 222.125 163.696 220.982 163.554 219.821C163.387 218.548 163.244 217.315 163.125 216.125C163.018 215.625 162.964 215.125 162.964 214.625C162.964 214.625 163.089 214.286 162.964 214.018C162.896 213.872 162.892 213.638 162.887 213.419C162.884 213.235 162.88 213.062 162.839 212.964C162.784 212.833 162.784 212.809 162.779 212.682C162.775 212.602 162.771 212.481 162.75 212.268L162.74 212.171L162.733 212.101C162.738 212.123 162.744 212.143 162.75 212.161C162.791 212.274 162.787 212.34 162.783 212.418C162.777 212.512 162.771 212.623 162.839 212.857C162.907 213.091 162.912 213.266 162.916 213.441C162.92 213.587 162.924 213.732 162.964 213.911C163.054 214.304 163.054 214.518 163.054 214.518C163.068 214.718 163.094 214.918 163.119 215.118C163.158 215.418 163.196 215.718 163.196 216.018C163.312 217.177 163.459 218.368 163.594 219.46L163.625 219.714C163.768 220.875 163.929 222.018 164.089 223.143C164.114 223.298 164.137 223.456 164.16 223.614C164.202 223.91 164.245 224.209 164.304 224.5C164.411 225.298 164.536 226.083 164.679 226.857C164.857 227.964 165.054 229.054 165.25 230.125L165.357 230.679C165.438 231.098 165.527 231.5 165.616 231.902C165.705 232.304 165.795 232.705 165.875 233.125C165.967 233.603 166.087 234.133 166.197 234.617C166.28 234.981 166.357 235.321 166.411 235.589C166.536 236.214 166.679 236.804 166.821 237.375L166.933 237.814C167.097 238.458 167.245 239.038 167.464 239.857C167.732 240.857 168.018 241.839 168.304 242.786ZM162.634 211.15C162.641 211.261 162.649 211.369 162.657 211.471C162.623 211.182 162.595 210.883 162.59 210.571C162.607 210.764 162.621 210.961 162.634 211.15Z" fill="#FFC7BB"/>
<path d="M28.5708 496.428C28.9184 495.049 29.1005 494.313 29.4546 492.974C29.7008 492.043 29.9443 491.122 30.1786 490.214C31.1786 486.643 32.1965 483.071 33.2322 479.804C33.3562 479.409 33.4801 479.016 33.6035 478.626C33.8712 477.778 34.1362 476.938 34.3929 476.107C34.6786 475.214 34.9643 474.321 35.25 473.5C36.0357 471.143 36.8215 468.857 37.6072 466.661C39.381 461.732 41.1667 457.196 42.9643 453.054C43.4108 452 43.8572 450.964 44.3036 449.964L44.5715 449.375C45.5358 447.161 46.5179 445.089 47.5 443.125C50.2915 437.275 53.6024 431.687 57.3929 426.429C57.443 426.353 57.497 426.282 57.5494 426.213L57.5495 426.213C57.6091 426.134 57.6668 426.058 57.7143 425.982C58.6965 424.696 59.6429 423.536 60.5536 422.536L60.6608 422.411C61.3021 421.689 61.9834 420.988 62.6598 420.291C62.8874 420.057 63.1145 419.823 63.3393 419.589C69.0979 413.797 75.4345 408.609 82.25 404.107L84.3215 402.732C85.3691 402.042 86.4405 401.363 87.5358 400.696C90.1786 399.054 92.8929 397.464 95.6965 395.911C100.321 393.339 105.107 390.911 109.982 388.607C115.875 385.821 121.875 383.25 127.839 380.821L131.893 379.214C133.054 378.75 134.232 378.304 135.464 377.875C140.679 375.893 145.857 374.071 150.911 372.375C160.696 369.089 169.964 366.339 178.143 364.071C186.607 361.732 193.857 359.911 199.196 358.625C199.17 358.874 199.17 359.126 199.196 359.375C200.107 365.143 211.696 370.089 228.018 372.375C234.899 373.33 241.838 373.814 248.786 373.821H250.036C256.983 373.814 263.922 373.33 270.804 372.375C287.25 370.054 298.839 365.089 299.643 359.286C299.661 359.066 299.661 358.845 299.643 358.625C305 359.929 312.321 361.75 320.839 364.107C328.982 366.357 338.196 369.107 347.929 372.375C354.107 374.446 360.429 376.714 366.875 379.214C370.149 380.476 373.417 381.804 376.679 383.196L380.411 384.786L383.411 386.107C390.143 389.143 396.768 392.393 403.054 395.911C406.982 398.089 410.804 400.357 414.446 402.732L415.464 403.411C417.25 404.554 419.036 405.732 420.607 406.982C425.886 410.723 430.838 414.905 435.411 419.482C436.375 420.446 437.304 421.429 438.196 422.429C439.287 423.635 440.312 424.899 441.268 426.214V426.321C442.089 427.429 442.946 428.643 443.786 429.893C446.514 434.095 448.983 438.46 451.179 442.964C452.232 445.107 453.286 447.375 454.375 449.804C455.054 451.339 455.732 452.929 456.411 454.571C456.875 455.677 457.326 456.811 457.787 457.974L457.946 458.375C458.958 460.946 459.976 463.655 461 466.5C461.786 468.696 462.571 470.982 463.357 473.339C464.262 476.113 465.173 478.994 466.089 481.982C466.219 482.421 466.351 482.862 466.484 483.306L466.488 483.32L466.489 483.323C466.738 484.154 466.989 484.993 467.232 485.839L467.341 486.218C467.689 487.426 468.073 488.762 468.429 490.054C469.054 492.268 469.089 494.089 469.642 496.428H28.5708Z" fill="#6A88E3"/>
<g style="mix-blend-mode:soft-light" opacity="0.8">
<path d="M320.929 364.089C316.518 370.839 309.143 376.197 299.679 380.161C291.583 383.427 283.114 385.677 274.465 386.857C257.921 389.19 241.133 389.19 224.59 386.857C215.891 385.664 207.373 383.396 199.232 380.107C189.822 376.143 182.5 370.786 178.107 364.036C186.572 361.696 193.822 359.875 199.161 358.589C199.135 358.839 199.135 359.09 199.161 359.339C200.072 365.107 211.661 370.054 227.982 372.339C234.864 373.295 241.803 373.778 248.75 373.786H250C256.948 373.778 263.887 373.295 270.768 372.339C287.215 370.018 298.804 365.054 299.607 359.25C299.625 359.03 299.625 358.809 299.607 358.589C305.107 359.911 312.411 361.732 320.929 364.089Z" fill="white"/>
</g>
<g style="mix-blend-mode:multiply" opacity="0.15">
<path fill-rule="evenodd" clip-rule="evenodd" d="M296.036 303.786V356.107C251.536 356.804 218.571 333.893 202.839 320.197V303.75C206.378 307.132 210.222 310.181 214.321 312.857C224.196 319.539 235.777 323.257 247.696 323.572H251.268C263.187 323.257 274.767 319.539 284.643 312.857C288.703 310.179 292.516 307.143 296.036 303.786Z" fill="#7C3830"/>
</g>
<path fill-rule="evenodd" clip-rule="evenodd" d="M251.405 92.502L249.607 92.518C229.965 92.1608 193.786 96.9644 172.107 132.572C158.313 154.962 157.857 186.762 158.887 204.188L158.974 205.569C155.23 205.217 151.43 205.875 147.982 207.518C142.75 210.188 138.924 214.984 137.482 220.679C135.315 229.276 136.969 238.391 142.018 245.679L142.367 246.206C147.562 253.862 156.293 258.382 165.572 258.179C166.928 258.145 168.279 258.026 169.616 257.82C169.875 258.516 170.14 259.213 170.411 259.911L171.518 262.697C177.149 276.991 185.317 290.146 195.623 301.528L195.714 301.627L195.715 355.745C189.544 357.258 183.316 358.893 177.018 360.625C167.286 363.322 158.322 366.054 149.607 368.982C143.947 370.947 138.839 372.732 134.054 374.518C133.649 374.661 133.268 374.802 132.89 374.945L129.121 376.404C128.211 376.762 127.298 377.131 126.393 377.5L123.777 378.554C118.55 380.687 113.355 382.972 108.304 385.375C103.161 387.804 98.2681 390.286 93.8038 392.786C90.7323 394.5 88.0181 396.089 85.5359 397.625L84.686 398.147C83.844 398.67 83.027 399.192 82.2502 399.714C81.5181 400.179 80.7859 400.661 80.1252 401.125C73.1183 405.706 66.5965 410.989 60.6609 416.893C60.1084 417.526 59.5607 418.08 59.0418 418.606C58.6385 419.014 58.2522 419.406 57.8931 419.804L57.7681 419.964C56.8395 420.964 55.8395 422.179 54.7324 423.643C54.6629 423.719 54.603 423.803 54.5538 423.893L54.3752 424.125L53.4065 425.488C49.8928 430.513 46.8003 435.821 44.1609 441.357C43.2936 442.952 42.5902 444.473 41.9337 445.961L41.1609 447.732L40.4341 449.368C40.1312 450.062 39.8335 450.768 39.5359 451.482L38.9407 452.892C37.3534 456.697 35.7661 460.857 34.1788 465.286C33.3931 467.5 32.5895 469.822 31.8038 472.197L31.5048 473.081L30.9109 474.875L29.3308 479.975C28.7465 481.87 28.1571 483.86 27.5661 485.923L26.6788 489.072C26.397 490.181 26.1022 491.308 25.8051 492.444L25.8033 492.45C25.4985 493.615 25.1912 494.79 24.8931 495.964L24.4109 497.75C24.2591 498.339 24.2617 499.386 24.1077 500H475.001L473.607 495.268C473.607 495.268 472.5 491.089 471.929 489.089C471.643 488.036 471.34 486.964 471.036 485.929L470.732 484.839L469.572 480.929C469.114 479.523 468.684 478.141 468.261 476.782L468.26 476.777L468.259 476.775C467.774 475.218 467.299 473.692 466.804 472.197C466.018 469.822 465.214 467.5 464.429 465.286C463.375 462.411 462.34 459.607 461.322 457.054L461.161 456.607C460.697 455.429 460.232 454.286 459.768 453.197C459.089 451.518 458.393 449.911 457.697 448.339C456.813 446.371 455.999 444.603 455.218 442.96L454.447 441.357C452.18 436.743 449.646 432.265 446.857 427.947C446.494 427.435 446.143 426.92 445.786 426.397L445.785 426.395L445.78 426.388L445.776 426.382L445.775 426.38C445.276 425.649 444.766 424.902 444.197 424.125L444.054 423.947C442.893 422.375 441.786 421.018 440.84 419.982C439.893 418.947 438.911 417.893 437.929 416.911C433.212 412.19 428.105 407.877 422.661 404.018C420.875 402.732 419.107 401.518 417.447 400.447C417.072 400.197 416.697 399.929 416.375 399.732L415.181 398.96C411.971 396.905 408.544 394.879 404.75 392.768C398.697 389.411 392.179 386.161 384.786 382.839L381.732 381.5L380.786 381.089L378 379.893C374.804 378.536 371.572 377.232 368.089 375.875C362.036 373.518 355.786 371.268 348.982 368.982C340.197 366.018 331.018 363.232 321.714 360.661C316.142 359.113 311.158 357.818 307.021 356.777L303.177 355.82L303.18 301.868C313.65 290.402 321.936 277.114 327.625 262.661L328.75 259.839C328.994 259.208 329.236 258.57 329.475 257.934C330.756 258.092 332.047 258.174 333.34 258.179C342.78 258.374 351.652 253.682 356.804 245.768L357.228 245.139C361.94 237.958 363.446 229.123 361.357 220.768C359.904 215.074 356.072 210.281 350.839 207.607C347.544 206.034 343.923 205.364 340.34 205.62C341.456 188.522 341.341 155.535 327.197 132.589C305.857 98.0331 271.243 92.4936 251.405 92.502ZM174.31 368.941L176.707 368.261C181.449 374.391 188.538 379.467 197.822 383.375C206.269 386.798 215.112 389.149 224.143 390.375C232.577 391.587 241.087 392.184 249.607 392.161C258.096 392.211 266.576 391.644 274.982 390.464C283.919 389.235 292.669 386.908 301.036 383.536C310.438 379.612 317.599 374.466 322.363 368.291C330.744 370.648 339.002 373.193 346.947 375.857C353.643 378.107 359.786 380.322 365.732 382.643C369.143 383.964 372.322 385.25 375.465 386.589L379.161 388.161L382.089 389.464C389.286 392.697 395.643 395.857 401.518 399.125C405.607 401.411 409.286 403.607 412.75 405.857L414.713 407.143C416.03 408.014 417.375 408.943 418.732 409.929C423.828 413.559 428.607 417.616 433.018 422.054L433.027 422.063L433.028 422.064L433.031 422.067C433.92 422.973 434.826 423.898 435.697 424.893C436.703 425.999 437.645 427.162 438.518 428.375L438.679 428.572C439.554 429.732 440.304 430.839 441.036 431.964C443.67 436.043 446.056 440.277 448.179 444.643L448.549 445.396C449.169 446.67 449.807 448.032 450.479 449.51L451.304 451.339C451.982 452.857 452.643 454.411 453.322 456.054L453.768 457.136C454.066 457.865 454.363 458.607 454.661 459.357L454.822 459.786C455.804 462.268 456.822 464.964 457.839 467.804L458.426 469.443C459.009 471.102 459.585 472.813 460.161 474.554L460.71 476.209C461.439 478.434 462.161 480.727 462.875 483.089L463.286 484.464L464.322 488C464.411 488.319 464.502 488.639 464.594 488.962C464.796 489.67 465 490.389 465.197 491.125L465.75 493.124L33.0362 492.857L34.0604 489.595C34.9505 486.424 35.8373 483.426 36.6966 480.661L37.8574 476.982C37.9278 476.766 37.9972 476.553 38.066 476.341L38.0746 476.314L38.077 476.307C38.2834 475.671 38.4851 475.05 38.6966 474.429L39.1662 473.034C39.7902 471.186 40.4074 469.389 41.0359 467.661C42.6966 462.804 44.4824 458.304 46.2681 454.232C46.6966 453.214 47.1431 452.197 47.5716 451.232L48.3808 449.399C49.0916 447.809 49.8574 446.2 50.7145 444.5C53.4042 438.864 56.6019 433.484 60.2681 428.429L60.6252 427.929L60.9123 427.567C61.7565 426.502 62.4952 425.571 63.0895 424.929L63.3574 424.643C64.1074 423.75 65.0002 422.857 65.8931 421.964C71.4951 416.4 77.6454 411.416 84.2502 407.089L86.2859 405.75C87.3038 405.089 88.3216 404.429 89.4109 403.768L90.3253 403.204C92.4835 401.882 94.8194 400.525 97.4288 399.072C101.75 396.714 106.482 394.304 111.5 391.929C117.268 389.197 123.214 386.607 129.214 384.232L130.403 383.75L134.381 382.179C135.139 381.883 135.905 381.589 136.679 381.304L138.107 380.768C141.462 379.517 144.969 378.262 148.722 376.972L152 375.857C159.158 373.447 166.502 371.172 174.31 368.941ZM184.393 366.157C188.516 365.055 192.642 363.992 196.732 362.982C201.168 370.959 217.454 374.461 226.094 375.788L227.536 376C234.583 376.981 241.689 377.476 248.804 377.482H250.072C257.181 377.477 264.281 376.981 271.322 376C279.216 374.897 296.294 371.631 301.647 363.858C301.843 363.578 302.024 363.293 302.189 363.002L302.186 363.002L302.25 362.893C302.23 362.93 302.21 362.966 302.189 363.002C304.675 363.572 307.543 364.297 310.758 365.145L314.781 366.219C310.113 370.867 304.525 374.491 298.375 376.857L296.904 377.436C289.53 380.27 281.85 382.239 274.018 383.304C257.825 385.589 241.39 385.589 225.197 383.304C216.793 382.154 208.564 379.971 200.697 376.804C194.553 374.41 188.976 370.761 184.322 366.089L184.393 366.157ZM202.804 308.572V358.947C203.589 361.697 211.875 366.429 228.554 368.768C235.275 369.706 242.053 370.177 248.839 370.179H250.072C256.852 370.176 263.624 369.705 270.34 368.768C277.467 367.762 283.059 366.326 287.189 364.797L287.549 364.661C293.011 362.567 295.752 360.324 295.964 358.786C295.966 358.443 296.014 358.107 296.105 357.784L296.108 308.727C293.577 310.92 290.923 312.971 288.159 314.868L286.768 315.804C277.842 321.844 267.593 325.583 256.933 326.73C255.026 326.945 253.107 327.077 251.179 327.125H247.697L247.583 327.12L247.554 327.125C245.591 327.072 243.637 326.932 241.697 326.706L239.892 326.47L238.853 326.312L237.354 326.054L236.156 325.822C228.056 324.177 220.306 321.02 213.323 316.484L212.375 315.857C209.015 313.66 205.817 311.225 202.804 308.572ZM247.787 99.6839L249.465 99.6965C267.482 99.4108 300.768 103.75 320.893 136.375C335.178 159.533 333.806 195.554 332.772 208.258L332.643 209.75V209.982L335.894 210.257L332.697 210.179L332.695 210.199L332.643 210.197C332.56 211 332.48 211.699 332.412 212.273L332.179 214.072C332.17 214.173 332.17 214.274 332.179 214.375L332.072 215.732C331.786 218.304 331.518 220.518 331.161 222.875C330.804 225.232 330.411 227.518 330 229.679L329.793 230.775C329.649 231.508 329.494 232.238 329.34 232.929L328.883 234.995L328.643 236.018V236.179C328.527 236.679 328.406 237.152 328.286 237.612L327.929 238.964L327.93 239.159C327.69 240.117 327.433 240.953 327.161 241.822L326.784 243.038L326.453 244.077L326.375 244.304C325.572 246.929 324.661 249.661 323.572 252.661V252.839C323.142 254.042 322.69 255.244 322.251 256.409L321.929 257.268L320.266 261.407C314.81 274.796 306.985 287.096 297.161 297.714L297.491 297.352C297.344 297.461 297.203 297.582 297.072 297.714C292.739 302.311 287.885 306.386 282.607 309.857L281.732 310.443C272.643 316.406 262.061 319.714 251.179 319.982H247.697C247.338 319.973 246.979 319.96 246.62 319.944L245.709 319.896L244.376 319.798C234.345 318.949 224.68 315.534 216.322 309.857L215.113 309.046C210.31 305.76 205.871 301.967 201.875 297.732C201.772 297.623 201.663 297.522 201.546 297.433C191.505 286.512 183.571 273.827 178.143 260.018L177.054 257.304C176.869 256.822 176.685 256.331 176.5 255.837L175.393 252.857L175.072 252.679C173.822 249.197 172.625 245.536 171.5 241.822C171.375 241.395 171.233 240.889 171.099 240.407L171.097 240.402L170.967 239.935L170.598 238.661C170.532 238.425 170.466 238.167 170.398 237.893L169.991 236.244C169.968 236.145 169.946 236.047 169.924 235.946C169.907 235.869 169.889 235.79 169.872 235.71C169.812 235.434 169.747 235.137 169.661 234.786L169.484 234.042C169.367 233.54 169.256 233.024 169.161 232.5V232.322C168.982 231.589 168.822 230.839 168.679 230.036L168.572 229.536L167.877 225.542C167.796 225.064 167.72 224.572 167.661 224.072C167.661 224.048 167.675 224.042 167.689 224.036C167.716 224.024 167.744 224.012 167.661 223.857C167.536 223.625 167.536 223.375 167.536 223.143V222.679C167.482 222.316 167.431 221.945 167.38 221.57L166.954 218.447C166.841 217.577 166.737 216.67 166.643 215.732L166.543 214.826L166.518 214.375C166.528 214.262 166.528 214.149 166.518 214.036L166.321 212.39L166.322 211.75C166.31 211.605 166.289 211.447 166.266 211.274C166.218 210.912 166.161 210.483 166.161 209.964L166.15 209.69C166.129 209.418 166.078 209.153 165.998 208.899L165.907 207.817C164.874 194.745 163.647 159.321 177.804 136.375C197.342 104.729 229.281 99.6966 247.787 99.6839ZM340.114 212.879L339.767 212.935L339.563 214.58C339.537 214.767 339.516 214.908 339.5 215L339.393 216.339C339.127 218.824 338.862 221.062 338.56 223.078L338.429 223.929L338.334 224.52L338.333 224.528C337.999 226.619 337.623 228.971 337.232 231.072C337.089 231.857 336.939 232.627 336.78 233.392L336.536 234.536L336.479 234.795C336.255 235.819 336.07 236.666 335.839 237.589V237.768L335.67 238.453C338.062 238.329 340.29 237.109 341.679 235.107C343.397 232.746 343.679 229.631 342.411 227C341.88 226.171 342.119 225.069 342.947 224.536C343.775 224.005 344.878 224.244 345.411 225.072C347.292 228.649 347.173 232.947 345.098 236.415C343.023 239.883 339.291 242.02 335.25 242.054L335.322 242.089C335.12 242.089 334.919 242.081 334.718 242.067L334.461 242.971L334.197 243.857C333.893 244.857 333.643 245.643 333.339 246.5C332.897 247.941 332.408 249.455 331.871 251.043L331.732 251.036C339.141 251.719 346.329 248.374 350.581 242.306L350.911 241.822C354.771 236.266 356.071 229.326 354.482 222.75C353.59 219.044 351.152 215.897 347.786 214.107C345.57 213.04 343.112 212.598 340.676 212.816L340.114 212.879ZM151.036 214.054C152.87 213.175 154.877 212.717 156.911 212.714C157.733 212.727 158.552 212.817 159.357 212.982V213.393C159.413 213.589 159.416 213.756 159.418 213.913C159.42 214.058 159.422 214.194 159.464 214.339C159.518 214.522 159.54 214.678 159.548 214.805L159.554 215.018C159.583 215.508 159.636 215.997 159.714 216.482C159.756 216.911 159.802 217.337 159.849 217.761L160.143 220.25C160.286 221.464 160.447 222.625 160.625 223.822V224.232L160.786 225.197C160.84 225.607 160.902 226.018 160.967 226.415L161.35 228.679C161.465 229.334 161.589 229.991 161.713 230.653L161.768 230.947L161.857 231.464L162.462 234.334L162.929 236.447L163.357 238.232V238.429L163.375 238.499C160.829 238.501 158.422 237.251 156.964 235.125C155.259 232.765 154.985 229.659 156.25 227.036C156.781 226.207 156.542 225.105 155.715 224.572C154.886 224.04 153.784 224.28 153.25 225.107C151.369 228.684 151.488 232.983 153.563 236.451C155.638 239.919 159.37 242.055 163.411 242.089C163.716 242.095 164.021 242.085 164.325 242.061L164.433 242.052L164.59 242.036C164.537 242.042 164.485 242.047 164.433 242.052C164.397 242.055 164.361 242.058 164.325 242.061L164.321 242.061L164.84 243.839C165.572 246.268 166.322 248.643 167.107 250.982C159.504 251.688 152.13 248.145 147.929 241.768L147.55 241.208C143.974 235.755 142.811 229.052 144.357 222.697C145.244 218.992 147.675 215.846 151.036 214.054Z" fill="#372168"/>
<path fill-rule="evenodd" clip-rule="evenodd" d="M302.189 363.002C302.21 362.966 302.23 362.93 302.25 362.893L302.186 363.002L302.189 363.002ZM164.433 242.052L164.59 242.036C164.537 242.042 164.485 242.047 164.433 242.052Z" fill="#372168"/>
<g style="mix-blend-mode:multiply" opacity="0.15">
<path fill-rule="evenodd" clip-rule="evenodd" d="M218.75 249.583C218.75 260.484 210.755 269.32 200.893 269.32C191.031 269.32 183.036 260.484 183.036 249.583C183.036 238.683 191.031 229.846 200.893 229.846C210.755 229.846 218.75 238.683 218.75 249.583ZM315.179 249.583C315.179 260.484 307.184 269.32 297.322 269.32C287.459 269.32 279.464 260.484 279.464 249.583C279.464 238.683 287.459 229.846 297.322 229.846C307.184 229.846 315.179 238.683 315.179 249.583Z" fill="#FF1300"/>
</g>
<path d="M246.753 284.207C245.484 284.208 244.224 284.003 243.021 283.6C242.223 283.346 241.457 283.005 240.735 282.582C239.623 282.107 238.885 281.033 238.841 279.824C238.796 278.616 239.453 277.49 240.526 276.934C241.6 276.378 242.899 276.491 243.86 277.225C244.212 277.422 244.583 277.583 244.967 277.707C246.072 278.091 247.273 278.091 248.378 277.707C249.064 277.479 249.617 276.964 249.896 276.297C250.102 274.897 249.38 273.526 248.11 272.904C246.949 272.137 246.434 270.695 246.848 269.366C247.262 268.038 248.504 267.143 249.896 267.172C251.681 267.279 252.931 266.547 253.056 266.1C253.288 265.314 252.092 263.672 249.771 262.993C248.114 262.5 247.17 260.757 247.663 259.1C248.157 257.443 249.899 256.5 251.556 256.993C257.092 258.618 260.396 263.386 259.092 267.85C258.501 269.733 257.174 271.298 255.413 272.189C256.288 274.091 256.415 276.252 255.771 278.243C254.924 280.727 253.001 282.695 250.538 283.6C249.323 284.028 248.041 284.234 246.753 284.207Z" fill="#372168"/>
<path d="M249.059 246.94C245.159 246.992 241.492 245.089 239.291 241.869C238.354 240.419 238.77 238.484 240.219 237.547C241.669 236.61 243.604 237.026 244.541 238.476C245.628 239.89 247.316 240.711 249.099 240.693C250.882 240.676 252.553 239.822 253.612 238.387C254.51 236.907 256.437 236.436 257.916 237.333C259.395 238.23 259.867 240.157 258.969 241.637C256.809 245.003 253.058 247.01 249.059 246.94Z" fill="#372168"/>
<path d="M293.506 224.089C292.409 224.089 291.392 223.513 290.828 222.571C289.769 221.136 288.097 220.282 286.314 220.265C284.531 220.247 282.843 221.068 281.756 222.482C281.183 223.486 280.103 224.092 278.948 224.057C277.792 224.023 276.75 223.353 276.239 222.316C275.728 221.279 275.831 220.045 276.506 219.107C278.76 215.888 282.459 213.99 286.389 214.036C290.319 214.083 293.972 216.068 296.149 219.339C296.723 220.304 296.739 221.503 296.19 222.483C295.641 223.462 294.611 224.075 293.488 224.089H293.506Z" fill="#372168"/>
<path d="M220.279 224C219.19 224.004 218.179 223.434 217.619 222.5C216.56 221.065 214.888 220.211 213.105 220.193C211.322 220.175 209.634 220.997 208.547 222.411C207.941 223.348 206.881 223.892 205.765 223.836C204.65 223.78 203.65 223.133 203.14 222.139C202.631 221.145 202.691 219.955 203.297 219.018C205.556 215.806 209.253 213.914 213.18 213.961C217.106 214.007 220.757 215.986 222.94 219.25C223.372 219.957 223.504 220.807 223.306 221.612C223.108 222.417 222.597 223.109 221.886 223.536C221.406 223.84 220.848 224.001 220.279 224Z" fill="#372168"/>
<path d="M303.446 206.375H303.089C302.089 206.375 278.357 203.946 267.018 199C265.208 198.211 264.381 196.104 265.17 194.295C265.959 192.485 268.065 191.657 269.875 192.446C280.179 196.946 303.536 199.25 303.804 199.268C305.776 199.357 307.303 201.027 307.214 203C307.126 204.972 305.455 206.499 303.482 206.411L303.446 206.375Z" fill="#372168"/>
<path d="M194.25 206.375C192.278 206.464 190.607 204.937 190.518 202.964C190.429 200.992 191.956 199.321 193.929 199.232C194.161 199.232 217.518 196.911 227.857 192.411C229.028 191.9 230.382 192.053 231.409 192.812C232.437 193.57 232.981 194.82 232.838 196.089C232.694 197.358 231.885 198.454 230.714 198.964C219.375 203.911 195.643 206.25 194.643 206.339L194.25 206.375Z" fill="#372168"/>
<path fill-rule="evenodd" clip-rule="evenodd" d="M271.613 160.839C279.202 176.446 294.22 186.375 316.845 187.786C328.364 188.578 337.184 198.354 336.791 209.893V210.125C341.08 208.69 345.758 208.972 349.845 210.911C359.202 215.357 363.202 230.214 354.345 243.804C347.559 254.161 336.095 255.982 327.38 253.964C326.809 255.536 326.22 257.125 325.595 258.661L324.488 261.429C318.868 275.787 310.593 288.957 300.095 300.25V336.696C339.13 321.714 344.398 289.643 348.309 281.946C353.363 271.804 395.47 268.357 395.47 215.071C395.47 171.75 369.434 158.571 355.898 145.893C342.363 133.214 342.702 90.8929 305.005 69.625C264.47 46.7321 226.327 64.2679 213.059 72.2143C210.352 73.8606 207.291 74.8342 204.13 75.0536C190.077 76 149.184 82.9107 142.255 131.161C140.982 140.008 136.54 148.092 129.755 153.911C118.077 163.857 98.1125 182.482 101.827 216.804C105.952 254.911 129.363 272.696 144.059 279.304C150.273 282.125 157.505 285.679 159.38 292.25C164.916 311.518 169.505 329.911 200.005 336.643L199.72 300.196C199.806 300.3 199.901 300.396 200.005 300.482L199.738 300.196C189.234 288.898 180.952 275.722 175.327 261.357L174.22 258.589C173.63 257.054 173.041 255.464 172.434 253.893C163.72 255.911 152.255 254.089 145.47 243.732C136.541 230.143 140.613 215.286 149.97 210.839C154.062 208.899 158.746 208.618 163.041 210.054C162.73 202.168 167.413 194.939 174.738 192C199.452 182.214 206.238 167.536 207.398 154.018C209.934 124.75 229.22 124.911 229.22 124.911C229.22 124.911 253.184 123 271.613 160.839Z" fill="#7DBCDD"/>
<path fill-rule="evenodd" clip-rule="evenodd" d="M346.301 118.314C339.832 101.313 330.379 79.8544 306.791 66.5357C263.023 41.8571 222.613 62.3214 211.238 69.1607L210.763 69.4393L208.172 57.5724C208.01 57.0161 207.585 56.5677 207.028 56.3797C206.401 56.1681 205.708 56.3209 205.228 56.7766C204.748 57.2323 204.559 57.9162 204.738 58.5536L207.059 69.2678C198.965 64.1928 188.692 64.0127 184.857 64.1173L183.345 64.1786C182.359 64.2624 181.627 65.1298 181.711 66.1161C181.795 67.1023 182.662 67.8338 183.648 67.75C183.827 67.7351 195.056 66.852 203.809 71.5086C190.267 72.4539 146.108 79.4977 138.755 130.661L138.636 131.433C137.356 139.129 133.392 146.134 127.434 151.196L127.301 151.311C117.281 159.927 94.22 179.757 98.2733 217.268C102.841 259.443 129.703 276.647 141.852 282.361L143.139 282.955C148.945 285.64 154.585 288.671 155.952 293.411L157.3 298.147C162.454 315.984 169.222 333.69 199.184 340.304C199.439 340.33 199.697 340.33 199.952 340.304V340.286C201.924 340.286 203.523 338.687 203.523 336.714L203.255 301.893C203.785 300.562 203.469 299.044 202.452 298.036L202.273 297.821C192.092 286.848 184.06 274.061 178.595 260.125L178.225 259.211L177.505 257.411L177.325 256.934C176.829 255.621 176.322 254.284 175.845 252.946L175.74 252.652C175.508 252.073 175.133 251.559 174.648 251.161C173.793 250.483 172.675 250.233 171.613 250.482C164.202 252.179 154.255 250.768 148.398 241.839L148.02 241.28C144.445 235.833 143.281 229.136 144.827 222.786C145.719 219.075 148.156 215.923 151.523 214.125C154.804 212.581 158.555 212.37 161.988 213.536C163.101 213.887 164.315 213.672 165.24 212.961C166.166 212.249 166.685 211.13 166.63 209.964C166.381 203.594 170.162 197.754 176.077 195.375C197.916 186.643 209.345 173.232 210.97 154.304L211.04 153.543C213.335 130.192 227.089 128.575 229.015 128.471L229.835 128.463C231.838 128.44 252.158 128.564 268.63 162.393L268.995 163.128C277.619 180.173 294.133 189.913 316.845 191.321C326.404 192.078 333.7 200.182 333.452 209.768L333.45 210.29C333.487 211.35 333.994 212.344 334.842 212.997C335.767 213.708 336.982 213.923 338.095 213.571C341.521 212.405 345.268 212.616 348.541 214.161C351.913 215.953 354.352 219.107 355.238 222.821C356.828 229.391 355.528 236.327 351.666 241.875L351.314 242.394C345.366 250.895 335.665 252.269 328.452 250.518C327.392 250.279 326.282 250.535 325.434 251.214C324.892 251.634 324.488 252.206 324.273 252.857C323.952 253.625 323.648 254.393 323.354 255.152L322.488 257.393L322.378 257.675C322.291 257.897 322.206 258.114 322.122 258.328L320.844 261.527C315.404 274.873 307.609 287.137 297.827 297.732C297.119 298.407 296.719 299.343 296.72 300.321V336.768C296.726 337.94 297.306 339.034 298.273 339.696C299.243 340.364 300.478 340.511 301.577 340.089C333.35 327.85 343.721 304.88 348.625 291.549L349.791 288.304C350.47 286.286 351.077 284.554 351.577 283.554C352.351 282.005 355.612 280.08 359.322 278.012L362.556 276.22C377.011 268.183 399.113 254.415 399.113 215.089C399.113 178.887 381.578 162.67 367.669 151.141L365.505 149.357C362.863 147.25 360.434 145.232 358.363 143.304C354.754 139.913 352.054 133.515 349.163 125.915L346.301 118.314ZM215.964 74.6671C230.101 66.49 246.108 62.0756 262.443 61.8554L263.66 61.8738C277.543 62.1663 291.132 65.9794 303.148 72.9643L304.11 73.5168C325.071 85.779 333.437 105.05 339.674 121.494L342.478 128.95C345.639 137.265 348.679 144.346 353.345 148.732C354.952 150.224 356.696 151.708 358.537 153.234L362.044 156.119C375.628 167.312 391.791 181.613 391.791 215.304C391.791 250.584 372.586 262.577 358.853 270.226L355.908 271.853C350.747 274.701 346.659 277.116 345.005 280.571C344.183 282.381 343.462 284.235 342.845 286.125L342.762 286.355C338.806 297.291 330.902 319.141 303.559 331.554V301.893C313.877 290.473 322.06 277.294 327.72 262.982L328.845 260.143C329.095 259.5 329.345 258.857 329.577 258.196C340.397 259.895 351.21 255.103 357.22 245.946L357.644 245.317C362.361 238.138 363.861 229.298 361.755 220.946C359.622 212.061 351.761 205.906 342.861 205.732C343.826 199.769 342.783 193.609 339.827 188.25C334.559 178.786 324.166 173.071 316.863 171.054C315.505 170.679 314.148 170.339 312.791 170.018L311.4 169.682C302.15 167.422 293.479 164.399 287.238 143.089C281.313 122.872 263.085 112.084 254.746 108.196L254.005 107.857C253.108 107.443 252.045 107.835 251.63 108.732C251.216 109.63 251.608 110.693 252.505 111.107C260.023 114.554 278.113 124.661 283.809 144.089L284.301 145.718C291.105 167.517 300.902 170.798 310.543 173.159L313.273 173.811C314.154 174.024 315.035 174.25 315.916 174.5C322.541 176.321 331.97 181.482 336.702 189.982C338.991 194.117 339.968 198.803 339.575 203.43C337.09 192.874 327.966 185.026 316.952 184.321L316.018 184.255C296.183 182.733 281.911 174.143 274.702 159.321L274.127 158.154C255.66 121.17 231.677 121.297 228.996 121.435L228.523 121.473C224.957 121.823 206.231 124.566 203.702 153.821L203.634 154.554C202.05 170.354 192.391 181.241 173.345 188.786C166.12 191.672 160.931 198.127 159.666 205.804C156.399 205.39 153.201 205.796 150.29 206.873C150.011 198.635 151.13 181.335 165.113 178.821L165.796 178.691C171.886 177.456 176.261 174.663 178.809 170.375C183.327 162.768 180.309 153.375 180.166 152.982L180.089 152.788C179.711 151.977 178.777 151.56 177.907 151.848C176.97 152.159 176.463 153.17 176.773 154.107L177.015 155.004C177.577 157.302 178.712 163.558 175.738 168.554C173.648 172.071 169.827 174.339 164.47 175.304L163.861 175.422C147.619 178.819 146.455 198.428 146.766 207.317L146.821 208.552C142.449 211.22 139.123 215.558 137.845 220.875C135.685 229.475 137.345 238.589 142.398 245.875L142.743 246.389C148.807 255.211 159.412 259.793 170.023 258.125L171.055 260.842C171.195 261.196 171.336 261.536 171.476 261.875C171.617 262.215 171.758 262.556 171.898 262.911L172.472 264.338C178.093 278.101 186.068 290.786 196.041 301.821L196.159 317.577C190.125 315.736 185.005 311.56 182.005 305.893C181.512 305.035 180.417 304.739 179.559 305.232C178.701 305.725 178.405 306.821 178.898 307.679C182.553 314.459 188.837 319.366 196.189 321.312L196.273 332.179C174.062 325.861 168.768 312.237 164.109 296.293L163.077 292.714L162.684 291.393C160.538 283.897 153.037 279.734 147.488 277.13L144.759 275.875C133.755 270.707 109.438 254.982 105.255 216.482C102.113 186.589 117.023 169.482 132.041 156.696C139.518 150.317 144.408 141.427 145.791 131.696L145.993 130.365C152.811 87.6821 187.606 79.9883 203.427 78.7137L204.38 78.6428C208.098 78.3885 211.699 77.2432 214.88 75.3036L215.964 74.6671ZM377.934 227.589C378.408 227.63 378.847 227.859 379.152 228.224C379.457 228.59 379.604 229.062 379.559 229.536L379.486 230.239C378.795 236.272 376.013 246.497 365.488 252.232C365.23 252.371 364.941 252.445 364.648 252.446C363.829 252.451 363.112 251.896 362.909 251.103C362.706 250.309 363.07 249.479 363.791 249.089C372.72 244.179 375.398 235.554 376.005 229.196C376.1 228.223 376.96 227.507 377.934 227.589ZM297.095 105.65L296.781 105.533C296.222 105.369 295.612 105.489 295.153 105.862C294.637 106.282 294.398 106.955 294.532 107.607C294.666 108.259 295.151 108.782 295.791 108.964L295.913 109.01C296.903 109.417 303.555 112.658 306.505 124.875L306.672 125.537C310.492 140.126 320.744 141.357 321.184 141.357H321.363C322.237 141.32 322.955 140.654 323.059 139.786C323.114 139.314 322.98 138.84 322.685 138.468C322.39 138.097 321.959 137.857 321.488 137.804C321.148 137.768 312.97 136.679 309.916 124.018L309.742 123.331C306.192 109.751 298.17 106.089 297.095 105.65Z" fill="#372168"/>
<path fill-rule="evenodd" clip-rule="evenodd" d="M148.766 294.018C136.677 286.625 154.249 264.125 154.249 264.125C154.249 264.125 171.802 286.607 159.749 294.018C156.366 296.037 152.149 296.037 148.766 294.018Z" fill="#FFC28F"/>
<path fill-rule="evenodd" clip-rule="evenodd" d="M146.909 297.054C149.118 298.404 151.659 299.115 154.249 299.107C156.844 299.118 159.391 298.407 161.606 297.054C164.628 295.253 166.71 292.218 167.302 288.75C169.266 278.036 158.32 263.589 157.07 261.964C156.388 261.102 155.348 260.601 154.249 260.607C153.156 260.607 152.123 261.107 151.445 261.964C150.124 263.518 139.231 277.929 141.195 288.75C141.789 292.222 143.878 295.259 146.909 297.054ZM148.213 287.482C147.391 282.964 150.82 275.714 154.249 270.357C157.356 275.268 161.159 282.661 160.266 287.393C160.056 288.891 159.167 290.209 157.856 290.964C155.631 292.302 152.849 292.302 150.624 290.964C149.337 290.226 148.451 288.946 148.213 287.482Z" fill="#372168"/>
<path d="M154.248 295.696C153.686 295.696 153.157 295.432 152.82 294.982C149.248 290.25 152.534 283.982 152.677 283.714C152.95 283.105 153.54 282.7 154.206 282.663C154.873 282.625 155.504 282.963 155.843 283.537C156.183 284.111 156.174 284.827 155.82 285.393C155.82 285.5 153.498 289.946 155.677 292.821C155.961 293.2 156.083 293.676 156.016 294.145C155.949 294.614 155.699 295.037 155.32 295.321C155.013 295.56 154.637 295.691 154.248 295.696Z" fill="#372168"/>
<path fill-rule="evenodd" clip-rule="evenodd" d="M335.07 293.5C322.981 286.107 340.552 263.607 340.552 263.607C340.552 263.607 358.106 286.107 346.034 293.5C342.663 295.535 338.442 295.535 335.07 293.5Z" fill="#FFC28F"/>
<path fill-rule="evenodd" clip-rule="evenodd" d="M333.195 296.554C335.417 297.887 337.96 298.591 340.552 298.589C343.147 298.597 345.693 297.886 347.909 296.536C350.932 294.735 353.014 291.701 353.606 288.232C355.57 277.518 344.623 263.054 343.373 261.447C342.696 260.577 341.654 260.07 340.552 260.072C339.45 260.07 338.408 260.577 337.731 261.447C336.409 263.018 325.534 277.518 327.481 288.232C328.074 291.709 330.163 294.751 333.195 296.554ZM340.543 269.854C340.546 269.849 340.549 269.844 340.552 269.84H340.534C340.537 269.844 340.54 269.849 340.543 269.854ZM334.534 286.965C333.713 282.451 337.118 275.209 340.543 269.854C343.666 274.764 347.408 282.148 346.588 286.965C346.368 288.432 345.486 289.716 344.195 290.447C341.964 291.788 339.176 291.788 336.945 290.447C335.651 289.716 334.763 288.433 334.534 286.965Z" fill="#372168"/>
<path d="M339.891 295.179C339.505 295.179 339.129 295.053 338.82 294.822C338.441 294.538 338.191 294.114 338.124 293.646C338.057 293.177 338.179 292.701 338.463 292.322C340.659 289.429 338.338 284.929 338.32 284.893C338.001 284.332 338.006 283.643 338.332 283.086C338.659 282.529 339.258 282.188 339.904 282.193C340.55 282.197 341.144 282.546 341.463 283.107C341.606 283.375 344.891 289.643 341.32 294.375C341.002 294.859 340.47 295.158 339.891 295.179Z" fill="#372168"/>
<path d="M154.249 265.911C153.262 265.911 152.463 265.111 152.463 264.125V255C152.463 254.014 153.262 253.214 154.249 253.214C155.235 253.214 156.034 254.014 156.034 255V264.197C155.996 265.155 155.208 265.912 154.249 265.911Z" fill="#372168"/>
<path d="M340.552 265.393C339.566 265.393 338.766 264.593 338.766 263.607V254.411C338.766 253.425 339.566 252.625 340.552 252.625C341.538 252.625 342.338 253.425 342.338 254.411V263.607C342.338 264.593 341.538 265.393 340.552 265.393Z" fill="#372168"/>
</g>
<path fill-rule="evenodd" clip-rule="evenodd" d="M0 250C0 111.929 111.929 0 250 0C388.071 0 500 111.929 500 250C500 388.071 388.071 500 250 500C111.929 500 0 388.071 0 250ZM492.857 250C492.857 115.874 384.126 7.14286 250 7.14286C115.874 7.14286 7.14286 115.874 7.14286 250C7.14286 384.126 115.874 492.857 250 492.857C384.126 492.857 492.857 384.126 492.857 250Z" fill="#372168"/>
</svg>
