<svg width="500" height="500" viewBox="0 0 500 500" fill="none" xmlns="http://www.w3.org/2000/svg">
<path fill-rule="evenodd" clip-rule="evenodd" d="M250 496.429C386.099 496.429 496.429 386.099 496.429 250C496.429 113.901 386.099 3.57141 250 3.57141C113.901 3.57141 3.57141 113.901 3.57141 250C3.57141 386.099 113.901 496.429 250 496.429Z" fill="#E7EEFF"/>
<mask id="mask0_0_292" style="mask-type:alpha" maskUnits="userSpaceOnUse" x="3" y="3" width="494" height="494">
<path fill-rule="evenodd" clip-rule="evenodd" d="M250 496.429C386.099 496.429 496.429 386.099 496.429 250C496.429 113.901 386.099 3.57141 250 3.57141C113.901 3.57141 3.57141 113.901 3.57141 250C3.57141 386.099 113.901 496.429 250 496.429Z" fill="white"/>
</mask>
<g mask="url(#mask0_0_292)">
<path fill-rule="evenodd" clip-rule="evenodd" d="M336.359 210.077L336.357 210.036C337.536 196.964 339.357 159.232 324.071 134.357C305.536 104.339 275.161 95.5535 249.464 95.9821C223.732 95.5535 193.357 104.339 174.821 134.357C159.554 159.125 161.375 196.911 162.571 209.929V210.03C158.281 208.601 153.604 208.884 149.518 210.821C140.161 215.268 136.089 230.125 145.018 243.714C151.783 254.04 163.198 255.882 171.903 253.893C172.226 254.732 172.545 255.575 172.861 256.412C173.129 257.12 173.395 257.825 173.661 258.518L174.768 261.286C180.393 275.65 188.675 288.826 199.179 300.125C203.705 304.911 208.768 309.159 214.268 312.786C224.14 319.474 235.722 323.192 247.643 323.5H251.214C263.136 323.197 274.719 319.478 284.589 312.786C288.752 310.04 292.665 306.938 296.286 303.517C292.663 306.963 288.743 310.089 284.571 312.857C274.702 319.55 263.118 323.269 251.196 323.571H247.625C235.705 323.264 224.122 319.545 214.25 312.857C208.75 309.231 203.687 304.982 199.161 300.196V359.357C200.071 365.125 211.625 370.054 227.982 372.357C234.864 373.312 241.803 373.796 248.75 373.804H250C256.948 373.796 263.886 373.312 270.768 372.357C287.214 369.982 298.804 365.071 299.607 359.268V300.201L299.696 300.107C310.194 288.814 318.47 275.644 324.089 261.286L325.196 258.518C325.814 257.001 326.396 255.431 326.961 253.878C335.674 255.891 347.129 254.065 353.911 243.714C362.768 230.125 358.768 215.268 349.375 210.875C345.301 208.942 340.638 208.656 336.359 210.077ZM168.304 242.786C168.661 244.021 169.028 245.245 169.406 246.457C169.011 245.278 168.62 244.09 168.232 242.893C167.946 241.946 167.607 240.768 167.393 239.964L167.392 239.962L167.392 239.96C167.178 239.157 166.893 238.088 166.75 237.482C166.693 237.24 166.648 237.035 166.601 236.825L166.6 236.823C166.53 236.507 166.457 236.179 166.339 235.696C166.241 235.295 166.156 234.879 166.071 234.464C165.987 234.049 165.902 233.634 165.804 233.232C165.607 232.429 165.446 231.625 165.286 230.786L165.179 230.232C164.982 229.161 164.786 228.071 164.607 226.964C164.464 226.19 164.339 225.405 164.232 224.607C164.214 224.515 164.194 224.422 164.174 224.328L164.173 224.326C164.096 223.968 164.018 223.603 164.018 223.25C163.857 222.125 163.696 220.982 163.554 219.821C163.387 218.548 163.244 217.315 163.125 216.125C163.018 215.625 162.964 215.125 162.964 214.625C162.964 214.625 163.089 214.286 162.964 214.018C162.896 213.872 162.892 213.638 162.887 213.419C162.884 213.235 162.88 213.062 162.839 212.964C162.784 212.833 162.784 212.809 162.779 212.682C162.775 212.602 162.771 212.481 162.75 212.268L162.74 212.171L162.733 212.101C162.738 212.123 162.744 212.143 162.75 212.161C162.791 212.274 162.787 212.34 162.783 212.418C162.777 212.512 162.771 212.623 162.839 212.857C162.907 213.091 162.912 213.266 162.916 213.441C162.92 213.587 162.924 213.732 162.964 213.911C163.054 214.304 163.054 214.518 163.054 214.518C163.068 214.718 163.094 214.918 163.119 215.118C163.158 215.418 163.196 215.718 163.196 216.018C163.312 217.177 163.459 218.368 163.594 219.46L163.625 219.714C163.768 220.875 163.929 222.018 164.089 223.143C164.114 223.298 164.137 223.456 164.16 223.614C164.202 223.91 164.245 224.209 164.304 224.5C164.411 225.298 164.536 226.083 164.679 226.857C164.857 227.964 165.054 229.054 165.25 230.125L165.357 230.679C165.438 231.098 165.527 231.5 165.616 231.902C165.705 232.304 165.795 232.705 165.875 233.125C165.967 233.603 166.087 234.133 166.197 234.617C166.28 234.981 166.357 235.321 166.411 235.589C166.536 236.214 166.679 236.804 166.821 237.375L166.933 237.814C167.097 238.458 167.245 239.038 167.464 239.857C167.732 240.857 168.018 241.839 168.304 242.786ZM162.634 211.15C162.641 211.261 162.649 211.369 162.657 211.471C162.623 211.182 162.595 210.883 162.59 210.571C162.607 210.764 162.621 210.961 162.634 211.15Z" fill="#FFD6CB"/>
<path d="M28.5707 496.428C28.9183 495.049 29.1003 494.313 29.4544 492.974C29.7006 492.043 29.9441 491.122 30.1785 490.214C31.1785 486.643 32.1963 483.071 33.2321 479.804C33.356 479.409 33.48 479.016 33.6034 478.626C33.8711 477.778 34.1361 476.938 34.3928 476.107C34.6785 475.214 34.9642 474.321 35.2499 473.5C36.0356 471.143 36.8213 468.857 37.6071 466.661C39.3809 461.732 41.1666 457.196 42.9642 453.054C43.4106 452 43.8571 450.964 44.3035 449.964L44.5713 449.375C45.5356 447.161 46.5178 445.089 47.4999 443.125C50.2914 437.275 53.6023 431.687 57.3928 426.429C57.4429 426.353 57.4969 426.282 57.5493 426.213L57.5494 426.213C57.609 426.134 57.6667 426.058 57.7142 425.982C58.6963 424.696 59.6428 423.536 60.5535 422.536L60.6606 422.411C61.3019 421.689 61.9832 420.988 62.6596 420.291C62.8873 420.057 63.1144 419.823 63.3392 419.589C69.0978 413.797 75.4344 408.609 82.2499 404.107L84.3213 402.732C85.369 402.042 86.4404 401.363 87.5356 400.696C90.1785 399.054 92.8928 397.464 95.6964 395.911C100.321 393.339 105.107 390.911 109.982 388.607C115.875 385.821 121.875 383.25 127.839 380.821L131.893 379.214C133.053 378.75 134.232 378.304 135.464 377.875C140.678 375.893 145.857 374.071 150.911 372.375C160.696 369.089 169.964 366.339 178.143 364.071C186.607 361.732 193.857 359.911 199.196 358.625C199.17 358.874 199.17 359.126 199.196 359.375C200.107 365.143 211.696 370.089 228.018 372.375C234.899 373.33 241.838 373.814 248.786 373.821H250.036C256.983 373.814 263.922 373.33 270.804 372.375C287.25 370.054 298.839 365.089 299.643 359.286C299.66 359.066 299.66 358.845 299.643 358.625C305 359.929 312.321 361.75 320.839 364.107C328.982 366.357 338.196 369.107 347.928 372.375C354.107 374.446 360.428 376.714 366.875 379.214C370.149 380.476 373.417 381.804 376.678 383.196L380.411 384.786L383.411 386.107C390.143 389.143 396.768 392.393 403.053 395.911C406.982 398.089 410.803 400.357 414.446 402.732L415.464 403.411C417.25 404.554 419.036 405.732 420.607 406.982C425.886 410.723 430.838 414.905 435.411 419.482C436.375 420.446 437.303 421.429 438.196 422.429C439.286 423.635 440.312 424.899 441.268 426.214V426.321C442.089 427.429 442.946 428.643 443.786 429.893C446.514 434.095 448.983 438.46 451.178 442.964C452.232 445.107 453.286 447.375 454.375 449.804C455.053 451.339 455.732 452.929 456.411 454.571C456.875 455.677 457.326 456.811 457.787 457.974L457.946 458.375C458.958 460.946 459.976 463.655 461 466.5C461.786 468.696 462.571 470.982 463.357 473.339C464.262 476.113 465.173 478.994 466.089 481.982C466.219 482.421 466.351 482.862 466.484 483.306L466.488 483.32L466.489 483.323C466.738 484.154 466.989 484.993 467.232 485.839L467.341 486.218C467.689 487.426 468.073 488.762 468.429 490.054C469.054 492.268 469.089 494.089 469.642 496.428H28.5707Z" fill="#FFB07D"/>
<g style="mix-blend-mode:soft-light" opacity="0.8">
<path d="M320.929 364.089C316.518 370.839 309.143 376.197 299.679 380.161C291.583 383.427 283.114 385.677 274.464 386.857C257.921 389.19 241.133 389.19 224.589 386.857C215.891 385.664 207.373 383.396 199.232 380.107C189.822 376.143 182.5 370.786 178.107 364.036C186.572 361.696 193.822 359.875 199.161 358.589C199.135 358.839 199.135 359.09 199.161 359.339C200.072 365.107 211.661 370.054 227.982 372.339C234.864 373.295 241.803 373.778 248.75 373.786H250C256.948 373.778 263.886 373.295 270.768 372.339C287.214 370.018 298.804 365.054 299.607 359.25C299.625 359.03 299.625 358.809 299.607 358.589C305.107 359.911 312.411 361.732 320.929 364.089Z" fill="white"/>
</g>
<g style="mix-blend-mode:multiply" opacity="0.15">
<path fill-rule="evenodd" clip-rule="evenodd" d="M296.036 303.786V356.107C251.536 356.804 218.571 333.893 202.839 320.197V303.75C206.379 307.132 210.222 310.181 214.321 312.857C224.197 319.539 235.777 323.257 247.696 323.572H251.268C263.187 323.257 274.768 319.539 284.643 312.857C288.703 310.179 292.516 307.143 296.036 303.786Z" fill="#7C3830"/>
</g>
<path fill-rule="evenodd" clip-rule="evenodd" d="M251.405 92.502L249.607 92.518C229.965 92.1608 193.786 96.9644 172.107 132.572C158.313 154.962 157.857 186.762 158.887 204.188L158.974 205.569C155.23 205.217 151.43 205.875 147.982 207.518C142.75 210.188 138.924 214.984 137.482 220.679C135.315 229.276 136.969 238.391 142.018 245.679L142.367 246.206C147.562 253.862 156.293 258.382 165.572 258.179C166.928 258.145 168.279 258.026 169.616 257.82C169.875 258.516 170.14 259.213 170.411 259.911L171.518 262.697C177.149 276.991 185.317 290.146 195.623 301.528L195.714 301.627L195.715 355.745C189.544 357.258 183.316 358.893 177.018 360.625C167.286 363.322 158.322 366.054 149.607 368.982C143.947 370.947 138.839 372.732 134.054 374.518C133.649 374.661 133.268 374.802 132.89 374.945L129.121 376.404C128.211 376.762 127.298 377.131 126.393 377.5L123.777 378.554C118.55 380.687 113.355 382.972 108.304 385.375C103.161 387.804 98.2681 390.286 93.8038 392.786C90.7323 394.5 88.0181 396.089 85.5359 397.625L84.686 398.147C83.844 398.67 83.027 399.192 82.2502 399.714C81.5181 400.179 80.7859 400.661 80.1252 401.125C73.1183 405.706 66.5965 410.989 60.6609 416.893C60.1084 417.526 59.5607 418.08 59.0418 418.606C58.6385 419.014 58.2522 419.406 57.8931 419.804L57.7681 419.964C56.8395 420.964 55.8395 422.179 54.7324 423.643C54.6629 423.719 54.603 423.803 54.5538 423.893L54.3752 424.125L53.4065 425.488C49.8928 430.513 46.8003 435.821 44.1609 441.357C43.2936 442.952 42.5902 444.473 41.9337 445.961L41.1609 447.732L40.4341 449.368C40.1312 450.062 39.8335 450.768 39.5359 451.482L38.9407 452.892C37.3534 456.697 35.7661 460.857 34.1788 465.286C33.3931 467.5 32.5895 469.822 31.8038 472.197L31.5048 473.081L30.9109 474.875L29.3308 479.975C28.7465 481.87 28.1571 483.86 27.5661 485.923L26.6788 489.072C26.397 490.181 26.1022 491.308 25.8051 492.444L25.8033 492.45C25.4985 493.615 25.1912 494.79 24.8931 495.964L24.4109 497.75C24.2591 498.339 24.2617 499.386 24.1077 500H475.001L473.607 495.268C473.607 495.268 472.5 491.089 471.929 489.089C471.643 488.036 471.34 486.964 471.036 485.929L470.732 484.839L469.572 480.929C469.114 479.523 468.684 478.141 468.261 476.782L468.26 476.777L468.259 476.775C467.774 475.218 467.299 473.692 466.804 472.197C466.018 469.822 465.214 467.5 464.429 465.286C463.375 462.411 462.34 459.607 461.322 457.054L461.161 456.607C460.697 455.429 460.232 454.286 459.768 453.197C459.089 451.518 458.393 449.911 457.697 448.339C456.813 446.371 455.999 444.603 455.218 442.96L454.447 441.357C452.18 436.743 449.646 432.265 446.857 427.947C446.494 427.435 446.143 426.92 445.786 426.397L445.785 426.395L445.78 426.388L445.776 426.382L445.775 426.38C445.276 425.649 444.766 424.902 444.197 424.125L444.054 423.947C442.893 422.375 441.786 421.018 440.84 419.982C439.893 418.947 438.911 417.893 437.929 416.911C433.212 412.19 428.105 407.877 422.661 404.018C420.875 402.732 419.107 401.518 417.447 400.447C417.072 400.197 416.697 399.929 416.375 399.732L415.181 398.96C411.971 396.905 408.544 394.879 404.75 392.768C398.697 389.411 392.179 386.161 384.786 382.839L381.732 381.5L380.786 381.089L378 379.893C374.804 378.536 371.572 377.232 368.089 375.875C362.036 373.518 355.786 371.268 348.982 368.982C340.197 366.018 331.018 363.232 321.714 360.661C316.142 359.113 311.158 357.818 307.021 356.777L303.177 355.82L303.18 301.868C313.65 290.402 321.936 277.114 327.625 262.661L328.75 259.839C328.994 259.208 329.236 258.57 329.475 257.934C330.756 258.092 332.047 258.174 333.34 258.179C342.78 258.374 351.652 253.682 356.804 245.768L357.228 245.139C361.94 237.958 363.446 229.123 361.357 220.768C359.904 215.074 356.072 210.281 350.839 207.607C347.544 206.034 343.923 205.364 340.34 205.62C341.456 188.522 341.341 155.535 327.197 132.589C305.857 98.0331 271.243 92.4936 251.405 92.502ZM174.31 368.941L176.707 368.261C181.449 374.391 188.538 379.467 197.822 383.375C206.269 386.798 215.112 389.149 224.143 390.375C232.577 391.587 241.087 392.184 249.607 392.161C258.096 392.211 266.576 391.644 274.982 390.464C283.919 389.235 292.669 386.908 301.036 383.536C310.438 379.612 317.599 374.466 322.363 368.291C330.744 370.648 339.002 373.193 346.947 375.857C353.643 378.107 359.786 380.322 365.732 382.643C369.143 383.964 372.322 385.25 375.465 386.589L379.161 388.161L382.089 389.464C389.286 392.697 395.643 395.857 401.518 399.125C405.607 401.411 409.286 403.607 412.75 405.857L414.713 407.143C416.03 408.014 417.375 408.943 418.732 409.929C423.828 413.559 428.607 417.616 433.018 422.054L433.027 422.063L433.028 422.064L433.031 422.067C433.92 422.973 434.826 423.898 435.697 424.893C436.703 425.999 437.645 427.162 438.518 428.375L438.679 428.572C439.554 429.732 440.304 430.839 441.036 431.964C443.67 436.043 446.056 440.277 448.179 444.643L448.549 445.396C449.169 446.67 449.807 448.032 450.479 449.51L451.304 451.339C451.982 452.857 452.643 454.411 453.322 456.054L453.768 457.136C454.066 457.865 454.363 458.607 454.661 459.357L454.822 459.786C455.804 462.268 456.822 464.964 457.839 467.804L458.426 469.443C459.009 471.102 459.585 472.813 460.161 474.554L460.71 476.209C461.439 478.434 462.161 480.727 462.875 483.089L463.286 484.464L464.322 488C464.411 488.319 464.502 488.639 464.594 488.962C464.796 489.67 465 490.389 465.197 491.125L465.75 493.124L33.0362 492.857L34.0604 489.595C34.9505 486.424 35.8373 483.426 36.6966 480.661L37.8574 476.982C37.9278 476.766 37.9972 476.553 38.066 476.341L38.0746 476.314L38.077 476.307C38.2834 475.671 38.4851 475.05 38.6966 474.429L39.1662 473.034C39.7902 471.186 40.4074 469.389 41.0359 467.661C42.6966 462.804 44.4824 458.304 46.2681 454.232C46.6966 453.214 47.1431 452.197 47.5716 451.232L48.3808 449.399C49.0916 447.809 49.8574 446.2 50.7145 444.5C53.4042 438.864 56.6019 433.484 60.2681 428.429L60.6252 427.929L60.9123 427.567C61.7565 426.502 62.4952 425.571 63.0895 424.929L63.3574 424.643C64.1074 423.75 65.0002 422.857 65.8931 421.964C71.4951 416.4 77.6454 411.416 84.2502 407.089L86.2859 405.75C87.3038 405.089 88.3216 404.429 89.4109 403.768L90.3253 403.204C92.4835 401.882 94.8194 400.525 97.4288 399.072C101.75 396.714 106.482 394.304 111.5 391.929C117.268 389.197 123.214 386.607 129.214 384.232L130.403 383.75L134.381 382.179C135.139 381.883 135.905 381.589 136.679 381.304L138.107 380.768C141.462 379.517 144.969 378.262 148.722 376.972L152 375.857C159.158 373.447 166.502 371.172 174.31 368.941ZM184.393 366.157C188.516 365.055 192.642 363.992 196.732 362.982C201.168 370.959 217.454 374.461 226.094 375.788L227.536 376C234.583 376.981 241.689 377.476 248.804 377.482H250.072C257.181 377.477 264.281 376.981 271.322 376C279.216 374.897 296.294 371.631 301.647 363.858C301.843 363.578 302.024 363.293 302.189 363.002L302.186 363.002L302.25 362.893C302.23 362.93 302.21 362.966 302.189 363.002C304.675 363.572 307.543 364.297 310.758 365.145L314.781 366.219C310.113 370.867 304.525 374.491 298.375 376.857L296.904 377.436C289.53 380.27 281.85 382.239 274.018 383.304C257.825 385.589 241.39 385.589 225.197 383.304C216.793 382.154 208.564 379.971 200.697 376.804C194.553 374.41 188.976 370.761 184.322 366.089L184.393 366.157ZM202.804 308.572V358.947C203.589 361.697 211.875 366.429 228.554 368.768C235.275 369.706 242.053 370.177 248.839 370.179H250.072C256.852 370.176 263.624 369.705 270.34 368.768C277.467 367.762 283.059 366.326 287.189 364.797L287.549 364.661C293.011 362.567 295.752 360.324 295.964 358.786C295.966 358.443 296.014 358.107 296.105 357.784L296.108 308.727C293.577 310.92 290.923 312.971 288.159 314.868L286.768 315.804C277.842 321.844 267.593 325.583 256.933 326.73C255.026 326.945 253.107 327.077 251.179 327.125H247.697L247.583 327.12L247.554 327.125C245.591 327.072 243.637 326.932 241.697 326.706L239.892 326.47L238.853 326.312L237.354 326.054L236.156 325.822C228.056 324.177 220.306 321.02 213.323 316.484L212.375 315.857C209.015 313.66 205.817 311.225 202.804 308.572ZM247.787 99.6839L249.465 99.6965C267.482 99.4108 300.768 103.75 320.893 136.375C335.178 159.533 333.806 195.554 332.772 208.258L332.643 209.75V209.982L335.894 210.257L332.697 210.179L332.695 210.199L332.643 210.197C332.56 211 332.48 211.699 332.412 212.273L332.179 214.072C332.17 214.173 332.17 214.274 332.179 214.375L332.072 215.732C331.786 218.304 331.518 220.518 331.161 222.875C330.804 225.232 330.411 227.518 330 229.679L329.793 230.775C329.649 231.508 329.494 232.238 329.34 232.929L328.883 234.995L328.643 236.018V236.179C328.527 236.679 328.406 237.152 328.286 237.612L327.929 238.964L327.93 239.159C327.69 240.117 327.433 240.953 327.161 241.822L326.784 243.038L326.453 244.077L326.375 244.304C325.572 246.929 324.661 249.661 323.572 252.661V252.839C323.142 254.042 322.69 255.244 322.251 256.409L321.929 257.268L320.266 261.407C314.81 274.796 306.985 287.096 297.161 297.714L297.491 297.352C297.344 297.461 297.203 297.582 297.072 297.714C292.739 302.311 287.885 306.386 282.607 309.857L281.732 310.443C272.643 316.406 262.061 319.714 251.179 319.982H247.697C247.338 319.973 246.979 319.96 246.62 319.944L245.709 319.896L244.376 319.798C234.345 318.949 224.68 315.534 216.322 309.857L215.113 309.046C210.31 305.76 205.871 301.967 201.875 297.732C201.772 297.623 201.663 297.522 201.546 297.433C191.505 286.512 183.571 273.827 178.143 260.018L177.054 257.304C176.869 256.822 176.685 256.331 176.5 255.837L175.393 252.857L175.072 252.679C173.822 249.197 172.625 245.536 171.5 241.822C171.375 241.395 171.233 240.889 171.099 240.407L171.097 240.402L170.967 239.935L170.598 238.661C170.532 238.425 170.466 238.167 170.398 237.893L169.991 236.244C169.968 236.145 169.946 236.047 169.924 235.946C169.907 235.869 169.889 235.79 169.872 235.71C169.812 235.434 169.747 235.137 169.661 234.786L169.484 234.042C169.367 233.54 169.256 233.024 169.161 232.5V232.322C168.982 231.589 168.822 230.839 168.679 230.036L168.572 229.536L167.877 225.542C167.796 225.064 167.72 224.572 167.661 224.072C167.661 224.048 167.675 224.042 167.689 224.036C167.716 224.024 167.744 224.012 167.661 223.857C167.536 223.625 167.536 223.375 167.536 223.143V222.679C167.482 222.316 167.431 221.945 167.38 221.57L166.954 218.447C166.841 217.577 166.737 216.67 166.643 215.732L166.543 214.826L166.518 214.375C166.528 214.262 166.528 214.149 166.518 214.036L166.321 212.39L166.322 211.75C166.31 211.605 166.289 211.447 166.266 211.274C166.218 210.912 166.161 210.483 166.161 209.964L166.15 209.69C166.129 209.418 166.078 209.153 165.998 208.899L165.907 207.817C164.874 194.745 163.647 159.321 177.804 136.375C197.342 104.729 229.281 99.6966 247.787 99.6839ZM340.114 212.879L339.767 212.935L339.563 214.58C339.537 214.767 339.516 214.908 339.5 215L339.393 216.339C339.127 218.824 338.862 221.062 338.56 223.078L338.429 223.929L338.334 224.52L338.333 224.528C337.999 226.619 337.623 228.971 337.232 231.072C337.089 231.857 336.939 232.627 336.78 233.392L336.536 234.536L336.479 234.795C336.255 235.819 336.07 236.666 335.839 237.589V237.768L335.67 238.453C338.062 238.329 340.29 237.109 341.679 235.107C343.397 232.746 343.679 229.631 342.411 227C341.88 226.171 342.119 225.069 342.947 224.536C343.775 224.005 344.878 224.244 345.411 225.072C347.292 228.649 347.173 232.947 345.098 236.415C343.023 239.883 339.291 242.02 335.25 242.054L335.322 242.089C335.12 242.089 334.919 242.081 334.718 242.067L334.461 242.971L334.197 243.857C333.893 244.857 333.643 245.643 333.339 246.5C332.897 247.941 332.408 249.455 331.871 251.043L331.732 251.036C339.141 251.719 346.329 248.374 350.581 242.306L350.911 241.822C354.771 236.266 356.071 229.326 354.482 222.75C353.59 219.044 351.152 215.897 347.786 214.107C345.57 213.04 343.112 212.598 340.676 212.816L340.114 212.879ZM151.036 214.054C152.87 213.175 154.877 212.717 156.911 212.714C157.733 212.727 158.552 212.817 159.357 212.982V213.393C159.413 213.589 159.416 213.756 159.418 213.913C159.42 214.058 159.422 214.194 159.464 214.339C159.518 214.522 159.54 214.678 159.548 214.805L159.554 215.018C159.583 215.508 159.636 215.997 159.714 216.482C159.756 216.911 159.802 217.337 159.849 217.761L160.143 220.25C160.286 221.464 160.447 222.625 160.625 223.822V224.232L160.786 225.197C160.84 225.607 160.902 226.018 160.967 226.415L161.35 228.679C161.465 229.334 161.589 229.991 161.713 230.653L161.768 230.947L161.857 231.464L162.462 234.334L162.929 236.447L163.357 238.232V238.429L163.375 238.499C160.829 238.501 158.422 237.251 156.964 235.125C155.259 232.765 154.985 229.659 156.25 227.036C156.781 226.207 156.542 225.105 155.715 224.572C154.886 224.04 153.784 224.28 153.25 225.107C151.369 228.684 151.488 232.983 153.563 236.451C155.638 239.919 159.37 242.055 163.411 242.089C163.716 242.095 164.021 242.085 164.325 242.061L164.433 242.052L164.59 242.036C164.537 242.042 164.485 242.047 164.433 242.052C164.397 242.055 164.361 242.058 164.325 242.061L164.321 242.061L164.84 243.839C165.572 246.268 166.322 248.643 167.107 250.982C159.504 251.688 152.13 248.145 147.929 241.768L147.55 241.208C143.974 235.755 142.811 229.052 144.357 222.697C145.244 218.992 147.675 215.846 151.036 214.054Z" fill="#372168"/>
<path fill-rule="evenodd" clip-rule="evenodd" d="M302.189 363.002C302.21 362.966 302.23 362.93 302.25 362.893L302.186 363.002L302.189 363.002ZM164.433 242.052L164.59 242.036C164.537 242.042 164.485 242.047 164.433 242.052Z" fill="#372168"/>
<g style="mix-blend-mode:multiply" opacity="0.15">
<path fill-rule="evenodd" clip-rule="evenodd" d="M218.75 249.583C218.75 260.484 210.755 269.32 200.893 269.32C191.031 269.32 183.036 260.484 183.036 249.583C183.036 238.683 191.031 229.846 200.893 229.846C210.755 229.846 218.75 238.683 218.75 249.583ZM315.178 249.583C315.178 260.484 307.184 269.32 297.321 269.32C287.459 269.32 279.464 260.484 279.464 249.583C279.464 238.683 287.459 229.846 297.321 229.846C307.184 229.846 315.178 238.683 315.178 249.583Z" fill="#FF1300"/>
</g>
<path d="M261.161 279.411C259.435 279.411 258.036 278.012 258.036 276.286C258.036 274.56 259.435 273.161 261.161 273.161C263.597 273.161 265.571 271.186 265.571 268.75C265.571 266.314 263.597 264.34 261.161 264.34C259.435 264.34 258.036 262.94 258.036 261.215C258.036 259.489 259.435 258.09 261.161 258.09C265.225 257.682 269.167 259.62 271.326 263.087C273.485 266.554 273.485 270.947 271.326 274.414C269.167 277.881 265.225 279.819 261.161 279.411Z" fill="#372168"/>
<path d="M249.059 246.94C245.159 246.992 241.492 245.089 239.291 241.869C238.354 240.419 238.77 238.484 240.219 237.547C241.669 236.61 243.604 237.026 244.541 238.476C245.628 239.89 247.316 240.711 249.099 240.693C250.882 240.676 252.553 239.822 253.612 238.387C254.51 236.907 256.437 236.436 257.916 237.333C259.395 238.23 259.867 240.157 258.969 241.637C256.809 245.003 253.058 247.01 249.059 246.94Z" fill="#372168"/>
<path d="M286.261 225.446C294.171 225.446 294.189 213.125 286.261 213.125C278.332 213.125 278.314 225.446 286.261 225.446Z" fill="#372168"/>
<path d="M213.1 225.446C221.028 225.446 221.046 213.125 213.1 213.125C205.153 213.125 205.153 225.446 213.1 225.446Z" fill="#372168"/>
<path d="M270.857 204.107C268.885 204.196 267.214 202.669 267.125 200.696C267.036 198.724 268.563 197.053 270.536 196.964L300.893 194.232C302.169 194.117 303.409 194.692 304.147 195.739C304.884 196.787 305.006 198.148 304.468 199.311C303.929 200.473 302.812 201.26 301.536 201.375L271.179 204.107H270.857Z" fill="#372168"/>
<path d="M196.679 204.107C194.706 204.196 193.035 202.669 192.946 200.696C192.858 198.724 194.385 197.053 196.357 196.964L226.714 194.232C228.687 194.055 230.43 195.51 230.607 197.482C230.785 199.455 229.33 201.197 227.357 201.375L197 204.107H196.679Z" fill="#372168"/>
<path d="M351.011 345.077C350.696 345.319 350.379 345.562 350.059 345.804C350.059 345.804 360.238 366.375 346.166 380.911C346.166 380.911 357.22 397.161 341.363 419.786C341.363 419.786 347.095 434.982 338.684 443.982C338.684 443.982 342.523 459.161 331.327 467.197H315.095C302.238 457.143 308.684 442.572 308.684 442.572C297.97 433.482 306.077 418.107 306.077 418.107C289.595 400.072 301.023 378.822 301.023 378.822C285.595 358.607 301.398 342.572 301.398 342.572C287.22 335.429 288.095 310.429 288.095 310.429C291.123 308.165 294.026 305.739 296.791 303.161C306.664 293.549 309.615 278.858 304.22 266.179C292.41 238.342 297.209 223.432 302.955 205.577C303.291 204.533 303.63 203.479 303.97 202.411C317.898 158.768 290.059 147.322 270.041 140.893C255.281 136.227 242.148 127.47 232.166 115.641C231.618 118.459 224.542 151.21 188.095 169.536C165.113 181.072 162.666 209.911 162.666 209.911C158.371 208.475 153.687 208.757 149.595 210.697C140.148 215.161 136.148 230 145.005 243.607C151.791 253.965 163.255 255.786 171.97 253.768C172.541 255.34 173.13 256.929 173.755 258.465L174.863 261.232C180.488 275.597 188.769 288.773 199.273 300.072C202.066 302.986 205.048 305.713 208.202 308.232C157.791 305.715 135.773 277.072 126.166 251.357C117.809 228.284 117.451 203.07 125.148 179.768C131.061 161.584 138.916 144.091 148.577 127.59C183.202 67.0895 220.702 85.5896 220.702 85.5896L220.703 85.5919C229.244 79.7232 258.649 64.5316 312.559 85.1967C357.363 102.357 369.309 142.804 373.488 171.947C373.678 173.28 373.801 174.618 373.925 175.956C374.056 177.377 374.187 178.798 374.398 180.215C376.793 196.137 380.308 205.247 384.842 217.001C385.617 219.009 386.422 221.094 387.255 223.304C403.202 265.715 403.202 308.25 353.077 343.536C352.379 344.026 351.698 344.549 351.011 345.077Z" fill="#FF6699"/>
<path d="M331.327 473.947H315.077C303.63 496.375 323.666 506.215 323.666 506.215C346.755 492.59 331.327 473.947 331.327 473.947Z" fill="#FF6699"/>
<path fill-rule="evenodd" clip-rule="evenodd" d="M377.041 171.447C370.38 124.911 349.702 95.6076 313.863 81.8754C290.023 72.7504 268.238 69.4111 248.952 71.9469C235.4 73.6581 226.135 77.9838 220.903 81.1666L220.166 81.6238C211.526 78.6829 176.695 71.1594 145.398 125.84L144.232 127.851C134.975 143.979 127.413 161.025 121.666 178.715C113.759 202.786 114.136 228.811 122.738 252.643C132.273 278.179 154.809 309.179 207.952 311.822H208.13L208.113 311.858C209.634 311.858 210.989 310.895 211.488 309.458C211.987 308.021 211.521 306.425 210.327 305.483C207.314 303.065 204.468 300.446 201.809 297.643C191.634 286.664 183.603 273.879 178.13 259.947L177.897 259.37L177.895 259.366L177.894 259.363C177.604 258.646 177.322 257.95 177.041 257.233C176.857 256.745 176.672 256.252 176.488 255.758L175.38 252.768C175.165 252.069 174.749 251.448 174.184 250.983C173.329 250.304 172.211 250.055 171.148 250.304C163.755 252 153.809 250.59 147.934 241.661L147.556 241.102C143.989 235.651 142.825 228.958 144.363 222.608C145.255 218.897 147.692 215.744 151.059 213.947C154.345 212.402 158.102 212.191 161.541 213.358C162.574 213.679 163.697 213.515 164.595 212.911C165.495 212.308 166.073 211.33 166.166 210.25C166.184 209.983 168.684 183.268 189.63 172.75L190.704 172.203C212.73 160.801 224.203 144.449 230.027 132.329L230.573 131.169C229.506 142.785 225.27 158.204 211.38 167.447C210.984 167.709 210.708 168.118 210.614 168.584C210.521 169.05 210.616 169.534 210.88 169.929C211.213 170.421 211.769 170.716 212.363 170.715C212.743 170.711 213.112 170.586 213.416 170.358C224.291 163.108 231.291 151.233 233.648 136.018C234.311 131.829 234.608 127.595 234.536 123.366C244.15 132.958 255.959 140.125 268.988 144.215C290.845 151.25 313.077 161.965 300.577 201.25L299.375 205.004C293.587 223.008 288.754 238.746 300.934 267.5C303.667 273.842 304.039 280.76 302.273 287.121C302.093 287.481 301.972 287.876 301.927 288.294C300.465 292.837 297.897 297.054 294.309 300.518C291.65 302.986 288.866 305.317 285.97 307.5C285.105 308.148 284.579 309.153 284.541 310.233C284.505 311.25 283.88 333.34 296.148 343.286C291.075 350.634 286.961 363.894 296.332 378.265C296.324 378.798 296.434 379.333 296.666 379.831C294.113 386.376 289.49 403.356 301.88 418.608C299.202 424.983 297.523 435.75 304.559 443.447C301.695 452.564 304.468 462.451 311.504 468.754L311.506 473.073C307.772 480.741 306.987 487.982 309.166 494.554C311.513 500.921 316.113 506.207 322.095 509.411C322.583 509.655 323.121 509.783 323.666 509.786C324.307 509.786 324.936 509.613 325.488 509.286C333.648 504.465 338.416 498.465 339.648 491.429C341.072 483.27 337.216 476.223 335.203 473.217L334.915 472.797L334.916 468.92C343.495 461.711 343.287 450.874 342.636 445.88L342.523 445.09C348.812 436.842 346.784 425.799 345.461 420.984L345.309 420.447C357.186 402.486 353.479 388.264 350.811 382.191L350.505 381.518C360.433 369.39 357.097 354.688 354.755 347.964L354.434 347.072L355.13 346.554L356.451 345.615C399.692 314.547 410.554 275.249 390.63 222.072C390.28 221.136 389.933 220.223 389.59 219.329L388.077 215.411L388.031 215.291C383.695 203.973 380.265 195.017 377.952 179.697C377.755 178.375 377.63 177.036 377.505 175.643L377.41 174.596C377.312 173.546 377.202 172.492 377.041 171.447ZM317.327 477.518H329.452C331.97 481.237 333.078 485.733 332.577 490.197C331.827 494.59 328.827 498.572 323.648 502.018C320.111 499.678 317.414 496.268 315.952 492.286C314.53 487.366 315.021 482.091 317.327 477.518ZM318.595 444.41L318.417 444.504C315.977 445.735 313.46 446.221 311.262 446.265L311.138 446.771C310.25 450.633 309.877 457.814 316.38 463.536L316.523 463.538C317.572 462.959 318.426 462.064 318.952 460.965C319.036 460.823 319.13 460.688 319.232 460.561C317.963 456.766 317.414 451.765 318.457 445.235L318.595 444.41ZM326.566 441.44L326.646 441.143C329.085 443.781 332.159 445.753 335.573 446.864C336.046 450.582 336.207 458.536 330.13 463.536L329.315 463.536C326.688 461.101 322.947 455.054 326.566 441.44ZM326.69 413.45L326.644 413.931C325.855 422.893 327.195 430.01 330.613 434.768C332.254 437.174 334.6 438.988 337.304 439.98C341.112 434.224 339.425 425.941 338.492 422.56L337.905 422.312C335.129 421.096 330.638 418.502 326.69 413.45ZM318.945 417.336L319.25 417.12C319.094 422.14 319.614 426.626 320.788 430.558C318.371 438.395 313.188 439.224 310.637 439.119L310.306 439.1C304.85 433.642 306.971 425.605 308.418 421.841L308.606 421.365C311.729 420.895 315.539 419.681 318.945 417.336ZM326.858 373.983L326.773 374.518C322.22 403.701 334.731 412.896 339.985 415.428C350.078 399.393 345.603 387.501 343.825 383.983C337.075 382.116 331.577 378.962 327.396 374.564L326.858 373.983ZM318.878 376.803L319.267 376.539C317.99 386.879 318.763 394.991 320.622 401.336C319.588 410.944 311.9 413.553 308.041 414.226L307.597 414.298L307.516 414.197C313.805 405.784 313.914 395.978 313.781 392.672L313.72 391.536C313.649 390.898 313.244 390.346 312.657 390.088C312.069 389.83 311.388 389.905 310.871 390.284C310.354 390.664 310.078 391.291 310.148 391.929C310.164 392.04 311.212 402.345 305.291 411.107C297.795 399.238 301.522 386.999 303.413 382.387L303.681 381.753C307.533 381.415 313.569 380.301 318.878 376.803ZM326.073 337.391L325.859 338.636C324.844 344.876 324.01 356.177 329.184 365.108C331.394 368.932 334.542 371.983 338.581 374.227C331.666 361.892 335.191 348.618 335.38 347.947C335.642 346.995 336.625 346.436 337.577 346.697C338.461 346.94 339.006 347.805 338.87 348.689L338.587 350.058C337.864 353.926 336.244 366.663 344.718 376.811L344.958 376.883C349.064 371.738 350.871 365.087 349.88 358.518C349.506 355.139 348.675 351.829 347.413 348.677C338.756 345.772 331.749 341.849 326.073 337.391ZM318.173 341.418L318.242 341.369C317.602 347.627 317.666 356.118 320.791 364.068C317.044 372.334 307.97 374.218 303.16 374.637L302.544 374.684C293.528 361.207 299.873 350.306 302.751 346.505L303.106 346.05C306.26 345.926 312.748 345.182 318.173 341.418ZM225.018 87.0646L235.166 113.429C235.202 113.513 235.234 113.599 235.261 113.686L235.238 113.661C244.533 124.475 256.576 132.567 270.085 137.088L273.662 138.251C290.229 143.712 322.326 156.629 307.38 203.518L305.144 210.502C300.127 226.381 297.074 240.135 307.523 264.804C310.959 272.804 311.369 281.54 309.051 289.539L309.096 290.632C309.467 297.38 312.312 319.959 334.145 334.344C349.019 309.621 341.285 286.741 341.13 286.5C340.805 285.568 341.297 284.549 342.229 284.224C343.161 283.898 344.18 284.39 344.505 285.322L344.812 286.297C346.23 291.144 351.301 312.736 337.142 336.192C338.112 336.756 339.119 337.304 340.161 337.834C358.699 323.079 369.235 300.405 368.488 276.643L368.452 275.679C368.402 275.205 368.544 274.731 368.846 274.362C369.148 273.993 369.584 273.76 370.059 273.715C371.034 273.621 371.902 274.33 372.005 275.304L372.062 276.277C372.352 282.358 372.662 315.565 343.757 339.527C345.568 340.319 347.477 341.059 349.485 341.742L350.291 341.137L351.023 340.608C392.863 311.161 403.005 275.34 383.952 224.536C383.629 223.679 383.301 222.839 382.979 222.014L382.977 222.009L382.976 222.007C382.427 220.6 381.895 219.238 381.434 217.911L379.607 213.133C375.946 203.449 373.007 194.631 370.916 180.715C370.742 179.576 370.618 178.458 370.514 177.36L370.293 174.912C370.231 174.27 370.164 173.67 370.079 173.053L369.988 172.429C363.72 128.679 344.523 101.233 311.327 88.5004C262.936 69.9366 235.099 81.0985 225.018 87.0646ZM303.098 301.433L303.468 300.93C305.341 309.178 309.446 320.331 318.446 330.281C315.091 337.801 306.121 338.797 302.808 338.92L302.224 338.935C293.424 333.68 291.938 319.166 291.712 313.179L291.684 312.215C294.202 310.25 297.22 307.733 299.291 305.733C300.685 304.385 301.955 302.947 303.098 301.433ZM206.523 86.4111L205.734 86.4194C192.825 86.6908 172.318 93.7565 152.216 128.298L151.595 129.375C142.059 145.661 134.305 162.928 128.47 180.875C121.046 203.418 121.386 227.798 129.434 250.125L129.905 251.36C137.774 271.587 154.611 295.079 190.618 302.476C165.913 288.228 154.386 265.53 153.809 264.375C153.406 263.499 153.773 262.461 154.637 262.031C155.501 261.602 156.549 261.936 157.005 262.786L157.3 263.343C159.309 267.053 171.592 288.327 195.145 300.866C185.066 289.608 177.066 276.642 171.523 262.572L170.416 259.768C170.148 259.108 169.898 258.447 169.648 257.786C159.037 259.454 148.432 254.872 142.368 246.05L142.023 245.536C137.005 238.269 135.346 229.198 137.47 220.625C138.331 217.052 140.116 213.924 142.52 211.448C139.356 190.208 148.887 172.271 170.263 159.358L171.041 158.893C194.125 145.238 201.625 127.406 203.129 123.177L203.434 122.25C203.7 121.299 204.688 120.743 205.639 121.009C206.591 121.276 207.147 122.263 206.88 123.215L206.611 124.081C205.19 128.336 197.825 146.889 173.665 161.475L172.845 161.965C152.765 173.835 143.675 189.539 145.768 208.745C149.708 206.12 154.582 204.893 159.595 205.608L159.738 204.85C161.533 195.695 167.509 175.818 186.38 166.322C218.97 149.929 227.059 121.393 228.363 115.786L228.362 115.675L217.815 88.2591L217.003 87.9837C213.621 86.8919 210.081 86.3601 206.523 86.4111ZM279.884 120.907L279.577 120.875C278.591 120.772 277.707 121.487 277.604 122.474C277.5 123.46 278.216 124.343 279.202 124.447L280.475 124.642C288.947 126.01 297.139 128.767 304.72 132.804C321.595 141.983 330.702 155.983 331.755 174.447C332.568 188.463 330.072 199.019 327.425 208.234L326.108 212.726C321.671 227.75 318.06 240.828 329.863 262.108C330.174 262.676 330.768 263.031 331.416 263.036C331.737 263.012 332.046 262.9 332.309 262.715C332.723 262.485 333.03 262.1 333.16 261.645C333.291 261.189 333.235 260.701 333.005 260.286C322.559 241.483 324.846 229.885 328.786 216.271L330.854 209.206C333.578 199.706 336.173 188.812 335.327 174.215C332.721 128.923 284.233 121.434 279.884 120.907Z" fill="#372168"/>
<path fill-rule="evenodd" clip-rule="evenodd" d="M204.071 39.1204C208.075 37.7846 210.655 34.7071 209.834 32.2466C209.014 29.7862 205.102 28.8745 201.098 30.2104C197.094 31.5462 194.514 34.6237 195.334 37.0842C196.155 39.5446 200.067 40.4563 204.071 39.1204Z" fill="#9284FF"/>
<path d="M351.927 78.125C341.545 86.2506 330.744 93.8265 319.57 100.821L318.034 101.786C307.204 108.544 296.041 114.755 284.588 120.393C252.445 136.107 199.177 149.536 170.052 155.446C162.623 156.941 155.088 157.843 147.516 158.143C145.82 158.143 144.141 158.268 142.48 158.286C131.162 158.385 119.868 157.236 108.802 154.857C108.217 154.719 107.616 154.665 107.016 154.696C109.159 154.321 115.141 153.946 120.016 153.446C132.355 152.161 135.98 149.714 144.534 148.393C147.159 148 149.641 147.625 151.838 147.321C163.659 145.679 261.998 114.839 317.338 93.5536C324.98 90.6071 331.802 87.8571 337.48 85.375C342.476 83.3343 347.305 80.9104 351.927 78.125V78.125Z" fill="#F9F9F9"/>
<path fill-rule="evenodd" clip-rule="evenodd" d="M108.034 158.286C118.911 160.651 130.01 161.848 141.141 161.857L142.534 161.821C143.596 161.812 144.536 161.775 145.398 161.741C146.216 161.708 146.963 161.679 147.677 161.679C155.44 161.364 163.166 160.439 170.784 158.911C204.748 152.018 255.355 138.625 286.177 123.571C297.733 117.887 308.992 111.617 319.909 104.786C320.462 104.464 320.998 104.125 321.48 103.804C332.769 96.7476 343.677 89.1001 354.159 80.8929L349.98 75.1072C345.551 77.7889 340.918 80.1175 336.123 82.0715C330.766 84.4107 324.23 87.0715 316.141 90.1786C260.659 111.607 162.391 142.232 151.445 143.75L145.98 144.536L144.07 144.821C140.899 145.351 137.763 146.066 134.677 146.964C129.796 148.395 124.792 149.364 119.73 149.857C117.766 150.071 115.605 150.25 113.605 150.411C113.285 150.439 112.969 150.466 112.658 150.493C109.995 150.724 107.742 150.919 106.463 151.143L107.248 158.286C107.509 158.25 107.773 158.25 108.034 158.286ZM142.391 154.714C139.48 154.732 136.677 154.679 133.998 154.554L136.498 153.875C139.314 153.055 142.176 152.405 145.07 151.929L146.98 151.643L152.338 150.857C165.034 149.089 264.659 117.643 318.605 96.8752L319.73 96.4466L317.552 97.8216C317.204 98.0534 316.856 98.2667 316.495 98.4882C316.356 98.5738 316.214 98.6606 316.07 98.7502C305.346 105.448 294.29 111.599 282.945 117.179C250.641 132.982 196.302 146.464 169.266 151.947C162.003 153.413 154.634 154.291 147.23 154.572C145.838 154.714 144.338 154.714 142.391 154.714Z" fill="#372168"/>
<path fill-rule="evenodd" clip-rule="evenodd" d="M329.034 94.6788C326.07 96.6609 322.891 98.7145 319.57 100.804L318.034 101.768C307.202 108.533 296.032 114.744 284.57 120.375C252.427 136.089 199.159 149.536 170.052 155.429C162.617 156.924 155.076 157.826 147.498 158.125C145.802 158.232 144.141 158.25 142.48 158.268C139.98 158.268 137.552 158.268 135.213 158.161L132.98 151.268C131.664 147.244 130.632 143.133 129.891 138.964C129.552 137.072 129.266 135.197 129.07 133.304C128.539 128.687 128.372 124.036 128.57 119.393C130.123 81.3619 155.165 48.3082 191.355 36.5181L212.159 29.7502C243.41 19.5512 277.732 27.0137 301.927 49.2681C305.458 52.4948 308.725 56.0001 311.695 59.7502C314.42 63.1906 316.891 66.8252 319.088 70.6252C319.373 71.1074 319.641 71.5895 319.909 72.0716C320.695 73.4645 321.445 74.8931 322.159 76.3574C324.004 80.1693 325.591 84.1007 326.909 88.1252L329.034 94.6788Z" fill="#9284FF"/>
<path fill-rule="evenodd" clip-rule="evenodd" d="M135.088 161.732C137.07 161.857 139.123 161.857 141.266 161.857L142.57 161.929C144.23 161.911 145.855 161.893 147.641 161.786C155.411 161.488 163.145 160.562 170.766 159.018C198.088 153.5 253.141 139.75 286.141 123.679C297.727 117.989 309.015 111.713 319.963 104.875L320.588 104.482L321.48 103.929C324.909 101.75 328.123 99.6787 331.016 97.7502L333.266 96.2502L330.302 87.1073C328.93 82.9318 327.283 78.8515 325.373 74.893C324.623 73.3573 323.838 71.8573 322.963 70.3037C322.858 70.1225 322.756 69.9413 322.655 69.7612C322.497 69.4798 322.34 69.2009 322.177 68.9287C319.901 64.9757 317.335 61.1974 314.498 57.6252C311.408 53.7285 308.01 50.0859 304.338 46.7323C279.168 23.6583 243.531 15.9088 211.052 26.4466L190.248 33.2145C157.35 43.9367 132.925 71.758 126.552 105.768C125.713 110.249 125.194 114.785 124.998 119.339C124.804 124.155 124.977 128.979 125.516 133.768C125.713 135.572 125.98 137.5 126.373 139.679C127.147 144.01 128.221 148.282 129.588 152.464L132.588 161.732H135.088ZM142.463 154.715H137.838L136.284 150.036C135.022 146.169 134.031 142.219 133.32 138.215C132.963 136.286 132.713 134.518 132.534 132.857C132.017 128.425 131.856 123.958 132.052 119.5C132.218 115.304 132.696 111.126 133.48 107C139.387 75.5566 161.985 49.8436 192.409 39.9467L213.213 33.161C243.244 23.4261 276.191 30.5952 299.463 51.9288C302.855 55.0198 305.991 58.3821 308.838 61.9824C311.471 65.2974 313.859 68.8008 315.98 72.4645L316.766 73.8574C317.516 75.1788 318.23 76.5538 318.909 77.9288C320.674 81.6007 322.201 85.3823 323.48 89.2503L324.766 93.2324C322.564 94.6967 320.183 96.2324 317.623 97.8395L316.838 98.3217L316.141 98.7681C305.413 105.469 294.351 111.619 282.998 117.197C250.641 133.018 196.338 146.482 169.355 151.947C162.08 153.41 154.699 154.293 147.284 154.59C145.695 154.715 144.034 154.715 142.463 154.715Z" fill="#372168"/>
<path fill-rule="evenodd" clip-rule="evenodd" d="M337.73 121.34C336.373 122.125 334.927 122.875 333.427 123.661C308.32 136.607 277.248 153.411 243.677 163.429C194.034 178.25 132.802 192 113.945 180.429C113.748 180.286 113.552 180.197 113.373 180.054C112.266 179.304 111.248 178.554 110.338 177.804C105.383 174.11 101.953 168.729 100.695 162.679C100.395 160.944 100.772 159.161 101.748 157.697C102.948 155.893 104.941 154.777 107.105 154.697C107.705 154.675 108.305 154.729 108.891 154.857C117.588 156.727 126.431 157.839 135.32 158.179C137.659 158.179 140.088 158.304 142.588 158.286C144.248 158.286 145.909 158.286 147.605 158.143C155.177 157.843 162.713 156.941 170.141 155.447C199.266 149.536 252.534 136.09 284.677 120.393C296.131 114.749 307.294 108.533 318.123 101.768C318.641 101.465 319.159 101.161 319.659 100.822C322.992 98.7145 326.153 96.6669 329.141 94.6788C339.07 88.0359 346.891 82.1788 352.016 78.1252L352.838 77.4824C353.088 77.2859 353.355 77.1074 353.623 76.9288C354.117 76.6342 354.645 76.4004 355.195 76.2324C355.66 76.0931 356.139 76.0033 356.623 75.9645C359.885 75.6654 362.933 77.6234 364.016 80.7145C364.302 81.5717 364.588 82.5002 364.927 83.2859C366.552 87.7502 369.57 103.5 337.73 121.34Z" fill="#9284FF"/>
<g style="mix-blend-mode:soft-light" opacity="0.8">
<path d="M337.73 121.34C336.373 122.125 334.927 122.875 333.427 123.661C308.32 136.607 277.248 153.411 243.677 163.429C194.034 178.25 132.802 192 113.945 180.429C113.748 180.286 113.552 180.197 113.373 180.054C112.266 179.304 111.248 178.554 110.338 177.804C105.383 174.11 101.953 168.729 100.695 162.679C100.395 160.944 100.772 159.161 101.748 157.697C102.948 155.893 104.941 154.777 107.105 154.697C107.705 154.675 108.305 154.729 108.891 154.857C117.588 156.727 126.431 157.839 135.32 158.179C137.659 158.179 140.088 158.304 142.588 158.286C144.248 158.286 145.909 158.286 147.605 158.143C155.177 157.843 162.713 156.941 170.141 155.447C199.266 149.536 252.534 136.09 284.677 120.393C296.131 114.749 307.294 108.533 318.123 101.768C318.641 101.465 319.159 101.161 319.659 100.822C322.992 98.7145 326.153 96.6669 329.141 94.6788C339.07 88.0359 346.891 82.1788 352.016 78.1252L352.838 77.4824C353.088 77.2859 353.355 77.1074 353.623 76.9288C354.117 76.6342 354.645 76.4004 355.195 76.2324C355.66 76.0931 356.139 76.0033 356.623 75.9645C359.885 75.6654 362.933 77.6234 364.016 80.7145C364.302 81.5717 364.588 82.5002 364.927 83.2859C366.552 87.7502 369.57 103.5 337.73 121.34Z" fill="white"/>
</g>
<path fill-rule="evenodd" clip-rule="evenodd" d="M112.07 183.482C116.534 186.214 124.105 188.304 136.909 188.304C157.123 188.304 190.32 183.072 244.677 166.839C275.773 157.575 305.049 142.404 328.58 130.21L328.605 130.197L335.105 126.839C336.641 126.036 338.123 125.25 339.516 124.447C348.213 119.5 375.927 102.125 368.195 82.0002C367.982 81.4368 367.787 80.8648 367.591 80.2901C367.507 80.0449 367.423 79.7993 367.338 79.5537C365.723 74.9307 361.18 71.9903 356.302 72.4109C355.557 72.4605 354.821 72.5923 354.105 72.8037C353.238 73.0696 352.41 73.4478 351.641 73.9287C351.284 74.1609 350.927 74.4109 350.605 74.6609L350.373 74.8394L349.748 75.3216C344.963 79.0359 337.302 84.8752 327.105 91.7144C324.016 93.768 320.855 95.8216 317.641 97.8394L316.355 98.643L316.195 98.7502C305.466 105.449 294.404 111.6 283.052 117.179C250.695 133 196.373 146.464 169.373 151.947C162.109 153.405 154.741 154.282 147.338 154.572C145.677 154.714 144.034 154.714 142.498 154.714C141.26 154.724 140.012 154.693 138.752 154.662C137.63 154.635 136.499 154.607 135.355 154.607C126.676 154.283 118.041 153.196 109.552 151.357C108.706 151.183 107.844 151.105 106.98 151.125C106.02 151.147 105.068 151.315 104.159 151.625C101.966 152.341 100.079 153.775 98.8019 155.697C97.3022 157.922 96.72 160.641 97.1769 163.286C98.5661 170.174 102.436 176.312 108.052 180.536C109.098 181.402 110.189 182.212 111.32 182.964L111.909 183.375L112.07 183.482ZM242.605 159.929C177.284 179.447 129.873 185.947 115.82 177.322L115.123 177.09C115.006 177.005 114.888 176.92 114.771 176.835C113.923 176.224 113.079 175.616 112.373 175.036C108.086 171.888 105.105 167.274 103.998 162.072C103.826 161.234 104.007 160.361 104.498 159.661C104.905 159.078 105.487 158.64 106.159 158.411C106.418 158.323 106.689 158.275 106.963 158.268C107.242 158.241 107.523 158.241 107.802 158.268C116.705 160.183 125.756 161.324 134.855 161.679C137.409 161.786 139.909 161.786 142.302 161.786C142.985 161.778 143.712 161.75 144.465 161.72C145.425 161.682 146.426 161.643 147.427 161.643C155.19 161.329 162.916 160.403 170.534 158.875C197.855 153.34 252.909 139.607 285.927 123.536C297.548 117.828 308.872 111.534 319.855 104.679C320.373 104.375 320.891 104.054 321.32 103.768C324.516 101.75 327.73 99.6788 330.873 97.5717C341.338 90.6252 349.248 84.6431 354.088 80.8395L354.873 80.2145L355.284 79.9109C355.528 79.7725 355.785 79.6588 356.052 79.5717C356.291 79.5047 356.536 79.4628 356.784 79.4467C358.404 79.3033 359.916 80.2722 360.463 81.8038L360.463 81.8049C360.766 82.6974 361.07 83.5899 361.409 84.4824C362.838 88.2324 365.248 101.715 335.891 118.161C334.588 118.929 333.195 119.661 331.73 120.411L325.213 123.786C301.963 135.84 272.963 150.857 242.605 159.929Z" fill="#372168"/>
<path fill-rule="evenodd" clip-rule="evenodd" d="M329.034 94.6788C326.07 96.6609 322.891 98.7145 319.57 100.804L318.034 101.768C307.202 108.533 296.032 114.744 284.57 120.375C252.427 136.09 199.159 149.536 170.052 155.429C162.617 156.924 155.076 157.826 147.498 158.125C145.802 158.232 144.141 158.25 142.48 158.268C139.98 158.268 137.552 158.268 135.213 158.161L132.98 151.268C131.664 147.244 130.632 143.133 129.891 138.965C129.552 137.072 129.266 135.197 129.07 133.304C129.07 133.304 208.73 138.786 319.909 72.0717C320.695 73.4645 321.445 74.8931 322.159 76.3574C324.004 80.1693 325.591 84.1008 326.909 88.1252L329.034 94.6788Z" fill="#A6E5FF"/>
<path fill-rule="evenodd" clip-rule="evenodd" d="M135.088 161.732C137.07 161.857 139.123 161.857 141.266 161.857L142.552 161.947C144.213 161.929 145.838 161.911 147.623 161.804C155.394 161.506 163.127 160.58 170.748 159.036C198.07 153.518 253.123 139.768 286.123 123.697C297.709 118.007 308.998 111.731 319.945 104.893L320.57 104.5L321.463 103.947C324.891 101.768 328.105 99.6967 330.998 97.7681L333.248 96.2681L330.284 87.1253C328.912 82.9498 327.265 78.8694 325.355 74.911C324.605 73.3753 323.82 71.8753 322.998 70.4289L321.213 67.2324L318.07 69.1253C211.515 133.048 133.323 129.995 129.464 129.845C129.383 129.841 129.335 129.84 129.32 129.84L125.088 129.554L125.516 133.768C125.713 135.572 125.98 137.5 126.373 139.679C127.147 144.01 128.221 148.282 129.588 152.465L132.588 161.732H135.088ZM142.463 154.714H137.838L136.338 150.179C135.075 146.312 134.085 142.362 133.373 138.357C133.348 138.233 133.319 138.108 133.29 137.984C133.215 137.663 133.141 137.345 133.141 137.036C151.23 137.197 222.516 133.804 318.48 77.0715L318.909 77.9287C320.674 81.6005 322.201 85.3821 323.48 89.2501L324.766 93.2322C322.564 94.6965 320.183 96.2322 317.623 97.8394L316.838 98.3215L316.141 98.7679C305.413 105.468 294.351 111.619 282.998 117.197C250.641 133.018 196.338 146.482 169.355 151.947C162.08 153.41 154.699 154.293 147.284 154.589C145.695 154.714 144.034 154.714 142.463 154.714Z" fill="#372168"/>
<path fill-rule="evenodd" clip-rule="evenodd" d="M276.641 109.464C280.463 108.018 284.141 106.464 287.713 104.857L276.641 109.464Z" fill="#A6E5FF"/>
<path d="M276.641 111.25C275.786 111.244 275.056 110.632 274.899 109.792C274.742 108.952 275.203 108.118 275.998 107.804C279.677 106.411 283.355 104.857 286.98 103.232C287.411 103.032 287.904 103.012 288.35 103.176C288.795 103.341 289.157 103.676 289.355 104.107C289.554 104.54 289.572 105.035 289.404 105.481C289.237 105.927 288.898 106.288 288.463 106.482C284.766 108.143 281.016 109.714 277.284 111.143C277.077 111.213 276.86 111.25 276.641 111.25Z" fill="#372168"/>
<path fill-rule="evenodd" clip-rule="evenodd" d="M296.516 100.536C305.855 95.6878 314.894 90.2852 323.588 84.3573L296.516 100.536Z" fill="#A6E5FF"/>
<path d="M296.534 102.322C295.708 102.325 294.987 101.761 294.792 100.958C294.596 100.155 294.977 99.3234 295.713 98.9467C304.983 94.1291 313.957 88.7624 322.588 82.8752C323.116 82.4775 323.822 82.4048 324.42 82.6862C325.019 82.9676 325.413 83.557 325.445 84.2179C325.476 84.8788 325.139 85.5028 324.57 85.8395C315.829 91.8122 306.735 97.2507 297.338 102.125C297.089 102.253 296.814 102.32 296.534 102.322Z" fill="#372168"/>
<path d="M208.927 48.7503C207.941 48.913 207.009 48.2454 206.846 47.2592C206.684 46.273 207.351 45.3416 208.338 45.1789C211.857 44.0076 215.071 42.0678 217.748 39.5003C219.534 37.5896 220.409 35.7146 219.927 34.3932C219.623 33.5539 219.07 31.9824 214.57 32.6074C213.583 32.7406 212.676 32.049 212.543 31.0628C212.41 30.0766 213.101 29.1692 214.088 29.036C219.016 28.3574 222.016 29.7146 223.266 33.1789C224.23 35.8574 223.159 39.0003 220.266 41.9824C217.225 44.9346 213.565 47.1732 209.552 48.536C209.359 48.6457 209.147 48.7184 208.927 48.7503Z" fill="#372168"/>
<path fill-rule="evenodd" clip-rule="evenodd" d="M191.855 38.5536C192.927 41.7679 196.32 43.6429 200.391 43.6429C202.018 43.6426 203.635 43.3772 205.177 42.8572C211.123 40.8572 214.659 35.8572 213.177 31.4643C212.248 28.9562 210.06 27.1282 207.427 26.6607C204.928 26.1397 202.334 26.3126 199.927 27.1607C197.493 27.9235 195.317 29.345 193.641 31.2679C191.79 33.2048 191.11 35.9803 191.855 38.5536ZM198.766 36.2499C201.513 36.9099 204.396 35.9466 206.195 33.7677C203.447 33.0852 200.552 34.0525 198.766 36.2499Z" fill="#372168"/>
</g>
<path fill-rule="evenodd" clip-rule="evenodd" d="M0 250C0 111.929 111.929 0 250 0C388.071 0 500 111.929 500 250C500 388.071 388.071 500 250 500C111.929 500 0 388.071 0 250ZM492.857 250C492.857 115.874 384.126 7.14286 250 7.14286C115.874 7.14286 7.14286 115.874 7.14286 250C7.14286 384.126 115.874 492.857 250 492.857C384.126 492.857 492.857 384.126 492.857 250Z" fill="#372168"/>
</svg>
