<svg width="500" height="500" viewBox="0 0 500 500" fill="none" xmlns="http://www.w3.org/2000/svg">
<path fill-rule="evenodd" clip-rule="evenodd" d="M250 496.429C386.099 496.429 496.429 386.099 496.429 250C496.429 113.901 386.099 3.57141 250 3.57141C113.901 3.57141 3.57153 113.901 3.57153 250C3.57153 386.099 113.901 496.429 250 496.429Z" fill="#E7EEFF"/>
<mask id="mask0_0_274" style="mask-type:alpha" maskUnits="userSpaceOnUse" x="3" y="3" width="494" height="494">
<path fill-rule="evenodd" clip-rule="evenodd" d="M250 496.429C386.099 496.429 496.429 386.099 496.429 250C496.429 113.901 386.099 3.57141 250 3.57141C113.901 3.57141 3.57153 113.901 3.57153 250C3.57153 386.099 113.901 496.429 250 496.429Z" fill="white"/>
</mask>
<g mask="url(#mask0_0_274)">
<path fill-rule="evenodd" clip-rule="evenodd" d="M336.359 210.077L336.357 210.036C337.536 196.964 339.357 159.232 324.071 134.357C305.536 104.339 275.161 95.5535 249.464 95.9821C223.732 95.5535 193.357 104.339 174.821 134.357C159.554 159.125 161.375 196.911 162.571 209.929V210.03C158.281 208.601 153.604 208.884 149.518 210.821C140.161 215.268 136.089 230.125 145.018 243.714C151.783 254.04 163.198 255.882 171.903 253.893C172.226 254.732 172.545 255.575 172.861 256.412C173.129 257.12 173.395 257.825 173.661 258.518L174.768 261.286C180.393 275.65 188.675 288.826 199.179 300.125C203.705 304.911 208.768 309.159 214.268 312.786C224.14 319.474 235.722 323.192 247.643 323.5H251.214C263.136 323.197 274.719 319.478 284.589 312.786C288.752 310.04 292.665 306.938 296.286 303.517C292.663 306.963 288.743 310.089 284.571 312.857C274.702 319.55 263.118 323.269 251.196 323.571H247.625C235.705 323.264 224.122 319.545 214.25 312.857C208.75 309.231 203.687 304.982 199.161 300.196V359.357C200.071 365.125 211.625 370.054 227.982 372.357C234.864 373.312 241.803 373.796 248.75 373.804H250C256.948 373.796 263.886 373.312 270.768 372.357C287.214 369.982 298.804 365.071 299.607 359.268V300.201L299.696 300.107C310.194 288.814 318.47 275.644 324.089 261.286L325.196 258.518C325.814 257.001 326.396 255.431 326.961 253.878C335.674 255.891 347.129 254.065 353.911 243.714C362.768 230.125 358.768 215.268 349.375 210.875C345.301 208.942 340.638 208.656 336.359 210.077ZM168.304 242.786C168.661 244.021 169.028 245.245 169.406 246.457C169.011 245.278 168.62 244.09 168.232 242.893C167.946 241.946 167.607 240.768 167.393 239.964L167.392 239.962L167.392 239.96C167.178 239.157 166.893 238.088 166.75 237.482C166.693 237.24 166.648 237.035 166.601 236.825L166.6 236.823C166.53 236.507 166.457 236.179 166.339 235.696C166.241 235.295 166.156 234.879 166.071 234.464C165.987 234.049 165.902 233.634 165.804 233.232C165.607 232.429 165.446 231.625 165.286 230.786L165.179 230.232C164.982 229.161 164.786 228.071 164.607 226.964C164.464 226.19 164.339 225.405 164.232 224.607C164.214 224.515 164.194 224.422 164.174 224.328L164.173 224.326C164.096 223.968 164.018 223.603 164.018 223.25C163.857 222.125 163.696 220.982 163.554 219.821C163.387 218.548 163.244 217.315 163.125 216.125C163.018 215.625 162.964 215.125 162.964 214.625C162.964 214.625 163.089 214.286 162.964 214.018C162.896 213.872 162.892 213.638 162.887 213.419C162.884 213.235 162.88 213.062 162.839 212.964C162.784 212.833 162.784 212.809 162.779 212.682C162.775 212.602 162.771 212.481 162.75 212.268L162.74 212.171L162.733 212.101C162.738 212.123 162.744 212.143 162.75 212.161C162.791 212.274 162.787 212.34 162.783 212.418C162.777 212.512 162.771 212.623 162.839 212.857C162.907 213.091 162.912 213.266 162.916 213.441C162.92 213.587 162.924 213.732 162.964 213.911C163.054 214.304 163.054 214.518 163.054 214.518C163.068 214.718 163.094 214.918 163.119 215.118C163.158 215.418 163.196 215.718 163.196 216.018C163.312 217.177 163.459 218.368 163.594 219.46L163.625 219.714C163.768 220.875 163.929 222.018 164.089 223.143C164.114 223.298 164.137 223.456 164.16 223.614C164.202 223.91 164.245 224.209 164.304 224.5C164.411 225.298 164.536 226.083 164.679 226.857C164.857 227.964 165.054 229.054 165.25 230.125L165.357 230.679C165.438 231.098 165.527 231.5 165.616 231.902C165.705 232.304 165.795 232.705 165.875 233.125C165.967 233.603 166.087 234.133 166.197 234.617C166.28 234.981 166.357 235.321 166.411 235.589C166.536 236.214 166.679 236.804 166.821 237.375L166.933 237.814C167.097 238.458 167.245 239.038 167.464 239.857C167.732 240.857 168.018 241.839 168.304 242.786ZM162.634 211.15C162.641 211.261 162.649 211.369 162.657 211.471C162.623 211.182 162.595 210.883 162.59 210.571C162.607 210.764 162.621 210.961 162.634 211.15Z" fill="#FFD6CB"/>
<path d="M28.5708 496.428C28.9184 495.049 29.1005 494.313 29.4546 492.974C29.7008 492.043 29.9443 491.122 30.1786 490.214C31.1786 486.643 32.1965 483.071 33.2322 479.804C33.3562 479.409 33.4801 479.016 33.6035 478.626C33.8712 477.778 34.1362 476.938 34.3929 476.107C34.6786 475.214 34.9643 474.321 35.25 473.5C36.0357 471.143 36.8215 468.857 37.6072 466.661C39.381 461.732 41.1667 457.196 42.9643 453.054C43.4108 452 43.8572 450.964 44.3036 449.964L44.5715 449.375C45.5358 447.161 46.5179 445.089 47.5 443.125C50.2915 437.275 53.6024 431.687 57.3929 426.429C57.443 426.353 57.497 426.282 57.5494 426.213L57.5495 426.213C57.6091 426.134 57.6668 426.058 57.7143 425.982C58.6965 424.696 59.6429 423.536 60.5536 422.536L60.6608 422.411C61.3021 421.689 61.9834 420.988 62.6598 420.291C62.8874 420.057 63.1145 419.823 63.3393 419.589C69.0979 413.797 75.4345 408.609 82.25 404.107L84.3215 402.732C85.3691 402.042 86.4405 401.363 87.5358 400.696C90.1786 399.054 92.8929 397.464 95.6965 395.911C100.321 393.339 105.107 390.911 109.982 388.607C115.875 385.821 121.875 383.25 127.839 380.821L131.893 379.214C133.054 378.75 134.232 378.304 135.464 377.875C140.679 375.893 145.857 374.071 150.911 372.375C160.696 369.089 169.964 366.339 178.143 364.071C186.607 361.732 193.857 359.911 199.196 358.625C199.17 358.874 199.17 359.126 199.196 359.375C200.107 365.143 211.696 370.089 228.018 372.375C234.899 373.33 241.838 373.814 248.786 373.821H250.036C256.983 373.814 263.922 373.33 270.804 372.375C287.25 370.054 298.839 365.089 299.643 359.286C299.661 359.066 299.661 358.845 299.643 358.625C305 359.929 312.321 361.75 320.839 364.107C328.982 366.357 338.196 369.107 347.929 372.375C354.107 374.446 360.429 376.714 366.875 379.214C370.149 380.476 373.417 381.804 376.679 383.196L380.411 384.786L383.411 386.107C390.143 389.143 396.768 392.393 403.054 395.911C406.982 398.089 410.804 400.357 414.446 402.732L415.464 403.411C417.25 404.554 419.036 405.732 420.607 406.982C425.886 410.723 430.838 414.905 435.411 419.482C436.375 420.446 437.304 421.429 438.196 422.429C439.287 423.635 440.312 424.899 441.268 426.214V426.321C442.089 427.429 442.946 428.643 443.786 429.893C446.514 434.095 448.983 438.46 451.179 442.964C452.232 445.107 453.286 447.375 454.375 449.804C455.054 451.339 455.732 452.929 456.411 454.571C456.875 455.677 457.326 456.811 457.787 457.974L457.946 458.375C458.958 460.946 459.976 463.655 461 466.5C461.786 468.696 462.571 470.982 463.357 473.339C464.262 476.113 465.173 478.994 466.089 481.982C466.219 482.421 466.351 482.862 466.484 483.306L466.488 483.32L466.489 483.323C466.738 484.154 466.989 484.993 467.232 485.839L467.341 486.218C467.689 487.426 468.073 488.762 468.429 490.054C469.054 492.268 469.089 494.089 469.642 496.428H28.5708Z" fill="#FF6666"/>
<g style="mix-blend-mode:soft-light" opacity="0.8">
<path d="M320.929 364.089C316.518 370.839 309.143 376.197 299.679 380.161C291.583 383.427 283.114 385.677 274.465 386.857C257.921 389.19 241.133 389.19 224.59 386.857C215.891 385.664 207.373 383.396 199.232 380.107C189.822 376.143 182.5 370.786 178.107 364.036C186.572 361.696 193.822 359.875 199.161 358.589C199.135 358.839 199.135 359.09 199.161 359.339C200.072 365.107 211.661 370.054 227.982 372.339C234.864 373.295 241.803 373.778 248.75 373.786H250C256.948 373.778 263.887 373.295 270.768 372.339C287.215 370.018 298.804 365.054 299.607 359.25C299.625 359.03 299.625 358.809 299.607 358.589C305.107 359.911 312.411 361.732 320.929 364.089Z" fill="white"/>
</g>
<g style="mix-blend-mode:multiply" opacity="0.15">
<path fill-rule="evenodd" clip-rule="evenodd" d="M296.036 303.786V356.107C251.536 356.804 218.571 333.893 202.839 320.197V303.75C206.378 307.132 210.222 310.181 214.321 312.857C224.196 319.539 235.777 323.257 247.696 323.572H251.268C263.187 323.257 274.767 319.539 284.643 312.857C288.703 310.179 292.516 307.143 296.036 303.786Z" fill="#7C3830"/>
</g>
<path fill-rule="evenodd" clip-rule="evenodd" d="M251.405 92.502L249.607 92.518C229.965 92.1608 193.786 96.9644 172.107 132.572C158.313 154.962 157.857 186.762 158.887 204.188L158.974 205.569C155.23 205.217 151.43 205.875 147.982 207.518C142.75 210.188 138.924 214.984 137.482 220.679C135.315 229.276 136.969 238.391 142.018 245.679L142.367 246.206C147.562 253.862 156.293 258.382 165.572 258.179C166.928 258.145 168.279 258.026 169.616 257.82C169.875 258.516 170.14 259.213 170.411 259.911L171.518 262.697C177.149 276.991 185.317 290.146 195.623 301.528L195.714 301.627L195.715 355.745C189.544 357.258 183.316 358.893 177.018 360.625C167.286 363.322 158.322 366.054 149.607 368.982C143.947 370.947 138.839 372.732 134.054 374.518C133.649 374.661 133.268 374.802 132.89 374.945L129.121 376.404C128.211 376.762 127.298 377.131 126.393 377.5L123.777 378.554C118.55 380.687 113.355 382.972 108.304 385.375C103.161 387.804 98.2681 390.286 93.8038 392.786C90.7323 394.5 88.0181 396.089 85.5359 397.625L84.686 398.147C83.844 398.67 83.027 399.192 82.2502 399.714C81.5181 400.179 80.7859 400.661 80.1252 401.125C73.1183 405.706 66.5965 410.989 60.6609 416.893C60.1084 417.526 59.5607 418.08 59.0418 418.606C58.6385 419.014 58.2522 419.406 57.8931 419.804L57.7681 419.964C56.8395 420.964 55.8395 422.179 54.7324 423.643C54.6629 423.719 54.603 423.803 54.5538 423.893L54.3752 424.125L53.4065 425.488C49.8928 430.513 46.8003 435.821 44.1609 441.357C43.2936 442.952 42.5902 444.473 41.9337 445.961L41.1609 447.732L40.4341 449.368C40.1312 450.062 39.8335 450.768 39.5359 451.482L38.9407 452.892C37.3534 456.697 35.7661 460.857 34.1788 465.286C33.3931 467.5 32.5895 469.822 31.8038 472.197L31.5048 473.081L30.9109 474.875L29.3308 479.975C28.7465 481.87 28.1571 483.86 27.5661 485.923L26.6788 489.072C26.397 490.181 26.1022 491.308 25.8051 492.444L25.8033 492.45C25.4985 493.615 25.1912 494.79 24.8931 495.964L24.4109 497.75C24.2591 498.339 24.2617 499.386 24.1077 500H475.001L473.607 495.268C473.607 495.268 472.5 491.089 471.929 489.089C471.643 488.036 471.34 486.964 471.036 485.929L470.732 484.839L469.572 480.929C469.114 479.523 468.684 478.141 468.261 476.782L468.26 476.777L468.259 476.775C467.774 475.218 467.299 473.692 466.804 472.197C466.018 469.822 465.214 467.5 464.429 465.286C463.375 462.411 462.34 459.607 461.322 457.054L461.161 456.607C460.697 455.429 460.232 454.286 459.768 453.197C459.089 451.518 458.393 449.911 457.697 448.339C456.813 446.371 455.999 444.603 455.218 442.96L454.447 441.357C452.18 436.743 449.646 432.265 446.857 427.947C446.494 427.435 446.143 426.92 445.786 426.397L445.785 426.395L445.78 426.388L445.776 426.382L445.775 426.38C445.276 425.649 444.766 424.902 444.197 424.125L444.054 423.947C442.893 422.375 441.786 421.018 440.84 419.982C439.893 418.947 438.911 417.893 437.929 416.911C433.212 412.19 428.105 407.877 422.661 404.018C420.875 402.732 419.107 401.518 417.447 400.447C417.072 400.197 416.697 399.929 416.375 399.732L415.181 398.96C411.971 396.905 408.544 394.879 404.75 392.768C398.697 389.411 392.179 386.161 384.786 382.839L381.732 381.5L380.786 381.089L378 379.893C374.804 378.536 371.572 377.232 368.089 375.875C362.036 373.518 355.786 371.268 348.982 368.982C340.197 366.018 331.018 363.232 321.714 360.661C316.142 359.113 311.158 357.818 307.021 356.777L303.177 355.82L303.18 301.868C313.65 290.402 321.936 277.114 327.625 262.661L328.75 259.839C328.994 259.208 329.236 258.57 329.475 257.934C330.756 258.092 332.047 258.174 333.34 258.179C342.78 258.374 351.652 253.682 356.804 245.768L357.228 245.139C361.94 237.958 363.446 229.123 361.357 220.768C359.904 215.074 356.072 210.281 350.839 207.607C347.544 206.034 343.923 205.364 340.34 205.62C341.456 188.522 341.341 155.535 327.197 132.589C305.857 98.0331 271.243 92.4936 251.405 92.502ZM174.31 368.941L176.707 368.261C181.449 374.391 188.538 379.467 197.822 383.375C206.269 386.798 215.112 389.149 224.143 390.375C232.577 391.587 241.087 392.184 249.607 392.161C258.096 392.211 266.576 391.644 274.982 390.464C283.919 389.235 292.669 386.908 301.036 383.536C310.438 379.612 317.599 374.466 322.363 368.291C330.744 370.648 339.002 373.193 346.947 375.857C353.643 378.107 359.786 380.322 365.732 382.643C369.143 383.964 372.322 385.25 375.465 386.589L379.161 388.161L382.089 389.464C389.286 392.697 395.643 395.857 401.518 399.125C405.607 401.411 409.286 403.607 412.75 405.857L414.713 407.143C416.03 408.014 417.375 408.943 418.732 409.929C423.828 413.559 428.607 417.616 433.018 422.054L433.027 422.063L433.028 422.064L433.031 422.067C433.92 422.973 434.826 423.898 435.697 424.893C436.703 425.999 437.645 427.162 438.518 428.375L438.679 428.572C439.554 429.732 440.304 430.839 441.036 431.964C443.67 436.043 446.056 440.277 448.179 444.643L448.549 445.396C449.169 446.67 449.807 448.032 450.479 449.51L451.304 451.339C451.982 452.857 452.643 454.411 453.322 456.054L453.768 457.136C454.066 457.865 454.363 458.607 454.661 459.357L454.822 459.786C455.804 462.268 456.822 464.964 457.839 467.804L458.426 469.443C459.009 471.102 459.585 472.813 460.161 474.554L460.71 476.209C461.439 478.434 462.161 480.727 462.875 483.089L463.286 484.464L464.322 488C464.411 488.319 464.502 488.639 464.594 488.962C464.796 489.67 465 490.389 465.197 491.125L465.75 493.124L33.0362 492.857L34.0604 489.595C34.9505 486.424 35.8373 483.426 36.6966 480.661L37.8574 476.982C37.9278 476.766 37.9972 476.553 38.066 476.341L38.0746 476.314L38.077 476.307C38.2834 475.671 38.4851 475.05 38.6966 474.429L39.1662 473.034C39.7902 471.186 40.4074 469.389 41.0359 467.661C42.6966 462.804 44.4824 458.304 46.2681 454.232C46.6966 453.214 47.1431 452.197 47.5716 451.232L48.3808 449.399C49.0916 447.809 49.8574 446.2 50.7145 444.5C53.4042 438.864 56.6019 433.484 60.2681 428.429L60.6252 427.929L60.9123 427.567C61.7565 426.502 62.4952 425.571 63.0895 424.929L63.3574 424.643C64.1074 423.75 65.0002 422.857 65.8931 421.964C71.4951 416.4 77.6454 411.416 84.2502 407.089L86.2859 405.75C87.3038 405.089 88.3216 404.429 89.4109 403.768L90.3253 403.204C92.4835 401.882 94.8194 400.525 97.4288 399.072C101.75 396.714 106.482 394.304 111.5 391.929C117.268 389.197 123.214 386.607 129.214 384.232L130.403 383.75L134.381 382.179C135.139 381.883 135.905 381.589 136.679 381.304L138.107 380.768C141.462 379.517 144.969 378.262 148.722 376.972L152 375.857C159.158 373.447 166.502 371.172 174.31 368.941ZM184.393 366.157C188.516 365.055 192.642 363.992 196.732 362.982C201.168 370.959 217.454 374.461 226.094 375.788L227.536 376C234.583 376.981 241.689 377.476 248.804 377.482H250.072C257.181 377.477 264.281 376.981 271.322 376C279.216 374.897 296.294 371.631 301.647 363.858C301.843 363.578 302.024 363.293 302.189 363.002L302.186 363.002L302.25 362.893C302.23 362.93 302.21 362.966 302.189 363.002C304.675 363.572 307.543 364.297 310.758 365.145L314.781 366.219C310.113 370.867 304.525 374.491 298.375 376.857L296.904 377.436C289.53 380.27 281.85 382.239 274.018 383.304C257.825 385.589 241.39 385.589 225.197 383.304C216.793 382.154 208.564 379.971 200.697 376.804C194.553 374.41 188.976 370.761 184.322 366.089L184.393 366.157ZM202.804 308.572V358.947C203.589 361.697 211.875 366.429 228.554 368.768C235.275 369.706 242.053 370.177 248.839 370.179H250.072C256.852 370.176 263.624 369.705 270.34 368.768C277.467 367.762 283.059 366.326 287.189 364.797L287.549 364.661C293.011 362.567 295.752 360.324 295.964 358.786C295.966 358.443 296.014 358.107 296.105 357.784L296.108 308.727C293.577 310.92 290.923 312.971 288.159 314.868L286.768 315.804C277.842 321.844 267.593 325.583 256.933 326.73C255.026 326.945 253.107 327.077 251.179 327.125H247.697L247.583 327.12L247.554 327.125C245.591 327.072 243.637 326.932 241.697 326.706L239.892 326.47L238.853 326.312L237.354 326.054L236.156 325.822C228.056 324.177 220.306 321.02 213.323 316.484L212.375 315.857C209.015 313.66 205.817 311.225 202.804 308.572ZM247.787 99.6839L249.465 99.6965C267.482 99.4108 300.768 103.75 320.893 136.375C335.178 159.533 333.806 195.554 332.772 208.258L332.643 209.75V209.982L335.894 210.257L332.697 210.179L332.695 210.199L332.643 210.197C332.56 211 332.48 211.699 332.412 212.273L332.179 214.072C332.17 214.173 332.17 214.274 332.179 214.375L332.072 215.732C331.786 218.304 331.518 220.518 331.161 222.875C330.804 225.232 330.411 227.518 330 229.679L329.793 230.775C329.649 231.508 329.494 232.238 329.34 232.929L328.883 234.995L328.643 236.018V236.179C328.527 236.679 328.406 237.152 328.286 237.612L327.929 238.964L327.93 239.159C327.69 240.117 327.433 240.953 327.161 241.822L326.784 243.038L326.453 244.077L326.375 244.304C325.572 246.929 324.661 249.661 323.572 252.661V252.839C323.142 254.042 322.69 255.244 322.251 256.409L321.929 257.268L320.266 261.407C314.81 274.796 306.985 287.096 297.161 297.714L297.491 297.352C297.344 297.461 297.203 297.582 297.072 297.714C292.739 302.311 287.885 306.386 282.607 309.857L281.732 310.443C272.643 316.406 262.061 319.714 251.179 319.982H247.697C247.338 319.973 246.979 319.96 246.62 319.944L245.709 319.896L244.376 319.798C234.345 318.949 224.68 315.534 216.322 309.857L215.113 309.046C210.31 305.76 205.871 301.967 201.875 297.732C201.772 297.623 201.663 297.522 201.546 297.433C191.505 286.512 183.571 273.827 178.143 260.018L177.054 257.304C176.869 256.822 176.685 256.331 176.5 255.837L175.393 252.857L175.072 252.679C173.822 249.197 172.625 245.536 171.5 241.822C171.375 241.395 171.233 240.889 171.099 240.407L171.097 240.402L170.967 239.935L170.598 238.661C170.532 238.425 170.466 238.167 170.398 237.893L169.991 236.244C169.968 236.145 169.946 236.047 169.924 235.946C169.907 235.869 169.889 235.79 169.872 235.71C169.812 235.434 169.747 235.137 169.661 234.786L169.484 234.042C169.367 233.54 169.256 233.024 169.161 232.5V232.322C168.982 231.589 168.822 230.839 168.679 230.036L168.572 229.536L167.877 225.542C167.796 225.064 167.72 224.572 167.661 224.072C167.661 224.048 167.675 224.042 167.689 224.036C167.716 224.024 167.744 224.012 167.661 223.857C167.536 223.625 167.536 223.375 167.536 223.143V222.679C167.482 222.316 167.431 221.945 167.38 221.57L166.954 218.447C166.841 217.577 166.737 216.67 166.643 215.732L166.543 214.826L166.518 214.375C166.528 214.262 166.528 214.149 166.518 214.036L166.321 212.39L166.322 211.75C166.31 211.605 166.289 211.447 166.266 211.274C166.218 210.912 166.161 210.483 166.161 209.964L166.15 209.69C166.129 209.418 166.078 209.153 165.998 208.899L165.907 207.817C164.874 194.745 163.647 159.321 177.804 136.375C197.342 104.729 229.281 99.6966 247.787 99.6839ZM340.114 212.879L339.767 212.935L339.563 214.58C339.537 214.767 339.516 214.908 339.5 215L339.393 216.339C339.127 218.824 338.862 221.062 338.56 223.078L338.429 223.929L338.334 224.52L338.333 224.528C337.999 226.619 337.623 228.971 337.232 231.072C337.089 231.857 336.939 232.627 336.78 233.392L336.536 234.536L336.479 234.795C336.255 235.819 336.07 236.666 335.839 237.589V237.768L335.67 238.453C338.062 238.329 340.29 237.109 341.679 235.107C343.397 232.746 343.679 229.631 342.411 227C341.88 226.171 342.119 225.069 342.947 224.536C343.775 224.005 344.878 224.244 345.411 225.072C347.292 228.649 347.173 232.947 345.098 236.415C343.023 239.883 339.291 242.02 335.25 242.054L335.322 242.089C335.12 242.089 334.919 242.081 334.718 242.067L334.461 242.971L334.197 243.857C333.893 244.857 333.643 245.643 333.339 246.5C332.897 247.941 332.408 249.455 331.871 251.043L331.732 251.036C339.141 251.719 346.329 248.374 350.581 242.306L350.911 241.822C354.771 236.266 356.071 229.326 354.482 222.75C353.59 219.044 351.152 215.897 347.786 214.107C345.57 213.04 343.112 212.598 340.676 212.816L340.114 212.879ZM151.036 214.054C152.87 213.175 154.877 212.717 156.911 212.714C157.733 212.727 158.552 212.817 159.357 212.982V213.393C159.413 213.589 159.416 213.756 159.418 213.913C159.42 214.058 159.422 214.194 159.464 214.339C159.518 214.522 159.54 214.678 159.548 214.805L159.554 215.018C159.583 215.508 159.636 215.997 159.714 216.482C159.756 216.911 159.802 217.337 159.849 217.761L160.143 220.25C160.286 221.464 160.447 222.625 160.625 223.822V224.232L160.786 225.197C160.84 225.607 160.902 226.018 160.967 226.415L161.35 228.679C161.465 229.334 161.589 229.991 161.713 230.653L161.768 230.947L161.857 231.464L162.462 234.334L162.929 236.447L163.357 238.232V238.429L163.375 238.499C160.829 238.501 158.422 237.251 156.964 235.125C155.259 232.765 154.985 229.659 156.25 227.036C156.781 226.207 156.542 225.105 155.715 224.572C154.886 224.04 153.784 224.28 153.25 225.107C151.369 228.684 151.488 232.983 153.563 236.451C155.638 239.919 159.37 242.055 163.411 242.089C163.716 242.095 164.021 242.085 164.325 242.061L164.433 242.052L164.59 242.036C164.537 242.042 164.485 242.047 164.433 242.052C164.397 242.055 164.361 242.058 164.325 242.061L164.321 242.061L164.84 243.839C165.572 246.268 166.322 248.643 167.107 250.982C159.504 251.688 152.13 248.145 147.929 241.768L147.55 241.208C143.974 235.755 142.811 229.052 144.357 222.697C145.244 218.992 147.675 215.846 151.036 214.054Z" fill="#372168"/>
<path fill-rule="evenodd" clip-rule="evenodd" d="M302.189 363.002C302.21 362.966 302.23 362.93 302.25 362.893L302.186 363.002L302.189 363.002ZM164.433 242.052L164.59 242.036C164.537 242.042 164.485 242.047 164.433 242.052Z" fill="#372168"/>
<g style="mix-blend-mode:multiply" opacity="0.15">
<path fill-rule="evenodd" clip-rule="evenodd" d="M218.75 249.583C218.75 260.484 210.755 269.32 200.893 269.32C191.031 269.32 183.036 260.484 183.036 249.583C183.036 238.683 191.031 229.846 200.893 229.846C210.755 229.846 218.75 238.683 218.75 249.583ZM315.179 249.583C315.179 260.484 307.184 269.32 297.322 269.32C287.459 269.32 279.464 260.484 279.464 249.583C279.464 238.683 287.459 229.846 297.322 229.846C307.184 229.846 315.179 238.683 315.179 249.583Z" fill="#FF1300"/>
</g>
<path d="M254.964 274.875H245.411C244.424 274.875 243.625 274.075 243.625 273.089C243.625 272.103 244.424 271.303 245.411 271.303H254.964C255.951 271.303 256.75 272.103 256.75 273.089C256.75 274.075 255.951 274.875 254.964 274.875Z" fill="#372168"/>
<path d="M246.036 268.375C240.948 268.382 235.974 266.871 231.75 264.035C230.822 263.398 230.304 262.313 230.393 261.19C230.481 260.067 231.162 259.077 232.179 258.592C233.195 258.107 234.393 258.201 235.321 258.839C238.487 260.976 242.217 262.12 246.036 262.125C252.25 262.125 259.214 260.821 263.75 251.214C264.181 250.136 265.175 249.385 266.33 249.266C267.485 249.147 268.612 249.678 269.254 250.645C269.897 251.612 269.951 252.856 269.393 253.875C264.786 263.625 257.143 268.375 246.036 268.375Z" fill="#372168"/>
<path d="M249.059 246.94C245.159 246.993 241.492 245.089 239.291 241.869C238.354 240.419 238.77 238.484 240.219 237.547C241.669 236.61 243.604 237.026 244.541 238.476C245.628 239.89 247.316 240.711 249.099 240.693C250.882 240.676 252.553 239.822 253.612 238.387C254.51 236.907 256.437 236.436 257.916 237.333C259.395 238.231 259.867 240.157 258.969 241.637C256.809 245.003 253.058 247.01 249.059 246.94Z" fill="#372168"/>
<path d="M213.047 223.75C209.143 223.801 205.474 221.89 203.279 218.661C202.676 217.72 202.621 216.529 203.135 215.536C203.648 214.543 204.652 213.9 205.769 213.848C206.885 213.797 207.944 214.345 208.547 215.286C209.63 216.699 211.316 217.521 213.096 217.503C214.877 217.486 216.546 216.631 217.601 215.196C218.178 214.239 219.222 213.663 220.34 213.685C221.457 213.706 222.478 214.322 223.018 215.301C223.558 216.279 223.535 217.472 222.958 218.429C220.809 221.81 217.053 223.827 213.047 223.75Z" fill="#372168"/>
<path d="M286.188 223.589C282.293 223.642 278.631 221.737 276.438 218.518C275.501 217.068 275.917 215.133 277.367 214.196C278.816 213.259 280.751 213.675 281.688 215.125C282.761 216.549 284.441 217.387 286.224 217.387C288.007 217.387 289.687 216.549 290.76 215.125C291.34 214.168 292.387 213.593 293.506 213.618C294.625 213.642 295.646 214.261 296.185 215.243C296.723 216.224 296.697 217.418 296.117 218.375C293.929 221.71 290.176 223.682 286.188 223.589Z" fill="#372168"/>
<path d="M196.036 207.411C194.699 207.413 193.472 206.669 192.857 205.482C192.42 204.639 192.336 203.657 192.624 202.752C192.912 201.848 193.549 201.095 194.393 200.661C195.107 200.303 212.25 191.732 229.571 200.661C230.707 201.244 231.445 202.39 231.507 203.665C231.569 204.94 230.947 206.152 229.873 206.843C228.8 207.535 227.439 207.601 226.304 207.018C212.143 199.732 197.732 207.018 197.732 207.018C197.208 207.287 196.625 207.422 196.036 207.411Z" fill="#372168"/>
<path d="M302.25 200.536C301.679 200.538 301.116 200.403 300.607 200.143C286.446 192.857 272.036 200.143 272.036 200.143C270.28 201.045 268.126 200.353 267.223 198.598C266.321 196.843 267.012 194.688 268.768 193.786C269.482 193.428 286.625 184.857 303.946 193.786C305.414 194.537 306.176 196.197 305.79 197.8C305.404 199.403 303.971 200.534 302.321 200.536H302.25Z" fill="#372168"/>
<path d="M219.841 81.324C212.354 82.6115 205.018 84.7744 197.988 87.7857C202.166 64.9285 223.666 47.5356 249.523 47.5356C275.352 47.5356 296.726 64.7829 301.009 87.531C301.055 87.5504 301.102 87.5698 301.148 87.5892C302.934 88.3392 304.809 89.1785 306.684 90.0892L309.434 91.4821C324.291 99.3214 339.988 112.196 354.077 133.125C361.906 144.938 368.455 157.55 373.613 170.75C373.683 170.926 373.753 171.103 373.824 171.279C374.633 173.308 375.46 175.381 376.166 177.5C405.434 259.464 368.684 295.5 303.327 306.661C301.578 306.948 299.844 306.077 299.03 304.503C298.216 302.929 298.509 301.01 299.755 299.75L299.934 299.571C310.432 288.279 318.707 275.108 324.327 260.75L325.434 257.982C325.7 257.289 325.966 256.585 326.234 255.876C326.559 255.015 326.887 254.148 327.22 253.286C335.934 255.304 347.398 253.482 354.184 243.125C363.113 229.536 359.041 214.679 349.684 210.232C346.64 208.762 343.227 208.233 339.88 208.714C337.995 208.995 336.165 207.936 335.47 206.161C321.452 169.036 286.684 146.893 265.988 136.518C262.648 134.857 259.684 133.5 257.238 132.446C254.791 131.393 252.666 130.536 251.38 130.054C250.35 129.659 249.204 129.698 248.202 130.161L247.979 130.264C246.02 131.175 244.096 132.07 242.238 132.964C237.761 135.131 233.523 137.274 229.523 139.393C173.684 169.125 164.452 195.357 163.059 205.214C162.737 207.316 160.815 208.789 158.702 208.554H157.202C154.643 208.556 152.118 209.129 149.809 210.232C140.452 214.679 136.452 229.536 145.309 243.125C152.095 253.482 163.559 255.304 172.273 253.286C172.845 254.857 173.434 256.446 174.059 257.982L175.166 260.75C180.792 275.115 189.073 288.291 199.577 299.589H199.684C200.93 300.849 201.223 302.768 200.41 304.342C199.596 305.917 197.861 306.788 196.113 306.5C130.88 295.321 94.1126 259.161 123.47 177.446C124.291 175.143 125.148 172.893 126.023 170.696C130.973 158.048 137.189 145.933 144.577 134.536C158.523 113.321 174.166 100.161 189.005 92.0714C190.184 91.4285 191.345 90.8214 192.577 90.2856C194.434 89.369 196.273 88.5297 198.095 87.7678C200.72 86.6606 203.309 85.6785 205.845 84.8571C210.425 83.3285 215.104 82.149 219.841 81.324Z" fill="#A99BFF"/>
<path fill-rule="evenodd" clip-rule="evenodd" d="M249.452 43.9642C276.074 43.9642 298.627 61.1394 304.06 85.0652C305.306 85.6163 306.607 86.2304 308.077 86.9285L310.916 88.3571C328.541 97.6607 344.006 112.071 356.863 131.214C364.448 142.665 370.857 154.851 375.994 167.586L376.756 169.5C377.425 171.174 378.095 172.878 378.727 174.613L379.345 176.357C392.988 214.321 393.256 244.964 380.131 267.429C371.953 281.435 358.537 292.367 340.064 300.141C341.087 300.349 342.076 300.762 342.97 301.375C344.48 302.602 345.064 304.641 344.434 306.482C343.381 310.054 337.988 311.839 332.666 310.393C332.369 310.314 332.077 310.219 331.791 310.107C331.386 311.862 331.253 313.669 331.398 315.464C331.88 322.807 336.915 323.294 345.18 322.842L347.678 322.701C352.567 322.448 357.032 322.483 359.378 325.579L359.613 325.911C360.717 327.392 361.024 329.321 360.434 331.071C359.113 334.643 354.006 336.429 353.434 336.536C353.269 336.718 353.069 336.863 352.845 336.964C351.859 337.107 350.943 336.424 350.8 335.437C350.657 334.451 351.341 333.536 352.327 333.393C353.845 332.929 356.47 331.607 356.988 330.143C357.201 329.458 357.038 328.712 356.559 328.179C355.347 326.329 351.758 326.359 347.749 326.564L344.153 326.761C336.977 327.096 328.452 326.61 327.756 315.929C327.549 313.471 327.791 310.996 328.47 308.625C327.321 307.858 326.115 306.831 324.983 305.461C318.813 307.268 312.211 308.802 305.182 310.06L303.898 310.286C303.464 310.319 303.029 310.319 302.595 310.286C299.79 310.29 297.219 308.725 295.934 306.232C294.352 303.303 294.859 299.686 297.184 297.304L297.345 297.161C307.52 286.182 315.551 273.397 321.023 259.464C321.099 259.278 321.173 259.094 321.248 258.911L321.251 258.903C321.421 258.484 321.589 258.072 321.755 257.649L322.979 254.473C323.273 253.714 323.577 252.946 323.898 252.179C324.113 251.528 324.517 250.956 325.059 250.536C325.907 249.857 327.017 249.6 328.077 249.839C335.29 251.59 344.991 250.217 350.939 241.715L351.291 241.196C355.032 235.837 356.373 229.173 355.013 222.801L354.863 222.143C353.447 215.522 347.078 211.182 340.398 212.286C336.863 212.787 333.447 210.791 332.148 207.464C318.434 171.107 283.827 149.482 264.416 139.821L264.22 139.714C261.327 138.268 258.506 136.964 255.827 135.804L254.801 135.367C253.745 134.925 252.842 134.572 252.074 134.272C251.294 133.967 250.653 133.716 250.131 133.482C249.999 133.428 249.851 133.428 249.72 133.482L243.791 136.268C239.452 138.357 235.202 140.5 231.202 142.625C176.863 171.571 167.916 196.446 166.595 205.804C166.005 209.772 162.409 212.582 158.416 212.196H157.202C155.174 212.2 153.173 212.657 151.345 213.536C147.976 215.322 145.537 218.47 144.648 222.179C143.138 228.547 144.333 235.246 147.929 240.691L148.309 241.25C154.184 250.179 164.131 251.571 171.523 249.875C172.586 249.625 173.704 249.875 174.559 250.554C175.124 251.019 175.54 251.64 175.756 252.339C176.233 253.677 176.739 255.014 177.236 256.326L177.416 256.804L178.136 258.604L178.506 259.518C183.97 273.367 191.957 286.082 202.059 297.018L202.256 297.214C204.598 299.585 205.12 303.207 203.541 306.143C202.028 309.078 198.77 310.675 195.523 310.071C188.228 308.821 181.385 307.273 175 305.431C173.745 307.108 172.372 308.321 171.077 309.196C171.749 311.569 171.985 314.043 171.773 316.5C171.017 328.034 161.051 327.623 153.603 327.232L151.374 327.106C147.788 326.925 144.425 326.97 143.127 328.537L142.97 328.75C142.501 329.288 142.339 330.029 142.541 330.714C143.077 332.196 145.684 333.5 147.22 333.964C148.206 334.112 148.886 335.032 148.738 336.018C148.59 337.004 147.67 337.684 146.684 337.536L146.631 337.107C146.459 337.132 146.284 337.132 146.113 337.107L145.614 336.941C144.16 336.427 140.248 334.796 139.131 331.643C138.571 330.01 138.801 328.216 139.74 326.783L139.952 326.482C142.44 322.732 147.724 323.033 153.338 323.353L154.855 323.438C162.829 323.844 167.728 323.237 168.166 316.036C168.297 314.239 168.159 312.434 167.756 310.679C167.469 310.79 167.177 310.885 166.881 310.964C161.523 312.464 156.166 310.679 155.113 307.054C154.498 305.212 155.08 303.183 156.577 301.946C157.855 301.073 159.326 300.605 160.813 300.548C141.642 292.753 127.763 281.607 119.38 267.214C106.273 244.732 106.523 214.125 120.13 176.143C120.759 174.371 121.433 172.577 122.172 170.705L122.738 169.286C127.759 156.489 134.046 144.226 141.506 132.679C154.238 113.321 169.613 98.625 187.22 89.0357C188.397 88.3951 189.557 87.7881 190.685 87.1984L190.791 87.1428L191.041 87.0357C192.257 86.4155 193.523 85.8119 194.782 85.2587C200.143 61.2358 222.821 43.9642 249.452 43.9642ZM158.934 304.554C158.571 304.841 158.426 305.317 158.552 305.75L158.613 305.911C158.952 307.036 162.077 308.482 165.988 307.393L166.434 307.25C165.744 306.16 164.776 305.272 163.631 304.679C162.893 304.295 162.086 304.069 161.259 304.014L160.916 304C160.213 303.961 159.516 304.156 158.934 304.554ZM333.113 307.107C333.802 306.01 334.778 305.121 335.934 304.536C337.361 303.647 339.158 303.599 340.631 304.411C341.033 304.739 341.158 305.3 340.934 305.768L340.891 305.885C340.396 306.991 337.352 308.319 333.559 307.25L333.113 307.107ZM167.098 302.919L167.438 303.207C168.256 303.937 168.965 304.787 169.541 305.732C170.104 305.308 170.643 304.821 171.153 304.268C170.236 303.978 169.33 303.681 168.435 303.378L167.098 302.919ZM331.025 303.557L331.285 303.465C330.813 303.987 330.391 304.554 330.023 305.161C329.653 304.883 329.293 304.578 328.946 304.243C329.645 304.018 330.338 303.789 331.025 303.557ZM321.088 276.436L320.616 277.297C315.661 286.208 309.644 294.511 302.684 302.018L302.291 302.339C302.182 302.483 302.16 302.67 302.226 302.832L302.291 302.946C302.354 303.114 302.516 303.218 302.688 303.213L302.791 303.196C309.436 302.06 315.674 300.675 321.504 299.044C319.793 293.975 319.188 286.745 321.088 276.436ZM178.331 276.409L178.207 275.779C183.326 285.295 189.645 294.139 197.023 302.089L197.184 302.25C197.318 302.424 197.318 302.666 197.184 302.839C197.109 303.041 196.89 303.15 196.684 303.089L194.729 302.744C188.897 301.687 183.387 300.433 178.199 298.985C179.782 293.851 180.264 286.612 178.331 276.409ZM257.773 83.7499C255.635 83.8918 253.494 83.9769 251.353 84.0054L251.628 126.302C252.003 126.382 252.374 126.489 252.738 126.625L254.387 127.258C255.555 127.719 257.034 128.325 258.756 129.071L260.641 129.904C262.263 130.632 263.996 131.441 265.752 132.289C272.986 134.674 280.098 137.426 287.059 140.536L288.959 141.392C307.205 149.727 330.985 163.761 344.648 184.429C345.01 184.978 345.041 185.683 344.727 186.262C344.413 186.84 343.807 187.2 343.148 187.196C342.551 187.193 341.995 186.892 341.666 186.393C328.983 167.182 307.087 153.677 287.797 144.839C306.737 157.41 328.448 176.982 338.934 204.768C339.031 204.95 339.221 205.058 339.421 205.053L339.541 205.036C349.742 203.489 359.431 210.004 361.845 220.036C363.95 228.387 362.45 237.227 357.734 244.407L357.309 245.036C351.305 254.189 340.499 258.981 329.684 257.286L328.934 259.232L328.208 261.065C327.877 263.069 327.459 265.058 326.954 267.027L326.559 268.5C322.822 282.185 322.942 291.763 325.115 297.986C348.592 290.79 365.003 279.369 374.059 263.911C386.059 243.339 385.613 214.714 372.72 178.839C371.898 176.589 371.077 174.375 370.22 172.214C365.136 159.256 358.708 146.867 351.041 135.25C338.827 117.143 324.256 103.518 307.684 94.7857C307.102 94.4767 306.504 94.1756 305.911 93.8772L305.909 93.8761C305.612 93.7266 305.315 93.5773 305.023 93.4285L303.412 92.6543C302.101 92.0306 300.865 91.4693 299.666 91.0357C297.148 89.9642 294.631 89.0357 292.148 88.2321C281.071 84.6014 269.411 83.081 257.773 83.7499ZM206.916 88.3928L208.21 87.9686C219.016 84.5144 230.37 83.0828 241.702 83.75C243.726 83.8842 245.754 83.9677 247.781 84.0004L248.055 126.377C247.568 126.501 247.091 126.674 246.631 126.893C245.612 127.393 244.604 127.86 243.609 128.321C242.65 128.766 241.702 129.205 240.773 129.661C236.327 131.786 232.006 133.982 227.916 136.143C208.863 146.304 164.023 173.286 159.595 204.643C159.577 204.893 159.309 204.893 159.041 204.893H157.256C154.166 204.892 151.116 205.582 148.327 206.911C143.09 209.579 139.257 214.375 137.809 220.071C135.659 228.672 137.318 237.782 142.363 245.071L142.707 245.585C148.772 254.407 159.376 258.989 169.988 257.321L170.738 259.304L171.134 260.302C171.571 263.258 172.19 266.187 172.988 269.071L173.235 269.99C176.616 282.757 176.578 291.859 174.649 297.948C151.066 290.746 134.581 279.284 125.505 263.714C113.505 243.143 113.934 214.464 126.809 178.75C127.523 176.607 128.38 174.446 129.309 172.125L130.132 170.06C134.857 158.386 140.68 147.184 147.523 136.607C159.613 118.232 174.131 104.339 190.684 95.3035C191.756 94.7142 192.827 94.1607 193.898 93.625H194.077C195.863 92.75 197.648 91.9285 199.434 91.1964C202.059 90.0892 204.559 89.1428 206.916 88.3928ZM217.933 95.8399C218.41 96.3014 218.592 96.9898 218.405 97.627C218.218 98.2642 217.692 98.7449 217.041 98.875C212.58 100.074 208.207 101.578 203.952 103.375C200.905 104.65 197.925 106.081 195.023 107.661C194.771 107.797 194.489 107.871 194.202 107.875C193.548 107.877 192.945 107.52 192.631 106.946C192.402 106.53 192.349 106.039 192.483 105.584C192.617 105.128 192.927 104.744 193.345 104.518C196.327 102.893 199.434 101.411 202.559 100.089C206.968 98.2199 211.503 96.6625 216.131 95.4285C216.761 95.2199 217.455 95.3783 217.933 95.8399ZM213.144 66.0307L213.487 65.6827C217.157 66.1211 226.815 68.0386 238.562 76.3919C227.033 76.123 215.534 77.8482 204.577 81.5L203.895 81.7247L203.203 81.9606C205.321 75.9621 208.742 70.5679 213.144 66.0307ZM249.523 51.1071H249.506C248.931 51.1071 248.359 51.1162 247.789 51.1342C250.048 52.0063 252.271 52.9741 254.452 54.0357C266.905 60.0509 276.08 68.3045 281.07 77.9947C285.539 78.8064 289.956 79.9231 294.291 81.3392L295.678 81.7989L295.738 81.9642C289.291 63.6785 270.845 51.1071 249.523 51.1071ZM216.87 62.5874C223.092 57.4317 230.756 53.7652 239.215 52.101L240.108 52.3637C248.938 55.0148 267.352 62.1381 276.55 77.2763C270.171 76.4131 263.71 76.1624 257.256 76.5357C253.157 76.8108 249.048 76.8628 244.945 76.6857C233.538 67.4531 223.541 64.017 217.606 62.7391L216.87 62.5874Z" fill="#372168"/>
<path fill-rule="evenodd" clip-rule="evenodd" d="M383.124 212.929V241.393C383.124 253.458 373.385 263.261 361.32 263.339H339.249C338.144 263.339 337.249 262.444 337.249 261.339V191H361.195C373.306 191 383.124 200.818 383.124 212.929Z" fill="#FF8EC1"/>
<path fill-rule="evenodd" clip-rule="evenodd" d="M157.195 191V261.339C157.195 262.444 156.3 263.339 155.195 263.339H135.177C134.439 263.339 133.707 263.304 132.981 263.232C121.773 262.095 113.246 252.658 113.249 241.393V212.929C113.249 207.113 115.559 201.535 119.671 197.423C123.784 193.31 129.361 191 135.177 191H157.195Z" fill="#FF8EC1"/>
<path fill-rule="evenodd" clip-rule="evenodd" d="M333.713 261.339C333.713 264.416 336.207 266.911 339.284 266.911H361.391C375.414 266.803 386.729 255.415 386.749 241.393V212.928C386.729 198.846 375.313 187.438 361.231 187.428H337.284C335.312 187.428 333.713 189.027 333.713 191V261.339ZM361.374 259.768H340.856V194.571H361.231C371.368 194.581 379.586 202.791 379.606 212.928V241.393C379.587 251.477 371.458 259.67 361.374 259.768Z" fill="#372168"/>
<path fill-rule="evenodd" clip-rule="evenodd" d="M135.195 266.911H155.195C158.275 266.911 160.774 264.419 160.784 261.339V191C160.784 189.027 159.185 187.428 157.213 187.428H135.195C121.113 187.438 109.697 198.846 109.677 212.928V241.393C109.634 254.514 119.582 265.514 132.641 266.786C133.49 266.872 134.342 266.914 135.195 266.911ZM116.82 212.928C116.84 202.791 125.058 194.581 135.195 194.571H153.57V259.768H135.124C134.527 259.771 133.931 259.742 133.338 259.678C123.939 258.757 116.784 250.836 116.82 241.393V212.928Z" fill="#372168"/>
<path fill-rule="evenodd" clip-rule="evenodd" d="M356.606 191H337.284C336.269 180.886 333.865 170.959 330.141 161.5C329.784 160.554 329.409 159.625 329.016 158.697C328.088 156.465 327.07 154.268 325.999 152.125L325.749 151.643C318.701 137.612 308.267 125.558 295.391 116.572C293.463 115.232 291.499 113.982 289.463 112.822C287.802 111.857 286.106 110.947 284.374 110.125C277.927 106.937 271.089 104.613 264.034 103.214H263.588L262.999 103.107C252.539 101.179 241.815 101.179 231.356 103.107L230.766 103.214H230.32C223.266 104.613 216.427 106.937 209.981 110.125C208.195 110.947 206.552 111.911 204.891 112.822C202.856 113.982 200.891 115.232 198.963 116.572C186.087 125.558 175.653 137.612 168.606 151.643L168.356 152.125C167.284 154.268 166.266 156.465 165.338 158.697C164.945 159.625 164.57 160.482 164.213 161.5C160.489 170.959 158.085 180.886 157.07 191H137.749C142.838 143.572 165.999 111.536 197.963 96.0002C199.558 95.1193 201.219 94.2978 202.945 93.5359C204.731 92.7145 206.677 91.9466 208.641 91.2502C209.731 90.8574 210.838 90.4824 211.963 90.1431L212.838 89.8752C223.679 86.6471 234.937 85.0405 246.249 85.1074H248.034C259.345 85.0405 270.604 86.6471 281.445 89.8752L282.32 90.1431C283.445 90.4824 284.552 90.8574 285.641 91.2502C287.606 91.9466 289.499 92.7145 291.338 93.5359C293.177 94.3574 294.731 95.1252 296.32 96.0002C328.356 111.536 351.516 143.572 356.606 191Z" fill="#CFDDFF"/>
<path fill-rule="evenodd" clip-rule="evenodd" d="M337.284 194.571H356.623L356.409 194.446C357.425 194.452 358.395 194.025 359.077 193.271C359.759 192.518 360.087 191.51 359.981 190.5C354.998 144.5 332.998 109.821 297.856 92.7143C296.266 91.8036 294.731 91.0714 292.695 90.1607C290.659 89.25 288.713 88.4643 286.749 87.7679C285.606 87.3572 284.445 86.9643 283.302 86.625L282.391 86.3393C271.213 83.0167 259.607 81.3561 247.945 81.4107H246.159C234.511 81.3566 222.917 83.0112 211.749 86.3214L210.856 86.6072C209.659 86.9643 208.499 87.3572 207.374 87.7679C205.752 88.2646 203.987 89.0363 202.42 89.7211C202.072 89.8733 201.734 90.0211 201.409 90.1607C199.624 90.9286 197.874 91.8036 196.231 92.7143C161.106 109.821 139.052 144.554 134.124 190.5C134.017 191.51 134.345 192.518 135.027 193.271C135.709 194.025 136.679 194.452 137.695 194.446H157.034C158.875 194.456 160.422 193.064 160.606 191.232C161.595 181.43 163.945 171.814 167.588 162.661C167.927 161.75 168.284 160.875 168.659 159.964C169.516 157.929 170.499 155.804 171.499 153.75C171.571 153.629 171.637 153.504 171.695 153.375L168.516 151.786L171.82 153.161C178.587 139.67 188.602 128.072 200.963 119.411C202.856 118.107 204.945 116.821 206.641 115.839C208.338 114.857 209.909 114.018 211.516 113.268C217.735 110.18 224.343 107.945 231.159 106.625H231.481L232.016 106.536C242.052 104.694 252.338 104.694 262.374 106.536L262.891 106.625L263.356 106.732C270.122 108.06 276.681 110.288 282.856 113.357C284.391 114.143 285.784 114.857 287.695 115.929C289.606 117 291.445 118.161 293.374 119.5C305.722 128.17 315.729 139.766 322.498 153.25L322.623 153.482L322.748 153.714C323.873 155.893 324.82 158.018 325.659 160.071C325.771 160.349 325.882 160.619 325.991 160.886C326.248 161.512 326.498 162.122 326.748 162.786C330.384 171.94 332.728 181.556 333.713 191.357C333.897 193.189 335.443 194.581 337.284 194.571ZM352.659 187.429H340.552H340.481C339.394 178.122 337.175 168.983 333.874 160.214C333.499 159.214 333.106 158.25 332.695 157.304C331.784 155.107 330.749 152.821 329.57 150.5L329.463 150.268L329.32 150C322.021 135.452 311.221 122.947 297.891 113.607C295.802 112.161 293.641 110.714 291.713 109.696C291.125 109.386 290.551 109.077 289.992 108.776C288.716 108.089 287.51 107.439 286.356 106.893C282.322 104.916 278.143 103.25 273.856 101.911C271.02 101.03 268.142 100.297 265.231 99.7143H264.784H264.552L263.999 99.6071C253.107 97.6073 241.943 97.6073 231.052 99.6071L230.445 99.7143H230.249H229.963C226.991 100.305 224.053 101.05 221.159 101.946C216.91 103.274 212.773 104.934 208.784 106.911C206.999 107.732 205.516 108.554 203.427 109.732C201.338 110.911 199.32 112.196 197.249 113.643C183.946 122.945 173.164 135.408 165.874 149.911C165.801 150.038 165.735 150.169 165.677 150.304L168.874 151.893L165.552 150.536C164.391 152.857 163.338 155.143 162.427 157.304C162.016 158.286 161.624 159.25 161.266 160.214C157.811 168.963 155.443 178.103 154.213 187.429H142.106C147.57 145.946 167.981 114.714 199.856 99.2143H200.016C201.484 98.4009 202.917 97.7276 204.678 96.8997L204.731 96.875C206.516 96.0357 208.302 95.3214 210.088 94.6786C211.124 94.3214 212.177 93.9643 213.266 93.625L214.124 93.375C224.623 90.2519 235.526 88.6935 246.481 88.75H248.266C259.232 88.696 270.147 90.2543 280.659 93.375L281.516 93.6428C282.57 93.9643 283.624 94.3214 284.677 94.6964C286.463 95.3393 288.391 96.1428 290.034 96.875C291.677 97.6071 293.249 98.375 294.749 99.2143H294.909C326.784 114.714 347.195 145.946 352.659 187.429Z" fill="#372168"/>
<path fill-rule="evenodd" clip-rule="evenodd" d="M356.963 224.339V261.339C356.963 262.444 356.068 263.339 354.963 263.339H337.552V191H356.874V205.893" fill="#FFB07D"/>
<path fill-rule="evenodd" clip-rule="evenodd" d="M137.784 206.107V191H157.106H157.195V261.304C157.195 262.408 156.299 263.304 155.195 263.304H137.784V223.75" fill="#FFB07D"/>
<path d="M155.195 266.911H137.784C135.812 266.911 134.213 265.312 134.213 263.339V223.75C134.213 221.778 135.812 220.179 137.784 220.179C139.757 220.179 141.356 221.778 141.356 223.75V259.786H153.641V194.589H141.356V206.125C141.356 208.098 139.757 209.697 137.784 209.697C135.812 209.697 134.213 208.098 134.213 206.125V191.018C134.213 189.046 135.812 187.447 137.784 187.447H157.124C157.577 187.447 158.027 187.539 158.445 187.714C159.824 188.258 160.744 189.572 160.784 191.054V261.357C160.765 264.43 158.268 266.911 155.195 266.911Z" fill="#372168"/>
<path d="M354.981 266.911H337.57C335.598 266.911 333.999 265.312 333.999 263.339V191C333.999 189.027 335.598 187.428 337.57 187.428H356.874C358.86 187.437 360.485 189.014 360.552 191V205.893C360.552 207.865 358.953 209.464 356.981 209.464C355.008 209.464 353.409 207.865 353.409 205.893V194.661H341.141V259.857H353.409V224.428C353.409 222.456 355.008 220.857 356.981 220.857C358.953 220.857 360.552 222.456 360.552 224.428V261.428C360.503 264.471 358.023 266.911 354.981 266.911Z" fill="#372168"/>
</g>
<path fill-rule="evenodd" clip-rule="evenodd" d="M0 250C0 111.929 111.929 0 250 0C388.071 0 500 111.929 500 250C500 388.071 388.071 500 250 500C111.929 500 0 388.071 0 250ZM492.857 250C492.857 115.874 384.126 7.14286 250 7.14286C115.874 7.14286 7.14286 115.874 7.14286 250C7.14286 384.126 115.874 492.857 250 492.857C384.126 492.857 492.857 384.126 492.857 250Z" fill="#372168"/>
</svg>
