<svg width="500" height="500" viewBox="0 0 500 500" fill="none" xmlns="http://www.w3.org/2000/svg">
<path fill-rule="evenodd" clip-rule="evenodd" d="M250 496.429C386.099 496.429 496.429 386.099 496.429 250C496.429 113.901 386.099 3.57141 250 3.57141C113.901 3.57141 3.57143 113.901 3.57143 250C3.57143 386.099 113.901 496.429 250 496.429Z" fill="#E7EEFF"/>
<mask id="mask0_0_286" style="mask-type:alpha" maskUnits="userSpaceOnUse" x="3" y="3" width="494" height="494">
<path fill-rule="evenodd" clip-rule="evenodd" d="M250 496.429C386.099 496.429 496.429 386.099 496.429 250C496.429 113.901 386.099 3.57141 250 3.57141C113.901 3.57141 3.57143 113.901 3.57143 250C3.57143 386.099 113.901 496.429 250 496.429Z" fill="white"/>
</mask>
<g mask="url(#mask0_0_286)">
<path fill-rule="evenodd" clip-rule="evenodd" d="M336.359 210.077L336.357 210.036C337.536 196.964 339.357 159.232 324.071 134.357C305.536 104.339 275.161 95.5535 249.464 95.9821C223.732 95.5535 193.357 104.339 174.821 134.357C159.554 159.125 161.375 196.911 162.571 209.929V210.03C158.281 208.601 153.604 208.884 149.518 210.821C140.161 215.268 136.089 230.125 145.018 243.714C151.783 254.04 163.198 255.882 171.903 253.893C172.226 254.732 172.545 255.575 172.861 256.412C173.129 257.12 173.395 257.825 173.661 258.518L174.768 261.286C180.393 275.65 188.675 288.826 199.179 300.125C203.705 304.911 208.768 309.159 214.268 312.786C224.14 319.474 235.722 323.192 247.643 323.5H251.214C263.136 323.197 274.719 319.478 284.589 312.786C288.752 310.04 292.665 306.938 296.285 303.517C292.662 306.963 288.743 310.089 284.571 312.857C274.701 319.55 263.118 323.269 251.196 323.571H247.625C235.705 323.264 224.122 319.545 214.25 312.857C208.75 309.231 203.687 304.982 199.161 300.196V359.357C200.071 365.125 211.625 370.054 227.982 372.357C234.864 373.312 241.802 373.796 248.75 373.804H250C256.947 373.796 263.886 373.312 270.768 372.357C287.214 369.982 298.804 365.071 299.607 359.268V300.201L299.696 300.107C310.194 288.814 318.47 275.644 324.089 261.286L325.196 258.518C325.814 257.001 326.396 255.431 326.961 253.878C335.674 255.891 347.129 254.065 353.911 243.714C362.768 230.125 358.768 215.268 349.375 210.875C345.301 208.942 340.638 208.656 336.359 210.077ZM168.304 242.786C168.661 244.021 169.028 245.245 169.406 246.457C169.011 245.278 168.62 244.09 168.232 242.893C167.946 241.946 167.607 240.768 167.393 239.964L167.392 239.962L167.392 239.96C167.177 239.157 166.893 238.088 166.75 237.482C166.693 237.24 166.647 237.035 166.601 236.825L166.6 236.823C166.53 236.507 166.457 236.179 166.339 235.696C166.241 235.295 166.156 234.879 166.071 234.464C165.987 234.049 165.902 233.634 165.804 233.232C165.607 232.429 165.446 231.625 165.286 230.786L165.179 230.232C164.982 229.161 164.786 228.071 164.607 226.964C164.464 226.19 164.339 225.405 164.232 224.607C164.214 224.515 164.194 224.422 164.174 224.328L164.173 224.326C164.096 223.968 164.018 223.603 164.018 223.25C163.857 222.125 163.696 220.982 163.554 219.821C163.387 218.548 163.244 217.315 163.125 216.125C163.018 215.625 162.964 215.125 162.964 214.625C162.964 214.625 163.089 214.286 162.964 214.018C162.896 213.872 162.892 213.638 162.887 213.419C162.884 213.235 162.88 213.062 162.839 212.964C162.784 212.833 162.783 212.809 162.778 212.682C162.775 212.602 162.771 212.481 162.75 212.268L162.74 212.171L162.732 212.101C162.738 212.123 162.744 212.143 162.75 212.161C162.791 212.274 162.787 212.34 162.783 212.418C162.777 212.512 162.771 212.623 162.839 212.857C162.907 213.091 162.912 213.266 162.916 213.441C162.92 213.587 162.924 213.732 162.964 213.911C163.054 214.304 163.054 214.518 163.054 214.518C163.068 214.718 163.094 214.918 163.119 215.118C163.158 215.418 163.196 215.718 163.196 216.018C163.312 217.177 163.459 218.368 163.594 219.46L163.625 219.714C163.768 220.875 163.929 222.018 164.089 223.143C164.114 223.298 164.137 223.456 164.16 223.614C164.202 223.91 164.245 224.209 164.304 224.5C164.411 225.298 164.536 226.083 164.679 226.857C164.857 227.964 165.054 229.054 165.25 230.125L165.357 230.679C165.437 231.098 165.527 231.5 165.616 231.902C165.705 232.304 165.795 232.705 165.875 233.125C165.967 233.603 166.087 234.133 166.197 234.617C166.28 234.981 166.357 235.321 166.411 235.589C166.536 236.214 166.679 236.804 166.821 237.375L166.933 237.814C167.097 238.458 167.245 239.038 167.464 239.857C167.732 240.857 168.018 241.839 168.304 242.786ZM162.634 211.15C162.641 211.261 162.649 211.369 162.657 211.471C162.623 211.182 162.595 210.883 162.59 210.571C162.607 210.764 162.621 210.961 162.634 211.15Z" fill="#FFD6CB"/>
<path d="M28.5706 496.428C28.9182 495.049 29.1003 494.313 29.4544 492.974C29.7006 492.043 29.9441 491.122 30.1785 490.214C31.1785 486.643 32.1963 483.071 33.232 479.804C33.356 479.409 33.48 479.016 33.6034 478.626C33.8711 477.778 34.1361 476.938 34.3927 476.107C34.6785 475.214 34.9642 474.321 35.2499 473.5C36.0356 471.143 36.8213 468.857 37.607 466.661C39.3808 461.732 41.1665 457.196 42.9642 453.054C43.4106 452 43.857 450.964 44.3035 449.964L44.5713 449.375C45.5356 447.161 46.5177 445.089 47.4999 443.125C50.2914 437.275 53.6023 431.687 57.3927 426.429C57.4428 426.353 57.4968 426.282 57.5493 426.213L57.5493 426.213C57.609 426.134 57.6667 426.058 57.7142 425.982C58.6963 424.696 59.6427 423.536 60.5535 422.536L60.6606 422.411C61.3019 421.689 61.9832 420.988 62.6596 420.291C62.8873 420.057 63.1143 419.823 63.3392 419.589C69.0977 413.797 75.4344 408.609 82.2499 404.107L84.3213 402.732C85.3689 402.042 86.4404 401.363 87.5356 400.696C90.1785 399.054 92.8927 397.464 95.6963 395.911C100.321 393.339 105.107 390.911 109.982 388.607C115.875 385.821 121.875 383.25 127.839 380.821L131.893 379.214C133.053 378.75 134.232 378.304 135.464 377.875C140.678 375.893 145.857 374.071 150.911 372.375C160.696 369.089 169.964 366.339 178.143 364.071C186.607 361.732 193.857 359.911 199.196 358.625C199.17 358.874 199.17 359.126 199.196 359.375C200.107 365.143 211.696 370.089 228.018 372.375C234.899 373.33 241.838 373.814 248.786 373.821H250.036C256.983 373.814 263.922 373.33 270.803 372.375C287.25 370.054 298.839 365.089 299.643 359.286C299.66 359.066 299.66 358.845 299.643 358.625C305 359.929 312.321 361.75 320.839 364.107C328.982 366.357 338.196 369.107 347.928 372.375C354.107 374.446 360.428 376.714 366.875 379.214C370.149 380.476 373.417 381.804 376.678 383.196L380.411 384.786L383.411 386.107C390.143 389.143 396.768 392.393 403.053 395.911C406.982 398.089 410.803 400.357 414.446 402.732L415.464 403.411C417.25 404.554 419.036 405.732 420.607 406.982C425.886 410.723 430.838 414.905 435.411 419.482C436.375 420.446 437.303 421.429 438.196 422.429C439.286 423.635 440.312 424.899 441.268 426.214V426.321C442.089 427.429 442.946 428.643 443.786 429.893C446.514 434.095 448.983 438.46 451.178 442.964C452.232 445.107 453.286 447.375 454.375 449.804C455.053 451.339 455.732 452.929 456.411 454.571C456.875 455.677 457.326 456.811 457.787 457.974L457.946 458.375C458.958 460.946 459.976 463.655 461 466.5C461.786 468.696 462.571 470.982 463.357 473.339C464.262 476.113 465.173 478.994 466.089 481.982C466.219 482.421 466.351 482.862 466.484 483.306L466.488 483.32L466.489 483.323C466.738 484.154 466.989 484.993 467.232 485.839L467.341 486.218C467.689 487.426 468.073 488.762 468.428 490.054C469.053 492.268 469.089 494.089 469.642 496.428H28.5706Z" fill="#E65C5C"/>
<g style="mix-blend-mode:soft-light" opacity="0.8">
<path d="M320.929 364.089C316.518 370.839 309.143 376.197 299.679 380.161C291.583 383.427 283.114 385.677 274.464 386.857C257.921 389.19 241.133 389.19 224.589 386.857C215.891 385.664 207.373 383.396 199.232 380.107C189.822 376.143 182.5 370.786 178.107 364.036C186.572 361.696 193.822 359.875 199.161 358.589C199.134 358.839 199.134 359.09 199.161 359.339C200.072 365.107 211.661 370.054 227.982 372.339C234.864 373.295 241.803 373.778 248.75 373.786H250C256.948 373.778 263.886 373.295 270.768 372.339C287.214 370.018 298.804 365.054 299.607 359.25C299.625 359.03 299.625 358.809 299.607 358.589C305.107 359.911 312.411 361.732 320.929 364.089Z" fill="white"/>
</g>
<g style="mix-blend-mode:multiply" opacity="0.15">
<path fill-rule="evenodd" clip-rule="evenodd" d="M296.036 303.786V356.107C251.536 356.804 218.571 333.893 202.839 320.197V303.75C206.379 307.132 210.222 310.181 214.321 312.857C224.197 319.539 235.777 323.257 247.696 323.572H251.268C263.187 323.257 274.768 319.539 284.643 312.857C288.703 310.179 292.516 307.143 296.036 303.786Z" fill="#7C3830"/>
</g>
<path fill-rule="evenodd" clip-rule="evenodd" d="M251.405 92.502L249.607 92.518C229.964 92.1608 193.786 96.9644 172.107 132.572C158.313 154.962 157.857 186.762 158.887 204.188L158.974 205.569C155.23 205.217 151.43 205.875 147.982 207.518C142.75 210.188 138.924 214.984 137.482 220.679C135.315 229.276 136.969 238.391 142.018 245.679L142.367 246.206C147.561 253.862 156.293 258.382 165.572 258.179C166.928 258.145 168.279 258.026 169.616 257.82C169.875 258.516 170.14 259.213 170.411 259.911L171.518 262.697C177.149 276.991 185.317 290.146 195.623 301.528L195.714 301.627L195.715 355.745C189.544 357.258 183.316 358.893 177.018 360.625C167.286 363.322 158.322 366.054 149.607 368.982C143.947 370.947 138.839 372.732 134.054 374.518C133.649 374.661 133.268 374.802 132.89 374.945L129.121 376.404C128.21 376.762 127.298 377.131 126.393 377.5L123.777 378.554C118.55 380.687 113.355 382.972 108.304 385.375C103.161 387.804 98.268 390.286 93.8037 392.786C90.7323 394.5 88.018 396.089 85.5359 397.625L84.686 398.147C83.8439 398.67 83.0269 399.192 82.2502 399.714C81.518 400.179 80.7859 400.661 80.1252 401.125C73.1183 405.706 66.5965 410.989 60.6609 416.893C60.1084 417.526 59.5607 418.08 59.0417 418.606C58.6385 419.014 58.2521 419.406 57.893 419.804L57.768 419.964C56.8395 420.964 55.8395 422.179 54.7323 423.643C54.6629 423.719 54.6029 423.803 54.5537 423.893L54.3752 424.125L53.4065 425.488C49.8928 430.513 46.8002 435.821 44.1609 441.357C43.2935 442.952 42.5902 444.473 41.9337 445.961L41.1609 447.732L40.434 449.368C40.1311 450.062 39.8335 450.768 39.5359 451.482L38.9406 452.892C37.3533 456.697 35.766 460.857 34.1787 465.286C33.393 467.5 32.5894 469.822 31.8037 472.197L31.5048 473.081L30.9109 474.875L29.3308 479.975C28.7464 481.87 28.1571 483.86 27.5661 485.923L26.6787 489.072C26.397 490.181 26.1021 491.308 25.805 492.444L25.8033 492.45C25.4984 493.615 25.1911 494.79 24.893 495.964L24.4109 497.75C24.2591 498.339 24.2616 499.386 24.1076 500H475L473.607 495.268C473.607 495.268 472.5 491.089 471.929 489.089C471.643 488.036 471.339 486.964 471.036 485.929L470.732 484.839L469.572 480.929C469.114 479.523 468.684 478.141 468.261 476.782L468.259 476.777L468.259 476.775C467.774 475.218 467.299 473.692 466.804 472.197C466.018 469.822 465.214 467.5 464.429 465.286C463.375 462.411 462.339 459.607 461.322 457.054L461.161 456.607C460.697 455.429 460.232 454.286 459.768 453.197C459.089 451.518 458.393 449.911 457.697 448.339C456.813 446.371 455.999 444.603 455.218 442.96L454.447 441.357C452.18 436.743 449.646 432.265 446.857 427.947C446.494 427.435 446.143 426.92 445.786 426.397L445.785 426.395L445.78 426.388L445.776 426.382L445.775 426.38C445.276 425.649 444.766 424.902 444.197 424.125L444.054 423.947C442.893 422.375 441.786 421.018 440.839 419.982C439.893 418.947 438.911 417.893 437.929 416.911C433.212 412.19 428.105 407.877 422.661 404.018C420.875 402.732 419.107 401.518 417.447 400.447C417.072 400.197 416.697 399.929 416.375 399.732L415.181 398.96C411.971 396.905 408.544 394.879 404.75 392.768C398.697 389.411 392.179 386.161 384.786 382.839L381.732 381.5L380.786 381.089L378 379.893C374.804 378.536 371.572 377.232 368.089 375.875C362.036 373.518 355.786 371.268 348.982 368.982C340.197 366.018 331.018 363.232 321.714 360.661C316.142 359.113 311.158 357.818 307.021 356.777L303.177 355.82L303.18 301.868C313.65 290.402 321.936 277.114 327.625 262.661L328.75 259.839C328.994 259.208 329.236 258.57 329.475 257.934C330.756 258.092 332.047 258.174 333.339 258.179C342.78 258.374 351.652 253.682 356.804 245.768L357.228 245.139C361.94 237.958 363.446 229.123 361.357 220.768C359.903 215.074 356.072 210.281 350.839 207.607C347.544 206.034 343.923 205.364 340.34 205.62C341.456 188.522 341.341 155.535 327.197 132.589C305.857 98.0331 271.243 92.4936 251.405 92.502ZM174.31 368.941L176.707 368.261C181.449 374.391 188.538 379.467 197.822 383.375C206.269 386.798 215.111 389.149 224.143 390.375C232.577 391.587 241.087 392.184 249.607 392.161C258.096 392.211 266.576 391.644 274.982 390.464C283.919 389.235 292.669 386.908 301.036 383.536C310.438 379.612 317.599 374.466 322.363 368.291C330.744 370.648 339.002 373.193 346.947 375.857C353.643 378.107 359.786 380.322 365.732 382.643C369.143 383.964 372.322 385.25 375.464 386.589L379.161 388.161L382.089 389.464C389.286 392.697 395.643 395.857 401.518 399.125C405.607 401.411 409.286 403.607 412.75 405.857L414.713 407.143C416.029 408.014 417.375 408.943 418.732 409.929C423.828 413.559 428.607 417.616 433.018 422.054L433.027 422.063L433.028 422.064L433.031 422.067C433.92 422.973 434.826 423.898 435.697 424.893C436.703 425.999 437.645 427.162 438.518 428.375L438.679 428.572C439.554 429.732 440.304 430.839 441.036 431.964C443.67 436.043 446.056 440.277 448.179 444.643L448.549 445.396C449.169 446.67 449.807 448.032 450.479 449.51L451.304 451.339C451.982 452.857 452.643 454.411 453.322 456.054L453.768 457.136C454.066 457.865 454.363 458.607 454.661 459.357L454.822 459.786C455.804 462.268 456.822 464.964 457.839 467.804L458.426 469.443C459.009 471.102 459.585 472.813 460.161 474.554L460.709 476.209C461.439 478.434 462.161 480.727 462.875 483.089L463.286 484.464L464.322 488C464.411 488.319 464.502 488.639 464.594 488.962C464.796 489.67 465 490.389 465.197 491.125L465.75 493.124L33.0362 492.857L34.0604 489.595C34.9505 486.424 35.8372 483.426 36.6966 480.661L37.8573 476.982C37.9278 476.766 37.9972 476.553 38.066 476.341L38.0745 476.314L38.077 476.307C38.2834 475.671 38.4851 475.05 38.6966 474.429L39.1662 473.034C39.7902 471.186 40.4073 469.389 41.0359 467.661C42.6966 462.804 44.4823 458.304 46.268 454.232C46.6966 453.214 47.143 452.197 47.5716 451.232L48.3807 449.399C49.0916 447.809 49.8573 446.2 50.7145 444.5C53.4041 438.864 56.6019 433.484 60.268 428.429L60.6252 427.929L60.9122 427.567C61.7564 426.502 62.4952 425.571 63.0895 424.929L63.3573 424.643C64.1073 423.75 65.0002 422.857 65.893 421.964C71.495 416.4 77.6454 411.416 84.2502 407.089L86.2859 405.75C87.3037 405.089 88.3216 404.429 89.4109 403.768L90.3252 403.204C92.4834 401.882 94.8194 400.525 97.4287 399.072C101.75 396.714 106.482 394.304 111.5 391.929C117.268 389.197 123.214 386.607 129.214 384.232L130.403 383.75L134.381 382.179C135.139 381.883 135.905 381.589 136.679 381.304L138.107 380.768C141.462 379.517 144.969 378.262 148.722 376.972L152 375.857C159.158 373.447 166.502 371.172 174.31 368.941ZM184.393 366.157C188.516 365.055 192.642 363.992 196.732 362.982C201.168 370.959 217.454 374.461 226.094 375.788L227.536 376C234.583 376.981 241.689 377.476 248.804 377.482H250.072C257.181 377.477 264.281 376.981 271.322 376C279.216 374.897 296.294 371.631 301.647 363.858C301.843 363.578 302.024 363.293 302.189 363.002L302.186 363.002L302.25 362.893C302.23 362.93 302.21 362.966 302.189 363.002C304.675 363.572 307.543 364.297 310.758 365.145L314.781 366.219C310.113 370.867 304.525 374.491 298.375 376.857L296.904 377.436C289.53 380.27 281.85 382.239 274.018 383.304C257.824 385.589 241.39 385.589 225.197 383.304C216.793 382.154 208.564 379.971 200.697 376.804C194.553 374.41 188.975 370.761 184.322 366.089L184.393 366.157ZM202.804 308.572V358.947C203.589 361.697 211.875 366.429 228.554 368.768C235.275 369.706 242.053 370.177 248.839 370.179H250.072C256.852 370.176 263.624 369.705 270.339 368.768C277.467 367.762 283.059 366.326 287.189 364.797L287.549 364.661C293.011 362.567 295.752 360.324 295.964 358.786C295.966 358.443 296.014 358.107 296.105 357.784L296.108 308.727C293.577 310.92 290.923 312.971 288.159 314.868L286.768 315.804C277.842 321.844 267.593 325.583 256.933 326.73C255.026 326.945 253.107 327.077 251.179 327.125H247.697L247.583 327.12L247.554 327.125C245.591 327.072 243.637 326.932 241.697 326.706L239.892 326.47L238.853 326.312L237.354 326.054L236.156 325.822C228.056 324.177 220.306 321.02 213.323 316.484L212.375 315.857C209.015 313.66 205.817 311.225 202.804 308.572ZM247.787 99.6839L249.464 99.6965C267.482 99.4108 300.768 103.75 320.893 136.375C335.178 159.533 333.806 195.554 332.772 208.258L332.643 209.75V209.982L335.894 210.257L332.697 210.179L332.695 210.199L332.643 210.197C332.56 211 332.48 211.699 332.412 212.273L332.179 214.072C332.17 214.173 332.17 214.274 332.179 214.375L332.072 215.732C331.786 218.304 331.518 220.518 331.161 222.875C330.804 225.232 330.411 227.518 330 229.679L329.793 230.775C329.649 231.508 329.494 232.238 329.339 232.929L328.883 234.995L328.643 236.018V236.179C328.527 236.679 328.406 237.152 328.286 237.612L327.929 238.964L327.929 239.159C327.689 240.117 327.433 240.953 327.161 241.822L326.784 243.038L326.453 244.077L326.375 244.304C325.572 246.929 324.661 249.661 323.572 252.661V252.839C323.142 254.042 322.69 255.244 322.251 256.409L321.929 257.268L320.266 261.407C314.81 274.796 306.985 287.096 297.161 297.714L297.491 297.352C297.344 297.461 297.203 297.582 297.072 297.714C292.739 302.311 287.885 306.386 282.607 309.857L281.732 310.443C272.643 316.406 262.061 319.714 251.179 319.982H247.697C247.337 319.973 246.979 319.96 246.62 319.944L245.709 319.896L244.376 319.798C234.345 318.949 224.68 315.534 216.322 309.857L215.113 309.046C210.31 305.76 205.871 301.967 201.875 297.732C201.772 297.623 201.663 297.522 201.546 297.433C191.505 286.512 183.57 273.827 178.143 260.018L177.054 257.304C176.869 256.822 176.685 256.331 176.5 255.837L175.393 252.857L175.072 252.679C173.822 249.197 172.625 245.536 171.5 241.822C171.375 241.395 171.233 240.889 171.099 240.407L171.097 240.402L170.967 239.935L170.598 238.661C170.532 238.425 170.466 238.167 170.397 237.893L169.991 236.244C169.968 236.145 169.946 236.047 169.924 235.946C169.907 235.869 169.889 235.79 169.872 235.71C169.812 235.434 169.746 235.137 169.661 234.786L169.484 234.042C169.367 233.54 169.256 233.024 169.161 232.5V232.322C168.982 231.589 168.822 230.839 168.679 230.036L168.572 229.536L167.876 225.542C167.796 225.064 167.72 224.572 167.661 224.072C167.661 224.048 167.675 224.042 167.689 224.036C167.716 224.024 167.744 224.012 167.661 223.857C167.536 223.625 167.536 223.375 167.536 223.143V222.679C167.482 222.316 167.431 221.945 167.38 221.57L166.954 218.447C166.841 217.577 166.737 216.67 166.643 215.732L166.542 214.826L166.518 214.375C166.528 214.262 166.528 214.149 166.518 214.036L166.321 212.39L166.322 211.75C166.31 211.605 166.289 211.447 166.266 211.274C166.218 210.912 166.161 210.483 166.161 209.964L166.15 209.69C166.129 209.418 166.078 209.153 165.998 208.899L165.907 207.817C164.874 194.745 163.647 159.321 177.804 136.375C197.342 104.729 229.281 99.6966 247.787 99.6839ZM340.114 212.879L339.767 212.935L339.563 214.58C339.537 214.767 339.516 214.908 339.5 215L339.393 216.339C339.127 218.824 338.862 221.062 338.56 223.078L338.429 223.929L338.334 224.52L338.333 224.528C337.999 226.619 337.623 228.971 337.232 231.072C337.089 231.857 336.939 232.627 336.78 233.392L336.536 234.536L336.479 234.795C336.255 235.819 336.07 236.666 335.839 237.589V237.768L335.67 238.453C338.062 238.329 340.29 237.109 341.679 235.107C343.397 232.746 343.679 229.631 342.411 227C341.88 226.171 342.119 225.069 342.947 224.536C343.775 224.005 344.877 224.244 345.411 225.072C347.292 228.649 347.173 232.947 345.098 236.415C343.023 239.883 339.291 242.02 335.25 242.054L335.322 242.089C335.12 242.089 334.919 242.081 334.718 242.067L334.461 242.971L334.197 243.857C333.893 244.857 333.643 245.643 333.339 246.5C332.897 247.941 332.408 249.455 331.871 251.043L331.732 251.036C339.14 251.719 346.329 248.374 350.581 242.306L350.911 241.822C354.771 236.266 356.071 229.326 354.482 222.75C353.59 219.044 351.152 215.897 347.786 214.107C345.569 213.04 343.112 212.598 340.676 212.816L340.114 212.879ZM151.036 214.054C152.87 213.175 154.877 212.717 156.911 212.714C157.733 212.727 158.552 212.817 159.357 212.982V213.393C159.413 213.589 159.416 213.756 159.418 213.913C159.42 214.058 159.422 214.194 159.464 214.339C159.518 214.522 159.539 214.678 159.548 214.805L159.554 215.018C159.583 215.508 159.636 215.997 159.714 216.482C159.756 216.911 159.802 217.337 159.849 217.761L160.143 220.25C160.286 221.464 160.447 222.625 160.625 223.822V224.232L160.786 225.197C160.839 225.607 160.902 226.018 160.967 226.415L161.35 228.679C161.465 229.334 161.589 229.991 161.713 230.653L161.768 230.947L161.857 231.464L162.462 234.334L162.929 236.447L163.357 238.232V238.429L163.375 238.499C160.828 238.501 158.422 237.251 156.964 235.125C155.259 232.765 154.984 229.659 156.25 227.036C156.781 226.207 156.542 225.105 155.714 224.572C154.886 224.04 153.784 224.28 153.25 225.107C151.369 228.684 151.488 232.983 153.563 236.451C155.638 239.919 159.37 242.055 163.411 242.089C163.716 242.095 164.021 242.085 164.325 242.061L164.432 242.052L164.589 242.036C164.537 242.042 164.485 242.047 164.432 242.052C164.397 242.055 164.361 242.058 164.325 242.061L164.321 242.061L164.839 243.839C165.572 246.268 166.322 248.643 167.107 250.982C159.503 251.688 152.13 248.145 147.929 241.768L147.55 241.208C143.974 235.755 142.811 229.052 144.357 222.697C145.244 218.992 147.675 215.846 151.036 214.054Z" fill="#372168"/>
<path fill-rule="evenodd" clip-rule="evenodd" d="M302.189 363.002C302.21 362.966 302.23 362.93 302.25 362.893L302.186 363.002L302.189 363.002ZM164.432 242.052L164.589 242.036C164.537 242.042 164.485 242.047 164.432 242.052Z" fill="#372168"/>
<g style="mix-blend-mode:multiply" opacity="0.15">
<path fill-rule="evenodd" clip-rule="evenodd" d="M218.75 249.583C218.75 260.484 210.755 269.32 200.893 269.32C191.031 269.32 183.036 260.484 183.036 249.583C183.036 238.683 191.031 229.846 200.893 229.846C210.755 229.846 218.75 238.683 218.75 249.583ZM315.179 249.583C315.179 260.484 307.184 269.32 297.321 269.32C287.459 269.32 279.464 260.484 279.464 249.583C279.464 238.683 287.459 229.846 297.321 229.846C307.184 229.846 315.179 238.683 315.179 249.583Z" fill="#FF1300"/>
</g>
<path d="M248.928 281.482C246.279 281.529 243.653 280.973 241.25 279.857C240.377 279.393 240.045 278.31 240.509 277.437C240.972 276.564 242.056 276.233 242.928 276.696C246.971 278.429 251.547 278.429 255.589 276.696C256.186 276.463 256.861 276.566 257.361 276.967C257.861 277.367 258.109 278.003 258.013 278.636C257.916 279.269 257.489 279.803 256.893 280.035C254.35 281.005 251.65 281.496 248.928 281.482Z" fill="#372168"/>
<path d="M249.982 274.125C240.607 274.125 232 270.911 227 265.553C225.931 264.282 226.043 262.398 227.255 261.262C228.466 260.126 230.354 260.137 231.553 261.286C235.357 265.339 242.411 267.875 250 267.875C251.726 267.875 253.125 269.274 253.125 271C253.125 272.726 251.726 274.125 250 274.125H249.982Z" fill="#372168"/>
<path fill-rule="evenodd" clip-rule="evenodd" d="M268.839 265.25C263.38 269.166 256.788 271.186 250.071 271C248.286 265.643 247.839 258.982 254.196 256.16C261.053 253.107 265.821 258.875 268.482 264C268.686 264.387 268.808 264.813 268.839 265.25Z" fill="#FF6666"/>
<path fill-rule="evenodd" clip-rule="evenodd" d="M247.018 271.964C247.469 273.264 248.696 274.132 250.071 274.125C257.485 274.307 264.755 272.056 270.768 267.714C271.595 267.066 272.044 266.048 271.964 265C271.879 264.139 271.63 263.303 271.232 262.536C266.464 253.589 259.75 250.232 252.839 253.303C246.25 256.232 244.125 263.036 247.018 271.964ZM255.375 259.018C256.127 258.65 256.949 258.449 257.786 258.428C259.607 258.428 262.161 259.464 264.964 264.232C261.091 266.389 256.768 267.612 252.339 267.803C250.864 261.067 254.165 259.567 255.358 259.025L255.375 259.018Z" fill="#372168"/>
<path d="M260.232 271.679C259.53 271.677 258.895 271.265 258.607 270.625L256.714 266.393C256.456 265.809 256.529 265.132 256.905 264.616C257.281 264.101 257.904 263.825 258.539 263.893C259.174 263.961 259.724 264.363 259.982 264.946L261.768 269.179C262.008 269.729 261.956 270.363 261.628 270.866C261.301 271.369 260.743 271.675 260.143 271.679H260.232Z" fill="#372168"/>
<path d="M249.059 246.94C245.159 246.993 241.492 245.089 239.291 241.869C238.354 240.419 238.77 238.484 240.219 237.547C241.669 236.61 243.604 237.026 244.541 238.476C245.628 239.89 247.316 240.711 249.099 240.693C250.882 240.676 252.553 239.822 253.612 238.387C254.51 236.907 256.437 236.436 257.916 237.333C259.395 238.231 259.867 240.157 258.969 241.637C256.809 245.003 253.058 247.01 249.059 246.94Z" fill="#372168"/>
<path d="M293.506 224.089C292.409 224.089 291.392 223.513 290.828 222.571C289.769 221.136 288.097 220.282 286.314 220.265C284.531 220.247 282.843 221.068 281.756 222.482C281.183 223.486 280.103 224.092 278.948 224.057C277.792 224.023 276.75 223.353 276.239 222.316C275.728 221.279 275.831 220.045 276.506 219.107C278.76 215.888 282.459 213.99 286.389 214.036C290.319 214.083 293.972 216.068 296.149 219.339C296.723 220.304 296.739 221.503 296.19 222.483C295.641 223.462 294.611 224.075 293.488 224.089H293.506Z" fill="#372168"/>
<path d="M220.279 224C219.19 224.004 218.179 223.434 217.619 222.5C216.56 221.065 214.888 220.211 213.105 220.193C211.322 220.175 209.634 220.997 208.547 222.411C207.941 223.348 206.881 223.892 205.765 223.836C204.65 223.78 203.65 223.133 203.14 222.139C202.631 221.145 202.691 219.955 203.297 219.018C205.556 215.806 209.253 213.914 213.18 213.961C217.106 214.007 220.757 215.986 222.94 219.25C223.372 219.957 223.504 220.807 223.306 221.612C223.108 222.417 222.597 223.109 221.886 223.536C221.406 223.84 220.848 224.001 220.279 224Z" fill="#372168"/>
<path d="M303.446 206.375H303.089C302.089 206.375 278.357 203.946 267.018 199C265.208 198.211 264.381 196.104 265.17 194.295C265.959 192.485 268.065 191.657 269.875 192.446C280.179 196.946 303.536 199.25 303.804 199.268C305.776 199.356 307.303 201.027 307.214 203C307.125 204.972 305.455 206.499 303.482 206.411L303.446 206.375Z" fill="#372168"/>
<path d="M194.25 206.375C192.278 206.464 190.607 204.937 190.518 202.964C190.429 200.992 191.956 199.321 193.929 199.232C194.161 199.232 217.518 196.911 227.857 192.411C229.028 191.9 230.382 192.053 231.409 192.812C232.437 193.57 232.981 194.82 232.838 196.089C232.694 197.358 231.885 198.454 230.714 198.964C219.375 203.911 195.643 206.25 194.643 206.339L194.25 206.375Z" fill="#372168"/>
<path d="M293.934 362.215C276.238 337.286 276.345 306.322 294.202 279.536C298.131 273.636 302.395 268.228 306.349 263.213C307.877 261.276 309.358 259.398 310.755 257.572C328.988 233.572 334.47 201.822 323.755 173.643C320.861 165.831 316.758 158.521 311.595 151.983C280.273 112.715 217.273 132 217.273 132L217.168 131.851C214.303 132.548 162.595 146.016 162.613 209.875C158.317 208.44 153.633 208.721 149.541 210.661C140.184 215.108 136.184 229.965 145.041 243.554C151.827 253.911 163.291 255.733 172.005 253.715C175.092 262.38 178.872 270.782 183.309 278.84C187.75 286.579 193.085 293.771 199.202 300.268V358.572C193.845 359.858 186.613 361.679 178.148 363.929C171.327 365.822 163.755 368.054 155.738 370.643C141.22 356.465 128.059 337.286 140.273 303.572C146.488 286.429 145.184 271.983 138.291 257.143C128.319 236.438 122.951 213.818 122.559 190.84C122.005 83.5183 191.255 95.0718 191.255 95.0718L191.308 95.1465C193.13 92.9478 230.047 49.4638 291.738 60.4825C341.773 69.429 365.38 121.661 372.952 151C377.245 167.678 383.883 176.651 390.901 186.137C394.508 191.012 398.215 196.024 401.755 202.286C402.148 202.983 402.523 203.697 402.88 204.393C412.253 223.29 410.224 245.848 397.63 262.768L391.273 271.5C388.844 274.727 386.907 278.295 385.523 282.09C382.38 290.893 381.827 302.518 390.755 314.893C413.523 346.25 436.523 381.161 394.916 405.34C384.238 411.354 373.999 418.115 364.273 425.572C358.812 429.763 355.766 436.376 356.13 443.25C356.457 447.855 358.354 450.642 359.371 452.135C360.187 453.335 360.436 453.699 358.845 453.5C324.561 449.227 324.747 429.677 324.908 412.776C324.925 410.962 324.942 409.178 324.916 407.447C324.712 392.264 313.354 382.374 308.306 377.979C308.052 377.758 307.814 377.551 307.595 377.358C302.46 372.866 297.875 367.783 293.934 362.215Z" fill="#8C9AD9"/>
<path d="M199.202 359.197C199.184 358.989 199.184 358.78 199.202 358.572V359.197Z" fill="#8C9AD9"/>
<path fill-rule="evenodd" clip-rule="evenodd" d="M292.273 57.1255C315.273 61.2326 335.13 74.3576 351.041 96.1255C362.336 112.02 370.733 129.781 375.848 148.588L376.291 150.25C380.365 166.122 386.686 174.714 393.395 183.835L393.648 184.179C397.691 189.455 401.4 194.977 404.755 200.715L404.757 200.717C405.167 201.466 405.577 202.215 405.97 202.983C415.711 222.827 413.756 246.393 400.942 264.347L394.041 273.804C391.829 276.76 390.055 280.02 388.773 283.483C385.202 293.697 386.755 303.625 393.541 313L396.519 317.138C412.047 338.884 424.814 359.924 420.666 379.59C418.255 390.983 410.166 400.75 396.595 408.625C386.071 414.562 375.975 421.227 366.38 428.572C361.839 432.025 359.299 437.5 359.595 443.197C359.764 445.784 360.682 448.266 362.238 450.34C363.549 451.732 363.843 453.799 362.97 455.5C362.151 456.626 360.803 457.242 359.416 457.125C359.066 457.153 358.713 457.153 358.363 457.125C320.921 452.472 321.165 429.608 321.344 412.882L321.345 412.804V407.59C321.183 395.243 312.713 386.748 307.451 382.105L305.238 380.179C299.875 375.5 295.081 370.208 290.952 364.411C272.548 338.459 272.434 306.434 290.627 278.541L291.184 277.697C294.785 272.295 298.717 267.208 302.276 262.657L305.117 259.034C306.041 257.851 306.941 256.69 307.809 255.554C325.488 232.34 330.291 201.411 320.309 175.036C317.544 167.579 313.627 160.602 308.702 154.358C279.238 117.411 218.809 135.358 218.22 135.554C217.811 135.679 217.393 135.728 216.983 135.705L216.19 135.934C206.666 138.779 166.204 154.178 166.22 209.983C166.217 211.119 165.673 212.187 164.755 212.858C163.841 213.531 162.661 213.73 161.577 213.393C158.144 212.226 154.392 212.437 151.113 213.983C147.741 215.775 145.302 218.929 144.416 222.643C142.879 228.994 144.043 235.687 147.61 241.138L147.988 241.697C153.863 250.625 163.809 252.036 171.202 250.34C172.968 249.936 174.756 250.919 175.363 252.625C178.414 261.012 182.121 269.144 186.452 276.947C190.742 284.418 195.897 291.359 201.809 297.625C202.473 298.295 202.845 299.2 202.845 300.143V359.072C202.851 360.938 201.419 362.494 199.559 362.643C199.032 362.688 198.501 362.615 198.005 362.429C191.738 363.965 185.38 365.608 179.113 367.34C171.523 369.465 164.023 371.697 156.845 374.018C156.475 374.197 156.075 374.306 155.666 374.34C154.732 374.34 153.834 373.975 153.166 373.322L152.299 372.467C138.28 358.52 124.374 338.114 136.463 303.556L136.845 302.483C142.434 287.054 141.863 273.59 135.059 258.822C124.827 237.642 119.343 214.484 118.988 190.965L118.988 188.327C119.196 149.016 128.797 120.969 147.559 105.072C158.777 95.5425 173.15 90.6602 187.753 91.3115C183.888 84.956 175.584 84.1691 172.898 84.0907L172.041 84.0897C171.055 84.1341 170.219 83.3706 170.175 82.3844C170.131 81.3982 170.894 80.5627 171.88 80.5183C177.121 80.2905 186.818 82.1685 191.159 90.0641L192.13 89.0743C203.349 77.8026 239.11 47.621 292.273 57.1255ZM195.782 95.3432L218.781 127.801L220.384 127.41C221.533 127.136 222.685 126.877 223.84 126.632L224.753 126.185C240.204 118.716 282.089 103.635 325.041 132.983C325.855 133.54 326.063 134.651 325.505 135.465C325.173 135.957 324.617 136.251 324.023 136.25C323.665 136.246 323.317 136.134 323.023 135.929C290.268 113.551 258.209 117.942 238.884 124.311C243.425 123.861 247.989 123.639 252.559 123.643C279.345 123.75 300.773 132.768 314.255 149.697C319.643 156.529 323.927 164.164 326.952 172.322C337.791 200.893 332.613 234.447 313.47 259.679C312.355 261.148 311.177 262.648 309.969 264.186C309.591 264.668 309.21 265.154 308.827 265.643L306.203 269.002C303.128 272.955 300.021 277.048 297.077 281.465L297.095 281.518C280.077 307.036 279.952 336.429 296.773 360.09C300.563 365.428 304.961 370.306 309.88 374.625L312.076 376.528C317.924 381.67 328.205 391.98 328.434 407.375V412.733L328.409 416.234C328.388 429.987 329.772 442.555 349.212 447.974C336.702 433.295 337.632 407.669 343.416 391.322C346.308 383.408 346.257 374.719 343.273 366.84C340.461 359.591 335.517 353.365 329.095 348.983C315.448 339.428 315.229 330.44 316.164 321.745L316.668 317.378C317.266 311.945 317.502 306.731 314.38 301.143C314.061 300.585 314.065 299.899 314.388 299.344C314.712 298.788 315.308 298.448 315.951 298.451C316.594 298.454 317.186 298.799 317.505 299.358C321.037 305.701 320.877 311.567 320.267 317.228L319.697 322.199C318.86 330.201 319.176 337.399 330.523 345.587L331.13 346.018C338.169 350.838 343.57 357.691 346.613 365.661C349.914 374.318 349.971 383.877 346.773 392.572C338.157 416.984 344.103 436.442 352.891 446.442C352.677 445.457 352.536 444.455 352.47 443.447C352.008 435.393 355.558 427.632 361.952 422.715C365.641 419.891 369.401 417.164 373.229 414.537C386.016 393.727 377.153 382.329 375.799 380.745L375.648 380.572C375.205 380.113 375.04 379.452 375.216 378.838C375.392 378.224 375.883 377.751 376.502 377.597C377.044 377.462 377.613 377.589 378.044 377.93L378.22 378.09C378.743 378.628 389.222 389.786 379.559 410.328C383.957 407.486 388.442 404.775 393.005 402.197C404.916 395.286 411.684 387.322 413.684 377.858C417.488 359.822 403.595 338.75 387.773 316.947C381.692 308.576 379.051 299.511 379.919 290.307C378.35 279.49 380.016 271.456 381.866 263.767L382.74 260.123C384.667 251.927 386.149 243.753 383.238 232.322C382.205 228.103 380.518 224.072 378.238 220.375C377.71 219.537 377.962 218.43 378.8 217.902C379.638 217.375 380.746 217.626 381.273 218.465C383.723 222.481 385.53 226.855 386.63 231.429C389.692 243.419 388.188 252.18 386.277 260.416L385.369 264.244C384.309 268.712 383.291 273.297 382.976 278.509C384.38 275.261 386.157 272.183 388.273 269.34L394.648 260.608C406.365 244.744 408.273 223.675 399.595 205.965C399.249 205.31 398.892 204.649 398.523 203.983C395.32 198.499 391.777 193.221 387.916 188.179L385.595 185.031C379.39 176.536 373.644 167.741 369.668 152.934L369.036 150.538C364.843 135.06 344.944 73.5949 291.005 63.9469C238.36 54.5384 203.961 86.6694 195.782 95.3432ZM151.988 110.661C161.382 102.739 173.288 98.416 185.577 98.4643C186.905 98.4643 188.014 98.5193 188.869 98.6288L189.077 98.6585L211.41 130.178C198.129 135.041 162.978 152.488 159.309 201.607C151.139 185.672 152.496 170.901 154.999 157.874L155.434 155.679C155.562 155.041 155.339 154.383 154.85 153.954C154.362 153.524 153.681 153.388 153.065 153.597C152.448 153.805 151.99 154.327 151.863 154.965C149.678 165.758 145.796 185.066 157.371 205.643C154.129 205.574 150.907 206.268 147.97 207.679C142.753 210.311 138.912 215.049 137.416 220.697C135.247 229.297 136.907 238.414 141.97 245.697L142.36 246.278C149.452 256.595 160.513 259.104 169.613 257.947C172.557 265.781 176.103 273.375 180.22 280.661L181.104 282.161C185.277 289.127 190.138 295.66 195.613 301.661V355.804C189.47 357.304 183.255 358.84 177.113 360.625L176.957 360.669C164.638 349.061 166.738 337.608 170.721 326.774L171.79 323.936C176.526 310.956 176.413 296.688 171.452 283.768C171.046 282.872 169.992 282.473 169.095 282.875C168.661 283.067 168.322 283.423 168.151 283.865C167.98 284.307 167.992 284.799 168.184 285.233L168.51 286.118C172.85 298.254 172.741 311.548 168.184 323.625L168.174 323.652C164.924 332.081 159.102 347.183 173.026 361.774C167.461 363.362 161.974 365.021 156.648 366.715C143.559 353.483 132.416 335.661 143.559 304.929C149.81 288.995 149.045 271.162 141.452 255.822C131.677 235.594 126.425 213.481 126.059 191.018C125.863 152.572 134.577 125.554 151.988 110.661ZM352.88 207.447C353.796 207.493 354.517 208.22 354.575 209.113L354.566 209.58C354.441 211.799 353.043 226.765 342.898 238.375C342.566 238.705 342.117 238.891 341.648 238.893C340.944 238.899 340.302 238.491 340.009 237.851C339.716 237.211 339.826 236.458 340.291 235.929C350.238 224.554 351.005 209.143 351.005 209.143C351.055 208.157 351.894 207.398 352.88 207.447ZM297.666 107.875C297.988 106.949 297.501 105.936 296.577 105.608C284.846 101.487 272.157 100.934 260.113 104.018C259.18 104.31 258.655 105.296 258.934 106.233C259.07 106.688 259.382 107.07 259.801 107.295C260.22 107.52 260.712 107.568 261.166 107.429L262.196 107.184C273.201 104.663 284.7 105.282 295.38 108.983C295.576 109.008 295.774 109.008 295.97 108.983C296.71 109.001 297.385 108.561 297.666 107.875Z" fill="#372168"/>
<path d="M343.927 142.018C343.001 142.019 342.111 141.66 341.445 141.018C336.397 136.174 330.949 131.765 325.159 127.839C324.103 127.121 323.51 125.895 323.604 124.622C323.698 123.348 324.463 122.222 325.613 121.666C326.762 121.111 328.121 121.211 329.177 121.928C335.296 126.085 341.055 130.751 346.391 135.875C347.438 136.884 347.769 138.427 347.227 139.776C346.686 141.125 345.381 142.012 343.927 142.018Z" fill="#372168"/>
<path d="M150.088 142.089C149.118 142.09 148.19 141.697 147.516 141C146.857 140.318 146.496 139.403 146.513 138.455C146.53 137.507 146.923 136.604 147.605 135.946C153.285 130.492 159.44 125.555 165.998 121.196C167.055 120.37 168.485 120.205 169.702 120.77C170.919 121.334 171.716 122.533 171.768 123.873C171.819 125.213 171.115 126.469 169.945 127.125C163.754 131.267 157.934 135.939 152.552 141.089C151.89 141.727 151.007 142.086 150.088 142.089Z" fill="#372168"/>
<path d="M305.445 116.464C304.057 116.435 302.811 115.605 302.251 114.335C301.691 113.065 301.917 111.585 302.832 110.541C303.746 109.496 305.183 109.076 306.516 109.464C306.825 109.581 307.124 109.725 307.409 109.893C308.203 110.411 308.758 111.223 308.952 112.151C309.146 113.079 308.964 114.046 308.445 114.839C307.785 115.854 306.656 116.466 305.445 116.464Z" fill="#372168"/>
<path fill-rule="evenodd" clip-rule="evenodd" d="M354.141 81.1962C354.141 81.1962 350.766 104.893 327.159 124.875C320.308 120.227 313.045 116.217 305.463 112.893H305.355C306.663 110.999 308.076 109.181 309.588 107.446C312.855 103.709 316.44 100.261 320.302 97.1426C337.713 83.1426 354.141 81.1962 354.141 81.1962Z" fill="#A6B4F3"/>
<path fill-rule="evenodd" clip-rule="evenodd" d="M190.266 112.143L189.945 112.285C182.306 115.551 174.978 119.501 168.052 124.089C145.213 104.25 141.927 81.1248 141.927 81.1248C141.927 81.1248 158.302 83.0712 175.641 96.964C179.53 100.097 183.144 103.556 186.445 107.303C187.805 108.846 189.08 110.462 190.266 112.143Z" fill="#A6B4F3"/>
<path fill-rule="evenodd" clip-rule="evenodd" d="M325.159 127.839C325.75 128.236 326.447 128.448 327.159 128.446C328 128.452 328.815 128.161 329.463 127.625C353.82 107 357.534 82.732 357.677 81.7141C357.833 80.6158 357.47 79.5073 356.695 78.7141C355.919 77.9179 354.816 77.5284 353.713 77.6605C352.998 77.7498 335.998 79.8927 318.141 94.3212C314.099 97.5665 310.341 101.151 306.909 105.036C305.303 106.879 303.8 108.81 302.409 110.821C301.816 111.71 301.653 112.817 301.963 113.839C302.278 114.874 303.028 115.721 304.016 116.161C311.402 119.406 318.479 123.315 325.159 127.839ZM326.927 120.375C321.77 117.052 316.401 114.07 310.855 111.446C311.118 111.113 311.386 110.809 311.662 110.494C311.876 110.252 312.094 110.004 312.32 109.732C315.485 106.152 318.943 102.843 322.659 99.839C330.536 93.4529 339.614 88.7106 349.355 85.8925C345.112 99.1925 337.364 111.104 326.927 120.375Z" fill="#372168"/>
<path fill-rule="evenodd" clip-rule="evenodd" d="M165.623 126.857C166.272 127.421 167.103 127.732 167.963 127.732C168.66 127.713 169.337 127.489 169.909 127.089C176.686 122.6 183.858 118.738 191.338 115.554H191.498C192.507 115.146 193.275 114.301 193.584 113.258C193.894 112.215 193.711 111.088 193.088 110.196C191.841 108.413 190.494 106.702 189.052 105.071C185.648 101.19 181.921 97.6059 177.909 94.3572L177.784 94.25C159.855 79.875 142.963 77.6429 142.248 77.6429C141.148 77.5154 140.051 77.9057 139.278 78.6993C138.506 79.4929 138.145 80.6 138.302 81.6965C138.445 82.6965 142.052 106.393 165.623 126.857ZM168.32 119.678C158.268 110.513 150.799 98.8686 146.659 85.9106C156.338 88.6961 165.365 93.3826 173.213 99.6963C173.251 99.747 173.3 99.7895 173.355 99.8213C177.082 102.826 180.547 106.141 183.713 109.732L184.588 110.75C178.975 113.367 173.541 116.349 168.32 119.678Z" fill="#372168"/>
<g style="mix-blend-mode:soft-light" opacity="0.8">
<path d="M339.498 48.8394C339.498 48.8394 338.963 72.2858 320.373 97.0536C317.995 100.222 315.444 103.256 312.73 106.143C310.459 108.539 308.031 110.782 305.463 112.857H305.355L304.284 112.393C297.055 109.257 289.561 106.771 281.891 104.964L280.213 104.571C282.488 98.4346 285.486 92.5901 289.141 87.1608C292.403 82.4299 296.039 77.9691 300.016 73.8215C319.302 53.6965 339.498 48.8394 339.498 48.8394Z" fill="white"/>
</g>
<g style="mix-blend-mode:soft-light" opacity="0.8">
<path d="M215.605 104.161C214.391 104.428 213.195 104.696 212.034 105C204.579 106.785 197.281 109.174 190.213 112.143L189.891 112.286C187.553 110.37 185.34 108.306 183.266 106.107C180.542 103.213 177.984 100.166 175.605 96.9819C171.797 91.9085 168.467 86.4924 165.659 80.8034C156.838 62.9462 156.498 48.7855 156.498 48.7855C156.498 48.7855 174.48 53.107 192.713 70.4641C198 75.5014 202.752 81.0728 206.891 87.0891C210.456 92.4176 213.381 98.1476 215.605 104.161Z" fill="white"/>
</g>
<path fill-rule="evenodd" clip-rule="evenodd" d="M304.016 116.16C304.473 116.358 304.965 116.462 305.463 116.464C306.271 116.435 307.045 116.133 307.659 115.607C310.351 113.436 312.893 111.086 315.266 108.571C318.073 105.639 320.72 102.557 323.195 99.339C342.248 73.9104 343.034 50.0354 343.034 49.0175C343.06 47.9119 342.572 46.8568 341.713 46.1604C340.852 45.465 339.718 45.2078 338.641 45.464C337.766 45.6782 317.195 50.8211 297.409 71.4282C293.302 75.7087 289.545 80.3129 286.177 85.1961C282.358 90.8608 279.235 96.9641 276.873 103.375C276.505 104.352 276.583 105.442 277.088 106.357C277.594 107.281 278.483 107.935 279.516 108.143L281.052 108.518C288.513 110.241 295.804 112.631 302.838 115.66L304.016 116.16ZM304.855 108.75C298.445 106.004 291.83 103.765 285.07 102.053C286.989 97.5273 289.352 93.2027 292.123 89.1424C295.262 84.5627 298.774 80.2504 302.623 76.2496C311.816 66.5634 322.986 58.9689 335.373 53.9817C332.815 68.8777 326.688 82.9328 317.516 94.946C315.214 98.0071 312.746 100.94 310.123 103.732C308.458 105.497 306.7 107.172 304.855 108.75Z" fill="#372168"/>
<path fill-rule="evenodd" clip-rule="evenodd" d="M187.57 115.107C188.215 115.633 189.023 115.917 189.855 115.911C190.335 115.928 190.813 115.855 191.266 115.696L191.498 115.589C198.391 112.672 205.51 110.319 212.784 108.554L216.355 107.732C217.376 107.515 218.25 106.863 218.748 105.946C219.241 105.034 219.313 103.952 218.945 102.982C216.609 96.6881 213.534 90.6937 209.784 85.125C205.508 78.899 200.594 73.1357 195.123 67.9286C176.558 50.2666 158.344 45.6271 157.306 45.3627C157.297 45.3605 157.29 45.3587 157.284 45.3571C156.208 45.101 155.073 45.3582 154.213 46.0536C153.354 46.75 152.866 47.8051 152.891 48.9107C152.891 49.5179 153.338 64.0357 162.409 82.4464C165.309 88.3319 168.753 93.9336 172.695 99.1786L172.802 99.3214C175.236 102.564 177.847 105.67 180.623 108.625C182.802 110.928 185.122 113.092 187.57 115.107ZM178.427 94.9285L178.32 94.7856C174.676 89.9081 171.495 84.701 168.82 79.232C164.829 71.2507 162.06 62.7149 160.605 53.9106C171.616 58.3232 181.67 64.8235 190.213 73.0535C195.315 77.9287 199.904 83.314 203.909 89.1249C206.564 93.069 208.842 97.2541 210.713 101.625C203.823 103.328 197.068 105.53 190.498 108.214C188.868 106.802 187.313 105.306 185.838 103.732C183.208 100.936 180.734 97.9969 178.427 94.9285Z" fill="#372168"/>
<path fill-rule="evenodd" clip-rule="evenodd" d="M300.016 73.7857C298.29 78.4803 296.268 83.0609 293.963 87.5C290.637 93.7588 286.591 99.6079 281.909 104.929L280.23 104.536C273.038 102.882 265.732 101.772 258.373 101.214H257.909C258.07 91.9995 259.617 82.8614 262.498 74.1071C263.409 71.4107 264.391 68.75 265.427 66.3393C268.901 58.0049 273.33 50.101 278.623 42.7857C291.695 24.7321 305.409 17.0357 305.409 17.0357C305.409 17.0357 311.82 41.875 300.016 73.7857Z" fill="#FF8EC1"/>
<path fill-rule="evenodd" clip-rule="evenodd" d="M235.963 101.232H235.48C228.796 101.734 222.155 102.7 215.605 104.125C214.391 104.393 213.195 104.66 212.034 104.964C207.334 99.6257 203.271 93.7589 199.927 87.4819C197.126 82.0011 194.738 76.3186 192.784 70.4819C182.588 40.1247 188.57 16.9105 188.57 16.9105C188.57 16.9105 213.909 31.1962 228.552 66.1962C229.588 68.6843 230.57 71.2736 231.498 73.964C234.332 82.7812 235.837 91.9713 235.963 101.232Z" fill="#FF8EC1"/>
<path fill-rule="evenodd" clip-rule="evenodd" d="M281.034 108.464C281.314 108.535 281.602 108.57 281.891 108.571C282.888 108.587 283.846 108.186 284.534 107.464C289.393 101.917 293.588 95.8225 297.034 89.3035C299.375 84.7933 301.433 80.1414 303.195 75.375C303.232 75.3069 303.262 75.2351 303.284 75.1607C315.32 42.5178 309.034 17.2857 308.748 16.2321C308.469 15.163 307.71 14.2836 306.693 13.8504C305.677 13.4172 304.517 13.479 303.552 14.0178C303.536 14.0277 303.509 14.0432 303.473 14.0647C302.194 14.8214 288.63 22.8475 275.623 40.8035C270.177 48.3505 265.617 56.4994 262.034 65.0893V65.25C260.98 67.7321 259.98 70.4464 259.07 73.0892C256.082 82.1979 254.469 91.7012 254.284 101.286C254.279 103.158 255.72 104.717 257.588 104.857H258.088C265.303 105.395 272.466 106.481 279.516 108.107L281.034 108.464ZM280.588 101.036C274.322 99.6015 267.969 98.5814 261.57 97.982V97.857C262.034 90.142 263.517 82.5223 265.98 75.1963C266.838 72.6428 267.802 70.1071 268.838 67.6606V67.4999C272.161 59.5159 276.385 51.9371 281.427 44.9106C287.377 36.5954 294.568 29.2421 302.748 23.1071C304.653 39.7978 302.566 56.7023 296.659 72.4285V72.6249C294.974 77.1693 293.012 81.6062 290.784 85.9106C287.934 91.3012 284.516 96.3717 280.588 101.036Z" fill="#372168"/>
<path fill-rule="evenodd" clip-rule="evenodd" d="M209.302 107.339C209.98 108.121 210.963 108.571 211.998 108.571C212.266 108.542 212.53 108.482 212.784 108.393L216.355 107.571C222.744 106.2 229.216 105.257 235.73 104.75H236.213C238.087 104.618 239.539 103.057 239.534 101.179C239.347 91.5885 237.734 82.0797 234.748 72.9643C233.855 70.3214 232.855 67.6964 231.784 65.1071C231.791 65.0538 231.791 64.9998 231.784 64.9464C216.838 29.1607 191.355 14.5357 190.266 13.9286C189.304 13.3895 188.146 13.3254 187.13 13.7548C186.114 14.1843 185.354 15.0591 185.07 16.125C184.82 17.1071 178.927 40.6786 189.355 71.6607C191.381 77.678 193.87 83.529 196.802 89.1607C200.242 95.6892 204.437 101.791 209.302 107.339ZM196.052 69.4642C190.915 54.561 189.194 38.6936 191.016 23.0356C206.155 34.5939 217.931 49.9881 225.123 67.6249V67.7856C226.195 70.2678 227.123 72.8035 227.98 75.3392C230.401 82.6832 231.842 90.3146 232.266 98.0356C226.41 98.6104 220.591 99.5166 214.838 100.75L213.284 101.107C209.35 96.4372 205.926 91.3609 203.07 85.9642C200.314 80.6507 197.968 75.1347 196.052 69.4642Z" fill="#372168"/>
<path fill-rule="evenodd" clip-rule="evenodd" d="M265.409 66.3212C265.409 68.5354 265.266 70.7497 265.088 73.0354C264.254 82.7161 261.985 92.2189 258.355 101.232H257.891C254.32 100.982 250.748 100.857 247.034 100.857C243.32 100.857 239.605 100.982 235.963 101.268H235.48C231.859 92.2396 229.59 82.7263 228.748 73.0354C228.57 70.7497 228.463 68.5176 228.427 66.3212C227.445 24.714 246.927 -0.607422 246.927 -0.607422C246.927 -0.607422 266.409 24.6426 265.409 66.3212Z" fill="#FFB07D"/>
<path fill-rule="evenodd" clip-rule="evenodd" d="M232.177 102.589C232.716 103.943 234.023 104.833 235.48 104.839L235.677 104.803H236.177C243.31 104.283 250.472 104.283 257.605 104.803H258.105C259.655 104.915 261.098 104.013 261.677 102.571C265.43 93.2114 267.782 83.3494 268.659 73.3034L268.669 73.1553C268.827 70.9212 268.98 68.7342 268.98 66.4106C269.998 23.982 250.588 -1.73228 249.748 -2.80371C249.043 -3.63417 248.008 -4.11279 246.918 -4.11279C245.828 -4.11279 244.793 -3.63417 244.088 -2.80371C243.266 -1.73228 223.855 23.9999 224.855 66.3927C224.909 68.7141 225.016 71.0356 225.177 73.3034C226.057 83.3565 228.416 93.2246 232.177 102.589ZM231.998 66.2141C231.316 45.115 236.483 24.2382 246.927 5.89267C257.404 24.2437 262.567 45.1488 261.838 66.2677C261.802 68.482 261.695 70.607 261.534 72.7855C260.807 81.2423 258.939 89.5619 255.98 97.5177C249.95 97.1696 243.904 97.1696 237.873 97.5177C234.917 89.5542 233.043 81.2299 232.302 72.7677C232.141 70.6248 231.998 68.4284 231.998 66.2141Z" fill="#372168"/>
<path d="M224.052 104.071C223.252 104.113 222.521 103.617 222.266 102.857C208.07 59.9999 188.445 56.7142 188.338 56.6785C187.369 56.5315 186.699 55.6309 186.838 54.6606C186.976 53.6844 187.879 53.0049 188.855 53.1428C189.748 53.2856 210.855 56.8571 225.73 101.732C226.037 102.664 225.535 103.668 224.605 103.982C224.428 104.046 224.24 104.077 224.052 104.071Z" fill="#372168"/>
<path d="M268.052 104.071C267.752 104.078 267.456 104.004 267.195 103.857C266.335 103.386 266.017 102.31 266.48 101.446C268.837 96.72 270.808 91.8112 272.373 86.7676C276.595 72.5817 278.103 57.7269 276.82 42.9819C276.764 42.5105 276.899 42.0365 277.194 41.6646C277.489 41.2927 277.92 41.0535 278.391 40.9997C279.367 40.8842 280.252 41.5784 280.373 42.5533C281.758 57.8091 280.2 73.1887 275.784 87.8569C274.14 93.1077 272.08 98.2191 269.623 103.143C269.309 103.717 268.706 104.073 268.052 104.071Z" fill="#372168"/>
<path d="M273.445 91.1428C273.116 91.1406 272.795 91.0479 272.516 90.8749C272.113 90.6245 271.826 90.2238 271.719 89.7614C271.612 89.299 271.693 88.813 271.945 88.4107C280.71 74.8882 291.628 62.8905 304.266 52.8928C304.777 52.5068 305.454 52.4225 306.044 52.6715C306.633 52.9205 307.045 53.4651 307.124 54.1C307.203 54.735 306.937 55.364 306.427 55.7499C306.248 55.8928 287.391 70.2857 274.963 90.3035C274.636 90.8267 274.062 91.144 273.445 91.1428Z" fill="#372168"/>
<path d="M247.034 102.607H246.909C245.929 102.54 245.187 101.694 245.248 100.714C248.677 51.7141 230.391 38.4105 230.213 38.2141C229.405 37.6512 229.205 36.541 229.766 35.7319C230.329 34.9245 231.439 34.7248 232.248 35.2855C233.07 35.8569 252.373 49.9105 248.82 100.911C248.772 101.862 247.986 102.608 247.034 102.607Z" fill="#372168"/>
<path d="M247.409 85.0714C246.465 85.0146 245.729 84.2315 245.73 83.2856C247.623 48.3571 262.105 36.0356 262.713 35.5178C263.472 34.8866 264.599 34.9905 265.23 35.7499C265.862 36.5093 265.758 37.6366 264.998 38.2678C264.766 38.4642 251.088 50.3928 249.284 83.4821C249.181 84.4261 248.357 85.1244 247.409 85.0714Z" fill="#372168"/>
<path d="M215.266 82.982C214.545 82.9784 213.897 82.5417 213.623 81.8748L186.838 17.6963C186.595 17.1061 186.686 16.4315 187.076 15.9265C187.466 15.4215 188.095 15.1628 188.728 15.2479C189.36 15.333 189.899 15.749 190.141 16.3391L211.463 67.5534C211.209 58.903 211.693 50.2467 212.909 41.6784C213.057 40.6922 213.976 40.0126 214.963 40.1606C215.949 40.3085 216.628 41.2279 216.48 42.2141C216.48 42.4463 212.909 66.5713 216.963 80.6963C217.224 81.6059 216.731 82.5615 215.838 82.8748C215.654 82.9415 215.461 82.9777 215.266 82.982Z" fill="#372168"/>
<path d="M203.855 109.018C203.268 109.013 202.72 108.719 202.391 108.232C193.092 95.0448 179.665 85.3311 164.23 80.6248C163.59 80.4923 163.072 80.0198 162.883 79.3934C162.693 78.767 162.861 78.0871 163.321 77.6214C163.781 77.1557 164.459 76.9788 165.088 77.1605C181.423 81.9845 195.623 92.2405 205.338 106.232C205.895 107.046 205.687 108.157 204.873 108.714C204.569 108.909 204.216 109.014 203.855 109.018Z" fill="#372168"/>
<path d="M197.891 101.428C197.351 101.43 196.839 101.187 196.498 100.768L155.07 49.9106C154.629 49.4204 154.494 48.7273 154.719 48.1076C154.944 47.488 155.492 47.0425 156.144 46.949C156.797 46.8555 157.448 47.129 157.838 47.6606L189.498 86.4999C187.641 80.0438 186.691 73.3606 186.677 66.6427C186.677 65.6565 187.476 64.857 188.463 64.857C189.449 64.857 190.248 65.6565 190.248 66.6427C190.248 66.8392 190.016 86.6963 199.284 98.4642C199.892 99.2345 199.764 100.351 198.998 100.964C198.694 101.242 198.303 101.406 197.891 101.428Z" fill="#372168"/>
<path d="M179.552 119.053C179.135 119.054 178.73 118.909 178.409 118.643C159.73 103.053 148.927 104.768 148.82 104.785C147.834 104.958 146.894 104.298 146.722 103.312C146.549 102.326 147.209 101.387 148.195 101.214C148.534 101.214 154.23 100.232 164.105 104.893L140.588 82.4104C139.895 81.7139 139.895 80.589 140.588 79.8925C140.923 79.5545 141.379 79.3643 141.855 79.3643C142.332 79.3643 142.788 79.5545 143.123 79.8925L180.855 115.982C181.379 116.486 181.544 117.258 181.274 117.932C181.003 118.607 180.35 119.05 179.623 119.053H179.552Z" fill="#372168"/>
<path d="M178.248 117.964C177.836 117.97 177.435 117.824 177.123 117.554C169.721 111.542 166.354 101.862 168.427 92.5536C168.59 91.9347 169.07 91.4497 169.687 91.2812C170.305 91.1126 170.965 91.2862 171.419 91.7365C171.874 92.1868 172.054 92.8455 171.891 93.4643C170.188 101.405 173.086 109.63 179.391 114.75C179.756 115.053 179.986 115.488 180.03 115.961C180.073 116.433 179.927 116.903 179.623 117.268C179.294 117.696 178.788 117.952 178.248 117.964Z" fill="#372168"/>
<path d="M273.159 91.8212C272.914 91.8169 272.672 91.7685 272.445 91.6783C272.011 91.4868 271.672 91.1307 271.501 90.6886C271.33 90.2464 271.342 89.7545 271.534 89.3212L303.677 16.3033C303.909 15.6851 304.464 15.2456 305.119 15.1606C305.774 15.0756 306.422 15.359 306.804 15.8975C307.187 16.436 307.241 17.1415 306.945 17.7319L274.802 90.7676C274.512 91.4135 273.867 91.8268 273.159 91.8212Z" fill="#372168"/>
<path d="M293.391 110C293.009 110.007 292.637 109.881 292.338 109.643C291.956 109.361 291.702 108.94 291.632 108.471C291.561 108.002 291.68 107.524 291.963 107.143C309.677 83.1785 309.641 63.7856 309.641 63.5892C309.641 62.603 310.441 61.8035 311.427 61.8035C312.413 61.8035 313.213 62.603 313.213 63.5892C313.213 64.4285 313.213 84.3749 294.82 109.303C294.479 109.746 293.95 110.004 293.391 110Z" fill="#372168"/>
<path d="M298.909 102.607C298.449 102.605 298.008 102.426 297.677 102.107C296.985 101.411 296.985 100.286 297.677 99.5893C298.409 98.8214 315.766 80.7857 331.463 75.8036C332.404 75.5077 333.408 76.0314 333.704 76.9732C334 77.9151 333.476 78.9184 332.534 79.2143C317.713 83.9107 300.391 101.875 300.266 102.054C299.914 102.424 299.42 102.625 298.909 102.607Z" fill="#372168"/>
<path d="M296.605 105.428C296.209 105.422 295.826 105.284 295.516 105.036C294.739 104.433 294.595 103.315 295.195 102.536L338.052 47.732C338.425 47.1754 339.077 46.8742 339.743 46.9518C340.408 47.0293 340.974 47.4727 341.208 48.1001C341.443 48.7275 341.307 49.4334 340.855 49.9284L297.998 104.732C297.665 105.165 297.152 105.422 296.605 105.428Z" fill="#372168"/>
<path d="M316.498 120.125C315.773 120.129 315.117 119.694 314.839 119.024C314.561 118.354 314.715 117.582 315.23 117.071L352.891 79.9107C353.596 79.2203 354.728 79.2323 355.418 79.9374C356.108 80.6426 356.096 81.7739 355.391 82.4642L317.748 119.607C317.416 119.937 316.967 120.123 316.498 120.125Z" fill="#372168"/>
<path d="M316.48 120.125C316.069 120.122 315.672 119.976 315.355 119.714C314.988 119.414 314.754 118.98 314.708 118.507C314.661 118.035 314.804 117.563 315.105 117.196C323.57 106.982 324.034 93.1427 324.034 93.0177C324.034 92.0315 324.834 91.232 325.82 91.232C326.806 91.232 327.605 92.0315 327.605 93.0177C327.605 93.6427 327.088 108.232 317.873 119.393C317.547 119.839 317.033 120.11 316.48 120.125Z" fill="#372168"/>
<path d="M316.498 120.125C315.773 120.129 315.117 119.694 314.839 119.024C314.561 118.354 314.715 117.582 315.23 117.071C325.802 106.643 342.498 104.928 343.213 104.875C344.194 104.781 345.065 105.501 345.159 106.482C345.252 107.463 344.533 108.334 343.552 108.428C343.391 108.428 327.391 110.089 317.748 119.607C317.416 119.937 316.967 120.123 316.498 120.125Z" fill="#372168"/>
<path d="M247.516 86.6247C246.53 86.6247 245.73 85.8252 245.73 84.839L245.141 -0.607413C245.141 -1.59364 245.941 -2.39313 246.927 -2.39313C247.913 -2.39313 248.713 -1.59364 248.713 -0.607413L249.302 84.8569C249.302 85.8431 248.502 86.6426 247.516 86.6426V86.6247Z" fill="#372168"/>
</g>
<path fill-rule="evenodd" clip-rule="evenodd" d="M0 250C0 111.929 111.929 0 250 0C388.071 0 500 111.929 500 250C500 388.071 388.071 500 250 500C111.929 500 0 388.071 0 250ZM492.857 250C492.857 115.874 384.126 7.14286 250 7.14286C115.874 7.14286 7.14286 115.874 7.14286 250C7.14286 384.126 115.874 492.857 250 492.857C384.126 492.857 492.857 384.126 492.857 250Z" fill="#372168"/>
</svg>
