<svg width="500" height="500" viewBox="0 0 500 500" fill="none" xmlns="http://www.w3.org/2000/svg">
<path fill-rule="evenodd" clip-rule="evenodd" d="M250 496.429C386.099 496.429 496.429 386.099 496.429 250C496.429 113.901 386.099 3.57141 250 3.57141C113.901 3.57141 3.57153 113.901 3.57153 250C3.57153 386.099 113.901 496.429 250 496.429Z" fill="#E7EEFF"/>
<mask id="mask0_0_288" style="mask-type:alpha" maskUnits="userSpaceOnUse" x="3" y="3" width="494" height="494">
<path fill-rule="evenodd" clip-rule="evenodd" d="M250 496.429C386.099 496.429 496.429 386.099 496.429 250C496.429 113.901 386.099 3.57141 250 3.57141C113.901 3.57141 3.57153 113.901 3.57153 250C3.57153 386.099 113.901 496.429 250 496.429Z" fill="white"/>
</mask>
<g mask="url(#mask0_0_288)">
<path fill-rule="evenodd" clip-rule="evenodd" d="M336.359 210.077L336.357 210.036C337.536 196.964 339.357 159.232 324.071 134.357C305.536 104.339 275.161 95.5535 249.464 95.9821C223.732 95.5535 193.357 104.339 174.821 134.357C159.554 159.125 161.375 196.911 162.571 209.929V210.03C158.281 208.601 153.604 208.884 149.518 210.821C140.161 215.268 136.089 230.125 145.018 243.714C151.783 254.04 163.198 255.882 171.903 253.893C172.226 254.732 172.545 255.575 172.861 256.412C173.129 257.12 173.395 257.825 173.661 258.518L174.768 261.286C180.393 275.65 188.675 288.826 199.179 300.125C203.705 304.911 208.768 309.159 214.268 312.786C224.14 319.474 235.722 323.192 247.643 323.5H251.214C263.136 323.197 274.719 319.478 284.589 312.786C288.752 310.04 292.665 306.938 296.286 303.517C292.663 306.963 288.743 310.089 284.571 312.857C274.702 319.55 263.118 323.269 251.196 323.571H247.625C235.705 323.264 224.122 319.545 214.25 312.857C208.75 309.231 203.687 304.982 199.161 300.196V359.357C200.071 365.125 211.625 370.054 227.982 372.357C234.864 373.312 241.803 373.796 248.75 373.804H250C256.948 373.796 263.886 373.312 270.768 372.357C287.214 369.982 298.804 365.071 299.607 359.268V300.201L299.696 300.107C310.194 288.814 318.47 275.644 324.089 261.286L325.196 258.518C325.814 257.001 326.396 255.431 326.961 253.878C335.674 255.891 347.129 254.065 353.911 243.714C362.768 230.125 358.768 215.268 349.375 210.875C345.301 208.942 340.638 208.656 336.359 210.077ZM168.304 242.786C168.661 244.021 169.028 245.245 169.406 246.457C169.011 245.278 168.62 244.09 168.232 242.893C167.946 241.946 167.607 240.768 167.393 239.964L167.392 239.962L167.392 239.96C167.178 239.157 166.893 238.088 166.75 237.482C166.693 237.24 166.648 237.035 166.601 236.825L166.6 236.823C166.53 236.507 166.457 236.179 166.339 235.696C166.241 235.295 166.156 234.879 166.071 234.464C165.987 234.049 165.902 233.634 165.804 233.232C165.607 232.429 165.446 231.625 165.286 230.786L165.179 230.232C164.982 229.161 164.786 228.071 164.607 226.964C164.464 226.19 164.339 225.405 164.232 224.607C164.214 224.515 164.194 224.422 164.174 224.328L164.173 224.326C164.096 223.968 164.018 223.603 164.018 223.25C163.857 222.125 163.696 220.982 163.554 219.821C163.387 218.548 163.244 217.315 163.125 216.125C163.018 215.625 162.964 215.125 162.964 214.625C162.964 214.625 163.089 214.286 162.964 214.018C162.896 213.872 162.892 213.638 162.887 213.419C162.884 213.235 162.88 213.062 162.839 212.964C162.784 212.833 162.784 212.809 162.779 212.682C162.775 212.602 162.771 212.481 162.75 212.268L162.74 212.171L162.733 212.101C162.738 212.123 162.744 212.143 162.75 212.161C162.791 212.274 162.787 212.34 162.783 212.418C162.777 212.512 162.771 212.623 162.839 212.857C162.907 213.091 162.912 213.266 162.916 213.441C162.92 213.587 162.924 213.732 162.964 213.911C163.054 214.304 163.054 214.518 163.054 214.518C163.068 214.718 163.094 214.918 163.119 215.118C163.158 215.418 163.196 215.718 163.196 216.018C163.312 217.177 163.459 218.368 163.594 219.46L163.625 219.714C163.768 220.875 163.929 222.018 164.089 223.143C164.114 223.298 164.137 223.456 164.16 223.614C164.202 223.91 164.245 224.209 164.304 224.5C164.411 225.298 164.536 226.083 164.679 226.857C164.857 227.964 165.054 229.054 165.25 230.125L165.357 230.679C165.438 231.098 165.527 231.5 165.616 231.902C165.705 232.304 165.795 232.705 165.875 233.125C165.967 233.603 166.087 234.133 166.197 234.617C166.28 234.981 166.357 235.321 166.411 235.589C166.536 236.214 166.679 236.804 166.821 237.375L166.933 237.814C167.097 238.458 167.245 239.038 167.464 239.857C167.732 240.857 168.018 241.839 168.304 242.786ZM162.634 211.15C162.641 211.261 162.649 211.369 162.657 211.471C162.623 211.182 162.595 210.883 162.59 210.571C162.607 210.764 162.621 210.961 162.634 211.15Z" fill="#FFD6CB"/>
<path d="M28.5708 496.428C28.9184 495.049 29.1005 494.313 29.4546 492.974C29.7008 492.043 29.9443 491.122 30.1786 490.214C31.1786 486.643 32.1965 483.071 33.2322 479.804C33.3562 479.409 33.4801 479.016 33.6035 478.626C33.8712 477.778 34.1362 476.938 34.3929 476.107C34.6786 475.214 34.9643 474.321 35.25 473.5C36.0357 471.143 36.8215 468.857 37.6072 466.661C39.381 461.732 41.1667 457.196 42.9643 453.054C43.4108 452 43.8572 450.964 44.3036 449.964L44.5715 449.375C45.5358 447.161 46.5179 445.089 47.5 443.125C50.2915 437.275 53.6024 431.687 57.3929 426.429C57.443 426.353 57.497 426.282 57.5494 426.213L57.5495 426.213C57.6091 426.134 57.6668 426.058 57.7143 425.982C58.6965 424.696 59.6429 423.536 60.5536 422.536L60.6608 422.411C61.3021 421.689 61.9834 420.988 62.6598 420.291C62.8874 420.057 63.1145 419.823 63.3393 419.589C69.0979 413.797 75.4345 408.609 82.25 404.107L84.3215 402.732C85.3691 402.042 86.4405 401.363 87.5358 400.696C90.1786 399.054 92.8929 397.464 95.6965 395.911C100.321 393.339 105.107 390.911 109.982 388.607C115.875 385.821 121.875 383.25 127.839 380.821L131.893 379.214C133.054 378.75 134.232 378.304 135.464 377.875C140.679 375.893 145.857 374.071 150.911 372.375C160.696 369.089 169.964 366.339 178.143 364.071C186.607 361.732 193.857 359.911 199.196 358.625C199.17 358.874 199.17 359.126 199.196 359.375C200.107 365.143 211.696 370.089 228.018 372.375C234.899 373.33 241.838 373.814 248.786 373.821H250.036C256.983 373.814 263.922 373.33 270.804 372.375C287.25 370.054 298.839 365.089 299.643 359.286C299.661 359.066 299.661 358.845 299.643 358.625C305 359.929 312.321 361.75 320.839 364.107C328.982 366.357 338.196 369.107 347.929 372.375C354.107 374.446 360.429 376.714 366.875 379.214C370.149 380.476 373.417 381.804 376.679 383.196L380.411 384.786L383.411 386.107C390.143 389.143 396.768 392.393 403.054 395.911C406.982 398.089 410.804 400.357 414.446 402.732L415.464 403.411C417.25 404.554 419.036 405.732 420.607 406.982C425.886 410.723 430.838 414.905 435.411 419.482C436.375 420.446 437.304 421.429 438.196 422.429C439.287 423.635 440.312 424.899 441.268 426.214V426.321C442.089 427.429 442.946 428.643 443.786 429.893C446.514 434.095 448.983 438.46 451.179 442.964C452.232 445.107 453.286 447.375 454.375 449.804C455.054 451.339 455.732 452.929 456.411 454.571C456.875 455.677 457.326 456.811 457.787 457.974L457.946 458.375C458.958 460.946 459.976 463.655 461 466.5C461.786 468.696 462.571 470.982 463.357 473.339C464.262 476.113 465.173 478.994 466.089 481.982C466.219 482.421 466.351 482.862 466.484 483.306L466.488 483.32L466.489 483.323C466.738 484.154 466.989 484.993 467.232 485.839L467.341 486.218C467.689 487.426 468.073 488.762 468.429 490.054C469.054 492.268 469.089 494.089 469.642 496.428H28.5708Z" fill="#A0BEFF"/>
<g style="mix-blend-mode:soft-light" opacity="0.8">
<path d="M320.929 364.089C316.518 370.839 309.143 376.197 299.679 380.161C291.583 383.427 283.114 385.677 274.465 386.857C257.921 389.19 241.133 389.19 224.59 386.857C215.891 385.664 207.373 383.396 199.232 380.107C189.822 376.143 182.5 370.786 178.107 364.036C186.572 361.696 193.822 359.875 199.161 358.589C199.135 358.839 199.135 359.09 199.161 359.339C200.072 365.107 211.661 370.054 227.982 372.339C234.864 373.295 241.803 373.778 248.75 373.786H250C256.948 373.778 263.887 373.295 270.768 372.339C287.215 370.018 298.804 365.054 299.607 359.25C299.625 359.03 299.625 358.809 299.607 358.589C305.107 359.911 312.411 361.732 320.929 364.089Z" fill="white"/>
</g>
<g style="mix-blend-mode:multiply" opacity="0.15">
<path fill-rule="evenodd" clip-rule="evenodd" d="M296.036 303.786V356.107C251.536 356.804 218.571 333.893 202.839 320.197V303.75C206.378 307.132 210.222 310.181 214.321 312.857C224.196 319.539 235.777 323.257 247.696 323.572H251.268C263.187 323.257 274.767 319.539 284.643 312.857C288.703 310.179 292.516 307.143 296.036 303.786Z" fill="#7C3830"/>
</g>
<path fill-rule="evenodd" clip-rule="evenodd" d="M251.405 92.502L249.607 92.518C229.965 92.1608 193.786 96.9644 172.107 132.572C158.313 154.962 157.857 186.762 158.887 204.188L158.974 205.569C155.23 205.217 151.43 205.875 147.982 207.518C142.75 210.188 138.924 214.984 137.482 220.679C135.315 229.276 136.969 238.391 142.018 245.679L142.367 246.206C147.562 253.862 156.293 258.382 165.572 258.179C166.928 258.145 168.279 258.026 169.616 257.82C169.875 258.516 170.14 259.213 170.411 259.911L171.518 262.697C177.149 276.991 185.317 290.146 195.623 301.528L195.714 301.627L195.715 355.745C189.544 357.258 183.316 358.893 177.018 360.625C167.286 363.322 158.322 366.054 149.607 368.982C143.947 370.947 138.839 372.732 134.054 374.518C133.649 374.661 133.268 374.802 132.89 374.945L129.121 376.404C128.211 376.762 127.298 377.131 126.393 377.5L123.777 378.554C118.55 380.687 113.355 382.972 108.304 385.375C103.161 387.804 98.2681 390.286 93.8038 392.786C90.7323 394.5 88.0181 396.089 85.5359 397.625L84.686 398.147C83.844 398.67 83.027 399.192 82.2502 399.714C81.5181 400.179 80.7859 400.661 80.1252 401.125C73.1183 405.706 66.5965 410.989 60.6609 416.893C60.1084 417.526 59.5607 418.08 59.0418 418.606C58.6385 419.014 58.2522 419.406 57.8931 419.804L57.7681 419.964C56.8395 420.964 55.8395 422.179 54.7324 423.643C54.6629 423.719 54.603 423.803 54.5538 423.893L54.3752 424.125L53.4065 425.488C49.8928 430.513 46.8003 435.821 44.1609 441.357C43.2936 442.952 42.5902 444.473 41.9337 445.961L41.1609 447.732L40.4341 449.368C40.1312 450.062 39.8335 450.768 39.5359 451.482L38.9407 452.892C37.3534 456.697 35.7661 460.857 34.1788 465.286C33.3931 467.5 32.5895 469.822 31.8038 472.197L31.5048 473.081L30.9109 474.875L29.3308 479.975C28.7465 481.87 28.1571 483.86 27.5661 485.923L26.6788 489.072C26.397 490.181 26.1022 491.308 25.8051 492.444L25.8033 492.45C25.4985 493.615 25.1912 494.79 24.8931 495.964L24.4109 497.75C24.2591 498.339 24.2617 499.386 24.1077 500H475.001L473.607 495.268C473.607 495.268 472.5 491.089 471.929 489.089C471.643 488.036 471.34 486.964 471.036 485.929L470.732 484.839L469.572 480.929C469.114 479.523 468.684 478.141 468.261 476.782L468.26 476.777L468.259 476.775C467.774 475.218 467.299 473.692 466.804 472.197C466.018 469.822 465.214 467.5 464.429 465.286C463.375 462.411 462.34 459.607 461.322 457.054L461.161 456.607C460.697 455.429 460.232 454.286 459.768 453.197C459.089 451.518 458.393 449.911 457.697 448.339C456.813 446.371 455.999 444.603 455.218 442.96L454.447 441.357C452.18 436.743 449.646 432.265 446.857 427.947C446.494 427.435 446.143 426.92 445.786 426.397L445.785 426.395L445.78 426.388L445.776 426.382L445.775 426.38C445.276 425.649 444.766 424.902 444.197 424.125L444.054 423.947C442.893 422.375 441.786 421.018 440.84 419.982C439.893 418.947 438.911 417.893 437.929 416.911C433.212 412.19 428.105 407.877 422.661 404.018C420.875 402.732 419.107 401.518 417.447 400.447C417.072 400.197 416.697 399.929 416.375 399.732L415.181 398.96C411.971 396.905 408.544 394.879 404.75 392.768C398.697 389.411 392.179 386.161 384.786 382.839L381.732 381.5L380.786 381.089L378 379.893C374.804 378.536 371.572 377.232 368.089 375.875C362.036 373.518 355.786 371.268 348.982 368.982C340.197 366.018 331.018 363.232 321.714 360.661C316.142 359.113 311.158 357.818 307.021 356.777L303.177 355.82L303.18 301.868C313.65 290.402 321.936 277.114 327.625 262.661L328.75 259.839C328.994 259.208 329.236 258.57 329.475 257.934C330.756 258.092 332.047 258.174 333.34 258.179C342.78 258.374 351.652 253.682 356.804 245.768L357.228 245.139C361.94 237.958 363.446 229.123 361.357 220.768C359.904 215.074 356.072 210.281 350.839 207.607C347.544 206.034 343.923 205.364 340.34 205.62C341.456 188.522 341.341 155.535 327.197 132.589C305.857 98.0331 271.243 92.4936 251.405 92.502ZM174.31 368.941L176.707 368.261C181.449 374.391 188.538 379.467 197.822 383.375C206.269 386.798 215.112 389.149 224.143 390.375C232.577 391.587 241.087 392.184 249.607 392.161C258.096 392.211 266.576 391.644 274.982 390.464C283.919 389.235 292.669 386.908 301.036 383.536C310.438 379.612 317.599 374.466 322.363 368.291C330.744 370.648 339.002 373.193 346.947 375.857C353.643 378.107 359.786 380.322 365.732 382.643C369.143 383.964 372.322 385.25 375.465 386.589L379.161 388.161L382.089 389.464C389.286 392.697 395.643 395.857 401.518 399.125C405.607 401.411 409.286 403.607 412.75 405.857L414.713 407.143C416.03 408.014 417.375 408.943 418.732 409.929C423.828 413.559 428.607 417.616 433.018 422.054L433.027 422.063L433.028 422.064L433.031 422.067C433.92 422.973 434.826 423.898 435.697 424.893C436.703 425.999 437.645 427.162 438.518 428.375L438.679 428.572C439.554 429.732 440.304 430.839 441.036 431.964C443.67 436.043 446.056 440.277 448.179 444.643L448.549 445.396C449.169 446.67 449.807 448.032 450.479 449.51L451.304 451.339C451.982 452.857 452.643 454.411 453.322 456.054L453.768 457.136C454.066 457.865 454.363 458.607 454.661 459.357L454.822 459.786C455.804 462.268 456.822 464.964 457.839 467.804L458.426 469.443C459.009 471.102 459.585 472.813 460.161 474.554L460.71 476.209C461.439 478.434 462.161 480.727 462.875 483.089L463.286 484.464L464.322 488C464.411 488.319 464.502 488.639 464.594 488.962C464.796 489.67 465 490.389 465.197 491.125L465.75 493.124L33.0362 492.857L34.0604 489.595C34.9505 486.424 35.8373 483.426 36.6966 480.661L37.8574 476.982C37.9278 476.766 37.9972 476.553 38.066 476.341L38.0746 476.314L38.077 476.307C38.2834 475.671 38.4851 475.05 38.6966 474.429L39.1662 473.034C39.7902 471.186 40.4074 469.389 41.0359 467.661C42.6966 462.804 44.4824 458.304 46.2681 454.232C46.6966 453.214 47.1431 452.197 47.5716 451.232L48.3808 449.399C49.0916 447.809 49.8574 446.2 50.7145 444.5C53.4042 438.864 56.6019 433.484 60.2681 428.429L60.6252 427.929L60.9123 427.567C61.7565 426.502 62.4952 425.571 63.0895 424.929L63.3574 424.643C64.1074 423.75 65.0002 422.857 65.8931 421.964C71.4951 416.4 77.6454 411.416 84.2502 407.089L86.2859 405.75C87.3038 405.089 88.3216 404.429 89.4109 403.768L90.3253 403.204C92.4835 401.882 94.8194 400.525 97.4288 399.072C101.75 396.714 106.482 394.304 111.5 391.929C117.268 389.197 123.214 386.607 129.214 384.232L130.403 383.75L134.381 382.179C135.139 381.883 135.905 381.589 136.679 381.304L138.107 380.768C141.462 379.517 144.969 378.262 148.722 376.972L152 375.857C159.158 373.447 166.502 371.172 174.31 368.941ZM184.393 366.157C188.516 365.055 192.642 363.992 196.732 362.982C201.168 370.959 217.454 374.461 226.094 375.788L227.536 376C234.583 376.981 241.689 377.476 248.804 377.482H250.072C257.181 377.477 264.281 376.981 271.322 376C279.216 374.897 296.294 371.631 301.647 363.858C301.843 363.578 302.024 363.293 302.189 363.002L302.186 363.002L302.25 362.893C302.23 362.93 302.21 362.966 302.189 363.002C304.675 363.572 307.543 364.297 310.758 365.145L314.781 366.219C310.113 370.867 304.525 374.491 298.375 376.857L296.904 377.436C289.53 380.27 281.85 382.239 274.018 383.304C257.825 385.589 241.39 385.589 225.197 383.304C216.793 382.154 208.564 379.971 200.697 376.804C194.553 374.41 188.976 370.761 184.322 366.089L184.393 366.157ZM202.804 308.572V358.947C203.589 361.697 211.875 366.429 228.554 368.768C235.275 369.706 242.053 370.177 248.839 370.179H250.072C256.852 370.176 263.624 369.705 270.34 368.768C277.467 367.762 283.059 366.326 287.189 364.797L287.549 364.661C293.011 362.567 295.752 360.324 295.964 358.786C295.966 358.443 296.014 358.107 296.105 357.784L296.108 308.727C293.577 310.92 290.923 312.971 288.159 314.868L286.768 315.804C277.842 321.844 267.593 325.583 256.933 326.73C255.026 326.945 253.107 327.077 251.179 327.125H247.697L247.583 327.12L247.554 327.125C245.591 327.072 243.637 326.932 241.697 326.706L239.892 326.47L238.853 326.312L237.354 326.054L236.156 325.822C228.056 324.177 220.306 321.02 213.323 316.484L212.375 315.857C209.015 313.66 205.817 311.225 202.804 308.572ZM247.787 99.6839L249.465 99.6965C267.482 99.4108 300.768 103.75 320.893 136.375C335.178 159.533 333.806 195.554 332.772 208.258L332.643 209.75V209.982L335.894 210.257L332.697 210.179L332.695 210.199L332.643 210.197C332.56 211 332.48 211.699 332.412 212.273L332.179 214.072C332.17 214.173 332.17 214.274 332.179 214.375L332.072 215.732C331.786 218.304 331.518 220.518 331.161 222.875C330.804 225.232 330.411 227.518 330 229.679L329.793 230.775C329.649 231.508 329.494 232.238 329.34 232.929L328.883 234.995L328.643 236.018V236.179C328.527 236.679 328.406 237.152 328.286 237.612L327.929 238.964L327.93 239.159C327.69 240.117 327.433 240.953 327.161 241.822L326.784 243.038L326.453 244.077L326.375 244.304C325.572 246.929 324.661 249.661 323.572 252.661V252.839C323.142 254.042 322.69 255.244 322.251 256.409L321.929 257.268L320.266 261.407C314.81 274.796 306.985 287.096 297.161 297.714L297.491 297.352C297.344 297.461 297.203 297.582 297.072 297.714C292.739 302.311 287.885 306.386 282.607 309.857L281.732 310.443C272.643 316.406 262.061 319.714 251.179 319.982H247.697C247.338 319.973 246.979 319.96 246.62 319.944L245.709 319.896L244.376 319.798C234.345 318.949 224.68 315.534 216.322 309.857L215.113 309.046C210.31 305.76 205.871 301.967 201.875 297.732C201.772 297.623 201.663 297.522 201.546 297.433C191.505 286.512 183.571 273.827 178.143 260.018L177.054 257.304C176.869 256.822 176.685 256.331 176.5 255.837L175.393 252.857L175.072 252.679C173.822 249.197 172.625 245.536 171.5 241.822C171.375 241.395 171.233 240.889 171.099 240.407L171.097 240.402L170.967 239.935L170.598 238.661C170.532 238.425 170.466 238.167 170.398 237.893L169.991 236.244C169.968 236.145 169.946 236.047 169.924 235.946C169.907 235.869 169.889 235.79 169.872 235.71C169.812 235.434 169.747 235.137 169.661 234.786L169.484 234.042C169.367 233.54 169.256 233.024 169.161 232.5V232.322C168.982 231.589 168.822 230.839 168.679 230.036L168.572 229.536L167.877 225.542C167.796 225.064 167.72 224.572 167.661 224.072C167.661 224.048 167.675 224.042 167.689 224.036C167.716 224.024 167.744 224.012 167.661 223.857C167.536 223.625 167.536 223.375 167.536 223.143V222.679C167.482 222.316 167.431 221.945 167.38 221.57L166.954 218.447C166.841 217.577 166.737 216.67 166.643 215.732L166.543 214.826L166.518 214.375C166.528 214.262 166.528 214.149 166.518 214.036L166.321 212.39L166.322 211.75C166.31 211.605 166.289 211.447 166.266 211.274C166.218 210.912 166.161 210.483 166.161 209.964L166.15 209.69C166.129 209.418 166.078 209.153 165.998 208.899L165.907 207.817C164.874 194.745 163.647 159.321 177.804 136.375C197.342 104.729 229.281 99.6966 247.787 99.6839ZM340.114 212.879L339.767 212.935L339.563 214.58C339.537 214.767 339.516 214.908 339.5 215L339.393 216.339C339.127 218.824 338.862 221.062 338.56 223.078L338.429 223.929L338.334 224.52L338.333 224.528C337.999 226.619 337.623 228.971 337.232 231.072C337.089 231.857 336.939 232.627 336.78 233.392L336.536 234.536L336.479 234.795C336.255 235.819 336.07 236.666 335.839 237.589V237.768L335.67 238.453C338.062 238.329 340.29 237.109 341.679 235.107C343.397 232.746 343.679 229.631 342.411 227C341.88 226.171 342.119 225.069 342.947 224.536C343.775 224.005 344.878 224.244 345.411 225.072C347.292 228.649 347.173 232.947 345.098 236.415C343.023 239.883 339.291 242.02 335.25 242.054L335.322 242.089C335.12 242.089 334.919 242.081 334.718 242.067L334.461 242.971L334.197 243.857C333.893 244.857 333.643 245.643 333.339 246.5C332.897 247.941 332.408 249.455 331.871 251.043L331.732 251.036C339.141 251.719 346.329 248.374 350.581 242.306L350.911 241.822C354.771 236.266 356.071 229.326 354.482 222.75C353.59 219.044 351.152 215.897 347.786 214.107C345.57 213.04 343.112 212.598 340.676 212.816L340.114 212.879ZM151.036 214.054C152.87 213.175 154.877 212.717 156.911 212.714C157.733 212.727 158.552 212.817 159.357 212.982V213.393C159.413 213.589 159.416 213.756 159.418 213.913C159.42 214.058 159.422 214.194 159.464 214.339C159.518 214.522 159.54 214.678 159.548 214.805L159.554 215.018C159.583 215.508 159.636 215.997 159.714 216.482C159.756 216.911 159.802 217.337 159.849 217.761L160.143 220.25C160.286 221.464 160.447 222.625 160.625 223.822V224.232L160.786 225.197C160.84 225.607 160.902 226.018 160.967 226.415L161.35 228.679C161.465 229.334 161.589 229.991 161.713 230.653L161.768 230.947L161.857 231.464L162.462 234.334L162.929 236.447L163.357 238.232V238.429L163.375 238.499C160.829 238.501 158.422 237.251 156.964 235.125C155.259 232.765 154.985 229.659 156.25 227.036C156.781 226.207 156.542 225.105 155.715 224.572C154.886 224.04 153.784 224.28 153.25 225.107C151.369 228.684 151.488 232.983 153.563 236.451C155.638 239.919 159.37 242.055 163.411 242.089C163.716 242.095 164.021 242.085 164.325 242.061L164.433 242.052L164.59 242.036C164.537 242.042 164.485 242.047 164.433 242.052C164.397 242.055 164.361 242.058 164.325 242.061L164.321 242.061L164.84 243.839C165.572 246.268 166.322 248.643 167.107 250.982C159.504 251.688 152.13 248.145 147.929 241.768L147.55 241.208C143.974 235.755 142.811 229.052 144.357 222.697C145.244 218.992 147.675 215.846 151.036 214.054Z" fill="#372168"/>
<path fill-rule="evenodd" clip-rule="evenodd" d="M302.189 363.002C302.21 362.966 302.23 362.93 302.25 362.893L302.186 363.002L302.189 363.002ZM164.433 242.052L164.59 242.036C164.537 242.042 164.485 242.047 164.433 242.052Z" fill="#372168"/>
<g style="mix-blend-mode:multiply" opacity="0.15">
<path fill-rule="evenodd" clip-rule="evenodd" d="M218.75 249.583C218.75 260.484 210.755 269.32 200.893 269.32C191.031 269.32 183.036 260.484 183.036 249.583C183.036 238.683 191.031 229.846 200.893 229.846C210.755 229.846 218.75 238.683 218.75 249.583ZM315.179 249.583C315.179 260.484 307.184 269.32 297.322 269.32C287.459 269.32 279.464 260.484 279.464 249.583C279.464 238.683 287.459 229.846 297.322 229.846C307.184 229.846 315.179 238.683 315.179 249.583Z" fill="#FF1300"/>
</g>
<path fill-rule="evenodd" clip-rule="evenodd" d="M271.482 258.089C272.017 258.098 272.524 258.327 272.883 258.723C273.241 259.119 273.42 259.646 273.375 260.179C271.814 272.451 261.372 281.649 249 281.649C236.629 281.649 226.186 272.451 224.625 260.179C224.581 259.646 224.759 259.119 225.118 258.723C225.477 258.327 225.984 258.098 226.518 258.089L271.482 258.089Z" fill="#FF6666"/>
<path fill-rule="evenodd" clip-rule="evenodd" d="M221.518 260.464C222.965 274.477 234.916 285.038 249 284.75C263.084 285.038 275.036 274.477 276.482 260.464C276.613 259.058 276.145 257.662 275.193 256.619C274.242 255.575 272.894 254.981 271.482 254.982H226.518C225.106 254.981 223.758 255.575 222.807 256.619C221.855 257.662 221.387 259.058 221.518 260.464ZM249 278.863C238.63 278.863 229.749 271.438 227.911 261.232H270.089C268.251 271.438 259.37 278.863 249 278.863Z" fill="#372168"/>
<path fill-rule="evenodd" clip-rule="evenodd" d="M249.054 292.732C237.161 292.732 233.875 281.25 233.179 271.946C233.079 270.512 233.581 269.101 234.563 268.051C235.545 267.002 236.92 266.407 238.357 266.411H259.786C261.219 266.407 262.588 267 263.567 268.046C264.546 269.093 265.046 270.499 264.946 271.929C264.25 281.214 261.054 292.732 249.054 292.732Z" fill="#FF7D7D"/>
<path fill-rule="evenodd" clip-rule="evenodd" d="M230.071 272.179C231.196 287.446 237.964 295.857 249.054 295.857C260.196 295.857 266.946 287.446 268.071 272.179C268.251 269.872 267.458 267.595 265.884 265.9C264.31 264.204 262.099 263.243 259.786 263.25H238.357C236.04 263.232 233.822 264.189 232.246 265.888C230.67 267.586 229.881 269.869 230.071 272.179ZM236.821 270.179C237.22 269.769 237.768 269.537 238.339 269.536H259.75C260.318 269.531 260.862 269.764 261.25 270.179C261.642 270.589 261.837 271.149 261.786 271.714C260.929 283.554 256.607 289.571 249.036 289.571C241.464 289.571 237.179 283.589 236.286 271.714C236.241 271.15 236.435 270.593 236.821 270.179Z" fill="#372168"/>
<path d="M249.054 277.875C248.067 277.875 247.268 277.076 247.268 276.089V266.411C247.268 265.424 248.067 264.625 249.054 264.625C250.04 264.625 250.839 265.424 250.839 266.411V276.089C250.839 277.076 250.04 277.875 249.054 277.875Z" fill="#372168"/>
<path d="M249.059 246.94C245.159 246.992 241.492 245.089 239.291 241.869C238.354 240.419 238.77 238.484 240.219 237.547C241.669 236.61 243.604 237.026 244.541 238.476C245.628 239.89 247.316 240.711 249.099 240.693C250.882 240.676 252.553 239.822 253.612 238.387C254.51 236.907 256.437 236.436 257.916 237.333C259.395 238.23 259.867 240.157 258.969 241.637C256.809 245.003 253.058 247.01 249.059 246.94Z" fill="#372168"/>
<path d="M291.727 222.536H280.781C278.808 222.536 277.209 220.937 277.209 218.964C277.209 216.992 278.808 215.393 280.781 215.393H291.727C293.7 215.393 295.299 216.992 295.299 218.964C295.299 220.937 293.7 222.536 291.727 222.536Z" fill="#372168"/>
<path d="M213.1 225.125C221.028 225.125 221.046 212.803 213.1 212.803C205.153 212.803 205.153 225.125 213.1 225.125Z" fill="#372168"/>
<path d="M302.375 206.625C301.81 206.625 301.253 206.49 300.75 206.232C286.589 198.947 272.179 206.143 272.179 206.232C270.423 207.135 268.268 206.443 267.366 204.688C266.464 202.932 267.155 200.778 268.911 199.875C269.643 199.5 286.768 190.947 304.107 199.875C305.578 200.629 306.34 202.293 305.949 203.898C305.558 205.504 304.117 206.632 302.464 206.625H302.375Z" fill="#372168"/>
<path d="M196.679 206.625C195.178 206.626 193.836 205.689 193.321 204.279C192.805 202.87 193.227 201.288 194.375 200.321C195 199.786 209.75 187.661 228.679 192.518C229.957 192.797 230.98 193.752 231.346 195.009C231.712 196.265 231.362 197.62 230.433 198.542C229.504 199.464 228.146 199.804 226.893 199.429C211.464 195.464 199.071 205.679 198.946 205.786C198.311 206.321 197.509 206.617 196.679 206.625Z" fill="#372168"/>
<path d="M252.108 75.2613V75.1328C241.914 73.1623 182.623 64.3605 149.684 128.984C141.96 120.723 128.641 117.176 117.091 121.276C105.666 125.267 96.7573 134.36 93.0013 145.865C93.0013 145.865 86.162 160.74 97.9477 177.24C104.825 186.842 119.057 190.952 130.867 188.688C124.627 223.356 126.073 254.486 127.427 283.633C129.021 317.937 130.487 349.496 119.144 380.847C88.9834 464.276 82.8763 520.49 127.698 551.776C127.698 551.776 167.644 540.294 187.001 489.276C207.519 435.169 196.073 392.133 190.269 377.061C192.144 381.079 219.912 443.079 194.912 492.579C196.001 492.008 243.287 464.026 232.269 383.186C225.687 334.874 208.632 297.662 197.124 272.552C194.77 267.415 192.647 262.784 190.894 258.668C175.483 222.526 177.323 183.329 182.876 161.454C183.54 158.767 185.672 156.69 188.376 156.097C202.62 153.052 248.091 141.469 252.074 116.62C252.813 118.427 264.845 145.739 321.037 154.026C323.098 154.328 324.924 155.515 326.037 157.276C334.894 171.722 336.68 190.597 337.412 209.561C341.701 208.127 346.379 208.408 350.466 210.347C359.823 214.793 363.894 229.651 354.966 243.24C348.18 253.597 336.716 255.418 328.001 253.401C323.345 266.26 317.145 278.477 310.789 290.999C302.203 307.915 293.334 325.389 287.608 345.758C265.983 422.883 294.608 472.954 305.466 487.919C305.707 488.203 306.119 488.272 306.44 488.083C306.762 487.893 306.901 487.5 306.769 487.151C293.18 446.847 295.769 418.383 299.055 389.151C297.912 411.883 301.144 446.74 317.216 489.294C336.573 540.293 376.519 551.793 376.519 551.793C421.341 520.508 415.233 464.222 385.001 380.99C373.659 349.631 375.125 318.071 376.719 283.767C378.074 254.578 379.523 223.401 373.251 188.669C385.08 190.975 399.368 186.869 406.251 177.24C418.055 160.74 411.216 145.865 411.216 145.865C407.46 134.36 398.551 125.267 387.126 121.276C375.53 117.16 362.153 120.751 354.442 129.081C321.575 64.6712 262.503 73.1843 252.108 75.2613Z" fill="#FFB3C4"/>
<path fill-rule="evenodd" clip-rule="evenodd" d="M252.279 71.5205C268.914 68.6362 286.015 70.0369 301.965 75.5969C324.592 83.6683 342.517 99.5937 355.518 123.136C356.679 122.24 357.914 121.429 359.214 120.712L360.001 120.293C368.673 115.592 378.916 114.73 388.251 117.918C400.713 122.25 410.432 132.16 414.519 144.704L414.742 145.264C416.111 148.871 420.34 163.114 409.578 178.752L409.162 179.347C403.894 186.704 394.412 191.704 383.769 192.722L383.219 192.755L384.152 193.703C393.83 203.699 401.991 217.306 402.56 218.255L402.573 218.275C402.95 219.11 402.635 220.094 401.843 220.555C401.051 221.015 400.04 220.802 399.501 220.061L398.762 218.85C396.317 214.914 388.151 202.275 379.43 193.99L380.4 195.968C387.262 210.19 398.626 238.709 398.626 271.758C398.641 272.24 398.459 272.709 398.122 273.055C397.786 273.402 397.324 273.597 396.84 273.597C395.854 273.597 395.055 272.797 395.055 271.811C395.055 242.099 385.667 216.123 378.938 201.321C382.437 228.161 381.791 252.872 380.778 275.807L380.106 290.505C378.717 321.546 378.117 351.035 388.483 379.668C417.644 460.276 427.126 520.883 378.608 554.668C378.003 555.115 377.271 555.359 376.519 555.365C376.182 555.365 375.845 555.325 375.519 555.24L374.971 555.074C369.775 553.429 332.656 540.027 313.876 490.526C308.875 477.438 304.788 464.018 301.644 450.365C303.346 462.482 306.192 474.41 310.144 485.99C310.87 488.056 309.963 490.34 308.019 491.347C306.152 492.256 303.902 491.709 302.662 490.043L302.037 489.17C291.448 474.179 262.22 423.403 284.323 344.793C290.144 324.097 299.108 306.454 307.769 289.436C314.198 277.395 319.887 264.973 324.805 252.24C325.425 250.547 327.209 249.582 328.965 249.99C336.178 251.74 345.88 250.367 351.827 241.866L352.18 241.347C356.041 235.799 357.341 228.863 355.751 222.293C354.859 218.582 352.422 215.43 349.055 213.633C345.783 212.082 342.037 211.864 338.608 213.025C337.548 213.36 336.393 213.182 335.483 212.543C335.396 212.482 335.312 212.418 335.232 212.35C334.426 211.695 333.912 210.697 333.912 209.579C333.912 209.43 333.921 209.284 333.939 209.14L333.965 209.758L333.878 207.623C333.173 191.176 331.511 172.877 323.108 159.204C322.566 158.332 321.662 157.749 320.644 157.615C278.494 151.395 260.224 134.631 253.009 124.927C252.703 125.521 252.363 126.131 251.988 126.753L251.666 127.502C247.785 136.329 237.96 152.421 215.733 161.115C215.53 161.199 215.311 161.242 215.09 161.24C214.232 161.242 213.494 160.633 213.332 159.79C213.171 158.947 213.632 158.109 214.43 157.793C226.39 153.123 234.565 146.111 240.059 139.423C230.285 146.765 214.529 154.212 189.162 159.65C187.774 159.929 186.681 161 186.376 162.383L186.012 163.864C180.701 186.182 179.755 223.395 194.215 257.311L195.934 261.2C197.129 263.885 198.429 266.769 199.866 269.92L203.012 276.808C214.336 301.706 229.667 337.492 235.84 382.758C247.269 466.686 197.108 495.526 196.555 495.776C195.183 496.498 193.502 496.252 192.394 495.168C191.28 494.081 190.998 492.398 191.698 491.008C199.823 474.936 202.18 457.543 201.68 441.311C200.209 458.183 196.386 474.766 190.323 490.579C170.555 542.668 130.358 554.865 128.662 555.276C128.345 555.341 128.021 555.365 127.698 555.347C126.963 555.353 126.246 555.124 125.644 554.704C77.144 520.776 86.6262 460.24 115.787 379.704C126.322 350.559 125.527 320.545 124.089 288.894L123.57 277.488C122.589 255.308 121.843 231.532 124.79 205.785L124.159 207.221C117.576 222.377 109.287 247.002 109.287 274.901C109.287 275.887 108.487 276.686 107.501 276.686C106.515 276.686 105.715 275.887 105.715 274.901C105.715 240.24 118.215 210.615 124.912 197.15C114.519 206.99 104.948 223.008 104.84 223.204C104.337 224.052 103.242 224.332 102.394 223.829C101.546 223.326 101.266 222.231 101.769 221.383L102.719 219.825C105.622 215.153 114.645 201.28 124.296 192.883C123.03 192.882 121.747 192.877 120.43 192.686C109.715 191.668 100.323 186.668 95.0547 179.311C82.9833 162.436 88.6262 147.043 89.6976 144.668C93.7774 132.12 103.499 122.207 115.965 117.883C125.301 114.695 135.544 115.556 144.215 120.258C145.827 121.082 147.345 122.048 148.754 123.139C161.746 99.5795 179.686 83.6119 202.305 75.5433C218.348 69.9499 235.554 68.5663 252.279 71.5205ZM234.733 77.0776L236.275 77.0824C240.385 77.1301 244.488 77.4567 248.555 78.0612V116.061C246.612 127.611 230.247 142.986 190.13 152L187.644 152.543C187.039 152.67 186.452 152.847 185.889 153.072C189.358 143.975 193.488 136.11 195.231 132.926L196.073 131.418C196.516 130.57 196.212 129.524 195.384 129.045C194.555 128.566 193.497 128.825 192.983 129.633L192.927 129.732C192.129 131.135 185.273 143.191 180.752 156.773L180.309 158.133C179.929 158.871 179.632 159.661 179.43 160.49C179.039 162.027 178.669 163.637 178.321 165.316C177.804 167.555 177.393 169.784 177.128 171.964C173.498 195.571 174.461 229.104 187.626 259.99C188.85 262.87 190.228 265.939 191.76 269.297L196.046 278.658C207.245 303.214 222.636 338.744 228.751 383.597C236.049 437.164 217.278 466.619 204.339 480.095L203.555 480.901C218.354 435.657 197.992 385.68 194.1 376.831L193.629 375.782L193.626 375.704C193.436 375.155 193.118 374.659 192.698 374.258L192.464 374.057C191.26 373.111 189.57 373.032 188.277 373.894C187.092 374.684 186.508 376.084 186.736 377.448C186.758 377.652 186.798 377.856 186.857 378.059L186.911 378.223L186.912 378.293C186.957 378.415 187.009 378.533 187.068 378.644C191.71 390.842 204.444 433.239 183.68 487.99C176.133 507.921 165.267 521.638 155.045 530.891C152.72 522.317 149.412 502.539 161.215 484.401C161.623 483.869 161.699 483.153 161.411 482.547C161.124 481.942 160.521 481.549 159.851 481.529C159.181 481.509 158.556 481.867 158.233 482.454L157.779 483.163C145.244 503.022 149.284 524.036 151.79 532.625L152.052 533.497C143.077 540.99 134.927 545.066 130.425 546.971L129.762 547.247C126.82 538.913 125.037 530.211 124.465 521.383C123.09 504.99 124.34 479.115 138.126 448.99L138.714 447.693C152.492 417.078 155.954 391.097 156.412 374.597L156.45 372.885C156.719 356.559 154.307 346.693 153.966 345.391L153.868 345.051C153.673 344.514 153.229 344.098 152.67 343.943C152.041 343.767 151.367 343.949 150.912 344.416C150.456 344.884 150.292 345.562 150.483 346.186L150.587 346.595C151.079 348.632 153.134 358.172 152.878 373.027L152.84 374.668C152.358 391.026 148.858 416.954 134.876 447.508L134.244 448.905C114.305 493.522 120.77 529.515 125.051 544.284L125.445 545.607C85.682 513.664 95.4576 456.967 122.555 382.061C133.194 352.668 132.802 323.003 131.423 291.852L130.788 278.059C129.103 240.839 128.014 198.886 144.376 150.99C166.198 87.0612 209.733 77.0776 234.733 77.0776ZM255.678 78.042L255.679 115.816L255.912 116.264C258.768 121.607 273.25 143.257 321.519 150.383C324.626 150.819 327.377 152.62 329.019 155.293C337.948 169.793 339.948 188.275 340.751 205.097C343.64 204.749 346.471 205.041 349.095 205.869C353.509 141.862 323.137 126.911 321.447 126.079L321.417 126.064C321.395 126.053 321.381 126.047 321.376 126.043C320.742 125.831 320.279 125.281 320.178 124.62C320.077 123.958 320.354 123.296 320.896 122.903C321.378 122.555 321.997 122.471 322.548 122.67L323.2 122.962C327.455 124.999 357.512 141.725 352.583 207.343C357.387 209.948 361.081 214.503 362.448 220.168C364.519 228.496 363.013 237.298 358.317 244.452L357.894 245.079C353.781 251.353 347.41 255.575 340.328 257.062L339.194 259.442C332.325 273.974 311.355 320.577 306.912 355.865C306.795 356.753 306.04 357.417 305.144 357.418H304.912C303.936 357.289 303.25 356.394 303.376 355.418C307.892 319.401 329.305 271.979 336.105 257.612C334.172 257.719 332.211 257.622 330.251 257.311C325.435 269.32 319.981 281.063 313.912 292.49L311.357 297.539C303.686 312.749 296.062 328.581 290.983 346.597C275.323 402.293 286.305 443.24 297.198 466.651C290.162 435.097 292.894 410.651 295.412 388.633C295.418 388.581 295.425 388.531 295.433 388.48C295.437 388.451 295.442 388.422 295.448 388.394C295.457 388.345 295.466 388.297 295.477 388.25C295.467 388.461 295.457 388.672 295.448 388.883L295.479 388.244L295.477 388.25C295.708 383.55 296.194 378.866 296.931 374.219L297.233 372.401C297.509 370.428 299.332 369.053 301.305 369.329C303.188 369.593 304.526 371.266 304.404 373.133L304.376 373.401C303.968 377.454 303.521 381.431 303.079 385.363C302.999 386.073 302.92 386.782 302.84 387.49L302.626 389.454C302.612 389.58 302.591 389.704 302.564 389.825L302.479 391.971C301.899 409.82 303.827 443.917 320.448 487.901C328.041 507.929 338.926 521.677 349.146 530.929L349.427 529.848C351.698 520.78 354.312 501.804 343.001 484.401C342.467 483.576 342.698 482.475 343.519 481.936C344.343 481.402 345.444 481.633 345.983 482.454C359.552 503.26 354.636 525.515 352.144 533.535C361.646 541.459 370.208 545.524 374.488 547.235L374.834 546.217C378.737 534.443 387.938 496.752 366.09 448.99C356.015 427.547 349.922 404.451 348.108 380.829C348.047 379.849 348.789 379.003 349.769 378.936C350.749 378.875 351.595 379.617 351.662 380.597C353.458 403.786 359.448 426.457 369.34 447.508C383.483 478.418 384.733 505.008 383.305 521.847L383.112 523.902C382.15 533.341 380.342 540.646 378.883 545.37C418.43 513.4 408.642 456.768 381.59 382.008C370.381 351.022 371.417 319.753 372.935 286.762L373.521 273.883C375.081 237.69 375.517 197.06 359.769 150.9C333.045 72.5094 273.579 75.2624 255.678 78.042ZM353.564 344.829C353.329 344.417 352.941 344.115 352.483 343.99C352.024 343.865 351.533 343.928 351.121 344.166C350.708 344.404 350.408 344.797 350.287 345.258C348.88 351.263 348.084 357.396 347.912 363.561C347.887 364.05 348.065 364.528 348.402 364.882C348.74 365.237 349.208 365.437 349.698 365.436L349.897 365.423C350.75 365.321 351.422 364.617 351.465 363.74C351.651 357.829 352.411 351.95 353.733 346.186C353.859 345.729 353.798 345.241 353.564 344.829ZM147.796 191.213C148.782 191.395 149.434 192.343 149.251 193.329L149.008 194.622C147.542 202.511 146.696 208.829 146.342 211.729L146.144 213.454C139.083 273.351 151.515 327.193 151.921 328.95L151.93 328.99C152.153 329.946 151.563 330.903 150.608 331.133C150.475 331.169 150.336 331.187 150.198 331.187C149.427 331.209 148.738 330.736 148.473 330.028L148.388 329.731C147.764 327.1 135.682 274.148 142.325 214.896L142.759 211.167C143.152 207.991 144.081 201.103 145.68 192.668C145.862 191.682 146.81 191.031 147.796 191.213ZM364.222 126.194C368.19 124.2 372.571 123.156 377.019 123.15C380.053 123.134 383.068 123.642 385.93 124.65C396.261 128.207 404.339 136.384 407.769 146.758C407.824 146.952 407.889 147.142 407.965 147.329C408.215 147.865 413.715 160.668 403.358 175.15C399.18 180.865 391.698 184.758 383.108 185.579C381.893 185.695 380.69 185.745 379.508 185.732C384.255 184.193 388.504 181.272 391.662 177.258L392.251 176.454C392.532 176.071 392.648 175.592 392.574 175.122C392.5 174.653 392.243 174.233 391.858 173.954C391.473 173.675 390.992 173.562 390.523 173.639C390.054 173.716 389.634 173.978 389.358 174.365L388.805 175.115C385.529 179.287 380.922 182.012 375.926 182.982C373.719 171.913 370.723 160.494 366.698 148.704C365.205 144.342 363.595 140.156 361.868 136.147C366.61 134.243 372.129 133.898 377.09 135.633L377.709 135.837C385.294 138.45 391.242 144.457 393.769 152.097C393.786 152.204 393.822 152.307 393.876 152.4C395.164 156.061 395.326 160.023 394.34 163.775C394.234 164.237 394.315 164.723 394.566 165.125C394.817 165.526 395.218 165.812 395.68 165.918C395.81 165.936 395.942 165.936 396.073 165.918C396.895 165.928 397.617 165.375 397.823 164.579C398.947 160.116 398.73 155.42 397.198 151.079C394.262 142.138 387.226 135.142 378.269 132.258L377.621 132.039C371.987 130.231 365.791 130.719 360.435 132.916C359.933 131.817 359.422 130.733 358.9 129.662C360.278 128.456 361.815 127.417 363.483 126.579L364.222 126.194ZM127.18 123.15C124.139 123.132 121.119 123.639 118.251 124.65C107.942 128.242 99.8778 136.406 96.4119 146.758C96.3768 146.893 96.3333 147.026 96.2814 147.155L96.0915 147.6C95.318 149.535 91.138 161.609 100.823 175.15C104.912 180.865 112.483 184.758 121.073 185.579C122.299 185.696 123.512 185.746 124.705 185.731C119.959 184.191 115.712 181.271 112.555 177.258L111.948 176.454C111.371 175.65 111.555 174.531 112.358 173.954C113.162 173.377 114.281 173.561 114.858 174.365L115.412 175.115C118.702 179.3 123.33 182.029 128.348 182.99C130.552 171.938 133.547 160.536 137.573 148.758C139.068 144.372 140.683 140.163 142.416 136.133L142.703 136.251C138.072 134.292 132.644 133.831 127.705 135.376L127.09 135.579C119.205 138.074 113 144.206 110.412 152.061L110.305 152.347C109.031 156.01 108.869 159.968 109.84 163.722C109.947 164.184 109.866 164.669 109.615 165.071C109.364 165.473 108.963 165.758 108.501 165.865C108.385 165.897 108.265 165.915 108.144 165.918C107.293 165.939 106.545 165.356 106.358 164.525C105.296 160.31 105.431 155.887 106.74 151.752L106.983 151.025C109.85 142.293 116.63 135.415 125.29 132.412L125.912 132.204C131.747 130.168 138.253 130.621 143.838 132.927C144.331 131.845 144.834 130.776 145.347 129.72L145.647 129.986C144.362 128.812 142.929 127.783 141.372 126.933L140.698 126.579C136.544 124.337 131.9 123.159 127.18 123.15ZM159.055 157.24C159.405 156.318 158.941 155.286 158.019 154.936C157.097 154.586 156.066 155.05 155.715 155.972C153.068 163.096 150.844 170.371 149.055 177.758C148.819 178.714 149.402 179.681 150.358 179.918C150.506 179.944 150.657 179.944 150.805 179.918C151.595 179.931 152.3 179.422 152.537 178.668C154.274 171.4 156.451 164.244 159.055 157.24Z" fill="#372168"/>
<path fill-rule="evenodd" clip-rule="evenodd" d="M337.623 179.91C334.7 176.186 331.429 172.748 327.855 169.643C322.437 164.951 316.521 160.867 310.213 157.464C319.141 95.9283 303.48 68.9997 293.98 58.7676C302.215 62.4677 310.186 66.7277 317.838 71.5176C320.441 73.1342 322.718 75.2238 324.552 77.6783C351.355 113.696 339.677 170.91 337.623 179.91Z" fill="#A6E5FF"/>
<path fill-rule="evenodd" clip-rule="evenodd" d="M185.748 157.393C179.401 160.813 173.448 164.921 167.998 169.643C164.51 172.666 161.312 176.008 158.445 179.625C156.195 169.768 144.856 113.339 171.284 77.6785C173.123 75.2279 175.399 73.1391 177.998 71.5178C185.721 66.6959 193.764 62.4062 202.07 58.6785C192.588 68.8749 176.748 95.732 185.748 157.393Z" fill="#FF8F8F"/>
<path fill-rule="evenodd" clip-rule="evenodd" d="M334.802 182.107C335.48 182.976 336.521 183.484 337.623 183.482C337.897 183.513 338.173 183.507 338.445 183.464C339.783 183.163 340.831 182.122 341.141 180.786C344.131 167.049 345.587 153.022 345.48 138.964C345.32 112.732 339.177 91.4285 327.463 75.6249C325.366 72.7906 322.762 70.3688 319.784 68.4821C311.982 63.622 303.862 59.2908 295.48 55.5178C293.933 54.8227 292.11 55.312 291.119 56.6886C290.128 58.0651 290.241 59.9491 291.391 61.1963C300.855 71.3928 315.427 97.3749 306.73 156.946C306.503 158.42 307.215 159.879 308.516 160.607C314.585 163.885 320.279 167.813 325.498 172.321C328.897 175.286 332.012 178.563 334.802 182.107ZM330.177 166.946C325.2 162.633 319.818 158.811 314.105 155.535C320.355 110.16 313.213 83.3926 304.927 68.0712C309.802 70.6783 313.588 72.964 315.945 74.4462C318.178 75.8522 320.123 77.6702 321.677 79.8033C343.48 109.196 338.605 154.196 335.534 172.053C333.748 170.285 331.963 168.589 330.177 166.946Z" fill="#372168"/>
<path fill-rule="evenodd" clip-rule="evenodd" d="M157.713 183.196C157.974 183.222 158.237 183.222 158.498 183.196C159.622 183.196 160.681 182.667 161.355 181.768C164.084 178.326 167.127 175.145 170.445 172.268C175.703 167.725 181.439 163.767 187.552 160.464C188.819 159.749 189.526 158.336 189.338 156.893C180.623 97.2855 195.248 71.3212 204.748 61.1427C205.909 59.9 206.032 58.0116 205.044 56.6283C204.055 55.2451 202.228 54.7506 200.677 55.4462C192.221 59.2432 184.03 63.6042 176.159 68.4998C173.172 70.3759 170.567 72.7993 168.48 75.6427C141.284 112.303 152.498 169.428 155.016 180.5C155.32 181.843 156.369 182.893 157.713 183.196ZM191.065 68.0942C191.091 68.0806 191.116 68.067 191.141 68.0535H191.088C191.08 68.067 191.073 68.0806 191.065 68.0942ZM179.963 74.5356C182.325 73.0433 186.155 70.7379 191.065 68.0942C182.789 83.3334 175.629 110.112 181.909 155.571C176.145 158.857 170.714 162.697 165.695 167.036C163.891 168.625 162.177 170.25 160.57 171.911C157.266 153.286 152.498 109.178 174.213 79.8927C175.777 77.7631 177.728 75.9459 179.963 74.5356Z" fill="#372168"/>
<path fill-rule="evenodd" clip-rule="evenodd" d="M310.284 157.464C284.284 143.303 256.98 142.625 249.802 142.696H246.23C239.088 142.696 211.838 143.303 185.873 157.393C176.945 95.732 192.713 68.8749 202.195 58.6785C204.195 57.7856 206.248 56.8927 208.391 56.0177C233.824 45.6957 262.28 45.6957 287.713 56.0177C289.927 56.9285 292.052 57.8035 294.088 58.7677C303.48 68.9999 319.213 95.9285 310.284 157.464Z" fill="#FFD87A"/>
<path fill-rule="evenodd" clip-rule="evenodd" d="M308.588 160.607C309.109 160.888 309.692 161.036 310.284 161.035C310.794 161.041 311.299 160.938 311.766 160.732C312.808 160.207 313.528 159.208 313.695 158.053C322.838 95.5176 306.873 67.5355 296.534 56.4105C296.175 56.0279 295.736 55.7292 295.248 55.5355C293.213 54.5712 291.052 53.6784 288.873 52.7855C262.597 42.0362 233.15 42.0362 206.873 52.7855C204.927 53.5534 202.927 54.4284 200.552 55.4998C200.119 55.6925 199.73 55.9721 199.409 56.3212C189.052 67.4284 173.034 95.4819 182.159 157.982C182.328 159.136 183.049 160.134 184.091 160.657C185.134 161.18 186.365 161.161 187.391 160.607C212.427 147 238.623 146.321 245.998 146.321H249.855C257.32 146.196 283.588 146.964 308.588 160.607ZM307.445 151.982C289.716 143.649 270.391 139.262 250.802 139.125H246.248C226.357 139.123 206.709 143.494 188.695 151.928C181.623 96.7856 195.105 71.8749 204.32 61.6427C206.284 60.7499 207.998 59.9999 209.677 59.3391C234.229 49.2858 261.749 49.2858 286.302 59.3391C288.23 60.107 290.123 60.9106 291.909 61.732C301.105 71.9641 314.588 96.8927 307.445 151.982Z" fill="#372168"/>
<path fill-rule="evenodd" clip-rule="evenodd" d="M348.052 214.196C342.338 227.857 333.945 219.929 323.373 211.982C312.802 204.036 291.123 172.929 247.98 173.804C204.855 172.929 183.052 204.036 172.463 211.982C161.873 219.929 153.498 227.857 147.784 214.196C144.927 207.357 147.57 198.643 150.927 191.643C152.993 187.378 155.514 183.349 158.445 179.625C161.312 176.008 164.51 172.666 167.998 169.643C173.448 164.921 179.4 160.813 185.748 157.393C211.713 143.304 238.927 142.625 246.105 142.696H249.677C256.82 142.696 284.159 143.304 310.159 157.464C316.467 160.867 322.384 164.951 327.802 169.643C331.376 172.748 334.646 176.186 337.57 179.911C340.42 183.547 342.869 187.481 344.873 191.643C348.284 198.643 350.927 207.357 348.052 214.196Z" fill="#A99BFF"/>
<path fill-rule="evenodd" clip-rule="evenodd" d="M323.623 216.661C329.552 221.179 334.802 225.179 340.034 225.179C340.913 225.145 341.784 224.995 342.623 224.732C346.284 223.75 349.141 220.714 351.356 215.464C354.123 208.821 353.052 200.25 348.141 189.982C346.021 185.597 343.441 181.448 340.445 177.607C337.374 173.72 333.942 170.133 330.195 166.893C324.578 162.039 318.453 157.806 311.927 154.268C285.391 139.804 257.588 139.071 249.677 139.071H246.106C238.248 138.982 210.552 139.804 183.998 154.214C177.425 157.759 171.257 162.01 165.606 166.893C161.96 170.081 158.607 173.589 155.588 177.375C152.506 181.3 149.853 185.545 147.677 190.036C142.677 200.286 141.677 208.857 144.463 215.518C146.659 220.768 149.516 223.804 153.177 224.786C159.32 226.429 165.266 221.964 172.177 216.607L174.57 214.821C177.246 212.676 179.803 210.387 182.231 207.964L182.296 207.901C194.339 196.215 214.416 176.733 248.07 177.411C281.533 176.733 301.54 196.204 313.529 207.871L313.588 207.929C316.004 210.385 318.556 212.704 321.231 214.875C322.052 215.446 322.838 216.054 323.623 216.661ZM318.57 202.732C305.998 190.5 285.106 170.179 249.945 170.179L247.963 170.268C211.534 169.572 189.998 190.339 177.141 202.839C174.948 205.071 172.635 207.181 170.213 209.161L167.766 210.947C162.82 214.732 157.695 218.625 154.963 217.911C153.248 217.447 151.856 214.857 150.981 212.768C148.534 206.911 151.302 198.857 154.052 193.125C156.017 189.099 158.411 185.297 161.195 181.786C163.923 178.344 166.966 175.164 170.284 172.286C175.542 167.743 181.278 163.785 187.391 160.482C212.427 146.875 238.623 146.197 245.998 146.197H249.784C257.266 146.054 283.516 146.839 308.516 160.482C314.585 163.76 320.279 167.688 325.498 172.197C328.898 175.162 332.012 178.438 334.802 181.982C337.496 185.414 339.813 189.126 341.713 193.054C344.445 198.804 347.195 206.875 344.766 212.697C343.891 214.786 342.57 217.375 340.784 217.839C338.054 218.571 332.936 214.668 327.976 210.885L327.963 210.875L325.516 209.089C323.088 207.097 320.769 204.975 318.57 202.732Z" fill="#372168"/>
<path d="M274.284 165.714C274.033 165.719 273.783 165.67 273.552 165.571C271.187 164.51 268.753 163.609 266.266 162.875C265.608 162.736 265.083 162.239 264.909 161.588C264.736 160.938 264.942 160.245 265.444 159.797C265.946 159.348 266.657 159.219 267.284 159.464C269.922 160.238 272.505 161.187 275.016 162.304C275.78 162.651 276.198 163.483 276.022 164.303C275.846 165.123 275.123 165.71 274.284 165.714Z" fill="#372168"/>
<path d="M221.57 164.821C220.708 164.832 219.962 164.226 219.795 163.381C219.629 162.535 220.09 161.691 220.891 161.375C228.893 158.222 237.416 156.604 246.016 156.607H247.802C251.65 156.589 255.493 156.911 259.284 157.571C259.922 157.68 260.454 158.12 260.679 158.727C260.904 159.334 260.788 160.014 260.375 160.513C259.962 161.011 259.315 161.251 258.677 161.143C255.103 160.53 251.482 160.225 247.856 160.232H245.999C237.873 160.225 229.821 161.758 222.266 164.75C222.04 164.811 221.804 164.835 221.57 164.821Z" fill="#372168"/>
<path d="M310.284 161.053C308.312 161.053 306.713 159.455 306.713 157.482C306.713 155.51 308.312 153.911 310.284 153.911C312.257 153.911 313.856 155.51 313.856 157.482C313.856 159.455 312.257 161.053 310.284 161.053Z" fill="#372168"/>
<path d="M185.766 161.072C183.985 161.092 182.462 159.797 182.195 158.036C182.177 157.822 182.177 157.607 182.195 157.393C182.052 155.421 183.535 153.706 185.507 153.563C187.48 153.42 189.195 154.903 189.338 156.875C189.355 157.083 189.355 157.292 189.338 157.5C189.338 159.473 187.739 161.072 185.766 161.072Z" fill="#372168"/>
<g style="mix-blend-mode:soft-light" opacity="0.8">
<path d="M247.927 116.482C256.842 116.482 264.07 109.255 264.07 100.339C264.07 91.4238 256.842 84.1964 247.927 84.1964C239.012 84.1964 231.784 91.4238 231.784 100.339C231.784 109.255 239.012 116.482 247.927 116.482Z" fill="white"/>
</g>
<g style="mix-blend-mode:soft-light" opacity="0.8">
<path d="M247.927 54.4463C252.069 54.4463 255.427 51.6881 255.427 48.2856C255.427 44.8831 252.069 42.1249 247.927 42.1249C243.785 42.1249 240.427 44.8831 240.427 48.2856C240.427 51.6881 243.785 54.4463 247.927 54.4463Z" fill="white"/>
</g>
<path fill-rule="evenodd" clip-rule="evenodd" d="M236.855 48.2856C236.855 53.6428 241.82 57.9999 247.927 57.9999C254.034 57.9999 258.998 53.6606 258.998 48.2856C258.998 42.9106 254.034 38.5535 247.927 38.5535C241.82 38.5535 236.855 42.9285 236.855 48.2856ZM243.998 48.2856C243.998 47.0535 245.605 45.6963 247.927 45.6963C250.23 45.6963 251.855 47.0713 251.855 48.2856C251.855 49.4999 250.248 50.857 247.927 50.857C245.605 50.857 243.998 49.5178 243.998 48.2856Z" fill="#372168"/>
</g>
<path fill-rule="evenodd" clip-rule="evenodd" d="M0 250C0 111.929 111.929 0 250 0C388.071 0 500 111.929 500 250C500 388.071 388.071 500 250 500C111.929 500 0 388.071 0 250ZM492.857 250C492.857 115.874 384.126 7.14286 250 7.14286C115.874 7.14286 7.14286 115.874 7.14286 250C7.14286 384.126 115.874 492.857 250 492.857C384.126 492.857 492.857 384.126 492.857 250Z" fill="#372168"/>
</svg>
