<svg width="500" height="500" viewBox="0 0 500 500" fill="none" xmlns="http://www.w3.org/2000/svg">
<path fill-rule="evenodd" clip-rule="evenodd" d="M250 496.429C386.099 496.429 496.429 386.099 496.429 250C496.429 113.901 386.099 3.57141 250 3.57141C113.901 3.57141 3.57143 113.901 3.57143 250C3.57143 386.099 113.901 496.429 250 496.429Z" fill="#E7EEFF"/>
<mask id="mask0_0_290" style="mask-type:alpha" maskUnits="userSpaceOnUse" x="3" y="3" width="494" height="494">
<path fill-rule="evenodd" clip-rule="evenodd" d="M250 496.429C386.099 496.429 496.429 386.099 496.429 250C496.429 113.901 386.099 3.57141 250 3.57141C113.901 3.57141 3.57143 113.901 3.57143 250C3.57143 386.099 113.901 496.429 250 496.429Z" fill="white"/>
</mask>
<g mask="url(#mask0_0_290)">
<path fill-rule="evenodd" clip-rule="evenodd" d="M336.359 210.077L336.357 210.036C337.536 196.964 339.357 159.232 324.071 134.357C305.536 104.339 275.161 95.5535 249.464 95.9821C223.732 95.5535 193.357 104.339 174.821 134.357C159.554 159.125 161.375 196.911 162.571 209.929V210.03C158.281 208.601 153.604 208.884 149.518 210.821C140.161 215.268 136.089 230.125 145.018 243.714C151.783 254.04 163.198 255.882 171.903 253.893C172.226 254.732 172.545 255.575 172.861 256.412C173.129 257.12 173.395 257.825 173.661 258.518L174.768 261.286C180.393 275.65 188.675 288.826 199.179 300.125C203.705 304.911 208.768 309.159 214.268 312.786C224.14 319.474 235.722 323.192 247.643 323.5H251.214C263.136 323.197 274.719 319.478 284.589 312.786C288.752 310.04 292.665 306.938 296.285 303.517C292.662 306.963 288.743 310.089 284.571 312.857C274.701 319.55 263.118 323.269 251.196 323.571H247.625C235.705 323.264 224.122 319.545 214.25 312.857C208.75 309.231 203.687 304.982 199.161 300.196V359.357C200.071 365.125 211.625 370.054 227.982 372.357C234.864 373.312 241.802 373.796 248.75 373.804H250C256.947 373.796 263.886 373.312 270.768 372.357C287.214 369.982 298.804 365.071 299.607 359.268V300.201L299.696 300.107C310.194 288.814 318.47 275.644 324.089 261.286L325.196 258.518C325.814 257.001 326.396 255.431 326.961 253.878C335.674 255.891 347.129 254.065 353.911 243.714C362.768 230.125 358.768 215.268 349.375 210.875C345.301 208.942 340.638 208.656 336.359 210.077ZM168.304 242.786C168.661 244.021 169.028 245.245 169.406 246.457C169.011 245.278 168.62 244.09 168.232 242.893C167.946 241.946 167.607 240.768 167.393 239.964L167.392 239.962L167.392 239.96C167.177 239.157 166.893 238.088 166.75 237.482C166.693 237.24 166.647 237.035 166.601 236.825L166.6 236.823C166.53 236.507 166.457 236.179 166.339 235.696C166.241 235.295 166.156 234.879 166.071 234.464C165.987 234.049 165.902 233.634 165.804 233.232C165.607 232.429 165.446 231.625 165.286 230.786L165.179 230.232C164.982 229.161 164.786 228.071 164.607 226.964C164.464 226.19 164.339 225.405 164.232 224.607C164.214 224.515 164.194 224.422 164.174 224.328L164.173 224.326C164.096 223.968 164.018 223.603 164.018 223.25C163.857 222.125 163.696 220.982 163.554 219.821C163.387 218.548 163.244 217.315 163.125 216.125C163.018 215.625 162.964 215.125 162.964 214.625C162.964 214.625 163.089 214.286 162.964 214.018C162.896 213.872 162.892 213.638 162.887 213.419C162.884 213.235 162.88 213.062 162.839 212.964C162.784 212.833 162.783 212.809 162.778 212.682C162.775 212.602 162.771 212.481 162.75 212.268L162.74 212.171L162.732 212.101C162.738 212.123 162.744 212.143 162.75 212.161C162.791 212.274 162.787 212.34 162.783 212.418C162.777 212.512 162.771 212.623 162.839 212.857C162.907 213.091 162.912 213.266 162.916 213.441C162.92 213.587 162.924 213.732 162.964 213.911C163.054 214.304 163.054 214.518 163.054 214.518C163.068 214.718 163.094 214.918 163.119 215.118C163.158 215.418 163.196 215.718 163.196 216.018C163.312 217.177 163.459 218.368 163.594 219.46L163.625 219.714C163.768 220.875 163.929 222.018 164.089 223.143C164.114 223.298 164.137 223.456 164.16 223.614C164.202 223.91 164.245 224.209 164.304 224.5C164.411 225.298 164.536 226.083 164.679 226.857C164.857 227.964 165.054 229.054 165.25 230.125L165.357 230.679C165.437 231.098 165.527 231.5 165.616 231.902C165.705 232.304 165.795 232.705 165.875 233.125C165.967 233.603 166.087 234.133 166.197 234.617C166.28 234.981 166.357 235.321 166.411 235.589C166.536 236.214 166.679 236.804 166.821 237.375L166.933 237.814C167.097 238.458 167.245 239.038 167.464 239.857C167.732 240.857 168.018 241.839 168.304 242.786ZM162.634 211.15C162.641 211.261 162.649 211.369 162.657 211.471C162.623 211.182 162.595 210.883 162.59 210.571C162.607 210.764 162.621 210.961 162.634 211.15Z" fill="#B86961"/>
<path d="M28.5706 496.428C28.9182 495.049 29.1003 494.313 29.4544 492.974C29.7006 492.043 29.9441 491.122 30.1785 490.214C31.1785 486.643 32.1963 483.071 33.232 479.804C33.356 479.409 33.48 479.016 33.6034 478.626C33.8711 477.778 34.1361 476.938 34.3927 476.107C34.6785 475.214 34.9642 474.321 35.2499 473.5C36.0356 471.143 36.8213 468.857 37.607 466.661C39.3808 461.732 41.1665 457.196 42.9642 453.054C43.4106 452 43.857 450.964 44.3035 449.964L44.5713 449.375C45.5356 447.161 46.5177 445.089 47.4999 443.125C50.2914 437.275 53.6023 431.687 57.3927 426.429C57.4428 426.353 57.4968 426.282 57.5493 426.213L57.5493 426.213C57.609 426.134 57.6667 426.058 57.7142 425.982C58.6963 424.696 59.6427 423.536 60.5535 422.536L60.6606 422.411C61.3019 421.689 61.9832 420.988 62.6596 420.291C62.8873 420.057 63.1143 419.823 63.3392 419.589C69.0977 413.797 75.4344 408.609 82.2499 404.107L84.3213 402.732C85.3689 402.042 86.4404 401.363 87.5356 400.696C90.1785 399.054 92.8927 397.464 95.6963 395.911C100.321 393.339 105.107 390.911 109.982 388.607C115.875 385.821 121.875 383.25 127.839 380.821L131.893 379.214C133.053 378.75 134.232 378.304 135.464 377.875C140.678 375.893 145.857 374.071 150.911 372.375C160.696 369.089 169.964 366.339 178.143 364.071C186.607 361.732 193.857 359.911 199.196 358.625C199.17 358.874 199.17 359.126 199.196 359.375C200.107 365.143 211.696 370.089 228.018 372.375C234.899 373.33 241.838 373.814 248.786 373.821H250.036C256.983 373.814 263.922 373.33 270.803 372.375C287.25 370.054 298.839 365.089 299.643 359.286C299.66 359.066 299.66 358.845 299.643 358.625C305 359.929 312.321 361.75 320.839 364.107C328.982 366.357 338.196 369.107 347.928 372.375C354.107 374.446 360.428 376.714 366.875 379.214C370.149 380.476 373.417 381.804 376.678 383.196L380.411 384.786L383.411 386.107C390.143 389.143 396.768 392.393 403.053 395.911C406.982 398.089 410.803 400.357 414.446 402.732L415.464 403.411C417.25 404.554 419.036 405.732 420.607 406.982C425.886 410.723 430.838 414.905 435.411 419.482C436.375 420.446 437.303 421.429 438.196 422.429C439.286 423.635 440.312 424.899 441.268 426.214V426.321C442.089 427.429 442.946 428.643 443.786 429.893C446.514 434.095 448.983 438.46 451.178 442.964C452.232 445.107 453.286 447.375 454.375 449.804C455.053 451.339 455.732 452.929 456.411 454.571C456.875 455.677 457.326 456.811 457.787 457.974L457.946 458.375C458.958 460.946 459.976 463.655 461 466.5C461.786 468.696 462.571 470.982 463.357 473.339C464.262 476.113 465.173 478.994 466.089 481.982C466.219 482.421 466.351 482.862 466.484 483.306L466.488 483.32L466.489 483.323C466.738 484.154 466.989 484.993 467.232 485.839L467.341 486.218C467.689 487.426 468.073 488.762 468.428 490.054C469.053 492.268 469.089 494.089 469.642 496.428H28.5706Z" fill="#8BCBC9"/>
<path d="M28.5706 496.428C28.9182 495.049 29.1003 494.313 29.4544 492.974C29.7006 492.043 29.9441 491.122 30.1785 490.214C31.1785 486.643 32.1963 483.071 33.232 479.804C33.356 479.409 33.48 479.016 33.6034 478.626C33.8711 477.778 34.1361 476.938 34.3927 476.107C34.6785 475.214 34.9642 474.321 35.2499 473.5C36.0356 471.143 36.8213 468.857 37.607 466.661C39.3808 461.732 41.1665 457.196 42.9642 453.054C43.4106 452 43.857 450.964 44.3035 449.964L44.5713 449.375C45.5356 447.161 46.5177 445.089 47.4999 443.125C50.2914 437.275 53.6023 431.687 57.3927 426.429C57.4428 426.353 57.4968 426.282 57.5493 426.213L57.5493 426.213C57.609 426.134 57.6667 426.058 57.7142 425.982C58.6963 424.696 59.6427 423.536 60.5535 422.536L60.6606 422.411C61.3019 421.689 61.9832 420.988 62.6596 420.291C62.8873 420.057 63.1143 419.823 63.3392 419.589C69.0977 413.797 75.4344 408.609 82.2499 404.107L84.3213 402.732C85.3689 402.042 86.4404 401.363 87.5356 400.696C90.1785 399.054 92.8927 397.464 95.6963 395.911C100.321 393.339 105.107 390.911 109.982 388.607C115.875 385.821 121.875 383.25 127.839 380.821L131.893 379.214C133.053 378.75 134.232 378.304 135.464 377.875C140.678 375.893 145.857 374.071 150.911 372.375C160.696 369.089 169.964 366.339 178.143 364.071C186.607 361.732 193.857 359.911 199.196 358.625C199.17 358.874 199.17 359.126 199.196 359.375C200.107 365.143 211.696 370.089 228.018 372.375C234.899 373.33 241.838 373.814 248.786 373.821H250.036C256.983 373.814 263.922 373.33 270.803 372.375C287.25 370.054 298.839 365.089 299.643 359.286C299.66 359.066 299.66 358.845 299.643 358.625C305 359.929 312.321 361.75 320.839 364.107C328.982 366.357 338.196 369.107 347.928 372.375C354.107 374.446 360.428 376.714 366.875 379.214C370.149 380.476 373.417 381.804 376.678 383.196L380.411 384.786L383.411 386.107C390.143 389.143 396.768 392.393 403.053 395.911C406.982 398.089 410.803 400.357 414.446 402.732L415.464 403.411C417.25 404.554 419.036 405.732 420.607 406.982C425.886 410.723 430.838 414.905 435.411 419.482C436.375 420.446 437.303 421.429 438.196 422.429C439.286 423.635 440.312 424.899 441.268 426.214V426.321C442.089 427.429 442.946 428.643 443.786 429.893C446.514 434.095 448.983 438.46 451.178 442.964C452.232 445.107 453.286 447.375 454.375 449.804C455.053 451.339 455.732 452.929 456.411 454.571C456.875 455.677 457.326 456.811 457.787 457.974L457.946 458.375C458.958 460.946 459.976 463.655 461 466.5C461.786 468.696 462.571 470.982 463.357 473.339C464.262 476.113 465.173 478.994 466.089 481.982C466.219 482.421 466.351 482.862 466.484 483.306L466.488 483.32L466.489 483.323C466.738 484.154 466.989 484.993 467.232 485.839L467.341 486.218C467.689 487.426 468.073 488.762 468.428 490.054C469.053 492.268 469.089 494.089 469.642 496.428H28.5706Z" fill="#B3F3F1"/>
<g style="mix-blend-mode:soft-light" opacity="0.8">
<path d="M320.929 364.089C316.518 370.839 309.143 376.197 299.679 380.161C291.583 383.427 283.114 385.677 274.464 386.857C257.921 389.19 241.133 389.19 224.589 386.857C215.891 385.664 207.373 383.396 199.232 380.107C189.822 376.143 182.5 370.786 178.107 364.036C186.572 361.696 193.822 359.875 199.161 358.589C199.134 358.839 199.134 359.09 199.161 359.339C200.072 365.107 211.661 370.054 227.982 372.339C234.864 373.295 241.803 373.778 248.75 373.786H250C256.948 373.778 263.886 373.295 270.768 372.339C287.214 370.018 298.804 365.054 299.607 359.25C299.625 359.03 299.625 358.809 299.607 358.589C305.107 359.911 312.411 361.732 320.929 364.089Z" fill="white"/>
</g>
<g style="mix-blend-mode:multiply" opacity="0.15">
<path fill-rule="evenodd" clip-rule="evenodd" d="M296.036 303.786V356.107C251.536 356.804 218.571 333.893 202.839 320.197V303.75C206.379 307.132 210.222 310.181 214.321 312.857C224.197 319.539 235.777 323.257 247.696 323.572H251.268C263.187 323.257 274.768 319.539 284.643 312.857C288.703 310.179 292.516 307.143 296.036 303.786Z" fill="#7C3830"/>
</g>
<path fill-rule="evenodd" clip-rule="evenodd" d="M251.405 92.502L249.607 92.518C229.964 92.1608 193.786 96.9644 172.107 132.572C158.313 154.962 157.857 186.762 158.887 204.188L158.974 205.569C155.23 205.217 151.43 205.875 147.982 207.518C142.75 210.188 138.924 214.984 137.482 220.679C135.315 229.276 136.969 238.391 142.018 245.679L142.367 246.206C147.561 253.862 156.293 258.382 165.572 258.179C166.928 258.145 168.279 258.026 169.616 257.82C169.875 258.516 170.14 259.213 170.411 259.911L171.518 262.697C177.149 276.991 185.317 290.146 195.623 301.528L195.714 301.627L195.715 355.745C189.544 357.258 183.316 358.893 177.018 360.625C167.286 363.322 158.322 366.054 149.607 368.982C143.947 370.947 138.839 372.732 134.054 374.518C133.649 374.661 133.268 374.802 132.89 374.945L129.121 376.404C128.21 376.762 127.298 377.131 126.393 377.5L123.777 378.554C118.55 380.687 113.355 382.972 108.304 385.375C103.161 387.804 98.268 390.286 93.8037 392.786C90.7323 394.5 88.018 396.089 85.5359 397.625L84.686 398.147C83.8439 398.67 83.0269 399.192 82.2502 399.714C81.518 400.179 80.7859 400.661 80.1252 401.125C73.1183 405.706 66.5965 410.989 60.6609 416.893C60.1084 417.526 59.5607 418.08 59.0417 418.606C58.6385 419.014 58.2521 419.406 57.893 419.804L57.768 419.964C56.8395 420.964 55.8395 422.179 54.7323 423.643C54.6629 423.719 54.6029 423.803 54.5537 423.893L54.3752 424.125L53.4065 425.488C49.8928 430.513 46.8002 435.821 44.1609 441.357C43.2935 442.952 42.5902 444.473 41.9337 445.961L41.1609 447.732L40.434 449.368C40.1311 450.062 39.8335 450.768 39.5359 451.482L38.9406 452.892C37.3533 456.697 35.766 460.857 34.1787 465.286C33.393 467.5 32.5894 469.822 31.8037 472.197L31.5048 473.081L30.9109 474.875L29.3308 479.975C28.7464 481.87 28.1571 483.86 27.5661 485.923L26.6787 489.072C26.397 490.181 26.1021 491.308 25.805 492.444L25.8033 492.45C25.4984 493.615 25.1911 494.79 24.893 495.964L24.4109 497.75C24.2591 498.339 24.2616 499.386 24.1076 500H475L473.607 495.268C473.607 495.268 472.5 491.089 471.929 489.089C471.643 488.036 471.339 486.964 471.036 485.929L470.732 484.839L469.572 480.929C469.114 479.523 468.684 478.141 468.261 476.782L468.259 476.777L468.259 476.775C467.774 475.218 467.299 473.692 466.804 472.197C466.018 469.822 465.214 467.5 464.429 465.286C463.375 462.411 462.339 459.607 461.322 457.054L461.161 456.607C460.697 455.429 460.232 454.286 459.768 453.197C459.089 451.518 458.393 449.911 457.697 448.339C456.813 446.371 455.999 444.603 455.218 442.96L454.447 441.357C452.18 436.743 449.646 432.265 446.857 427.947C446.494 427.435 446.143 426.92 445.786 426.397L445.785 426.395L445.78 426.388L445.776 426.382L445.775 426.38C445.276 425.649 444.766 424.902 444.197 424.125L444.054 423.947C442.893 422.375 441.786 421.018 440.839 419.982C439.893 418.947 438.911 417.893 437.929 416.911C433.212 412.19 428.105 407.877 422.661 404.018C420.875 402.732 419.107 401.518 417.447 400.447C417.072 400.197 416.697 399.929 416.375 399.732L415.181 398.96C411.971 396.905 408.544 394.879 404.75 392.768C398.697 389.411 392.179 386.161 384.786 382.839L381.732 381.5L380.786 381.089L378 379.893C374.804 378.536 371.572 377.232 368.089 375.875C362.036 373.518 355.786 371.268 348.982 368.982C340.197 366.018 331.018 363.232 321.714 360.661C316.142 359.113 311.158 357.818 307.021 356.777L303.177 355.82L303.18 301.868C313.65 290.402 321.936 277.114 327.625 262.661L328.75 259.839C328.994 259.208 329.236 258.57 329.475 257.934C330.756 258.092 332.047 258.174 333.339 258.179C342.78 258.374 351.652 253.682 356.804 245.768L357.228 245.139C361.94 237.958 363.446 229.123 361.357 220.768C359.903 215.074 356.072 210.281 350.839 207.607C347.544 206.034 343.923 205.364 340.34 205.62C341.456 188.522 341.341 155.535 327.197 132.589C305.857 98.0331 271.243 92.4936 251.405 92.502ZM174.31 368.941L176.707 368.261C181.449 374.391 188.538 379.467 197.822 383.375C206.269 386.798 215.111 389.149 224.143 390.375C232.577 391.587 241.087 392.184 249.607 392.161C258.096 392.211 266.576 391.644 274.982 390.464C283.919 389.235 292.669 386.908 301.036 383.536C310.438 379.612 317.599 374.466 322.363 368.291C330.744 370.648 339.002 373.193 346.947 375.857C353.643 378.107 359.786 380.322 365.732 382.643C369.143 383.964 372.322 385.25 375.464 386.589L379.161 388.161L382.089 389.464C389.286 392.697 395.643 395.857 401.518 399.125C405.607 401.411 409.286 403.607 412.75 405.857L414.713 407.143C416.029 408.014 417.375 408.943 418.732 409.929C423.828 413.559 428.607 417.616 433.018 422.054L433.027 422.063L433.028 422.064L433.031 422.067C433.92 422.973 434.826 423.898 435.697 424.893C436.703 425.999 437.645 427.162 438.518 428.375L438.679 428.572C439.554 429.732 440.304 430.839 441.036 431.964C443.67 436.043 446.056 440.277 448.179 444.643L448.549 445.396C449.169 446.67 449.807 448.032 450.479 449.51L451.304 451.339C451.982 452.857 452.643 454.411 453.322 456.054L453.768 457.136C454.066 457.865 454.363 458.607 454.661 459.357L454.822 459.786C455.804 462.268 456.822 464.964 457.839 467.804L458.426 469.443C459.009 471.102 459.585 472.813 460.161 474.554L460.709 476.209C461.439 478.434 462.161 480.727 462.875 483.089L463.286 484.464L464.322 488C464.411 488.319 464.502 488.639 464.594 488.962C464.796 489.67 465 490.389 465.197 491.125L465.75 493.124L33.0362 492.857L34.0604 489.595C34.9505 486.424 35.8372 483.426 36.6966 480.661L37.8573 476.982C37.9278 476.766 37.9972 476.553 38.066 476.341L38.0745 476.314L38.077 476.307C38.2834 475.671 38.4851 475.05 38.6966 474.429L39.1662 473.034C39.7902 471.186 40.4073 469.389 41.0359 467.661C42.6966 462.804 44.4823 458.304 46.268 454.232C46.6966 453.214 47.143 452.197 47.5716 451.232L48.3807 449.399C49.0916 447.809 49.8573 446.2 50.7145 444.5C53.4041 438.864 56.6019 433.484 60.268 428.429L60.6252 427.929L60.9122 427.567C61.7564 426.502 62.4952 425.571 63.0895 424.929L63.3573 424.643C64.1073 423.75 65.0002 422.857 65.893 421.964C71.495 416.4 77.6454 411.416 84.2502 407.089L86.2859 405.75C87.3037 405.089 88.3216 404.429 89.4109 403.768L90.3252 403.204C92.4834 401.882 94.8194 400.525 97.4287 399.072C101.75 396.714 106.482 394.304 111.5 391.929C117.268 389.197 123.214 386.607 129.214 384.232L130.403 383.75L134.381 382.179C135.139 381.883 135.905 381.589 136.679 381.304L138.107 380.768C141.462 379.517 144.969 378.262 148.722 376.972L152 375.857C159.158 373.447 166.502 371.172 174.31 368.941ZM184.393 366.157C188.516 365.055 192.642 363.992 196.732 362.982C201.168 370.959 217.454 374.461 226.094 375.788L227.536 376C234.583 376.981 241.689 377.476 248.804 377.482H250.072C257.181 377.477 264.281 376.981 271.322 376C279.216 374.897 296.294 371.631 301.647 363.858C301.843 363.578 302.024 363.293 302.189 363.002L302.186 363.002L302.25 362.893C302.23 362.93 302.21 362.966 302.189 363.002C304.675 363.572 307.543 364.297 310.758 365.145L314.781 366.219C310.113 370.867 304.525 374.491 298.375 376.857L296.904 377.436C289.53 380.27 281.85 382.239 274.018 383.304C257.824 385.589 241.39 385.589 225.197 383.304C216.793 382.154 208.564 379.971 200.697 376.804C194.553 374.41 188.975 370.761 184.322 366.089L184.393 366.157ZM202.804 308.572V358.947C203.589 361.697 211.875 366.429 228.554 368.768C235.275 369.706 242.053 370.177 248.839 370.179H250.072C256.852 370.176 263.624 369.705 270.339 368.768C277.467 367.762 283.059 366.326 287.189 364.797L287.549 364.661C293.011 362.567 295.752 360.324 295.964 358.786C295.966 358.443 296.014 358.107 296.105 357.784L296.108 308.727C293.577 310.92 290.923 312.971 288.159 314.868L286.768 315.804C277.842 321.844 267.593 325.583 256.933 326.73C255.026 326.945 253.107 327.077 251.179 327.125H247.697L247.583 327.12L247.554 327.125C245.591 327.072 243.637 326.932 241.697 326.706L239.892 326.47L238.853 326.312L237.354 326.054L236.156 325.822C228.056 324.177 220.306 321.02 213.323 316.484L212.375 315.857C209.015 313.66 205.817 311.225 202.804 308.572ZM247.787 99.6839L249.464 99.6965C267.482 99.4108 300.768 103.75 320.893 136.375C335.178 159.533 333.806 195.554 332.772 208.258L332.643 209.75V209.982L335.894 210.257L332.697 210.179L332.695 210.199L332.643 210.197C332.56 211 332.48 211.699 332.412 212.273L332.179 214.072C332.17 214.173 332.17 214.274 332.179 214.375L332.072 215.732C331.786 218.304 331.518 220.518 331.161 222.875C330.804 225.232 330.411 227.518 330 229.679L329.793 230.775C329.649 231.508 329.494 232.238 329.339 232.929L328.883 234.995L328.643 236.018V236.179C328.527 236.679 328.406 237.152 328.286 237.612L327.929 238.964L327.929 239.159C327.689 240.117 327.433 240.953 327.161 241.822L326.784 243.038L326.453 244.077L326.375 244.304C325.572 246.929 324.661 249.661 323.572 252.661V252.839C323.142 254.042 322.69 255.244 322.251 256.409L321.929 257.268L320.266 261.407C314.81 274.796 306.985 287.096 297.161 297.714L297.491 297.352C297.344 297.461 297.203 297.582 297.072 297.714C292.739 302.311 287.885 306.386 282.607 309.857L281.732 310.443C272.643 316.406 262.061 319.714 251.179 319.982H247.697C247.337 319.973 246.979 319.96 246.62 319.944L245.709 319.896L244.376 319.798C234.345 318.949 224.68 315.534 216.322 309.857L215.113 309.046C210.31 305.76 205.871 301.967 201.875 297.732C201.772 297.623 201.663 297.522 201.546 297.433C191.505 286.512 183.57 273.827 178.143 260.018L177.054 257.304C176.869 256.822 176.685 256.331 176.5 255.837L175.393 252.857L175.072 252.679C173.822 249.197 172.625 245.536 171.5 241.822C171.375 241.395 171.233 240.889 171.099 240.407L171.097 240.402L170.967 239.935L170.598 238.661C170.532 238.425 170.466 238.167 170.397 237.893L169.991 236.244C169.968 236.145 169.946 236.047 169.924 235.946C169.907 235.869 169.889 235.79 169.872 235.71C169.812 235.434 169.746 235.137 169.661 234.786L169.484 234.042C169.367 233.54 169.256 233.024 169.161 232.5V232.322C168.982 231.589 168.822 230.839 168.679 230.036L168.572 229.536L167.876 225.542C167.796 225.064 167.72 224.572 167.661 224.072C167.661 224.048 167.675 224.042 167.689 224.036C167.716 224.024 167.744 224.012 167.661 223.857C167.536 223.625 167.536 223.375 167.536 223.143V222.679C167.482 222.316 167.431 221.945 167.38 221.57L166.954 218.447C166.841 217.577 166.737 216.67 166.643 215.732L166.542 214.826L166.518 214.375C166.528 214.262 166.528 214.149 166.518 214.036L166.321 212.39L166.322 211.75C166.31 211.605 166.289 211.447 166.266 211.274C166.218 210.912 166.161 210.483 166.161 209.964L166.15 209.69C166.129 209.418 166.078 209.153 165.998 208.899L165.907 207.817C164.874 194.745 163.647 159.321 177.804 136.375C197.342 104.729 229.281 99.6966 247.787 99.6839ZM340.114 212.879L339.767 212.935L339.563 214.58C339.537 214.767 339.516 214.908 339.5 215L339.393 216.339C339.127 218.824 338.862 221.062 338.56 223.078L338.429 223.929L338.334 224.52L338.333 224.528C337.999 226.619 337.623 228.971 337.232 231.072C337.089 231.857 336.939 232.627 336.78 233.392L336.536 234.536L336.479 234.795C336.255 235.819 336.07 236.666 335.839 237.589V237.768L335.67 238.453C338.062 238.329 340.29 237.109 341.679 235.107C343.397 232.746 343.679 229.631 342.411 227C341.88 226.171 342.119 225.069 342.947 224.536C343.775 224.005 344.877 224.244 345.411 225.072C347.292 228.649 347.173 232.947 345.098 236.415C343.023 239.883 339.291 242.02 335.25 242.054L335.322 242.089C335.12 242.089 334.919 242.081 334.718 242.067L334.461 242.971L334.197 243.857C333.893 244.857 333.643 245.643 333.339 246.5C332.897 247.941 332.408 249.455 331.871 251.043L331.732 251.036C339.14 251.719 346.329 248.374 350.581 242.306L350.911 241.822C354.771 236.266 356.071 229.326 354.482 222.75C353.59 219.044 351.152 215.897 347.786 214.107C345.569 213.04 343.112 212.598 340.676 212.816L340.114 212.879ZM151.036 214.054C152.87 213.175 154.877 212.717 156.911 212.714C157.733 212.727 158.552 212.817 159.357 212.982V213.393C159.413 213.589 159.416 213.756 159.418 213.913C159.42 214.058 159.422 214.194 159.464 214.339C159.518 214.522 159.539 214.678 159.548 214.805L159.554 215.018C159.583 215.508 159.636 215.997 159.714 216.482C159.756 216.911 159.802 217.337 159.849 217.761L160.143 220.25C160.286 221.464 160.447 222.625 160.625 223.822V224.232L160.786 225.197C160.839 225.607 160.902 226.018 160.967 226.415L161.35 228.679C161.465 229.334 161.589 229.991 161.713 230.653L161.768 230.947L161.857 231.464L162.462 234.334L162.929 236.447L163.357 238.232V238.429L163.375 238.499C160.828 238.501 158.422 237.251 156.964 235.125C155.259 232.765 154.984 229.659 156.25 227.036C156.781 226.207 156.542 225.105 155.714 224.572C154.886 224.04 153.784 224.28 153.25 225.107C151.369 228.684 151.488 232.983 153.563 236.451C155.638 239.919 159.37 242.055 163.411 242.089C163.716 242.095 164.021 242.085 164.325 242.061L164.432 242.052L164.589 242.036C164.537 242.042 164.485 242.047 164.432 242.052C164.397 242.055 164.361 242.058 164.325 242.061L164.321 242.061L164.839 243.839C165.572 246.268 166.322 248.643 167.107 250.982C159.503 251.688 152.13 248.145 147.929 241.768L147.55 241.208C143.974 235.755 142.811 229.052 144.357 222.697C145.244 218.992 147.675 215.846 151.036 214.054Z" fill="#372168"/>
<path fill-rule="evenodd" clip-rule="evenodd" d="M302.189 363.002C302.21 362.966 302.23 362.93 302.25 362.893L302.186 363.002L302.189 363.002ZM164.432 242.052L164.589 242.036C164.537 242.042 164.485 242.047 164.432 242.052Z" fill="#372168"/>
<g style="mix-blend-mode:multiply" opacity="0.15">
<path fill-rule="evenodd" clip-rule="evenodd" d="M218.75 249.583C218.75 260.484 210.755 269.32 200.893 269.32C191.031 269.32 183.036 260.484 183.036 249.583C183.036 238.683 191.031 229.846 200.893 229.846C210.755 229.846 218.75 238.683 218.75 249.583ZM315.179 249.583C315.179 260.484 307.184 269.32 297.321 269.32C287.459 269.32 279.464 260.484 279.464 249.583C279.464 238.683 287.459 229.846 297.321 229.846C307.184 229.846 315.179 238.683 315.179 249.583Z" fill="#FF1300"/>
</g>
<path d="M249.107 271.143C247.135 271.143 245.536 269.544 245.536 267.572V259.215C245.536 257.242 247.135 255.643 249.107 255.643C251.08 255.643 252.679 257.242 252.679 259.215V267.572C252.679 269.544 251.08 271.143 249.107 271.143Z" fill="#372168"/>
<path d="M249.059 246.94C245.159 246.992 241.492 245.089 239.291 241.869C238.354 240.419 238.77 238.484 240.219 237.547C241.669 236.61 243.604 237.026 244.541 238.476C245.628 239.89 247.316 240.711 249.099 240.693C250.882 240.676 252.553 239.822 253.612 238.387C254.51 236.907 256.437 236.436 257.916 237.333C259.395 238.23 259.867 240.157 258.969 241.637C256.809 245.003 253.058 247.01 249.059 246.94Z" fill="#372168"/>
<path d="M286.261 225.446C294.171 225.446 294.189 213.125 286.261 213.125C278.332 213.125 278.314 225.446 286.261 225.446Z" fill="#372168"/>
<path d="M213.1 225.446C221.028 225.446 221.046 213.125 213.1 213.125C205.153 213.125 205.153 225.446 213.1 225.446Z" fill="#372168"/>
<path d="M228.018 209.857C227.095 209.863 226.205 209.511 225.536 208.875C212.518 196.375 199.946 207.554 198.554 208.875C197.115 210.134 194.939 210.037 193.619 208.654C192.298 207.271 192.301 205.094 193.625 203.714C200 197.589 215.911 189.714 230.482 203.714C231.167 204.37 231.563 205.271 231.584 206.219C231.604 207.167 231.246 208.084 230.589 208.768C229.916 209.465 228.987 209.858 228.018 209.857Z" fill="#372168"/>
<path d="M302.25 201.625C301.324 201.626 300.434 201.267 299.768 200.625C286.768 188.125 274.179 199.321 272.804 200.625C271.379 201.991 269.116 201.943 267.75 200.518C266.384 199.093 266.432 196.83 267.857 195.464C274.232 189.357 290.143 181.482 304.714 195.464C305.774 196.471 306.113 198.022 305.571 199.38C305.028 200.737 303.712 201.627 302.25 201.625Z" fill="#372168"/>
<path fill-rule="evenodd" clip-rule="evenodd" d="M201.493 80.163C203.171 79.3217 204.934 78.644 206.755 78.1427C207.543 74.5694 207.426 70.856 206.416 67.3392C200.88 49.3035 180.72 44.5356 172.309 54.232C165.666 61.8927 161.255 53.2856 161.255 53.2856C157.814 47.6327 151.885 43.9584 145.291 43.3927C139.482 42.7017 133.675 44.6944 129.515 48.8062C125.354 52.9181 123.293 58.7014 123.916 64.5177V64.9285C123.925 64.9697 123.925 65.0122 123.916 65.0535C124.47 70.0713 124.237 74.9106 114.63 72.3749C109.845 71.0892 98.9874 69.107 94.0945 80.6963C89.9046 90.6439 93.5476 95.5313 96.4847 99.4717C99.2683 103.206 101.418 106.09 95.666 111.625C90.7348 115.966 88.3444 122.513 89.319 129.01C90.2935 135.507 94.4996 141.065 100.487 143.768C111.505 148.946 114.291 152.464 111.987 160.732C109.577 169.375 120.452 183.107 135.791 177.857C137 177.461 138.182 176.983 139.327 176.428C139.327 176.428 139.327 176.428 139.327 176.428C139.281 178.385 139.382 180.344 139.63 182.286C141.523 198.107 160.916 208.821 160.916 208.821C171.235 202.243 170.638 190.509 170.11 180.111C169.541 168.915 169.05 159.268 182.345 159.268C191.791 159.268 197.434 153.786 200.72 147.089C202.183 144.208 205.044 142.299 208.267 142.055C211.489 141.81 214.606 143.265 216.487 145.893C225.005 157.982 238.702 168.571 258.541 159.643C258.541 159.643 268.237 154.482 278.737 165.107C288.261 174.773 295.025 173.85 301.841 172.921C307.025 172.215 312.239 171.504 318.72 175.446C329.497 181.999 329.37 187.728 329.243 193.409C329.135 198.27 329.028 203.097 335.755 208.375C336.077 208.589 335.755 208.982 335.755 208.982C335.755 208.982 352.22 204.625 355.648 182.411C356.102 179.648 355.875 176.816 354.987 174.161C354.06 171.362 352.513 168.936 350.983 166.535C347.473 161.03 344.048 155.657 348.362 146.232C358.805 123.419 339.637 95.3601 315.912 95.3331C339.67 95.3038 358.887 123.396 348.434 146.232C344.107 155.683 347.537 161.059 351.059 166.58C352.582 168.967 354.121 171.38 355.059 174.161C357.216 175.788 359.631 177.043 362.202 177.875C377.541 183.125 388.416 169.393 386.005 160.75C383.702 152.482 386.487 148.964 397.505 143.786C403.494 141.1 407.712 135.561 408.708 129.073C409.704 122.586 407.341 116.036 402.434 111.678C396.686 106.191 398.829 103.308 401.609 99.5674C404.547 95.6148 408.198 90.704 404.005 80.7499C399.112 69.1606 388.255 71.1427 383.47 72.4285C373.862 74.9642 373.63 70.1249 374.184 65.107V64.5713C374.798 58.7503 372.725 52.9669 368.553 48.8612C364.381 44.7554 358.566 42.7752 352.755 43.482C346.162 44.0477 340.232 47.722 336.791 53.3749C336.791 53.3749 332.38 61.982 325.737 54.3213C317.327 44.6249 297.202 49.3927 291.63 67.4285C290.649 70.92 290.539 74.5987 291.309 78.1427C291.721 80.1811 291.895 82.2606 291.827 84.3392C292.705 85.2907 293.466 86.2375 294.203 87.1534C297.794 91.6164 300.798 95.3491 313.788 95.3554C300.772 95.3627 297.769 91.6433 294.171 87.187C293.424 86.2606 292.65 85.3024 291.755 84.3392C288.224 80.6038 283.742 77.9 278.791 76.5177C277.045 75.947 275.252 75.5287 273.434 75.2677C264.075 74.0461 254.622 76.6897 247.255 82.5892C243.362 85.607 237.291 88.5177 233.202 84.7142C229.112 80.9106 218.398 75.0535 206.72 78.1606C204.911 78.6583 203.161 79.3299 201.493 80.163ZM161.942 106.063C164.192 104.94 166.415 104.161 168.327 103.625C170.954 102.964 173.654 102.64 176.362 102.661C180.78 102.602 183.859 100.326 185.92 97.8088C183.839 100.319 180.747 102.584 176.398 102.643C173.689 102.622 170.989 102.946 168.362 103.607C166.44 104.146 164.204 104.93 161.942 106.063Z" fill="#796BE6"/>
<path fill-rule="evenodd" clip-rule="evenodd" d="M361.041 181.321C363.592 182.206 366.27 182.664 368.97 182.679C374.48 182.735 379.793 180.633 383.773 176.821C388.845 172.018 391.166 165.393 389.613 159.857C388.059 154.321 388.47 152.125 399.184 147.071C406.242 143.871 411.203 137.319 412.37 129.658C413.538 121.997 410.753 114.265 404.97 109.107C401.487 105.768 401.827 105.232 404.541 101.661L404.552 101.646C407.641 97.4853 412.321 91.1826 407.345 79.3749C404.934 73.6607 398.505 64.7142 382.613 68.9821C378.916 69.9642 377.88 69.4107 377.88 69.4107C377.773 69.2678 377.452 68.5714 377.773 65.5714C377.782 65.5242 377.782 65.4757 377.773 65.4285V64.9642C378.502 58.049 376.034 51.1792 371.07 46.3094C366.107 41.4397 359.191 39.103 352.291 39.9642C344.64 40.6589 337.77 44.9384 333.773 51.4999L333.612 51.7678C333.327 52.3392 331.97 53.8392 331.291 53.9464C330.612 54.0535 329.559 53.3035 328.434 51.9999C323.988 46.8749 316.809 44.7678 309.237 46.3749C299.107 48.7302 291.057 56.4044 288.22 66.4107C287.047 70.4786 286.906 74.7745 287.809 78.9107C288.166 80.6728 288.316 82.4708 288.255 84.2678C288.221 85.2106 288.561 86.1286 289.202 86.8214C289.847 87.4952 290.435 88.2266 291.002 88.9324C291.141 89.1057 291.279 89.2774 291.416 89.4464C296.202 95.3928 300.452 99.2321 315.416 98.9642C325.505 98.6964 335.63 104.518 341.988 114.196C348.345 123.875 349.541 135.304 345.184 144.804C340.059 156.071 344.47 162.982 348.041 168.571C349.501 170.681 350.7 172.959 351.613 175.357C351.833 176.02 352.243 176.603 352.791 177.036C355.281 178.918 358.07 180.367 361.041 181.321ZM363.327 174.536C361.433 173.925 359.631 173.06 357.97 171.964C356.853 169.377 355.483 166.907 353.88 164.589L353.804 164.469C350.414 159.156 347.943 155.282 351.487 147.661C356.862 135.911 355.38 121.768 347.773 110.161C340.166 98.5535 328.255 91.6964 315.755 91.6964H315.077C302.534 91.9992 300.248 89.156 296.815 84.8868L296.791 84.8571C296.291 84.2321 295.773 83.5892 295.22 82.9285C295.183 81.0688 294.98 79.2162 294.612 77.3928C293.969 74.4414 294.048 71.3782 294.845 68.4642C296.913 60.9348 302.913 55.1264 310.505 53.3035C314.916 52.0658 319.651 53.3402 322.845 56.6249C326.38 60.7142 329.737 61.2499 331.952 60.9821C336.523 60.4999 339.112 56.1785 339.684 55.1428C342.552 50.4309 347.522 47.3972 353.023 46.9999C357.734 46.4246 362.452 48.0195 365.848 51.3355C369.244 54.6514 370.951 59.3299 370.487 64.0535V64.6964L370.484 64.7326C370.232 67.1031 369.719 71.9431 373.005 74.7857C375.434 76.8749 379.113 77.2321 384.255 75.8749C395.22 72.9107 398.791 78.0178 400.577 82.1249C403.958 90.2039 401.505 93.4949 398.643 97.3347L398.608 97.3805C395.734 101.237 391.795 106.522 399.809 114.25C403.897 117.772 405.899 123.14 405.117 128.479C404.335 133.818 400.878 138.387 395.952 140.589C384.63 145.929 379.434 150.661 382.523 161.75C383.345 164.643 381.755 168.696 378.666 171.607C374.546 175.46 368.577 176.599 363.327 174.536Z" fill="#372168"/>
<path fill-rule="evenodd" clip-rule="evenodd" d="M114.38 176.821C118.32 180.594 123.568 182.693 129.023 182.679C131.699 182.62 134.346 182.126 136.862 181.214C138.205 180.75 139.517 180.201 140.791 179.571C141.971 178.986 142.733 177.799 142.773 176.482C142.952 170.252 145.183 168.162 148.003 165.52L148.005 165.518C153.845 160.054 157.934 154.357 153.166 135.321C148.63 116.929 159.398 109.786 169.237 107.018C171.574 106.443 173.974 106.167 176.38 106.196C182.845 106.196 188.237 102.339 191.559 95.4821C193.03 92.2113 195.179 89.2899 197.862 86.9107C200.686 84.4108 204.037 82.5797 207.666 81.5535C209.048 81.1904 210.081 80.0384 210.291 78.6249C211.165 74.5262 211.012 70.275 209.845 66.2499C207.002 56.2506 198.953 48.5842 188.827 46.2321C181.255 44.6249 174.077 46.7321 169.63 51.8571C168.577 53.1428 167.595 53.8928 166.791 53.8035C165.987 53.7142 164.88 52.4464 164.452 51.6249L164.291 51.3571C160.294 44.7955 153.425 40.5161 145.773 39.8214C138.825 38.9453 131.86 41.3132 126.885 46.2426C121.91 51.172 119.479 58.1153 120.291 65.0714V65.4285C120.282 65.4697 120.282 65.5123 120.291 65.5535C120.702 68.5714 120.291 69.3928 120.291 69.3928C120.291 69.3928 119.291 69.9821 115.559 68.9821C99.6303 64.7142 93.2196 73.6607 90.8089 79.3749C85.8267 91.1964 90.5232 97.5 93.6303 101.661C96.3267 105.304 96.666 105.768 93.1839 109.107C87.4001 114.265 84.6158 121.997 85.7833 129.658C86.9508 137.319 91.912 143.871 98.9696 147.071C109.684 152.125 110.077 154.357 108.541 159.857C107.005 165.357 109.309 172.018 114.38 176.821ZM97.416 82.0892C98.8732 77.645 103.119 74.7216 107.791 74.9464C109.806 74.9903 111.805 75.3026 113.737 75.8749C118.88 77.2321 122.541 76.8749 124.97 74.7857C128.256 71.9431 127.743 67.1032 127.491 64.7326L127.487 64.6964V64.1785C126.99 59.4407 128.679 54.7346 132.075 51.3941C135.472 48.0535 140.205 46.4425 144.934 47.0178C150.436 47.415 155.405 50.4488 158.273 55.1607C158.88 56.1964 161.434 60.4464 166.023 60.9999C168.22 61.2499 171.541 60.7321 175.112 56.6428C178.306 53.3581 183.041 52.0836 187.452 53.3214C195.04 55.1411 201.039 60.9417 203.112 68.4642C203.774 70.729 203.962 73.1057 203.666 75.4464C199.889 76.8091 196.391 78.8483 193.345 81.4642C189.896 84.4939 187.128 88.2181 185.22 92.3928C183.702 95.4285 180.97 99.1428 176.291 99.1428C173.28 99.1169 170.279 99.4831 167.362 100.232C158.862 102.607 139.809 110.982 146.362 137.143C150.398 153.571 147.13 156.786 143.255 160.357C139.03 163.72 136.376 168.673 135.916 174.054L134.666 174.5C129.416 176.564 123.447 175.424 119.327 171.571C116.237 168.661 114.648 164.607 115.47 161.714C118.559 150.625 113.362 145.911 102.041 140.554C97.1151 138.351 93.6574 133.783 92.8756 128.444C92.0937 123.105 94.0963 117.737 98.1839 114.214C106.19 106.493 102.142 101.051 99.392 97.3549L99.3658 97.3198C96.6212 93.6306 94.0291 90.1465 97.416 82.0892Z" fill="#372168"/>
<path d="M162.112 212.411C161.167 212.407 160.261 212.028 159.595 211.357C158.448 210.217 158.21 208.448 159.016 207.045C159.821 205.643 161.469 204.957 163.032 205.373C164.595 205.789 165.683 207.204 165.684 208.821C165.687 210.265 164.82 211.569 163.487 212.125C163.052 212.307 162.585 212.404 162.112 212.411Z" fill="#372168"/>
<path fill-rule="evenodd" clip-rule="evenodd" d="M333.577 211.821C334.2 212.305 334.966 212.569 335.755 212.571C336.097 212.585 336.439 212.555 336.773 212.482C337.541 212.286 355.541 207.25 359.291 183C359.828 179.674 359.553 176.268 358.487 173.071C357.37 170.115 355.901 167.303 354.112 164.696L354.036 164.576C350.646 159.263 348.175 155.389 351.72 147.768C357.095 136.018 355.613 121.875 348.005 110.268C340.398 98.6607 328.487 91.8035 315.987 91.8035H315.309C302.767 92.1064 300.48 89.2631 297.047 84.994L297.023 84.9642C296.273 83.9999 295.452 82.9999 294.487 81.9464C290.54 77.7667 285.536 74.7311 280.005 73.1607C278.082 72.5402 276.111 72.0803 274.112 71.7857C263.794 70.4419 253.37 73.3343 245.22 79.8035C242.237 82.1428 238.184 84.3928 235.773 82.1428C231.345 78.0178 219.416 71.1785 205.952 74.7499C196.755 77.2358 189.155 83.7091 185.237 92.3928C183.72 95.4285 180.987 99.1428 176.309 99.1428C173.298 99.117 170.297 99.4831 167.38 100.232C158.88 102.607 139.827 110.982 146.38 137.143C150.416 153.571 147.148 156.786 143.273 160.357C138.426 164.222 135.654 170.123 135.773 176.321C135.729 178.457 135.836 180.594 136.095 182.714C138.176 200.133 158.216 211.4 159.209 211.959L159.22 211.964C160.347 212.564 161.708 212.516 162.791 211.839C174.916 204.143 174.255 190.714 173.72 179.911C173.398 173.518 173.095 167.464 175.595 164.857C176.862 163.5 179.095 162.839 182.398 162.839C191.97 162.839 199.434 157.946 203.987 148.661C204.832 146.897 206.571 145.733 208.523 145.625C210.52 145.445 212.462 146.335 213.63 147.964C226.13 165.786 242.202 170.964 260.059 162.911L260.273 162.804C260.407 162.736 267.756 159.037 276.255 167.625C287.059 178.571 295.255 177.446 302.398 176.464L302.445 176.458C307.319 175.8 311.576 175.225 316.916 178.5C325.934 183.982 325.845 188.107 325.72 193.339C325.612 198.179 325.487 204.161 332.398 210.196C332.628 210.84 333.037 211.404 333.577 211.821ZM320.595 172.375C316.853 170.018 312.516 168.779 308.095 168.804C305.808 168.856 303.529 169.071 301.273 169.446L301.257 169.449C294.675 170.34 289.463 171.047 281.166 162.661C269.523 150.875 258.362 155.75 256.898 156.482C242.505 163 229.773 158.768 219.291 143.893C216.696 140.174 212.308 138.13 207.791 138.536C203.329 138.845 199.373 141.514 197.416 145.536C194.041 152.393 189.077 155.714 182.237 155.714C176.88 155.714 172.952 157.107 170.255 159.946C165.653 164.781 166.022 172.288 166.415 180.261L166.416 180.286C166.88 189.429 167.345 198.875 160.559 204.554C155.916 201.536 144.309 193.018 142.987 181.893C142.75 180.118 142.654 178.326 142.702 176.536C142.88 170.305 145.111 168.215 147.932 165.573L147.934 165.571C153.773 160.107 157.862 154.411 153.095 135.375C148.559 116.982 159.327 109.839 169.166 107.071C171.503 106.497 173.903 106.221 176.309 106.25C182.773 106.25 188.166 102.393 191.487 95.5357C192.959 92.2649 195.107 89.3434 197.791 86.9642C200.615 84.4644 203.966 82.6333 207.595 81.6071C218.523 78.7142 228.059 84.7321 230.809 87.3035C233.559 89.8749 239.63 93.0535 249.487 85.4107C256.099 80.1209 264.569 77.7313 272.97 78.7857C274.577 79.0207 276.161 79.3972 277.702 79.9107C282.075 81.0909 286.037 83.458 289.148 86.7499C289.793 87.4238 290.381 88.1552 290.948 88.861C291.087 89.0343 291.225 89.206 291.362 89.3749C296.148 95.3214 300.398 99.1607 315.362 98.8928C325.452 98.625 335.577 104.446 341.934 114.125C348.291 123.804 349.487 135.232 345.13 144.732C340.005 156 344.416 162.911 347.988 168.5C349.451 170.601 350.651 172.874 351.559 175.268C352.273 177.382 352.451 179.64 352.077 181.839C349.755 196.893 341.023 202.732 336.934 204.661C332.817 201.026 332.821 197.956 332.826 193.912C332.827 193.764 332.827 193.615 332.827 193.464C332.97 187.464 333.095 179.982 320.595 172.375Z" fill="#372168"/>
<path d="M160.88 208.821L160.702 208.464L160.809 208.643C160.839 208.7 160.863 208.759 160.88 208.821Z" fill="#372168"/>
<path d="M160.88 212.393C159.529 212.395 158.292 211.635 157.684 210.429C157.571 210.226 157.47 210.017 157.38 209.804C156.664 208.035 157.464 206.015 159.198 205.218C160.931 204.42 162.986 205.127 163.862 206.821C163.963 206.979 164.047 207.146 164.112 207.321C164.342 207.788 164.458 208.302 164.452 208.821C164.497 210.513 163.349 212.004 161.702 212.393C161.429 212.427 161.153 212.427 160.88 212.393Z" fill="#372168"/>
<path fill-rule="evenodd" clip-rule="evenodd" d="M348.934 75.1249C352.268 76.7149 354.79 79.6193 355.898 83.1428C356.235 84.0648 355.764 85.0856 354.845 85.4285C354.645 85.5042 354.433 85.5465 354.22 85.5535C353.468 85.5532 352.797 85.082 352.541 84.3749C351.76 81.7755 349.937 79.616 347.505 78.4107C345.243 77.5963 342.782 77.542 340.493 78.2478L340.005 78.4107C339.567 78.5939 339.074 78.5953 338.635 78.4143C338.196 78.2334 337.848 77.8851 337.666 77.4464C337.298 76.5341 337.737 75.4962 338.648 75.1249C341.958 73.8478 345.624 73.8478 348.934 75.1249ZM237.895 104.561C237.867 103.864 237.436 103.248 236.791 102.982C233.748 100.902 229.973 100.19 226.38 101.018C222.988 102.059 220.104 104.325 218.291 107.375C217.809 108.233 218.113 109.319 218.97 109.804C219.236 109.955 219.538 110.035 219.845 110.036C220.514 110.061 221.142 109.709 221.47 109.125L221.747 108.69C223.088 106.694 225.064 105.203 227.362 104.464C230.018 103.91 232.784 104.479 235.005 106.036C235.553 106.467 236.301 106.54 236.922 106.224C237.543 105.907 237.923 105.257 237.895 104.561ZM323.577 124.054C326.394 126.434 328.084 129.886 328.237 133.571C328.331 134.553 327.611 135.424 326.63 135.518L326.47 135.571C325.543 135.575 324.767 134.869 324.684 133.946C324.596 131.242 323.401 128.692 321.38 126.893C319.406 125.502 317.031 124.808 314.628 124.912L314.112 124.946C313.474 125.029 312.841 124.766 312.45 124.255C312.059 123.744 311.971 123.063 312.218 122.469C312.465 121.875 313.01 121.458 313.648 121.375C317.175 121.004 320.714 121.959 323.577 124.054ZM137.218 124.509C137.339 123.871 137.102 123.217 136.601 122.803C136.1 122.389 135.414 122.28 134.809 122.518L134.33 122.669C131.004 123.792 128.258 126.204 126.72 129.375C125.391 132.665 125.333 136.331 126.559 139.661C126.83 140.341 127.488 140.786 128.22 140.786C128.445 140.779 128.668 140.737 128.88 140.661C129.321 140.486 129.674 140.143 129.862 139.707C130.049 139.272 130.056 138.78 129.88 138.339L129.717 137.848C129.011 135.541 129.103 133.058 129.987 130.804C131.229 128.395 133.415 126.609 136.023 125.875C136.64 125.671 137.098 125.148 137.218 124.509ZM183.612 132.179C184.599 132.272 185.322 133.148 185.229 134.134C185.135 135.12 184.259 135.844 183.273 135.75C180.602 135.317 177.871 136.002 175.72 137.643C173.852 139.441 172.686 141.848 172.434 144.429C172.317 145.323 171.55 145.99 170.648 145.982H170.541C169.604 145.916 168.878 145.136 168.88 144.196C169.18 140.661 170.784 137.364 173.38 134.946C176.256 132.638 179.965 131.635 183.612 132.179ZM370.363 147C369.828 143.493 368.007 140.31 365.255 138.071C364.474 137.542 363.416 137.711 362.84 138.458C362.263 139.205 362.367 140.271 363.077 140.893C365.049 142.558 366.371 144.866 366.809 147.411C366.969 150.125 365.992 152.784 364.113 154.75C363.809 155.114 363.663 155.585 363.706 156.057C363.75 156.529 363.979 156.965 364.345 157.268C364.666 157.534 365.07 157.679 365.488 157.679C365.996 157.654 366.471 157.414 366.791 157.018L367.145 156.627C369.446 153.977 370.609 150.515 370.363 147ZM287.916 147.464C286.814 143.942 284.289 141.041 280.952 139.464C277.642 138.187 273.976 138.187 270.666 139.464C269.754 139.839 269.318 140.882 269.693 141.795C270.068 142.707 271.111 143.143 272.023 142.768L272.51 142.602C274.798 141.886 277.263 141.941 279.523 142.768C281.964 143.97 283.79 146.14 284.559 148.75C284.82 149.45 285.49 149.913 286.237 149.911C286.452 149.899 286.664 149.85 286.862 149.768C287.309 149.603 287.671 149.268 287.868 148.835C288.066 148.403 288.083 147.909 287.916 147.464ZM163.234 78.0608C163.206 77.3642 162.775 76.7478 162.13 76.4821C159.087 74.4019 155.312 73.6897 151.72 74.5178C148.327 75.5586 145.444 77.8248 143.63 80.8749C143.149 81.7332 143.452 82.8193 144.309 83.3035C144.576 83.4548 144.877 83.5347 145.184 83.5357C145.854 83.561 146.481 83.2094 146.809 82.6249L147.089 82.1907C148.441 80.1996 150.421 78.71 152.72 77.9642C155.369 77.4175 158.127 77.9858 160.345 79.5357C160.892 79.9671 161.641 80.0405 162.262 79.7235C162.883 79.4066 163.262 78.7573 163.234 78.0608Z" fill="#372168"/>
<path fill-rule="evenodd" clip-rule="evenodd" d="M190.13 82.3393L195.701 91.6608C198.006 95.5174 196.751 100.512 192.898 102.821L182.469 109.054C180.619 110.17 178.401 110.502 176.305 109.975C174.21 109.449 172.411 108.108 171.308 106.25L165.737 96.9286C164.353 94.6292 164.199 91.7928 165.326 89.3572C166.008 87.8718 167.122 86.6269 168.523 85.7858L178.951 79.5536C180.411 78.6743 182.111 78.2804 183.808 78.4286C186.422 78.6383 188.775 80.0939 190.13 82.3393Z" fill="#FFB07D"/>
<path fill-rule="evenodd" clip-rule="evenodd" d="M168.237 108.089C170.362 111.624 174.184 113.786 178.308 113.786L178.683 113.804C180.657 113.73 182.579 113.159 184.273 112.143L194.683 105.911C197.361 104.325 199.295 101.736 200.056 98.7189C200.817 95.7016 200.342 92.5054 198.737 89.8394L193.166 80.518C191.248 77.3292 187.939 75.2314 184.237 74.8573H184.112C181.673 74.642 179.229 75.2047 177.13 76.4644L166.719 82.6965C164.739 83.8743 163.154 85.6148 162.166 87.6965L162.076 87.8751C160.467 91.3816 160.687 95.4556 162.666 98.768L168.237 108.089ZM168.791 95.1074C168.046 93.8417 167.946 92.2975 168.523 90.9467C168.541 90.8932 168.648 90.7146 168.648 90.7146C169.027 89.892 169.651 89.2061 170.433 88.7503L180.862 82.5182C181.67 82.0243 182.614 81.7993 183.558 81.8753C185.04 81.9842 186.374 82.8113 187.13 84.0896L192.701 93.411C193.522 94.8244 193.522 96.569 192.701 97.9824C192.32 98.7118 191.754 99.3277 191.058 99.7682L180.63 106C179.974 106.39 179.232 106.611 178.469 106.643C176.797 106.716 175.22 105.866 174.362 104.429L168.791 95.1074Z" fill="#372168"/>
<path fill-rule="evenodd" clip-rule="evenodd" d="M178.612 110.214C175.755 120.75 162.719 136.518 154.005 138.072C141.862 140.232 129.38 120.643 125.291 111.643C121.487 103.232 120.505 94.3395 130.648 88.2859C137.933 83.9288 155.826 87.143 165.38 89.3038C164.252 91.7394 164.406 94.5758 165.791 96.8752L171.362 106.197C172.86 108.763 175.642 110.305 178.612 110.214Z" fill="#FF8EC1"/>
<path fill-rule="evenodd" clip-rule="evenodd" d="M133.951 131.411C140.13 138.232 146.201 141.803 152.041 141.803C152.905 141.774 153.765 141.672 154.612 141.5C164.969 139.714 178.844 122.875 182.041 111.143C182.336 110.049 182.094 108.879 181.39 107.992C180.686 107.104 179.602 106.604 178.469 106.643C176.797 106.715 175.22 105.865 174.362 104.428L168.791 95.107C168.046 93.8413 167.946 92.2971 168.523 90.9463C168.988 90.0431 169.046 88.9845 168.683 88.0356C168.261 86.9204 167.31 86.0897 166.148 85.8213C153.451 82.9463 136.666 80.4999 128.791 85.2141C118.648 91.2677 116.38 100.607 122.023 113.107C125.118 119.739 129.133 125.901 133.951 131.411ZM132.451 91.3392C135.369 90.0283 138.564 89.4578 141.755 89.6785C148.239 89.8321 154.693 90.6216 161.023 92.0356C160.878 94.3941 161.451 96.7412 162.666 98.7678L168.237 108.089C169.538 110.252 171.496 111.941 173.826 112.911C169.666 122.303 159.433 133.464 153.362 134.553C144.701 136.089 133.416 120.875 128.523 110.161C124.416 101.071 125.576 95.4463 132.451 91.3392Z" fill="#372168"/>
<path d="M167.505 101.697C167.265 101.701 167.027 101.652 166.808 101.554C161.356 99.3871 155.327 99.1477 149.719 100.875L148.648 101.125C147.662 101.337 146.69 100.71 146.478 99.7233C146.266 98.7371 146.894 97.7657 147.88 97.5537L148.898 97.3215C155.254 95.428 162.064 95.7427 168.219 98.2144C168.98 98.5606 169.398 99.3878 169.227 100.206C169.056 101.023 168.34 101.613 167.505 101.625V101.697Z" fill="#372168"/>
<path d="M158.291 120.786C157.554 120.784 156.894 120.33 156.629 119.642C156.364 118.954 156.549 118.174 157.094 117.679L157.576 117.25C161.255 113.929 166.308 109.393 167.38 102.375C167.535 101.405 168.445 100.743 169.416 100.893C169.885 100.963 170.307 101.218 170.588 101.6C170.869 101.982 170.987 102.46 170.916 102.929C169.648 111.197 163.773 116.429 159.951 119.893L159.487 120.322C159.16 120.619 158.733 120.785 158.291 120.786Z" fill="#372168"/>
<path fill-rule="evenodd" clip-rule="evenodd" d="M233.969 89.3214C227.416 95.7857 212.541 102.107 195.773 99.8035C197.196 97.2637 197.149 94.1556 195.648 91.6607L190.076 82.3393C188.737 80.1015 186.406 78.6409 183.808 78.4107C186.666 68.8571 192.844 51.0535 200.487 46.5C211.076 40.1607 219.916 46.125 225.487 52.9821C231.451 60.1071 243.505 79.9464 233.969 89.3214Z" fill="#FF8EC1"/>
<path fill-rule="evenodd" clip-rule="evenodd" d="M195.344 103.357C197.842 103.69 200.36 103.857 202.88 103.857C217.594 103.857 230.255 98.0714 236.523 91.75C248.166 80.3393 234.558 58.2321 228.344 50.6786C219.558 40.0179 208.755 37.375 198.683 43.3929C190.505 48.25 184.237 64.5179 180.398 77.3214C180.096 78.3209 180.246 79.4025 180.809 80.2817C181.372 81.1609 182.292 81.7496 183.326 81.8928H183.558C185.04 82.0017 186.374 82.8288 187.13 84.1071L192.701 93.4286C193.522 94.842 193.522 96.5866 192.701 98C192.09 99.0374 192.043 100.313 192.576 101.392C193.109 102.472 194.149 103.211 195.344 103.357ZM231.505 86.8573C225.773 92.518 213.612 97.3752 200.398 96.7145V96.643C200.544 94.2868 199.977 91.9411 198.773 89.9109L193.201 80.5895C192.038 78.6498 190.339 77.0872 188.308 76.0895C192.826 62.018 197.987 52.2323 202.344 49.6252C209.362 45.4466 216.255 47.3573 222.826 55.3395C228.523 62.2502 238.648 79.7145 231.505 86.8573Z" fill="#372168"/>
<path d="M192.273 86.8928H192.112C191.131 86.8077 190.405 85.9451 190.487 84.9643C191.224 78.3737 194.176 72.2286 198.862 67.5357L199.558 66.75C199.953 66.2023 200.622 65.9239 201.289 66.0303C201.955 66.1368 202.505 66.6099 202.709 67.2531C202.914 67.8964 202.738 68.5999 202.255 69.0714L201.541 69.8928C197.368 74.016 194.728 79.4402 194.058 85.2678C193.975 86.1908 193.199 86.8966 192.273 86.8928Z" fill="#372168"/>
<path d="M200.523 90.7499C198.09 90.7514 195.675 90.3409 193.38 89.5356C192.777 89.3219 192.334 88.8028 192.218 88.1738C192.101 87.5448 192.329 86.9015 192.816 86.4863C193.302 86.071 193.973 85.9469 194.576 86.1606C201.255 88.5356 207.648 86.1606 212.308 84.5535L212.916 84.3392C213.833 84.0363 214.826 84.5186 215.155 85.4275C215.483 86.3365 215.029 87.342 214.13 87.6963L213.523 87.9285C209.388 89.6224 204.988 90.5774 200.523 90.7499Z" fill="#372168"/>
</g>
<path fill-rule="evenodd" clip-rule="evenodd" d="M0 250C0 111.929 111.929 0 250 0C388.071 0 500 111.929 500 250C500 388.071 388.071 500 250 500C111.929 500 0 388.071 0 250ZM492.857 250C492.857 115.874 384.126 7.14286 250 7.14286C115.874 7.14286 7.14286 115.874 7.14286 250C7.14286 384.126 115.874 492.857 250 492.857C384.126 492.857 492.857 384.126 492.857 250Z" fill="#372168"/>
</svg>
