<svg width="500" height="500" viewBox="0 0 500 500" fill="none" xmlns="http://www.w3.org/2000/svg">
<path fill-rule="evenodd" clip-rule="evenodd" d="M250 496.429C386.099 496.429 496.429 386.099 496.429 250C496.429 113.901 386.099 3.57153 250 3.57153C113.901 3.57153 3.57144 113.901 3.57144 250C3.57144 386.099 113.901 496.429 250 496.429Z" fill="#E7EEFF"/>
<mask id="mask0_0_273" style="mask-type:alpha" maskUnits="userSpaceOnUse" x="3" y="3" width="494" height="494">
<path fill-rule="evenodd" clip-rule="evenodd" d="M250 496.429C386.099 496.429 496.429 386.099 496.429 250C496.429 113.901 386.099 3.57153 250 3.57153C113.901 3.57153 3.57144 113.901 3.57144 250C3.57144 386.099 113.901 496.429 250 496.429Z" fill="white"/>
</mask>
<g mask="url(#mask0_0_273)">
<path fill-rule="evenodd" clip-rule="evenodd" d="M336.359 210.077L336.357 210.036C337.536 196.964 339.357 159.232 324.071 134.357C305.536 104.339 275.161 95.5538 249.464 95.9823C223.732 95.5538 193.357 104.339 174.821 134.357C159.554 159.125 161.375 196.911 162.571 209.929V210.03C158.281 208.601 153.604 208.884 149.518 210.822C140.161 215.268 136.089 230.125 145.018 243.714C151.783 254.04 163.198 255.882 171.903 253.893C172.226 254.732 172.545 255.575 172.861 256.412C173.129 257.121 173.395 257.825 173.661 258.518L174.768 261.286C180.393 275.65 188.675 288.827 199.179 300.125C203.705 304.911 208.768 309.16 214.268 312.786C224.14 319.474 235.722 323.192 247.643 323.5H251.214C263.136 323.197 274.719 319.479 284.589 312.786C288.752 310.04 292.665 306.938 296.285 303.517C292.662 306.964 288.743 310.089 284.571 312.857C274.701 319.55 263.118 323.269 251.196 323.572H247.625C235.705 323.264 224.122 319.546 214.25 312.857C208.75 309.231 203.687 304.983 199.161 300.197V359.357C200.071 365.125 211.625 370.054 227.982 372.357C234.864 373.313 241.802 373.796 248.75 373.804H250C256.947 373.796 263.886 373.313 270.768 372.357C287.214 369.982 298.804 365.072 299.607 359.268V300.202L299.696 300.107C310.194 288.814 318.47 275.644 324.089 261.286L325.196 258.518C325.814 257.001 326.396 255.431 326.961 253.879C335.674 255.891 347.129 254.066 353.911 243.714C362.768 230.125 358.768 215.268 349.375 210.875C345.301 208.942 340.638 208.656 336.359 210.077ZM168.304 242.786C168.661 244.021 169.028 245.245 169.406 246.458C169.011 245.278 168.62 244.09 168.232 242.893C167.946 241.947 167.607 240.768 167.393 239.964L167.392 239.962L167.392 239.96C167.177 239.157 166.893 238.088 166.75 237.482C166.693 237.24 166.647 237.035 166.601 236.826L166.6 236.823C166.53 236.507 166.457 236.179 166.339 235.697C166.241 235.295 166.156 234.88 166.071 234.464C165.987 234.049 165.902 233.634 165.804 233.232C165.607 232.429 165.446 231.625 165.286 230.786L165.179 230.232C164.982 229.161 164.786 228.072 164.607 226.964C164.464 226.191 164.339 225.405 164.232 224.607C164.214 224.515 164.194 224.422 164.174 224.329L164.173 224.326C164.096 223.968 164.018 223.604 164.018 223.25C163.857 222.125 163.696 220.982 163.554 219.822C163.387 218.548 163.244 217.316 163.125 216.125C163.018 215.625 162.964 215.125 162.964 214.625C162.964 214.625 163.089 214.286 162.964 214.018C162.896 213.873 162.892 213.638 162.887 213.419C162.884 213.235 162.88 213.062 162.839 212.964C162.784 212.833 162.783 212.809 162.778 212.682C162.775 212.602 162.771 212.482 162.75 212.268L162.74 212.172L162.732 212.101C162.738 212.124 162.744 212.144 162.75 212.161C162.791 212.274 162.787 212.34 162.783 212.418C162.777 212.512 162.771 212.623 162.839 212.857C162.907 213.091 162.912 213.266 162.916 213.441C162.92 213.587 162.924 213.732 162.964 213.911C163.054 214.304 163.054 214.518 163.054 214.518C163.068 214.718 163.094 214.918 163.119 215.118C163.158 215.418 163.196 215.718 163.196 216.018C163.312 217.178 163.459 218.368 163.594 219.46L163.625 219.714C163.768 220.875 163.929 222.018 164.089 223.143C164.114 223.298 164.137 223.456 164.16 223.614C164.202 223.91 164.245 224.209 164.304 224.5C164.411 225.298 164.536 226.084 164.679 226.857C164.857 227.964 165.054 229.054 165.25 230.125L165.357 230.679C165.437 231.098 165.527 231.5 165.616 231.902C165.705 232.304 165.795 232.706 165.875 233.125C165.967 233.603 166.087 234.134 166.197 234.617C166.28 234.982 166.357 235.321 166.411 235.589C166.536 236.214 166.679 236.804 166.821 237.375L166.933 237.814C167.097 238.459 167.245 239.038 167.464 239.857C167.732 240.857 168.018 241.839 168.304 242.786ZM162.634 211.151C162.641 211.261 162.649 211.369 162.657 211.471C162.623 211.182 162.595 210.883 162.59 210.572C162.607 210.764 162.621 210.962 162.634 211.151Z" fill="#FFD6CB"/>
<path d="M28.5707 496.429C28.9183 495.049 29.1003 494.313 29.4544 492.974C29.7006 492.043 29.9441 491.123 30.1785 490.214C31.1785 486.643 32.1963 483.072 33.2321 479.804C33.356 479.409 33.48 479.017 33.6034 478.626C33.8711 477.778 34.1361 476.938 34.3928 476.107C34.6785 475.214 34.9642 474.322 35.2499 473.5C36.0356 471.143 36.8213 468.857 37.6071 466.661C39.3809 461.732 41.1666 457.197 42.9642 453.054C43.4106 452 43.8571 450.964 44.3035 449.964L44.5713 449.375C45.5356 447.161 46.5178 445.089 47.4999 443.125C50.2914 437.275 53.6023 431.687 57.3928 426.429C57.4429 426.354 57.4969 426.282 57.5493 426.213L57.5494 426.213C57.609 426.134 57.6667 426.058 57.7142 425.982C58.6963 424.697 59.6428 423.536 60.5535 422.536L60.6606 422.411C61.3019 421.689 61.9832 420.988 62.6596 420.291C62.8873 420.057 63.1144 419.823 63.3392 419.589C69.0978 413.797 75.4344 408.609 82.2499 404.107L84.3213 402.732C85.369 402.042 86.4404 401.363 87.5356 400.697C90.1785 399.054 92.8928 397.464 95.6964 395.911C100.321 393.339 105.107 390.911 109.982 388.607C115.875 385.822 121.875 383.25 127.839 380.822L131.893 379.214C133.053 378.75 134.232 378.304 135.464 377.875C140.678 375.893 145.857 374.072 150.911 372.375C160.696 369.089 169.964 366.339 178.143 364.072C186.607 361.732 193.857 359.911 199.196 358.625C199.17 358.874 199.17 359.126 199.196 359.375C200.107 365.143 211.696 370.089 228.018 372.375C234.899 373.33 241.838 373.814 248.786 373.822H250.036C256.983 373.814 263.922 373.33 270.804 372.375C287.25 370.054 298.839 365.089 299.643 359.286C299.66 359.066 299.66 358.845 299.643 358.625C305 359.929 312.321 361.75 320.839 364.107C328.982 366.357 338.196 369.107 347.928 372.375C354.107 374.447 360.428 376.714 366.875 379.214C370.149 380.476 373.417 381.804 376.678 383.197L380.411 384.786L383.411 386.107C390.143 389.143 396.768 392.393 403.053 395.911C406.982 398.089 410.803 400.357 414.446 402.732L415.464 403.411C417.25 404.554 419.036 405.732 420.607 406.982C425.886 410.723 430.838 414.905 435.411 419.482C436.375 420.447 437.303 421.429 438.196 422.429C439.286 423.635 440.312 424.899 441.268 426.214V426.322C442.089 427.429 442.946 428.643 443.786 429.893C446.514 434.095 448.983 438.461 451.178 442.964C452.232 445.107 453.286 447.375 454.375 449.804C455.053 451.339 455.732 452.929 456.411 454.572C456.875 455.677 457.326 456.811 457.787 457.974L457.946 458.375C458.958 460.947 459.976 463.655 461 466.5C461.786 468.697 462.571 470.982 463.357 473.339C464.262 476.113 465.173 478.994 466.089 481.982C466.219 482.421 466.351 482.862 466.484 483.306L466.488 483.32L466.489 483.323C466.738 484.154 466.989 484.993 467.232 485.839L467.341 486.219C467.689 487.426 468.073 488.762 468.429 490.054C469.054 492.268 469.089 494.089 469.642 496.429H28.5707Z" fill="#7795F0"/>
<g style="mix-blend-mode:soft-light" opacity="0.8">
<path d="M320.929 364.089C316.518 370.839 309.143 376.197 299.679 380.161C291.583 383.427 283.114 385.677 274.464 386.857C257.921 389.19 241.133 389.19 224.589 386.857C215.891 385.664 207.373 383.397 199.232 380.107C189.822 376.143 182.5 370.786 178.107 364.036C186.572 361.697 193.822 359.875 199.161 358.589C199.135 358.839 199.135 359.09 199.161 359.339C200.072 365.107 211.661 370.054 227.982 372.339C234.864 373.295 241.803 373.778 248.75 373.786H250C256.948 373.778 263.886 373.295 270.768 372.339C287.214 370.018 298.804 365.054 299.607 359.25C299.625 359.03 299.625 358.809 299.607 358.589C305.107 359.911 312.411 361.732 320.929 364.089Z" fill="white"/>
</g>
<g style="mix-blend-mode:multiply" opacity="0.15">
<path fill-rule="evenodd" clip-rule="evenodd" d="M296.036 303.786V356.107C251.536 356.804 218.571 333.893 202.839 320.197V303.75C206.379 307.132 210.222 310.181 214.321 312.857C224.197 319.539 235.777 323.257 247.696 323.572H251.268C263.187 323.257 274.768 319.539 284.643 312.857C288.703 310.179 292.516 307.143 296.036 303.786Z" fill="#7C3830"/>
</g>
<path fill-rule="evenodd" clip-rule="evenodd" d="M251.405 92.5021L249.607 92.5181C229.964 92.1609 193.786 96.9645 172.107 132.572C158.313 154.962 157.857 186.762 158.887 204.188L158.974 205.569C155.23 205.217 151.43 205.875 147.982 207.518C142.75 210.188 138.924 214.984 137.482 220.679C135.315 229.276 136.969 238.391 142.018 245.679L142.367 246.206C147.561 253.862 156.293 258.382 165.572 258.179C166.928 258.145 168.279 258.026 169.616 257.82C169.875 258.516 170.14 259.214 170.411 259.911L171.518 262.697C177.149 276.991 185.317 290.146 195.623 301.529L195.714 301.627L195.715 355.746C189.544 357.259 183.316 358.893 177.018 360.625C167.286 363.322 158.322 366.054 149.607 368.982C143.947 370.947 138.839 372.732 134.054 374.518C133.649 374.661 133.268 374.802 132.89 374.945L129.121 376.404C128.211 376.762 127.298 377.131 126.393 377.5L123.777 378.554C118.55 380.687 113.355 382.972 108.304 385.375C103.161 387.804 98.268 390.286 93.8037 392.786C90.7323 394.5 88.018 396.09 85.5359 397.625L84.686 398.148C83.8439 398.67 83.027 399.192 82.2502 399.715C81.518 400.179 80.7859 400.661 80.1252 401.125C73.1183 405.706 66.5965 410.99 60.6609 416.893C60.1084 417.526 59.5607 418.081 59.0418 418.606C58.6385 419.014 58.2521 419.406 57.893 419.804L57.768 419.964C56.8395 420.964 55.8395 422.179 54.7323 423.643C54.6629 423.719 54.6029 423.803 54.5538 423.893L54.3752 424.125L53.4065 425.489C49.8928 430.513 46.8002 435.821 44.1609 441.357C43.2935 442.952 42.5902 444.473 41.9337 445.961L41.1609 447.732L40.434 449.369C40.1311 450.062 39.8335 450.768 39.5359 451.482L38.9407 452.892C37.3534 456.697 35.7661 460.857 34.1788 465.286C33.393 467.5 32.5895 469.822 31.8038 472.197L31.5048 473.082L30.9109 474.875L29.3308 479.975C28.7464 481.87 28.1571 483.86 27.5661 485.923L26.6788 489.072C26.397 490.181 26.1022 491.308 25.8051 492.444L25.8033 492.45C25.4984 493.616 25.1912 494.79 24.893 495.964L24.4109 497.75C24.2591 498.339 24.2617 499.386 24.1076 500H475L473.607 495.268C473.607 495.268 472.5 491.089 471.929 489.089C471.643 488.036 471.339 486.964 471.036 485.929L470.732 484.839L469.572 480.929C469.114 479.523 468.684 478.141 468.261 476.782L468.259 476.777L468.259 476.775C467.774 475.218 467.299 473.692 466.804 472.197C466.018 469.822 465.214 467.5 464.429 465.286C463.375 462.411 462.339 459.607 461.322 457.054L461.161 456.607C460.697 455.429 460.232 454.286 459.768 453.197C459.089 451.518 458.393 449.911 457.697 448.339C456.813 446.371 455.999 444.603 455.218 442.961L454.447 441.357C452.18 436.743 449.646 432.265 446.857 427.947C446.494 427.435 446.143 426.92 445.786 426.397L445.785 426.395L445.78 426.388L445.776 426.382L445.775 426.38C445.276 425.649 444.766 424.902 444.197 424.125L444.054 423.947C442.893 422.375 441.786 421.018 440.839 419.982C439.893 418.947 438.911 417.893 437.929 416.911C433.212 412.19 428.105 407.877 422.661 404.018C420.875 402.732 419.107 401.518 417.447 400.447C417.072 400.197 416.697 399.929 416.375 399.732L415.181 398.96C411.971 396.906 408.544 394.879 404.75 392.768C398.697 389.411 392.179 386.161 384.786 382.84L381.732 381.5L380.786 381.089L378 379.893C374.804 378.536 371.572 377.232 368.089 375.875C362.036 373.518 355.786 371.268 348.982 368.982C340.197 366.018 331.018 363.232 321.714 360.661C316.142 359.113 311.158 357.818 307.021 356.777L303.177 355.82L303.18 301.869C313.65 290.402 321.936 277.115 327.625 262.661L328.75 259.84C328.994 259.208 329.236 258.57 329.475 257.934C330.756 258.092 332.047 258.174 333.339 258.179C342.78 258.375 351.652 253.682 356.804 245.768L357.228 245.139C361.94 237.958 363.446 229.123 361.357 220.768C359.903 215.075 356.072 210.281 350.839 207.607C347.544 206.034 343.923 205.364 340.34 205.62C341.456 188.523 341.341 155.535 327.197 132.59C305.857 98.0333 271.243 92.4937 251.405 92.5021ZM174.31 368.941L176.707 368.261C181.449 374.391 188.538 379.467 197.822 383.375C206.269 386.798 215.111 389.15 224.143 390.375C232.577 391.588 241.087 392.184 249.607 392.161C258.096 392.211 266.576 391.644 274.982 390.464C283.919 389.235 292.669 386.908 301.036 383.536C310.438 379.612 317.599 374.466 322.363 368.292C330.744 370.648 339.002 373.193 346.947 375.857C353.643 378.107 359.786 380.322 365.732 382.643C369.143 383.964 372.322 385.25 375.464 386.589L379.161 388.161L382.089 389.464C389.286 392.697 395.643 395.857 401.518 399.125C405.607 401.411 409.286 403.607 412.75 405.857L414.713 407.143C416.029 408.014 417.375 408.943 418.732 409.929C423.828 413.56 428.607 417.616 433.018 422.054L433.027 422.063L433.028 422.064L433.031 422.067C433.92 422.973 434.826 423.898 435.697 424.893C436.703 425.999 437.645 427.162 438.518 428.375L438.679 428.572C439.554 429.732 440.304 430.839 441.036 431.964C443.67 436.043 446.056 440.277 448.179 444.643L448.549 445.397C449.169 446.67 449.807 448.032 450.479 449.51L451.304 451.34C451.982 452.857 452.643 454.411 453.322 456.054L453.768 457.136C454.066 457.865 454.363 458.607 454.661 459.357L454.822 459.786C455.804 462.268 456.822 464.964 457.839 467.804L458.426 469.444C459.009 471.102 459.585 472.813 460.161 474.554L460.709 476.209C461.439 478.434 462.161 480.728 462.875 483.089L463.286 484.464L464.322 488C464.411 488.319 464.502 488.639 464.594 488.962C464.796 489.67 465 490.389 465.197 491.125L465.75 493.125L33.0362 492.857L34.0604 489.595C34.9505 486.425 35.8372 483.427 36.6966 480.661L37.8573 476.982C37.9278 476.767 37.9972 476.553 38.066 476.341L38.0745 476.315L38.077 476.307C38.2834 475.671 38.4851 475.05 38.6966 474.429L39.1662 473.034C39.7902 471.187 40.4073 469.389 41.0359 467.661C42.6966 462.804 44.4823 458.304 46.268 454.232C46.6966 453.214 47.143 452.197 47.5716 451.232L48.3808 449.399C49.0916 447.809 49.8573 446.2 50.7145 444.5C53.4041 438.864 56.6019 433.485 60.268 428.429L60.6252 427.929L60.9122 427.567C61.7565 426.503 62.4952 425.571 63.0895 424.929L63.3573 424.643C64.1073 423.75 65.0002 422.857 65.893 421.964C71.495 416.4 77.6454 411.416 84.2502 407.089L86.2859 405.75C87.3037 405.089 88.3216 404.429 89.4109 403.768L90.3252 403.204C92.4834 401.882 94.8194 400.525 97.4287 399.072C101.75 396.714 106.482 394.304 111.5 391.929C117.268 389.197 123.214 386.607 129.214 384.232L130.403 383.75L134.381 382.179C135.139 381.883 135.905 381.589 136.679 381.304L138.107 380.768C141.462 379.517 144.969 378.262 148.722 376.972L152 375.857C159.158 373.447 166.502 371.172 174.31 368.941ZM184.393 366.157C188.516 365.055 192.642 363.992 196.732 362.982C201.168 370.96 217.454 374.461 226.094 375.788L227.536 376C234.583 376.981 241.689 377.476 248.804 377.482H250.072C257.181 377.477 264.281 376.981 271.322 376C279.216 374.897 296.294 371.631 301.647 363.858C301.843 363.579 302.024 363.294 302.189 363.003L302.186 363.002L302.25 362.893C302.23 362.93 302.21 362.966 302.189 363.003C304.675 363.572 307.543 364.297 310.758 365.145L314.781 366.219C310.113 370.867 304.525 374.491 298.375 376.857L296.904 377.436C289.53 380.27 281.85 382.24 274.018 383.304C257.824 385.589 241.39 385.589 225.197 383.304C216.793 382.154 208.564 379.971 200.697 376.804C194.553 374.41 188.975 370.761 184.322 366.089L184.393 366.157ZM202.804 308.572V358.947C203.589 361.697 211.875 366.429 228.554 368.768C235.275 369.706 242.053 370.177 248.839 370.179H250.072C256.852 370.176 263.624 369.705 270.339 368.768C277.467 367.762 283.059 366.326 287.189 364.797L287.549 364.662C293.011 362.567 295.752 360.324 295.964 358.786C295.966 358.444 296.014 358.107 296.105 357.784L296.108 308.727C293.577 310.921 290.923 312.971 288.159 314.868L286.768 315.804C277.842 321.844 267.593 325.583 256.933 326.73C255.026 326.945 253.107 327.077 251.179 327.125H247.697L247.583 327.12L247.554 327.125C245.591 327.072 243.637 326.932 241.697 326.706L239.892 326.47L238.853 326.312L237.354 326.054L236.156 325.822C228.056 324.177 220.306 321.02 213.323 316.484L212.375 315.857C209.015 313.66 205.817 311.225 202.804 308.572ZM247.787 99.6841L249.464 99.6967C267.482 99.4109 300.768 103.75 320.893 136.375C335.178 159.533 333.806 195.554 332.772 208.258L332.643 209.75V209.982L335.894 210.258L332.697 210.179L332.695 210.199L332.643 210.197C332.56 211 332.48 211.699 332.412 212.273L332.179 214.072C332.17 214.173 332.17 214.274 332.179 214.375L332.072 215.732C331.786 218.304 331.518 220.518 331.161 222.875C330.804 225.232 330.411 227.518 330 229.679L329.793 230.775C329.649 231.508 329.494 232.238 329.339 232.929L328.883 234.995L328.643 236.018V236.179C328.527 236.679 328.406 237.152 328.286 237.612L327.929 238.964L327.929 239.159C327.689 240.117 327.433 240.953 327.161 241.822L326.784 243.038L326.453 244.077L326.375 244.304C325.572 246.929 324.661 249.661 323.572 252.661V252.839C323.142 254.042 322.69 255.244 322.251 256.409L321.929 257.268L320.266 261.407C314.81 274.796 306.985 287.096 297.161 297.714L297.491 297.352C297.344 297.461 297.203 297.582 297.072 297.714C292.739 302.311 287.885 306.386 282.607 309.857L281.732 310.443C272.643 316.406 262.061 319.714 251.179 319.982H247.697C247.337 319.973 246.979 319.96 246.62 319.944L245.709 319.896L244.376 319.798C234.345 318.949 224.68 315.534 216.322 309.857L215.113 309.046C210.31 305.76 205.871 301.967 201.875 297.732C201.772 297.624 201.663 297.522 201.546 297.433C191.505 286.512 183.57 273.827 178.143 260.018L177.054 257.304C176.869 256.822 176.685 256.332 176.5 255.838L175.393 252.857L175.072 252.679C173.822 249.197 172.625 245.536 171.5 241.822C171.375 241.395 171.233 240.89 171.099 240.407L171.097 240.402L170.967 239.935L170.598 238.662C170.532 238.425 170.466 238.167 170.398 237.893L169.991 236.244C169.968 236.145 169.946 236.047 169.924 235.946C169.907 235.869 169.889 235.79 169.872 235.71C169.812 235.434 169.746 235.137 169.661 234.786L169.484 234.043C169.367 233.54 169.256 233.024 169.161 232.5V232.322C168.982 231.589 168.822 230.839 168.679 230.036L168.572 229.536L167.877 225.543C167.796 225.064 167.72 224.572 167.661 224.072C167.661 224.048 167.675 224.042 167.689 224.036C167.716 224.024 167.744 224.012 167.661 223.857C167.536 223.625 167.536 223.375 167.536 223.143V222.679C167.482 222.316 167.431 221.945 167.38 221.57L166.954 218.447C166.841 217.577 166.737 216.67 166.643 215.732L166.543 214.826L166.518 214.375C166.528 214.262 166.528 214.149 166.518 214.036L166.321 212.39L166.322 211.75C166.31 211.605 166.289 211.447 166.266 211.274C166.218 210.912 166.161 210.483 166.161 209.964L166.15 209.69C166.129 209.418 166.078 209.153 165.998 208.899L165.907 207.817C164.874 194.745 163.647 159.321 177.804 136.375C197.342 104.729 229.281 99.6968 247.787 99.6841ZM340.114 212.879L339.767 212.935L339.563 214.58C339.537 214.767 339.516 214.908 339.5 215L339.393 216.34C339.127 218.824 338.862 221.062 338.56 223.078L338.429 223.929L338.334 224.521L338.333 224.528C337.999 226.619 337.623 228.971 337.232 231.072C337.089 231.857 336.939 232.627 336.78 233.392L336.536 234.536L336.479 234.795C336.255 235.819 336.07 236.666 335.839 237.589V237.768L335.67 238.453C338.062 238.329 340.29 237.109 341.679 235.107C343.397 232.746 343.679 229.631 342.411 227C341.88 226.172 342.119 225.069 342.947 224.536C343.775 224.005 344.877 224.244 345.411 225.072C347.292 228.649 347.173 232.947 345.098 236.415C343.023 239.883 339.291 242.02 335.25 242.054L335.322 242.089C335.12 242.089 334.919 242.081 334.718 242.067L334.461 242.972L334.197 243.857C333.893 244.857 333.643 245.643 333.339 246.5C332.897 247.941 332.408 249.455 331.871 251.043L331.732 251.036C339.14 251.719 346.329 248.374 350.581 242.306L350.911 241.822C354.771 236.266 356.071 229.326 354.482 222.75C353.59 219.044 351.152 215.897 347.786 214.107C345.569 213.04 343.112 212.598 340.676 212.816L340.114 212.879ZM151.036 214.054C152.87 213.175 154.877 212.717 156.911 212.715C157.733 212.727 158.552 212.817 159.357 212.982V213.393C159.413 213.589 159.416 213.756 159.418 213.914C159.42 214.058 159.422 214.195 159.464 214.34C159.518 214.522 159.539 214.678 159.548 214.805L159.554 215.018C159.583 215.509 159.636 215.997 159.714 216.482C159.756 216.911 159.802 217.338 159.849 217.761L160.143 220.25C160.286 221.465 160.447 222.625 160.625 223.822V224.232L160.786 225.197C160.839 225.607 160.902 226.018 160.967 226.415L161.35 228.679C161.465 229.334 161.589 229.991 161.713 230.653L161.768 230.947L161.857 231.465L162.462 234.335L162.929 236.447L163.357 238.232V238.429L163.375 238.5C160.829 238.502 158.422 237.251 156.964 235.125C155.259 232.765 154.984 229.659 156.25 227.036C156.781 226.207 156.542 225.105 155.714 224.572C154.886 224.041 153.784 224.28 153.25 225.107C151.369 228.684 151.488 232.983 153.563 236.451C155.638 239.919 159.37 242.056 163.411 242.089C163.716 242.095 164.021 242.085 164.325 242.061L164.433 242.052L164.589 242.036C164.537 242.042 164.485 242.047 164.433 242.052C164.397 242.055 164.361 242.058 164.325 242.061L164.321 242.061L164.839 243.84C165.572 246.268 166.322 248.643 167.107 250.982C159.503 251.688 152.13 248.145 147.929 241.768L147.55 241.208C143.974 235.755 142.811 229.053 144.357 222.697C145.244 218.993 147.675 215.846 151.036 214.054Z" fill="#372168"/>
<path fill-rule="evenodd" clip-rule="evenodd" d="M302.189 363.003C302.21 362.966 302.23 362.93 302.25 362.893L302.186 363.002L302.189 363.003ZM164.433 242.052L164.589 242.036C164.537 242.042 164.485 242.047 164.433 242.052Z" fill="#372168"/>
<g style="mix-blend-mode:multiply" opacity="0.15">
<path fill-rule="evenodd" clip-rule="evenodd" d="M218.75 249.583C218.75 260.484 210.755 269.32 200.893 269.32C191.031 269.32 183.036 260.484 183.036 249.583C183.036 238.683 191.031 229.846 200.893 229.846C210.755 229.846 218.75 238.683 218.75 249.583ZM315.179 249.583C315.179 260.484 307.184 269.32 297.321 269.32C287.459 269.32 279.464 260.484 279.464 249.583C279.464 238.683 287.459 229.846 297.321 229.846C307.184 229.846 315.179 238.683 315.179 249.583Z" fill="#FF1300"/>
</g>
<path d="M246.611 272.956C244.885 272.956 243.486 271.557 243.486 269.831C243.486 268.105 244.885 266.706 246.611 266.706C252.129 266.706 257.325 264.92 260.039 261.956C261.223 260.699 263.202 260.639 264.459 261.822C265.716 263.006 265.776 264.984 264.593 266.242C260.629 270.456 253.932 272.956 246.611 272.956Z" fill="#372168"/>
<path d="M249.059 246.94C245.159 246.993 241.492 245.089 239.291 241.869C238.354 240.419 238.77 238.484 240.219 237.548C241.669 236.611 243.604 237.026 244.541 238.476C245.628 239.89 247.316 240.711 249.099 240.694C250.882 240.676 252.553 239.822 253.612 238.387C254.51 236.907 256.437 236.436 257.916 237.333C259.395 238.231 259.867 240.157 258.969 241.637C256.809 245.003 253.058 247.011 249.059 246.94Z" fill="#372168"/>
<path d="M286.261 225.447C294.171 225.447 294.189 213.125 286.261 213.125C278.332 213.125 278.314 225.447 286.261 225.447Z" fill="#372168"/>
<path d="M213.1 225.447C221.028 225.447 221.046 213.125 213.1 213.125C205.153 213.125 205.153 225.447 213.1 225.447Z" fill="#372168"/>
<path d="M228.018 209.857C227.095 209.863 226.205 209.511 225.536 208.875C212.518 196.375 199.947 207.554 198.554 208.875C197.115 210.134 194.939 210.037 193.619 208.654C192.298 207.271 192.301 205.094 193.625 203.714C200 197.589 215.911 189.714 230.482 203.714C231.167 204.37 231.563 205.271 231.584 206.219C231.604 207.167 231.246 208.084 230.589 208.768C229.916 209.465 228.987 209.858 228.018 209.857Z" fill="#372168"/>
<path d="M302.25 201.625C301.324 201.626 300.434 201.268 299.768 200.625C286.768 188.125 274.179 199.322 272.804 200.625C271.379 201.991 269.116 201.943 267.75 200.518C266.384 199.093 266.432 196.83 267.857 195.464C274.232 189.357 290.143 181.482 304.714 195.464C305.774 196.471 306.114 198.023 305.571 199.38C305.028 200.738 303.712 201.627 302.25 201.625Z" fill="#372168"/>
<path fill-rule="evenodd" clip-rule="evenodd" d="M381.63 287.054C378.398 298.732 371.362 312.357 361.112 320.018C361.112 320.018 361.541 309.304 356.434 305.286C356.434 305.286 353.13 318.964 343.791 317.786L317.184 318.018C316.56 318.024 315.969 317.737 315.59 317.241C315.211 316.746 315.087 316.101 315.255 315.5C315.925 311.969 316.242 308.38 316.202 304.786C302.987 331.697 282.612 306.822 282.612 306.822C346.005 291.768 324.523 158.929 324.523 158.929H272.434C273.092 152.968 270.619 147.091 265.898 143.393C264.804 150.196 260.41 156.015 254.166 158.929H173.63C162.005 261.179 190.827 292.857 212.255 313C212.255 313 193.095 323.232 180.72 304.857C181.273 305.964 185.773 320.25 178.809 319.982H151.237C143.934 316.804 137.648 302.518 137.648 302.518C137.648 302.518 137.648 314.893 139.309 320C128.327 315.429 121.809 298.893 118.005 282.697C112.788 259.875 112.078 236.254 115.916 213.161C121.612 177.625 134.13 151.232 146.648 132.804C188.541 70.9466 268.327 64.7502 318.505 96.9466C370.987 130.607 384.934 197.732 386.184 249.322C386.467 262.051 384.934 274.757 381.63 287.054Z" fill="#FF6666"/>
<path fill-rule="evenodd" clip-rule="evenodd" d="M261.175 60.7949C261.989 61.357 262.193 62.4723 261.63 63.286C259.139 66.8881 256.518 71.1797 255.005 74.2443C278.739 74.9821 301.714 81.9249 320.47 93.9467C378.416 131.107 388.773 207.197 389.791 249.304C390.08 261.821 388.652 274.315 385.546 286.439L385.113 288.09C381.059 302.732 372.898 315.768 363.291 322.965C362.184 323.785 360.704 323.897 359.488 323.25C358.354 322.656 357.631 321.505 357.577 320.24L357.577 319.947C357.621 317.804 357.411 315.664 356.952 313.572C354.255 318.143 349.916 322.125 343.63 321.482L317.255 321.697C314.479 321.718 312.111 319.692 311.702 316.947C309.176 319.105 306.071 320.471 302.773 320.875C290.793 322.279 280.441 309.849 279.905 309.205L279.898 309.197C279.121 308.243 278.889 306.957 279.285 305.792C279.68 304.627 280.647 303.748 281.845 303.465C330.357 291.934 325.931 204.251 322.56 171.703C322.499 171.468 322.462 171.22 322.452 170.965C322.331 169.621 322.192 168.279 322.035 166.939L321.921 166.01C321.784 164.877 321.631 163.741 321.466 162.607L272.434 162.607C271.42 162.61 270.453 162.182 269.773 161.429C269.101 160.679 268.777 159.68 268.88 158.679C269.204 155.9 268.668 153.09 267.345 150.625C264.926 155.847 260.703 160.02 255.452 162.375C255.041 162.531 254.605 162.61 254.166 162.607H176.827C166.72 256.857 191.113 288.375 214.702 310.5C215.546 311.289 215.957 312.437 215.805 313.582C215.652 314.727 214.955 315.728 213.934 316.268C208.059 319.393 196.38 322.072 186.202 315.482C186.182 317.286 185.689 319.053 184.773 320.607C183.582 322.433 181.574 323.548 179.412 323.608L151.237 323.607C150.747 323.611 150.26 323.514 149.809 323.322C146.836 321.827 144.246 319.671 142.237 317.018C142.309 317.454 142.401 317.885 142.515 318.312L142.702 318.947C143.128 320.272 142.746 321.724 141.722 322.667C140.698 323.61 139.22 323.873 137.934 323.34C127.595 319.054 119.72 305.661 114.523 283.572C109.309 260.85 108.496 237.344 112.125 214.326L112.398 212.643C117.345 181.697 127.88 154.161 143.684 130.804C169.683 92.42 209.133 75.1182 247.557 74.2106L243.559 67.786C243.036 66.9477 243.292 65.8444 244.13 65.3217C244.969 64.799 246.072 65.0548 246.595 65.8931L251.363 73.5717C253.482 69.282 255.93 65.1626 258.684 61.2502C259.246 60.4366 260.361 60.2327 261.175 60.7949ZM149.452 134.786C134.53 156.818 124.487 182.801 119.591 212.01L119.309 213.732C115.519 236.367 116.211 259.525 121.345 281.893L121.864 284.038C125.121 297.074 129.345 306.566 134.309 312.072L134.237 311.109C133.949 306.964 133.934 303.249 133.934 302.536C133.94 300.85 135.124 299.397 136.775 299.052C138.329 298.728 139.897 299.468 140.643 300.842L141.243 302.074C143.656 306.924 148.1 314.225 152.059 316.447V316.465L157.42 316.462C114.668 214.91 162.105 135.98 162.84 134.759L162.845 134.75C163.098 134.088 163.719 133.638 164.428 133.604C165.137 133.571 165.798 133.96 166.113 134.595C166.428 135.231 166.336 135.993 165.88 136.536L165.605 137C161.747 143.636 119.829 219.709 161.323 316.463L178.845 316.465C179.559 314.679 178.398 308.679 177.434 306.411C176.633 304.732 177.255 302.721 178.862 301.786C180.421 300.882 182.391 301.286 183.476 302.686L183.648 302.929C190.559 313.179 199.898 313.036 205.559 311.679L204.427 310.574C185.766 292.198 158.859 257.027 170.041 158.59C170.242 156.772 171.784 155.4 173.612 155.411L198.558 155.409L198.559 148.75C198.559 147.764 199.358 146.965 200.345 146.965C201.331 146.965 202.13 147.764 202.13 148.75L202.129 155.409L228.483 155.41C233.249 147.395 229.502 136.402 229.452 136.286C229.121 135.354 229.609 134.331 230.541 134C231.406 133.693 232.351 134.092 232.746 134.897L232.827 135.09C233.013 135.617 236.687 146.313 232.516 155.411L253.327 155.411C258.112 152.838 261.416 148.172 262.255 142.804C262.475 141.607 263.29 140.604 264.416 140.143C265.545 139.683 266.832 139.831 267.827 140.536C272.495 144.136 275.431 149.536 275.916 155.411L297.352 155.412C299.59 148.095 297.465 137.235 297.254 136.158C297.244 136.106 297.238 136.077 297.238 136.072C297.027 135.11 297.634 134.16 298.595 133.947C299.487 133.751 300.37 134.261 300.663 135.104L300.72 135.304C300.85 135.883 303.119 146.883 301.007 155.411L320.239 155.41C319.875 153.54 319.475 151.677 319.041 149.822C318.665 148.6 318.969 147.27 319.838 146.333C320.708 145.397 322.012 144.995 323.258 145.28C324.504 145.565 325.504 146.493 325.88 147.715C327.666 155.264 328.901 162.933 329.577 170.661L329.576 170.715L329.791 172.743C333.307 206.897 336.801 290.815 289.309 308.554C292.684 311.375 297.434 314.25 301.809 313.732C306.184 313.215 309.72 309.715 312.88 303.268C313.606 301.77 315.269 300.972 316.892 301.343C318.514 301.715 319.665 303.157 319.666 304.822C319.685 308.054 319.464 311.283 319.005 314.482L330.774 314.379L331.426 313.769C355.684 290.538 355.662 240.378 353.47 212.375C353.419 211.737 353.712 211.121 354.239 210.757C354.766 210.394 355.447 210.34 356.025 210.614C356.603 210.889 356.99 211.452 357.041 212.09C361.771 271.831 348.793 300.567 335.897 314.336L343.648 314.268H344.113C349.637 314.917 352.432 305.906 352.817 304.588L352.863 304.429C353.156 303.248 354.031 302.297 355.183 301.907C356.336 301.517 357.608 301.74 358.559 302.5C361.441 305.148 363.331 308.702 363.916 312.572C370.334 305.214 375.062 296.544 377.773 287.174L378.077 286.09C381.304 274.127 382.795 261.762 382.505 249.375L382.435 246.899C381.109 205.828 370.526 134.596 316.434 99.9288C268.363 69.0895 190.862 73.6431 149.452 134.786ZM353.532 183.823L353.454 183.477C353.183 182.627 352.313 182.096 351.416 182.268C350.949 182.355 350.536 182.624 350.268 183.016C350 183.408 349.899 183.891 349.988 184.357C350.004 184.406 350.905 189.192 351.888 196.77L352.184 199.125C352.293 200.027 353.061 200.703 353.97 200.697H354.166C354.638 200.639 355.067 200.395 355.359 200.02C355.65 199.644 355.78 199.168 355.72 198.697C354.729 190.401 353.71 184.777 353.532 183.823Z" fill="#372168"/>
<g opacity="0.4">
<path fill-rule="evenodd" clip-rule="evenodd" d="M236.391 212.679L233.034 231.697C232.177 236.549 227.961 240.087 223.034 240.09H191.998C191.215 240.095 190.435 239.999 189.677 239.804C188.284 239.491 186.975 238.882 185.838 238.018C183.743 236.421 182.352 234.07 181.963 231.465L179.052 212.5C178.699 210.153 179.385 207.769 180.932 205.968C182.478 204.168 184.732 203.13 187.105 203.125H228.355C230.765 203.121 233.052 204.183 234.603 206.027C236.154 207.87 236.809 210.306 236.391 212.679Z" fill="#78B2FF"/>
<path fill-rule="evenodd" clip-rule="evenodd" d="M315.766 212.536L312.409 231.554C311.552 236.406 307.336 239.944 302.409 239.947H271.373C270.59 239.952 269.81 239.856 269.052 239.661C267.659 239.348 266.35 238.739 265.213 237.875C263.118 236.278 261.727 233.927 261.338 231.322L258.427 212.357C258.074 210.01 258.76 207.626 260.306 205.825C261.853 204.025 264.107 202.987 266.48 202.982H307.73C310.14 202.978 312.427 204.04 313.978 205.884C315.529 207.727 316.184 210.163 315.766 212.536Z" fill="#78B2FF"/>
</g>
<g style="mix-blend-mode:soft-light" opacity="0.8">
<path d="M217.713 203.125L203.231 227.589L200.748 222.946L189.677 239.804C188.284 239.49 186.975 238.881 185.838 238.018L201.356 212.5L203.481 216.857L211.731 203.125L217.713 203.125Z" fill="white"/>
</g>
<path fill-rule="evenodd" clip-rule="evenodd" d="M193.23 243.661H224.248C230.947 243.665 236.666 238.822 237.766 232.214L241.57 210.786C242.054 207.996 241.283 205.134 239.462 202.965C237.64 200.796 234.955 199.542 232.123 199.536H185.855C183.061 199.541 180.408 200.763 178.587 202.882C176.766 205.001 175.958 207.808 176.373 210.572L179.659 232C180.654 238.721 186.436 243.69 193.23 243.661ZM184.002 207.554C184.466 207.011 185.142 206.698 185.856 206.696L232.213 206.875C232.906 206.896 233.557 207.215 233.998 207.75C234.462 208.306 234.658 209.037 234.534 209.75L230.731 231.179C230.145 234.294 227.418 236.547 224.248 236.536H193.231C189.97 236.553 187.192 234.171 186.713 230.946L183.445 209.518C183.335 208.813 183.539 208.096 184.002 207.554Z" fill="#372168"/>
<path d="M259.355 225.179H236.034C234.062 225.179 232.463 223.58 232.463 221.607C232.463 219.635 234.062 218.036 236.034 218.036H259.355C261.328 218.036 262.927 219.635 262.927 221.607C262.927 223.58 261.328 225.179 259.355 225.179Z" fill="#372168"/>
<path d="M334.284 225.036H314.838C312.865 225.036 311.266 223.437 311.266 221.464C311.266 219.492 312.865 217.893 314.838 217.893H334.284C336.257 217.893 337.856 219.492 337.856 221.464C337.856 223.437 336.257 225.036 334.284 225.036Z" fill="#372168"/>
<path d="M181.659 225.036H162.105C160.133 225.036 158.534 223.437 158.534 221.464C158.534 219.492 160.133 217.893 162.105 217.893H181.659C183.632 217.893 185.23 219.492 185.23 221.464C185.23 223.437 183.632 225.036 181.659 225.036Z" fill="#372168"/>
<g style="mix-blend-mode:soft-light" opacity="0.8">
<path d="M297.088 202.982L282.605 227.447L280.123 222.804L269.052 239.661C267.659 239.348 266.35 238.739 265.213 237.875L280.73 212.357L282.855 216.715L291.105 202.982L297.088 202.982Z" fill="white"/>
</g>
<path fill-rule="evenodd" clip-rule="evenodd" d="M272.016 243.661H303.052C309.817 243.696 315.589 238.775 316.623 232.089L319.891 210.661C320.319 207.895 319.516 205.081 317.692 202.959C315.869 200.836 313.207 199.618 310.409 199.625H264.159C261.321 199.623 258.629 200.879 256.805 203.054C254.982 205.228 254.216 208.099 254.713 210.893L258.498 232.321C259.652 238.883 265.354 243.666 272.016 243.661ZM262.284 207.571C262.746 207.013 263.434 206.691 264.159 206.696L310.409 206.518C311.123 206.521 311.801 206.833 312.267 207.374C312.733 207.916 312.941 208.633 312.838 209.339L309.552 230.768C309.088 233.994 306.311 236.381 303.052 236.357H272.016C268.846 236.369 266.12 234.115 265.534 231L261.748 209.571C261.609 208.858 261.807 208.12 262.284 207.571Z" fill="#372168"/>
<g style="mix-blend-mode:soft-light" opacity="0.8">
<path d="M241.048 99.1343C241.456 91.6205 231.21 84.9546 218.161 84.2457C205.113 83.5367 194.205 89.0531 193.796 96.5669C193.388 104.081 203.635 110.747 216.683 111.456C229.731 112.164 240.64 106.648 241.048 99.1343Z" fill="white"/>
</g>
<path fill-rule="evenodd" clip-rule="evenodd" d="M350.195 102.322L348.659 142.929C348.561 145.594 346.954 147.971 344.516 149.054C332.204 154.353 319.121 157.639 305.766 158.786L303.73 158.929C199.838 166.804 152.159 142.857 152.159 142.857L153.409 109.804C153.797 97.541 156.96 85.5257 162.659 74.6609C167.341 66.0522 173.755 58.5067 181.498 52.5002C206.391 33.018 228.052 30.9288 240.123 31.0716C246.088 31.0716 256.195 31.5716 264.945 31.9466L270.016 32.1609C283.256 32.6539 296.209 36.1594 307.891 42.4109C325.809 51.8651 339.816 67.3392 347.445 86.1073C349.499 91.2565 350.436 96.7831 350.195 102.322Z" fill="#D9D0FF"/>
<path fill-rule="evenodd" clip-rule="evenodd" d="M150.552 146.09C152.248 146.947 187.498 164.161 262.713 164.161C275.355 164.161 289.105 163.661 304.052 162.482L306.088 162.34C319.843 161.169 333.32 157.786 345.998 152.322C349.671 150.725 352.116 147.179 352.302 143.179L353.838 102.59C354.11 96.5559 353.087 90.5339 350.838 84.9288C342.882 65.4018 328.311 49.2953 309.677 39.4288C297.51 32.9146 284.021 29.2509 270.23 28.7145L265.177 28.5002C264.083 28.4524 262.926 28.4006 261.728 28.3469C254.434 28.0204 245.606 27.6252 240.177 27.6252H238.963C218.159 27.6252 198.088 35.0895 179.302 49.8038C171.176 56.0941 164.439 63.998 159.516 73.0181C153.562 84.3624 150.259 96.9092 149.855 109.715L148.588 142.768C148.536 144.164 149.304 145.462 150.552 146.09ZM303.463 155.411C213.713 162.215 165.963 144.875 155.82 140.625L156.998 109.982C157.367 98.2616 160.389 86.7771 165.838 76.3932C170.272 68.2226 176.353 61.0601 183.695 55.3574C201.552 41.3753 220.552 34.4289 240.07 34.7146C246.302 34.8039 257.159 35.2503 264.838 35.5896L269.873 35.8039C282.569 36.2811 294.989 39.6396 306.195 45.6253C323.434 54.6265 336.892 69.4897 344.141 87.536C346.023 92.2035 346.87 97.2237 346.623 102.25L345.088 142.84C345.051 144.14 344.274 145.306 343.088 145.84C331.123 150.989 318.406 154.173 305.427 155.268C304.82 155.411 304.195 155.411 303.463 155.411Z" fill="#372168"/>
<g style="mix-blend-mode:soft-light" opacity="0.8">
<path d="M350.195 102.322L348.659 142.929C348.561 145.594 346.954 147.971 344.516 149.054C332.204 154.353 319.121 157.639 305.766 158.786L303.73 158.929L306.427 88.3039C303.605 53.0896 267.248 33.1789 264.963 31.9646L270.034 32.1789C283.274 32.6719 296.227 36.1774 307.909 42.4289C325.827 51.8831 339.834 67.3572 347.463 86.1253C349.508 91.2703 350.439 96.7905 350.195 102.322Z" fill="white"/>
</g>
<path fill-rule="evenodd" clip-rule="evenodd" d="M301.266 161.536C301.95 162.187 302.858 162.551 303.802 162.554L304.052 162.482L306.088 162.34C319.843 161.169 333.32 157.786 345.998 152.322C349.646 150.686 352.048 147.12 352.195 143.125L353.73 102.536C354.003 96.5024 352.98 90.4804 350.73 84.8753C342.775 65.3483 328.204 49.2417 309.57 39.3753C297.403 32.8611 283.914 29.1974 270.123 28.661L265.07 28.4467C263.409 28.3898 261.929 29.4852 261.498 31.0896C261.073 32.6969 261.814 34.3849 263.284 35.161C264.784 35.9646 300.034 55.1431 302.855 88.4467L300.159 158.84C300.128 159.855 300.53 160.836 301.266 161.536ZM287.98 44.8932C284.949 41.9208 281.735 39.1415 278.355 36.5718C288.093 37.9151 297.514 40.9807 306.177 45.6253C323.416 54.6265 336.874 69.4898 344.123 87.536C346.005 92.2035 346.852 97.2238 346.605 102.25L345.07 142.84C345.034 144.14 344.257 145.306 343.07 145.84C331.733 150.712 319.72 153.831 307.445 155.09L309.98 88.5003C309.989 88.3576 309.989 88.2145 309.98 88.0718C308.748 72.7146 301.141 57.786 287.98 44.8932Z" fill="#372168"/>
<path fill-rule="evenodd" clip-rule="evenodd" d="M303.73 158.982C288.213 166.125 264.284 171.893 244.552 175.357C216.629 180.949 188.006 182.154 159.713 178.929C116.409 174.268 102.695 168.214 104.516 158.143C106.338 148.071 152.159 142.964 152.159 142.964C152.159 142.964 199.838 166.857 303.73 158.982Z" fill="#FF8F8F"/>
<path fill-rule="evenodd" clip-rule="evenodd" d="M159.32 182.429C170.071 183.61 180.879 184.206 191.695 184.215C209.233 184.158 226.727 182.448 243.945 179.107L245.177 178.893C256.73 176.875 285.713 171.179 305.213 162.25C306.791 161.534 307.627 159.786 307.195 158.107C306.766 156.427 305.192 155.297 303.463 155.429C201.98 163.125 154.23 139.965 153.766 139.732C153.151 139.413 152.454 139.288 151.766 139.375C137.195 141 103.07 146.018 100.998 157.447C100.334 160.673 101.103 164.028 103.105 166.643C108.713 174.161 124.998 178.732 159.32 182.429ZM108.034 158.697C108.552 156.072 123.534 149.804 151.552 146.572C158.498 149.714 198.873 166.447 279.123 163.804C267.539 167.046 255.798 169.699 243.945 171.75L242.713 171.964C215.505 177.317 187.633 178.419 160.088 175.232L160.004 175.223C148.74 174 114.858 170.319 108.82 162.268C108.049 161.249 107.762 159.945 108.034 158.697Z" fill="#372168"/>
<path d="M192.427 169.911C186.491 169.899 180.559 169.565 174.659 168.911C155.855 166.893 146.927 164.393 143.873 160.304C142.811 158.904 142.402 157.116 142.748 155.393C143.016 153.875 143.748 149.875 163.73 146.572C164.717 146.414 165.644 147.086 165.802 148.072C165.96 149.058 165.288 149.985 164.302 150.143C150.016 152.518 146.445 155.233 146.266 156.09C146.093 156.837 146.264 157.623 146.73 158.233C149.748 162.268 164.338 164.268 175.034 165.375C190.19 167.134 205.527 166.532 220.498 163.59L221.177 163.483C225.713 162.679 232.623 161.304 239.802 159.304C240.259 159.178 240.747 159.239 241.159 159.474C241.571 159.708 241.873 160.097 241.998 160.554C242.124 161.011 242.063 161.499 241.829 161.911C241.594 162.323 241.206 162.625 240.748 162.75C233.445 164.786 226.463 166.179 221.802 167L221.123 167.108C211.667 168.942 202.059 169.881 192.427 169.911Z" fill="#372168"/>
<path d="M177.409 83.8219C177.171 83.824 176.935 83.7816 176.713 83.6969C176.274 83.5153 175.926 83.1665 175.745 82.7275C175.564 82.2885 175.565 81.7956 175.748 81.3576C176.328 79.9687 176.978 78.6098 177.695 77.2862C179.915 73.1635 182.792 69.4301 186.213 66.2326C186.678 65.7956 187.342 65.6402 187.953 65.8251C188.564 66.0099 189.031 66.5068 189.176 67.1286C189.322 67.7505 189.125 68.4027 188.659 68.8398C185.524 71.7722 182.883 75.1911 180.838 78.9648C180.195 80.179 179.588 81.4469 179.052 82.7326C178.772 83.3924 178.126 83.8213 177.409 83.8219Z" fill="#372168"/>
<path d="M194.105 64.0361C193.521 64.0351 192.974 63.7484 192.641 63.2683C192.08 62.4592 192.28 61.349 193.088 60.7861C194.873 59.6254 196.516 58.5361 198.248 57.5718C199.107 57.0902 200.193 57.3936 200.677 58.2504C201.159 59.1086 200.855 60.1947 199.998 60.679C198.355 61.6075 196.713 62.6254 195.123 63.7325C194.823 63.9346 194.468 64.0405 194.105 64.0361Z" fill="#372168"/>
</g>
<path fill-rule="evenodd" clip-rule="evenodd" d="M0 250C0 111.929 111.929 0 250 0C388.071 0 500 111.929 500 250C500 388.071 388.071 500 250 500C111.929 500 0 388.071 0 250ZM492.857 250C492.857 115.874 384.126 7.14286 250 7.14286C115.874 7.14286 7.14286 115.874 7.14286 250C7.14286 384.126 115.874 492.857 250 492.857C384.126 492.857 492.857 384.126 492.857 250Z" fill="#372168"/>
</svg>
