<svg width="500" height="500" viewBox="0 0 500 500" fill="none" xmlns="http://www.w3.org/2000/svg">
<path fill-rule="evenodd" clip-rule="evenodd" d="M250 496.429C386.099 496.429 496.429 386.099 496.429 250C496.429 113.901 386.099 3.57153 250 3.57153C113.901 3.57153 3.57141 113.901 3.57141 250C3.57141 386.099 113.901 496.429 250 496.429Z" fill="#E7EEFF"/>
<mask id="mask0_0_270" style="mask-type:alpha" maskUnits="userSpaceOnUse" x="3" y="3" width="494" height="494">
<path fill-rule="evenodd" clip-rule="evenodd" d="M250 496.429C386.099 496.429 496.429 386.099 496.429 250C496.429 113.901 386.099 3.57153 250 3.57153C113.901 3.57153 3.57141 113.901 3.57141 250C3.57141 386.099 113.901 496.429 250 496.429Z" fill="white"/>
</mask>
<g mask="url(#mask0_0_270)">
<path fill-rule="evenodd" clip-rule="evenodd" d="M336.359 210.077L336.357 210.036C337.536 196.964 339.357 159.232 324.071 134.357C305.536 104.339 275.161 95.5538 249.464 95.9823C223.732 95.5538 193.357 104.339 174.821 134.357C159.554 159.125 161.375 196.911 162.571 209.929V210.03C158.281 208.601 153.604 208.884 149.518 210.822C140.161 215.268 136.089 230.125 145.018 243.714C151.783 254.04 163.198 255.882 171.903 253.893C172.226 254.732 172.545 255.575 172.861 256.412C173.129 257.121 173.395 257.825 173.661 258.518L174.768 261.286C180.393 275.65 188.675 288.827 199.179 300.125C203.705 304.911 208.768 309.16 214.268 312.786C224.14 319.474 235.722 323.192 247.643 323.5H251.214C263.136 323.197 274.719 319.479 284.589 312.786C288.752 310.04 292.665 306.938 296.286 303.517C292.663 306.964 288.743 310.089 284.571 312.857C274.702 319.55 263.118 323.269 251.196 323.572H247.625C235.705 323.264 224.122 319.546 214.25 312.857C208.75 309.231 203.687 304.983 199.161 300.197V359.357C200.071 365.125 211.625 370.054 227.982 372.357C234.864 373.313 241.803 373.796 248.75 373.804H250C256.948 373.796 263.886 373.313 270.768 372.357C287.214 369.982 298.804 365.072 299.607 359.268V300.202L299.696 300.107C310.194 288.814 318.47 275.644 324.089 261.286L325.196 258.518C325.814 257.001 326.396 255.431 326.961 253.879C335.674 255.891 347.129 254.066 353.911 243.714C362.768 230.125 358.768 215.268 349.375 210.875C345.301 208.942 340.638 208.656 336.359 210.077ZM168.304 242.786C168.661 244.021 169.028 245.245 169.406 246.458C169.011 245.278 168.62 244.09 168.232 242.893C167.946 241.947 167.607 240.768 167.393 239.964L167.392 239.962L167.392 239.96C167.178 239.157 166.893 238.088 166.75 237.482C166.693 237.24 166.648 237.035 166.601 236.826L166.6 236.823C166.53 236.507 166.457 236.179 166.339 235.697C166.241 235.295 166.156 234.88 166.071 234.464C165.987 234.049 165.902 233.634 165.804 233.232C165.607 232.429 165.446 231.625 165.286 230.786L165.179 230.232C164.982 229.161 164.786 228.072 164.607 226.964C164.464 226.191 164.339 225.405 164.232 224.607C164.214 224.515 164.194 224.422 164.174 224.329L164.173 224.326C164.096 223.968 164.018 223.604 164.018 223.25C163.857 222.125 163.696 220.982 163.554 219.822C163.387 218.548 163.244 217.316 163.125 216.125C163.018 215.625 162.964 215.125 162.964 214.625C162.964 214.625 163.089 214.286 162.964 214.018C162.896 213.873 162.892 213.638 162.887 213.419C162.884 213.235 162.88 213.062 162.839 212.964C162.784 212.833 162.784 212.809 162.779 212.682C162.775 212.602 162.771 212.482 162.75 212.268L162.74 212.172L162.733 212.101C162.738 212.124 162.744 212.144 162.75 212.161C162.791 212.274 162.787 212.34 162.783 212.418C162.777 212.512 162.771 212.623 162.839 212.857C162.907 213.091 162.912 213.266 162.916 213.441C162.92 213.587 162.924 213.732 162.964 213.911C163.054 214.304 163.054 214.518 163.054 214.518C163.068 214.718 163.094 214.918 163.119 215.118C163.158 215.418 163.196 215.718 163.196 216.018C163.312 217.178 163.459 218.368 163.594 219.46L163.625 219.714C163.768 220.875 163.929 222.018 164.089 223.143C164.114 223.298 164.137 223.456 164.16 223.614C164.202 223.91 164.245 224.209 164.304 224.5C164.411 225.298 164.536 226.084 164.679 226.857C164.857 227.964 165.054 229.054 165.25 230.125L165.357 230.679C165.438 231.098 165.527 231.5 165.616 231.902C165.705 232.304 165.795 232.706 165.875 233.125C165.967 233.603 166.087 234.134 166.197 234.617C166.28 234.982 166.357 235.321 166.411 235.589C166.536 236.214 166.679 236.804 166.821 237.375L166.933 237.814C167.097 238.459 167.245 239.038 167.464 239.857C167.732 240.857 168.018 241.839 168.304 242.786ZM162.634 211.151C162.641 211.261 162.649 211.369 162.657 211.471C162.623 211.182 162.595 210.883 162.59 210.572C162.607 210.764 162.621 210.962 162.634 211.151Z" fill="#DD9488"/>
<path d="M28.5707 496.429C28.9183 495.049 29.1003 494.313 29.4544 492.974C29.7006 492.043 29.9441 491.123 30.1785 490.215C31.1785 486.643 32.1963 483.072 33.2321 479.804C33.356 479.409 33.48 479.017 33.6034 478.626C33.8711 477.778 34.1361 476.939 34.3928 476.107C34.6785 475.215 34.9642 474.322 35.2499 473.5C36.0356 471.143 36.8213 468.857 37.6071 466.661C39.3809 461.732 41.1666 457.197 42.9642 453.054C43.4106 452 43.8571 450.965 44.3035 449.965L44.5713 449.375C45.5356 447.161 46.5178 445.09 47.4999 443.125C50.2914 437.275 53.6023 431.687 57.3928 426.429C57.4429 426.354 57.4969 426.282 57.5493 426.213L57.5494 426.213C57.609 426.134 57.6667 426.058 57.7142 425.982C58.6963 424.697 59.6428 423.536 60.5535 422.536L60.6606 422.411C61.3019 421.69 61.9832 420.988 62.6596 420.292C62.8873 420.057 63.1144 419.823 63.3392 419.59C69.0978 413.797 75.4344 408.609 82.2499 404.107L84.3213 402.732C85.369 402.042 86.4404 401.363 87.5356 400.697C90.1785 399.054 92.8928 397.465 95.6964 395.911C100.321 393.34 105.107 390.911 109.982 388.607C115.875 385.822 121.875 383.25 127.839 380.822L131.893 379.215C133.053 378.75 134.232 378.304 135.464 377.875C140.678 375.893 145.857 374.072 150.911 372.375C160.696 369.09 169.964 366.34 178.143 364.072C186.607 361.732 193.857 359.911 199.196 358.625C199.17 358.875 199.17 359.126 199.196 359.375C200.107 365.143 211.696 370.09 228.018 372.375C234.899 373.331 241.838 373.814 248.786 373.822H250.036C256.983 373.814 263.922 373.331 270.804 372.375C287.25 370.054 298.839 365.09 299.643 359.286C299.66 359.066 299.66 358.845 299.643 358.625C305 359.929 312.321 361.75 320.839 364.107C328.982 366.357 338.196 369.107 347.928 372.375C354.107 374.447 360.428 376.715 366.875 379.215C370.149 380.476 373.417 381.804 376.678 383.197L380.411 384.786L383.411 386.107C390.143 389.143 396.768 392.393 403.053 395.911C406.982 398.09 410.803 400.357 414.446 402.732L415.464 403.411C417.25 404.554 419.036 405.732 420.607 406.982C425.886 410.723 430.838 414.905 435.411 419.482C436.375 420.447 437.303 421.429 438.196 422.429C439.286 423.635 440.312 424.899 441.268 426.215V426.322C442.089 427.429 442.946 428.643 443.786 429.893C446.514 434.095 448.983 438.461 451.178 442.965C452.232 445.107 453.286 447.375 454.375 449.804C455.053 451.34 455.732 452.929 456.411 454.572C456.875 455.677 457.326 456.811 457.787 457.974L457.946 458.375C458.958 460.947 459.976 463.655 461 466.5C461.786 468.697 462.571 470.982 463.357 473.34C464.262 476.113 465.173 478.994 466.089 481.982C466.219 482.421 466.351 482.863 466.484 483.306L466.488 483.32L466.489 483.323C466.738 484.154 466.989 484.994 467.232 485.84L467.341 486.219C467.689 487.426 468.073 488.762 468.429 490.054C469.054 492.268 469.089 494.089 469.642 496.429H28.5707Z" fill="#BEC5D8"/>
<g style="mix-blend-mode:soft-light" opacity="0.8">
<path d="M320.929 364.089C316.518 370.839 309.143 376.197 299.679 380.161C291.583 383.427 283.114 385.677 274.464 386.857C257.921 389.19 241.133 389.19 224.589 386.857C215.891 385.664 207.373 383.396 199.232 380.107C189.822 376.143 182.5 370.786 178.107 364.036C186.572 361.696 193.822 359.875 199.161 358.589C199.135 358.839 199.135 359.09 199.161 359.339C200.072 365.107 211.661 370.054 227.982 372.339C234.864 373.295 241.803 373.778 248.75 373.786H250C256.948 373.778 263.886 373.295 270.768 372.339C287.214 370.018 298.804 365.054 299.607 359.25C299.625 359.03 299.625 358.809 299.607 358.589C305.107 359.911 312.411 361.732 320.929 364.089Z" fill="white"/>
</g>
<g style="mix-blend-mode:multiply" opacity="0.15">
<path fill-rule="evenodd" clip-rule="evenodd" d="M296.036 303.786V356.107C251.536 356.804 218.571 333.893 202.839 320.197V303.75C206.379 307.132 210.222 310.181 214.321 312.857C224.197 319.539 235.777 323.257 247.696 323.572H251.268C263.187 323.257 274.768 319.539 284.643 312.857C288.703 310.179 292.516 307.143 296.036 303.786Z" fill="#7C3830"/>
</g>
<path fill-rule="evenodd" clip-rule="evenodd" d="M251.405 92.5021L249.607 92.5181C229.965 92.1609 193.786 96.9645 172.107 132.572C158.313 154.962 157.857 186.762 158.887 204.188L158.974 205.569C155.23 205.217 151.43 205.875 147.982 207.518C142.75 210.188 138.924 214.984 137.482 220.679C135.315 229.276 136.969 238.391 142.018 245.679L142.367 246.206C147.562 253.862 156.293 258.382 165.572 258.179C166.928 258.145 168.279 258.026 169.616 257.82C169.875 258.516 170.14 259.214 170.411 259.911L171.518 262.697C177.149 276.991 185.317 290.146 195.623 301.529L195.714 301.627L195.715 355.746C189.544 357.259 183.316 358.893 177.018 360.625C167.286 363.322 158.322 366.054 149.607 368.982C143.947 370.947 138.839 372.732 134.054 374.518C133.649 374.661 133.268 374.802 132.89 374.945L129.121 376.404C128.211 376.762 127.298 377.131 126.393 377.5L123.777 378.554C118.55 380.687 113.355 382.972 108.304 385.375C103.161 387.804 98.2681 390.286 93.8038 392.786C90.7323 394.5 88.0181 396.09 85.5359 397.625L84.686 398.148C83.844 398.67 83.027 399.192 82.2502 399.715C81.5181 400.179 80.7859 400.661 80.1252 401.125C73.1183 405.706 66.5965 410.99 60.6609 416.893C60.1084 417.526 59.5607 418.081 59.0418 418.606C58.6385 419.014 58.2522 419.406 57.8931 419.804L57.7681 419.964C56.8395 420.964 55.8395 422.179 54.7324 423.643C54.6629 423.719 54.603 423.803 54.5538 423.893L54.3752 424.125L53.4065 425.489C49.8928 430.513 46.8003 435.821 44.1609 441.357C43.2936 442.952 42.5902 444.473 41.9337 445.961L41.1609 447.732L40.4341 449.369C40.1312 450.062 39.8335 450.768 39.5359 451.482L38.9407 452.892C37.3534 456.697 35.7661 460.857 34.1788 465.286C33.3931 467.5 32.5895 469.822 31.8038 472.197L31.5048 473.082L30.9109 474.875L29.3308 479.975C28.7465 481.87 28.1571 483.86 27.5661 485.923L26.6788 489.072C26.397 490.181 26.1022 491.308 25.8051 492.444L25.8033 492.45C25.4985 493.616 25.1912 494.79 24.8931 495.964L24.4109 497.75C24.2591 498.339 24.2617 499.386 24.1077 500H475.001L473.607 495.268C473.607 495.268 472.5 491.089 471.929 489.089C471.643 488.036 471.34 486.964 471.036 485.929L470.732 484.839L469.572 480.929C469.114 479.523 468.684 478.141 468.261 476.782L468.26 476.777L468.259 476.775C467.774 475.218 467.299 473.692 466.804 472.197C466.018 469.822 465.214 467.5 464.429 465.286C463.375 462.411 462.34 459.607 461.322 457.054L461.161 456.607C460.697 455.429 460.232 454.286 459.768 453.197C459.089 451.518 458.393 449.911 457.697 448.339C456.813 446.371 455.999 444.603 455.218 442.961L454.447 441.357C452.18 436.743 449.646 432.265 446.857 427.947C446.494 427.435 446.143 426.92 445.786 426.397L445.785 426.395L445.78 426.388L445.776 426.382L445.775 426.38C445.276 425.649 444.766 424.902 444.197 424.125L444.054 423.947C442.893 422.375 441.786 421.018 440.84 419.982C439.893 418.947 438.911 417.893 437.929 416.911C433.212 412.19 428.105 407.877 422.661 404.018C420.875 402.732 419.107 401.518 417.447 400.447C417.072 400.197 416.697 399.929 416.375 399.732L415.181 398.96C411.971 396.906 408.544 394.879 404.75 392.768C398.697 389.411 392.179 386.161 384.786 382.84L381.732 381.5L380.786 381.089L378 379.893C374.804 378.536 371.572 377.232 368.089 375.875C362.036 373.518 355.786 371.268 348.982 368.982C340.197 366.018 331.018 363.232 321.714 360.661C316.142 359.113 311.158 357.818 307.021 356.777L303.177 355.82L303.18 301.869C313.65 290.402 321.936 277.115 327.625 262.661L328.75 259.84C328.994 259.208 329.236 258.57 329.475 257.934C330.756 258.092 332.047 258.174 333.34 258.179C342.78 258.375 351.652 253.682 356.804 245.768L357.228 245.139C361.94 237.958 363.446 229.123 361.357 220.768C359.904 215.075 356.072 210.281 350.839 207.607C347.544 206.034 343.923 205.364 340.34 205.62C341.456 188.523 341.341 155.535 327.197 132.59C305.857 98.0333 271.243 92.4937 251.405 92.5021ZM174.31 368.941L176.707 368.261C181.449 374.391 188.538 379.467 197.822 383.375C206.269 386.798 215.112 389.15 224.143 390.375C232.577 391.588 241.087 392.184 249.607 392.161C258.096 392.211 266.576 391.644 274.982 390.464C283.919 389.235 292.669 386.908 301.036 383.536C310.438 379.612 317.599 374.466 322.363 368.292C330.744 370.648 339.002 373.193 346.947 375.857C353.643 378.107 359.786 380.322 365.732 382.643C369.143 383.964 372.322 385.25 375.465 386.589L379.161 388.161L382.089 389.464C389.286 392.697 395.643 395.857 401.518 399.125C405.607 401.411 409.286 403.607 412.75 405.857L414.713 407.143C416.03 408.014 417.375 408.943 418.732 409.929C423.828 413.56 428.607 417.616 433.018 422.054L433.027 422.063L433.028 422.064L433.031 422.067C433.92 422.973 434.826 423.898 435.697 424.893C436.703 425.999 437.645 427.162 438.518 428.375L438.679 428.572C439.554 429.732 440.304 430.839 441.036 431.964C443.67 436.043 446.056 440.277 448.179 444.643L448.549 445.397C449.169 446.67 449.807 448.032 450.479 449.51L451.304 451.34C451.982 452.857 452.643 454.411 453.322 456.054L453.768 457.136C454.066 457.865 454.363 458.607 454.661 459.357L454.822 459.786C455.804 462.268 456.822 464.964 457.839 467.804L458.426 469.444C459.009 471.102 459.585 472.813 460.161 474.554L460.71 476.209C461.439 478.434 462.161 480.728 462.875 483.089L463.286 484.464L464.322 488C464.411 488.319 464.502 488.639 464.594 488.962C464.796 489.67 465 490.389 465.197 491.125L465.75 493.125L33.0362 492.857L34.0604 489.595C34.9505 486.425 35.8373 483.427 36.6966 480.661L37.8574 476.982C37.9278 476.767 37.9972 476.553 38.066 476.341L38.0746 476.315L38.077 476.307C38.2834 475.671 38.4851 475.05 38.6966 474.429L39.1662 473.034C39.7902 471.187 40.4074 469.389 41.0359 467.661C42.6966 462.804 44.4824 458.304 46.2681 454.232C46.6966 453.214 47.1431 452.197 47.5716 451.232L48.3808 449.399C49.0916 447.809 49.8574 446.2 50.7145 444.5C53.4042 438.864 56.6019 433.485 60.2681 428.429L60.6252 427.929L60.9123 427.567C61.7565 426.503 62.4952 425.571 63.0895 424.929L63.3574 424.643C64.1074 423.75 65.0002 422.857 65.8931 421.964C71.4951 416.4 77.6454 411.416 84.2502 407.089L86.2859 405.75C87.3038 405.089 88.3216 404.429 89.4109 403.768L90.3253 403.204C92.4835 401.882 94.8194 400.525 97.4288 399.072C101.75 396.714 106.482 394.304 111.5 391.929C117.268 389.197 123.214 386.607 129.214 384.232L130.403 383.75L134.381 382.179C135.139 381.883 135.905 381.589 136.679 381.304L138.107 380.768C141.462 379.517 144.969 378.262 148.722 376.972L152 375.857C159.158 373.447 166.502 371.172 174.31 368.941ZM184.393 366.157C188.516 365.055 192.642 363.992 196.732 362.982C201.168 370.96 217.454 374.461 226.094 375.788L227.536 376C234.583 376.981 241.689 377.476 248.804 377.482H250.072C257.181 377.477 264.281 376.981 271.322 376C279.216 374.897 296.294 371.631 301.647 363.858C301.843 363.579 302.024 363.294 302.189 363.003L302.186 363.002L302.25 362.893C302.23 362.93 302.21 362.966 302.189 363.003C304.675 363.572 307.543 364.297 310.758 365.145L314.781 366.219C310.113 370.867 304.525 374.491 298.375 376.857L296.904 377.436C289.53 380.27 281.85 382.24 274.018 383.304C257.825 385.589 241.39 385.589 225.197 383.304C216.793 382.154 208.564 379.971 200.697 376.804C194.553 374.41 188.976 370.761 184.322 366.089L184.393 366.157ZM202.804 308.572V358.947C203.589 361.697 211.875 366.429 228.554 368.768C235.275 369.706 242.053 370.177 248.839 370.179H250.072C256.852 370.176 263.624 369.705 270.34 368.768C277.467 367.762 283.059 366.326 287.189 364.797L287.549 364.662C293.011 362.567 295.752 360.324 295.964 358.786C295.966 358.444 296.014 358.107 296.105 357.784L296.108 308.727C293.577 310.921 290.923 312.971 288.159 314.868L286.768 315.804C277.842 321.844 267.593 325.583 256.933 326.73C255.026 326.945 253.107 327.077 251.179 327.125H247.697L247.583 327.12L247.554 327.125C245.591 327.072 243.637 326.932 241.697 326.706L239.892 326.47L238.853 326.312L237.354 326.054L236.156 325.822C228.056 324.177 220.306 321.02 213.323 316.484L212.375 315.857C209.015 313.66 205.817 311.225 202.804 308.572ZM247.787 99.6841L249.465 99.6967C267.482 99.4109 300.768 103.75 320.893 136.375C335.178 159.533 333.806 195.554 332.772 208.258L332.643 209.75V209.982L335.894 210.258L332.697 210.179L332.695 210.199L332.643 210.197C332.56 211 332.48 211.699 332.412 212.273L332.179 214.072C332.17 214.173 332.17 214.274 332.179 214.375L332.072 215.732C331.786 218.304 331.518 220.518 331.161 222.875C330.804 225.232 330.411 227.518 330 229.679L329.793 230.775C329.649 231.508 329.494 232.238 329.34 232.929L328.883 234.995L328.643 236.018V236.179C328.527 236.679 328.406 237.152 328.286 237.612L327.929 238.964L327.93 239.159C327.69 240.117 327.433 240.953 327.161 241.822L326.784 243.038L326.453 244.077L326.375 244.304C325.572 246.929 324.661 249.661 323.572 252.661V252.839C323.142 254.042 322.69 255.244 322.251 256.409L321.929 257.268L320.266 261.407C314.81 274.796 306.985 287.096 297.161 297.714L297.491 297.352C297.344 297.461 297.203 297.582 297.072 297.714C292.739 302.311 287.885 306.386 282.607 309.857L281.732 310.443C272.643 316.406 262.061 319.714 251.179 319.982H247.697C247.338 319.973 246.979 319.96 246.62 319.944L245.709 319.896L244.376 319.798C234.345 318.949 224.68 315.534 216.322 309.857L215.113 309.046C210.31 305.76 205.871 301.967 201.875 297.732C201.772 297.624 201.663 297.522 201.546 297.433C191.505 286.512 183.571 273.827 178.143 260.018L177.054 257.304C176.869 256.822 176.685 256.332 176.5 255.838L175.393 252.857L175.072 252.679C173.822 249.197 172.625 245.536 171.5 241.822C171.375 241.395 171.233 240.89 171.099 240.407L171.097 240.402L170.967 239.935L170.598 238.662C170.532 238.425 170.466 238.167 170.398 237.893L169.991 236.244C169.968 236.145 169.946 236.047 169.924 235.946C169.907 235.869 169.889 235.79 169.872 235.71C169.812 235.434 169.747 235.137 169.661 234.786L169.484 234.043C169.367 233.54 169.256 233.024 169.161 232.5V232.322C168.982 231.589 168.822 230.839 168.679 230.036L168.572 229.536L167.877 225.543C167.796 225.064 167.72 224.572 167.661 224.072C167.661 224.048 167.675 224.042 167.689 224.036C167.716 224.024 167.744 224.012 167.661 223.857C167.536 223.625 167.536 223.375 167.536 223.143V222.679C167.482 222.316 167.431 221.945 167.38 221.57L166.954 218.447C166.841 217.577 166.737 216.67 166.643 215.732L166.543 214.826L166.518 214.375C166.528 214.262 166.528 214.149 166.518 214.036L166.321 212.39L166.322 211.75C166.31 211.605 166.289 211.447 166.266 211.274C166.218 210.912 166.161 210.483 166.161 209.964L166.15 209.69C166.129 209.418 166.078 209.153 165.998 208.899L165.907 207.817C164.874 194.745 163.647 159.321 177.804 136.375C197.342 104.729 229.281 99.6968 247.787 99.6841ZM340.114 212.879L339.767 212.935L339.563 214.58C339.537 214.767 339.516 214.908 339.5 215L339.393 216.34C339.127 218.824 338.862 221.062 338.56 223.078L338.429 223.929L338.334 224.521L338.333 224.528C337.999 226.619 337.623 228.971 337.232 231.072C337.089 231.857 336.939 232.627 336.78 233.392L336.536 234.536L336.479 234.795C336.255 235.819 336.07 236.666 335.839 237.589V237.768L335.67 238.453C338.062 238.329 340.29 237.109 341.679 235.107C343.397 232.746 343.679 229.631 342.411 227C341.88 226.172 342.119 225.069 342.947 224.536C343.775 224.005 344.878 224.244 345.411 225.072C347.292 228.649 347.173 232.947 345.098 236.415C343.023 239.883 339.291 242.02 335.25 242.054L335.322 242.089C335.12 242.089 334.919 242.081 334.718 242.067L334.461 242.972L334.197 243.857C333.893 244.857 333.643 245.643 333.339 246.5C332.897 247.941 332.408 249.455 331.871 251.043L331.732 251.036C339.141 251.719 346.329 248.374 350.581 242.306L350.911 241.822C354.771 236.266 356.071 229.326 354.482 222.75C353.59 219.044 351.152 215.897 347.786 214.107C345.57 213.04 343.112 212.598 340.676 212.816L340.114 212.879ZM151.036 214.054C152.87 213.175 154.877 212.717 156.911 212.715C157.733 212.727 158.552 212.817 159.357 212.982V213.393C159.413 213.589 159.416 213.756 159.418 213.914C159.42 214.058 159.422 214.195 159.464 214.34C159.518 214.522 159.54 214.678 159.548 214.805L159.554 215.018C159.583 215.509 159.636 215.997 159.714 216.482C159.756 216.911 159.802 217.338 159.849 217.761L160.143 220.25C160.286 221.465 160.447 222.625 160.625 223.822V224.232L160.786 225.197C160.84 225.607 160.902 226.018 160.967 226.415L161.35 228.679C161.465 229.334 161.589 229.991 161.713 230.653L161.768 230.947L161.857 231.465L162.462 234.335L162.929 236.447L163.357 238.232V238.429L163.375 238.5C160.829 238.502 158.422 237.251 156.964 235.125C155.259 232.765 154.985 229.659 156.25 227.036C156.781 226.207 156.542 225.105 155.715 224.572C154.886 224.041 153.784 224.28 153.25 225.107C151.369 228.684 151.488 232.983 153.563 236.451C155.638 239.919 159.37 242.056 163.411 242.089C163.716 242.095 164.021 242.085 164.325 242.061L164.433 242.052L164.59 242.036C164.537 242.042 164.485 242.047 164.433 242.052C164.397 242.055 164.361 242.058 164.325 242.061L164.321 242.061L164.84 243.84C165.572 246.268 166.322 248.643 167.107 250.982C159.504 251.688 152.13 248.145 147.929 241.768L147.55 241.208C143.974 235.755 142.811 229.053 144.357 222.697C145.244 218.993 147.675 215.846 151.036 214.054Z" fill="#372168"/>
<path fill-rule="evenodd" clip-rule="evenodd" d="M302.189 363.003C302.21 362.966 302.23 362.93 302.25 362.893L302.186 363.002L302.189 363.003ZM164.433 242.052L164.59 242.036C164.537 242.042 164.485 242.047 164.433 242.052Z" fill="#372168"/>
<g style="mix-blend-mode:multiply" opacity="0.15">
<path fill-rule="evenodd" clip-rule="evenodd" d="M218.75 249.583C218.75 260.484 210.755 269.32 200.893 269.32C191.031 269.32 183.036 260.484 183.036 249.583C183.036 238.683 191.031 229.846 200.893 229.846C210.755 229.846 218.75 238.683 218.75 249.583ZM315.179 249.583C315.179 260.484 307.184 269.32 297.321 269.32C287.459 269.32 279.464 260.484 279.464 249.583C279.464 238.683 287.459 229.846 297.321 229.846C307.184 229.846 315.179 238.683 315.179 249.583Z" fill="#FF1300"/>
</g>
<path d="M254.028 268.848C252.887 268.859 251.832 268.242 251.28 267.243C250.728 266.244 250.769 265.023 251.385 264.063L255.35 257.741C255.943 256.784 257.002 256.216 258.127 256.252C259.253 256.287 260.274 256.92 260.806 257.913C261.338 258.905 261.3 260.106 260.707 261.063L256.742 267.402C256.159 268.332 255.126 268.883 254.028 268.848Z" fill="#372168"/>
<path d="M249.059 246.94C245.159 246.993 241.492 245.089 239.291 241.869C238.354 240.419 238.77 238.484 240.219 237.548C241.669 236.611 243.604 237.026 244.541 238.476C245.628 239.89 247.316 240.711 249.099 240.694C250.882 240.676 252.553 239.822 253.612 238.387C254.51 236.907 256.436 236.436 257.916 237.333C259.395 238.231 259.867 240.157 258.969 241.637C256.809 245.003 253.058 247.011 249.059 246.94Z" fill="#372168"/>
<path d="M286.261 225.447C294.171 225.447 294.189 213.125 286.261 213.125C278.332 213.125 278.314 225.447 286.261 225.447Z" fill="#372168"/>
<path d="M213.1 225.447C221.028 225.447 221.046 213.125 213.1 213.125C205.153 213.125 205.153 225.447 213.1 225.447Z" fill="#372168"/>
<path d="M228.071 208.447H197.071C195.099 208.447 193.5 206.848 193.5 204.875C193.5 202.903 195.099 201.304 197.071 201.304H228.071C230.044 201.304 231.643 202.903 231.643 204.875C231.643 206.848 230.044 208.447 228.071 208.447Z" fill="#372168"/>
<path d="M301.982 200.125H270.982C269.01 200.125 267.411 198.526 267.411 196.554C267.411 194.581 269.01 192.982 270.982 192.982H301.982C303.955 192.982 305.554 194.581 305.554 196.554C305.554 198.526 303.955 200.125 301.982 200.125Z" fill="#372168"/>
<path fill-rule="evenodd" clip-rule="evenodd" d="M385.291 306.536C385.291 306.536 392.13 315.893 391.684 324.5H299.952V301.125C301.541 299.447 303.113 297.697 304.648 295.768C312.884 285.668 319.51 274.356 324.291 262.232L325.398 259.465C325.988 257.929 326.577 256.34 327.184 254.768C335.898 256.786 347.363 254.965 354.148 244.607C363.077 231.018 359.005 216.161 349.648 211.715C345.562 209.776 340.884 209.494 336.595 210.929C331.238 185.215 312.184 182.072 302.755 169.982C293.241 157.637 289.276 141.897 291.809 126.518C273.952 133.447 260.809 127.697 242.47 159.393C233.166 175.465 229.47 186.179 196.648 187.661C176.291 188.607 164.684 199.732 162.827 210.875C158.532 209.439 153.848 209.721 149.755 211.661C140.398 216.107 136.398 230.965 145.255 244.554C152.041 254.911 163.505 256.732 172.22 254.715C172.791 256.286 173.38 257.875 174.005 259.411L175.113 262.179C179.907 274.296 186.532 285.606 194.755 295.715C196.309 297.5 197.88 299.286 199.488 301.072V324.429H153.916L152.595 297.179C152.595 297.179 142.13 306.5 144.559 324.429H133.023C124.327 312.75 127.023 298.268 127.023 298.268C118.095 308 122.22 324.429 122.22 324.429H70.8268C64.1482 283.857 75.5589 265.679 89.2554 249.143C115.005 218.054 110.309 196.482 106.505 179.607C103.226 165.969 103.055 151.767 106.005 138.054C113.148 107.697 134.327 81.9645 173.166 83.9645C178.523 84.2502 183.345 84.2681 187.88 84.1252C206.13 83.5002 223.791 77.7502 240.13 68.6252C288.345 41.7324 320.488 83.9645 320.488 83.9645C320.488 83.9645 382.005 83.1967 390.595 142.661C391.445 148.573 391.721 154.553 391.416 160.518C391.167 164.389 390.648 168.237 389.863 172.036C387.267 185.141 383.156 197.899 377.613 210.054C366.898 233.072 389.505 253.732 399.041 276.125C404.059 287.965 407.863 305.732 407.97 324.34C407.898 324.5 393.023 308.572 385.291 306.536Z" fill="#A1D0B5"/>
<path fill-rule="evenodd" clip-rule="evenodd" d="M322.788 80.4801L322.113 80.4462C315.791 73.1784 283.523 40.2855 238.345 65.5177C221.505 74.9284 204.47 79.982 187.738 80.5534C182.827 80.7141 178.113 80.6605 173.309 80.4105L172.242 80.3622C137.139 78.9964 111.132 100.125 102.488 137.25C99.3935 151.484 99.5644 166.234 102.988 180.393L102.993 180.418C106.653 196.718 111.207 216.998 86.4697 246.875L85.2544 248.354C72.193 264.404 60.5 283.966 67.2554 325.018C67.5462 326.757 69.0633 328.024 70.8268 328H122.148C123.246 327.999 124.282 327.493 124.958 326.629C125.635 325.764 125.876 324.637 125.613 323.571L125.4 322.507C125.006 320.373 124.802 318.207 124.791 316.036C125.958 319.829 127.77 323.393 130.148 326.571C130.826 327.476 131.893 328.005 133.023 328H144.559C145.591 328.004 146.574 327.561 147.255 326.786C147.939 326.008 148.252 324.972 148.113 323.946C147.317 318.785 147.82 313.507 149.577 308.589L150.345 324.661C150.44 326.563 152.011 328.056 153.916 328.053H199.47C201.442 328.053 203.041 326.454 203.041 324.482V301.125C203.037 300.205 202.679 299.323 202.041 298.661C201.282 297.893 200.532 297.062 199.778 296.201L197.488 293.553C189.484 283.725 183.034 272.729 178.363 260.946L177.997 260.041L177.291 258.25C176.72 256.786 176.166 255.286 175.613 253.786C175.42 253.076 175 252.448 174.416 252C173.568 251.321 172.458 251.065 171.398 251.303C164.005 253.018 154.059 251.607 148.184 242.678L147.806 242.118C144.236 236.663 143.073 229.963 144.613 223.607C145.503 219.905 147.933 216.76 151.291 214.964C154.575 213.413 158.332 213.196 161.773 214.357C162.761 214.671 163.836 214.541 164.72 214C165.598 213.455 166.197 212.556 166.363 211.536C167.934 202.071 177.97 192.125 196.827 191.25L198.754 191.152C229.617 189.381 235.548 178.929 243.683 164.592L243.755 164.464L245.541 161.268C258.666 138.59 268.201 136.393 280.289 133.607L281.712 133.291C283.616 132.861 285.559 132.393 287.559 131.821C286.59 146.372 290.986 160.774 299.916 172.303C303.488 176.483 307.637 180.133 312.238 183.143C320.88 189.339 329.791 195.803 333.077 211.714C333.279 212.701 333.888 213.558 334.755 214.071C335.63 214.584 336.682 214.701 337.648 214.393C341.077 213.232 344.823 213.449 348.095 215C351.456 216.795 353.892 219.939 354.791 223.643C356.375 230.218 355.075 237.157 351.22 242.714L350.867 243.233C344.919 251.734 335.201 253.09 328.005 251.339C326.94 251.095 325.822 251.351 324.97 252.036C324.438 252.472 324.036 253.047 323.809 253.696C323.624 254.202 323.438 254.712 323.251 255.221L322.13 258.232L321.023 260.964C316.374 272.757 309.922 283.757 301.898 293.571C300.505 295.25 299.023 296.893 297.363 298.678C296.735 299.339 296.384 300.214 296.38 301.125V324.5C296.38 326.472 297.979 328.071 299.952 328.071H391.72C393.665 328.071 395.252 326.516 395.291 324.571C395.382 321.72 394.977 318.874 394.095 316.161C398.036 319.519 401.786 323.096 405.327 326.875C406.332 327.948 407.892 328.296 409.257 327.751C410.623 327.207 411.515 325.881 411.505 324.411C411.434 306.714 408.005 288.161 402.327 274.75C399.221 267.999 395.641 261.476 391.613 255.232L391.506 255.056C382.509 240.21 374.014 226.192 380.791 211.607L381.591 209.83C386.86 197.952 390.785 185.521 393.291 172.768C394.114 168.799 394.657 164.777 394.916 160.732C395.222 154.528 394.935 148.31 394.059 142.161C386.114 87.2105 334.642 81.138 322.788 80.4801ZM241.952 71.9284L243.13 71.2807C281.113 50.805 308.022 75.4399 315.583 83.7317L316.026 84.2232C304.181 101.168 296.634 112.578 292.574 118.858L289.521 123.642C285.967 124.886 282.335 125.894 278.648 126.661L278.611 126.669C265.982 129.594 254.027 132.364 239.363 157.714L237.577 160.946C229.541 175.053 225.077 182.821 196.505 184.161L195.616 184.208C175.567 185.431 163.757 195.839 160.238 206.75C155.794 206.035 151.436 206.853 147.724 208.833C148.543 201.685 150.305 194.667 152.97 187.964C160.255 170.357 172.898 161.178 190.755 160.696L191.632 160.669C218.272 159.707 223.55 148.568 227.795 135.095L229.244 130.381C229.575 129.307 229.916 128.22 230.273 127.125C234.648 113.839 242.613 107.089 253.988 107.089C254.974 107.089 255.773 106.29 255.773 105.303C255.773 104.317 254.974 103.518 253.988 103.518C241.166 103.518 231.72 111.303 226.88 126.018C226.427 127.423 225.999 128.816 225.575 130.196L224.66 133.174C220.432 146.778 216.187 156.43 190.666 157.125L189.497 157.169C152.771 158.937 145.473 196.164 144.034 209.898L143.881 211.503C140.927 214.118 138.725 217.63 137.738 221.732C135.571 230.332 137.231 239.449 142.291 246.732L142.636 247.246C148.696 256.071 159.307 260.649 169.916 258.964L170.666 260.964C170.854 261.464 171.037 261.928 171.222 262.384L171.791 263.75C176.726 276.219 183.55 287.855 192.023 298.25C193.363 299.821 194.648 301.286 195.934 302.678V321.036L180.666 321.035C181.298 313.424 180.542 296.18 164.041 281.053C158.274 275.692 153.809 269.083 150.988 261.732C150.774 261.111 150.238 260.657 149.59 260.55C148.943 260.443 148.288 260.7 147.887 261.219C147.485 261.738 147.4 262.435 147.666 263.036L148.052 264.013C151.078 271.476 155.713 278.185 161.63 283.661C176.395 297.186 177.477 312.949 177.075 320.167L177.017 321.036L157.327 321.036L156.166 297.196C156.099 295.818 155.244 294.601 153.97 294.071C152.703 293.542 151.246 293.785 150.22 294.696C149.773 295.089 139.934 304.071 140.666 321.036H134.88C129.31 312.378 130.13 302.292 130.441 299.725L130.566 298.813C130.72 297.345 129.951 295.92 128.613 295.25C127.185 294.537 125.457 294.857 124.38 296.036C117.582 303.483 117.319 313.969 117.919 320.211L118.005 321.036L96.9147 321.036C94.5605 318.307 93.0515 314.924 92.6125 311.303C92.1661 306.178 94.3804 300.928 99.1661 295.571C114.066 279.102 110.897 269.638 110.593 268.828L110.486 268.603C110.055 267.844 109.124 267.499 108.291 267.821C107.376 268.178 106.921 269.208 107.273 270.125C107.273 270.126 107.274 270.128 107.274 270.131C107.276 270.136 107.278 270.145 107.281 270.157C107.437 270.723 109.64 278.716 96.559 293.196L96.0377 293.784C90.9175 299.669 88.5757 305.68 89.0768 311.625C89.4728 315.01 90.6451 318.225 92.4676 321.036L73.9697 321.036C68.6867 284.868 78.7773 267.922 90.9588 252.987L92.8951 250.632C117.673 220.159 114.283 198.052 110.654 181.581L110.077 179C106.895 165.893 106.724 152.236 109.577 139.053C113.345 122.821 127.095 85.3748 173.059 87.7141C178.059 87.982 182.97 88.0355 188.095 87.8748C205.988 87.2677 224.095 81.8927 241.952 71.9284ZM322.361 87.6404L316.612 95.9032C304.098 113.996 297.559 124.245 295.557 127.383C295.39 127.645 295.254 127.859 295.149 128.022L295.005 128.799C291.635 147.776 300.068 166.983 316.452 177.321L318.892 179.099C326.755 184.894 334.982 191.909 339.029 206.005C340.277 204.09 341.629 201.402 342.595 198.125L342.853 197.179C344.156 192.105 345.038 183.414 339.032 175.681L338.63 175.178C328.577 162.911 329.845 146.607 329.898 145.928C329.982 144.942 330.85 144.211 331.836 144.294C332.752 144.372 333.448 145.126 333.475 146.023L333.43 147.202C333.346 150.704 333.602 162.972 341.009 172.424L341.398 172.911C349.291 182.536 347.684 193.482 346.023 199.143C345.238 201.807 344.137 204.355 342.899 206.516C351.722 206.757 359.537 212.867 361.684 221.732C363.757 230.053 362.251 238.851 357.553 245.998L357.13 246.625C351.142 255.796 340.323 260.594 329.505 258.875C329.255 259.536 329.005 260.196 328.773 260.839L327.63 263.661C322.706 276.133 315.875 287.766 307.38 298.143C306.166 299.607 304.898 301.053 303.505 302.553L303.559 320.928L351.292 320.927L351.545 320.075C353.091 314.588 354.432 304.163 345.595 296.964C341.234 293.348 338.676 288.004 338.595 282.339C338.54 281.353 339.296 280.509 340.282 280.455C341.268 280.401 342.112 281.156 342.166 282.143C342.208 286.788 344.275 291.184 347.827 294.178C358.097 302.479 356.66 314.579 354.946 320.929L387.898 320.928C386.911 316.511 385.054 312.334 382.434 308.643C381.544 307.42 381.521 305.77 382.375 304.523C383.229 303.276 384.776 302.701 386.238 303.089C391.416 304.446 398.738 310.607 404.095 315.589C403.36 302.575 400.564 289.761 395.809 277.625C392.845 271.203 389.444 264.992 385.63 259.036L383.725 255.899C374.736 241.014 366.543 225.594 374.434 208.678C379.866 196.784 383.888 184.294 386.416 171.464C387.164 167.83 387.659 164.149 387.898 160.446C388.201 154.708 387.938 148.954 387.113 143.268C379.762 92.3975 332.39 87.9597 322.361 87.6404ZM161.88 111.714C162.867 111.601 163.574 110.709 163.461 109.723C163.347 108.737 162.456 108.029 161.47 108.143C159.609 108.345 157.765 108.68 155.952 109.143C138.791 113.803 130.059 129.107 127.791 140.786C126.273 148.661 127.452 155.161 130.863 157.75C131.893 158.524 133.146 158.944 134.434 158.946C135.774 158.934 137.092 158.597 138.273 157.964C139.075 157.482 139.368 156.463 138.946 155.628C138.524 154.794 137.53 154.426 136.666 154.786C134.657 155.814 133.632 155.309 133.213 155.016L132.929 154.798C131.128 153.269 129.94 148.536 131.309 141.482C133.363 130.803 141.309 116.839 156.88 112.607C158.522 112.183 160.193 111.884 161.88 111.714Z" fill="#372168"/>
<path d="M353.687 59.2683C343.3 67.3948 332.493 74.9707 321.312 81.9647C320.812 82.304 320.294 82.6076 319.777 82.929C308.95 89.6943 297.787 95.9047 286.33 101.536C254.187 117.25 200.919 130.679 171.794 136.59C164.367 138.094 156.831 138.995 149.259 139.286C147.562 139.286 145.884 139.411 144.241 139.429C132.917 139.53 121.616 138.38 110.544 136C109.959 135.867 109.358 135.819 108.759 135.858C110.919 135.483 116.884 135.108 121.759 134.59C134.098 133.322 137.723 130.858 146.277 129.536C148.902 129.143 151.384 128.768 153.598 128.465C165.419 126.822 263.741 95.9826 319.08 74.6969C326.723 71.7505 333.562 69.0005 339.223 66.5183C344.227 64.4842 349.063 62.0601 353.687 59.2683V59.2683Z" fill="#F9F9F9"/>
<path fill-rule="evenodd" clip-rule="evenodd" d="M109.776 139.429C120.66 141.795 131.764 142.993 142.901 143L144.294 142.965C145.341 142.956 146.272 142.919 147.13 142.885C147.954 142.852 148.711 142.822 149.437 142.822C157.202 142.526 164.93 141.6 172.544 140.054C206.526 133.161 257.116 119.768 287.937 104.715C299.497 99.0265 310.761 92.7566 321.687 85.929L323.259 84.9647C334.54 77.9004 345.442 70.247 355.919 62.0362L351.741 56.2683C347.311 58.9323 342.684 61.2545 337.901 63.2147C332.544 65.554 325.991 68.2147 317.901 71.3219C262.419 92.7505 164.151 123.375 153.223 124.893C151.526 125.125 149.687 125.393 147.741 125.697L145.848 125.983C142.676 126.494 139.539 127.204 136.455 128.108C131.574 129.535 126.57 130.503 121.509 131C119.954 131.169 118.288 131.315 116.677 131.456C116.235 131.495 115.797 131.533 115.366 131.572C112.276 131.822 109.651 132.054 108.223 132.286L108.991 139.429C109.251 139.393 109.516 139.393 109.776 139.429ZM144.151 135.858C141.241 135.893 138.437 135.822 135.759 135.697L138.276 135.036C141.097 134.207 143.965 133.551 146.866 133.072L148.741 132.786L154.098 132.001C166.794 130.233 266.419 98.7863 320.366 78.0363L321.491 77.6077L319.33 78.9649C318.848 79.2863 318.348 79.5899 317.848 79.8935C307.116 86.5937 296.055 92.7503 284.705 98.3399C252.401 114.126 198.062 127.608 171.044 133.09C163.782 134.557 156.413 135.435 149.009 135.715C147.58 135.858 146.08 135.858 144.151 135.858Z" fill="#372168"/>
<path fill-rule="evenodd" clip-rule="evenodd" d="M149.366 139.286C156.937 138.987 164.473 138.085 171.902 136.59L174.494 136.058C204.098 129.916 255.243 116.795 286.437 101.536C297.9 95.9046 309.069 89.6943 319.902 82.9291C320.402 82.6077 320.919 82.3041 321.419 81.9648C324.759 79.8755 327.919 77.8041 330.902 75.8219L332.859 74.5042C341.539 68.6239 348.481 63.4351 353.255 59.6797L354.598 58.6255L355.384 58.0719C355.879 57.7808 356.406 57.5471 356.955 57.3755C357.426 57.2346 357.911 57.1448 358.401 57.1077C361.662 56.8195 364.701 58.7842 365.777 61.8755L366.218 63.1791C366.37 63.6166 366.526 64.0452 366.687 64.4291L366.835 64.8611C368.428 69.7889 370.335 84.8634 340.418 101.948L339.473 102.483C338.455 103.072 337.387 103.651 336.284 104.228L335.169 104.804C310.169 117.751 278.991 134.554 245.419 144.572L242.427 145.46C193.344 159.933 134.167 172.912 115.687 161.572L115.116 161.197C114.072 160.499 113.065 159.748 112.098 158.947C107.123 155.272 103.688 149.883 102.455 143.822C102.138 142.087 102.517 140.298 103.509 138.84C104.365 137.572 105.623 136.628 107.08 136.161C107.658 135.972 108.259 135.864 108.866 135.84C109.465 135.818 110.065 135.872 110.652 136.001C119.313 137.863 128.119 138.973 136.971 139.318L134.741 132.429C133.425 128.405 132.392 124.294 131.652 120.126C131.312 118.233 131.027 116.358 130.83 114.465C130.299 109.848 130.132 105.197 130.33 100.554C131.884 62.5229 156.925 29.4693 193.116 17.6791L213.919 10.9112C245.17 0.712173 279.493 8.17475 303.687 30.4291C307.219 33.6558 310.485 37.1612 313.455 40.9112C315.84 43.9216 318.03 47.0806 320.011 50.369L320.848 51.7862C321.937 53.5719 322.955 55.5541 323.919 57.5184C325.764 61.3303 327.351 65.2618 328.669 69.2862L330.794 75.8398C328.324 77.4916 325.705 79.193 322.979 80.9233L319.794 82.9291C308.962 89.6943 297.793 95.9046 286.33 101.536C254.187 117.251 200.919 130.697 171.812 136.59C164.378 138.085 156.836 138.987 149.259 139.286C147.991 139.366 146.743 139.396 145.5 139.414L144.348 139.429C146.009 139.429 147.669 139.429 149.366 139.286Z" fill="#D5DCEF"/>
<path fill-rule="evenodd" clip-rule="evenodd" d="M142.99 143H142.991H144.276L144.287 143C145.944 142.982 147.619 142.964 149.401 142.858C157.164 142.542 164.891 141.617 172.509 140.09C199.848 134.554 254.901 120.822 287.901 104.75C299.487 99.0542 310.776 92.7723 321.723 85.929L322.33 85.554C322.651 85.3576 322.973 85.1611 323.223 84.9826C326.651 82.8397 329.848 80.7504 332.776 78.804L335.026 77.304L332.062 68.179C330.689 63.9956 329.036 59.909 327.116 55.9468C326.098 53.8576 325.026 51.7861 323.937 50.0004C301.589 11.358 255.239 -6.36148 212.812 7.51827L192.009 14.2861C154.404 26.5357 128.381 60.8768 126.759 100.393C126.547 105.209 126.72 110.034 127.276 114.822C127.455 116.643 127.741 118.572 128.134 120.75C128.899 125.083 129.973 129.356 131.348 133.536L134.33 142.786L136.83 142.893C138.812 143 140.883 143 142.99 143ZM144.205 135.858H139.598L138.044 131.233C136.782 127.366 135.792 123.416 135.08 119.411C134.723 117.501 134.455 115.733 134.294 114.054C133.777 109.622 133.616 105.155 133.812 100.697C135.258 64.1413 159.334 32.3606 194.134 21.072L214.937 14.3042C244.969 4.56149 277.919 11.7315 301.187 33.072C304.579 36.1637 307.715 39.5259 310.562 43.1256C313.198 46.4327 315.585 49.9303 317.705 53.5899C318.723 55.3042 319.705 57.1613 320.651 59.072C322.417 62.7439 323.943 66.5255 325.223 70.3934L326.509 74.3577C324.294 75.8339 321.913 77.3756 319.366 78.9827L319.365 78.983C319.098 79.1436 318.83 79.3043 318.58 79.4827L317.901 79.8934C307.173 86.5932 296.111 92.744 284.759 98.322C252.401 114.143 198.098 127.626 171.098 133.09C163.822 134.547 156.441 135.425 149.026 135.715C147.419 135.858 145.759 135.858 144.205 135.858Z" fill="#372168"/>
<path fill-rule="evenodd" clip-rule="evenodd" d="M113.83 164.625C118.277 167.358 125.848 169.447 138.652 169.447C158.866 169.447 192.08 164.215 246.437 148C277.544 138.715 306.848 123.536 330.366 111.34L336.866 107.983C338.402 107.179 339.884 106.393 341.277 105.608C375.634 86.3755 371.919 68.2326 369.973 63.1612C369.728 62.6138 369.506 61.9385 369.271 61.2199C369.214 61.0476 369.157 60.8729 369.098 60.6969C367.485 56.0808 362.952 53.142 358.08 53.554C357.329 53.6096 356.587 53.7473 355.866 53.9647C355.003 54.22 354.18 54.5926 353.419 55.0719C353.056 55.2972 352.704 55.5416 352.366 55.804L351.527 56.4647C346.812 60.179 339.08 66.0183 328.866 72.8576C325.723 74.9469 322.562 77.0005 319.402 78.9826L318.169 79.7683L317.955 79.8933C307.044 86.679 295.902 92.9826 284.812 98.3397C252.455 114.143 198.152 127.625 171.152 133.09C163.883 134.556 156.508 135.433 149.098 135.715C147.437 135.858 145.794 135.858 144.259 135.858C143.018 135.867 141.763 135.836 140.498 135.805C139.377 135.778 138.248 135.75 137.116 135.75C128.437 135.422 119.804 134.34 111.312 132.518C110.475 132.329 109.617 132.245 108.759 132.268C107.799 132.296 106.848 132.464 105.937 132.768C101.019 134.371 98.0326 139.353 98.9372 144.447C100.317 151.33 104.181 157.464 109.794 161.679C110.835 162.552 111.926 163.363 113.062 164.108C113.256 164.257 113.459 164.394 113.669 164.518L113.83 164.625ZM244.348 141.143C178.044 160.947 131.848 167.286 117.562 158.536L116.937 158.233C116.751 158.098 116.564 157.964 116.377 157.831C115.6 157.274 114.835 156.726 114.187 156.179C109.908 153.023 106.93 148.413 105.812 143.215C105.649 142.374 105.836 141.503 106.33 140.804C106.728 140.213 107.313 139.773 107.991 139.554C108.246 139.475 108.51 139.427 108.777 139.411C109.062 139.384 109.349 139.384 109.634 139.411C118.536 141.328 127.588 142.469 136.687 142.822C139.205 142.929 141.705 142.929 144.116 142.929L144.251 142.927C145.773 142.91 147.507 142.89 149.241 142.786C157.004 142.472 164.73 141.546 172.348 140.018C199.687 134.483 254.741 120.75 287.741 104.679C299.297 98.9847 310.562 92.7149 321.491 85.8933H321.669L323.062 85.0183C326.205 83.0183 329.419 80.9468 332.616 78.8218C343.116 71.8576 351.009 65.8754 355.83 62.0718L356.651 61.4468C356.794 61.3218 357.044 61.1611 357.044 61.1611C357.284 61.0144 357.542 60.9003 357.812 60.8218C358.051 60.7488 358.296 60.7009 358.544 60.679C360.211 60.5344 361.755 61.566 362.259 63.1611C362.544 64.0183 362.848 64.8754 363.169 65.7326C367.687 77.4826 352.955 90.8218 337.652 99.3933C336.33 100.143 334.937 100.875 333.491 101.625L326.973 105C303.705 117.054 274.705 132.072 244.348 141.143Z" fill="#372168"/>
<path fill-rule="evenodd" clip-rule="evenodd" d="M320.848 51.7859C298.053 65.5204 274.055 77.1517 249.152 86.5359C245.705 87.8395 242.241 89.1252 238.723 90.3752C200.152 104.107 162.777 112.107 130.83 114.465C130.299 109.848 130.132 105.197 130.33 100.554C130.508 96.1666 131.003 91.798 131.812 87.4824C165.145 83.5312 197.91 75.7414 229.455 64.2681C239.741 60.6966 249.705 56.6966 259.277 52.5538C274.497 46.0342 289.326 38.6348 303.687 30.3931C307.219 33.6198 310.485 37.1251 313.455 40.8752C316.182 44.327 318.653 47.9737 320.848 51.7859Z" fill="#FFB3C4"/>
<path fill-rule="evenodd" clip-rule="evenodd" d="M127.259 114.875C127.468 116.686 129.007 118.048 130.83 118.036L131.062 118.018C164.58 115.554 202.205 107.161 239.884 93.7323C242.124 92.9441 244.301 92.1346 246.499 91.3173C247.787 90.8383 249.082 90.3567 250.401 89.8751C275.512 80.4196 299.708 68.6924 322.687 54.8394C324.345 53.8292 324.892 51.68 323.919 50.0001C321.631 46.0508 319.059 42.273 316.223 38.6966C313.137 34.7902 309.739 31.1413 306.062 27.7859C304.91 26.7381 303.212 26.5575 301.866 27.3394C287.624 35.5049 272.92 42.8386 257.83 49.3037C248.384 53.393 238.437 57.3573 228.223 60.9287C196.939 72.2864 164.451 80.0039 131.401 83.9287C129.836 84.0986 128.566 85.2738 128.276 86.8216C127.438 91.3029 126.919 95.8381 126.723 100.393C126.527 105.227 126.706 110.069 127.259 114.875ZM133.902 100.697C134.042 97.3596 134.37 94.0329 134.884 90.7325C167.545 86.6164 199.648 78.8783 230.598 67.661C240.991 63.9825 251.062 60.0182 260.634 55.8753C275.166 49.6399 289.348 42.6176 303.116 34.8396C305.79 37.433 308.29 40.201 310.598 43.1253C312.511 45.513 314.3 47.9985 315.955 50.5718C294.249 63.3919 271.474 74.3077 247.884 83.1968C247.558 83.3195 247.233 83.4423 246.907 83.565C243.827 84.7275 240.757 85.8858 237.527 87.0003C201.741 99.7503 166.062 107.893 134.062 110.625C133.812 107.322 133.759 104.007 133.902 100.697Z" fill="#372168"/>
<path d="M284.294 60.3216C283.436 60.3237 282.698 59.7149 282.536 58.8721C282.375 58.0292 282.836 57.1906 283.634 56.8751C303.152 49.018 312.08 39.768 312.205 39.6787C312.902 38.9863 314.026 38.9863 314.723 39.6787C315.061 40.014 315.251 40.4704 315.251 40.9466C315.251 41.4227 315.061 41.8791 314.723 42.2144C314.33 42.6073 305.152 52.1251 284.919 60.2501C284.717 60.3107 284.505 60.3349 284.294 60.3216Z" fill="#372168"/>
<path d="M193.705 34.554C193.067 34.5827 192.462 34.2689 192.118 33.7308C191.775 33.1926 191.744 32.5119 192.038 31.945C192.332 31.3782 192.906 31.0113 193.544 30.9826C203.259 30.0897 228.509 25.6254 228.741 16.0004C228.839 14.794 228.378 13.6092 227.491 12.7862C225.116 10.7683 219.902 11.179 218.08 11.5183C217.094 11.6958 216.15 11.0402 215.973 10.054C215.795 9.06779 216.451 8.12439 217.437 7.94687C218.277 7.78616 225.723 6.53616 229.794 10.0004C231.522 11.5148 232.451 13.7432 232.312 16.0362C231.973 30.5719 197.777 34.1254 193.884 34.4826L193.705 34.554Z" fill="#372168"/>
</g>
<path fill-rule="evenodd" clip-rule="evenodd" d="M0 250C0 111.929 111.929 0 250 0C388.071 0 500 111.929 500 250C500 388.071 388.071 500 250 500C111.929 500 0 388.071 0 250ZM492.857 250C492.857 115.874 384.126 7.14286 250 7.14286C115.874 7.14286 7.14286 115.874 7.14286 250C7.14286 384.126 115.874 492.857 250 492.857C384.126 492.857 492.857 384.126 492.857 250Z" fill="#372168"/>
</svg>
