<svg width="3708" height="1402" xmlns="http://www.w3.org/2000/svg" xmlns:xlink="http://www.w3.org/1999/xlink" overflow="hidden"><defs><clipPath id="clip0"><rect x="719" y="435" width="3708" height="1402"/></clipPath></defs><g clip-path="url(#clip0)" transform="translate(-719 -435)"><path d="M1115.5 850.168C1115.5 807.273 1150.27 772.5 1193.17 772.5L1599.83 772.5C1642.73 772.5 1677.5 807.273 1677.5 850.168L1677.5 1160.83C1677.5 1203.73 1642.73 1238.5 1599.83 1238.5L1193.17 1238.5C1150.27 1238.5 1115.5 1203.73 1115.5 1160.83Z" stroke="#30333E" stroke-width="55" stroke-linecap="butt" stroke-linejoin="miter" stroke-miterlimit="8" stroke-opacity="1" fill="none" fill-rule="evenodd"/><path d="M1239.5 875.5 1239.5 1157.85" stroke="#30333E" stroke-width="55" stroke-linecap="round" stroke-linejoin="miter" stroke-miterlimit="8" stroke-opacity="1" fill="none" fill-rule="evenodd"/><path d="M1343.5 897.5 1477.58 897.5" stroke="#30333E" stroke-width="55" stroke-linecap="round" stroke-linejoin="miter" stroke-miterlimit="8" stroke-opacity="1" fill="none" fill-rule="evenodd"/><path d="M1343.5 1040.5 1518.11 1040.5" stroke="#30333E" stroke-width="55" stroke-linecap="round" stroke-linejoin="miter" stroke-miterlimit="8" stroke-opacity="1" fill="none" fill-rule="evenodd"/><path d="M0 0 104.211 119.511" stroke="#30333E" stroke-width="55" stroke-linecap="round" stroke-linejoin="miter" stroke-miterlimit="8" stroke-opacity="1" fill="none" fill-rule="evenodd" transform="matrix(-1 0 0 1 1366.71 1254.5)"/><path d="M1415.5 1254.5 1519.71 1374.01" stroke="#30333E" stroke-width="55" stroke-linecap="round" stroke-linejoin="miter" stroke-miterlimit="8" stroke-opacity="1" fill="none" fill-rule="evenodd"/><text fill="#30333E" fill-opacity="1" font-family="BM JUA OTF,BM JUA OTF_MSFontService,sans-serif" font-style="normal" font-variant="normal" font-weight="400" font-stretch="normal" font-size="665" text-anchor="start" direction="ltr" writing-mode="lr-tb" unicode-bidi="normal" text-decoration="none" transform="matrix(1 0 0 1 1854.71 1200)">HyupUp</text></g></svg>